<?xml version="1.0" standalone="no"?>
<!DOCTYPE svg PUBLIC "-//W3C//DTD SVG 1.1//EN" "http://www.w3.org/Graphics/SVG/1.1/DTD/svg11.dtd" >
<svg xmlns="http://www.w3.org/2000/svg" xmlns:xlink="http://www.w3.org/1999/xlink" version="1.1">
<metadata>
Created by FontForge 20161116 at Fri Jun 22 10:59:14 2012
 By Jimmy Warting
Copyright (c) 2012 Linotype GmbH, www.linotype.com. All rights reserved. This font software may not be reproduced, modified, disclosed or transferred without the express written approval of Linotype GmbH. Avenir is a trademark of Linotype GmbH registered in the U.S. Patent and Trademark Office and may be registered in certain other jurisdictions. This typeface is original artwork of Adrian Frutiger and Akira Kobayashi. The design may be protected in certain jurisdictions.
</metadata>
<defs>
<font id="AvenirNextCyr-ThinItalic" horiz-adv-x="356" >
  <font-face 
    font-family="Avenir Next Cyr Thin"
    font-weight="275"
    font-style="italic"
    font-stretch="normal"
    units-per-em="1000"
    panose-1="2 11 3 3 2 2 2 9 2 4"
    ascent="756"
    descent="-244"
    x-height="462"
    cap-height="708"
    bbox="-244 -250 1055 945"
    underline-thickness="50"
    underline-position="-100"
    slope="-12"
    stemh="28"
    stemv="37"
    unicode-range="U+000D-FB04"
  />
<missing-glyph horiz-adv-x="512" 
d="M278 117h-56v67h56v-67zM271 234h-46l-2 17c0 75 13 95 59 140c43 42 50 57 50 83c0 48 -35 85 -76 85s-74 -27 -82 -95l-50 8c9 95 63 137 135 137c71 0 124 -52 124 -131c0 -42 -12 -74 -63 -120s-49 -52 -49 -124zM50 50h412v617h-412v-617zM0 718h512v-718h-512v718z
" />
    <glyph glyph-name="napostrophe" unicode="&#x22;n" horiz-adv-x="569" 
d="M334 476c99 0 148 -64 148 -157c0 -18 -2 -37 -5 -56l-47 -263h-36l48 269c3 15 4 32 4 48c0 67 -30 128 -119 128c-87 0 -172 -76 -199 -231l-38 -214h-36l62 350c5 28 13 85 15 112h35c-2 -25 -10 -78 -15 -108h2c39 79 107 122 181 122zM233 708l-101 -187h-29l92 187
h38z" />
    <glyph glyph-name="fi" unicode="fi" horiz-adv-x="509" 
d="M376 762l-8 -30c-12 3 -26 5 -42 5c-70 0 -98 -60 -109 -123l-27 -152h121l-5 -30h-120l-77 -432h-35l76 432h-98l6 30h96l27 154c18 106 75 152 147 152c18 0 34 -2 48 -6zM366 0h-36l82 462h36zM457 623c-16 0 -29 10 -29 30c0 18 15 34 32 34c16 0 29 -11 29 -29
c0 -19 -15 -35 -32 -35z" />
    <glyph glyph-name="fl" unicode="fl" horiz-adv-x="509" 
d="M366 0h-36l133 756h36zM376 762l-8 -30c-12 3 -26 5 -42 5c-70 0 -98 -60 -109 -123l-27 -152h121l-5 -30h-120l-77 -432h-35l76 432h-98l6 30h96l27 154c18 106 75 152 147 152c18 0 34 -2 48 -6z" />
    <glyph glyph-name="f_f_l" unicode="ffl" horiz-adv-x="777" 
d="M579 462l-5 -30h-120l-76 -432h-36l76 432h-232l-77 -432h-35l76 432h-98l6 30h96l27 154c18 106 75 152 147 152c18 0 34 -2 48 -6l-8 -30c-12 3 -26 5 -42 5c-70 0 -98 -60 -109 -123l-27 -152h232l27 154c18 106 76 152 147 152c18 0 34 -2 48 -6l-8 -30
c-12 3 -26 5 -42 5c-70 0 -98 -60 -109 -123l-26 -152h120zM767 756l-133 -756h-36l133 756h36z" />
    <glyph glyph-name="f_f_i" unicode="ffi" horiz-adv-x="777" 
d="M579 462l-5 -30h-120l-76 -432h-36l76 432h-232l-77 -432h-35l76 432h-98l6 30h96l27 154c18 106 75 152 147 152c18 0 34 -2 48 -6l-8 -30c-12 3 -26 5 -42 5c-70 0 -98 -60 -109 -123l-27 -152h232l27 154c18 106 76 152 147 152c18 0 34 -2 48 -6l-8 -30
c-12 3 -26 5 -42 5c-70 0 -98 -60 -109 -123l-26 -152h120zM716 462l-82 -462h-36l82 462h36zM757 658c0 -19 -15 -35 -32 -35c-16 0 -29 10 -29 30c0 18 15 34 32 34c16 0 29 -11 29 -29z" />
    <glyph glyph-name="f_f" unicode="ff" horiz-adv-x="554" 
d="M579 462l-5 -30h-120l-76 -432h-36l76 432h-232l-77 -432h-35l76 432h-98l6 30h96l27 154c18 106 75 152 147 152c18 0 34 -2 48 -6l-8 -30c-12 3 -26 5 -42 5c-70 0 -98 -60 -109 -123l-27 -152h232l27 154c18 106 76 152 147 152c18 0 34 -2 48 -6l-8 -30
c-12 3 -26 5 -42 5c-70 0 -98 -60 -109 -123l-26 -152h120z" />
    <glyph glyph-name=".notdef" horiz-adv-x="512" 
d="M278 117h-56v67h56v-67zM271 234h-46l-2 17c0 75 13 95 59 140c43 42 50 57 50 83c0 48 -35 85 -76 85s-74 -27 -82 -95l-50 8c9 95 63 137 135 137c71 0 124 -52 124 -131c0 -42 -12 -74 -63 -120s-49 -52 -49 -124zM50 50h412v617h-412v-617zM0 718h512v-718h-512v718z
" />
    <glyph glyph-name=".null" horiz-adv-x="500" 
 />
    <glyph glyph-name=".null" horiz-adv-x="500" 
 />
    <glyph glyph-name="CR" unicode="&#xd;" horiz-adv-x="0" 
 />
    <glyph glyph-name="space" unicode=" " horiz-adv-x="250" 
 />
    <glyph glyph-name="exclam" unicode="!" horiz-adv-x="277" 
d="M238 708l-91 -514h-38l91 514h38zM103 -6c-17 0 -31 11 -31 32c0 20 16 37 35 37c17 0 30 -12 30 -32s-16 -37 -34 -37z" />
    <glyph glyph-name="quotedbl" unicode="&#x22;" horiz-adv-x="403" 
d="M183 478h-34l41 230h34zM327 478h-34l41 230h34z" />
    <glyph glyph-name="numbersign" unicode="#" horiz-adv-x="552" 
d="M536 448h-110l-58 -186h107l-5 -30h-111l-70 -232h-32l70 232h-160l-70 -232h-32l71 232h-109l5 30h113l58 186h-110l5 30h114l71 230h32l-71 -230h160l71 230h32l-71 -230h105zM394 448h-159l-58 -186h159z" />
    <glyph glyph-name="dollar" unicode="$" horiz-adv-x="566" 
d="M364 689l-54 -311c96 -36 173 -78 173 -182c0 -115 -87 -207 -242 -210l-12 -70h-27l12 71c-78 5 -151 42 -183 96l30 21c25 -41 83 -80 159 -85l58 333c-88 30 -162 68 -162 169c0 124 107 196 227 201l12 70h27l-12 -70c85 -3 148 -39 177 -84l-29 -22
c-23 41 -85 72 -154 73zM303 342l-56 -324c115 2 199 68 199 175c0 83 -62 120 -143 149zM337 690c-83 -6 -184 -55 -184 -165c0 -82 52 -109 131 -138z" />
    <glyph glyph-name="percent" unicode="%" horiz-adv-x="824" 
d="M242 392c-90 0 -142 58 -142 135c0 100 71 189 179 189c91 0 142 -59 142 -136c0 -101 -71 -188 -179 -188zM387 577c0 60 -37 110 -111 110c-85 0 -142 -75 -142 -157c0 -60 36 -109 110 -109c86 0 143 74 143 156zM127 -12l575 749l25 -16l-575 -749zM447 127
c0 100 71 189 179 189c90 0 141 -58 141 -136c0 -101 -70 -188 -178 -188c-90 0 -142 58 -142 135zM734 178c0 59 -37 109 -111 109c-86 0 -142 -75 -142 -156c0 -61 36 -109 110 -109c86 0 143 73 143 156z" />
    <glyph glyph-name="ampersand" unicode="&#x26;" horiz-adv-x="704" 
d="M612 0h-47l-91 118c-69 -86 -138 -134 -234 -134c-98 0 -188 55 -188 175c0 123 101 191 211 236c-44 57 -67 108 -67 156c0 104 75 175 173 175c86 0 145 -56 145 -135c0 -90 -59 -151 -200 -208l161 -209l138 199h44l-161 -225zM476 588c0 62 -44 108 -107 108
c-65 0 -137 -49 -137 -142c0 -52 29 -100 65 -147c115 47 179 95 179 181zM453 144l-172 225c-96 -37 -191 -98 -191 -209c0 -94 71 -144 152 -144c84 0 151 48 211 128z" />
    <glyph glyph-name="quotesingle" unicode="'" horiz-adv-x="258" 
d="M183 478h-34l41 230h34z" />
    <glyph glyph-name="parenleft" unicode="(" horiz-adv-x="300" 
d="M280 733l28 -17c-110 -120 -217 -332 -217 -565c0 -109 23 -216 64 -292l-30 -16c-44 81 -70 193 -70 306c0 202 79 421 225 584z" />
    <glyph glyph-name="parenright" unicode=")" horiz-adv-x="300" 
d="M31 -157l-27 17c109 120 217 332 217 565c0 109 -23 216 -64 292l29 16c44 -81 70 -193 70 -306c0 -202 -78 -421 -225 -584z" />
    <glyph glyph-name="asterisk" unicode="*" horiz-adv-x="444" 
d="M271 545l157 50l10 -27l-159 -49l99 -137l-23 -17l-99 139l-99 -139l-23 17l100 137l-160 49l10 27l157 -50v163h30v-163z" />
    <glyph glyph-name="plus" unicode="+" horiz-adv-x="666" 
d="M351 288v-228h-33v228h-225v32h225v228h33v-228h222v-32h-222z" />
    <glyph glyph-name="comma" unicode="," horiz-adv-x="246" 
d="M134 92l-110 -231h-30l101 231h39z" />
    <glyph glyph-name="hyphen" unicode="-" horiz-adv-x="306" 
d="M247 235h-194l6 31h194z" />
    <glyph glyph-name="period" unicode="." horiz-adv-x="246" 
d="M80 -6c-17 0 -31 11 -31 32c0 20 16 37 34 37c17 0 31 -12 31 -32s-16 -37 -34 -37z" />
    <glyph glyph-name="slash" unicode="/" horiz-adv-x="370" 
d="M436 717l-435 -733l-29 11l436 733z" />
    <glyph glyph-name="zero" unicode="0" horiz-adv-x="566" 
d="M245 -14c-133 0 -177 110 -177 234c0 212 83 502 292 502c132 0 176 -111 176 -234c0 -212 -84 -502 -291 -502zM358 689c-159 0 -253 -239 -253 -463c0 -104 30 -207 141 -207c158 0 252 238 252 462c0 104 -29 208 -140 208z" />
    <glyph glyph-name="one" unicode="1" horiz-adv-x="566" 
d="M282 0h-37l117 663l-153 -108l-18 28l181 125h35z" />
    <glyph glyph-name="two" unicode="2" horiz-adv-x="566" 
d="M437 0h-421l8 41l310 290c108 101 147 161 148 235c0 78 -64 124 -140 124c-80 0 -144 -46 -176 -122l-34 9c36 89 113 145 211 145s177 -57 177 -154c0 -105 -58 -164 -168 -267l-286 -267h378z" />
    <glyph glyph-name="three" unicode="3" horiz-adv-x="566" 
d="M233 -14c-94 0 -169 47 -196 122l34 15c25 -66 88 -104 164 -104c124 0 196 88 196 188s-79 149 -171 149h-25l6 32h24c129 0 203 76 203 178c0 73 -61 124 -136 124c-59 0 -113 -28 -149 -77l-29 18c44 58 102 91 179 91c97 0 171 -63 171 -155
c0 -93 -53 -173 -169 -195v-2c83 -15 134 -81 134 -160c0 -115 -79 -224 -236 -224z" />
    <glyph glyph-name="four" unicode="4" horiz-adv-x="566" 
d="M509 180h-113l-32 -180h-36l31 180h-331l8 41l398 487h55l-88 -495h114zM365 213l80 453h-3l-370 -453h293z" />
    <glyph glyph-name="five" unicode="5" horiz-adv-x="566" 
d="M231 -14c-92 0 -159 44 -192 105l33 19c27 -56 87 -91 158 -91c133 0 214 103 214 226c0 93 -64 163 -168 163c-50 0 -100 -14 -140 -37l65 337h319l-6 -33h-284l-51 -258c36 16 70 22 104 22c122 0 200 -83 200 -188c0 -142 -90 -265 -252 -265z" />
    <glyph glyph-name="six" unicode="6" horiz-adv-x="566" 
d="M93 176c0 -85 60 -158 158 -158c126 0 207 99 207 213c0 87 -58 157 -154 157c-122 0 -211 -97 -211 -212zM55 177c0 70 30 129 96 214l246 317h46l-261 -330l2 -2c27 22 71 43 125 43c109 0 186 -73 186 -185c0 -137 -98 -248 -246 -248c-114 0 -194 78 -194 191z" />
    <glyph glyph-name="seven" unicode="7" horiz-adv-x="566" 
d="M552 708l-7 -39l-417 -669h-44l424 675h-351l6 33h389z" />
    <glyph glyph-name="eight" unicode="8" horiz-adv-x="566" 
d="M491 220c0 -158 -125 -234 -244 -234c-100 0 -193 58 -193 174c0 113 79 197 187 220v2c-69 23 -98 80 -98 138c0 120 95 202 205 202c99 0 175 -55 175 -163c0 -96 -68 -161 -151 -181v-2c64 -19 119 -76 119 -156zM179 521c0 -72 50 -128 130 -128
c108 0 177 84 177 161c0 88 -58 135 -140 135c-97 0 -167 -80 -167 -168zM92 163c0 -86 65 -143 155 -143c124 0 207 85 207 198c0 80 -65 144 -153 144c-116 0 -209 -86 -209 -199z" />
    <glyph glyph-name="nine" unicode="9" horiz-adv-x="566" 
d="M517 532c0 85 -61 158 -159 158c-125 0 -207 -95 -207 -210c0 -86 58 -157 154 -157c122 0 212 94 212 209zM554 531c0 -70 -30 -129 -96 -214l-245 -317h-47l262 330l-2 2c-27 -22 -71 -39 -125 -39c-110 0 -187 73 -187 185c0 136 98 244 246 244
c114 0 194 -78 194 -191z" />
    <glyph glyph-name="colon" unicode=":" horiz-adv-x="286" 
d="M102 -6c-17 0 -31 11 -31 32c0 20 16 37 35 37c17 0 30 -12 30 -32s-15 -37 -34 -37zM166 396c-17 0 -31 11 -31 32c0 19 16 36 34 36c17 0 31 -11 31 -31s-16 -37 -34 -37z" />
    <glyph glyph-name="semicolon" unicode=";" horiz-adv-x="286" 
d="M145 92l-109 -231h-31l101 231h39zM166 396c-17 0 -31 11 -31 32c0 19 16 36 34 36c17 0 31 -11 31 -31s-16 -37 -34 -37z" />
    <glyph glyph-name="less" unicode="&#x3c;" horiz-adv-x="666" 
d="M573 59l-480 229v30l480 229v-33l-446 -211l446 -211v-33z" />
    <glyph glyph-name="equal" unicode="=" horiz-adv-x="666" 
d="M573 370h-480v32h480v-32zM573 206h-480v31h480v-31z" />
    <glyph glyph-name="greater" unicode="&#x3e;" horiz-adv-x="666" 
d="M93 59v33l446 211l-446 211v33l480 -229v-30z" />
    <glyph glyph-name="question" unicode="?" horiz-adv-x="475" 
d="M250 240l-7 -42h-36l10 55c8 55 36 97 95 142l37 28c48 36 91 79 91 146c0 80 -55 121 -126 121c-91 0 -147 -57 -171 -132l-34 8c31 99 107 158 205 158c89 0 163 -49 163 -153c0 -87 -58 -139 -118 -182c-75 -53 -98 -81 -109 -149zM205 -6c-18 0 -31 11 -31 32
c0 20 15 37 34 37c17 0 31 -12 31 -32s-16 -37 -34 -37z" />
    <glyph glyph-name="at" unicode="@" horiz-adv-x="800" 
d="M562 160c-42 0 -77 23 -77 64c0 7 1 15 4 24h-2c-20 -33 -74 -88 -145 -88c-78 0 -107 51 -107 110c0 105 94 282 241 282c54 0 90 -33 93 -82h4l28 65h34l-98 -222c-8 -18 -22 -56 -22 -79c0 -30 23 -43 54 -43c100 0 190 112 190 265c0 141 -115 239 -273 239
c-226 0 -392 -191 -392 -398c0 -169 122 -285 301 -285c118 0 215 48 288 118l20 -23c-82 -77 -185 -126 -311 -126c-201 0 -335 129 -335 312c0 239 188 434 430 434c176 0 307 -106 307 -268c0 -168 -98 -299 -232 -299zM546 440c0 41 -14 79 -74 79
c-113 0 -199 -152 -199 -247c0 -45 19 -80 75 -80c111 0 198 174 198 248z" />
    <glyph glyph-name="A" unicode="A" horiz-adv-x="652" 
d="M591 0h-38l-37 198h-388l-125 -198h-44l455 708h44zM510 231l-80 442l-281 -442h361z" />
    <glyph glyph-name="B" unicode="B" horiz-adv-x="610" 
d="M268 0h-210l125 708h188c99 0 199 -44 199 -153c0 -97 -61 -161 -169 -182v-2c68 -9 142 -62 142 -158c0 -146 -122 -213 -275 -213zM532 549c0 87 -78 127 -170 127h-148l-51 -289h157c115 0 212 51 212 162zM506 212c0 96 -83 144 -172 144h-176l-57 -324h164
c144 0 241 61 241 180z" />
    <glyph glyph-name="C" unicode="C" horiz-adv-x="723" 
d="M626 108l23 -24c-65 -64 -152 -103 -253 -103c-206 0 -316 128 -316 306c0 235 180 440 418 440c93 0 180 -36 225 -99l-29 -23c-44 57 -115 89 -198 89c-218 0 -377 -195 -377 -402c0 -154 88 -278 278 -278c83 0 165 31 229 94z" />
    <glyph glyph-name="D" unicode="D" horiz-adv-x="769" 
d="M263 0h-205l125 708h195c182 0 336 -100 336 -295c0 -279 -203 -413 -451 -413zM370 675h-155l-113 -642h162c235 0 411 131 411 377c0 165 -120 265 -305 265z" />
    <glyph glyph-name="E" unicode="E" horiz-adv-x="577" 
d="M490 0h-432l125 708h403l-6 -33h-367l-51 -291h352l-6 -33h-352l-55 -318h395z" />
    <glyph glyph-name="F" unicode="F" horiz-adv-x="543" 
d="M569 675h-355l-52 -292h334l-5 -32h-334l-62 -351h-37l125 708h392z" />
    <glyph glyph-name="G" unicode="G" horiz-adv-x="770" 
d="M394 -19c-206 0 -314 127 -314 306c0 235 180 440 415 440c96 0 185 -35 230 -98l-31 -24c-38 56 -118 89 -201 89c-215 0 -374 -195 -374 -402c0 -154 87 -278 276 -278c85 0 165 21 216 51l45 259h-178l6 32h215l-56 -312c-63 -39 -153 -63 -249 -63z" />
    <glyph glyph-name="H" unicode="H" horiz-adv-x="716" 
d="M569 0h-37l62 350h-437l-62 -350h-37l125 708h37l-58 -325h437l58 325h37z" />
    <glyph glyph-name="I" unicode="I" horiz-adv-x="242" 
d="M95 0h-37l125 708h37z" />
    <glyph glyph-name="J" unicode="J" horiz-adv-x="481" 
d="M463 708l-90 -512c-21 -118 -75 -214 -210 -214c-90 0 -148 54 -162 119l33 13c15 -58 62 -99 129 -99c110 0 155 79 174 185l89 508h37z" />
    <glyph glyph-name="K" unicode="K" horiz-adv-x="546" 
d="M163 387h1l384 321h54l-395 -327l304 -381h-48l-300 380l-68 -380h-37l125 708h37z" />
    <glyph glyph-name="L" unicode="L" horiz-adv-x="502" 
d="M441 0h-383l125 708h37l-119 -675h345z" />
    <glyph glyph-name="M" unicode="M" horiz-adv-x="896" 
d="M749 0h-37l116 661h-3l-410 -661h-24l-177 661h-3l-116 -661h-37l125 708h57l173 -648l399 648h62z" />
    <glyph glyph-name="N" unicode="N" horiz-adv-x="749" 
d="M601 0h-48l-339 662h-2l-117 -662h-37l125 708h48l340 -659h2l116 659h37z" />
    <glyph glyph-name="O" unicode="O" horiz-adv-x="860" 
d="M766 413c0 156 -91 281 -279 281c-221 0 -368 -194 -368 -400c0 -156 91 -280 280 -280c220 0 367 191 367 399zM80 292c0 232 166 435 408 435c204 0 317 -132 317 -312c0 -232 -164 -434 -407 -434c-205 0 -318 131 -318 311z" />
    <glyph glyph-name="P" unicode="P" horiz-adv-x="566" 
d="M314 342h-159l-60 -342h-37l125 708h182c107 0 199 -46 199 -161c0 -117 -84 -205 -250 -205zM527 545c0 96 -78 131 -160 131h-153l-53 -303h158c133 0 208 67 208 172z" />
    <glyph glyph-name="Q" unicode="Q" horiz-adv-x="868" 
d="M400 0c-203 0 -319 114 -319 297c0 228 164 430 406 430c204 0 317 -133 317 -310c0 -172 -100 -331 -261 -382v-2h251l-6 -33h-388zM402 33c212 0 364 178 364 379c0 154 -92 282 -280 282c-221 0 -367 -194 -367 -393c0 -158 93 -268 283 -268z" />
    <glyph glyph-name="R" unicode="R" horiz-adv-x="596" 
d="M509 0h-41l-158 349h-153l-62 -349h-37l125 708h173c105 0 208 -41 208 -156c0 -155 -120 -195 -216 -200zM526 548c0 93 -82 128 -179 128h-133l-52 -295h150c123 0 214 43 214 167z" />
    <glyph glyph-name="S" unicode="S" horiz-adv-x="568" 
d="M549 642l-28 -23c-39 51 -91 75 -166 75c-94 0 -203 -58 -203 -167c0 -87 58 -115 147 -145c105 -35 186 -79 186 -187c0 -120 -88 -214 -248 -214c-86 0 -164 32 -208 97l29 22c41 -55 96 -86 184 -86c121 0 205 73 205 177c0 95 -76 130 -174 162
c-108 35 -160 81 -160 170c0 131 116 204 245 204c95 0 161 -38 191 -85z" />
    <glyph glyph-name="T" unicode="T" horiz-adv-x="525" 
d="M591 675h-237l-119 -675h-37l118 675h-242l6 33h517z" />
    <glyph glyph-name="U" unicode="U" horiz-adv-x="714" 
d="M702 708l-78 -441c-26 -147 -92 -286 -295 -286c-159 0 -237 86 -237 223c0 23 2 48 7 75l76 429h37l-76 -433c-4 -22 -6 -44 -6 -66c0 -108 55 -195 199 -195c191 0 238 140 259 258l77 436h37z" />
    <glyph glyph-name="V" unicode="V" horiz-adv-x="592" 
d="M676 708l-420 -708h-46l-116 708h39l106 -665h2l393 665h42z" />
    <glyph glyph-name="W" unicode="W" horiz-adv-x="948" 
d="M1021 708l-359 -708h-50l-57 662h-2l-334 -662h-50l-63 708h39l56 -663h3l332 663h50l58 -663h3l333 663h41z" />
    <glyph glyph-name="X" unicode="X" horiz-adv-x="585" 
d="M518 0h-44l-166 341l-291 -341h-50l322 371l-167 337h43l150 -309l264 309h48l-293 -339z" />
    <glyph glyph-name="Y" unicode="Y" horiz-adv-x="527" 
d="M613 708l-331 -400l-54 -308h-37l54 308l-167 400h42l149 -366l298 366h46z" />
    <glyph glyph-name="Z" unicode="Z" horiz-adv-x="587" 
d="M504 0h-502l6 37l563 638h-436l6 33h479l-7 -39l-562 -636h459z" />
    <glyph glyph-name="bracketleft" unicode="[" horiz-adv-x="300" 
d="M148 -156h-147l157 888h147l-5 -30h-111l-147 -828h112z" />
    <glyph glyph-name="backslash" unicode="\" horiz-adv-x="370" 
d="M17 717l31 11l306 -733l-31 -11z" />
    <glyph glyph-name="bracketright" unicode="]" horiz-adv-x="300" 
d="M8 -156l6 30h111l146 828h-111l5 30h146l-157 -888h-146z" />
    <glyph glyph-name="asciicircum" unicode="^" horiz-adv-x="666" 
d="M92 252l225 456h32l225 -456h-33l-208 425l-208 -425h-33z" />
    <glyph glyph-name="underscore" unicode="_" horiz-adv-x="500" 
d="M500 -117h-500v29h500v-29z" />
    <glyph glyph-name="grave" unicode="`" horiz-adv-x="240" 
d="M69 708h46l104 -144h-31z" />
    <glyph glyph-name="a" unicode="a" horiz-adv-x="519" 
d="M435 289l-34 -185c-6 -35 -10 -79 -10 -104h-33c0 25 5 67 11 99h-3c-40 -73 -102 -111 -182 -111c-61 0 -145 28 -145 119c0 143 170 168 359 168c5 25 7 47 7 58c0 77 -47 112 -124 112c-54 0 -99 -20 -144 -52l-18 23c47 38 109 60 165 60c94 0 156 -47 156 -137
c0 -13 -3 -37 -5 -50zM386 211l7 35h-25c-158 0 -293 -27 -293 -134c0 -74 63 -94 116 -94c114 0 176 98 195 193z" />
    <glyph glyph-name="b" unicode="b" horiz-adv-x="625" 
d="M153 357h3c34 67 110 119 199 119c135 0 206 -86 206 -204c0 -153 -104 -285 -263 -285c-89 0 -163 50 -185 126h-3l-19 -113h-36l133 756h36zM349 445c-125 0 -223 -122 -223 -255c0 -97 67 -173 169 -173c138 0 229 119 229 253c0 97 -58 175 -175 175z" />
    <glyph glyph-name="c" unicode="c" horiz-adv-x="478" 
d="M430 53c-50 -48 -103 -69 -171 -69c-137 0 -207 86 -207 202c0 153 113 290 273 290c62 0 123 -22 154 -66l-27 -22c-25 37 -76 57 -126 57c-138 0 -237 -122 -237 -256c0 -97 58 -173 173 -173c57 0 111 22 147 59z" />
    <glyph glyph-name="d" unicode="d" horiz-adv-x="619" 
d="M259 -13c-135 0 -208 86 -208 204c0 152 106 285 266 285c88 0 158 -51 181 -126h3l70 406h36l-133 -756h-36l20 105h-2c-34 -66 -108 -118 -197 -118zM262 17c125 0 223 123 223 255c0 97 -66 173 -169 173c-138 0 -229 -118 -229 -252c0 -97 59 -176 175 -176z" />
    <glyph glyph-name="e" unicode="e" horiz-adv-x="557" 
d="M494 229h-405c-1 -11 -2 -22 -2 -31c0 -112 69 -180 178 -180c75 0 128 32 170 81l23 -19c-44 -54 -113 -93 -195 -93c-132 0 -212 83 -212 208c0 148 110 281 265 281c126 0 185 -80 185 -182c0 -14 -2 -42 -7 -65zM463 258c2 13 3 26 3 39c0 88 -55 148 -151 148
c-128 0 -204 -102 -221 -187h369z" />
    <glyph glyph-name="f" unicode="f" horiz-adv-x="286" 
d="M376 762l-8 -30c-12 3 -26 5 -42 5c-70 0 -98 -60 -109 -123l-27 -152h121l-5 -30h-120l-77 -432h-35l76 432h-98l6 30h96l27 154c18 106 75 152 147 152c18 0 34 -2 48 -6z" />
    <glyph glyph-name="g" unicode="g" horiz-adv-x="620" 
d="M463 110h-2c-38 -72 -111 -120 -199 -120c-135 0 -207 89 -207 205c0 150 106 281 265 281c89 0 160 -51 181 -127h3l20 113h35l-78 -443c-24 -133 -79 -266 -262 -266c-88 0 -157 33 -201 89l24 22c48 -55 106 -79 177 -79c154 0 204 112 227 235zM267 21
c126 0 222 121 222 252c0 95 -66 172 -169 172c-138 0 -229 -114 -229 -249c0 -96 59 -175 176 -175z" />
    <glyph glyph-name="h" unicode="h" horiz-adv-x="569" 
d="M154 360h2c39 75 106 116 178 116c99 0 148 -64 148 -157c0 -18 -2 -37 -5 -56l-47 -263h-36l48 269c3 15 4 31 4 47c0 67 -30 129 -119 129c-87 0 -172 -76 -199 -231l-38 -214h-36l133 756h36z" />
    <glyph glyph-name="i" unicode="i" horiz-adv-x="233" 
d="M90 0h-36l82 462h36zM181 623c-16 0 -29 10 -29 30c0 18 15 34 32 34c16 0 28 -11 28 -29c0 -19 -14 -35 -31 -35z" />
    <glyph glyph-name="j" unicode="j" horiz-adv-x="234" 
d="M74 -96c-14 -75 -41 -145 -137 -145c-10 0 -26 2 -37 5l6 30c10 -2 21 -4 30 -4c75 0 93 57 103 116l97 556h36zM181 623c-16 0 -29 10 -29 30c0 18 15 34 32 34c16 0 28 -11 28 -29c0 -19 -14 -35 -31 -35z" />
    <glyph glyph-name="k" unicode="k" horiz-adv-x="452" 
d="M135 251h2l262 211h52l-273 -215l223 -247h-49l-216 244h-2l-43 -244h-36l133 756h35z" />
    <glyph glyph-name="l" unicode="l" horiz-adv-x="234" 
d="M91 0h-36l133 756h36z" />
    <glyph glyph-name="m" unicode="m" horiz-adv-x="884" 
d="M54 0l62 350c5 28 13 85 15 112h35c-2 -25 -10 -78 -15 -108h2c38 79 100 122 173 122c82 0 135 -52 139 -128h2c38 84 107 128 181 128c99 0 148 -65 148 -158c0 -17 -2 -34 -5 -53l-47 -265h-36l48 269c3 15 4 30 4 45c0 69 -31 131 -118 131c-98 0 -163 -85 -185 -209
l-42 -236h-36l49 275c2 14 4 29 4 44c0 65 -29 126 -114 126c-84 0 -164 -76 -194 -250l-34 -195h-36z" />
    <glyph glyph-name="n" unicode="n" horiz-adv-x="569" 
d="M334 476c99 0 148 -64 148 -157c0 -18 -2 -37 -5 -56l-47 -263h-36l48 269c3 15 4 32 4 48c0 67 -30 128 -119 128c-87 0 -172 -76 -199 -231l-38 -214h-36l62 350c5 28 13 85 15 112h35c-2 -25 -10 -78 -15 -108h2c39 79 107 122 181 122z" />
    <glyph glyph-name="o" unicode="o" horiz-adv-x="597" 
d="M497 269c0 96 -60 175 -179 175c-139 0 -230 -118 -230 -250c0 -97 58 -176 178 -176c139 0 231 118 231 251zM51 192c0 150 107 284 269 284c137 0 214 -88 214 -205c0 -152 -106 -284 -269 -284c-138 0 -214 87 -214 205z" />
    <glyph glyph-name="p" unicode="p" horiz-adv-x="625" 
d="M110 113l-62 -353h-35l124 702h35l-19 -105h3c34 66 110 119 199 119c135 0 206 -86 206 -204c0 -153 -104 -285 -263 -285c-89 0 -162 50 -185 126h-3zM349 445c-125 0 -222 -122 -222 -255c0 -97 66 -173 168 -173c138 0 229 119 229 253c0 97 -58 175 -175 175z" />
    <glyph glyph-name="q" unicode="q" horiz-adv-x="618" 
d="M501 350l19 112h36l-123 -702h-36l61 345h-2c-34 -68 -109 -118 -198 -118c-135 0 -207 86 -207 204c0 152 105 285 265 285c88 0 159 -51 182 -126h3zM262 17c125 0 223 125 223 256c0 97 -66 172 -169 172c-138 0 -229 -118 -229 -252c0 -97 59 -176 175 -176z" />
    <glyph glyph-name="r" unicode="r" horiz-adv-x="321" 
d="M153 354c40 82 103 122 170 122c10 0 20 -1 26 -2l-7 -33c-6 1 -16 2 -24 2c-103 0 -167 -96 -189 -223l-39 -220h-36l62 350c5 28 13 85 15 112h35c-2 -25 -10 -78 -15 -108h2z" />
    <glyph glyph-name="s" unicode="s" horiz-adv-x="414" 
d="M15 58l27 22c33 -41 73 -61 129 -61c76 0 131 45 131 107c0 50 -31 79 -116 102c-70 19 -111 52 -111 112c0 91 83 136 165 136c65 0 117 -26 139 -62l-26 -19c-28 37 -66 50 -113 50c-69 0 -129 -34 -129 -102c0 -51 35 -70 97 -87c94 -26 130 -66 130 -127
c0 -87 -74 -141 -166 -141c-69 0 -119 20 -157 70z" />
    <glyph glyph-name="t" unicode="t" horiz-adv-x="297" 
d="M170 -10c-53 0 -91 25 -91 82c0 10 2 29 4 40l57 320h-103l5 30h102l24 135h36l-24 -135h127l-5 -30h-127l-56 -316c-2 -11 -3 -29 -3 -37c0 -44 26 -58 66 -58c14 0 37 4 52 10l-2 -29c-17 -7 -39 -12 -62 -12z" />
    <glyph glyph-name="u" unicode="u" horiz-adv-x="569" 
d="M219 -13c-99 0 -148 64 -148 156c0 17 2 34 5 53l47 266h36l-48 -269c-3 -16 -5 -32 -5 -47c0 -68 30 -129 120 -129c91 0 173 76 200 232l37 213h36l-62 -350c-5 -28 -13 -84 -15 -112h-35c2 26 10 79 15 108h-2c-40 -79 -107 -121 -181 -121z" />
    <glyph glyph-name="v" unicode="v" horiz-adv-x="444" 
d="M460 462l-275 -462h-42l-89 462h37l78 -425h2l249 425h40z" />
    <glyph glyph-name="w" unicode="w" horiz-adv-x="705" 
d="M716 462l-235 -462h-42l-57 418h-2l-227 -418h-42l-42 462h37l33 -420h2l228 420h41l56 -420h2l209 420h39z" />
    <glyph glyph-name="x" unicode="x" horiz-adv-x="447" 
d="M334 0l-122 219l-201 -219h-46l230 245l-119 217h40l104 -196l178 196h46l-206 -221l138 -241h-42z" />
    <glyph glyph-name="y" unicode="y" horiz-adv-x="445" 
d="M-13 -241c-14 0 -33 2 -45 6l6 33c9 -4 25 -7 38 -7c56 0 84 42 109 87l63 113l-97 471h37l85 -431l238 431h41l-342 -604c-35 -62 -71 -99 -133 -99z" />
    <glyph glyph-name="z" unicode="z" horiz-adv-x="434" 
d="M347 0h-351l4 29l367 403h-279l5 30h325l-6 -30l-365 -401h305z" />
    <glyph glyph-name="braceleft" unicode="{" horiz-adv-x="300" 
d="M112 -156c-50 0 -87 22 -87 86c0 8 0 18 2 28c0 3 35 208 35 212c2 12 2 23 2 33c0 53 -24 70 -61 70l6 30c45 0 83 28 98 114l33 190c16 94 69 125 129 125h52l-5 -30h-47c-55 0 -84 -41 -94 -99l-33 -190c-15 -88 -62 -118 -96 -124v-2c28 -5 55 -27 55 -85
c0 -9 -1 -19 -2 -29c0 -3 -35 -207 -35 -210c-2 -10 -2 -19 -2 -27c0 -39 18 -62 60 -62h48l-6 -30h-52z" />
    <glyph glyph-name="bar" unicode="|" horiz-adv-x="222" 
d="M93 750h34v-1000h-34v1000z" />
    <glyph glyph-name="braceright" unicode="}" horiz-adv-x="300" 
d="M303 273c-46 0 -82 -28 -97 -114l-33 -190c-16 -94 -71 -125 -130 -125h-52l6 30h48c55 0 83 41 93 99l33 190c15 88 61 118 96 124v2c-28 5 -55 27 -55 85c0 9 1 18 2 29c0 3 36 207 36 210c1 9 2 17 2 25c0 40 -18 64 -61 64h-47l4 30h52c51 0 88 -22 88 -86
c0 -8 -1 -18 -2 -28c0 -3 -35 -209 -35 -212c-2 -13 -3 -24 -3 -34c0 -52 25 -69 61 -69z" />
    <glyph glyph-name="asciitilde" unicode="~" horiz-adv-x="666" 
d="M92 268c39 64 81 93 133 93c37 0 65 -9 103 -35c52 -36 85 -47 114 -47c51 0 85 41 110 81l24 -23c-36 -56 -82 -91 -133 -91c-43 0 -67 11 -104 35c-53 35 -76 47 -112 47c-52 0 -85 -35 -111 -82z" />
    <glyph glyph-name="uni00A0" unicode="&#xa0;" horiz-adv-x="250" 
 />
    <glyph glyph-name="Agrave" unicode="&#xc0;" horiz-adv-x="652" 
d="M591 0h-38l-37 198h-388l-125 -198h-44l455 708h44zM510 231l-80 442l-281 -442h361zM309 908h46l104 -144h-31z" />
    <glyph glyph-name="Aacute" unicode="&#xc1;" horiz-adv-x="652" 
d="M591 0h-38l-37 198h-388l-125 -198h-44l455 708h44zM510 231l-80 442l-281 -442h361zM590 908l-142 -144h-31l127 144h46z" />
    <glyph glyph-name="Acircumflex" unicode="&#xc2;" horiz-adv-x="652" 
d="M591 0h-38l-37 198h-388l-125 -198h-44l455 708h44zM510 231l-80 442l-281 -442h361zM448 908h44l76 -144h-33l-67 125l-114 -125h-38z" />
    <glyph glyph-name="Atilde" unicode="&#xc3;" horiz-adv-x="652" 
d="M591 0h-38l-37 198h-388l-125 -198h-44l455 708h44zM510 231l-80 442l-281 -442h361zM460 844c29 -19 42 -24 58 -24c26 0 41 18 52 49h25c-15 -49 -45 -79 -82 -79c-35 0 -95 48 -120 48s-41 -20 -52 -51h-25c16 49 45 81 82 81c22 0 37 -8 62 -24z" />
    <glyph glyph-name="Adieresis" unicode="&#xc4;" horiz-adv-x="652" 
d="M591 0h-38l-37 198h-388l-125 -198h-44l455 708h44zM510 231l-80 442l-281 -442h361zM375 822c-16 0 -29 11 -29 31c0 19 15 35 33 35c16 0 28 -11 28 -30s-15 -36 -32 -36zM540 822c-17 0 -29 11 -29 31c0 19 14 35 32 35c16 0 29 -11 29 -30s-15 -36 -32 -36z" />
    <glyph glyph-name="Amacron" unicode="&#x100;" horiz-adv-x="652" 
d="M591 0h-38l-37 198h-388l-125 -198h-44l455 708h44zM510 231l-80 442l-281 -442h361zM573 815h-244l5 30h244z" />
    <glyph glyph-name="Abreve" unicode="&#x102;" horiz-adv-x="652" 
d="M591 0h-38l-37 198h-388l-125 -198h-44l455 708h44zM510 231l-80 442l-281 -442h361zM589 901c-18 -81 -75 -128 -149 -128c-70 0 -115 45 -115 128h26c0 -66 37 -97 90 -97c60 0 105 29 124 97h24z" />
    <glyph glyph-name="Aring" unicode="&#xc5;" horiz-adv-x="652" 
d="M591 0h-38l-37 198h-388l-125 -198h-44l455 708h44zM510 231l-80 442l-281 -442h361zM530 864c0 33 -20 61 -61 61c-49 0 -80 -42 -80 -89c0 -33 19 -60 61 -60c48 0 80 41 80 88zM366 834c0 59 41 111 104 111c54 0 83 -34 83 -79c0 -60 -41 -111 -104 -111
c-54 0 -83 34 -83 79z" />
    <glyph glyph-name="Aogonek" unicode="&#x104;" horiz-adv-x="652" 
d="M-41 0l455 708h44l133 -708h-8c-82 -71 -113 -106 -113 -149c0 -30 21 -45 51 -45c25 0 51 11 69 27l8 -23c-25 -20 -54 -33 -85 -33c-41 0 -78 21 -78 65c0 56 44 100 118 158l-37 198h-388l-125 -198h-44zM149 231h361l-80 442z" />
    <glyph glyph-name="AE" unicode="&#xc6;" horiz-adv-x="952" 
d="M957 708l-6 -33h-340l-51 -291h325l-6 -33h-325l-56 -318h369l-6 -33h-406l36 204h-306l-169 -204h-46l586 708h401zM497 237l77 438h-4l-359 -438h286z" />
    <glyph glyph-name="Cacute" unicode="&#x106;" horiz-adv-x="723" 
d="M626 108l23 -24c-65 -64 -152 -103 -253 -103c-206 0 -316 128 -316 306c0 235 180 440 418 440c93 0 180 -36 225 -99l-29 -23c-44 57 -115 89 -198 89c-218 0 -377 -195 -377 -402c0 -154 88 -278 278 -278c83 0 165 31 229 94zM628 908l-142 -144h-31l127 144h46z" />
    <glyph glyph-name="Ccircumflex" unicode="&#x108;" horiz-adv-x="723" 
d="M626 108l23 -24c-65 -64 -152 -103 -253 -103c-206 0 -316 128 -316 306c0 235 180 440 418 440c93 0 180 -36 225 -99l-29 -23c-44 57 -115 89 -198 89c-218 0 -377 -195 -377 -402c0 -154 88 -278 278 -278c83 0 165 31 229 94zM510 908h44l76 -144h-33l-67 125
l-114 -125h-38z" />
    <glyph glyph-name="Ccaron" unicode="&#x10c;" horiz-adv-x="723" 
d="M626 108l23 -24c-65 -64 -152 -103 -253 -103c-206 0 -316 128 -316 306c0 235 180 440 418 440c93 0 180 -36 225 -99l-29 -23c-44 57 -115 89 -198 89c-218 0 -377 -195 -377 -402c0 -154 88 -278 278 -278c83 0 165 31 229 94zM526 764h-45l-76 144h34l66 -125
l115 125h38z" />
    <glyph glyph-name="Cdotaccent" unicode="&#x10a;" horiz-adv-x="723" 
d="M626 108l23 -24c-65 -64 -152 -103 -253 -103c-206 0 -316 128 -316 306c0 235 180 440 418 440c93 0 180 -36 225 -99l-29 -23c-44 57 -115 89 -198 89c-218 0 -377 -195 -377 -402c0 -154 88 -278 278 -278c83 0 165 31 229 94zM527 823c-16 0 -29 10 -29 30
c0 18 15 34 32 34c16 0 28 -11 28 -29c0 -19 -14 -35 -31 -35z" />
    <glyph glyph-name="Ccedilla" unicode="&#xc7;" horiz-adv-x="723" 
d="M626 108l23 -24c-63 -62 -146 -100 -242 -103l-54 -64c15 5 28 7 45 7c35 0 78 -15 78 -63c0 -63 -57 -88 -120 -88c-26 0 -68 7 -94 20l11 23c22 -11 57 -17 82 -17c59 0 88 25 88 59c0 32 -29 44 -57 44c-17 0 -49 -5 -65 -13l-11 11l69 81c-195 7 -299 133 -299 306
c0 235 180 440 418 440c93 0 180 -36 225 -99l-29 -23c-44 57 -115 89 -198 89c-218 0 -377 -195 -377 -402c0 -154 88 -278 278 -278c83 0 165 31 229 94z" />
    <glyph glyph-name="Dcaron" unicode="&#x10e;" horiz-adv-x="769" 
d="M263 0h-205l125 708h195c182 0 336 -100 336 -295c0 -279 -203 -413 -451 -413zM370 675h-155l-113 -642h162c235 0 411 131 411 377c0 165 -120 265 -305 265zM432 764h-45l-76 144h34l66 -125l115 125h38z" />
    <glyph glyph-name="Dcroat" unicode="&#x110;" horiz-adv-x="769" 
d="M120 355h-75l6 30h75l57 323h195c182 0 336 -98 336 -293c0 -279 -203 -415 -451 -415h-205zM164 385h261l-5 -30h-262l-56 -322h162c235 0 411 131 411 377c0 165 -120 265 -305 265h-155z" />
    <glyph glyph-name="Eth" unicode="&#xd0;" horiz-adv-x="769" 
d="M120 355h-75l6 30h75l57 323h195c182 0 336 -98 336 -293c0 -279 -203 -415 -451 -415h-205zM164 385h261l-5 -30h-262l-56 -322h162c235 0 411 131 411 377c0 165 -120 265 -305 265h-155z" />
    <glyph glyph-name="Egrave" unicode="&#xc8;" horiz-adv-x="577" 
d="M490 0h-432l125 708h403l-6 -33h-367l-51 -291h352l-6 -33h-352l-55 -318h395zM281 908h46l104 -144h-31z" />
    <glyph glyph-name="Eacute" unicode="&#xc9;" horiz-adv-x="577" 
d="M490 0h-432l125 708h403l-6 -33h-367l-51 -291h352l-6 -33h-352l-55 -318h395zM538 908l-142 -144h-31l127 144h46z" />
    <glyph glyph-name="Ecircumflex" unicode="&#xca;" horiz-adv-x="577" 
d="M490 0h-432l125 708h403l-6 -33h-367l-51 -291h352l-6 -33h-352l-55 -318h395zM399 908h44l76 -144h-33l-67 125l-114 -125h-38z" />
    <glyph glyph-name="Ecaron" unicode="&#x11a;" horiz-adv-x="577" 
d="M490 0h-432l125 708h403l-6 -33h-367l-51 -291h352l-6 -33h-352l-55 -318h395zM417 764h-45l-76 144h34l66 -125l115 125h38z" />
    <glyph glyph-name="Edieresis" unicode="&#xcb;" horiz-adv-x="577" 
d="M490 0h-432l125 708h403l-6 -33h-367l-51 -291h352l-6 -33h-352l-55 -318h395zM322 822c-16 0 -29 11 -29 31c0 19 15 35 33 35c16 0 28 -11 28 -30s-15 -36 -32 -36zM487 822c-17 0 -29 11 -29 31c0 19 14 35 32 35c16 0 29 -11 29 -30s-15 -36 -32 -36z" />
    <glyph glyph-name="Emacron" unicode="&#x112;" horiz-adv-x="577" 
d="M490 0h-432l125 708h403l-6 -33h-367l-51 -291h352l-6 -33h-352l-55 -318h395zM526 815h-244l5 30h244z" />
    <glyph glyph-name="Ebreve" unicode="&#x114;" horiz-adv-x="577" 
d="M490 0h-432l125 708h403l-6 -33h-367l-51 -291h352l-6 -33h-352l-55 -318h395zM542 901c-18 -81 -75 -128 -149 -128c-70 0 -115 45 -115 128h26c0 -66 37 -97 90 -97c60 0 105 29 124 97h24z" />
    <glyph glyph-name="Edotaccent" unicode="&#x116;" horiz-adv-x="577" 
d="M490 0h-432l125 708h403l-6 -33h-367l-51 -291h352l-6 -33h-352l-55 -318h395zM410 823c-16 0 -29 10 -29 30c0 18 15 34 32 34c16 0 28 -11 28 -29c0 -19 -14 -35 -31 -35z" />
    <glyph glyph-name="Eogonek" unicode="&#x118;" horiz-adv-x="583" 
d="M480 -167l9 -23c-25 -20 -54 -33 -85 -33c-41 0 -78 21 -78 65c0 56 44 100 117 158h-385l125 708h406l-6 -33h-370l-51 -291h355l-5 -33h-356l-55 -318h398l-6 -33h-19c-82 -71 -113 -106 -113 -149c0 -30 21 -45 51 -45c25 0 51 11 68 27z" />
    <glyph glyph-name="Gcircumflex" unicode="&#x11c;" horiz-adv-x="770" 
d="M394 -19c-206 0 -314 127 -314 306c0 235 180 440 415 440c96 0 185 -35 230 -98l-31 -24c-38 56 -118 89 -201 89c-215 0 -374 -195 -374 -402c0 -154 87 -278 276 -278c85 0 165 21 216 51l45 259h-178l6 32h215l-56 -312c-63 -39 -153 -63 -249 -63zM514 908h44
l76 -144h-33l-67 125l-114 -125h-38z" />
    <glyph glyph-name="Gbreve" unicode="&#x11e;" horiz-adv-x="770" 
d="M394 -19c-206 0 -314 127 -314 306c0 235 180 440 415 440c96 0 185 -35 230 -98l-31 -24c-38 56 -118 89 -201 89c-215 0 -374 -195 -374 -402c0 -154 87 -278 276 -278c85 0 165 21 216 51l45 259h-178l6 32h215l-56 -312c-63 -39 -153 -63 -249 -63zM658 901
c-18 -81 -75 -128 -149 -128c-70 0 -115 45 -115 128h26c0 -66 37 -97 90 -97c60 0 105 29 124 97h24z" />
    <glyph glyph-name="Gdotaccent" unicode="&#x120;" horiz-adv-x="770" 
d="M394 -19c-206 0 -314 127 -314 306c0 235 180 440 415 440c96 0 185 -35 230 -98l-31 -24c-38 56 -118 89 -201 89c-215 0 -374 -195 -374 -402c0 -154 87 -278 276 -278c85 0 165 21 216 51l45 259h-178l6 32h215l-56 -312c-63 -39 -153 -63 -249 -63zM524 823
c-16 0 -29 10 -29 30c0 18 15 34 32 34c16 0 28 -11 28 -29c0 -19 -14 -35 -31 -35z" />
    <glyph glyph-name="Gcommaaccent" unicode="&#x122;" horiz-adv-x="770" 
d="M394 -19c-206 0 -314 127 -314 306c0 235 180 440 415 440c96 0 185 -35 230 -98l-31 -24c-38 56 -118 89 -201 89c-215 0 -374 -195 -374 -402c0 -154 87 -278 276 -278c85 0 165 21 216 51l45 259h-178l6 32h215l-56 -312c-63 -39 -153 -63 -249 -63zM422 -43
l-101 -187h-29l92 187h38z" />
    <glyph glyph-name="Hcircumflex" unicode="&#x124;" horiz-adv-x="716" 
d="M569 0h-37l62 350h-437l-62 -350h-37l125 708h37l-58 -325h437l58 325h37zM452 908h44l76 -144h-33l-67 125l-114 -125h-38z" />
    <glyph glyph-name="Hbar" unicode="&#x126;" horiz-adv-x="716" 
d="M569 0h-37l62 350h-437l-62 -350h-37l125 708h37l-32 -180h437l32 180h37zM162 383h437l21 117h-437z" />
    <glyph glyph-name="Igrave" unicode="&#xcc;" horiz-adv-x="242" 
d="M95 0h-37l125 708h37zM76 908h46l104 -144h-31z" />
    <glyph glyph-name="Iacute" unicode="&#xcd;" horiz-adv-x="242" 
d="M95 0h-37l125 708h37zM363 908l-142 -144h-31l127 144h46z" />
    <glyph glyph-name="Icircumflex" unicode="&#xce;" horiz-adv-x="242" 
d="M95 0h-37l125 708h37zM213 908h44l76 -144h-33l-67 125l-114 -125h-38z" />
    <glyph glyph-name="Itilde" unicode="&#x128;" horiz-adv-x="242" 
d="M95 0h-37l125 708h37zM225 844c29 -19 42 -24 58 -24c26 0 41 18 52 49h25c-15 -49 -45 -79 -82 -79c-35 0 -95 48 -120 48s-41 -20 -52 -51h-25c16 49 45 81 82 81c22 0 37 -8 62 -24z" />
    <glyph glyph-name="Idieresis" unicode="&#xcf;" horiz-adv-x="242" 
d="M95 0h-37l125 708h37zM138 822c-16 0 -29 11 -29 31c0 19 15 35 33 35c16 0 28 -11 28 -30s-15 -36 -32 -36zM303 822c-17 0 -29 11 -29 31c0 19 14 35 32 35c16 0 29 -11 29 -30s-15 -36 -32 -36z" />
    <glyph glyph-name="Imacron" unicode="&#x12a;" horiz-adv-x="242" 
d="M95 0h-37l125 708h37zM338 815h-244l5 30h244z" />
    <glyph glyph-name="Idotaccent" unicode="&#x130;" horiz-adv-x="242" 
d="M95 0h-37l125 708h37zM222 823c-16 0 -29 10 -29 30c0 18 15 34 32 34c16 0 28 -11 28 -29c0 -19 -14 -35 -31 -35z" />
    <glyph glyph-name="Ibreve" unicode="&#x12c;" horiz-adv-x="242" 
d="M95 0h-37l125 708h37zM366 901c-18 -81 -75 -128 -149 -128c-70 0 -115 45 -115 128h26c0 -66 37 -97 90 -97c60 0 105 29 124 97h24z" />
    <glyph glyph-name="Iogonek" unicode="&#x12e;" horiz-adv-x="242" 
d="M25 -223c-42 0 -78 21 -78 65c0 56 44 101 117 159h-6l125 707h37l-126 -708c-81 -70 -112 -106 -112 -149c0 -30 21 -45 51 -45c24 0 50 11 68 27l9 -23c-25 -20 -54 -33 -85 -33z" />
    <glyph glyph-name="Jcircumflex" unicode="&#x134;" horiz-adv-x="481" 
d="M463 708l-90 -512c-21 -118 -75 -214 -210 -214c-90 0 -148 54 -162 119l33 13c15 -58 62 -99 129 -99c110 0 155 79 174 185l89 508h37zM458 908h44l76 -144h-33l-67 125l-114 -125h-38z" />
    <glyph glyph-name="Kcommaaccent" unicode="&#x136;" horiz-adv-x="546" 
d="M163 387h1l384 321h54l-395 -327l304 -381h-48l-300 380l-68 -380h-37l125 708h37zM292 -45l-101 -187h-29l92 187h38z" />
    <glyph glyph-name="Lacute" unicode="&#x139;" horiz-adv-x="502" 
d="M441 0h-383l125 708h37l-119 -675h345zM364 908l-142 -144h-31l127 144h46z" />
    <glyph glyph-name="Lcaron" unicode="&#x13d;" horiz-adv-x="502" 
d="M58 0l125 708h37l-119 -675h345l-5 -33h-383zM297 521l92 187h38l-101 -187h-29z" />
    <glyph glyph-name="Lcommaaccent" unicode="&#x13b;" horiz-adv-x="502" 
d="M441 0h-383l125 708h37l-119 -675h345zM278 -45l-101 -187h-30l92 187h39z" />
    <glyph glyph-name="Lslash" unicode="&#x141;" horiz-adv-x="502" 
d="M102 253l-81 -63l8 40l81 63l73 415h37l-68 -387l243 186l-7 -39l-244 -188l-42 -246h345l-6 -34h-383z" />
    <glyph glyph-name="Ldot" unicode="&#x13f;" horiz-adv-x="502" 
d="M441 0h-383l125 708h37l-119 -675h345zM318 403c-16 0 -29 10 -29 30c0 18 15 34 33 34c16 0 28 -11 28 -29c0 -19 -15 -35 -32 -35z" />
    <glyph glyph-name="Nacute" unicode="&#x143;" horiz-adv-x="749" 
d="M601 0h-48l-339 662h-2l-117 -662h-37l125 708h48l340 -659h2l116 659h37zM596 908l-142 -144h-31l127 144h46z" />
    <glyph glyph-name="Ncaron" unicode="&#x147;" horiz-adv-x="749" 
d="M601 0h-48l-339 662h-2l-117 -662h-37l125 708h48l340 -659h2l116 659h37zM482 764h-45l-76 144h34l66 -125l115 125h38z" />
    <glyph glyph-name="Ntilde" unicode="&#xd1;" horiz-adv-x="749" 
d="M601 0h-48l-339 662h-2l-117 -662h-37l125 708h48l340 -659h2l116 659h37zM477 844c29 -19 42 -24 58 -24c26 0 41 18 52 49h25c-15 -49 -45 -79 -82 -79c-35 0 -95 48 -120 48s-41 -20 -52 -51h-25c16 49 45 81 82 81c22 0 37 -8 62 -24z" />
    <glyph glyph-name="Ncommaaccent" unicode="&#x145;" horiz-adv-x="749" 
d="M602 0h-49l-339 662h-2l-117 -662h-37l125 708h49l340 -659h2l116 659h37zM358 -45l-101 -187h-30l92 187h39z" />
    <glyph glyph-name="Eng" unicode="&#x14a;" horiz-adv-x="749" 
d="M58 0l125 708h49l342 -652h2l114 652h37l-142 -804c-13 -75 -40 -145 -136 -145c-10 0 -27 2 -37 5l5 30c10 -2 21 -4 31 -4c76 0 91 57 102 116l15 84l-351 672h-2l-117 -662h-37z" />
    <glyph glyph-name="Ograve" unicode="&#xd2;" horiz-adv-x="860" 
d="M766 413c0 156 -91 281 -279 281c-221 0 -368 -194 -368 -400c0 -156 91 -280 280 -280c220 0 367 191 367 399zM80 292c0 232 166 435 408 435c204 0 317 -132 317 -312c0 -232 -164 -434 -407 -434c-205 0 -318 131 -318 311zM395 908h46l104 -144h-31z" />
    <glyph glyph-name="Oacute" unicode="&#xd3;" horiz-adv-x="860" 
d="M766 413c0 156 -91 281 -279 281c-221 0 -368 -194 -368 -400c0 -156 91 -280 280 -280c220 0 367 191 367 399zM80 292c0 232 166 435 408 435c204 0 317 -132 317 -312c0 -232 -164 -434 -407 -434c-205 0 -318 131 -318 311zM645 908l-142 -144h-31l127 144h46z" />
    <glyph glyph-name="Ocircumflex" unicode="&#xd4;" horiz-adv-x="860" 
d="M766 413c0 156 -91 281 -279 281c-221 0 -368 -194 -368 -400c0 -156 91 -280 280 -280c220 0 367 191 367 399zM80 292c0 232 166 435 408 435c204 0 317 -132 317 -312c0 -232 -164 -434 -407 -434c-205 0 -318 131 -318 311zM522 908h44l76 -144h-33l-67 125
l-114 -125h-38z" />
    <glyph glyph-name="Otilde" unicode="&#xd5;" horiz-adv-x="860" 
d="M766 413c0 156 -91 281 -279 281c-221 0 -368 -194 -368 -400c0 -156 91 -280 280 -280c220 0 367 191 367 399zM80 292c0 232 166 435 408 435c204 0 317 -132 317 -312c0 -232 -164 -434 -407 -434c-205 0 -318 131 -318 311zM529 844c29 -19 42 -24 58 -24
c26 0 41 18 52 49h25c-15 -49 -45 -79 -82 -79c-35 0 -95 48 -120 48s-41 -20 -52 -51h-25c16 49 45 81 82 81c22 0 37 -8 62 -24z" />
    <glyph glyph-name="Odieresis" unicode="&#xd6;" horiz-adv-x="860" 
d="M766 413c0 156 -91 281 -279 281c-221 0 -368 -194 -368 -400c0 -156 91 -280 280 -280c220 0 367 191 367 399zM80 292c0 232 166 435 408 435c204 0 317 -132 317 -312c0 -232 -164 -434 -407 -434c-205 0 -318 131 -318 311zM444 822c-16 0 -29 11 -29 31
c0 19 15 35 33 35c16 0 28 -11 28 -30s-15 -36 -32 -36zM609 822c-17 0 -29 11 -29 31c0 19 14 35 32 35c16 0 29 -11 29 -30s-15 -36 -32 -36z" />
    <glyph glyph-name="Omacron" unicode="&#x14c;" horiz-adv-x="860" 
d="M766 413c0 156 -91 281 -279 281c-221 0 -368 -194 -368 -400c0 -156 91 -280 280 -280c220 0 367 191 367 399zM80 292c0 232 166 435 408 435c204 0 317 -132 317 -312c0 -232 -164 -434 -407 -434c-205 0 -318 131 -318 311zM644 815h-244l5 30h244z" />
    <glyph glyph-name="Obreve" unicode="&#x14e;" horiz-adv-x="860" 
d="M766 413c0 156 -91 281 -279 281c-221 0 -368 -194 -368 -400c0 -156 91 -280 280 -280c220 0 367 191 367 399zM80 292c0 232 166 435 408 435c204 0 317 -132 317 -312c0 -232 -164 -434 -407 -434c-205 0 -318 131 -318 311zM659 901c-18 -81 -75 -128 -149 -128
c-70 0 -115 45 -115 128h26c0 -66 37 -97 90 -97c60 0 105 29 124 97h24z" />
    <glyph glyph-name="Ohungarumlaut" unicode="&#x150;" horiz-adv-x="860" 
d="M766 413c0 156 -91 281 -279 281c-221 0 -368 -194 -368 -400c0 -156 91 -280 280 -280c220 0 367 191 367 399zM80 292c0 232 166 435 408 435c204 0 317 -132 317 -312c0 -232 -164 -434 -407 -434c-205 0 -318 131 -318 311zM419 764l127 144h47l-142 -144h-32z
M555 764l127 144h48l-143 -144h-32z" />
    <glyph glyph-name="Oslash" unicode="&#xd8;" horiz-adv-x="860" 
d="M399 14c220 0 369 191 369 399c0 71 -19 136 -59 186l-522 -502c45 -52 115 -83 212 -83zM171 117l521 502c-46 47 -113 75 -203 75c-221 0 -370 -194 -370 -400c0 -67 17 -128 52 -177zM72 -13l-18 20l88 85c-41 52 -62 121 -62 200c0 232 168 435 410 435
c97 0 175 -30 230 -82l82 79l17 -20l-82 -79c46 -53 70 -126 70 -210c0 -232 -166 -434 -409 -434c-103 0 -185 33 -238 91z" />
    <glyph glyph-name="OE" unicode="&#x152;" horiz-adv-x="964" 
d="M416 0c-182 0 -336 98 -336 293c0 279 203 415 451 415h441l-6 -33h-340l-51 -291h325l-5 -33h-325l-56 -318h368l-6 -33h-460zM424 33h53l113 642h-60c-235 0 -411 -131 -411 -377c0 -165 120 -265 305 -265z" />
    <glyph glyph-name="Racute" unicode="&#x154;" horiz-adv-x="596" 
d="M509 0h-41l-158 349h-153l-62 -349h-37l125 708h173c105 0 208 -41 208 -156c0 -155 -120 -195 -216 -200zM526 548c0 93 -82 128 -179 128h-133l-52 -295h150c123 0 214 43 214 167zM501 908l-142 -144h-31l127 144h46z" />
    <glyph glyph-name="Rcaron" unicode="&#x158;" horiz-adv-x="596" 
d="M509 0h-41l-158 349h-153l-62 -349h-37l125 708h173c105 0 208 -41 208 -156c0 -155 -120 -195 -216 -200zM526 548c0 93 -82 128 -179 128h-133l-52 -295h150c123 0 214 43 214 167zM386 764h-45l-76 144h34l66 -125l115 125h38z" />
    <glyph glyph-name="Rcommaaccent" unicode="&#x156;" horiz-adv-x="596" 
d="M509 0h-41l-158 349h-153l-62 -349h-37l125 708h173c105 0 208 -41 208 -156c0 -155 -120 -195 -216 -200zM526 548c0 93 -82 128 -179 128h-133l-52 -295h150c123 0 214 43 214 167zM282 -45l-101 -187h-29l92 187h38z" />
    <glyph glyph-name="Sacute" unicode="&#x15a;" horiz-adv-x="568" 
d="M549 642l-28 -23c-39 51 -91 75 -166 75c-94 0 -203 -58 -203 -167c0 -87 58 -115 147 -145c105 -35 186 -79 186 -187c0 -120 -88 -214 -248 -214c-86 0 -164 32 -208 97l29 22c41 -55 96 -86 184 -86c121 0 205 73 205 177c0 95 -76 130 -174 162
c-108 35 -160 81 -160 170c0 131 116 204 245 204c95 0 161 -38 191 -85zM494 908l-142 -144h-31l127 144h46z" />
    <glyph glyph-name="Scircumflex" unicode="&#x15c;" horiz-adv-x="568" 
d="M549 642l-28 -23c-39 51 -91 75 -166 75c-94 0 -203 -58 -203 -167c0 -87 58 -115 147 -145c105 -35 186 -79 186 -187c0 -120 -88 -214 -248 -214c-86 0 -164 32 -208 97l29 22c41 -55 96 -86 184 -86c121 0 205 73 205 177c0 95 -76 130 -174 162
c-108 35 -160 81 -160 170c0 131 116 204 245 204c95 0 161 -38 191 -85zM382 908h44l76 -144h-33l-67 125l-114 -125h-38z" />
    <glyph glyph-name="Scaron" unicode="&#x160;" horiz-adv-x="568" 
d="M549 642l-28 -23c-39 51 -91 75 -166 75c-94 0 -203 -58 -203 -167c0 -87 58 -115 147 -145c105 -35 186 -79 186 -187c0 -120 -88 -214 -248 -214c-86 0 -164 32 -208 97l29 22c41 -55 96 -86 184 -86c121 0 205 73 205 177c0 95 -76 130 -174 162
c-108 35 -160 81 -160 170c0 131 116 204 245 204c95 0 161 -38 191 -85zM386 764h-45l-76 144h34l66 -125l115 125h38z" />
    <glyph glyph-name="Scedilla" unicode="&#x15e;" horiz-adv-x="568" 
d="M549 642l-28 -23c-39 51 -91 75 -166 75c-94 0 -203 -58 -203 -167c0 -87 58 -115 147 -145c105 -35 186 -79 186 -187c0 -116 -82 -206 -230 -213l-54 -65c15 5 28 7 45 7c35 0 78 -15 78 -63c0 -63 -57 -88 -120 -88c-26 0 -68 7 -94 20l11 23c22 -11 57 -17 82 -17
c59 0 88 25 88 59c0 32 -29 44 -57 44c-17 0 -49 -5 -65 -13l-11 11l69 81c-82 3 -156 34 -198 97l29 22c41 -55 96 -86 184 -86c121 0 205 73 205 177c0 95 -76 130 -174 162c-108 35 -160 81 -160 170c0 131 116 204 245 204c95 0 161 -38 191 -85z" />
    <glyph glyph-name="Scommaaccent" unicode="&#x218;" horiz-adv-x="568" 
d="M549 642l-28 -23c-39 51 -91 75 -166 75c-94 0 -203 -58 -203 -167c0 -87 58 -115 147 -145c105 -35 186 -79 186 -187c0 -120 -88 -214 -248 -214c-86 0 -164 32 -208 97l29 22c41 -55 96 -86 184 -86c121 0 205 73 205 177c0 95 -76 130 -174 162
c-108 35 -160 81 -160 170c0 131 116 204 245 204c95 0 161 -38 191 -85zM270 -44l-101 -187h-29l92 187h38z" />
    <glyph glyph-name="Tcaron" unicode="&#x164;" horiz-adv-x="525" 
d="M591 675h-237l-119 -675h-37l118 675h-242l6 33h517zM371 764h-45l-76 144h34l66 -125l115 125h38z" />
    <glyph glyph-name="uni0162" unicode="&#x162;" horiz-adv-x="525" 
d="M354 675l-119 -675h-37l118 675h-242l6 33h517l-6 -33h-237zM252 -45l-102 -187h-29l92 187h39z" />
    <glyph glyph-name="uni021A" unicode="&#x21a;" horiz-adv-x="525" 
d="M591 675h-237l-119 -675h-37l118 675h-242l6 33h517zM252 -45l-102 -187h-29l92 187h39z" />
    <glyph glyph-name="Tbar" unicode="&#x166;" horiz-adv-x="546" 
d="M526 516h-190l-91 -516h-37l91 516h-191l5 28h190l24 131h-243l7 33h517l-7 -33h-237l-23 -131h190z" />
    <glyph glyph-name="Thorn" unicode="&#xde;" horiz-adv-x="566" 
d="M287 185h-159l-33 -185h-37l125 708h37l-27 -156h145c107 0 200 -46 200 -161c0 -117 -85 -206 -251 -206zM500 389c0 96 -77 131 -160 131h-153l-53 -303h159c132 0 207 67 207 172z" />
    <glyph glyph-name="Ugrave" unicode="&#xd9;" horiz-adv-x="714" 
d="M702 708l-78 -441c-26 -147 -92 -286 -295 -286c-159 0 -237 86 -237 223c0 23 2 48 7 75l76 429h37l-76 -433c-4 -22 -6 -44 -6 -66c0 -108 55 -195 199 -195c191 0 238 140 259 258l77 436h37zM320 908h46l104 -144h-31z" />
    <glyph glyph-name="Uacute" unicode="&#xda;" horiz-adv-x="714" 
d="M702 708l-78 -441c-26 -147 -92 -286 -295 -286c-159 0 -237 86 -237 223c0 23 2 48 7 75l76 429h37l-76 -433c-4 -22 -6 -44 -6 -66c0 -108 55 -195 199 -195c191 0 238 140 259 258l77 436h37zM576 908l-142 -144h-31l127 144h46z" />
    <glyph glyph-name="Ucircumflex" unicode="&#xdb;" horiz-adv-x="714" 
d="M702 708l-78 -441c-26 -147 -92 -286 -295 -286c-159 0 -237 86 -237 223c0 23 2 48 7 75l76 429h37l-76 -433c-4 -22 -6 -44 -6 -66c0 -108 55 -195 199 -195c191 0 238 140 259 258l77 436h37zM451 908h44l76 -144h-33l-67 125l-114 -125h-38z" />
    <glyph glyph-name="Utilde" unicode="&#x168;" horiz-adv-x="714" 
d="M702 708l-78 -441c-26 -147 -92 -286 -295 -286c-159 0 -237 86 -237 223c0 23 2 48 7 75l76 429h37l-76 -433c-4 -22 -6 -44 -6 -66c0 -108 55 -195 199 -195c191 0 238 140 259 258l77 436h37zM458 844c29 -19 42 -24 58 -24c26 0 41 18 52 49h25
c-15 -49 -45 -79 -82 -79c-35 0 -95 48 -120 48s-41 -20 -52 -51h-25c16 49 45 81 82 81c22 0 37 -8 62 -24z" />
    <glyph glyph-name="Udieresis" unicode="&#xdc;" horiz-adv-x="714" 
d="M702 708l-78 -441c-26 -147 -92 -286 -295 -286c-159 0 -237 86 -237 223c0 23 2 48 7 75l76 429h37l-76 -433c-4 -22 -6 -44 -6 -66c0 -108 55 -195 199 -195c191 0 238 140 259 258l77 436h37zM375 822c-16 0 -29 11 -29 31c0 19 15 35 33 35c16 0 28 -11 28 -30
s-15 -36 -32 -36zM540 822c-17 0 -29 11 -29 31c0 19 14 35 32 35c16 0 29 -11 29 -30s-15 -36 -32 -36z" />
    <glyph glyph-name="Umacron" unicode="&#x16a;" horiz-adv-x="714" 
d="M702 708l-78 -441c-26 -147 -92 -286 -295 -286c-159 0 -237 86 -237 223c0 23 2 48 7 75l76 429h37l-76 -433c-4 -22 -6 -44 -6 -66c0 -108 55 -195 199 -195c191 0 238 140 259 258l77 436h37zM573 815h-244l5 30h244z" />
    <glyph glyph-name="Ubreve" unicode="&#x16c;" horiz-adv-x="714" 
d="M702 708l-78 -441c-26 -147 -92 -286 -295 -286c-159 0 -237 86 -237 223c0 23 2 48 7 75l76 429h37l-76 -433c-4 -22 -6 -44 -6 -66c0 -108 55 -195 199 -195c191 0 238 140 259 258l77 436h37zM589 901c-18 -81 -75 -128 -149 -128c-70 0 -115 45 -115 128h26
c0 -66 37 -97 90 -97c60 0 105 29 124 97h24z" />
    <glyph glyph-name="Uring" unicode="&#x16e;" horiz-adv-x="714" 
d="M702 708l-78 -441c-26 -147 -92 -286 -295 -286c-159 0 -237 86 -237 223c0 23 2 48 7 75l76 429h37l-76 -433c-4 -22 -6 -44 -6 -66c0 -108 55 -195 199 -195c191 0 238 140 259 258l77 436h37zM528 864c0 33 -20 61 -61 61c-49 0 -80 -42 -80 -89c0 -33 19 -60 61 -60
c48 0 80 41 80 88zM364 834c0 59 41 111 104 111c54 0 83 -34 83 -79c0 -60 -41 -111 -104 -111c-54 0 -83 34 -83 79z" />
    <glyph glyph-name="Uhungarumlaut" unicode="&#x170;" horiz-adv-x="714" 
d="M702 708l-78 -441c-26 -147 -92 -286 -295 -286c-159 0 -237 86 -237 223c0 23 2 48 7 75l76 429h37l-76 -433c-4 -22 -6 -44 -6 -66c0 -108 55 -195 199 -195c191 0 238 140 259 258l77 436h37zM352 764l127 144h47l-142 -144h-32zM488 764l127 144h48l-143 -144h-32z
" />
    <glyph glyph-name="Uogonek" unicode="&#x172;" horiz-adv-x="714" 
d="M399 -167l9 -23c-25 -20 -54 -33 -85 -33c-42 0 -78 21 -78 65c0 49 33 89 92 139h-9c-162 0 -238 90 -238 216c0 24 4 52 8 76l77 435h37l-76 -433c-5 -28 -8 -53 -8 -74c0 -104 58 -187 201 -187c191 0 238 140 259 258l77 436h37l-78 -441
c-24 -136 -83 -264 -250 -283c-68 -61 -94 -93 -94 -133c0 -30 21 -45 51 -45c24 0 50 11 68 27z" />
    <glyph glyph-name="Wcircumflex" unicode="&#x174;" horiz-adv-x="948" 
d="M1021 708l-359 -708h-50l-57 662h-2l-334 -662h-50l-63 708h39l56 -663h3l332 663h50l58 -663h3l333 663h41zM575 908h44l76 -144h-33l-67 125l-114 -125h-38z" />
    <glyph glyph-name="Wacute" unicode="&#x1e82;" horiz-adv-x="948" 
d="M1021 708l-359 -708h-50l-57 662h-2l-334 -662h-50l-63 708h39l56 -663h3l332 663h50l58 -663h3l333 663h41zM727 908l-142 -144h-31l127 144h46z" />
    <glyph glyph-name="Wdieresis" unicode="&#x1e84;" horiz-adv-x="948" 
d="M1021 708l-359 -708h-50l-57 662h-2l-334 -662h-50l-63 708h39l56 -663h3l332 663h50l58 -663h3l333 663h41zM504 822c-16 0 -29 11 -29 31c0 19 15 35 33 35c16 0 28 -11 28 -30s-15 -36 -32 -36zM669 822c-17 0 -29 11 -29 31c0 19 14 35 32 35c16 0 29 -11 29 -30
s-15 -36 -32 -36z" />
    <glyph glyph-name="Wgrave" unicode="&#x1e80;" horiz-adv-x="948" 
d="M1021 708l-359 -708h-50l-57 662h-2l-334 -662h-50l-63 708h39l56 -663h3l332 663h50l58 -663h3l333 663h41zM437 908h46l104 -144h-31z" />
    <glyph glyph-name="Yacute" unicode="&#xdd;" horiz-adv-x="527" 
d="M613 708l-331 -400l-54 -308h-37l54 308l-167 400h42l149 -366l298 366h46zM494 908l-142 -144h-31l127 144h46z" />
    <glyph glyph-name="Ycircumflex" unicode="&#x176;" horiz-adv-x="527" 
d="M613 708l-331 -400l-54 -308h-37l54 308l-167 400h42l149 -366l298 366h46zM360 908h44l76 -144h-33l-67 125l-114 -125h-38z" />
    <glyph glyph-name="Ydieresis" unicode="&#x178;" horiz-adv-x="527" 
d="M613 708l-331 -400l-54 -308h-37l54 308l-167 400h42l149 -366l298 366h46zM280 822c-16 0 -29 11 -29 31c0 19 15 35 33 35c16 0 28 -11 28 -30s-15 -36 -32 -36zM445 822c-17 0 -29 11 -29 31c0 19 14 35 32 35c16 0 29 -11 29 -30s-15 -36 -32 -36z" />
    <glyph glyph-name="Ygrave" unicode="&#x1ef2;" horiz-adv-x="527" 
d="M613 708l-331 -400l-54 -308h-37l54 308l-167 400h42l149 -366l298 366h46zM227 908h46l104 -144h-31z" />
    <glyph glyph-name="Zacute" unicode="&#x179;" horiz-adv-x="587" 
d="M504 0h-502l6 37l563 638h-436l6 33h479l-7 -39l-562 -636h459zM516 908l-142 -144h-31l127 144h46z" />
    <glyph glyph-name="Zcaron" unicode="&#x17d;" horiz-adv-x="587" 
d="M504 0h-502l6 37l563 638h-436l6 33h479l-7 -39l-562 -636h459zM401 764h-45l-76 144h34l66 -125l115 125h38z" />
    <glyph glyph-name="Zdotaccent" unicode="&#x17b;" horiz-adv-x="587" 
d="M504 0h-502l6 37l563 638h-436l6 33h479l-7 -39l-562 -636h459zM398 823c-16 0 -29 10 -29 30c0 18 15 34 32 34c16 0 28 -11 28 -29c0 -19 -14 -35 -31 -35z" />
    <glyph glyph-name="agrave" unicode="&#xe0;" horiz-adv-x="519" 
d="M435 289l-34 -185c-6 -35 -10 -79 -10 -104h-33c0 25 5 67 11 99h-3c-40 -73 -102 -111 -182 -111c-61 0 -145 28 -145 119c0 143 170 168 359 168c5 25 7 47 7 58c0 77 -47 112 -124 112c-54 0 -99 -20 -144 -52l-18 23c47 38 109 60 165 60c94 0 156 -47 156 -137
c0 -13 -3 -37 -5 -50zM386 211l7 35h-25c-158 0 -293 -27 -293 -134c0 -74 63 -94 116 -94c114 0 176 98 195 193zM187 708h46l104 -144h-31z" />
    <glyph glyph-name="aacute" unicode="&#xe1;" horiz-adv-x="519" 
d="M435 289l-34 -185c-6 -35 -10 -79 -10 -104h-33c0 25 5 67 11 99h-3c-40 -73 -102 -111 -182 -111c-61 0 -145 28 -145 119c0 143 170 168 359 168c5 25 7 47 7 58c0 77 -47 112 -124 112c-54 0 -99 -20 -144 -52l-18 23c47 38 109 60 165 60c94 0 156 -47 156 -137
c0 -13 -3 -37 -5 -50zM386 211l7 35h-25c-158 0 -293 -27 -293 -134c0 -74 63 -94 116 -94c114 0 176 98 195 193zM446 708l-142 -144h-31l127 144h46z" />
    <glyph glyph-name="acircumflex" unicode="&#xe2;" horiz-adv-x="519" 
d="M435 289l-34 -185c-6 -35 -10 -79 -10 -104h-33c0 25 5 67 11 99h-3c-40 -73 -102 -111 -182 -111c-61 0 -145 28 -145 119c0 143 170 168 359 168c5 25 7 47 7 58c0 77 -47 112 -124 112c-54 0 -99 -20 -144 -52l-18 23c47 38 109 60 165 60c94 0 156 -47 156 -137
c0 -13 -3 -37 -5 -50zM386 211l7 35h-25c-158 0 -293 -27 -293 -134c0 -74 63 -94 116 -94c114 0 176 98 195 193zM319 708h44l76 -144h-33l-67 125l-114 -125h-38z" />
    <glyph glyph-name="atilde" unicode="&#xe3;" horiz-adv-x="519" 
d="M435 289l-34 -185c-6 -35 -10 -79 -10 -104h-33c0 25 5 67 11 99h-3c-40 -73 -102 -111 -182 -111c-61 0 -145 28 -145 119c0 143 170 168 359 168c5 25 7 47 7 58c0 77 -47 112 -124 112c-54 0 -99 -20 -144 -52l-18 23c47 38 109 60 165 60c94 0 156 -47 156 -137
c0 -13 -3 -37 -5 -50zM386 211l7 35h-25c-158 0 -293 -27 -293 -134c0 -74 63 -94 116 -94c114 0 176 98 195 193zM324 644c29 -19 42 -24 58 -24c26 0 41 18 52 49h25c-15 -49 -45 -79 -82 -79c-35 0 -95 48 -120 48s-41 -20 -52 -51h-25c16 49 45 81 82 81
c22 0 37 -8 62 -24z" />
    <glyph glyph-name="adieresis" unicode="&#xe4;" horiz-adv-x="519" 
d="M435 289l-34 -185c-6 -35 -10 -79 -10 -104h-33c0 25 5 67 11 99h-3c-40 -73 -102 -111 -182 -111c-61 0 -145 28 -145 119c0 143 170 168 359 168c5 25 7 47 7 58c0 77 -47 112 -124 112c-54 0 -99 -20 -144 -52l-18 23c47 38 109 60 165 60c94 0 156 -47 156 -137
c0 -13 -3 -37 -5 -50zM386 211l7 35h-25c-158 0 -293 -27 -293 -134c0 -74 63 -94 116 -94c114 0 176 98 195 193zM239 622c-16 0 -29 11 -29 31c0 19 15 35 33 35c16 0 28 -11 28 -30s-15 -36 -32 -36zM404 622c-17 0 -29 11 -29 31c0 19 14 35 32 35c16 0 29 -11 29 -30
s-15 -36 -32 -36z" />
    <glyph glyph-name="amacron" unicode="&#x101;" horiz-adv-x="519" 
d="M435 289l-34 -185c-6 -35 -10 -79 -10 -104h-33c0 25 5 67 11 99h-3c-40 -73 -102 -111 -182 -111c-61 0 -145 28 -145 119c0 143 170 168 359 168c5 25 7 47 7 58c0 77 -47 112 -124 112c-54 0 -99 -20 -144 -52l-18 23c47 38 109 60 165 60c94 0 156 -47 156 -137
c0 -13 -3 -37 -5 -50zM386 211l7 35h-25c-158 0 -293 -27 -293 -134c0 -74 63 -94 116 -94c114 0 176 98 195 193zM437 615h-244l5 30h244z" />
    <glyph glyph-name="abreve" unicode="&#x103;" horiz-adv-x="519" 
d="M435 289l-34 -185c-6 -35 -10 -79 -10 -104h-33c0 25 5 67 11 99h-3c-40 -73 -102 -111 -182 -111c-61 0 -145 28 -145 119c0 143 170 168 359 168c5 25 7 47 7 58c0 77 -47 112 -124 112c-54 0 -99 -20 -144 -52l-18 23c47 38 109 60 165 60c94 0 156 -47 156 -137
c0 -13 -3 -37 -5 -50zM386 211l7 35h-25c-158 0 -293 -27 -293 -134c0 -74 63 -94 116 -94c114 0 176 98 195 193zM451 701c-18 -81 -75 -128 -149 -128c-70 0 -115 45 -115 128h26c0 -66 37 -97 90 -97c60 0 105 29 124 97h24z" />
    <glyph glyph-name="aring" unicode="&#xe5;" horiz-adv-x="519" 
d="M435 289l-34 -185c-6 -35 -10 -79 -10 -104h-33c0 25 5 67 11 99h-3c-40 -73 -102 -111 -182 -111c-61 0 -145 28 -145 119c0 143 170 168 359 168c5 25 7 47 7 58c0 77 -47 112 -124 112c-54 0 -99 -20 -144 -52l-18 23c47 38 109 60 165 60c94 0 156 -47 156 -137
c0 -13 -3 -37 -5 -50zM386 211l7 35h-25c-158 0 -293 -27 -293 -134c0 -74 63 -94 116 -94c114 0 176 98 195 193zM395 664c0 33 -20 61 -61 61c-49 0 -80 -42 -80 -89c0 -33 19 -60 61 -60c48 0 80 41 80 88zM231 634c0 59 41 111 104 111c54 0 83 -34 83 -79
c0 -60 -41 -111 -104 -111c-54 0 -83 34 -83 79z" />
    <glyph glyph-name="aogonek" unicode="&#x105;" horiz-adv-x="519" 
d="M316 -223c-41 0 -77 21 -77 65c0 56 44 100 117 158c0 22 7 68 13 99h-3c-40 -73 -102 -111 -182 -111c-61 0 -146 28 -146 119c0 143 171 168 360 168c5 25 7 47 7 58c0 77 -47 112 -124 112c-54 0 -104 -23 -144 -55l-18 26c47 38 109 60 165 60c94 0 156 -47 156 -137
c0 -13 -3 -37 -5 -50l-34 -185c-7 -35 -10 -79 -10 -104h-4c-83 -71 -114 -106 -114 -149c0 -30 22 -45 52 -45c24 0 50 11 68 27l8 -23c-25 -20 -54 -33 -85 -33zM193 17c114 0 175 99 192 187l8 42h-25c-158 0 -293 -27 -293 -134c0 -74 65 -95 118 -95z" />
    <glyph glyph-name="ae" unicode="&#xe6;" horiz-adv-x="879" 
d="M587 17c75 0 132 36 172 85l21 -22c-44 -54 -113 -93 -195 -93c-111 0 -178 69 -190 159c-27 -79 -94 -158 -207 -158c-64 0 -150 27 -150 116c0 133 167 154 356 154c6 27 11 60 11 74c0 78 -47 113 -124 113c-54 0 -104 -23 -144 -55l-18 26c47 38 109 60 165 60
c86 0 144 -42 152 -120c39 68 114 120 202 120c126 0 186 -80 186 -182c0 -14 -2 -42 -8 -65h-393c-2 -11 -3 -22 -3 -31c0 -107 58 -181 167 -181zM384 204l5 25h-26c-162 0 -288 -27 -288 -120c0 -71 65 -92 118 -92c113 0 173 98 191 187zM786 258c1 13 2 26 2 39
c0 88 -55 148 -150 148c-123 0 -194 -102 -210 -187h358z" />
    <glyph glyph-name="cacute" unicode="&#x107;" horiz-adv-x="478" 
d="M430 53c-50 -48 -103 -69 -171 -69c-137 0 -207 86 -207 202c0 153 113 290 273 290c62 0 123 -22 154 -66l-27 -22c-25 37 -76 57 -126 57c-138 0 -237 -122 -237 -256c0 -97 58 -173 173 -173c57 0 111 22 147 59zM476 708l-142 -144h-31l127 144h46z" />
    <glyph glyph-name="ccircumflex" unicode="&#x109;" horiz-adv-x="478" 
d="M430 53c-50 -48 -103 -69 -171 -69c-137 0 -207 86 -207 202c0 153 113 290 273 290c62 0 123 -22 154 -66l-27 -22c-25 37 -76 57 -126 57c-138 0 -237 -122 -237 -256c0 -97 58 -173 173 -173c57 0 111 22 147 59zM354 708h44l76 -144h-33l-67 125l-114 -125h-38z" />
    <glyph glyph-name="ccaron" unicode="&#x10d;" horiz-adv-x="478" 
d="M430 53c-50 -48 -103 -69 -171 -69c-137 0 -207 86 -207 202c0 153 113 290 273 290c62 0 123 -22 154 -66l-27 -22c-25 37 -76 57 -126 57c-138 0 -237 -122 -237 -256c0 -97 58 -173 173 -173c57 0 111 22 147 59zM361 564h-45l-76 144h34l66 -125l115 125h38z" />
    <glyph glyph-name="cdotaccent" unicode="&#x10b;" horiz-adv-x="478" 
d="M430 53c-50 -48 -103 -69 -171 -69c-137 0 -207 86 -207 202c0 153 113 290 273 290c62 0 123 -22 154 -66l-27 -22c-25 37 -76 57 -126 57c-138 0 -237 -122 -237 -256c0 -97 58 -173 173 -173c57 0 111 22 147 59zM360 623c-16 0 -29 10 -29 30c0 18 15 34 32 34
c16 0 28 -11 28 -29c0 -19 -14 -35 -31 -35z" />
    <glyph glyph-name="ccedilla" unicode="&#xe7;" horiz-adv-x="478" 
d="M430 53c-49 -47 -100 -67 -165 -69l-56 -67c15 5 28 7 45 7c35 0 78 -15 78 -63c0 -63 -57 -88 -120 -88c-26 0 -68 7 -94 20l11 23c22 -11 57 -17 82 -17c59 0 88 25 88 59c0 32 -29 44 -57 44c-17 0 -49 -5 -65 -13l-11 11l72 85c-123 8 -186 91 -186 201
c0 153 113 290 273 290c62 0 123 -22 154 -66l-27 -22c-25 37 -76 57 -126 57c-138 0 -237 -122 -237 -256c0 -97 58 -173 173 -173c57 0 111 22 147 59z" />
    <glyph glyph-name="dcaron" unicode="&#x10f;" horiz-adv-x="658" 
d="M259 -13c-135 0 -208 86 -208 204c0 152 106 285 266 285c88 0 158 -51 181 -126h3l70 406h36l-133 -756h-36l20 105h-2c-34 -66 -108 -118 -197 -118zM262 17c125 0 223 123 223 255c0 97 -66 173 -169 173c-138 0 -229 -118 -229 -252c0 -97 59 -176 175 -176zM754 708
l-101 -187h-29l92 187h38z" />
    <glyph glyph-name="dcroat" unicode="&#x111;" horiz-adv-x="619" 
d="M635 570h-61l-100 -570h-36l20 105h-2c-34 -66 -108 -118 -197 -118c-135 0 -208 86 -208 204c0 152 106 285 266 285c88 0 158 -51 181 -126h3l38 220h-202l6 28h201l27 158h36l-28 -158h61zM262 17c127 0 225 123 225 255c0 97 -66 173 -171 173
c-138 0 -229 -118 -229 -252c0 -97 59 -176 175 -176z" />
    <glyph glyph-name="eth" unicode="&#xf0;" horiz-adv-x="597" 
d="M510 269c0 96 -60 176 -179 176c-139 0 -230 -119 -230 -251c0 -97 59 -177 178 -177c139 0 231 119 231 252zM333 476c70 0 125 -22 162 -73l5 2c-20 92 -72 189 -121 243l-123 -60l-16 21l121 60c-30 35 -60 61 -84 79l31 19c30 -23 59 -51 84 -82l115 58l21 -20
l-116 -59c66 -81 136 -226 136 -378c0 -153 -93 -299 -270 -299c-137 0 -214 87 -214 205c0 150 106 284 269 284z" />
    <glyph glyph-name="egrave" unicode="&#xe8;" horiz-adv-x="557" 
d="M494 229h-405c-1 -11 -2 -22 -2 -31c0 -112 69 -180 178 -180c75 0 128 32 170 81l23 -19c-44 -54 -113 -93 -195 -93c-132 0 -212 83 -212 208c0 148 110 281 265 281c126 0 185 -80 185 -182c0 -14 -2 -42 -7 -65zM463 258c2 13 3 26 3 39c0 88 -55 148 -151 148
c-128 0 -204 -102 -221 -187h369zM223 708h46l104 -144h-31z" />
    <glyph glyph-name="eacute" unicode="&#xe9;" horiz-adv-x="557" 
d="M494 229h-405c-1 -11 -2 -22 -2 -31c0 -112 69 -180 178 -180c75 0 128 32 170 81l23 -19c-44 -54 -113 -93 -195 -93c-132 0 -212 83 -212 208c0 148 110 281 265 281c126 0 185 -80 185 -182c0 -14 -2 -42 -7 -65zM463 258c2 13 3 26 3 39c0 88 -55 148 -151 148
c-128 0 -204 -102 -221 -187h369zM461 708l-142 -144h-31l127 144h46z" />
    <glyph glyph-name="ecircumflex" unicode="&#xea;" horiz-adv-x="557" 
d="M494 229h-405c-1 -11 -2 -22 -2 -31c0 -112 69 -180 178 -180c75 0 128 32 170 81l23 -19c-44 -54 -113 -93 -195 -93c-132 0 -212 83 -212 208c0 148 110 281 265 281c126 0 185 -80 185 -182c0 -14 -2 -42 -7 -65zM463 258c2 13 3 26 3 39c0 88 -55 148 -151 148
c-128 0 -204 -102 -221 -187h369zM351 708h44l76 -144h-33l-67 125l-114 -125h-38z" />
    <glyph glyph-name="ecaron" unicode="&#x11b;" horiz-adv-x="557" 
d="M494 229h-405c-1 -11 -2 -22 -2 -31c0 -112 69 -180 178 -180c75 0 128 32 170 81l23 -19c-44 -54 -113 -93 -195 -93c-132 0 -212 83 -212 208c0 148 110 281 265 281c126 0 185 -80 185 -182c0 -14 -2 -42 -7 -65zM463 258c2 13 3 26 3 39c0 88 -55 148 -151 148
c-128 0 -204 -102 -221 -187h369zM358 564h-45l-76 144h34l66 -125l115 125h38z" />
    <glyph glyph-name="edieresis" unicode="&#xeb;" horiz-adv-x="557" 
d="M494 229h-405c-1 -11 -2 -22 -2 -31c0 -112 69 -180 178 -180c75 0 128 32 170 81l23 -19c-44 -54 -113 -93 -195 -93c-132 0 -212 83 -212 208c0 148 110 281 265 281c126 0 185 -80 185 -182c0 -14 -2 -42 -7 -65zM463 258c2 13 3 26 3 39c0 88 -55 148 -151 148
c-128 0 -204 -102 -221 -187h369zM271 622c-16 0 -29 11 -29 31c0 19 15 35 33 35c16 0 28 -11 28 -30s-15 -36 -32 -36zM436 622c-17 0 -29 11 -29 31c0 19 14 35 32 35c16 0 29 -11 29 -30s-15 -36 -32 -36z" />
    <glyph glyph-name="emacron" unicode="&#x113;" horiz-adv-x="557" 
d="M494 229h-405c-1 -11 -2 -22 -2 -31c0 -112 69 -180 178 -180c75 0 128 32 170 81l23 -19c-44 -54 -113 -93 -195 -93c-132 0 -212 83 -212 208c0 148 110 281 265 281c126 0 185 -80 185 -182c0 -14 -2 -42 -7 -65zM463 258c2 13 3 26 3 39c0 88 -55 148 -151 148
c-128 0 -204 -102 -221 -187h369zM469 615h-244l5 30h244z" />
    <glyph glyph-name="ebreve" unicode="&#x115;" horiz-adv-x="557" 
d="M494 229h-405c-1 -11 -2 -22 -2 -31c0 -112 69 -180 178 -180c75 0 128 32 170 81l23 -19c-44 -54 -113 -93 -195 -93c-132 0 -212 83 -212 208c0 148 110 281 265 281c126 0 185 -80 185 -182c0 -14 -2 -42 -7 -65zM463 258c2 13 3 26 3 39c0 88 -55 148 -151 148
c-128 0 -204 -102 -221 -187h369zM488 701c-18 -81 -75 -128 -149 -128c-70 0 -115 45 -115 128h26c0 -66 37 -97 90 -97c60 0 105 29 124 97h24z" />
    <glyph glyph-name="edotaccent" unicode="&#x117;" horiz-adv-x="557" 
d="M494 229h-405c-1 -11 -2 -22 -2 -31c0 -112 69 -180 178 -180c75 0 128 32 170 81l23 -19c-44 -54 -113 -93 -195 -93c-132 0 -212 83 -212 208c0 148 110 281 265 281c126 0 185 -80 185 -182c0 -14 -2 -42 -7 -65zM463 258c2 13 3 26 3 39c0 88 -55 148 -151 148
c-128 0 -204 -102 -221 -187h369zM349 623c-16 0 -29 10 -29 30c0 18 15 34 32 34c16 0 28 -11 28 -29c0 -19 -14 -35 -31 -35z" />
    <glyph glyph-name="eogonek" unicode="&#x119;" horiz-adv-x="557" 
d="M316 -167l9 -23c-25 -20 -54 -33 -85 -33c-42 0 -78 21 -78 65c0 52 36 93 99 145c-131 0 -210 83 -210 208c0 147 110 281 265 281c126 0 185 -80 185 -182c0 -14 -2 -42 -7 -65h-405c-1 -11 -2 -22 -2 -31c0 -112 69 -181 178 -181c75 0 132 36 171 85l22 -22
c-38 -46 -93 -82 -161 -91c-73 -63 -100 -97 -100 -138c0 -30 21 -45 51 -45c24 0 50 11 68 27zM463 258c2 13 3 26 3 39c0 88 -55 148 -151 148c-128 0 -204 -102 -221 -187h369z" />
    <glyph glyph-name="gcircumflex" unicode="&#x11d;" horiz-adv-x="620" 
d="M463 110h-2c-38 -72 -111 -120 -199 -120c-135 0 -207 89 -207 205c0 150 106 281 265 281c89 0 160 -51 181 -127h3l20 113h35l-78 -443c-24 -133 -79 -266 -262 -266c-88 0 -157 33 -201 89l24 22c48 -55 106 -79 177 -79c154 0 204 112 227 235zM267 21
c126 0 222 121 222 252c0 95 -66 172 -169 172c-138 0 -229 -114 -229 -249c0 -96 59 -175 176 -175zM367 708h44l76 -144h-33l-67 125l-114 -125h-38z" />
    <glyph glyph-name="gbreve" unicode="&#x11f;" horiz-adv-x="620" 
d="M463 110h-2c-38 -72 -111 -120 -199 -120c-135 0 -207 89 -207 205c0 150 106 281 265 281c89 0 160 -51 181 -127h3l20 113h35l-78 -443c-24 -133 -79 -266 -262 -266c-88 0 -157 33 -201 89l24 22c48 -55 106 -79 177 -79c154 0 204 112 227 235zM267 21
c126 0 222 121 222 252c0 95 -66 172 -169 172c-138 0 -229 -114 -229 -249c0 -96 59 -175 176 -175zM506 701c-18 -81 -75 -128 -149 -128c-70 0 -115 45 -115 128h26c0 -66 37 -97 90 -97c60 0 105 29 124 97h24z" />
    <glyph glyph-name="gdotaccent" unicode="&#x121;" horiz-adv-x="620" 
d="M463 110h-2c-38 -72 -111 -120 -199 -120c-135 0 -207 89 -207 205c0 150 106 281 265 281c89 0 160 -51 181 -127h3l20 113h35l-78 -443c-24 -133 -79 -266 -262 -266c-88 0 -157 33 -201 89l24 22c48 -55 106 -79 177 -79c154 0 204 112 227 235zM267 21
c126 0 222 121 222 252c0 95 -66 172 -169 172c-138 0 -229 -114 -229 -249c0 -96 59 -175 176 -175zM367 623c-16 0 -29 10 -29 30c0 18 15 34 32 34c16 0 28 -11 28 -29c0 -19 -14 -35 -31 -35z" />
    <glyph glyph-name="gcommaaccent" unicode="&#x123;" horiz-adv-x="620" 
d="M463 110h-2c-38 -72 -111 -120 -199 -120c-135 0 -207 89 -207 205c0 150 106 281 265 281c89 0 160 -51 181 -127h3l20 113h35l-78 -443c-24 -133 -79 -266 -262 -266c-88 0 -157 33 -201 89l24 22c48 -55 106 -79 177 -79c154 0 204 112 227 235zM267 21
c126 0 222 121 222 252c0 95 -66 172 -169 172c-138 0 -229 -114 -229 -249c0 -96 59 -175 176 -175zM316 564l102 187h29l-92 -187h-39z" />
    <glyph glyph-name="hcircumflex" unicode="&#x125;" horiz-adv-x="569" 
d="M154 360h2c39 75 106 116 178 116c99 0 148 -64 148 -157c0 -18 -2 -37 -5 -56l-47 -263h-36l48 269c3 15 4 31 4 47c0 67 -30 129 -119 129c-87 0 -172 -76 -199 -231l-38 -214h-36l133 756h36zM374 940h44l76 -144h-33l-67 125l-114 -125h-38z" />
    <glyph glyph-name="hbar" unicode="&#x127;" horiz-adv-x="569" 
d="M153 355h2c38 78 105 121 179 121c99 0 150 -66 150 -147c0 -15 -2 -32 -5 -52l-49 -277h-36l48 269c3 17 5 38 5 53c0 65 -32 123 -120 123c-92 0 -172 -76 -196 -212l-41 -233h-36l100 570h-61l5 28h61l28 158h36l-28 -158h201l-6 -28h-200z" />
    <glyph glyph-name="dotlessi" unicode="&#x131;" horiz-adv-x="233" 
d="M90 0h-36l82 462h36z" />
    <glyph glyph-name="igrave" unicode="&#xec;" horiz-adv-x="233" 
d="M90 0h-36l82 462h36zM46 708h46l104 -144h-31z" />
    <glyph glyph-name="iacute" unicode="&#xed;" horiz-adv-x="233" 
d="M90 0h-36l82 462h36zM318 708l-142 -144h-31l127 144h46z" />
    <glyph glyph-name="icircumflex" unicode="&#xee;" horiz-adv-x="233" 
d="M90 0h-36l82 462h36zM179 708h44l76 -144h-33l-67 125l-114 -125h-38z" />
    <glyph glyph-name="itilde" unicode="&#x129;" horiz-adv-x="233" 
d="M90 0h-36l82 462h36zM185 644c29 -19 42 -24 58 -24c26 0 41 18 52 49h25c-15 -49 -45 -79 -82 -79c-35 0 -95 48 -120 48s-41 -20 -52 -51h-25c16 49 45 81 82 81c22 0 37 -8 62 -24z" />
    <glyph glyph-name="idieresis" unicode="&#xef;" horiz-adv-x="233" 
d="M90 0h-36l82 462h36zM99 622c-16 0 -29 11 -29 31c0 19 15 35 33 35c16 0 28 -11 28 -30s-15 -36 -32 -36zM264 622c-17 0 -29 11 -29 31c0 19 14 35 32 35c16 0 29 -11 29 -30s-15 -36 -32 -36z" />
    <glyph glyph-name="imacron" unicode="&#x12b;" horiz-adv-x="233" 
d="M90 0h-36l82 462h36zM299 615h-244l5 30h244z" />
    <glyph glyph-name="ibreve" unicode="&#x12d;" horiz-adv-x="233" 
d="M90 0h-36l82 462h36zM326 701c-18 -81 -75 -128 -149 -128c-70 0 -115 45 -115 128h26c0 -66 37 -97 90 -97c60 0 105 29 124 97h24z" />
    <glyph glyph-name="iogonek" unicode="&#x12f;" horiz-adv-x="233" 
d="M95 -167l9 -23c-25 -20 -54 -33 -85 -33c-42 0 -78 21 -78 65c0 56 44 100 117 158h-4l82 462h36l-83 -462c-82 -71 -113 -106 -113 -149c0 -30 21 -45 51 -45c24 0 50 11 68 27zM181 623c-16 0 -29 10 -29 30c0 18 15 34 32 34c16 0 28 -11 28 -29
c0 -19 -14 -35 -31 -35z" />
    <glyph glyph-name="dotlessj" unicode="&#x237;" horiz-adv-x="234" 
d="M74 -96c-14 -75 -41 -145 -137 -145c-10 0 -26 2 -37 5l6 30c10 -2 21 -4 30 -4c75 0 93 57 103 116l97 556h36z" />
    <glyph glyph-name="jcircumflex" unicode="&#x135;" horiz-adv-x="234" 
d="M74 -96c-14 -75 -41 -145 -137 -145c-10 0 -26 2 -37 5l6 30c10 -2 21 -4 30 -4c75 0 93 57 103 116l97 556h36zM171 708h44l76 -144h-33l-67 125l-114 -125h-38z" />
    <glyph glyph-name="kcommaaccent" unicode="&#x137;" horiz-adv-x="452" 
d="M135 251h2l262 211h52l-273 -215l223 -247h-49l-216 244h-2l-43 -244h-36l133 756h35zM243 -44l-101 -187h-29l92 187h38z" />
    <glyph glyph-name="kgreenlandic" unicode="&#x138;" horiz-adv-x="452" 
d="M172 462l-37 -211h2l262 211h52l-273 -215l223 -247h-49l-216 244h-3l-42 -244h-36l81 462h36z" />
    <glyph glyph-name="lacute" unicode="&#x13a;" horiz-adv-x="234" 
d="M91 0h-36l133 756h36zM364 936l-142 -144h-31l127 144h46z" />
    <glyph glyph-name="lcaron" unicode="&#x13e;" horiz-adv-x="266" 
d="M91 0h-36l133 756h36zM382 708l-101 -187h-29l92 187h38z" />
    <glyph glyph-name="lcommaaccent" unicode="&#x13c;" horiz-adv-x="234" 
d="M91 0h-36l133 756h36zM111 -46l-101 -187h-29l92 187h38z" />
    <glyph glyph-name="lslash" unicode="&#x142;" horiz-adv-x="234" 
d="M119 352l-81 -67l7 42l82 66l63 363h36l-58 -334l87 70l-7 -40l-88 -71l-67 -381h-36z" />
    <glyph glyph-name="ldot" unicode="&#x140;" horiz-adv-x="271" 
d="M91 0h-36l133 756h36zM263 433c-16 0 -29 10 -29 30c0 18 15 34 32 34c16 0 28 -11 28 -29c0 -19 -14 -35 -31 -35z" />
    <glyph glyph-name="nacute" unicode="&#x144;" horiz-adv-x="569" 
d="M334 476c99 0 148 -64 148 -157c0 -18 -2 -37 -5 -56l-47 -263h-36l48 269c3 15 4 32 4 48c0 67 -30 128 -119 128c-87 0 -172 -76 -199 -231l-38 -214h-36l62 350c5 28 13 85 15 112h35c-2 -25 -10 -78 -15 -108h2c39 79 107 122 181 122zM464 708l-142 -144h-31
l127 144h46z" />
    <glyph glyph-name="ncaron" unicode="&#x148;" horiz-adv-x="569" 
d="M334 476c99 0 148 -64 148 -157c0 -18 -2 -37 -5 -56l-47 -263h-36l48 269c3 15 4 32 4 48c0 67 -30 128 -119 128c-87 0 -172 -76 -199 -231l-38 -214h-36l62 350c5 28 13 85 15 112h35c-2 -25 -10 -78 -15 -108h2c39 79 107 122 181 122zM349 564h-45l-76 144h34
l66 -125l115 125h38z" />
    <glyph glyph-name="ntilde" unicode="&#xf1;" horiz-adv-x="569" 
d="M334 476c99 0 148 -64 148 -157c0 -18 -2 -37 -5 -56l-47 -263h-36l48 269c3 15 4 32 4 48c0 67 -30 128 -119 128c-87 0 -172 -76 -199 -231l-38 -214h-36l62 350c5 28 13 85 15 112h35c-2 -25 -10 -78 -15 -108h2c39 79 107 122 181 122zM351 644c29 -19 42 -24 58 -24
c26 0 41 18 52 49h25c-15 -49 -45 -79 -82 -79c-35 0 -95 48 -120 48s-41 -20 -52 -51h-25c16 49 45 81 82 81c22 0 37 -8 62 -24z" />
    <glyph glyph-name="ncommaaccent" unicode="&#x146;" horiz-adv-x="569" 
d="M334 476c99 0 148 -64 148 -157c0 -18 -2 -37 -5 -56l-47 -263h-36l48 269c3 15 4 32 4 48c0 67 -30 128 -119 128c-87 0 -172 -76 -199 -231l-38 -214h-36l62 350c5 28 13 85 15 112h35c-2 -25 -10 -78 -15 -108h2c39 79 107 122 181 122zM275 -44l-101 -187h-29l92 187
h38z" />
    <glyph glyph-name="eng" unicode="&#x14b;" horiz-adv-x="569" 
d="M239 -236l6 30c10 -2 21 -4 30 -4c76 0 92 57 103 116l64 363c3 17 5 38 5 53c0 65 -32 123 -120 123c-92 0 -172 -76 -196 -212l-41 -233h-36l62 350c5 28 13 85 15 112h35c-2 -25 -10 -78 -15 -108h2c39 79 107 122 181 122c99 0 150 -66 150 -147c0 -15 -2 -32 -5 -52
l-66 -373c-13 -75 -42 -145 -136 -145c-11 0 -27 2 -38 5z" />
    <glyph glyph-name="ograve" unicode="&#xf2;" horiz-adv-x="597" 
d="M497 269c0 96 -60 175 -179 175c-139 0 -230 -118 -230 -250c0 -97 58 -176 178 -176c139 0 231 118 231 251zM51 192c0 150 107 284 269 284c137 0 214 -88 214 -205c0 -152 -106 -284 -269 -284c-138 0 -214 87 -214 205zM224 708h46l104 -144h-31z" />
    <glyph glyph-name="oacute" unicode="&#xf3;" horiz-adv-x="597" 
d="M497 269c0 96 -60 175 -179 175c-139 0 -230 -118 -230 -250c0 -97 58 -176 178 -176c139 0 231 118 231 251zM51 192c0 150 107 284 269 284c137 0 214 -88 214 -205c0 -152 -106 -284 -269 -284c-138 0 -214 87 -214 205zM481 708l-142 -144h-31l127 144h46z" />
    <glyph glyph-name="ocircumflex" unicode="&#xf4;" horiz-adv-x="597" 
d="M497 269c0 96 -60 175 -179 175c-139 0 -230 -118 -230 -250c0 -97 58 -176 178 -176c139 0 231 118 231 251zM51 192c0 150 107 284 269 284c137 0 214 -88 214 -205c0 -152 -106 -284 -269 -284c-138 0 -214 87 -214 205zM359 708h44l76 -144h-33l-67 125l-114 -125
h-38z" />
    <glyph glyph-name="otilde" unicode="&#xf5;" horiz-adv-x="597" 
d="M497 269c0 96 -60 175 -179 175c-139 0 -230 -118 -230 -250c0 -97 58 -176 178 -176c139 0 231 118 231 251zM51 192c0 150 107 284 269 284c137 0 214 -88 214 -205c0 -152 -106 -284 -269 -284c-138 0 -214 87 -214 205zM362 644c29 -19 42 -24 58 -24
c26 0 41 18 52 49h25c-15 -49 -45 -79 -82 -79c-35 0 -95 48 -120 48s-41 -20 -52 -51h-25c16 49 45 81 82 81c22 0 37 -8 62 -24z" />
    <glyph glyph-name="odieresis" unicode="&#xf6;" horiz-adv-x="597" 
d="M497 269c0 96 -60 175 -179 175c-139 0 -230 -118 -230 -250c0 -97 58 -176 178 -176c139 0 231 118 231 251zM51 192c0 150 107 284 269 284c137 0 214 -88 214 -205c0 -152 -106 -284 -269 -284c-138 0 -214 87 -214 205zM278 622c-16 0 -29 11 -29 31
c0 19 15 35 33 35c16 0 28 -11 28 -30s-15 -36 -32 -36zM443 622c-17 0 -29 11 -29 31c0 19 14 35 32 35c16 0 29 -11 29 -30s-15 -36 -32 -36z" />
    <glyph glyph-name="omacron" unicode="&#x14d;" horiz-adv-x="597" 
d="M497 269c0 96 -60 175 -179 175c-139 0 -230 -118 -230 -250c0 -97 58 -176 178 -176c139 0 231 118 231 251zM51 192c0 150 107 284 269 284c137 0 214 -88 214 -205c0 -152 -106 -284 -269 -284c-138 0 -214 87 -214 205zM477 615h-244l5 30h244z" />
    <glyph glyph-name="obreve" unicode="&#x14f;" horiz-adv-x="597" 
d="M497 269c0 96 -60 175 -179 175c-139 0 -230 -118 -230 -250c0 -97 58 -176 178 -176c139 0 231 118 231 251zM51 192c0 150 107 284 269 284c137 0 214 -88 214 -205c0 -152 -106 -284 -269 -284c-138 0 -214 87 -214 205zM490 701c-18 -81 -75 -128 -149 -128
c-70 0 -115 45 -115 128h26c0 -66 37 -97 90 -97c60 0 105 29 124 97h24z" />
    <glyph glyph-name="ohungarumlaut" unicode="&#x151;" horiz-adv-x="597" 
d="M497 269c0 96 -60 175 -179 175c-139 0 -230 -118 -230 -250c0 -97 58 -176 178 -176c139 0 231 118 231 251zM51 192c0 150 107 284 269 284c137 0 214 -88 214 -205c0 -152 -106 -284 -269 -284c-138 0 -214 87 -214 205zM255 564l127 144h47l-142 -144h-32zM391 564
l127 144h48l-143 -144h-32z" />
    <glyph glyph-name="oslash" unicode="&#xf8;" horiz-adv-x="597" 
d="M266 17c139 0 231 119 231 252c0 39 -10 75 -30 104l-339 -299c29 -34 74 -57 138 -57zM114 94l338 299c-30 33 -74 52 -134 52c-139 0 -230 -119 -230 -251c0 -37 8 -72 26 -100zM29 -14l-16 18l74 65c-24 33 -36 76 -36 123c0 150 107 284 269 284
c69 0 122 -22 158 -59l72 63l15 -19l-71 -63c27 -34 40 -78 40 -127c0 -152 -106 -284 -269 -284c-71 0 -127 23 -163 63z" />
    <glyph glyph-name="oe" unicode="&#x153;" horiz-adv-x="997" 
d="M497 269c0 96 -60 176 -179 176c-139 0 -230 -119 -230 -251c0 -97 58 -177 178 -177c139 0 231 119 231 252zM704 17c75 0 132 36 172 85l21 -22c-43 -54 -112 -93 -195 -93c-113 0 -182 61 -202 148c-40 -85 -121 -148 -235 -148c-138 0 -214 87 -214 205
c0 150 107 284 269 284c113 0 184 -63 205 -149c40 86 125 149 231 149c125 0 185 -80 185 -182c0 -14 -2 -42 -8 -65h-404c-2 -11 -3 -22 -3 -31c0 -112 70 -181 178 -181zM903 258c2 13 3 26 3 39c0 88 -56 148 -151 148c-128 0 -205 -102 -221 -187h369z" />
    <glyph glyph-name="racute" unicode="&#x155;" horiz-adv-x="321" 
d="M153 354c40 82 103 122 170 122c10 0 20 -1 26 -2l-7 -33c-6 1 -16 2 -24 2c-103 0 -167 -96 -189 -223l-39 -220h-36l62 350c5 28 13 85 15 112h35c-2 -25 -10 -78 -15 -108h2zM338 708l-142 -144h-31l127 144h46z" />
    <glyph glyph-name="rcaron" unicode="&#x159;" horiz-adv-x="321" 
d="M153 354c40 82 103 122 170 122c10 0 20 -1 26 -2l-7 -33c-6 1 -16 2 -24 2c-103 0 -167 -96 -189 -223l-39 -220h-36l62 350c5 28 13 85 15 112h35c-2 -25 -10 -78 -15 -108h2zM266 564h-45l-76 144h34l66 -125l115 125h38z" />
    <glyph glyph-name="rcommaaccent" unicode="&#x157;" horiz-adv-x="321" 
d="M153 354c40 82 103 122 170 122c10 0 20 -1 26 -2l-7 -33c-6 1 -16 2 -24 2c-103 0 -167 -96 -189 -223l-39 -220h-36l62 350c5 28 13 85 15 112h35c-2 -25 -10 -78 -15 -108h2zM108 -46l-101 -187h-29l92 187h38z" />
    <glyph glyph-name="sacute" unicode="&#x15b;" horiz-adv-x="414" 
d="M15 58l27 22c33 -41 73 -61 129 -61c76 0 131 45 131 107c0 50 -31 79 -116 102c-70 19 -111 52 -111 112c0 91 83 136 165 136c65 0 117 -26 139 -62l-26 -19c-28 37 -66 50 -113 50c-69 0 -129 -34 -129 -102c0 -51 35 -70 97 -87c94 -26 130 -66 130 -127
c0 -87 -74 -141 -166 -141c-69 0 -119 20 -157 70zM392 708l-142 -144h-31l127 144h46z" />
    <glyph glyph-name="scircumflex" unicode="&#x15d;" horiz-adv-x="414" 
d="M15 58l27 22c33 -41 73 -61 129 -61c76 0 131 45 131 107c0 50 -31 79 -116 102c-70 19 -111 52 -111 112c0 91 83 136 165 136c65 0 117 -26 139 -62l-26 -19c-28 37 -66 50 -113 50c-69 0 -129 -34 -129 -102c0 -51 35 -70 97 -87c94 -26 130 -66 130 -127
c0 -87 -74 -141 -166 -141c-69 0 -119 20 -157 70zM272 708h44l76 -144h-33l-67 125l-114 -125h-38z" />
    <glyph glyph-name="scaron" unicode="&#x161;" horiz-adv-x="414" 
d="M15 58l27 22c33 -41 73 -61 129 -61c76 0 131 45 131 107c0 50 -31 79 -116 102c-70 19 -111 52 -111 112c0 91 83 136 165 136c65 0 117 -26 139 -62l-26 -19c-28 37 -66 50 -113 50c-69 0 -129 -34 -129 -102c0 -51 35 -70 97 -87c94 -26 130 -66 130 -127
c0 -87 -74 -141 -166 -141c-69 0 -119 20 -157 70zM279 564h-45l-76 144h34l66 -125l115 125h38z" />
    <glyph glyph-name="scedilla" unicode="&#x15f;" horiz-adv-x="414" 
d="M15 58l27 22c33 -41 73 -61 129 -61c76 0 131 45 131 107c0 50 -31 79 -116 102c-70 19 -111 52 -111 112c0 91 83 136 165 136c65 0 117 -26 139 -62l-26 -19c-28 37 -66 50 -113 50c-69 0 -129 -34 -129 -102c0 -51 35 -70 97 -87c94 -26 130 -66 130 -127
c0 -81 -63 -132 -146 -140l-60 -72c15 5 28 7 45 7c35 0 78 -15 78 -63c0 -63 -57 -88 -120 -88c-26 0 -68 7 -94 20l11 23c22 -11 57 -17 82 -17c59 0 88 25 88 59c0 32 -29 44 -57 44c-17 0 -49 -5 -65 -13l-11 11l75 88c-65 2 -113 22 -149 70z" />
    <glyph glyph-name="scommaaccent" unicode="&#x219;" horiz-adv-x="414" 
d="M15 58l27 22c33 -41 73 -61 129 -61c76 0 131 45 131 107c0 50 -31 79 -116 102c-70 19 -111 52 -111 112c0 91 83 136 165 136c65 0 117 -26 139 -62l-26 -19c-28 37 -66 50 -113 50c-69 0 -129 -34 -129 -102c0 -51 35 -70 97 -87c94 -26 130 -66 130 -127
c0 -87 -74 -141 -166 -141c-69 0 -119 20 -157 70zM197 -45l-101 -187h-29l92 187h38z" />
    <glyph glyph-name="germandbls" unicode="&#xdf;" horiz-adv-x="582" 
d="M256 -11c-15 0 -37 2 -52 4l5 32c18 -3 36 -4 49 -4c130 0 227 87 227 217c0 93 -58 173 -171 173h-14l6 33h14c90 0 184 51 184 160c0 89 -61 132 -137 132c-128 0 -169 -107 -185 -199l-94 -537h-36l95 540c20 115 75 228 220 228c97 0 174 -56 174 -159
c0 -107 -79 -163 -159 -180l-1 -2c75 -15 141 -78 141 -186c0 -138 -98 -252 -266 -252z" />
    <glyph glyph-name="tcaron" unicode="&#x165;" horiz-adv-x="307" 
d="M170 -10c-53 0 -91 25 -91 82c0 10 2 29 4 40l57 320h-103l5 30h102l24 135h36l-24 -135h127l-5 -30h-127l-56 -316c-2 -11 -3 -29 -3 -37c0 -44 26 -58 66 -58c14 0 37 4 52 10l-2 -29c-17 -7 -39 -12 -62 -12zM403 731l-101 -187h-29l92 187h38z" />
    <glyph glyph-name="uni0163" unicode="&#x163;" horiz-adv-x="297" 
d="M307 462l-5 -30h-127l-56 -316c-2 -11 -3 -29 -3 -37c0 -44 26 -58 66 -58c14 0 37 4 52 10l-2 -29c-17 -7 -39 -12 -62 -12c-53 0 -91 25 -91 82c0 10 2 29 4 40l57 320h-103l5 30h102l24 135h36l-24 -135h127zM182 -45l-101 -187h-29l92 187h38z" />
    <glyph glyph-name="uni021B" unicode="&#x21b;" horiz-adv-x="297" 
d="M170 -10c-53 0 -91 25 -91 82c0 10 2 29 4 40l57 320h-103l5 30h102l24 135h36l-24 -135h127l-5 -30h-127l-56 -316c-2 -11 -3 -29 -3 -37c0 -44 26 -58 66 -58c14 0 37 4 52 10l-2 -29c-17 -7 -39 -12 -62 -12zM52 -232l92 187h38l-101 -187h-29z" />
    <glyph glyph-name="tbar" unicode="&#x167;" horiz-adv-x="297" 
d="M170 -10c-53 0 -91 25 -91 82c0 10 2 29 4 40l26 149h-89l6 27h88l26 144h-103l5 30h102l24 135h36l-24 -135h127l-5 -30h-127l-25 -144h116l-5 -27h-116l-26 -145c-2 -11 -3 -29 -3 -37c0 -44 26 -58 66 -58c14 0 37 4 52 10l-2 -29c-17 -7 -39 -12 -62 -12z" />
    <glyph glyph-name="thorn" unicode="&#xfe;" horiz-adv-x="625" 
d="M153 357h3c34 66 107 119 196 119c135 0 209 -86 209 -204c0 -153 -107 -285 -266 -285c-89 0 -159 50 -182 126h-3l-62 -353h-36l176 996h35zM349 445c-127 0 -225 -122 -225 -255c0 -97 67 -173 171 -173c138 0 229 119 229 253c0 97 -58 175 -175 175z" />
    <glyph glyph-name="ugrave" unicode="&#xf9;" horiz-adv-x="569" 
d="M219 -13c-99 0 -148 64 -148 156c0 17 2 34 5 53l47 266h36l-48 -269c-3 -16 -5 -32 -5 -47c0 -68 30 -129 120 -129c91 0 173 76 200 232l37 213h36l-62 -350c-5 -28 -13 -84 -15 -112h-35c2 26 10 79 15 108h-2c-40 -79 -107 -121 -181 -121zM194 708h46l104 -144h-31z
" />
    <glyph glyph-name="uacute" unicode="&#xfa;" horiz-adv-x="569" 
d="M219 -13c-99 0 -148 64 -148 156c0 17 2 34 5 53l47 266h36l-48 -269c-3 -16 -5 -32 -5 -47c0 -68 30 -129 120 -129c91 0 173 76 200 232l37 213h36l-62 -350c-5 -28 -13 -84 -15 -112h-35c2 26 10 79 15 108h-2c-40 -79 -107 -121 -181 -121zM463 708l-142 -144h-31
l127 144h46z" />
    <glyph glyph-name="ucircumflex" unicode="&#xfb;" horiz-adv-x="569" 
d="M219 -13c-99 0 -148 64 -148 156c0 17 2 34 5 53l47 266h36l-48 -269c-3 -16 -5 -32 -5 -47c0 -68 30 -129 120 -129c91 0 173 76 200 232l37 213h36l-62 -350c-5 -28 -13 -84 -15 -112h-35c2 26 10 79 15 108h-2c-40 -79 -107 -121 -181 -121zM335 708h44l76 -144h-33
l-67 125l-114 -125h-38z" />
    <glyph glyph-name="utilde" unicode="&#x169;" horiz-adv-x="569" 
d="M219 -13c-99 0 -148 64 -148 156c0 17 2 34 5 53l47 266h36l-48 -269c-3 -16 -5 -32 -5 -47c0 -68 30 -129 120 -129c91 0 173 76 200 232l37 213h36l-62 -350c-5 -28 -13 -84 -15 -112h-35c2 26 10 79 15 108h-2c-40 -79 -107 -121 -181 -121zM341 644
c29 -19 42 -24 58 -24c26 0 41 18 52 49h25c-15 -49 -45 -79 -82 -79c-35 0 -95 48 -120 48s-41 -20 -52 -51h-25c16 49 45 81 82 81c22 0 37 -8 62 -24z" />
    <glyph glyph-name="udieresis" unicode="&#xfc;" horiz-adv-x="569" 
d="M219 -13c-99 0 -148 64 -148 156c0 17 2 34 5 53l47 266h36l-48 -269c-3 -16 -5 -32 -5 -47c0 -68 30 -129 120 -129c91 0 173 76 200 232l37 213h36l-62 -350c-5 -28 -13 -84 -15 -112h-35c2 26 10 79 15 108h-2c-40 -79 -107 -121 -181 -121zM256 622
c-16 0 -29 11 -29 31c0 19 15 35 33 35c16 0 28 -11 28 -30s-15 -36 -32 -36zM421 622c-17 0 -29 11 -29 31c0 19 14 35 32 35c16 0 29 -11 29 -30s-15 -36 -32 -36z" />
    <glyph glyph-name="umacron" unicode="&#x16b;" horiz-adv-x="569" 
d="M219 -13c-99 0 -148 64 -148 156c0 17 2 34 5 53l47 266h36l-48 -269c-3 -16 -5 -32 -5 -47c0 -68 30 -129 120 -129c91 0 173 76 200 232l37 213h36l-62 -350c-5 -28 -13 -84 -15 -112h-35c2 26 10 79 15 108h-2c-40 -79 -107 -121 -181 -121zM456 615h-244l5 30h244z
" />
    <glyph glyph-name="ubreve" unicode="&#x16d;" horiz-adv-x="569" 
d="M219 -13c-99 0 -148 64 -148 156c0 17 2 34 5 53l47 266h36l-48 -269c-3 -16 -5 -32 -5 -47c0 -68 30 -129 120 -129c91 0 173 76 200 232l37 213h36l-62 -350c-5 -28 -13 -84 -15 -112h-35c2 26 10 79 15 108h-2c-40 -79 -107 -121 -181 -121zM470 701
c-18 -81 -75 -128 -149 -128c-70 0 -115 45 -115 128h26c0 -66 37 -97 90 -97c60 0 105 29 124 97h24z" />
    <glyph glyph-name="uring" unicode="&#x16f;" horiz-adv-x="569" 
d="M219 -13c-99 0 -148 64 -148 156c0 17 2 34 5 53l47 266h36l-48 -269c-3 -16 -5 -32 -5 -47c0 -68 30 -129 120 -129c91 0 173 76 200 232l37 213h36l-62 -350c-5 -28 -13 -84 -15 -112h-35c2 26 10 79 15 108h-2c-40 -79 -107 -121 -181 -121zM410 664
c0 33 -20 61 -61 61c-49 0 -80 -42 -80 -89c0 -33 19 -60 61 -60c48 0 80 41 80 88zM246 634c0 59 41 111 104 111c54 0 83 -34 83 -79c0 -60 -41 -111 -104 -111c-54 0 -83 34 -83 79z" />
    <glyph glyph-name="uhungarumlaut" unicode="&#x171;" horiz-adv-x="569" 
d="M219 -13c-99 0 -148 64 -148 156c0 17 2 34 5 53l47 266h36l-48 -269c-3 -16 -5 -32 -5 -47c0 -68 30 -129 120 -129c91 0 173 76 200 232l37 213h36l-62 -350c-5 -28 -13 -84 -15 -112h-35c2 26 10 79 15 108h-2c-40 -79 -107 -121 -181 -121zM233 564l127 144h47
l-142 -144h-32zM369 564l127 144h48l-143 -144h-32z" />
    <glyph glyph-name="uogonek" unicode="&#x173;" horiz-adv-x="569" 
d="M346 -223c-41 0 -77 21 -77 65c0 56 44 100 117 158h1c2 26 10 79 15 108h-2c-40 -79 -107 -121 -181 -121c-99 0 -150 66 -150 147c0 14 2 32 5 51l49 277h36l-48 -269c-3 -17 -5 -37 -5 -53c0 -65 32 -123 120 -123c92 0 172 76 196 212l41 233h36l-62 -350
c-5 -27 -13 -83 -15 -112h-5c-83 -71 -114 -106 -114 -149c0 -30 22 -45 52 -45c24 0 50 11 68 27l8 -23c-25 -20 -54 -33 -85 -33z" />
    <glyph glyph-name="wcircumflex" unicode="&#x175;" horiz-adv-x="705" 
d="M716 462l-235 -462h-42l-57 418h-2l-227 -418h-42l-42 462h37l33 -420h2l228 420h41l56 -420h2l209 420h39zM414 708h44l76 -144h-33l-67 125l-114 -125h-38z" />
    <glyph glyph-name="wacute" unicode="&#x1e83;" horiz-adv-x="705" 
d="M716 462l-235 -462h-42l-57 418h-2l-227 -418h-42l-42 462h37l33 -420h2l228 420h41l56 -420h2l209 420h39zM567 708l-142 -144h-31l127 144h46z" />
    <glyph glyph-name="wdieresis" unicode="&#x1e85;" horiz-adv-x="705" 
d="M716 462l-235 -462h-42l-57 418h-2l-227 -418h-42l-42 462h37l33 -420h2l228 420h41l56 -420h2l209 420h39zM338 622c-16 0 -29 11 -29 31c0 19 15 35 33 35c16 0 28 -11 28 -30s-15 -36 -32 -36zM503 622c-17 0 -29 11 -29 31c0 19 14 35 32 35c16 0 29 -11 29 -30
s-15 -36 -32 -36z" />
    <glyph glyph-name="wgrave" unicode="&#x1e81;" horiz-adv-x="705" 
d="M716 462l-235 -462h-42l-57 418h-2l-227 -418h-42l-42 462h37l33 -420h2l228 420h41l56 -420h2l209 420h39zM269 708h46l104 -144h-31z" />
    <glyph glyph-name="yacute" unicode="&#xfd;" horiz-adv-x="445" 
d="M-13 -241c-14 0 -33 2 -45 6l6 33c9 -4 25 -7 38 -7c56 0 84 42 109 87l63 113l-97 471h37l85 -431l238 431h41l-342 -604c-35 -62 -71 -99 -133 -99zM419 708l-142 -144h-31l127 144h46z" />
    <glyph glyph-name="ycircumflex" unicode="&#x177;" horiz-adv-x="445" 
d="M-13 -241c-14 0 -33 2 -45 6l6 33c9 -4 25 -7 38 -7c56 0 84 42 109 87l63 113l-97 471h37l85 -431l238 431h41l-342 -604c-35 -62 -71 -99 -133 -99zM283 708h44l76 -144h-33l-67 125l-114 -125h-38z" />
    <glyph glyph-name="ydieresis" unicode="&#xff;" horiz-adv-x="445" 
d="M-13 -241c-14 0 -33 2 -45 6l6 33c9 -4 25 -7 38 -7c56 0 84 42 109 87l63 113l-97 471h37l85 -431l238 431h41l-342 -604c-35 -62 -71 -99 -133 -99zM207 622c-16 0 -29 11 -29 31c0 19 15 35 33 35c16 0 28 -11 28 -30s-15 -36 -32 -36zM372 622c-17 0 -29 11 -29 31
c0 19 14 35 32 35c16 0 29 -11 29 -30s-15 -36 -32 -36z" />
    <glyph glyph-name="ygrave" unicode="&#x1ef3;" horiz-adv-x="445" 
d="M-13 -241c-14 0 -33 2 -45 6l6 33c9 -4 25 -7 38 -7c56 0 84 42 109 87l63 113l-97 471h37l85 -431l238 431h41l-342 -604c-35 -62 -71 -99 -133 -99zM156 708h46l104 -144h-31z" />
    <glyph glyph-name="zacute" unicode="&#x17a;" horiz-adv-x="434" 
d="M347 0h-351l4 29l367 403h-279l5 30h325l-6 -30l-365 -401h305zM399 708l-142 -144h-31l127 144h46z" />
    <glyph glyph-name="zcaron" unicode="&#x17e;" horiz-adv-x="434" 
d="M347 0h-351l4 29l367 403h-279l5 30h325l-6 -30l-365 -401h305zM288 564h-45l-76 144h34l66 -125l115 125h38z" />
    <glyph glyph-name="zdotaccent" unicode="&#x17c;" horiz-adv-x="434" 
d="M347 0h-351l4 29l367 403h-279l5 30h325l-6 -30l-365 -401h305zM280 623c-16 0 -29 10 -29 30c0 18 15 34 32 34c16 0 28 -11 28 -29c0 -19 -14 -35 -31 -35z" />
    <glyph glyph-name="IJ" unicode="&#x132;" horiz-adv-x="725" 
d="M95 0h-37l125 708h37zM618 196c-21 -118 -75 -214 -211 -214c-89 0 -147 54 -161 119l33 13c15 -58 62 -99 128 -99c111 0 155 79 174 185l90 508h37z" />
    <glyph glyph-name="ij" unicode="&#x133;" horiz-adv-x="471" 
d="M90 0h-36l82 462h36zM181 623c-16 0 -29 10 -29 30c0 18 15 34 32 34c16 0 28 -11 28 -29c0 -19 -14 -35 -31 -35zM311 -96c-13 -75 -40 -145 -136 -145c-10 0 -27 2 -37 5l6 30c9 -2 20 -4 30 -4c75 0 91 57 102 116l98 556h36zM418 623c-16 0 -28 10 -28 30
c0 18 14 34 32 34c16 0 28 -11 28 -29c0 -19 -15 -35 -32 -35z" />
    <glyph glyph-name="f_i" unicode="&#xf001;" horiz-adv-x="509" 
d="M311 462l-5 -30h-120l-77 -432h-35l76 432h-98l6 30h96l27 154c18 106 75 152 147 152c18 0 34 -2 48 -6l-8 -30c-12 3 -26 5 -42 5c-70 0 -98 -60 -109 -123l-27 -152h121zM448 462l-82 -462h-36l82 462h36zM489 658c0 -19 -15 -35 -32 -35c-16 0 -29 10 -29 30
c0 18 15 34 32 34c16 0 29 -11 29 -29z" />
    <glyph glyph-name="f_l" unicode="&#xf002;" horiz-adv-x="509" 
d="M311 462l-5 -30h-120l-77 -432h-35l76 432h-98l6 30h96l27 154c18 106 75 152 147 152c18 0 34 -2 48 -6l-8 -30c-12 3 -26 5 -42 5c-70 0 -98 -60 -109 -123l-27 -152h121zM499 756l-133 -756h-36l133 756h36z" />
    <glyph glyph-name="grave.cap" horiz-adv-x="240" 
d="M69 908h46l104 -144h-31z" />
    <glyph glyph-name="acute" unicode="&#xb4;" horiz-adv-x="240" 
d="M291 708l-142 -144h-31l127 144h46z" />
    <glyph glyph-name="acute.cap" horiz-adv-x="240" 
d="M291 908l-142 -144h-31l127 144h46z" />
    <glyph glyph-name="circumflex" unicode="&#x2c6;" horiz-adv-x="240" 
d="M179 708h44l76 -144h-33l-67 125l-114 -125h-38z" />
    <glyph glyph-name="circumflex.cap" horiz-adv-x="240" 
d="M179 908h44l76 -144h-33l-67 125l-114 -125h-38z" />
    <glyph glyph-name="caron" unicode="&#x2c7;" horiz-adv-x="240" 
d="M193 564h-45l-76 144h34l66 -125l115 125h38z" />
    <glyph glyph-name="caron.cap" horiz-adv-x="240" 
d="M193 764h-45l-76 144h34l66 -125l115 125h38z" />
    <glyph glyph-name="caron.alt" horiz-adv-x="240" 
d="M223 708l-101 -187h-29l92 187h38z" />
    <glyph glyph-name="tilde" unicode="&#x2dc;" horiz-adv-x="240" 
d="M191 644c29 -19 42 -24 58 -24c26 0 41 18 52 49h25c-15 -49 -45 -79 -82 -79c-35 0 -95 48 -120 48s-41 -20 -52 -51h-25c16 49 45 81 82 81c22 0 37 -8 62 -24z" />
    <glyph glyph-name="tilde.cap" horiz-adv-x="240" 
d="M191 844c29 -19 42 -24 58 -24c26 0 41 18 52 49h25c-15 -49 -45 -79 -82 -79c-35 0 -95 48 -120 48s-41 -20 -52 -51h-25c16 49 45 81 82 81c22 0 37 -8 62 -24z" />
    <glyph glyph-name="dieresis" unicode="&#xa8;" horiz-adv-x="240" 
d="M106 622c-16 0 -29 11 -29 31c0 19 15 35 33 35c16 0 28 -11 28 -30s-15 -36 -32 -36zM271 622c-17 0 -29 11 -29 31c0 19 14 35 32 35c16 0 29 -11 29 -30s-15 -36 -32 -36z" />
    <glyph glyph-name="dieresis.cap" horiz-adv-x="240" 
d="M106 822c-16 0 -29 11 -29 31c0 19 15 35 33 35c16 0 28 -11 28 -30s-15 -36 -32 -36zM271 822c-17 0 -29 11 -29 31c0 19 14 35 32 35c16 0 29 -11 29 -30s-15 -36 -32 -36z" />
    <glyph glyph-name="macron" unicode="&#xaf;" horiz-adv-x="240" 
d="M306 615h-244l5 30h244z" />
    <glyph glyph-name="macron.cap" horiz-adv-x="240" 
d="M306 815h-244l5 30h244z" />
    <glyph glyph-name="uni02C9" unicode="&#x2c9;" horiz-adv-x="240" 
d="M306 815h-244l5 30h244z" />
    <glyph glyph-name="breve" unicode="&#x2d8;" horiz-adv-x="240" 
d="M332 701c-18 -81 -75 -128 -149 -128c-70 0 -115 45 -115 128h26c0 -66 37 -97 90 -97c60 0 105 29 124 97h24z" />
    <glyph glyph-name="breve.cap" horiz-adv-x="240" 
d="M332 901c-18 -81 -75 -128 -149 -128c-70 0 -115 45 -115 128h26c0 -66 37 -97 90 -97c60 0 105 29 124 97h24z" />
    <glyph glyph-name="ring" unicode="&#x2da;" horiz-adv-x="240" 
d="M263 664c0 33 -20 61 -61 61c-49 0 -80 -42 -80 -89c0 -33 19 -60 61 -60c48 0 80 41 80 88zM99 634c0 59 41 111 104 111c54 0 83 -34 83 -79c0 -60 -41 -111 -104 -111c-54 0 -83 34 -83 79z" />
    <glyph glyph-name="ring.cap" horiz-adv-x="240" 
d="M263 864c0 33 -20 61 -61 61c-49 0 -80 -42 -80 -89c0 -33 19 -60 61 -60c48 0 80 41 80 88zM99 834c0 59 41 111 104 111c54 0 83 -34 83 -79c0 -60 -41 -111 -104 -111c-54 0 -83 34 -83 79z" />
    <glyph glyph-name="hungarumlaut" unicode="&#x2dd;" horiz-adv-x="240" 
d="M62 564l127 144h47l-142 -144h-32zM198 564l127 144h48l-143 -144h-32z" />
    <glyph glyph-name="hungarumlaut.cap" horiz-adv-x="240" 
d="M62 764l127 144h47l-142 -144h-32zM198 764l127 144h48l-143 -144h-32z" />
    <glyph glyph-name="dotaccent" unicode="&#x2d9;" horiz-adv-x="240" 
d="M190 623c-16 0 -29 10 -29 30c0 18 15 34 32 34c16 0 28 -11 28 -29c0 -19 -14 -35 -31 -35z" />
    <glyph glyph-name="dotaccent.cap" horiz-adv-x="240" 
d="M190 823c-16 0 -29 10 -29 30c0 18 15 34 32 34c16 0 28 -11 28 -29c0 -19 -14 -35 -31 -35z" />
    <glyph glyph-name="cedilla" unicode="&#xb8;" horiz-adv-x="240" 
d="M32 -227c-26 0 -68 7 -94 20l11 23c22 -11 57 -17 82 -17c59 0 88 25 88 59c0 32 -29 44 -57 44c-17 0 -49 -5 -65 -13l-11 11l85 100h28l-70 -83c15 5 28 7 45 7c35 0 78 -15 78 -63c0 -63 -57 -88 -120 -88z" />
    <glyph glyph-name="ogonek" unicode="&#x2db;" horiz-adv-x="240" 
d="M121 -167l9 -23c-25 -20 -55 -33 -86 -33c-41 0 -77 21 -77 65c0 56 44 100 117 158h31c-82 -71 -113 -106 -113 -149c0 -30 21 -45 51 -45c24 0 50 11 68 27z" />
    <glyph glyph-name="commaaccent" horiz-adv-x="240" 
d="M170 -45l-101 -187h-29l92 187h38z" />
    <glyph glyph-name="commaaccent.alt" horiz-adv-x="240" 
d="M132 564l102 187h29l-92 -187h-39z" />
    <glyph glyph-name="ellipsis" unicode="&#x2026;" horiz-adv-x="1000" 
d="M123 -6c-16 0 -29 11 -29 30c0 22 16 39 36 39c16 0 29 -13 29 -32c0 -21 -19 -37 -36 -37zM457 -6c-16 0 -28 11 -28 30c0 22 16 39 35 39c17 0 29 -12 29 -30c0 -22 -18 -39 -36 -39zM792 -6c-16 0 -29 11 -29 30c0 22 18 39 36 39c16 0 29 -12 29 -30
c0 -22 -18 -39 -36 -39z" />
    <glyph glyph-name="uni00AD" unicode="&#xad;" horiz-adv-x="306" 
d="M247 235h-194l6 31h194z" />
    <glyph glyph-name="exclamdown" unicode="&#xa1;" horiz-adv-x="277" 
d="M29 -224l91 514h37l-91 -514h-37zM163 490c18 0 31 -11 31 -32c0 -19 -15 -36 -34 -36c-17 0 -31 11 -31 31s16 37 34 37z" />
    <glyph glyph-name="questiondown" unicode="&#xbf;" horiz-adv-x="475" 
d="M218 244l7 43h36l-10 -56c-8 -55 -37 -96 -96 -141l-38 -29c-48 -37 -89 -77 -89 -146c0 -80 56 -121 126 -121c89 0 147 57 171 132l34 -8c-31 -99 -107 -158 -206 -158c-88 0 -162 49 -162 153c0 85 58 139 118 182c75 53 98 81 109 149zM264 490c17 0 30 -11 30 -32
c0 -19 -15 -36 -34 -36c-17 0 -30 11 -30 31s15 37 34 37z" />
    <glyph glyph-name="quoteleft" unicode="&#x2018;" horiz-adv-x="221" 
d="M101 478l110 230h29l-100 -230h-39z" />
    <glyph glyph-name="quoteright" unicode="&#x2019;" horiz-adv-x="221" 
d="M240 708l-109 -230h-30l100 230h39z" />
    <glyph glyph-name="quotedblleft" unicode="&#x201c;" horiz-adv-x="361" 
d="M242 478l109 230h30l-100 -230h-39zM101 478l111 230h29l-101 -230h-39z" />
    <glyph glyph-name="quotedblright" unicode="&#x201d;" horiz-adv-x="361" 
d="M240 708l-109 -230h-30l100 230h39zM381 708l-111 -230h-29l101 230h39z" />
    <glyph glyph-name="quotesinglbase" unicode="&#x201a;" horiz-adv-x="221" 
d="M127 92l-109 -231h-29l100 231h38z" />
    <glyph glyph-name="quotedblbase" unicode="&#x201e;" horiz-adv-x="361" 
d="M127 92l-109 -231h-29l100 231h38zM268 92l-111 -231h-29l101 231h39z" />
    <glyph glyph-name="guilsinglleft" unicode="&#x2039;" horiz-adv-x="315" 
d="M72 239l163 200l22 -19l-147 -184l83 -180l-28 -17z" />
    <glyph glyph-name="guilsinglright" unicode="&#x203a;" horiz-adv-x="315" 
d="M239 238l-163 -200l-23 19l147 184l-82 181l27 17z" />
    <glyph glyph-name="guillemotleft" unicode="&#xab;" horiz-adv-x="486" 
d="M72 239l163 200l22 -19l-147 -184l83 -180l-28 -17zM243 239l163 200l22 -19l-147 -184l83 -180l-28 -17z" />
    <glyph glyph-name="guillemotright" unicode="&#xbb;" horiz-adv-x="486" 
d="M410 239l-163 -200l-22 19l147 184l-83 181l28 17zM239 239l-163 -200l-23 19l147 184l-82 181l27 17z" />
    <glyph glyph-name="endash" unicode="&#x2013;" horiz-adv-x="400" 
d="M369 235h-340l6 31h340z" />
    <glyph glyph-name="emdash" unicode="&#x2014;" horiz-adv-x="600" 
d="M569 235h-540l6 31h540z" />
    <glyph glyph-name="bullet" unicode="&#x2022;" horiz-adv-x="500" 
d="M73 354c0 98 79 177 177 177s177 -79 177 -177s-79 -177 -177 -177s-177 79 -177 177z" />
    <glyph glyph-name="periodcentered" unicode="&#xb7;" horiz-adv-x="246" 
d="M129 239c-18 0 -31 11 -31 32c0 19 15 36 34 36c17 0 31 -12 31 -31c0 -20 -16 -37 -34 -37z" />
    <glyph glyph-name="uni2219" unicode="&#x2219;" horiz-adv-x="246" 
d="M129 239c-18 0 -31 11 -31 32c0 19 15 36 34 36c17 0 31 -12 31 -31c0 -20 -16 -37 -34 -37z" />
    <glyph glyph-name="dagger" unicode="&#x2020;" horiz-adv-x="531" 
d="M520 470h-197l-105 -596h-36l105 596h-199l6 32h198l37 206h36l-37 -206h197z" />
    <glyph glyph-name="daggerdbl" unicode="&#x2021;" horiz-adv-x="531" 
d="M288 473h-196l5 33h196l36 202h36l-36 -202h194l-6 -33h-194l-64 -364h194l-6 -33h-194l-35 -202h-36l36 202h-196l6 33h195z" />
    <glyph glyph-name="section" unicode="&#xa7;" horiz-adv-x="566" 
d="M319 144c43 -24 73 -58 73 -115c0 -113 -89 -164 -193 -164c-73 0 -133 32 -169 78l31 24c32 -46 84 -70 140 -70c79 0 154 36 154 125c0 65 -38 94 -109 122c-110 43 -147 76 -147 149c0 89 72 135 148 152c-47 26 -74 56 -74 113c0 94 79 168 186 168
c68 0 122 -23 152 -66l-29 -22c-27 37 -72 56 -124 56c-79 0 -147 -56 -147 -133c0 -65 40 -90 105 -116c110 -45 149 -77 149 -155c0 -85 -74 -133 -146 -146zM287 165c65 6 141 47 141 122c0 65 -43 94 -103 119l-45 19c-59 -7 -143 -46 -143 -127c0 -68 43 -90 103 -114z
" />
    <glyph glyph-name="paragraph" unicode="&#xb6;" horiz-adv-x="600" 
d="M416 -126h-35l142 806h-146l-142 -806h-35l80 459c-115 0 -183 66 -183 150c0 129 102 225 261 225h205z" />
    <glyph glyph-name="brokenbar" unicode="&#xa6;" horiz-adv-x="222" 
d="M126 338h-30v337h30v-337zM126 -175h-30v337h30v-337z" />
    <glyph glyph-name="copyright" unicode="&#xa9;" horiz-adv-x="800" 
d="M20 353c0 210 171 377 381 377c209 0 379 -167 379 -377c0 -209 -170 -375 -379 -375c-210 0 -381 166 -381 375zM54 353c0 -190 156 -342 347 -342c190 0 345 152 345 342c0 191 -155 344 -345 344c-191 0 -347 -153 -347 -344zM560 515l-28 -22c-27 31 -71 54 -117 54
c-111 0 -183 -90 -183 -194c0 -103 71 -192 183 -192c45 0 91 17 123 53l26 -20c-35 -41 -90 -66 -149 -66c-127 0 -219 94 -219 225s92 226 219 226c56 0 112 -24 145 -64z" />
    <glyph glyph-name="registered" unicode="&#xae;" horiz-adv-x="600" 
d="M442 369h-35l-70 110h-48v-110h-29v253h86c50 0 86 -23 86 -72c0 -41 -31 -64 -65 -68zM403 551c0 37 -30 46 -58 46h-56v-95h44c40 0 70 11 70 49zM112 494c0 126 103 226 229 226c125 0 227 -100 227 -226s-102 -225 -227 -225c-126 0 -229 99 -229 225zM138 494
c0 -110 91 -202 203 -202c111 0 201 92 201 202c0 111 -90 201 -201 201c-112 0 -203 -90 -203 -201z" />
    <glyph glyph-name="trademark" unicode="&#x2122;" horiz-adv-x="1000" 
d="M955 296h-34v377h-2l-160 -377h-21l-157 377h-2v-377h-34v412h54l151 -358l151 358h54v-412zM445 678h-134v-382h-33v382h-134v30h301v-30z" />
    <glyph glyph-name="currency" unicode="&#xa4;" horiz-adv-x="819" 
d="M572 118c-42 -36 -97 -57 -162 -57c-64 0 -119 21 -162 59l-97 -97c-4 5 -19 21 -24 25l96 96c-36 42 -57 99 -57 166c0 64 20 119 54 161c-10 9 -83 82 -93 91c5 4 21 20 25 24l91 -91c43 38 100 61 167 61s124 -22 166 -60l90 90c5 -4 20 -20 25 -24l-90 -90
c35 -42 55 -97 55 -162c0 -67 -22 -125 -59 -168c9 -10 84 -85 94 -94c-5 -4 -19 -20 -24 -25zM618 310c0 117 -80 212 -208 212c-127 0 -207 -95 -207 -212c0 -118 80 -215 207 -215c128 0 208 97 208 215z" />
    <glyph glyph-name="Euro" unicode="&#x20ac;" horiz-adv-x="566" 
d="M585 695l-17 -30c-35 20 -76 29 -124 29c-129 0 -234 -108 -283 -242h321l-15 -30h-316c-12 -38 -24 -92 -25 -136h280l-15 -30h-266c0 -142 80 -242 215 -242c55 0 102 15 145 40l14 -26c-44 -29 -96 -47 -164 -47c-168 0 -247 131 -247 275h-73l17 30h57
c0 26 11 93 24 136h-71l15 30h66c56 161 181 275 323 275c56 0 106 -12 139 -32z" />
    <glyph glyph-name="cent" unicode="&#xa2;" horiz-adv-x="566" 
d="M339 476l12 64h30l-12 -65c56 -4 109 -25 137 -65l-28 -22c-23 34 -68 54 -114 57l-75 -430c56 1 110 24 146 60l21 -22c-44 -43 -105 -69 -172 -69l-11 -56h-30l10 58c-116 12 -175 94 -175 200c0 149 108 283 261 290zM335 445c-128 -8 -220 -127 -220 -256
c0 -88 47 -160 145 -171z" />
    <glyph glyph-name="sterling" unicode="&#xa3;" horiz-adv-x="566" 
d="M237 384h171l-6 -31h-170l-55 -321h258l-6 -32h-402l6 32h107l55 321h-97l6 31h96l22 123c21 121 77 219 209 219c51 0 96 -17 124 -45l-23 -27c-21 23 -58 40 -101 40c-116 0 -156 -94 -173 -191z" />
    <glyph glyph-name="florin" unicode="&#x192;" horiz-adv-x="566" 
d="M571 698l-22 -27c-12 10 -32 17 -51 17c-70 0 -102 -63 -120 -113l-59 -164h115l-5 -29h-121l-141 -392c-26 -73 -64 -132 -150 -132c-24 0 -47 4 -63 16l19 28c15 -8 31 -12 47 -12c68 0 96 55 120 122l131 370h-110l5 29h116l58 164c26 75 68 145 159 145
c30 0 55 -8 72 -22z" />
    <glyph glyph-name="yen" unicode="&#xa5;" horiz-adv-x="566" 
d="M282 347h-183l6 29h174l-164 332h42l151 -321l268 321h47l-286 -332h168l-5 -29h-183l-22 -124h183l-4 -29h-183l-35 -194h-35l34 194h-182l4 29h183z" />
    <glyph glyph-name="ordfeminine" unicode="&#xaa;" horiz-adv-x="350" 
d="M325 495c-3 -22 -6 -48 -6 -64h-25c0 16 2 41 6 61h-2c-21 -43 -61 -68 -109 -68c-37 0 -90 19 -90 75c0 88 104 102 217 102c3 12 4 25 4 32c0 43 -32 61 -73 61c-33 0 -63 -13 -87 -32l-13 22c29 23 68 36 103 36c56 0 99 -28 99 -82c0 -9 -2 -24 -3 -32zM307 553l5 26
h-15c-85 0 -167 -16 -167 -78c0 -42 38 -52 68 -52c65 0 99 54 109 104z" />
    <glyph glyph-name="ordmasculine" unicode="&#xba;" horiz-adv-x="350" 
d="M344 594c0 54 -33 101 -102 101c-79 0 -130 -69 -130 -145c0 -55 32 -101 100 -101c80 0 132 68 132 145zM80 548c0 92 66 173 165 173c83 0 130 -54 130 -125c0 -92 -65 -173 -165 -173c-83 0 -130 54 -130 125z" />
    <glyph glyph-name="fraction" unicode="&#x2044;" horiz-adv-x="100" 
d="M355 721l-576 -749l-23 16l576 749z" />
    <glyph glyph-name="uni2215" unicode="&#x2215;" horiz-adv-x="100" 
d="M355 721l-576 -749l-23 16l576 749z" />
    <glyph glyph-name="onequarter" unicode="&#xbc;" horiz-adv-x="812" 
d="M631 104h-194l5 31l233 289h42l-51 -291h67l-5 -29h-66l-18 -104h-31zM475 133h160l45 250h-3zM711 721l-575 -749l-24 16l576 749zM210 287h-34l67 382l-97 -62l-16 24l124 77h30z" />
    <glyph glyph-name="onehalf" unicode="&#xbd;" horiz-adv-x="812" 
d="M711 721l-575 -749l-24 16l576 749zM210 287h-34l67 382l-97 -62l-16 24l124 77h30zM493 29h220l-6 -29h-261l6 32l183 164c64 57 87 91 87 129c0 53 -35 77 -81 77c-44 0 -81 -24 -103 -74l-30 9c26 63 78 93 135 93c74 0 110 -38 110 -101c0 -55 -25 -89 -101 -157z
" />
    <glyph glyph-name="threequarters" unicode="&#xbe;" horiz-adv-x="812" 
d="M322 408c0 -83 -63 -128 -138 -128c-62 0 -108 30 -126 77l31 10c16 -41 57 -58 95 -58c67 0 107 40 107 98c0 63 -46 89 -101 89h-18l5 28h18c72 0 117 37 117 94c0 52 -36 74 -75 74c-36 0 -65 -18 -86 -45l-23 18c29 37 67 55 112 55c59 0 103 -33 103 -98
c0 -72 -51 -102 -102 -113c48 -10 81 -46 81 -101zM631 104h-194l5 31l233 289h42l-51 -291h67l-5 -29h-66l-18 -104h-31zM711 721l-575 -749l-24 16l576 749zM475 133h160l45 250h-3z" />
    <glyph glyph-name="perthousand" unicode="&#x2030;" horiz-adv-x="1000" 
d="M98 545c0 93 66 171 165 171c84 0 131 -54 131 -125c0 -94 -65 -171 -165 -171c-83 0 -131 54 -131 125zM130 548c0 -55 33 -100 101 -100c79 0 131 65 131 140c0 55 -33 100 -102 100c-78 0 -130 -65 -130 -140zM444 -8c-84 0 -131 54 -131 125c0 93 65 171 165 171
c84 0 130 -54 130 -125c0 -94 -65 -171 -164 -171zM445 20c79 0 132 65 132 140c0 54 -34 100 -102 100c-79 0 -130 -65 -130 -140c0 -55 33 -100 100 -100zM784 -8c-83 0 -130 54 -130 125c0 93 65 171 164 171c84 0 131 -54 131 -125c0 -94 -65 -171 -165 -171zM786 20
c79 0 131 65 131 140c0 54 -33 100 -102 100c-78 0 -130 -65 -130 -140c0 -55 33 -100 101 -100zM651 721l-576 -749l-25 16l576 749z" />
    <glyph glyph-name="minus" unicode="&#x2212;" horiz-adv-x="666" 
d="M573 290h-480v31h480v-31z" />
    <glyph glyph-name="plusminus" unicode="&#xb1;" horiz-adv-x="666" 
d="M578 344h-230v-180h-33v180h-226v32h225v184h34v-184h230v-32zM575 48h-483v32h483v-32z" />
    <glyph glyph-name="multiply" unicode="&#xd7;" horiz-adv-x="666" 
d="M356 306l173 -173l-23 -22l-172 172l-173 -172l-23 22l174 173l-174 174l22 22l174 -173l173 173l22 -22z" />
    <glyph glyph-name="divide" unicode="&#xf7;" horiz-adv-x="666" 
d="M375 468c0 -23 -19 -42 -42 -42s-41 19 -41 42c0 24 18 43 41 43s42 -19 42 -43zM578 287h-489v32h489v-32zM375 138c0 -24 -19 -43 -42 -43s-41 19 -41 43c0 23 17 42 41 42c23 0 42 -19 42 -42z" />
    <glyph glyph-name="notequal" unicode="&#x2260;" horiz-adv-x="666" 
d="M346 358h-252v32h268l74 147l29 -14l-67 -133h174v-32h-191l-73 -145h264v-32h-281l-82 -163l-28 15l76 148h-163v32h179z" />
    <glyph glyph-name="approxequal" unicode="&#x2248;" horiz-adv-x="666" 
d="M50 279c7 59 38 118 119 118c88 0 203 -70 279 -70c66 0 87 41 95 85h26c-6 -58 -39 -118 -122 -118c-84 0 -201 70 -273 70c-68 0 -91 -41 -98 -85h-26zM50 96c7 59 38 119 119 119c88 0 204 -71 279 -71c65 0 87 42 95 86h26c-7 -59 -39 -119 -122 -119
c-85 0 -201 71 -273 71c-68 0 -91 -42 -98 -86h-26z" />
    <glyph glyph-name="lessequal" unicode="&#x2264;" horiz-adv-x="666" 
d="M572 2h-478v32h478v-32zM572 80l-478 213v36l478 213v-34l-444 -197l444 -197v-34z" />
    <glyph glyph-name="greaterequal" unicode="&#x2265;" horiz-adv-x="666" 
d="M94 2v32h478v-32h-478zM94 80v34l444 197l-444 197v34l478 -213v-36z" />
    <glyph glyph-name="logicalnot" unicode="&#xac;" horiz-adv-x="666" 
d="M578 133h-34v237h-455v32h489v-269z" />
    <glyph glyph-name="Delta" unicode="&#x2206;" horiz-adv-x="661" 
d="M631 0h-599l275 712h44zM581 33l-252 645l-250 -645h502z" />
    <glyph glyph-name="Omega" unicode="&#x2126;" horiz-adv-x="740" 
d="M365 688c-150 0 -269 -116 -269 -270c0 -122 63 -229 187 -252v-166h-223v32h194v109c-123 35 -194 150 -194 277c0 174 139 303 305 303c167 0 305 -129 305 -303c0 -127 -70 -242 -194 -277v-109h194v-32h-223v166c124 24 187 129 187 252c0 155 -119 270 -269 270z
" />
    <glyph glyph-name="mu" unicode="&#xb5;" horiz-adv-x="556" 
d="M87 462h36v-270c0 -88 29 -174 139 -174c94 0 170 78 170 211v233h35v-350c0 -31 3 -84 4 -112h-38v107h-2c-29 -74 -101 -120 -175 -120c-66 0 -109 28 -133 68v-283h-36v690z" />
    <glyph glyph-name="degree" unicode="&#xb0;" horiz-adv-x="400" 
d="M402 571c0 -82 -64 -146 -146 -146s-146 64 -146 146s64 146 146 146s146 -64 146 -146zM374 571c0 65 -53 118 -118 118s-117 -53 -117 -118s52 -118 117 -118s118 53 118 118z" />
    <glyph glyph-name="afii61289" unicode="&#x2113;" horiz-adv-x="500" 
d="M263 -14c-50 0 -92 23 -92 83c0 3 0 8 1 12c8 49 19 98 35 171l-74 -67h-2c-4 7 -7 15 -12 22l96 83l61 283c25 102 77 148 132 148c42 0 73 -36 73 -90c0 -106 -104 -234 -234 -352c-20 -93 -40 -157 -40 -205c0 -50 34 -60 63 -60s62 11 98 40h2c3 -7 8 -14 11 -21
c-40 -33 -79 -47 -118 -47zM254 316c74 71 196 205 196 315c0 38 -19 62 -45 62c-35 0 -79 -35 -98 -131l-3 -15c-16 -77 -33 -154 -50 -231z" />
    <glyph glyph-name="estimated" unicode="&#x212e;" horiz-adv-x="605" 
d="M561 259h-404v-181c39 -39 87 -59 145 -59c83 0 143 36 193 120l35 -21c-61 -95 -123 -135 -228 -135c-157 0 -258 122 -258 276c0 155 101 276 258 276c154 0 258 -114 259 -276zM157 295h291v145c-42 40 -91 60 -147 60c-57 0 -105 -21 -144 -60v-145z" />
    <glyph glyph-name="infinity" unicode="&#x221e;" horiz-adv-x="728" 
d="M370 227c-51 -51 -113 -117 -181 -116c-74 0 -126 57 -126 137s51 138 125 138c66 0 134 -66 182 -118c48 52 115 118 181 118c74 0 126 -57 126 -137c0 -81 -51 -138 -125 -138c-66 0 -134 64 -182 116zM390 247c67 -68 112 -106 163 -106c60 0 93 50 93 106
c0 59 -33 109 -94 109c-49 0 -97 -41 -162 -109zM350 247c-65 68 -113 109 -162 109c-60 0 -93 -51 -93 -109c0 -56 33 -106 94 -106c48 0 97 38 161 106z" />
    <glyph glyph-name="partialdiff" unicode="&#x2202;" horiz-adv-x="481" 
d="M222 -15c-110 0 -185 100 -185 221c0 132 78 211 182 211c74 0 141 -43 179 -106c1 26 2 48 2 73c0 177 -70 309 -194 309c-45 0 -76 -15 -111 -42l-18 24c39 33 78 49 127 49c169 0 229 -167 229 -359c0 -263 -87 -380 -211 -380zM223 16c128 0 165 164 171 261
c-40 61 -101 108 -171 108c-100 0 -150 -89 -150 -179c0 -86 50 -190 150 -190z" />
    <glyph glyph-name="integral" unicode="&#x222b;" horiz-adv-x="537" 
d="M162 -207c-26 0 -49 11 -49 35c0 15 12 24 24 24c21 0 25 -33 44 -33c34 0 49 85 49 170c0 0 2 614 4 631c7 72 22 158 99 158c26 0 52 -11 52 -36c0 -16 -12 -25 -25 -25c-22 0 -26 34 -45 34c-37 0 -49 -93 -49 -178c0 0 -2 -612 -4 -629c-7 -70 -27 -151 -100 -151z
" />
    <glyph glyph-name="radical" unicode="&#x221a;" horiz-adv-x="481" 
d="M271 -215h-42l-167 360l-57 -28l-13 29l87 41l166 -361l200 960h35z" />
    <glyph glyph-name="summation" unicode="&#x2211;" horiz-adv-x="596" 
d="M557 -214h-518v32l336 471l-322 464v33h493v-33h-449l324 -464l-338 -470h474v-33z" />
    <glyph glyph-name="product" unicode="&#x220f;" horiz-adv-x="706" 
d="M621 -214h-36v967h-464v-967h-35v1000h535v-1000z" />
    <glyph glyph-name="lozenge" unicode="&#x25ca;" horiz-adv-x="593" 
d="M479 356l-166 -391h-36l-163 391l163 391h36zM442 356l-147 361l-146 -361l146 -361z" />
    <glyph glyph-name="uniF8FF" unicode="&#xf8ff;" horiz-adv-x="512" 
d="M278 117h-56v67h56v-67zM271 234h-46l-2 17c0 75 13 95 59 140c43 42 50 57 50 83c0 48 -35 85 -76 85s-74 -27 -82 -95l-50 8c9 95 63 137 135 137c71 0 124 -52 124 -131c0 -42 -12 -74 -63 -120s-49 -52 -49 -124zM50 50h412v617h-412v-617zM0 718h512v-718h-512v718z
" />
    <glyph glyph-name="uni03A9" unicode="&#x3a9;" horiz-adv-x="740" 
d="M365 688c-150 0 -269 -116 -269 -270c0 -122 63 -229 187 -252v-166h-223v32h194v109c-123 35 -194 150 -194 277c0 174 139 303 305 303c167 0 305 -129 305 -303c0 -127 -70 -242 -194 -277v-109h194v-32h-223v166c124 24 187 129 187 252c0 155 -119 270 -269 270z
" />
    <glyph glyph-name="uni03BC" unicode="&#x3bc;" horiz-adv-x="556" 
d="M87 462h36v-270c0 -88 29 -174 139 -174c94 0 170 78 170 211v233h35v-350c0 -31 3 -84 4 -112h-38v107h-2c-29 -74 -101 -120 -175 -120c-66 0 -109 28 -133 68v-283h-36v690z" />
    <glyph glyph-name="pi" unicode="&#x3c0;" horiz-adv-x="558" 
d="M513 7c-17 -8 -35 -12 -53 -12c-62 0 -63 42 -63 105v330h-252v-430h-35v430h-70v32h468v-32h-76v-341c0 -42 7 -65 46 -65c10 0 24 2 35 6v-23z" />
    <glyph glyph-name="uni0394" unicode="&#x394;" horiz-adv-x="661" 
d="M631 0h-599l275 712h44zM581 33l-252 645l-250 -645h502z" />
    <glyph glyph-name="zero.denominator" 
d="M204 430c80 0 108 -68 108 -142c0 -125 -51 -298 -175 -298c-81 0 -109 67 -109 141c0 127 52 299 176 299zM202 401c-88 0 -140 -138 -140 -267c0 -58 17 -115 77 -115c88 0 139 137 139 266c0 61 -16 116 -76 116z" />
    <glyph glyph-name="one.denominator" 
d="M154 0h-33l67 382l-97 -62l-16 24l124 77h30z" />
    <glyph glyph-name="two.denominator" 
d="M266 0h-261l5 32l183 165c67 61 87 92 87 131c0 48 -33 74 -80 74c-44 0 -81 -24 -103 -74l-30 9c26 63 78 93 135 93c71 0 110 -39 110 -101c0 -53 -27 -87 -105 -157l-158 -143h223z" />
    <glyph glyph-name="three.denominator" 
d="M134 -10c-62 0 -108 31 -126 77l31 10c15 -41 57 -58 95 -58c61 0 105 38 105 99s-44 88 -100 88h-17l5 28h18c73 0 116 42 116 94s-35 74 -75 74c-35 0 -65 -18 -85 -45l-24 18c29 37 67 55 113 55c59 0 103 -34 103 -98c0 -67 -49 -103 -101 -111v-2
c48 -9 79 -45 79 -100c0 -83 -63 -129 -137 -129z" />
    <glyph glyph-name="four.denominator" 
d="M292 104h-66l-19 -104h-31l19 104h-194l6 31l232 285h42l-51 -287h67zM200 133l43 246h-3l-201 -246h161z" />
    <glyph glyph-name="five.denominator" 
d="M284 147c0 -86 -56 -157 -152 -157c-58 0 -98 28 -119 68l28 16c17 -33 50 -55 91 -55c72 0 119 56 119 125c0 53 -36 93 -94 93c-30 0 -60 -10 -89 -27l41 210h197l-6 -29h-165l-27 -137c18 7 37 10 53 10c75 0 123 -49 123 -117z" />
    <glyph glyph-name="six.denominator" 
d="M290 141c0 -83 -60 -151 -149 -151c-69 0 -117 48 -117 116c0 42 18 78 57 129l143 185h40l-143 -181l1 -1c17 10 35 15 55 15c66 0 113 -44 113 -112zM258 139c0 49 -34 86 -85 86c-69 0 -117 -57 -117 -119c0 -47 33 -87 86 -87c69 0 116 55 116 120z" />
    <glyph glyph-name="seven.denominator" 
d="M82 0h-38l245 391h-204l5 29h239l-5 -29z" />
    <glyph glyph-name="eight.denominator" 
d="M305 329c0 -53 -38 -90 -83 -105v-1c34 -13 64 -47 64 -93c0 -93 -76 -140 -148 -140c-61 0 -118 35 -118 107c0 62 41 112 104 130v1c-36 14 -52 49 -52 80c0 69 56 122 125 122c61 0 108 -34 108 -101zM174 238c60 0 99 44 99 88c0 48 -33 76 -77 76
c-54 0 -93 -43 -93 -94c0 -39 28 -70 71 -70zM139 19c69 0 115 48 115 111c0 46 -36 81 -85 81c-65 0 -117 -50 -117 -112c0 -48 38 -80 87 -80z" />
    <glyph glyph-name="nine.denominator" 
d="M119 0h-40l144 183l-1 1c-17 -10 -36 -16 -56 -16c-65 0 -112 45 -112 113c0 83 60 149 148 149c69 0 117 -47 117 -116c0 -41 -18 -79 -56 -128zM287 315c0 46 -32 86 -86 86c-69 0 -115 -53 -115 -118c0 -49 33 -86 85 -86c69 0 116 56 116 118z" />
    <glyph glyph-name="zero.inferior" unicode="&#x2080;" 
d="M180 293c80 0 108 -68 108 -142c0 -125 -51 -298 -175 -298c-81 0 -109 67 -109 141c0 127 52 299 176 299zM178 264c-88 0 -140 -138 -140 -267c0 -58 17 -115 77 -115c88 0 139 137 139 266c0 61 -16 116 -76 116z" />
    <glyph glyph-name="one.inferior" unicode="&#x2081;" 
d="M130 -137h-33l67 382l-97 -62l-16 24l123 76h30z" />
    <glyph glyph-name="two.inferior" unicode="&#x2082;" 
d="M242 -137h-261l5 32l182 164c68 61 87 93 87 131c0 49 -32 74 -79 74c-45 0 -82 -23 -103 -73l-31 9c26 63 79 93 135 93c72 0 110 -40 110 -101c0 -55 -26 -87 -104 -157l-159 -143h223z" />
    <glyph glyph-name="three.inferior" unicode="&#x2083;" 
d="M110 -147c-63 0 -108 30 -127 77l31 10c16 -41 57 -58 95 -58c61 0 105 38 105 98c0 62 -44 89 -99 89h-18l6 28h17c73 0 116 41 116 94c0 52 -34 74 -74 74c-35 0 -65 -18 -85 -45l-24 18c29 37 67 55 112 55c59 0 104 -35 104 -98c0 -67 -49 -103 -102 -112v-1
c48 -10 80 -46 80 -100c0 -83 -63 -129 -137 -129z" />
    <glyph glyph-name="four.inferior" unicode="&#x2084;" 
d="M268 -33h-66l-19 -104h-31l19 104h-194l6 31l232 285h42l-51 -287h67zM176 -4l43 246h-3l-201 -246h161z" />
    <glyph glyph-name="five.inferior" unicode="&#x2085;" 
d="M260 10c0 -86 -56 -157 -152 -157c-58 0 -98 28 -119 68l28 16c17 -33 50 -55 91 -55c72 0 119 56 119 125c0 53 -36 93 -94 93c-30 0 -60 -10 -89 -27l41 210h197l-6 -29h-165l-27 -137c18 7 37 10 53 10c75 0 123 -49 123 -117z" />
    <glyph glyph-name="six.inferior" unicode="&#x2086;" 
d="M266 4c0 -83 -60 -151 -149 -151c-69 0 -117 48 -117 116c0 42 18 78 57 129l143 185h40l-143 -181l1 -1c17 10 35 15 55 15c66 0 113 -44 113 -112zM234 2c0 49 -34 86 -85 86c-69 0 -117 -57 -117 -119c0 -47 33 -87 86 -87c69 0 116 55 116 120z" />
    <glyph glyph-name="seven.inferior" unicode="&#x2087;" 
d="M58 -137h-38l245 391h-204l5 29h239l-5 -29z" />
    <glyph glyph-name="eight.inferior" unicode="&#x2088;" 
d="M281 192c0 -53 -38 -90 -83 -105v-1c34 -13 64 -47 64 -93c0 -93 -76 -140 -148 -140c-61 0 -118 35 -118 107c0 62 41 112 104 130v1c-36 14 -52 49 -52 80c0 69 56 122 125 122c61 0 108 -34 108 -101zM150 101c60 0 99 44 99 88c0 48 -33 76 -77 76
c-54 0 -93 -43 -93 -94c0 -39 28 -70 71 -70zM115 -118c69 0 115 48 115 111c0 46 -36 81 -85 81c-65 0 -117 -50 -117 -112c0 -48 38 -80 87 -80z" />
    <glyph glyph-name="nine.inferior" unicode="&#x2089;" 
d="M95 -137h-40l144 183l-1 1c-17 -10 -36 -16 -56 -16c-65 0 -112 45 -112 113c0 83 60 149 148 149c69 0 117 -47 117 -116c0 -41 -18 -79 -56 -128zM263 178c0 46 -32 86 -86 86c-69 0 -115 -53 -115 -118c0 -49 33 -86 85 -86c69 0 116 56 116 118z" />
    <glyph glyph-name="zero.numerator" 
d="M255 718c80 0 108 -68 108 -142c0 -125 -51 -298 -175 -298c-81 0 -109 67 -109 141c0 127 52 299 176 299zM253 689c-88 0 -140 -138 -140 -267c0 -58 17 -115 77 -115c88 0 139 137 139 266c0 61 -16 116 -76 116z" />
    <glyph glyph-name="one.numerator" 
d="M205 287h-33l67 382l-97 -62l-16 24l124 77h29z" />
    <glyph glyph-name="two.numerator" 
d="M317 287h-261l5 33l182 164c68 61 87 92 87 131c0 49 -32 74 -79 74c-45 0 -81 -23 -103 -73l-30 9c25 63 78 93 134 93c72 0 111 -40 111 -101c0 -54 -27 -88 -105 -158l-159 -142h223z" />
    <glyph glyph-name="three.numerator" 
d="M185 278c-63 0 -108 30 -126 76l31 11c15 -41 57 -58 94 -58c62 0 106 37 106 98c0 62 -45 89 -100 89h-18l6 28h17c73 0 117 41 117 94c0 51 -35 74 -75 74c-35 0 -65 -18 -85 -46l-24 18c29 37 67 56 113 56c59 0 103 -35 103 -99c0 -66 -49 -103 -102 -111v-1
c49 -10 80 -46 80 -101c0 -82 -63 -128 -137 -128z" />
    <glyph glyph-name="four.numerator" 
d="M343 392h-66l-19 -104h-31l19 104h-194l6 31l232 285h42l-51 -287h67zM251 421l43 246h-3l-201 -246h161z" />
    <glyph glyph-name="five.numerator" 
d="M335 435c0 -86 -56 -157 -152 -157c-58 0 -98 28 -119 68l28 16c17 -33 50 -55 91 -55c72 0 119 56 119 125c0 53 -36 93 -94 93c-30 0 -60 -10 -89 -27l41 210h197l-6 -29h-165l-27 -137c18 7 37 10 53 10c75 0 123 -49 123 -117z" />
    <glyph glyph-name="six.numerator" 
d="M341 429c0 -83 -60 -151 -149 -151c-69 0 -117 48 -117 116c0 42 18 78 57 129l143 185h40l-143 -181l1 -1c17 10 35 15 55 15c66 0 113 -44 113 -112zM309 427c0 49 -34 86 -85 86c-69 0 -117 -57 -117 -119c0 -47 33 -87 86 -87c69 0 116 55 116 120z" />
    <glyph glyph-name="seven.numerator" 
d="M133 288h-38l245 391h-204l5 29h239l-5 -29z" />
    <glyph glyph-name="eight.numerator" 
d="M356 617c0 -53 -38 -90 -83 -105v-1c34 -13 64 -47 64 -93c0 -93 -76 -140 -148 -140c-61 0 -118 35 -118 107c0 62 41 112 104 130v1c-36 14 -52 49 -52 80c0 69 56 122 125 122c61 0 108 -34 108 -101zM225 526c60 0 99 44 99 88c0 48 -33 76 -77 76
c-54 0 -93 -43 -93 -94c0 -39 28 -70 71 -70zM190 307c69 0 115 48 115 111c0 46 -36 81 -85 81c-65 0 -117 -50 -117 -112c0 -48 38 -80 87 -80z" />
    <glyph glyph-name="nine.numerator" 
d="M170 288h-40l144 183l-1 1c-17 -10 -36 -16 -56 -16c-65 0 -112 45 -112 113c0 83 60 149 148 149c69 0 117 -47 117 -116c0 -41 -18 -79 -56 -128zM338 603c0 46 -32 86 -86 86c-69 0 -115 -53 -115 -118c0 -49 33 -86 85 -86c69 0 116 56 116 118z" />
    <glyph glyph-name="zero.superior" unicode="&#x2070;" 
d="M284 883c80 0 108 -68 108 -142c0 -125 -51 -298 -175 -298c-81 0 -109 67 -109 141c0 127 52 299 176 299zM282 854c-88 0 -140 -138 -140 -267c0 -58 17 -115 77 -115c88 0 139 137 139 266c0 61 -16 116 -76 116z" />
    <glyph glyph-name="onesuperior" unicode="&#xb9;" 
d="M210 453h-34l67 382l-97 -62l-16 24l124 77h30z" />
    <glyph glyph-name="twosuperior" unicode="&#xb2;" 
d="M99 482h223l-5 -29h-261l5 32l183 164c66 59 87 92 87 129c0 53 -34 76 -80 76c-45 0 -82 -23 -103 -73l-30 9c25 63 78 93 134 93c74 0 110 -39 110 -101c0 -55 -28 -89 -104 -157z" />
    <glyph glyph-name="threesuperior" unicode="&#xb3;" 
d="M184 443c-62 0 -108 30 -126 77l31 10c16 -41 57 -58 95 -58c67 0 107 40 107 98c0 63 -46 89 -101 89h-18l5 28h18c72 0 117 37 117 94c0 52 -36 74 -75 74c-36 0 -65 -18 -86 -45l-23 18c29 37 67 55 112 55c59 0 103 -33 103 -98c0 -70 -50 -103 -102 -112v-1
c48 -10 81 -46 81 -101c0 -83 -63 -128 -138 -128z" />
    <glyph glyph-name="four.superior" unicode="&#x2074;" 
d="M372 557h-66l-19 -104h-31l19 104h-194l6 31l232 285h42l-51 -287h67zM280 586l43 246h-3l-201 -246h161z" />
    <glyph glyph-name="five.superior" unicode="&#x2075;" 
d="M364 600c0 -86 -56 -157 -152 -157c-58 0 -98 28 -119 68l28 16c17 -33 50 -55 91 -55c72 0 119 56 119 125c0 53 -36 93 -94 93c-30 0 -60 -10 -89 -27l41 210h197l-6 -29h-165l-27 -137c18 7 37 10 53 10c75 0 123 -49 123 -117z" />
    <glyph glyph-name="six.superior" unicode="&#x2076;" 
d="M370 594c0 -83 -60 -151 -149 -151c-69 0 -117 48 -117 116c0 42 18 78 57 129l143 185h40l-143 -181l1 -1c17 10 35 15 55 15c66 0 113 -44 113 -112zM338 592c0 49 -34 86 -85 86c-69 0 -117 -57 -117 -119c0 -47 33 -87 86 -87c69 0 116 55 116 120z" />
    <glyph glyph-name="seven.superior" unicode="&#x2077;" 
d="M162 453h-38l245 391h-204l5 29h239l-5 -29z" />
    <glyph glyph-name="eight.superior" unicode="&#x2078;" 
d="M385 782c0 -53 -38 -90 -83 -105v-1c34 -13 64 -47 64 -93c0 -93 -76 -140 -148 -140c-61 0 -118 35 -118 107c0 62 41 112 104 130v1c-36 14 -52 49 -52 80c0 69 56 122 125 122c61 0 108 -34 108 -101zM254 691c60 0 99 44 99 88c0 48 -33 76 -77 76
c-54 0 -93 -43 -93 -94c0 -39 28 -70 71 -70zM219 472c69 0 115 48 115 111c0 46 -36 81 -85 81c-65 0 -117 -50 -117 -112c0 -48 38 -80 87 -80z" />
    <glyph glyph-name="nine.superior" unicode="&#x2079;" 
d="M199 453h-40l144 183l-1 1c-17 -10 -36 -16 -56 -16c-65 0 -112 45 -112 113c0 83 60 149 148 149c69 0 117 -47 117 -116c0 -41 -18 -79 -56 -128zM367 768c0 46 -32 86 -86 86c-69 0 -115 -53 -115 -118c0 -49 33 -86 85 -86c69 0 116 56 116 118z" />
    <glyph glyph-name="interrobang" unicode="&#x203d;" horiz-adv-x="475" 
d="M207 198l62 354h37l-38 -206h1c12 15 22 27 46 46l35 27c56 43 90 87 91 151c0 80 -56 121 -127 121c-92 0 -148 -58 -172 -133l-33 8c31 99 107 158 205 158c89 0 163 -49 163 -153c0 -87 -57 -139 -118 -183c-77 -56 -96 -84 -107 -142l-9 -48h-36zM238 31
c0 -20 -16 -37 -34 -37c-17 0 -31 11 -31 32c0 20 16 37 35 37c17 0 30 -12 30 -32z" />
    <glyph glyph-name="afii61248" unicode="&#x2105;" horiz-adv-x="808" 
d="M232 393c-92 0 -140 57 -140 134c0 103 76 194 184 194c43 0 84 -17 107 -49l-24 -20c-19 26 -52 40 -84 40c-86 0 -148 -77 -148 -162c0 -61 35 -107 107 -107c36 0 72 16 97 40l21 -20c-32 -31 -74 -50 -120 -50zM144 -28l-25 16l575 749l25 -16zM750 177
c0 -102 -72 -189 -181 -189c-94 0 -145 58 -145 137c0 102 71 190 181 190c92 0 145 -58 145 -138zM716 176c0 61 -37 110 -113 110c-88 0 -145 -75 -145 -159c0 -61 36 -110 112 -110c88 0 146 74 146 159z" />
    <glyph glyph-name="published" unicode="&#x2117;" horiz-adv-x="800" 
d="M20 353c0 210 171 377 381 377c209 0 379 -167 379 -377c0 -209 -170 -375 -379 -375c-210 0 -381 166 -381 375zM54 353c0 -190 156 -342 347 -342c190 0 345 152 345 342c0 191 -155 344 -345 344c-191 0 -347 -153 -347 -344zM292 128v439h148c83 0 152 -39 152 -131
c0 -83 -60 -136 -147 -136h-118v-172h-35zM327 332h118c65 0 111 37 111 104c0 68 -52 100 -114 100h-115v-204z" />
    <glyph glyph-name="uni0406" unicode="&#x406;" horiz-adv-x="242" 
d="M58 0l125 708h37l-125 -708h-37z" />
    <glyph glyph-name="uni0456" unicode="&#x456;" horiz-adv-x="233" 
d="M54 0l82 462h36l-82 -462h-36zM181 623c-16 0 -29 10 -29 30c0 18 15 34 32 34c16 0 28 -11 28 -29c0 -19 -14 -35 -31 -35z" />
    <glyph glyph-name="uni0408" unicode="&#x408;" horiz-adv-x="481" 
d="M163 -18c-90 0 -148 54 -162 119l33 13c15 -58 62 -99 129 -99c110 0 155 79 174 185l89 508h37l-90 -512c-21 -118 -75 -214 -210 -214z" />
    <glyph glyph-name="uni0458" unicode="&#x458;" horiz-adv-x="234" 
d="M-63 -241c-10 0 -26 2 -37 5l6 30c10 -2 21 -4 30 -4c73 0 93 60 103 119l97 553h36l-98 -558c-13 -75 -41 -145 -137 -145zM181 623c-16 0 -29 10 -29 30c0 18 15 34 32 34c16 0 28 -11 28 -29c0 -19 -14 -35 -31 -35z" />
    <glyph glyph-name="uni0410" unicode="&#x410;" horiz-adv-x="652" 
d="M-41 0l455 708h44l133 -708h-38l-37 198h-388l-125 -198h-44zM149 231h361l-80 442z" />
    <glyph glyph-name="uni0411" unicode="&#x411;" horiz-adv-x="603" 
d="M58 0l125 708h389l-6 -34h-352l-51 -285h159c113 0 212 -49 212 -171c0 -125 -91 -218 -266 -218h-210zM101 33h174c141 0 220 72 220 183c0 102 -82 140 -170 140h-168z" />
    <glyph glyph-name="uni0412" unicode="&#x412;" horiz-adv-x="610" 
d="M58 0l125 708h188c99 0 199 -44 199 -153c0 -97 -61 -161 -169 -182v-2c68 -9 142 -62 142 -158c0 -146 -122 -213 -275 -213h-210zM101 33h164c144 0 241 60 241 179c0 96 -83 144 -172 144h-176zM163 388h157c115 0 212 50 212 161c0 87 -78 126 -170 126h-148z" />
    <glyph glyph-name="uni0413" unicode="&#x413;" horiz-adv-x="484" 
d="M58 0l125 708h373l-6 -33h-337l-118 -675h-37z" />
    <glyph glyph-name="uni0414" unicode="&#x414;" horiz-adv-x="725" 
d="M-55 -182l37 215h55c102 86 175 234 218 477l35 198h400l-119 -675h81l-37 -215h-36l32 182h-599l-32 -182h-35zM86 33h448l113 642h-326l-29 -165c-45 -253 -126 -400 -206 -477z" />
    <glyph glyph-name="uni0415" unicode="&#x415;" horiz-adv-x="577" 
d="M58 0l125 708h403l-6 -33h-367l-51 -291h352l-6 -33h-352l-55 -318h395l-6 -33h-432z" />
    <glyph glyph-name="uni0416" unicode="&#x416;" horiz-adv-x="842" 
d="M-60 0l447 386l-264 322h48l260 -321l58 321h36l-57 -321l376 321h54l-386 -327l295 -381h-48l-291 380l-67 -380h-37l66 380l-436 -380h-54z" />
    <glyph glyph-name="uni0417" unicode="&#x417;" horiz-adv-x="567" 
d="M228 -19c-97 3 -178 44 -214 104l32 21c30 -54 105 -92 189 -92c111 0 212 68 212 195c0 82 -74 147 -178 147h-53l6 33h53c103 0 204 51 204 171c0 74 -58 133 -155 133c-77 0 -129 -29 -167 -74l-26 24c43 47 105 83 194 83c117 0 191 -66 191 -166
c0 -103 -79 -174 -166 -189v-2c76 -14 134 -78 134 -158c0 -151 -119 -230 -256 -230z" />
    <glyph glyph-name="uni0418" unicode="&#x418;" horiz-adv-x="734" 
d="M58 0l125 708h36l-115 -652h3l558 652h47l-125 -708h-37l115 654h-2l-559 -654h-46z" />
    <glyph glyph-name="uni0419" unicode="&#x419;" horiz-adv-x="734" 
d="M58 0l125 708h36l-115 -652h3l558 652h47l-125 -708h-37l115 654h-2l-559 -654h-46zM449 773c-69 0 -113 44 -115 122l26 5c1 -62 38 -96 90 -96c57 0 100 29 122 96l24 -5c-20 -79 -74 -122 -147 -122z" />
    <glyph glyph-name="uni041A" unicode="&#x41a;" horiz-adv-x="546" 
d="M58 0l125 708h36l-56 -321l385 321h54l-396 -327l305 -381h-48l-301 380l-67 -380h-37z" />
    <glyph glyph-name="uni041B" unicode="&#x41b;" horiz-adv-x="743" 
d="M29 -7c-13 0 -33 2 -49 6l9 34c14 -4 27 -6 38 -6c143 0 213 179 273 522l28 159h394l-124 -708h-38l119 675h-320l-24 -137c-62 -356 -138 -545 -306 -545z" />
    <glyph glyph-name="uni041C" unicode="&#x41c;" horiz-adv-x="896" 
d="M58 0l125 708h57l173 -648l399 648h62l-125 -708h-37l116 661h-3l-410 -661h-24l-177 661h-3l-116 -661h-37z" />
    <glyph glyph-name="uni041D" unicode="&#x41d;" horiz-adv-x="716" 
d="M58 0l125 708h37l-58 -325h437l58 325h37l-125 -708h-37l62 350h-437l-62 -350h-37z" />
    <glyph glyph-name="uni041E" unicode="&#x41e;" horiz-adv-x="860" 
d="M398 -19c-205 0 -318 131 -318 311c0 232 166 435 408 435c204 0 317 -132 317 -312c0 -232 -164 -434 -407 -434zM399 14c220 0 367 191 367 399c0 156 -91 281 -279 281c-221 0 -368 -194 -368 -400c0 -156 91 -280 280 -280z" />
    <glyph glyph-name="uni041F" unicode="&#x41f;" horiz-adv-x="710" 
d="M58 0l125 708h505l-125 -708h-37l119 675h-432l-118 -675h-37z" />
    <glyph glyph-name="uni0420" unicode="&#x420;" horiz-adv-x="566" 
d="M58 0l125 708h182c107 0 199 -46 199 -161c0 -117 -84 -206 -250 -206h-159l-60 -341h-37zM161 373h158c133 0 208 67 208 172c0 96 -78 130 -160 130h-153z" />
    <glyph glyph-name="uni0421" unicode="&#x421;" horiz-adv-x="723" 
d="M626 108l23 -24c-65 -64 -152 -103 -253 -103c-206 0 -316 128 -316 306c0 235 180 440 418 440c93 0 180 -36 225 -99l-29 -23c-44 57 -115 89 -198 89c-218 0 -377 -195 -377 -402c0 -154 88 -278 278 -278c83 0 165 31 229 94z" />
    <glyph glyph-name="uni0422" unicode="&#x422;" horiz-adv-x="525" 
d="M198 0l118 675h-242l6 33h517l-6 -33h-237l-119 -675h-37z" />
    <glyph glyph-name="uni0423" unicode="&#x423;" horiz-adv-x="592" 
d="M276 220l-187 488h41l172 -452l326 452h44l-446 -617c-46 -64 -91 -98 -156 -98c-14 0 -34 3 -46 6l6 36c9 -4 28 -8 43 -8c48 0 82 27 121 80z" />
    <glyph glyph-name="uni0424" unicode="&#x424;" horiz-adv-x="795" 
d="M330 -19l15 87c-153 10 -272 102 -272 260c0 212 156 331 369 334h8l11 65h37l-12 -66c155 -10 272 -104 272 -259c0 -212 -157 -332 -370 -335h-7l-15 -86h-36zM351 101l93 529h-5c-187 -3 -327 -110 -327 -301c0 -132 101 -218 239 -228zM389 100
c186 2 330 109 330 301c0 130 -101 218 -239 229z" />
    <glyph glyph-name="uni0425" unicode="&#x425;" horiz-adv-x="585" 
d="M-33 0l322 371l-167 337h43l150 -309l264 309h48l-293 -339l184 -369h-44l-166 341l-291 -341h-50z" />
    <glyph glyph-name="uni0426" unicode="&#x426;" horiz-adv-x="723" 
d="M576 -182l33 182h-551l125 708h36l-118 -675h431l119 675h37l-119 -675h81l-38 -215h-36z" />
    <glyph glyph-name="uni0427" unicode="&#x427;" horiz-adv-x="607" 
d="M423 0l55 311c-40 -11 -104 -23 -180 -23c-106 0 -178 41 -178 142c0 14 1 29 4 45l41 233h37l-42 -241c-2 -11 -3 -21 -3 -31c0 -73 52 -115 141 -115c84 0 148 12 186 24l64 363h37l-125 -708h-37z" />
    <glyph glyph-name="uni0428" unicode="&#x428;" horiz-adv-x="1057" 
d="M58 0l125 708h36l-118 -675h371l119 675h36l-118 -675h371l118 675h37l-125 -708h-852z" />
    <glyph glyph-name="uni0429" unicode="&#x429;" horiz-adv-x="1070" 
d="M924 -182l32 182h-898l125 708h36l-118 -675h371l119 675h36l-119 -675h371l119 675h37l-118 -675h81l-38 -215h-36z" />
    <glyph glyph-name="uni042A" unicode="&#x42a;" horiz-adv-x="672" 
d="M148 0l119 675h-193l5 33h231l-56 -319h145c113 0 212 -49 212 -171c0 -125 -91 -218 -267 -218h-196zM191 33h161c140 0 220 72 220 183c0 102 -82 140 -170 140h-135z" />
    <glyph glyph-name="uni042B" unicode="&#x42b;" horiz-adv-x="782" 
d="M58 0l125 708h36l-56 -319h146c113 0 211 -49 211 -171c0 -125 -90 -218 -266 -218h-196zM101 33h160c141 0 221 72 221 183c0 102 -82 140 -170 140h-154zM598 0l124 708h38l-125 -708h-37z" />
    <glyph glyph-name="uni042C" unicode="&#x42c;" horiz-adv-x="582" 
d="M58 0l125 708h36l-56 -319h146c113 0 211 -49 211 -171c0 -125 -90 -218 -266 -218h-196zM101 33h160c141 0 221 72 221 183c0 102 -82 140 -170 140h-154z" />
    <glyph glyph-name="uni042D" unicode="&#x42d;" horiz-adv-x="723" 
d="M265 -19c-98 0 -197 34 -242 97l29 24c39 -55 126 -88 213 -88c194 0 336 158 358 337h-390l5 33h390v34c-3 154 -94 276 -277 276c-83 0 -165 -31 -230 -94l-23 24c65 64 152 103 253 103c207 0 316 -132 316 -319c0 -228 -168 -427 -402 -427z" />
    <glyph glyph-name="uni042E" unicode="&#x42e;" horiz-adv-x="1039" 
d="M603 -18c-187 0 -284 126 -284 293c0 25 2 50 5 75h-168l-62 -350h-36l125 708h36l-57 -325h168c38 185 173 343 369 343c188 0 284 -127 284 -294c0 -228 -144 -450 -380 -450zM604 15c206 0 341 202 341 414c0 143 -77 264 -247 264c-206 0 -341 -205 -341 -415
c0 -143 77 -263 247 -263z" />
    <glyph glyph-name="uni042F" unicode="&#x42f;" horiz-adv-x="593" 
d="M13 0l265 322c-93 12 -170 60 -170 168c0 125 90 218 266 218h197l-125 -708h-37l56 319h-146l-260 -319h-46zM316 352h155l57 323h-162c-140 0 -220 -72 -220 -183c0 -102 82 -140 170 -140z" />
    <glyph glyph-name="uni0430" unicode="&#x430;" horiz-adv-x="519" 
d="M435 289l-34 -185c-6 -35 -10 -79 -10 -104h-33c0 25 5 67 11 99h-3c-40 -73 -102 -111 -182 -111c-61 0 -145 28 -145 119c0 143 170 168 359 168c5 25 7 47 7 58c0 77 -47 112 -124 112c-54 0 -99 -20 -144 -52l-18 23c47 38 109 60 165 60c94 0 156 -47 156 -137
c0 -13 -3 -37 -5 -50zM386 211l7 35h-25c-158 0 -293 -27 -293 -134c0 -74 63 -94 116 -94c114 0 176 98 195 193z" />
    <glyph glyph-name="uni0431" unicode="&#x431;" horiz-adv-x="604" 
d="M273 -13c-147 0 -213 94 -213 210c0 19 1 40 5 61c37 226 83 420 274 443l165 20c35 4 70 13 84 44l27 -9c-17 -38 -42 -57 -107 -65l-160 -20c-143 -18 -201 -146 -230 -317h3c39 69 116 122 212 122c132 0 206 -89 206 -208c0 -147 -105 -281 -266 -281zM273 17
c138 0 229 121 229 253c0 97 -62 175 -175 175c-125 0 -230 -119 -230 -256c0 -88 56 -172 176 -172z" />
    <glyph glyph-name="uni0432" unicode="&#x432;" horiz-adv-x="524" 
d="M54 0l81 462h192c64 0 130 -28 130 -99c0 -64 -40 -105 -110 -119v-1c44 -7 93 -41 93 -104c0 -95 -81 -139 -181 -139h-205zM95 32h163c87 0 145 36 145 108c0 58 -50 87 -103 87h-165zM135 258h158c68 0 128 30 128 97c0 52 -48 76 -103 76h-152z" />
    <glyph glyph-name="uni0433" unicode="&#x433;" horiz-adv-x="410" 
d="M54 0l81 462h282l-6 -31h-246l-75 -431h-36z" />
    <glyph glyph-name="uni0434" unicode="&#x434;" horiz-adv-x="591" 
d="M-47 -155l32 187h56c53 54 110 162 135 302l23 128h308l-76 -430h77l-33 -187h-34l27 155h-454l-27 -155h-34zM83 32h312l71 399h-238l-18 -103c-23 -133 -72 -239 -127 -296z" />
    <glyph glyph-name="uni0435" unicode="&#x435;" horiz-adv-x="557" 
d="M494 229h-405c-1 -11 -2 -22 -2 -31c0 -112 69 -180 178 -180c75 0 128 32 170 81l23 -19c-44 -54 -113 -93 -195 -93c-132 0 -212 83 -212 208c0 148 110 281 265 281c126 0 185 -80 185 -182c0 -14 -2 -42 -7 -65zM463 258c2 13 3 26 3 39c0 88 -55 148 -151 148
c-128 0 -204 -102 -221 -187h369z" />
    <glyph glyph-name="uni0436" unicode="&#x436;" horiz-adv-x="667" 
d="M-39 0l307 247l-199 215h49l193 -212h2l37 212h36l-37 -213h2l262 213h52l-273 -217l223 -245h-49l-216 242h-2l-43 -242h-36l43 242h-3l-296 -242h-52z" />
    <glyph glyph-name="uni0437" unicode="&#x437;" horiz-adv-x="430" 
d="M163 -13c-78 0 -134 29 -166 76l29 23c26 -41 76 -68 137 -68c69 0 140 36 140 115c0 53 -47 94 -124 94h-36l6 31h35c74 0 142 30 142 104c0 50 -43 82 -109 82c-47 0 -88 -18 -125 -56l-23 21c37 43 90 65 150 65c84 0 143 -41 143 -111c0 -63 -49 -109 -114 -120v-1
c57 -11 92 -57 92 -108c0 -91 -75 -147 -177 -147z" />
    <glyph glyph-name="uni0438" unicode="&#x438;" horiz-adv-x="585" 
d="M54 0l81 462h36l-72 -409l375 409h40l-81 -462h-36l73 413h-2l-374 -413h-40z" />
    <glyph glyph-name="uni0439" unicode="&#x439;" horiz-adv-x="585" 
d="M342 573c-69 0 -113 44 -115 122l26 5c1 -62 37 -96 90 -96c57 0 100 29 122 96l24 -5c-20 -79 -74 -122 -147 -122zM54 0l81 462h36l-72 -409l375 409h40l-81 -462h-36l73 413h-2l-374 -413h-40z" />
    <glyph glyph-name="uni043A" unicode="&#x43a;" horiz-adv-x="461" 
d="M54 0l81 462h36l-37 -213h2l272 213h52l-281 -217l230 -245h-48l-226 242h-2l-43 -242h-36z" />
    <glyph glyph-name="uni043B" unicode="&#x43b;" horiz-adv-x="583" 
d="M16 -5c-12 0 -31 2 -40 5l7 32c6 -2 23 -5 33 -5c93 0 137 110 165 270l29 165h300l-81 -462h-36l76 431h-229l-25 -142c-30 -168 -79 -294 -199 -294z" />
    <glyph glyph-name="uni043C" unicode="&#x43c;" horiz-adv-x="714" 
d="M54 0l81 462h55l126 -409l270 409h58l-81 -462h-36l74 424h-2l-280 -424h-22l-131 423h-2l-74 -423h-36z" />
    <glyph glyph-name="uni043D" unicode="&#x43d;" horiz-adv-x="579" 
d="M54 0l81 462h36l-37 -206h302l36 206h36l-81 -462h-36l40 225h-302l-39 -225h-36z" />
    <glyph glyph-name="uni043E" unicode="&#x43e;" horiz-adv-x="597" 
d="M265 -13c-138 0 -214 87 -214 205c0 150 107 284 269 284c137 0 214 -88 214 -205c0 -152 -106 -284 -269 -284zM266 17c139 0 231 119 231 252c0 96 -60 176 -179 176c-139 0 -230 -119 -230 -251c0 -97 58 -177 178 -177z" />
    <glyph glyph-name="uni043F" unicode="&#x43f;" horiz-adv-x="572" 
d="M54 0l81 462h367l-81 -462h-36l75 431h-295l-75 -431h-36z" />
    <glyph glyph-name="uni0440" unicode="&#x440;" horiz-adv-x="625" 
d="M110 113l-62 -353h-35l124 702h35l-19 -105h3c34 66 110 119 199 119c135 0 206 -86 206 -204c0 -153 -104 -285 -263 -285c-89 0 -162 50 -185 126h-3zM349 445c-125 0 -222 -122 -222 -255c0 -97 66 -173 168 -173c138 0 229 119 229 253c0 97 -58 175 -175 175z" />
    <glyph glyph-name="uni0441" unicode="&#x441;" horiz-adv-x="485" 
d="M430 53c-50 -48 -103 -69 -171 -69c-137 0 -207 86 -207 202c0 153 113 290 273 290c62 0 123 -22 154 -66l-27 -22c-25 37 -76 57 -126 57c-138 0 -237 -122 -237 -256c0 -97 58 -173 173 -173c57 0 111 22 147 59z" />
    <glyph glyph-name="uni0442" unicode="&#x442;" horiz-adv-x="426" 
d="M146 0l75 431h-170l5 31h377l-5 -31h-171l-75 -431h-36z" />
    <glyph glyph-name="uni0443" unicode="&#x443;" horiz-adv-x="445" 
d="M-13 -241c-14 0 -33 2 -45 6l6 33c9 -4 25 -7 38 -7c56 0 84 42 109 87l63 113l-97 471h37l85 -431l238 431h41l-342 -604c-35 -62 -71 -99 -133 -99z" />
    <glyph glyph-name="uni0444" unicode="&#x444;" horiz-adv-x="690" 
d="M237 -240l40 229c-141 8 -226 90 -226 209c0 175 125 276 312 277l52 292h36l-52 -293c141 -7 227 -90 227 -209c0 -175 -125 -276 -313 -276l-40 -229h-36zM283 20l74 423c-156 -2 -270 -88 -270 -244c0 -102 76 -172 196 -179zM319 21c156 1 270 87 270 243
c0 102 -76 172 -196 178z" />
    <glyph glyph-name="uni0445" unicode="&#x445;" horiz-adv-x="447" 
d="M-35 0l230 245l-119 217h40l104 -196l178 196h46l-206 -221l138 -241h-42l-122 219l-201 -219h-46z" />
    <glyph glyph-name="uni0446" unicode="&#x446;" horiz-adv-x="586" 
d="M436 -155l27 155h-409l81 462h36l-76 -430h295l76 430h36l-76 -430h77l-33 -187h-34z" />
    <glyph glyph-name="uni0447" unicode="&#x447;" horiz-adv-x="519" 
d="M331 0l36 204c-30 -8 -89 -20 -146 -20c-84 0 -135 27 -135 102c0 11 1 23 4 37l25 139h36l-25 -138c-2 -12 -3 -22 -3 -32c0 -61 41 -76 105 -76c63 0 121 15 145 20l40 226h36l-82 -462h-36z" />
    <glyph glyph-name="uni0448" unicode="&#x448;" horiz-adv-x="842" 
d="M54 0l81 462h36l-76 -430h264l77 430h35l-76 -430h265l76 430h36l-82 -462h-636z" />
    <glyph glyph-name="uni0449" unicode="&#x449;" horiz-adv-x="855" 
d="M705 -155l28 155h-679l81 462h36l-76 -430h264l77 430h35l-76 -430h265l76 430h36l-76 -430h77l-33 -187h-35z" />
    <glyph glyph-name="uni044A" unicode="&#x44a;" horiz-adv-x="560" 
d="M122 0l75 431h-146l5 31h183l-34 -191h140c79 0 148 -34 148 -119c0 -87 -64 -152 -187 -152h-184zM163 32h150c91 0 142 45 142 118c0 66 -53 90 -110 90h-148z" />
    <glyph glyph-name="uni044B" unicode="&#x44b;" horiz-adv-x="674" 
d="M54 0l81 462h36l-34 -191h136c79 0 148 -34 148 -119c0 -87 -64 -152 -187 -152h-180zM95 32h146c91 0 142 45 142 118c0 66 -53 90 -110 90h-138zM486 0l82 462h36l-82 -462h-36z" />
    <glyph glyph-name="uni044C" unicode="&#x44c;" horiz-adv-x="492" 
d="M95 32h150c91 0 142 45 142 118c0 66 -52 90 -109 90h-146zM54 0l81 462h36l-34 -191h140c79 0 148 -34 148 -119c0 -87 -64 -152 -187 -152h-184z" />
    <glyph glyph-name="uni044D" unicode="&#x44d;" horiz-adv-x="486" 
d="M153 -13c-68 0 -130 22 -162 66l26 22c25 -34 79 -58 136 -58c121 0 210 93 228 208h-237l5 31h236v17c0 95 -66 172 -172 172c-55 0 -106 -21 -142 -55l-22 22c43 41 102 64 166 64c132 0 207 -88 207 -205c0 -153 -108 -284 -269 -284z" />
    <glyph glyph-name="uni044E" unicode="&#x44e;" horiz-adv-x="773" 
d="M448 -14c-132 0 -206 91 -206 217c0 7 1 14 2 22h-115l-39 -225h-36l81 462h36l-37 -206h114c24 124 127 220 254 220c136 0 208 -92 208 -210c0 -153 -113 -280 -262 -280zM449 18c128 0 224 112 224 245c0 103 -61 182 -170 182c-127 0 -223 -113 -223 -246
c0 -102 63 -181 169 -181z" />
    <glyph glyph-name="uni044F" unicode="&#x44f;" horiz-adv-x="524" 
d="M24 0l169 195c-60 11 -109 45 -109 116c0 86 63 151 185 151h185l-81 -462h-36l34 192h-138l-163 -192h-46zM229 224h148l36 207h-151c-90 0 -141 -45 -141 -117c0 -65 52 -90 108 -90z" />
    <glyph glyph-name="uni0490" unicode="&#x490;" horiz-adv-x="484" 
d="M58 0l125 708h336l27 148h36l-32 -181h-336l-120 -675h-36z" />
    <glyph glyph-name="uni0491" unicode="&#x491;" horiz-adv-x="410" 
d="M54 0l82 462h247l22 126h34l-28 -157h-245l-76 -431h-36z" />
    <glyph glyph-name="uni0403" unicode="&#x403;" horiz-adv-x="484" 
d="M494 908l-142 -144h-31l126 144h47zM58 0l125 708h373l-6 -33h-337l-118 -675h-37z" />
    <glyph glyph-name="uni0453" unicode="&#x453;" horiz-adv-x="410" 
d="M415 708l-142 -144h-31l127 144h46zM54 0l81 462h282l-6 -31h-246l-75 -431h-36z" />
    <glyph glyph-name="uni0405" unicode="&#x405;" horiz-adv-x="568" 
d="M549 642l-28 -23c-39 51 -91 75 -166 75c-94 0 -203 -58 -203 -167c0 -87 58 -115 147 -145c105 -35 186 -79 186 -187c0 -120 -88 -214 -248 -214c-86 0 -164 32 -208 97l29 22c41 -55 96 -86 184 -86c121 0 205 73 205 177c0 95 -76 130 -174 162
c-108 35 -160 81 -160 170c0 131 116 204 245 204c95 0 161 -38 191 -85z" />
    <glyph glyph-name="uni0455" unicode="&#x455;" horiz-adv-x="414" 
d="M15 58l27 22c33 -41 73 -61 129 -61c76 0 131 45 131 107c0 50 -31 79 -116 102c-70 19 -111 52 -111 112c0 91 83 136 165 136c65 0 117 -26 139 -62l-26 -19c-28 37 -66 50 -113 50c-69 0 -129 -34 -129 -102c0 -51 35 -70 97 -87c94 -26 130 -66 130 -127
c0 -87 -74 -141 -166 -141c-69 0 -119 20 -157 70z" />
    <glyph glyph-name="uni040C" unicode="&#x40c;" horiz-adv-x="546" 
d="M511 908l-142 -144h-31l127 144h46zM58 0l125 708h36l-56 -321l385 321h54l-396 -327l305 -381h-48l-301 380l-67 -380h-37z" />
    <glyph glyph-name="uni045C" unicode="&#x45c;" horiz-adv-x="461" 
d="M429 708l-142 -144h-31l127 144h46zM54 0l81 462h36l-37 -213h2l272 213h52l-281 -217l230 -245h-48l-226 242h-2l-43 -242h-36z" />
    <glyph glyph-name="uni0407" unicode="&#x407;" horiz-adv-x="242" 
d="M170 858c0 -19 -15 -36 -32 -36c-16 0 -29 11 -29 31c0 19 15 35 33 35c16 0 28 -11 28 -30zM335 858c0 -19 -15 -36 -32 -36s-29 11 -29 31c0 19 14 35 32 35c17 0 29 -11 29 -30zM58 0l125 708h37l-125 -708h-37z" />
    <glyph glyph-name="uni0457" unicode="&#x457;" horiz-adv-x="233" 
d="M54 0l82 462h36l-82 -462h-36zM131 658c0 -19 -15 -36 -32 -36c-16 0 -29 11 -29 31c0 19 15 35 33 35c16 0 28 -11 28 -30zM296 658c0 -19 -15 -36 -32 -36s-29 11 -29 31c0 19 14 35 32 35c17 0 29 -11 29 -30z" />
    <glyph glyph-name="uni040E" unicode="&#x40e;" horiz-adv-x="592" 
d="M279 220l-187 488h41l172 -452l326 452h44l-446 -617c-46 -64 -91 -98 -156 -98c-14 0 -34 3 -46 6l6 36c9 -4 28 -8 43 -8c48 0 82 27 121 80zM396 773c-69 0 -113 44 -115 122l26 5c1 -62 38 -96 90 -96c57 0 100 29 122 96l24 -5c-20 -79 -74 -122 -147 -122z" />
    <glyph glyph-name="uni045E" unicode="&#x45e;" horiz-adv-x="445" 
d="M281 573c-69 0 -113 44 -115 122l26 5c1 -62 37 -96 90 -96c57 0 100 29 122 96l24 -5c-20 -79 -74 -122 -147 -122zM-13 -241c-14 0 -33 2 -45 6l6 33c9 -4 25 -7 38 -7c56 0 84 42 109 87l63 113l-97 471h37l85 -431l238 431h41l-342 -604c-35 -62 -71 -99 -133 -99z
" />
    <glyph glyph-name="uni040F" unicode="&#x40f;" horiz-adv-x="710" 
d="M261 -182l32 182h-235l125 708h37l-119 -675h431l119 675h37l-124 -708h-235l-32 -182h-36z" />
    <glyph glyph-name="uni045F" unicode="&#x45f;" horiz-adv-x="572" 
d="M192 -155l28 155h-166l81 462h36l-76 -430h295l76 430h36l-81 -462h-167l-28 -155h-34z" />
    <glyph glyph-name="uni0409" unicode="&#x409;" horiz-adv-x="1084" 
d="M29 -7c-13 0 -33 2 -49 6l9 34c14 -4 27 -6 38 -6c143 0 213 179 273 522l28 159h394l-56 -319h145c113 0 212 -49 212 -171c0 -125 -91 -218 -267 -218h-196l119 675h-320l-24 -137c-62 -356 -138 -545 -306 -545zM603 33h161c141 0 220 72 220 183
c0 102 -82 140 -170 140h-154z" />
    <glyph glyph-name="uni0459" unicode="&#x459;" horiz-adv-x="831" 
d="M16 -5c-12 0 -31 2 -40 5l7 32c6 -2 23 -5 33 -5c93 0 137 110 165 270l29 165h300l-34 -191h140c79 0 148 -34 148 -119c0 -87 -64 -152 -187 -152h-184l76 431h-229l-25 -142c-30 -168 -79 -294 -199 -294zM434 32h150c91 0 142 45 142 118c0 66 -53 90 -109 90h-146z
" />
    <glyph glyph-name="uni040A" unicode="&#x40a;" horiz-adv-x="1057" 
d="M58 0l125 708h37l-57 -319h437l57 319h37l-56 -319h146c112 0 211 -49 211 -171c0 -125 -90 -218 -266 -218h-196l62 356h-437l-63 -356h-37zM576 33h160c141 0 221 72 221 183c0 102 -82 140 -170 140h-154z" />
    <glyph glyph-name="uni045A" unicode="&#x45a;" horiz-adv-x="829" 
d="M54 0l81 462h36l-35 -199h301l35 199h36l-35 -199h145c76 0 144 -32 144 -115c0 -85 -62 -148 -181 -148h-190l41 232h-301l-41 -232h-36zM433 32h155c87 0 137 43 137 114c0 63 -51 86 -106 86h-151z" />
    <glyph glyph-name="uni0404" unicode="&#x404;" horiz-adv-x="723" 
d="M396 -19c-206 0 -316 134 -316 315c0 232 168 431 406 431c95 0 194 -34 239 -97l-30 -24c-39 55 -126 88 -210 88c-187 0 -322 -141 -357 -310h393l-5 -33h-394c-2 -16 -3 -32 -3 -48c0 -159 89 -289 278 -289c83 0 165 31 229 94l23 -24c-65 -64 -152 -103 -253 -103z
" />
    <glyph glyph-name="uni0454" unicode="&#x454;" horiz-adv-x="486" 
d="M259 -16c-137 0 -207 86 -207 202c0 153 111 290 271 290c67 0 126 -22 158 -65l-25 -23c-25 34 -78 57 -131 57c-114 0 -201 -84 -228 -189h242l-5 -31h-243c-2 -13 -2 -26 -2 -38c1 -97 58 -172 173 -172c57 0 111 23 147 60l22 -23c-44 -43 -104 -68 -172 -68z" />
    <glyph glyph-name="uni2116" unicode="&#x2116;" horiz-adv-x="1023" 
d="M58 0l125 708h53l283 -660l118 660h37l-125 -708h-53l-284 664l-117 -664h-37zM728 323l6 32h270l-5 -32h-271zM889 418c-83 0 -130 53 -130 125c0 91 66 172 165 172c84 0 131 -54 131 -124c0 -92 -65 -173 -166 -173zM891 444c80 0 132 68 132 145
c0 54 -33 100 -101 100c-80 0 -131 -68 -131 -145c0 -54 32 -100 100 -100z" />
    <glyph glyph-name="uni040B" unicode="&#x40b;" horiz-adv-x="763" 
d="M198 0l118 675h-242l6 33h517l-6 -33h-237l-51 -285c40 11 113 23 181 23c133 0 188 -59 188 -142c0 -13 -1 -27 -3 -40l-42 -231h-37l41 234c2 11 3 21 3 32c0 65 -43 114 -154 114c-73 0 -145 -12 -182 -23l-63 -357h-37z" />
    <glyph glyph-name="uni0402" unicode="&#x402;" horiz-adv-x="762" 
d="M422 -9c-27 0 -59 3 -77 7l7 34c13 -3 51 -8 71 -8c146 0 240 73 240 202c0 97 -67 155 -191 155c-61 0 -140 -15 -175 -26l-62 -355h-37l118 675h-242l6 33h517l-6 -33h-238l-50 -286c37 10 117 24 176 24c141 0 222 -75 222 -185c0 -154 -107 -237 -279 -237z" />
    <glyph glyph-name="uni045B" unicode="&#x45b;" horiz-adv-x="569" 
d="M54 0l101 577h-92l6 29h91l27 150h36l-27 -150h164l-5 -29h-164l-38 -222h2c38 78 105 121 179 121c99 0 150 -66 150 -147c0 -15 -2 -32 -5 -52l-49 -277h-36l48 269c3 17 5 38 5 53c0 65 -32 123 -120 123c-92 0 -172 -76 -196 -212l-41 -233h-36z" />
    <glyph glyph-name="uni0452" unicode="&#x452;" horiz-adv-x="569" 
d="M267 -241c-18 0 -34 2 -48 7l8 30c12 -4 26 -6 42 -6c70 0 98 60 109 123l64 356c3 17 5 38 5 53c0 65 -32 123 -120 123c-92 0 -172 -76 -196 -212l-41 -233h-36l101 577h-92l6 29h91l27 150h36l-27 -150h164l-5 -29h-164l-38 -222h2c38 78 105 121 179 121
c99 0 150 -66 150 -147c0 -15 -2 -32 -5 -52l-65 -366c-19 -106 -75 -152 -147 -152z" />
    <glyph glyph-name="uni0401" unicode="&#x401;" horiz-adv-x="587" 
d="M355 858c0 -19 -15 -36 -32 -36s-30 11 -30 31c0 19 15 35 33 35c17 0 29 -11 29 -30zM520 858c0 -19 -15 -36 -33 -36c-16 0 -29 11 -29 31c0 19 15 35 33 35c16 0 29 -11 29 -30zM58 0l125 708h403l-6 -33h-367l-51 -291h352l-6 -33h-352l-55 -318h395l-6 -33h-432z
" />
    <glyph glyph-name="uni0451" unicode="&#x451;" horiz-adv-x="557" 
d="M303 658c0 -19 -15 -36 -32 -36c-16 0 -29 11 -29 31c0 19 15 35 32 35s29 -11 29 -30zM468 658c0 -19 -15 -36 -33 -36c-16 0 -29 11 -29 31c0 19 15 35 33 35c16 0 29 -11 29 -30z" />
    <glyph glyph-name="uni0400" unicode="&#x400;" horiz-adv-x="587" 
d="M490 0h-432l125 708h403l-6 -33h-367l-51 -291h352l-6 -33h-352l-55 -318h395zM281 908h46l104 -144h-31z" />
    <glyph glyph-name="uni0450" unicode="&#x450;" horiz-adv-x="557" 
d="M494 229h-405c-1 -11 -2 -22 -2 -31c0 -112 69 -180 178 -180c75 0 128 32 170 81l23 -19c-44 -54 -113 -93 -195 -93c-132 0 -212 83 -212 208c0 148 110 281 265 281c126 0 185 -80 185 -182c0 -14 -2 -42 -7 -65zM463 258c2 13 3 26 3 39c0 88 -55 148 -151 148
c-128 0 -204 -102 -221 -187h369zM223 708h46l104 -144h-31z" />
    <glyph glyph-name="uni040D" unicode="&#x40d;" horiz-adv-x="734" 
d="M459 764l-120 144h47l104 -144h-31zM58 0l125 708h36l-115 -652h3l558 652h47l-125 -708h-37l115 654h-2l-559 -654h-46z" />
    <glyph glyph-name="uni045D" unicode="&#x45d;" horiz-adv-x="585" 
d="M333 564l-120 144h47l104 -144h-31zM54 0l81 462h36l-72 -409l375 409h40l-81 -462h-36l73 413h-2l-374 -413h-40z" />
    <glyph glyph-name="uni2010" unicode="&#x2010;" horiz-adv-x="306" 
d="M253 266l-6 -31h-194l6 31h194z" />
    <glyph glyph-name="cyrbreve" horiz-adv-x="240" 
d="M208 573c-69 0 -113 44 -115 122l26 5c1 -62 37 -96 90 -96c57 0 100 29 122 96l24 -5c-20 -79 -74 -122 -147 -122z" />
    <glyph glyph-name="cyrbreve.cap" horiz-adv-x="240" 
d="M187 773c-69 0 -113 44 -115 122l26 5c1 -62 38 -96 90 -96c57 0 100 29 122 96l24 -5c-20 -79 -74 -122 -147 -122z" />
    <glyph glyph-name="exclam.sc" horiz-adv-x="260" 
d="M198 523l-68 -380h-35l67 380h36zM94 -6c-16 0 -29 10 -29 30s15 36 33 36c16 0 29 -11 29 -30c0 -20 -16 -36 -33 -36z" />
    <glyph glyph-name="dollar.sc" horiz-adv-x="461" 
d="M285 494l-37 -211c72 -28 124 -60 124 -135c0 -88 -65 -149 -174 -150l-9 -51h-24l9 52c-56 3 -106 31 -130 67l26 21c20 -30 56 -55 110 -59l40 229c-67 23 -116 51 -116 124c0 90 80 139 162 142l9 51h24l-8 -51c61 -3 104 -26 126 -59l-26 -21c-17 28 -57 50 -106 51z
M243 250l-39 -222c78 0 135 44 135 119c0 52 -33 80 -96 103zM261 494c-56 -3 -123 -38 -123 -111c0 -54 33 -75 88 -93z" />
    <glyph glyph-name="percent.sc" horiz-adv-x="668" 
d="M192 289c-68 0 -107 44 -107 103c0 77 54 144 135 144c70 0 108 -45 108 -103c0 -78 -53 -144 -136 -144zM194 318c61 0 102 53 102 112c0 40 -26 77 -79 77c-60 0 -100 -54 -100 -112c0 -42 26 -77 77 -77zM104 -12l434 563l23 -17l-432 -562zM348 90
c0 76 54 144 135 144c70 0 109 -45 109 -104c0 -77 -53 -143 -136 -143c-68 0 -108 44 -108 103zM559 128c0 40 -25 77 -78 77c-60 0 -100 -55 -100 -112c0 -42 25 -77 77 -77c61 0 101 53 101 112z" />
    <glyph glyph-name="ampersand.sc" horiz-adv-x="539" 
d="M469 0h-44l-62 81c-50 -61 -101 -94 -174 -94c-69 0 -140 41 -140 131c0 91 66 141 151 175c-33 43 -46 79 -46 113c0 77 57 130 131 130c68 0 109 -43 109 -99c0 -66 -37 -113 -143 -156l113 -148l95 140h40l-115 -164zM360 434c0 40 -30 73 -76 73
c-44 0 -96 -34 -96 -99c0 -36 17 -68 45 -104c88 34 127 74 127 130zM342 106l-123 163c-73 -28 -134 -71 -134 -149c0 -70 55 -103 107 -103c61 0 108 32 150 89z" />
    <glyph glyph-name="parenleft.sc" horiz-adv-x="230" 
d="M123 -51l-30 -16c-33 62 -54 145 -54 228c0 148 60 309 169 430l26 -18c-102 -116 -159 -271 -159 -410c0 -79 18 -153 48 -214z" />
    <glyph glyph-name="parenright.sc" horiz-adv-x="230" 
d="M115 576l30 15c33 -61 54 -144 54 -227c0 -149 -60 -309 -168 -431l-27 18c102 117 159 271 159 411c0 79 -17 152 -48 214z" />
    <glyph glyph-name="bracketleft.sc" horiz-adv-x="230" 
d="M123 -66h-117l116 654h115l-5 -29h-81l-105 -595h81z" />
    <glyph glyph-name="backslash.sc" horiz-adv-x="282" 
d="M273 -1l-30 -11l-225 539l30 12z" />
    <glyph glyph-name="bracketright.sc" horiz-adv-x="230" 
d="M115 588h117l-116 -654h-115l5 30h81l105 595h-82z" />
    <glyph glyph-name="braceleft.sc" horiz-adv-x="230" 
d="M137 -66h-42c-40 0 -68 18 -68 67c0 9 1 18 3 31l23 133c3 16 4 26 4 35c0 32 -17 46 -46 47l5 30c36 1 60 20 71 81l24 137c12 71 53 93 98 93h43l-4 -29h-40c-38 0 -56 -29 -63 -69l-24 -135c-11 -60 -35 -85 -69 -93v-2c26 -11 39 -31 39 -60c0 -10 -1 -21 -4 -36
l-23 -131c-2 -13 -3 -21 -3 -28c0 -26 13 -41 42 -41h39z" />
    <glyph glyph-name="slash.sc" horiz-adv-x="282" 
d="M320 528l-320 -541l-29 11l321 542z" />
    <glyph glyph-name="braceright.sc" horiz-adv-x="230" 
d="M101 588h42c40 0 68 -18 68 -66c0 -9 -1 -18 -3 -31l-23 -132c-3 -17 -4 -27 -4 -35c0 -33 16 -47 46 -47l-5 -31c-36 0 -60 -20 -71 -81l-24 -137c-13 -71 -54 -94 -98 -94h-43l4 30h40c37 0 56 28 63 69l24 135c11 61 35 85 69 93v2c-26 11 -39 31 -39 61
c0 10 1 20 4 35l23 131c2 13 3 21 3 27c0 27 -14 42 -42 42h-39z" />
    <glyph glyph-name="zero.sc" horiz-adv-x="461" 
d="M196 -14c-102 0 -136 84 -136 177c0 157 63 373 219 373c100 0 134 -84 134 -177c0 -155 -63 -373 -217 -373zM276 504c-112 0 -179 -175 -179 -336c0 -74 23 -149 100 -149c111 0 179 175 179 335c0 75 -23 150 -100 150z" />
    <glyph glyph-name="one.sc" horiz-adv-x="461" 
d="M226 0h-36l84 477l-127 -89l-17 27l155 108h33z" />
    <glyph glyph-name="two.sc" horiz-adv-x="461" 
d="M342 0h-314l7 36l223 210c78 73 107 118 107 168c0 55 -40 91 -97 91c-55 0 -101 -34 -125 -90l-33 10c29 71 88 111 158 111c80 0 133 -46 133 -119c0 -72 -41 -120 -122 -196l-202 -189h270z" />
    <glyph glyph-name="three.sc" horiz-adv-x="461" 
d="M193 -13c-67 0 -128 34 -151 94l32 15c19 -50 67 -78 121 -78c85 0 131 63 131 133c0 66 -50 105 -116 105h-26l6 31h22c90 0 142 53 142 129c0 49 -37 89 -96 89c-40 0 -79 -20 -106 -58l-28 18c33 45 80 71 137 71c76 0 128 -49 128 -119c0 -72 -41 -130 -121 -145v-2
c60 -11 95 -62 95 -118c0 -86 -57 -165 -170 -165z" />
    <glyph glyph-name="four.sc" horiz-adv-x="461" 
d="M392 130h-82l-23 -130h-34l22 130h-240l7 39l289 354h48l-64 -361h83zM280 162l59 322h-2l-259 -322h202z" />
    <glyph glyph-name="five.sc" horiz-adv-x="461" 
d="M190 -13c-69 0 -124 35 -148 82l32 18c19 -40 67 -69 117 -69c93 0 147 69 147 162c0 68 -46 115 -120 115c-37 0 -75 -11 -107 -30l50 258h242l-6 -31h-210l-35 -182c21 11 50 16 74 16c89 0 148 -59 148 -143c0 -111 -68 -196 -184 -196z" />
    <glyph glyph-name="six.sc" horiz-adv-x="461" 
d="M89 133c0 -62 43 -115 113 -115c88 0 146 71 146 152c0 63 -43 113 -109 113c-86 0 -150 -69 -150 -150zM52 133c0 53 26 104 76 169l171 221h42l-184 -233l2 -2c18 14 49 25 84 25c82 0 141 -56 141 -140c0 -102 -74 -186 -184 -186c-86 0 -148 58 -148 146z" />
    <glyph glyph-name="seven.sc" horiz-adv-x="461" 
d="M422 523l-7 -37l-303 -486h-42l312 491h-257l5 32h292z" />
    <glyph glyph-name="eight.sc" horiz-adv-x="461" 
d="M382 160c0 -116 -92 -173 -185 -173c-73 0 -146 41 -146 132c0 83 57 144 136 162v2c-40 15 -70 49 -70 103c0 93 74 150 156 150c73 0 132 -44 132 -125c0 -72 -50 -118 -108 -133v-2c47 -14 85 -57 85 -116zM151 385c0 -55 39 -91 94 -91c76 0 126 55 126 114
c0 62 -43 98 -100 98c-71 0 -120 -58 -120 -121zM86 122c0 -66 50 -104 113 -104c88 0 148 58 148 141c0 61 -47 104 -109 104c-83 0 -152 -60 -152 -141z" />
    <glyph glyph-name="nine.sc" horiz-adv-x="461" 
d="M388 392c0 60 -45 113 -113 113c-88 0 -146 -69 -146 -149c0 -62 42 -110 109 -110c86 0 150 65 150 146zM179 0h-44l190 241l-2 2c-21 -14 -55 -26 -90 -26c-83 0 -140 53 -140 137c0 99 75 182 183 182c86 0 147 -59 147 -145c0 -53 -23 -102 -70 -163z" />
    <glyph glyph-name="question.sc" horiz-adv-x="421" 
d="M208 181l-5 -29h-35l6 36c7 44 26 73 71 106l31 23c38 28 62 60 62 103c0 55 -37 84 -89 84c-58 0 -101 -36 -119 -93l-33 8c23 75 82 117 153 117c65 0 124 -35 124 -114c0 -56 -31 -96 -90 -136c-55 -38 -68 -60 -76 -105zM170 -6c-17 0 -29 10 -29 30
c0 19 15 36 32 36s29 -12 29 -30c0 -20 -15 -36 -32 -36z" />
    <glyph glyph-name="a.sc" horiz-adv-x="498" 
d="M438 0h-37l-26 141h-276l-89 -141h-42l336 523h39zM371 172l-54 313l-199 -313h253z" />
    <glyph glyph-name="b.sc" horiz-adv-x="490" 
d="M212 0h-159l93 523h143c77 0 147 -37 147 -117c0 -69 -43 -116 -119 -132v-1c51 -9 99 -47 99 -116c0 -108 -86 -157 -204 -157zM399 401c0 60 -54 91 -119 91h-104l-36 -205h111c80 0 148 36 148 114zM379 157c0 67 -57 100 -120 100h-124l-40 -225h115
c102 0 169 41 169 125z" />
    <glyph glyph-name="c.sc" horiz-adv-x="538" 
d="M455 89l22 -25c-48 -50 -115 -77 -188 -77c-152 0 -233 95 -233 227c0 173 131 322 307 322c69 0 136 -27 170 -72l-27 -25c-30 41 -85 65 -144 65c-155 0 -268 -138 -268 -286c0 -110 63 -199 196 -199c61 0 119 23 165 70z" />
    <glyph glyph-name="d.sc" horiz-adv-x="586" 
d="M53 0l92 523h141c139 0 251 -74 251 -218c0 -203 -147 -305 -331 -305h-153zM175 492l-80 -460h111c168 0 294 93 294 269c0 117 -86 191 -218 191h-107z" />
    <glyph glyph-name="e.sc" horiz-adv-x="455" 
d="M374 0h-321l92 523h300l-6 -31h-264l-36 -205h254l-5 -31h-254l-39 -224h286z" />
    <glyph glyph-name="f.sc" horiz-adv-x="435" 
d="M432 492h-257l-36 -210h241l-5 -31h-241l-45 -251h-36l91 523h293z" />
    <glyph glyph-name="g.sc" horiz-adv-x="582" 
d="M287 -13c-152 0 -231 96 -231 227c0 173 131 322 306 322c70 0 135 -25 170 -73l-28 -24c-29 41 -84 65 -143 65c-155 0 -267 -138 -267 -286c0 -109 61 -199 196 -199c59 0 114 14 150 35l32 182h-129l6 31h164l-41 -235c-47 -29 -114 -45 -185 -45z" />
    <glyph glyph-name="h.sc" horiz-adv-x="574" 
d="M438 0h-37l44 253h-311l-45 -253h-36l92 523h37l-42 -239h311l42 239h37z" />
    <glyph glyph-name="i.sc" horiz-adv-x="227" 
d="M89 0h-36l93 523h36z" />
    <glyph glyph-name="j.sc" horiz-adv-x="383" 
d="M343 523l-65 -376c-16 -90 -57 -160 -156 -160c-67 0 -112 41 -125 94l34 12c12 -43 43 -74 90 -74c74 0 106 51 120 132l66 372h36z" />
    <glyph glyph-name="k.sc" horiz-adv-x="465" 
d="M139 286h2l281 237h51l-292 -244l219 -279h-46l-215 276h-2l-48 -276h-36l92 523h36z" />
    <glyph glyph-name="l.sc" horiz-adv-x="389" 
d="M338 0h-285l93 523h36l-87 -491h249z" />
    <glyph glyph-name="m.sc" horiz-adv-x="714" 
d="M577 0h-36l84 476h-2l-295 -476h-26l-128 476h-2l-84 -476h-35l93 523h52l125 -471l291 471h55z" />
    <glyph glyph-name="n.sc" horiz-adv-x="593" 
d="M455 0h-47l-233 476h-2l-84 -476h-36l93 523h46l233 -475h3l84 475h36z" />
    <glyph glyph-name="o.sc" horiz-adv-x="641" 
d="M554 304c0 111 -66 200 -198 200c-158 0 -262 -138 -262 -285c0 -110 66 -200 199 -200c158 0 261 137 261 285zM56 217c0 170 123 319 301 319c151 0 234 -97 234 -230c0 -170 -120 -319 -300 -319c-152 0 -235 96 -235 230z" />
    <glyph glyph-name="p.sc" horiz-adv-x="452" 
d="M133 245l-44 -245h-36l93 523h136c84 0 149 -39 149 -124c0 -87 -60 -154 -186 -154h-112zM395 397c0 66 -54 95 -113 95h-106l-38 -216h109c95 0 148 47 148 121z" />
    <glyph glyph-name="q.sc" horiz-adv-x="641" 
d="M411 34v-2h173l-7 -32h-285c-151 0 -236 87 -236 221c0 168 122 315 300 315c151 0 233 -98 233 -229c0 -123 -67 -236 -178 -273zM552 304c0 109 -65 200 -198 200c-155 0 -260 -139 -260 -281c0 -111 66 -191 200 -191c151 0 258 129 258 272z" />
    <glyph glyph-name="r.sc" horiz-adv-x="472" 
d="M393 0h-39l-114 251h-107l-44 -251h-36l93 523h130c82 0 154 -35 154 -120c0 -110 -81 -142 -154 -149zM393 400c0 65 -55 92 -125 92h-92l-38 -210h103c91 0 152 33 152 118z" />
    <glyph glyph-name="s.sc" horiz-adv-x="426" 
d="M11 61l29 21c24 -39 82 -63 139 -63c91 0 145 56 145 123c0 56 -32 90 -124 117c-91 27 -120 64 -120 123c0 102 89 154 180 154c71 0 124 -27 147 -63l-29 -22c-19 34 -69 54 -117 54c-61 0 -145 -33 -145 -121c0 -52 36 -76 103 -95c104 -30 141 -75 141 -145
c0 -93 -69 -157 -182 -157c-72 0 -139 31 -167 74z" />
    <glyph glyph-name="t.sc" horiz-adv-x="402" 
d="M433 492h-171l-87 -492h-35l86 492h-175l5 31h384z" />
    <glyph glyph-name="u.sc" horiz-adv-x="562" 
d="M135 523h36l-57 -320c-4 -19 -6 -36 -5 -52c0 -73 41 -131 140 -131c134 0 169 99 184 185l55 318h36l-56 -326c-20 -114 -71 -210 -221 -210c-118 0 -174 67 -174 160c0 16 1 34 4 52z" />
    <glyph glyph-name="v.sc" horiz-adv-x="464" 
d="M503 523l-312 -523h-45l-85 523h37l77 -483h2l285 483h41z" />
    <glyph glyph-name="w.sc" horiz-adv-x="735" 
d="M766 523l-267 -523h-47l-43 479h-2l-241 -479h-47l-45 523h37l39 -480h3l242 480h43l44 -480h2l242 480h40z" />
    <glyph glyph-name="x.sc" horiz-adv-x="449" 
d="M385 0h-40l-118 245l-208 -245h-45l235 273l-122 250h39l107 -223l189 223h43l-214 -251z" />
    <glyph glyph-name="y.sc" horiz-adv-x="395" 
d="M448 523l-244 -296l-40 -227h-36l40 227l-124 296h40l107 -264l212 264h45z" />
    <glyph glyph-name="z.sc" horiz-adv-x="463" 
d="M374 0h-371l6 38l403 454h-314l6 31h357l-6 -33l-405 -458h330z" />
    <glyph glyph-name="agrave.sc" horiz-adv-x="498" 
d="M438 0h-37l-26 141h-276l-89 -141h-42l336 523h39zM371 172l-54 313l-199 -313h253zM190 717h46l104 -144h-31z" />
    <glyph glyph-name="aacute.sc" horiz-adv-x="498" 
d="M438 0h-37l-26 141h-276l-89 -141h-42l336 523h39zM371 172l-54 313l-199 -313h253zM484 717l-142 -144h-31l127 144h46z" />
    <glyph glyph-name="acircumflex.sc" horiz-adv-x="498" 
d="M438 0h-37l-26 141h-276l-89 -141h-42l336 523h39zM371 172l-54 313l-199 -313h253zM336 717h44l76 -144h-33l-67 125l-114 -125h-38z" />
    <glyph glyph-name="atilde.sc" horiz-adv-x="498" 
d="M438 0h-37l-26 141h-276l-89 -141h-42l336 523h39zM371 172l-54 313l-199 -313h253zM342 653c29 -18 42 -24 58 -24c26 0 41 19 52 49h25c-15 -49 -45 -78 -82 -78c-36 0 -95 47 -120 47s-41 -20 -52 -51h-25c16 50 45 81 82 81c22 0 37 -8 62 -24z" />
    <glyph glyph-name="adieresis.sc" horiz-adv-x="498" 
d="M438 0h-37l-26 141h-276l-89 -141h-42l336 523h39zM371 172l-54 313l-199 -313h253zM259 632c-16 0 -29 10 -29 30c0 19 15 35 33 35c16 0 28 -11 28 -30s-15 -35 -32 -35zM424 632c-17 0 -29 10 -29 30c0 19 14 35 32 35c16 0 29 -11 29 -30s-15 -35 -32 -35z" />
    <glyph glyph-name="amacron.sc" horiz-adv-x="498" 
d="M438 0h-37l-26 141h-276l-89 -141h-42l336 523h39zM371 172l-54 313l-199 -313h253zM462 624h-244l5 30h244z" />
    <glyph glyph-name="abreve.sc" horiz-adv-x="498" 
d="M438 0h-37l-26 141h-276l-89 -141h-42l336 523h39zM371 172l-54 313l-199 -313h253zM478 710c-18 -81 -75 -127 -149 -127c-70 0 -115 44 -115 127h26c0 -66 37 -97 90 -97c60 0 105 29 124 97h24z" />
    <glyph glyph-name="aring.sc" horiz-adv-x="498" 
d="M438 0h-37l-26 141h-276l-89 -141h-42l336 523h39zM371 172l-54 313l-199 -313h253zM410 674c0 32 -20 61 -61 61c-49 0 -80 -42 -80 -90c0 -33 19 -60 61 -60c48 0 80 41 80 89zM246 644c0 59 41 111 104 111c54 0 83 -35 83 -80c0 -59 -41 -111 -104 -111
c-54 0 -83 34 -83 80z" />
    <glyph glyph-name="aogonek.sc" horiz-adv-x="498" 
d="M361 -223c-41 0 -77 21 -77 65c0 56 44 100 117 158l-26 141h-276l-89 -141h-42l336 523h39l95 -523s-7 0 -8 -1c-81 -70 -112 -105 -112 -148c0 -30 22 -45 52 -45c24 0 50 11 68 27l8 -23c-25 -20 -54 -33 -85 -33zM371 172l-54 313l-199 -313h253z" />
    <glyph glyph-name="ae.sc" horiz-adv-x="736" 
d="M656 0h-322l27 151h-228l-125 -151h-44l429 523h333l-6 -31h-264l-36 -205h254l-5 -31h-254l-40 -224h287zM410 492l-253 -310h208l55 310h-10z" />
    <glyph glyph-name="cacute.sc" horiz-adv-x="538" 
d="M455 89l22 -25c-48 -50 -115 -77 -188 -77c-152 0 -233 95 -233 227c0 173 131 322 307 322c69 0 136 -27 170 -72l-27 -25c-30 41 -85 65 -144 65c-155 0 -268 -138 -268 -286c0 -110 63 -199 196 -199c61 0 119 23 165 70zM480 717l-142 -144h-31l127 144h46z" />
    <glyph glyph-name="ccircumflex.sc" horiz-adv-x="538" 
d="M455 89l22 -25c-48 -50 -115 -77 -188 -77c-152 0 -233 95 -233 227c0 173 131 322 307 322c69 0 136 -27 170 -72l-27 -25c-30 41 -85 65 -144 65c-155 0 -268 -138 -268 -286c0 -110 63 -199 196 -199c61 0 119 23 165 70zM378 717h44l76 -144h-33l-67 125l-114 -125
h-38z" />
    <glyph glyph-name="ccaron.sc" horiz-adv-x="538" 
d="M455 89l22 -25c-48 -50 -115 -77 -188 -77c-152 0 -233 95 -233 227c0 173 131 322 307 322c69 0 136 -27 170 -72l-27 -25c-30 41 -85 65 -144 65c-155 0 -268 -138 -268 -286c0 -110 63 -199 196 -199c61 0 119 23 165 70zM388 573h-45l-76 144h34l66 -124l115 124h38z
" />
    <glyph glyph-name="cdotaccent.sc" horiz-adv-x="538" 
d="M455 89l22 -25c-48 -50 -115 -77 -188 -77c-152 0 -233 95 -233 227c0 173 131 322 307 322c69 0 136 -27 170 -72l-27 -25c-30 41 -85 65 -144 65c-155 0 -268 -138 -268 -286c0 -110 63 -199 196 -199c61 0 119 23 165 70zM383 632c-16 0 -29 10 -29 30
c0 19 15 35 32 35c16 0 28 -11 28 -30s-14 -35 -31 -35z" />
    <glyph glyph-name="ccedilla.sc" horiz-adv-x="538" 
d="M236 -227c-26 0 -68 7 -94 20l11 23c22 -11 57 -17 82 -17c59 0 89 25 89 59c0 32 -29 44 -58 44c-17 0 -49 -5 -65 -13l-11 11l74 88c-135 9 -208 102 -208 226c0 173 131 322 307 322c69 0 136 -27 170 -72l-27 -25c-30 41 -85 65 -144 65c-155 0 -268 -138 -268 -286
c0 -110 63 -199 196 -199c61 0 119 23 165 70l22 -25c-48 -49 -113 -76 -186 -77l-58 -70c16 5 29 7 45 7c36 0 78 -15 78 -63c0 -63 -57 -88 -120 -88z" />
    <glyph glyph-name="dcaron.sc" horiz-adv-x="586" 
d="M53 0l92 523h141c139 0 251 -74 251 -218c0 -203 -147 -305 -331 -305h-153zM175 492l-80 -460h111c168 0 294 93 294 269c0 117 -86 191 -218 191h-107zM338 573h-45l-76 144h34l66 -124l115 124h38z" />
    <glyph glyph-name="dcroat.sc" horiz-adv-x="586" 
d="M53 0l45 259h-76l6 30h75l42 234h142c138 0 250 -74 250 -218c0 -203 -147 -305 -331 -305h-153zM175 492l-35 -203h168l-6 -30h-168l-39 -227h111c168 0 294 93 294 269c0 117 -86 191 -218 191h-107z" />
    <glyph glyph-name="eth.sc" horiz-adv-x="586" 
d="M53 0l45 259h-76l6 30h75l42 234h142c138 0 250 -74 250 -218c0 -203 -147 -305 -331 -305h-153zM175 492l-35 -203h168l-6 -30h-168l-39 -227h111c168 0 294 93 294 269c0 117 -86 191 -218 191h-107z" />
    <glyph glyph-name="egrave.sc" horiz-adv-x="455" 
d="M374 0h-321l92 523h300l-6 -31h-264l-36 -205h254l-5 -31h-254l-39 -224h286zM176 717h46l104 -144h-31z" />
    <glyph glyph-name="eacute.sc" horiz-adv-x="455" 
d="M374 0h-321l92 523h300l-6 -31h-264l-36 -205h254l-5 -31h-254l-39 -224h286zM439 717l-142 -144h-31l127 144h46z" />
    <glyph glyph-name="ecircumflex.sc" horiz-adv-x="455" 
d="M374 0h-321l92 523h300l-6 -31h-264l-36 -205h254l-5 -31h-254l-39 -224h286zM306 717h44l76 -144h-33l-67 125l-114 -125h-38z" />
    <glyph glyph-name="ecaron.sc" horiz-adv-x="455" 
d="M374 0h-321l92 523h300l-6 -31h-264l-36 -205h254l-5 -31h-254l-39 -224h286zM321 573h-45l-76 144h34l66 -124l115 124h38z" />
    <glyph glyph-name="edieresis.sc" horiz-adv-x="455" 
d="M374 0h-321l92 523h300l-6 -31h-264l-36 -205h254l-5 -31h-254l-39 -224h286zM227 632c-16 0 -29 10 -29 30c0 19 15 35 33 35c16 0 28 -11 28 -30s-15 -35 -32 -35zM392 632c-17 0 -29 10 -29 30c0 19 14 35 32 35c16 0 29 -11 29 -30s-15 -35 -32 -35z" />
    <glyph glyph-name="emacron.sc" horiz-adv-x="455" 
d="M374 0h-321l92 523h300l-6 -31h-264l-36 -205h254l-5 -31h-254l-39 -224h286zM430 624h-244l5 30h244z" />
    <glyph glyph-name="ebreve.sc" horiz-adv-x="455" 
d="M374 0h-321l92 523h300l-6 -31h-264l-36 -205h254l-5 -31h-254l-39 -224h286zM446 710c-18 -81 -75 -127 -149 -127c-70 0 -115 44 -115 127h26c0 -66 37 -97 90 -97c60 0 105 29 124 97h24z" />
    <glyph glyph-name="edotaccent.sc" horiz-adv-x="455" 
d="M374 0h-321l92 523h300l-6 -31h-264l-36 -205h254l-5 -31h-254l-39 -224h286zM310 632c-16 0 -29 10 -29 30c0 19 15 35 32 35c16 0 28 -11 28 -30s-14 -35 -31 -35z" />
    <glyph glyph-name="eogonek.sc" horiz-adv-x="455" 
d="M357 -167l9 -23c-25 -20 -54 -33 -85 -33c-42 0 -78 21 -78 65c0 56 44 100 117 158h-267l92 523h300l-6 -31h-264l-36 -205h254l-5 -31h-254l-39 -224h286l-7 -32h-23c-82 -71 -113 -106 -113 -149c0 -30 21 -45 51 -45c24 0 51 11 68 27z" />
    <glyph glyph-name="gcircumflex.sc" horiz-adv-x="582" 
d="M287 -13c-152 0 -231 96 -231 227c0 173 131 322 306 322c70 0 135 -25 170 -73l-28 -24c-29 41 -84 65 -143 65c-155 0 -267 -138 -267 -286c0 -109 61 -199 196 -199c59 0 114 14 150 35l32 182h-129l6 31h164l-41 -235c-47 -29 -114 -45 -185 -45zM377 717h44l76 -144
h-33l-67 125l-114 -125h-38z" />
    <glyph glyph-name="gbreve.sc" horiz-adv-x="582" 
d="M287 -13c-152 0 -231 96 -231 227c0 173 131 322 306 322c70 0 135 -25 170 -73l-28 -24c-29 41 -84 65 -143 65c-155 0 -267 -138 -267 -286c0 -109 61 -199 196 -199c59 0 114 14 150 35l32 182h-129l6 31h164l-41 -235c-47 -29 -114 -45 -185 -45zM516 710
c-18 -81 -75 -127 -149 -127c-70 0 -115 44 -115 127h26c0 -66 37 -97 90 -97c60 0 105 29 124 97h24z" />
    <glyph glyph-name="gdotaccent.sc" horiz-adv-x="582" 
d="M287 -13c-152 0 -231 96 -231 227c0 173 131 322 306 322c70 0 135 -25 170 -73l-28 -24c-29 41 -84 65 -143 65c-155 0 -267 -138 -267 -286c0 -109 61 -199 196 -199c59 0 114 14 150 35l32 182h-129l6 31h164l-41 -235c-47 -29 -114 -45 -185 -45zM381 632
c-16 0 -29 10 -29 30c0 19 15 35 32 35c16 0 28 -11 28 -30s-14 -35 -31 -35z" />
    <glyph glyph-name="gcommaaccent.sc" horiz-adv-x="582" 
d="M287 -13c-152 0 -231 96 -231 227c0 173 131 322 306 322c70 0 135 -25 170 -73l-28 -24c-29 41 -84 65 -143 65c-155 0 -267 -138 -267 -286c0 -109 61 -199 196 -199c59 0 114 14 150 35l32 182h-129l6 31h164l-41 -235c-47 -29 -114 -45 -185 -45zM305 -44l-101 -187
h-29l92 187h38z" />
    <glyph glyph-name="kgreenlandic.sc" horiz-adv-x="465" 
d="M473 523l-292 -244l219 -279h-46l-215 276h-2l-48 -276h-36l92 523h36l-42 -237h2l281 237h51z" />
    <glyph glyph-name="hcircumflex.sc" horiz-adv-x="574" 
d="M438 0h-37l44 253h-311l-45 -253h-36l92 523h37l-42 -239h311l42 239h37zM355 717h44l76 -144h-33l-67 125l-114 -125h-38z" />
    <glyph glyph-name="hbar.sc" horiz-adv-x="574" 
d="M438 0h-37l44 253h-311l-45 -253h-36l92 523h37l-23 -125h312l22 125h37zM140 284h311l16 89h-312z" />
    <glyph glyph-name="igrave.sc" horiz-adv-x="227" 
d="M89 0h-36l93 523h36zM34 717h46l104 -144h-31z" />
    <glyph glyph-name="iacute.sc" horiz-adv-x="227" 
d="M89 0h-36l93 523h36zM323 717l-142 -144h-31l127 144h46z" />
    <glyph glyph-name="ibreve.sc" horiz-adv-x="227" 
d="M89 0h-36l93 523h36zM327 711c-18 -81 -75 -128 -149 -128c-70 0 -115 45 -115 128h26c0 -66 37 -97 90 -97c60 0 105 29 124 97h24z" />
    <glyph glyph-name="icircumflex.sc" horiz-adv-x="227" 
d="M89 0h-36l93 523h36zM177 717h44l76 -144h-33l-67 125l-114 -125h-38z" />
    <glyph glyph-name="itilde.sc" horiz-adv-x="227" 
d="M89 0h-36l93 523h36zM182 653c29 -18 42 -24 58 -24c26 0 41 19 52 49h25c-15 -49 -45 -78 -82 -78c-36 0 -95 47 -120 47s-41 -20 -52 -51h-25c16 50 45 81 82 81c22 0 37 -8 62 -24z" />
    <glyph glyph-name="idieresis.sc" horiz-adv-x="227" 
d="M89 0h-36l93 523h36zM96 632c-16 0 -29 10 -29 30c0 19 15 35 33 35c16 0 28 -11 28 -30s-15 -35 -32 -35zM261 632c-17 0 -29 10 -29 30c0 19 14 35 32 35c16 0 29 -11 29 -30s-15 -35 -32 -35z" />
    <glyph glyph-name="imacron.sc" horiz-adv-x="227" 
d="M89 0h-36l93 523h36zM297 624h-244l5 30h244z" />
    <glyph glyph-name="idotaccent.sc" horiz-adv-x="227" 
d="M89 0h-36l93 523h36zM182 632c-16 0 -29 10 -29 30c0 19 15 35 32 35c16 0 28 -11 28 -30s-14 -35 -31 -35z" />
    <glyph glyph-name="iogonek.sc" horiz-adv-x="227" 
d="M20 -223c-42 0 -78 21 -78 65c0 56 44 100 117 158h-6l93 523h36l-93 -523c-82 -71 -112 -106 -112 -149c0 -30 21 -45 51 -45c24 0 51 11 68 27l9 -23c-25 -20 -54 -33 -85 -33z" />
    <glyph glyph-name="jcircumflex.sc" horiz-adv-x="383" 
d="M343 523l-65 -376c-16 -90 -57 -160 -156 -160c-67 0 -112 41 -125 94l34 12c12 -43 43 -74 90 -74c74 0 106 51 120 132l66 372h36zM338 717h44l76 -144h-33l-67 125l-114 -125h-38z" />
    <glyph glyph-name="kcommaaccent.sc" horiz-adv-x="465" 
d="M139 286h2l281 237h51l-292 -244l219 -279h-46l-215 276h-2l-48 -276h-36l92 523h36zM237 -44l-101 -187h-29l92 187h38z" />
    <glyph glyph-name="lacute.sc" horiz-adv-x="389" 
d="M338 0h-285l93 523h36l-87 -491h249zM328 717l-142 -144h-31l127 144h46z" />
    <glyph glyph-name="lcaron.sc" horiz-adv-x="389" 
d="M338 0h-285l93 523h36l-87 -491h249zM355 523l-102 -187h-29l92 187h39z" />
    <glyph glyph-name="lcommaaccent.sc" horiz-adv-x="389" 
d="M338 0h-285l93 523h36l-87 -491h249zM227 -43l-101 -187h-29l92 187h38z" />
    <glyph glyph-name="lslash.sc" horiz-adv-x="389" 
d="M338 0h-285l43 247l-74 -57l7 40l74 56l43 237h36l-36 -206l143 108l-7 -38l-144 -109l-43 -246h249z" />
    <glyph glyph-name="ldot.sc" horiz-adv-x="389" 
d="M338 0h-285l93 523h36l-87 -491h249zM258 272c-16 0 -29 10 -29 30c0 19 15 35 32 35c16 0 28 -11 28 -30s-14 -35 -31 -35z" />
    <glyph glyph-name="nacute.sc" horiz-adv-x="593" 
d="M455 0h-47l-233 476h-2l-84 -476h-36l93 523h46l233 -475h3l84 475h36zM476 717l-142 -144h-31l127 144h46z" />
    <glyph glyph-name="ncaron.sc" horiz-adv-x="593" 
d="M455 0h-47l-233 476h-2l-84 -476h-36l93 523h46l233 -475h3l84 475h36zM369 573h-45l-76 144h34l66 -124l115 124h38z" />
    <glyph glyph-name="ntilde.sc" horiz-adv-x="593" 
d="M455 0h-47l-233 476h-2l-84 -476h-36l93 523h46l233 -475h3l84 475h36zM372 653c29 -18 42 -24 58 -24c26 0 41 19 52 49h25c-15 -49 -45 -78 -82 -78c-36 0 -95 47 -120 47s-41 -20 -52 -51h-25c16 50 45 81 82 81c22 0 37 -8 62 -24z" />
    <glyph glyph-name="ncommaaccent.sc" horiz-adv-x="593" 
d="M455 0h-47l-233 476h-2l-84 -476h-36l93 523h46l233 -475h3l84 475h36zM285 -44l-101 -187h-29l92 187h38z" />
    <glyph glyph-name="ograve.sc" horiz-adv-x="641" 
d="M554 304c0 111 -66 200 -198 200c-158 0 -262 -138 -262 -285c0 -110 66 -200 199 -200c158 0 261 137 261 285zM56 217c0 170 123 319 301 319c151 0 234 -97 234 -230c0 -170 -120 -319 -300 -319c-152 0 -235 96 -235 230zM246 717h46l104 -144h-31z" />
    <glyph glyph-name="oacute.sc" horiz-adv-x="641" 
d="M554 304c0 111 -66 200 -198 200c-158 0 -262 -138 -262 -285c0 -110 66 -200 199 -200c158 0 261 137 261 285zM56 217c0 170 123 319 301 319c151 0 234 -97 234 -230c0 -170 -120 -319 -300 -319c-152 0 -235 96 -235 230zM503 717l-142 -144h-31l127 144h46z" />
    <glyph glyph-name="ocircumflex.sc" horiz-adv-x="641" 
d="M554 304c0 111 -66 200 -198 200c-158 0 -262 -138 -262 -285c0 -110 66 -200 199 -200c158 0 261 137 261 285zM56 217c0 170 123 319 301 319c151 0 234 -97 234 -230c0 -170 -120 -319 -300 -319c-152 0 -235 96 -235 230zM394 717h44l76 -144h-33l-67 125l-114 -125
h-38z" />
    <glyph glyph-name="otilde.sc" horiz-adv-x="641" 
d="M554 304c0 111 -66 200 -198 200c-158 0 -262 -138 -262 -285c0 -110 66 -200 199 -200c158 0 261 137 261 285zM56 217c0 170 123 319 301 319c151 0 234 -97 234 -230c0 -170 -120 -319 -300 -319c-152 0 -235 96 -235 230zM388 653c29 -18 42 -24 58 -24
c26 0 41 19 52 49h25c-15 -49 -45 -78 -82 -78c-36 0 -95 47 -120 47s-41 -20 -52 -51h-25c16 50 45 81 82 81c22 0 37 -8 62 -24z" />
    <glyph glyph-name="odieresis.sc" horiz-adv-x="641" 
d="M554 304c0 111 -66 200 -198 200c-158 0 -262 -138 -262 -285c0 -110 66 -200 199 -200c158 0 261 137 261 285zM56 217c0 170 123 319 301 319c151 0 234 -97 234 -230c0 -170 -120 -319 -300 -319c-152 0 -235 96 -235 230zM308 632c-16 0 -29 10 -29 30
c0 19 15 35 33 35c16 0 28 -11 28 -30s-15 -35 -32 -35zM473 632c-17 0 -29 10 -29 30c0 19 14 35 32 35c16 0 29 -11 29 -30s-15 -35 -32 -35z" />
    <glyph glyph-name="omacron.sc" horiz-adv-x="641" 
d="M554 304c0 111 -66 200 -198 200c-158 0 -262 -138 -262 -285c0 -110 66 -200 199 -200c158 0 261 137 261 285zM56 217c0 170 123 319 301 319c151 0 234 -97 234 -230c0 -170 -120 -319 -300 -319c-152 0 -235 96 -235 230zM504 624h-244l5 30h244z" />
    <glyph glyph-name="obreve.sc" horiz-adv-x="641" 
d="M554 304c0 111 -66 200 -198 200c-158 0 -262 -138 -262 -285c0 -110 66 -200 199 -200c158 0 261 137 261 285zM56 217c0 170 123 319 301 319c151 0 234 -97 234 -230c0 -170 -120 -319 -300 -319c-152 0 -235 96 -235 230zM519 710c-18 -81 -75 -127 -149 -127
c-70 0 -115 44 -115 127h26c0 -66 37 -97 90 -97c60 0 105 29 124 97h24z" />
    <glyph glyph-name="ohungarumlaut.sc" horiz-adv-x="641" 
d="M554 304c0 111 -66 200 -198 200c-158 0 -262 -138 -262 -285c0 -110 66 -200 199 -200c158 0 261 137 261 285zM56 217c0 170 123 319 301 319c151 0 234 -97 234 -230c0 -170 -120 -319 -300 -319c-152 0 -235 96 -235 230zM285 573l127 144h47l-142 -144h-32zM421 573
l127 144h48l-143 -144h-32z" />
    <glyph glyph-name="oslash.sc" horiz-adv-x="641" 
d="M30 -11l-16 18l81 72c-25 38 -39 85 -39 138c0 170 123 319 301 319c76 0 136 -25 175 -67l76 68l15 -19l-75 -68c28 -39 43 -88 43 -144c0 -170 -120 -319 -300 -319c-81 0 -142 27 -182 73zM554 304c0 46 -11 88 -34 121l-383 -340c33 -41 85 -66 156 -66
c158 0 261 137 261 285zM93 219c0 -42 10 -82 30 -115l382 341c-33 37 -83 59 -149 59c-158 0 -263 -138 -263 -285z" />
    <glyph glyph-name="oe.sc" horiz-adv-x="755" 
d="M675 0h-376c-152 0 -244 83 -244 217c0 170 132 306 309 306h381l-6 -31h-264l-37 -205h255l-5 -31h-254l-40 -224h286zM92 219c0 -111 75 -186 208 -186h58l80 457h-75c-157 0 -271 -125 -271 -271z" />
    <glyph glyph-name="racute.sc" horiz-adv-x="472" 
d="M393 0h-39l-114 251h-107l-44 -251h-36l93 523h130c82 0 154 -35 154 -120c0 -110 -81 -142 -154 -149zM393 400c0 65 -55 92 -125 92h-92l-38 -210h103c91 0 152 33 152 118zM406 717l-142 -144h-31l127 144h46z" />
    <glyph glyph-name="rcaron.sc" horiz-adv-x="472" 
d="M393 0h-39l-114 251h-107l-44 -251h-36l93 523h130c82 0 154 -35 154 -120c0 -110 -81 -142 -154 -149zM393 400c0 65 -55 92 -125 92h-92l-38 -210h103c91 0 152 33 152 118zM307 573h-45l-76 144h34l66 -124l115 124h38z" />
    <glyph glyph-name="rcommaaccent.sc" horiz-adv-x="472" 
d="M393 0h-39l-114 251h-107l-44 -251h-36l93 523h130c82 0 154 -35 154 -120c0 -110 -81 -142 -154 -149zM393 400c0 65 -55 92 -125 92h-92l-38 -210h103c91 0 152 33 152 118zM232 -45l-101 -187h-29l92 187h38z" />
    <glyph glyph-name="sacute.sc" horiz-adv-x="426" 
d="M11 61l29 21c24 -39 82 -63 139 -63c91 0 145 56 145 123c0 56 -32 90 -124 117c-91 27 -120 64 -120 123c0 102 89 154 180 154c71 0 124 -27 147 -63l-29 -22c-19 34 -69 54 -117 54c-61 0 -145 -33 -145 -121c0 -52 36 -76 103 -95c104 -30 141 -75 141 -145
c0 -93 -69 -157 -182 -157c-72 0 -139 31 -167 74zM386 717l-142 -144h-31l127 144h46z" />
    <glyph glyph-name="scircumflex.sc" horiz-adv-x="426" 
d="M11 61l29 21c24 -39 82 -63 139 -63c91 0 145 56 145 123c0 56 -32 90 -124 117c-91 27 -120 64 -120 123c0 102 89 154 180 154c71 0 124 -27 147 -63l-29 -22c-19 34 -69 54 -117 54c-61 0 -145 -33 -145 -121c0 -52 36 -76 103 -95c104 -30 141 -75 141 -145
c0 -93 -69 -157 -182 -157c-72 0 -139 31 -167 74zM283 717h44l76 -144h-33l-67 125l-114 -125h-38z" />
    <glyph glyph-name="scaron.sc" horiz-adv-x="426" 
d="M11 61l29 21c24 -39 82 -63 139 -63c91 0 145 56 145 123c0 56 -32 90 -124 117c-91 27 -120 64 -120 123c0 102 89 154 180 154c71 0 124 -27 147 -63l-29 -22c-19 34 -69 54 -117 54c-61 0 -145 -33 -145 -121c0 -52 36 -76 103 -95c104 -30 141 -75 141 -145
c0 -93 -69 -157 -182 -157c-72 0 -139 31 -167 74zM296 573h-45l-76 144h34l66 -124l115 124h38z" />
    <glyph glyph-name="scedilla.sc" horiz-adv-x="426" 
d="M11 61l29 21c24 -39 82 -63 139 -63c91 0 145 56 145 123c0 56 -32 90 -124 117c-91 27 -120 64 -120 123c0 102 89 154 180 154c71 0 124 -27 147 -63l-29 -22c-19 34 -69 54 -117 54c-61 0 -145 -33 -145 -121c0 -52 36 -76 103 -95c104 -30 141 -75 141 -145
c0 -89 -63 -150 -166 -156l-59 -71c15 5 28 7 45 7c35 0 78 -15 78 -63c0 -63 -57 -88 -120 -88c-26 0 -68 7 -94 20l11 23c22 -11 57 -17 82 -17c59 0 88 25 88 59c0 32 -29 44 -57 44c-17 0 -49 -5 -65 -13l-11 11l74 87c-68 3 -129 33 -155 74z" />
    <glyph glyph-name="scommaaccent.sc" horiz-adv-x="426" 
d="M11 61l29 21c24 -39 82 -63 139 -63c91 0 145 56 145 123c0 56 -32 90 -124 117c-91 27 -120 64 -120 123c0 102 89 154 180 154c71 0 124 -27 147 -63l-29 -22c-19 34 -69 54 -117 54c-61 0 -145 -33 -145 -121c0 -52 36 -76 103 -95c104 -30 141 -75 141 -145
c0 -93 -69 -157 -182 -157c-72 0 -139 31 -167 74zM194 -46l-101 -187h-29l92 187h38z" />
    <glyph glyph-name="tcaron.sc" horiz-adv-x="402" 
d="M433 492h-171l-87 -492h-35l86 492h-175l5 31h384zM278 573h-45l-76 144h34l66 -124l115 124h38z" />
    <glyph glyph-name="tcommaaccent.sc" horiz-adv-x="402" 
d="M433 492h-171l-87 -492h-35l86 492h-175l5 31h384zM194 -45l-101 -187h-29l92 187h38z" />
    <glyph glyph-name="tbar.sc" horiz-adv-x="402" 
d="M350 334h-116l-59 -334h-35l58 334h-115l5 26h115l23 132h-175l5 31h384l-7 -31h-171l-23 -132h115z" />
    <glyph glyph-name="thorn.sc" horiz-adv-x="427" 
d="M89 0h-36l93 523h35l-19 -104h99c87 0 157 -37 157 -120c0 -121 -98 -150 -190 -150h-112zM381 296c0 62 -53 90 -126 90h-98l-36 -204h109c93 0 151 31 151 114z" />
    <glyph glyph-name="ugrave.sc" horiz-adv-x="562" 
d="M135 523h36l-57 -320c-4 -19 -6 -36 -5 -52c0 -73 41 -131 140 -131c134 0 169 99 184 185l55 318h36l-56 -326c-20 -114 -71 -210 -221 -210c-118 0 -174 67 -174 160c0 16 1 34 4 52zM207 717h46l104 -144h-31z" />
    <glyph glyph-name="uacute.sc" horiz-adv-x="562" 
d="M135 523h36l-57 -320c-4 -19 -6 -36 -5 -52c0 -73 41 -131 140 -131c134 0 169 99 184 185l55 318h36l-56 -326c-20 -114 -71 -210 -221 -210c-118 0 -174 67 -174 160c0 16 1 34 4 52zM473 717l-142 -144h-31l127 144h46z" />
    <glyph glyph-name="ucircumflex.sc" horiz-adv-x="562" 
d="M135 523h36l-57 -320c-4 -19 -6 -36 -5 -52c0 -73 41 -131 140 -131c134 0 169 99 184 185l55 318h36l-56 -326c-20 -114 -71 -210 -221 -210c-118 0 -174 67 -174 160c0 16 1 34 4 52zM346 717h44l76 -144h-33l-67 125l-114 -125h-38z" />
    <glyph glyph-name="utilde.sc" horiz-adv-x="562" 
d="M135 523h36l-57 -320c-4 -19 -6 -36 -5 -52c0 -73 41 -131 140 -131c134 0 169 99 184 185l55 318h36l-56 -326c-20 -114 -71 -210 -221 -210c-118 0 -174 67 -174 160c0 16 1 34 4 52zM352 653c29 -18 42 -24 58 -24c26 0 41 19 52 49h25c-15 -49 -45 -78 -82 -78
c-36 0 -95 47 -120 47s-41 -20 -52 -51h-25c16 50 45 81 82 81c22 0 37 -8 62 -24z" />
    <glyph glyph-name="udieresis.sc" horiz-adv-x="562" 
d="M135 523h36l-57 -320c-4 -19 -6 -36 -5 -52c0 -73 41 -131 140 -131c134 0 169 99 184 185l55 318h36l-56 -326c-20 -114 -71 -210 -221 -210c-118 0 -174 67 -174 160c0 16 1 34 4 52zM268 632c-16 0 -29 10 -29 30c0 19 15 35 33 35c16 0 28 -11 28 -30
s-15 -35 -32 -35zM433 632c-17 0 -29 10 -29 30c0 19 14 35 32 35c16 0 29 -11 29 -30s-15 -35 -32 -35z" />
    <glyph glyph-name="umacron.sc" horiz-adv-x="562" 
d="M135 523h36l-57 -320c-4 -19 -6 -36 -5 -52c0 -73 41 -131 140 -131c134 0 169 99 184 185l55 318h36l-56 -326c-20 -114 -71 -210 -221 -210c-118 0 -174 67 -174 160c0 16 1 34 4 52zM468 624h-244l5 30h244z" />
    <glyph glyph-name="ubreve.sc" horiz-adv-x="562" 
d="M135 523h36l-57 -320c-4 -19 -6 -36 -5 -52c0 -73 41 -131 140 -131c134 0 169 99 184 185l55 318h36l-56 -326c-20 -114 -71 -210 -221 -210c-118 0 -174 67 -174 160c0 16 1 34 4 52zM482 710c-18 -81 -75 -127 -149 -127c-70 0 -115 44 -115 127h26
c0 -66 37 -97 90 -97c60 0 105 29 124 97h24z" />
    <glyph glyph-name="uring.sc" horiz-adv-x="562" 
d="M135 523h36l-57 -320c-4 -19 -6 -36 -5 -52c0 -73 41 -131 140 -131c134 0 169 99 184 185l55 318h36l-56 -326c-20 -114 -71 -210 -221 -210c-118 0 -174 67 -174 160c0 16 1 34 4 52zM421 674c0 32 -20 61 -61 61c-49 0 -80 -42 -80 -90c0 -33 19 -60 61 -60
c48 0 80 41 80 89zM257 644c0 59 41 111 104 111c54 0 83 -35 83 -80c0 -59 -41 -111 -104 -111c-54 0 -83 34 -83 80z" />
    <glyph glyph-name="uhungarumlaut.sc" horiz-adv-x="562" 
d="M135 523h36l-57 -320c-4 -19 -6 -36 -5 -52c0 -73 41 -131 140 -131c134 0 169 99 184 185l55 318h36l-56 -326c-20 -114 -71 -210 -221 -210c-118 0 -174 67 -174 160c0 16 1 34 4 52zM236 573l127 144h47l-142 -144h-32zM372 573l127 144h48l-143 -144h-32z" />
    <glyph glyph-name="uogonek.sc" horiz-adv-x="562" 
d="M222 -223c-41 0 -77 21 -77 65c0 58 38 84 99 145c-116 1 -171 68 -171 160c0 16 1 34 4 52l58 324h36l-57 -320c-4 -19 -6 -36 -5 -52c0 -73 41 -131 140 -131c134 0 169 99 184 185l55 318h36l-56 -326c-18 -106 -65 -196 -189 -209c-72 -63 -99 -96 -99 -137
c0 -30 21 -45 51 -45c24 0 50 11 68 27l9 -23c-25 -20 -55 -33 -86 -33z" />
    <glyph glyph-name="wacute.sc" horiz-adv-x="735" 
d="M766 523l-267 -523h-47l-43 479h-2l-241 -479h-47l-45 523h37l39 -480h3l242 480h43l44 -480h2l242 480h40zM584 717l-142 -144h-31l127 144h46z" />
    <glyph glyph-name="wcircumflex.sc" horiz-adv-x="735" 
d="M766 523l-267 -523h-47l-43 479h-2l-241 -479h-47l-45 523h37l39 -480h3l242 480h43l44 -480h2l242 480h40zM439 717h44l76 -144h-33l-67 125l-114 -125h-38z" />
    <glyph glyph-name="wdieresis.sc" horiz-adv-x="735" 
d="M766 523l-267 -523h-47l-43 479h-2l-241 -479h-47l-45 523h37l39 -480h3l242 480h43l44 -480h2l242 480h40zM357 632c-16 0 -29 11 -29 31c0 19 15 35 33 35c16 0 28 -11 28 -30s-15 -36 -32 -36zM522 632c-17 0 -29 11 -29 31c0 19 14 35 32 35c16 0 29 -11 29 -30
s-15 -36 -32 -36z" />
    <glyph glyph-name="wgrave.sc" horiz-adv-x="735" 
d="M766 523l-267 -523h-47l-43 479h-2l-241 -479h-47l-45 523h37l39 -480h3l242 480h43l44 -480h2l242 480h40zM289 717h46l104 -144h-31z" />
    <glyph glyph-name="yacute.sc" horiz-adv-x="395" 
d="M448 523l-244 -296l-40 -227h-36l40 227l-124 296h40l107 -264l212 264h45zM380 717l-142 -144h-31l127 144h46z" />
    <glyph glyph-name="ycircumflex.sc" horiz-adv-x="395" 
d="M448 523l-244 -296l-40 -227h-36l40 227l-124 296h40l107 -264l212 264h45zM263 717h44l76 -144h-33l-67 125l-114 -125h-38z" />
    <glyph glyph-name="ydieresis.sc" horiz-adv-x="395" 
d="M448 523l-244 -296l-40 -227h-36l40 227l-124 296h40l107 -264l212 264h45zM177 632c-16 0 -29 10 -29 30c0 19 15 35 33 35c16 0 28 -11 28 -30s-15 -35 -32 -35zM342 632c-17 0 -29 10 -29 30c0 19 14 35 32 35c16 0 29 -11 29 -30s-15 -35 -32 -35z" />
    <glyph glyph-name="ygrave.sc" horiz-adv-x="395" 
d="M448 523l-244 -296l-40 -227h-36l40 227l-124 296h40l107 -264l212 264h45zM136 717h46l104 -144h-31z" />
    <glyph glyph-name="zacute.sc" horiz-adv-x="463" 
d="M374 0h-371l6 38l403 454h-314l6 31h357l-6 -33l-405 -458h330zM394 717l-142 -144h-31l127 144h46z" />
    <glyph glyph-name="zcaron.sc" horiz-adv-x="463" 
d="M374 0h-371l6 38l403 454h-314l6 31h357l-6 -33l-405 -458h330zM305 573h-45l-76 144h34l66 -124l115 124h38z" />
    <glyph glyph-name="zdotaccent.sc" horiz-adv-x="463" 
d="M374 0h-371l6 38l403 454h-314l6 31h357l-6 -33l-405 -458h330zM295 632c-16 0 -29 10 -29 30c0 19 15 35 32 35c16 0 28 -11 28 -30s-14 -35 -31 -35z" />
    <glyph glyph-name="ij.sc" horiz-adv-x="605" 
d="M89 0h-36l93 523h36zM565 523l-65 -376c-16 -90 -56 -160 -156 -160c-67 0 -111 41 -124 94l33 12c12 -43 43 -74 90 -74c73 0 107 51 121 132l65 372h36z" />
    <glyph glyph-name="germandbls.sc" horiz-adv-x="854" 
d="M12 60l29 22c24 -39 82 -64 139 -64c91 0 145 57 145 124c0 56 -35 85 -124 117c-89 31 -120 64 -120 123c0 102 92 155 184 155c70 0 120 -28 143 -63l-28 -23c-20 35 -70 54 -118 54c-61 0 -144 -33 -144 -121c0 -52 35 -72 102 -95c104 -36 142 -75 142 -145
c0 -93 -73 -158 -186 -158c-71 0 -136 32 -164 74zM439 60l28 22c24 -39 83 -64 140 -64c90 0 145 57 145 124c0 56 -36 85 -125 117c-89 31 -120 64 -120 123c0 102 93 155 184 155c71 0 120 -28 143 -63l-28 -23c-19 35 -70 54 -117 54c-61 0 -145 -33 -145 -121
c0 -52 35 -72 103 -95c103 -36 141 -75 141 -145c0 -93 -73 -158 -185 -158c-72 0 -136 32 -164 74z" />
    <glyph glyph-name="eng.sc" horiz-adv-x="593" 
d="M53 0l93 523h46l235 -468h2l83 468h36l-109 -619c-13 -75 -42 -145 -137 -145c-10 0 -27 2 -37 5l6 30c10 -2 20 -4 30 -4c76 0 91 57 102 116l15 85l-243 485h-2l-84 -476h-36z" />
    <glyph glyph-name="grave.sc" horiz-adv-x="240" 
d="M69 717h46l104 -144h-31z" />
    <glyph glyph-name="acute.sc" horiz-adv-x="240" 
d="M291 717l-142 -144h-31l127 144h46z" />
    <glyph glyph-name="circumflex.sc" horiz-adv-x="240" 
d="M179 717h44l76 -144h-33l-67 125l-114 -125h-38z" />
    <glyph glyph-name="caron.sc" horiz-adv-x="240" 
d="M193 573h-45l-76 144h34l66 -124l115 124h38z" />
    <glyph glyph-name="tilde.sc" horiz-adv-x="240" 
d="M191 653c29 -18 42 -24 58 -24c26 0 41 19 52 49h25c-15 -49 -45 -78 -82 -78c-36 0 -95 47 -120 47s-41 -20 -52 -51h-25c16 50 45 81 82 81c22 0 37 -8 62 -24z" />
    <glyph glyph-name="dieresis.sc" horiz-adv-x="240" 
d="M106 632c-16 0 -29 10 -29 30c0 19 15 35 33 35c16 0 28 -11 28 -30s-15 -35 -32 -35zM271 632c-17 0 -29 10 -29 30c0 19 14 35 32 35c16 0 29 -11 29 -30s-15 -35 -32 -35z" />
    <glyph glyph-name="macron.sc" horiz-adv-x="240" 
d="M306 624h-244l5 30h244z" />
    <glyph glyph-name="breve.sc" horiz-adv-x="240" 
d="M332 710c-18 -81 -75 -127 -149 -127c-70 0 -115 44 -115 127h26c0 -66 37 -97 90 -97c60 0 105 29 124 97h24z" />
    <glyph glyph-name="ring.sc" horiz-adv-x="240" 
d="M263 674c0 32 -20 61 -61 61c-49 0 -80 -42 -80 -90c0 -33 19 -60 61 -60c48 0 80 41 80 89zM99 644c0 59 41 111 104 111c54 0 83 -35 83 -80c0 -59 -41 -111 -104 -111c-54 0 -83 34 -83 80z" />
    <glyph glyph-name="hungarumlaut.sc" horiz-adv-x="240" 
d="M62 573l127 144h47l-142 -144h-32zM198 573l127 144h48l-143 -144h-32z" />
    <glyph glyph-name="dotaccent.sc" horiz-adv-x="240" 
d="M190 632c-16 0 -29 10 -29 30c0 19 15 35 32 35c16 0 28 -11 28 -30s-14 -35 -31 -35z" />
    <glyph glyph-name="exclamdown.sc" horiz-adv-x="260" 
d="M76 0l67 380h36l-67 -380h-36zM179 529c17 0 29 -10 29 -30s-15 -35 -32 -35s-29 10 -29 29c0 20 15 36 32 36z" />
    <glyph glyph-name="questiondown.sc" horiz-adv-x="421" 
d="M232 342l5 29h35l-6 -36c-7 -44 -26 -73 -70 -106l-31 -23c-38 -28 -63 -59 -63 -103c0 -54 37 -84 89 -84c58 0 101 36 119 93l33 -8c-22 -75 -82 -117 -153 -117c-67 0 -124 35 -124 114c0 56 31 96 90 136c55 38 68 59 76 105zM271 529c16 0 28 -10 28 -30
c0 -19 -14 -35 -32 -35c-16 0 -29 11 -29 29c0 20 15 36 33 36z" />
    <glyph glyph-name="Euro.sc" horiz-adv-x="461" 
d="M429 481c-24 15 -56 23 -90 23c-87 0 -163 -69 -198 -166h229l-13 -28h-226c-8 -27 -16 -65 -17 -95h204l-13 -28h-191c2 -100 57 -170 150 -170c40 0 77 11 108 33l10 -30c-31 -19 -71 -33 -120 -33c-120 0 -181 91 -182 200h-56l14 28h42c0 19 8 65 17 95h-55l14 28h49
c43 125 137 198 235 198c44 0 82 -10 105 -24z" />
    <glyph glyph-name="cent.sc" horiz-adv-x="461" 
d="M308 476l12 64h30l-12 -65c56 -4 110 -25 138 -65l-28 -22c-23 34 -69 54 -115 57l-75 -430c57 1 111 24 147 60l21 -22c-44 -43 -106 -69 -173 -69l-11 -56h-30l10 58c-116 12 -174 94 -174 200c0 149 107 283 260 290zM304 445c-128 -8 -219 -127 -219 -256
c0 -88 46 -160 144 -171z" />
    <glyph glyph-name="sterling.sc" horiz-adv-x="461" 
d="M189 285h123l-6 -29h-122l-39 -225h186l-5 -31h-297l6 31h74l39 225h-69l6 29h68l17 95c16 92 66 156 159 156c38 0 70 -12 91 -32l-21 -25c-15 16 -42 26 -71 26c-69 0 -110 -52 -124 -133z" />
    <glyph glyph-name="florin.sc" horiz-adv-x="461" 
d="M457 513l-19 -27c-13 11 -31 17 -50 17c-37 0 -69 -24 -89 -81l-48 -135h98l-6 -29h-101l-81 -227c-23 -64 -56 -117 -132 -117c-22 0 -47 6 -64 16l16 28c14 -9 33 -13 47 -13c61 0 83 45 106 109l72 204h-89l5 29h94l47 133c29 84 69 114 126 114c27 0 50 -7 68 -21z
" />
    <glyph glyph-name="yen.sc" horiz-adv-x="461" 
d="M214 250h-137l5 27h127l-120 246h38l111 -239l198 239h41l-210 -246h123l-6 -27h-136l-15 -85h137l-6 -28h-135l-25 -137h-34l24 137h-137l6 28h136z" />
    <glyph glyph-name="perthousand.sc" horiz-adv-x="955" 
d="M192 289c-68 0 -107 44 -107 103c0 77 54 144 135 144c70 0 108 -45 108 -103c0 -78 -53 -144 -136 -144zM194 318c61 0 102 53 102 112c0 40 -26 77 -79 77c-60 0 -100 -54 -100 -112c0 -42 26 -77 77 -77zM129 -28l-25 16l434 563l23 -17zM456 -13
c-68 0 -108 44 -108 103c0 76 54 144 135 144c70 0 109 -45 109 -104c0 -77 -53 -143 -136 -143zM458 16c61 0 101 53 101 112c0 40 -25 77 -78 77c-60 0 -100 -55 -100 -112c0 -42 25 -77 77 -77zM749 16c60 0 101 53 101 112c0 40 -25 77 -78 77c-60 0 -100 -55 -100 -112
c0 -42 25 -77 77 -77zM746 -13c-68 0 -107 44 -107 103c0 76 54 144 135 144c70 0 108 -45 108 -104c0 -77 -52 -143 -136 -143z" />
    <glyph glyph-name="zero.onum" horiz-adv-x="653" 
d="M559 305c0 109 -66 199 -197 199c-157 0 -262 -139 -262 -285c0 -109 66 -199 199 -199c157 0 260 136 260 285zM62 217c0 170 122 320 301 320c151 0 234 -98 234 -231c0 -170 -120 -320 -300 -320c-152 0 -235 97 -235 231z" />
    <glyph glyph-name="one.onum" 
d="M174 0h-37l84 476l-127 -89l-18 28l156 108h34z" />
    <glyph glyph-name="two.onum" horiz-adv-x="518" 
d="M403 0h-384l7 38l138 85c155 95 253 155 253 265c0 79 -62 117 -128 117c-68 0 -123 -31 -159 -101l-29 16c39 75 102 117 189 117c92 0 164 -51 164 -147c0 -124 -102 -188 -258 -283l-117 -71v-3h331z" />
    <glyph glyph-name="three.onum" horiz-adv-x="522" 
d="M130 -170c-32 0 -70 3 -99 10l7 35c29 -8 64 -12 93 -12c137 0 251 74 251 213c0 111 -79 159 -174 159c-32 0 -68 -6 -102 -17l-6 29c97 67 257 185 327 240v4h-312l5 32h354l-6 -43c-74 -59 -201 -151 -298 -219l-1 -1c0 -1 1 -3 1 -3c19 6 32 7 51 7
c102 0 199 -54 199 -186c0 -167 -140 -248 -290 -248z" />
    <glyph glyph-name="four.onum" horiz-adv-x="550" 
d="M445 537l-388 -495h275l51 283h36l-50 -283h120l-5 -32h-120l-31 -180h-37l32 180h-318l7 34l386 493h42z" />
    <glyph glyph-name="five.onum" horiz-adv-x="520" 
d="M228 228c-45 0 -97 -12 -134 -26l82 321h311l-7 -34h-277l-64 -245c26 8 65 15 97 15c108 0 197 -58 197 -182c0 -168 -137 -247 -292 -247c-35 0 -77 4 -107 10l8 35c28 -8 61 -12 99 -12c131 0 254 62 254 211c0 108 -77 154 -167 154z" />
    <glyph glyph-name="six.onum" horiz-adv-x="568" 
d="M95 177c0 -87 62 -159 159 -159c126 0 207 99 207 214c0 89 -60 158 -155 158c-122 0 -211 -98 -211 -213zM58 178c0 170 142 334 381 533l29 -22c-124 -94 -259 -228 -323 -342l2 -1c42 50 99 74 163 74c112 0 189 -74 189 -185c0 -135 -96 -248 -247 -248
c-113 0 -194 74 -194 191z" />
    <glyph glyph-name="seven.onum" horiz-adv-x="512" 
d="M489 489c-143 -220 -313 -498 -411 -673l-38 11c98 171 301 498 410 662h-360l6 34h400z" />
    <glyph glyph-name="eight.onum" horiz-adv-x="565" 
d="M248 -13c-96 0 -192 54 -192 174c0 111 78 197 187 219v3c-70 23 -98 81 -98 139c0 122 98 199 204 199c98 0 175 -53 175 -163c0 -98 -70 -161 -151 -181v-2c63 -19 119 -76 119 -157c0 -155 -124 -231 -244 -231zM310 394c108 0 177 79 177 160c0 87 -59 135 -140 135
c-96 0 -166 -79 -166 -168c0 -72 50 -127 129 -127zM249 20c123 0 206 85 206 197c0 81 -65 146 -154 146c-115 0 -208 -86 -208 -199c0 -87 67 -144 156 -144z" />
    <glyph glyph-name="nine.onum" horiz-adv-x="568" 
d="M471 347c0 87 -62 159 -159 159c-126 0 -207 -99 -207 -214c0 -88 60 -158 155 -158c123 0 211 98 211 213zM508 346c0 -170 -162 -358 -381 -533l-28 22c123 94 256 226 321 340l-2 1c-42 -48 -99 -73 -163 -73c-111 0 -188 75 -188 186c0 134 97 248 247 248
c113 0 194 -74 194 -191z" />
    <glyph glyph-name="napostrophe.sc" horiz-adv-x="625" 
d="M488 0h-48l-232 476h-2l-84 -476h-36l92 523h46l234 -475h2l84 475h37zM126 523l-101 -187h-29l92 187h38z" />
    <glyph glyph-name="ordfeminine.sc" 
d="M336 430h-30l-12 73h-154l-47 -73h-33l189 292h33zM290 526l-30 169l-106 -169h136z" />
    <glyph glyph-name="fi.sc" horiz-adv-x="661" 
d="M432 492h-257l-37 -210h242l-5 -31h-242l-44 -251h-36l91 523h293zM524 0h-36l92 523h37z" />
    <glyph glyph-name="fl.sc" horiz-adv-x="824" 
d="M432 492h-257l-37 -210h242l-5 -31h-242l-44 -251h-36l91 523h293zM773 0h-285l92 523h37l-88 -491h250z" />
    </font>
</defs>
</svg>
