<?xml version="1.0" standalone="no"?>
<!DOCTYPE svg PUBLIC "-//W3C//DTD SVG 1.1//EN" "http://www.w3.org/Graphics/SVG/1.1/DTD/svg11.dtd" >
<svg xmlns="http://www.w3.org/2000/svg" xmlns:xlink="http://www.w3.org/1999/xlink" version="1.1">
<metadata>
Created by FontForge 20161116 at Tue Apr 24 10:21:21 2012
 By Jimmy Warting
Copyright (c) 2003 - 2012 Linotype GmbH, www.linotype.com. All rights reserved. This font software may not be reproduced, modified, disclosed or transferred without the express written approval of Linotype GmbH. Avenir is a trademark of Linotype GmbH registered in the U.S. Patent and Trademark Office and may be registered in certain other jurisdictions. This typeface is original artwork of Adrian Frutiger and Akira Kobayashi. The design may be protected in certain jurisdictions.
</metadata>
<defs>
<font id="AvenirNextCyr-MediumItalic" horiz-adv-x="250" >
  <font-face 
    font-family="Avenir Next Cyr Medium"
    font-weight="450"
    font-style="italic"
    font-stretch="normal"
    units-per-em="1000"
    panose-1="2 11 6 3 2 2 2 9 2 4"
    ascent="756"
    descent="-244"
    x-height="474"
    cap-height="708"
    bbox="-258 -250 1060 951"
    underline-thickness="50"
    underline-position="-100"
    slope="-12"
    stemh="86"
    stemv="94"
    unicode-range="U+000D-FB04"
  />
<missing-glyph horiz-adv-x="512" 
d="M278 117h-56v67h56v-67zM271 234h-46l-2 17c0 37 4 64 13 81s24 37 46 59c43 41 50 58 50 83c0 48 -35 85 -76 85s-74 -27 -82 -95l-50 8c9 95 63 137 135 137c71 0 124 -52 124 -131c0 -43 -12 -73 -63 -120c-25 -22 -39 -39 -43 -52s-6 -37 -6 -72zM50 50h412v617h-412
v-617zM0 718h512v-718h-512v718z" />
    <glyph glyph-name="napostrophe" unicode="&#x22;n" horiz-adv-x="601" 
d="M128 474h88c-2 -19 -6 -56 -10 -77h2c35 54 91 90 158 90c104 0 159 -62 159 -146c0 -16 -1 -31 -4 -48l-52 -293h-93l46 262c4 18 6 36 6 53c0 54 -23 93 -92 93c-74 0 -134 -62 -151 -156l-44 -252h-93l65 371c5 25 12 71 15 103zM237 708l-120 -190h-77l104 190h93z
" />
    <glyph glyph-name="fi" unicode="fi" horiz-adv-x="573" 
d="M559 647c0 -32 -26 -61 -59 -61c-32 0 -59 21 -59 57c0 35 29 62 61 62c31 0 57 -23 57 -58zM519 474l-84 -474h-92l83 474h93zM400 761l-20 -80c-13 4 -27 7 -44 7c-65 0 -88 -56 -98 -114l-18 -100h113l-14 -75h-111l-70 -399h-91l71 399h-96l14 75h93l18 100
c18 100 70 194 196 194c21 0 39 -2 57 -7z" />
    <glyph glyph-name="fl" unicode="fl" horiz-adv-x="572" 
d="M568 756l-133 -756h-92l133 756h92zM333 474l-14 -75h-111l-70 -399h-91l70 399h-95l14 75h93l18 100c18 99 70 194 196 194c21 0 40 -2 57 -7l-20 -80c-13 4 -27 7 -44 7c-65 0 -88 -56 -98 -115l-18 -99h113z" />
    <glyph glyph-name="f_f_l" unicode="ffl" horiz-adv-x="865" 
d="M861 756l-134 -756h-93l133 756h94zM624 474l-14 -75h-111l-70 -399h-91l70 399h-200l-70 -399h-91l70 399h-95l14 75h93l18 100c18 99 70 194 196 194c21 0 40 -2 57 -7l-20 -80c-13 4 -27 7 -44 7c-65 0 -88 -56 -98 -115l-18 -99h200l18 100c18 99 70 194 196 194
c21 0 40 -2 57 -7l-20 -80c-13 4 -27 7 -44 7c-65 0 -88 -56 -98 -115l-18 -99h113z" />
    <glyph glyph-name="f_f_i" unicode="ffi" horiz-adv-x="864" 
d="M810 474l-84 -474h-92l83 474h93zM850 647c0 -33 -26 -61 -59 -61c-32 0 -59 21 -59 57s29 62 61 62s57 -23 57 -58zM624 474l-14 -75h-111l-70 -399h-91l70 399h-200l-70 -399h-91l70 399h-95l14 75h93l18 100c18 99 70 194 196 194c21 0 40 -2 57 -7l-20 -80
c-13 4 -27 7 -44 7c-65 0 -88 -56 -98 -115l-18 -99h200l18 100c18 99 70 194 196 194c21 0 40 -2 57 -7l-20 -80c-13 4 -27 7 -44 7c-65 0 -88 -56 -98 -115l-18 -99h113z" />
    <glyph glyph-name="f_f" unicode="ff" horiz-adv-x="600" 
d="M624 474l-14 -75h-111l-70 -399h-91l70 399h-200l-70 -399h-91l70 399h-95l14 75h93l18 100c18 99 70 194 196 194c21 0 40 -2 57 -7l-20 -80c-13 4 -27 7 -44 7c-65 0 -88 -56 -98 -115l-18 -99h200l18 100c18 99 70 194 196 194c21 0 40 -2 57 -7l-20 -80
c-13 4 -27 7 -44 7c-65 0 -88 -56 -98 -115l-18 -99h113z" />
    <glyph glyph-name=".notdef" horiz-adv-x="512" 
d="M278 117h-56v67h56v-67zM271 234h-46l-2 17c0 37 4 64 13 81s24 37 46 59c43 41 50 58 50 83c0 48 -35 85 -76 85s-74 -27 -82 -95l-50 8c9 95 63 137 135 137c71 0 124 -52 124 -131c0 -43 -12 -73 -63 -120c-25 -22 -39 -39 -43 -52s-6 -37 -6 -72zM50 50h412v617h-412
v-617zM0 718h512v-718h-512v718z" />
    <glyph glyph-name=".null" horiz-adv-x="500" 
 />
    <glyph glyph-name=".null" horiz-adv-x="500" 
 />
    <glyph glyph-name="CR" unicode="&#xd;" horiz-adv-x="0" 
 />
    <glyph glyph-name="space" unicode=" " 
 />
    <glyph glyph-name="exclam" unicode="!" horiz-adv-x="287" 
d="M262 708l-89 -501h-95l89 501h95zM170 61c0 -35 -29 -66 -64 -66s-64 23 -64 62c0 38 32 66 66 66c35 0 62 -24 62 -62z" />
    <glyph glyph-name="quotedbl" unicode="&#x22;" horiz-adv-x="425" 
d="M393 708l-44 -249h-80l44 249h80zM233 708l-44 -249h-81l45 249h80z" />
    <glyph glyph-name="numbersign" unicode="#" horiz-adv-x="573" 
d="M53 0l67 211h-96l13 72h105l45 143h-98l12 72h109l67 210h74l-67 -210h118l67 210h74l-67 -210h90l-12 -72h-101l-45 -143h93l-12 -72h-102l-68 -211h-74l68 211h-119l-67 -211h-74zM261 426l-45 -143h119l45 143h-119z" />
    <glyph glyph-name="dollar" unicode="$" horiz-adv-x="595" 
d="M560 637l-75 -57c-21 31 -59 57 -109 59l-43 -240c96 -38 170 -87 170 -190c0 -106 -77 -210 -242 -220l-13 -73h-46l13 73c-80 4 -161 39 -201 106l79 54c24 -43 76 -77 136 -80l45 255c-86 29 -167 79 -167 181c0 118 87 209 236 215l13 72h46l-13 -72
c76 -6 137 -37 171 -83zM329 639c-67 -4 -128 -43 -128 -122c0 -54 33 -82 88 -103zM407 198c0 58 -38 88 -90 111l-42 -240c77 4 132 56 132 129z" />
    <glyph glyph-name="percent" unicode="%" horiz-adv-x="868" 
d="M415 574c0 -116 -83 -208 -200 -208c-91 0 -158 62 -158 149c0 114 85 205 202 205c92 0 156 -59 156 -146zM326 560c0 43 -29 77 -76 77c-59 0 -102 -49 -102 -112c0 -43 28 -76 74 -76c61 0 104 49 104 111zM813 196c0 -116 -83 -208 -200 -208c-91 0 -158 62 -158 149
c0 114 85 205 202 205c92 0 156 -59 156 -146zM724 182c0 43 -29 77 -76 77c-59 0 -102 -49 -102 -112c0 -43 28 -76 74 -76c61 0 104 49 104 111zM743 699l-563 -739l-60 42l564 739z" />
    <glyph glyph-name="ampersand" unicode="&#x26;" horiz-adv-x="722" 
d="M680 379l-163 -211l139 -168h-119l-75 97c-73 -78 -144 -110 -226 -110c-123 0 -211 61 -211 183c0 118 101 189 197 227c-31 40 -50 91 -50 141c0 112 80 188 187 188c99 0 173 -57 173 -156c0 -91 -76 -152 -184 -198l114 -142l105 149h113zM441 565
c0 50 -30 85 -81 85c-59 0 -100 -45 -100 -106c0 -42 22 -87 46 -114c75 30 135 73 135 135zM406 161l-138 174c-77 -30 -144 -74 -144 -159c0 -65 53 -107 119 -107c65 0 114 32 163 92z" />
    <glyph glyph-name="quotesingle" unicode="'" horiz-adv-x="265" 
d="M108 459l44 249h81l-44 -249h-81z" />
    <glyph glyph-name="parenleft" unicode="(" horiz-adv-x="315" 
d="M104 172c0 -108 24 -212 68 -293l-71 -35c-51 86 -81 205 -81 327c0 204 89 403 236 562l59 -43c-131 -146 -211 -339 -211 -518z" />
    <glyph glyph-name="parenright" unicode=")" horiz-adv-x="315" 
d="M209 405c0 108 -25 212 -68 293l71 35c51 -86 81 -205 81 -327c0 -204 -89 -403 -236 -562l-59 43c131 146 211 339 211 518z" />
    <glyph glyph-name="asterisk" unicode="*" horiz-adv-x="453" 
d="M304 579l127 41l27 -76l-127 -41l81 -109l-64 -48l-84 113l-84 -113l-64 48l81 109l-127 41l27 76l127 -41v129h80v-129z" />
    <glyph glyph-name="plus" unicode="+" horiz-adv-x="666" 
d="M374 566v-222h222v-82h-222v-222h-82v222h-222v82h222v222h82z" />
    <glyph glyph-name="comma" unicode="," horiz-adv-x="260" 
d="M163 116l-127 -249h-79l113 249h93z" />
    <glyph glyph-name="hyphen" unicode="-" horiz-adv-x="320" 
d="M272 284l-14 -79h-232l14 79h232z" />
    <glyph glyph-name="period" unicode="." horiz-adv-x="260" 
d="M145 61c0 -35 -28 -66 -64 -66c-35 0 -63 23 -63 62c0 38 31 66 66 66c34 0 61 -24 61 -62z" />
    <glyph glyph-name="slash" unicode="/" horiz-adv-x="379" 
d="M447 716l-438 -749l-66 25l440 749z" />
    <glyph glyph-name="zero" unicode="0" horiz-adv-x="595" 
d="M363 726c141 0 196 -111 196 -243c0 -204 -81 -501 -308 -501c-142 0 -198 107 -198 239c0 207 83 505 310 505zM355 646c-121 0 -205 -211 -205 -411c0 -93 27 -172 108 -172c119 0 202 209 202 410c0 94 -25 173 -105 173z" />
    <glyph glyph-name="one" unicode="1" horiz-adv-x="595" 
d="M449 708l-125 -708h-95l105 593l-155 -113l-45 71l225 157h90z" />
    <glyph glyph-name="two" unicode="2" horiz-adv-x="595" 
d="M484 86l-15 -86h-461l16 92l327 279c73 62 108 107 108 170c0 65 -48 104 -116 104c-75 0 -127 -48 -148 -118l-88 22c37 110 126 177 241 177c120 0 208 -68 208 -178s-57 -164 -154 -245l-259 -217h341z" />
    <glyph glyph-name="three" unicode="3" horiz-adv-x="595" 
d="M217 331l14 78h33c116 0 176 50 176 140c0 59 -44 97 -108 97c-61 0 -107 -29 -136 -83l-74 43c50 81 125 120 217 120c106 0 196 -63 196 -175c0 -95 -60 -158 -149 -181v-2c67 -16 116 -75 116 -149c0 -143 -104 -237 -256 -237c-110 0 -193 57 -222 151l91 30
c14 -64 69 -99 137 -99c94 0 152 58 152 145c0 88 -70 122 -156 122h-31z" />
    <glyph glyph-name="four" unicode="4" horiz-adv-x="595" 
d="M521 708l-83 -466h103l-15 -83h-101l-27 -159h-92l27 159h-327l16 92l375 457h124zM347 242l65 363h-3l-291 -363h229z" />
    <glyph glyph-name="five" unicode="5" horiz-adv-x="595" 
d="M542 708l-16 -84h-275l-39 -187c24 8 54 12 83 12c111 0 212 -70 212 -200c0 -161 -110 -267 -267 -267c-110 0 -191 59 -219 136l87 36c18 -54 68 -90 131 -90c109 0 169 75 169 171c0 88 -64 138 -146 138c-51 0 -112 -17 -156 -42l75 377h361z" />
    <glyph glyph-name="six" unicode="6" horiz-adv-x="595" 
d="M519 241c0 -146 -104 -259 -267 -259c-129 0 -223 85 -223 208c0 70 32 137 101 221l241 297h115l-243 -288l1 -3c19 10 45 17 71 17c126 0 204 -84 204 -193zM423 233c0 75 -52 128 -124 128c-103 0 -174 -74 -174 -171c0 -75 56 -129 130 -129c103 0 168 73 168 172z
" />
    <glyph glyph-name="seven" unicode="7" horiz-adv-x="595" 
d="M585 708l-15 -87l-404 -621h-116l418 623h-343l15 85h445z" />
    <glyph glyph-name="eight" unicode="8" horiz-adv-x="595" 
d="M549 556c0 -101 -69 -161 -143 -185l1 -2c62 -19 109 -76 109 -149c0 -151 -119 -238 -259 -238c-105 0 -212 56 -212 189c0 111 81 188 173 207v3c-52 23 -88 72 -88 133c0 131 104 212 226 212c104 0 193 -56 193 -170zM458 542c0 67 -44 104 -109 104
c-77 0 -130 -60 -130 -131c0 -56 40 -101 104 -101c78 0 135 62 135 128zM423 218c0 68 -49 116 -120 116c-95 0 -165 -66 -165 -154c0 -76 54 -118 123 -118c103 0 162 68 162 156z" />
    <glyph glyph-name="nine" unicode="9" horiz-adv-x="595" 
d="M581 518c0 -70 -32 -137 -101 -221l-241 -297h-115l243 288l-1 3c-9 -5 -21 -9 -33 -12s-25 -5 -38 -5c-126 0 -204 84 -204 193c0 146 104 259 267 259c129 0 223 -85 223 -208zM486 518c0 75 -57 129 -131 129c-103 0 -169 -73 -169 -172c0 -75 53 -128 125 -128
c103 0 175 74 175 171z" />
    <glyph glyph-name="colon" unicode=":" horiz-adv-x="300" 
d="M170 61c0 -35 -29 -66 -64 -66s-64 23 -64 62c0 38 31 66 66 66s62 -24 62 -62zM227 417c0 -35 -28 -66 -64 -66c-35 0 -63 23 -63 62s31 67 66 67c34 0 61 -24 61 -63z" />
    <glyph glyph-name="semicolon" unicode=";" horiz-adv-x="300" 
d="M180 116l-127 -249h-82l112 249h97zM227 417c0 -35 -28 -66 -64 -66c-35 0 -63 23 -63 62s31 67 66 67c34 0 61 -24 61 -63z" />
    <glyph glyph-name="less" unicode="&#x3c;" horiz-adv-x="666" 
d="M589 564v-85l-385 -176l383 -176v-85l-508 231v60z" />
    <glyph glyph-name="equal" unicode="=" horiz-adv-x="666" 
d="M70 426h526v-81h-526v81zM70 261h526v-81h-526v81z" />
    <glyph glyph-name="greater" unicode="&#x3e;" horiz-adv-x="666" 
d="M79 479v85l508 -231v-60l-508 -231v85l383 176z" />
    <glyph glyph-name="question" unicode="?" horiz-adv-x="500" 
d="M286 233l-5 -33h-92l8 49c11 71 43 109 96 150l43 34c39 30 75 61 75 116c0 56 -36 89 -96 89c-75 0 -118 -51 -132 -111l-89 16c24 105 113 180 228 180c101 0 187 -48 187 -169c0 -83 -48 -134 -125 -188c-62 -44 -88 -67 -98 -133zM286 61c0 -35 -29 -66 -64 -66
s-63 23 -63 62c0 38 31 66 65 66c35 0 62 -24 62 -62z" />
    <glyph glyph-name="at" unicode="@" horiz-adv-x="800" 
d="M788 449c0 -155 -92 -289 -230 -289c-57 0 -89 32 -81 71h-4c-22 -32 -68 -71 -128 -71c-83 0 -128 49 -128 123c0 109 85 266 231 266c51 0 91 -25 98 -58h2l17 43h75l-73 -187c-7 -18 -23 -61 -23 -81c0 -26 9 -38 37 -38c75 0 130 109 130 213
c0 135 -100 215 -242 215c-207 0 -348 -167 -348 -362c0 -150 106 -243 270 -243c106 0 190 37 264 99l36 -53c-82 -76 -190 -115 -310 -115c-217 0 -345 129 -345 309c0 236 182 435 434 435c187 0 318 -102 318 -277zM503 411c0 37 -14 68 -62 68
c-68 0 -138 -87 -138 -182c0 -33 13 -67 60 -67c79 0 140 100 140 181z" />
    <glyph glyph-name="A" unicode="A" horiz-adv-x="681" 
d="M155 174l-108 -174h-115l459 708h89l144 -708h-103l-34 174h-332zM413 597l-207 -336h267z" />
    <glyph glyph-name="B" unicode="B" horiz-adv-x="633" 
d="M32 0l125 708h226c98 0 206 -40 206 -155c0 -94 -63 -158 -156 -181v-2c77 -12 132 -68 132 -151c0 -144 -125 -219 -302 -219h-231zM239 626l-39 -218h137c66 0 152 31 152 124c0 67 -57 94 -131 94h-119zM186 326l-43 -243h129c102 0 194 37 194 141
c0 63 -51 102 -140 102h-140z" />
    <glyph glyph-name="C" unicode="C" horiz-adv-x="700" 
d="M586 166l66 -55c-56 -71 -149 -129 -282 -129c-189 0 -317 123 -317 304c0 245 185 440 420 440c104 0 198 -44 239 -110l-81 -59c-21 40 -76 85 -161 85c-185 0 -315 -170 -315 -344c0 -127 80 -231 224 -231c78 0 151 31 207 99z" />
    <glyph glyph-name="D" unicode="D" horiz-adv-x="757" 
d="M32 0l125 708h229c159 0 330 -84 330 -296c0 -249 -184 -412 -432 -412h-252zM239 624l-95 -538h145c213 0 324 154 324 314c0 122 -77 224 -251 224h-123z" />
    <glyph glyph-name="E" unicode="E" horiz-adv-x="582" 
d="M186 325l-42 -238h367l-15 -87h-464l125 708h436l-15 -86h-340l-37 -214h324l-15 -83h-324z" />
    <glyph glyph-name="F" unicode="F" horiz-adv-x="553" 
d="M186 318l-56 -318h-98l125 708h428l-15 -86h-330l-40 -221h309l-14 -83h-309z" />
    <glyph glyph-name="G" unicode="G" horiz-adv-x="755" 
d="M387 67c66 1 121 14 164 38l35 198h-160l16 84h254l-60 -343c-77 -41 -168 -62 -261 -62c-193 0 -322 123 -322 304c0 245 185 440 420 440c104 0 198 -39 244 -110l-81 -59c-26 44 -81 85 -166 85c-185 0 -315 -170 -315 -344c0 -131 84 -231 232 -231z" />
    <glyph glyph-name="H" unicode="H" horiz-adv-x="719" 
d="M32 0l125 708h98l-53 -297h350l53 297h98l-125 -708h-98l57 325h-350l-57 -325h-98z" />
    <glyph glyph-name="I" unicode="I" horiz-adv-x="271" 
d="M255 708l-125 -708h-98l125 708h98z" />
    <glyph glyph-name="J" unicode="J" horiz-adv-x="491" 
d="M-17 129l89 26c7 -48 40 -87 94 -87c90 0 116 70 130 153l86 487h98l-87 -492c-17 -100 -57 -234 -224 -234c-109 0 -175 63 -186 147z" />
    <glyph glyph-name="K" unicode="K" horiz-adv-x="621" 
d="M254 708l-56 -316h2l339 316h136l-377 -331l285 -377h-127l-261 366h-2l-64 -366h-97l125 708h97z" />
    <glyph glyph-name="L" unicode="L" horiz-adv-x="511" 
d="M255 708l-111 -621h317l-14 -87h-415l125 708h98z" />
    <glyph glyph-name="M" unicode="M" horiz-adv-x="903" 
d="M308 708l115 -546h1l310 546h152l-124 -708h-97l105 591h-3l-341 -591h-62l-131 591h-2l-105 -591h-94l125 708h151z" />
    <glyph glyph-name="N" unicode="N" horiz-adv-x="768" 
d="M282 708l259 -570h2l100 570h98l-125 -708h-122l-260 582h-2l-103 -582h-97l125 708h125z" />
    <glyph glyph-name="O" unicode="O" horiz-adv-x="831" 
d="M381 -18c-197 0 -328 119 -328 306c0 242 178 438 412 438c193 0 325 -119 325 -305c0 -242 -173 -439 -409 -439zM688 412c0 127 -81 230 -228 230c-185 0 -305 -171 -305 -345c0 -126 80 -230 228 -230c187 0 305 169 305 345z" />
    <glyph glyph-name="P" unicode="P" horiz-adv-x="595" 
d="M32 0l125 708h202c146 0 229 -67 229 -178c0 -150 -116 -219 -283 -219h-121l-55 -311h-97zM240 625l-42 -232h112c109 0 180 38 180 126c0 81 -58 106 -144 106h-106z" />
    <glyph glyph-name="Q" unicode="Q" horiz-adv-x="827" 
d="M780 427c0 -185 -99 -294 -190 -342v-3h189l-15 -82h-383c-187 0 -327 105 -327 297c0 239 176 429 405 429c189 0 321 -117 321 -299zM679 414c0 128 -79 228 -222 228c-183 0 -303 -166 -303 -333c0 -133 86 -224 231 -224c163 0 294 154 294 329z" />
    <glyph glyph-name="R" unicode="R" horiz-adv-x="612" 
d="M184 316l-55 -316h-97l125 708h201c140 0 232 -62 232 -176c0 -122 -83 -187 -197 -206l151 -326h-110l-141 316h-109zM239 625l-41 -228h109c101 0 183 29 183 124c0 74 -57 104 -147 104h-104z" />
    <glyph glyph-name="S" unicode="S" horiz-adv-x="569" 
d="M557 638l-76 -58c-26 39 -74 64 -131 64c-66 0 -152 -37 -152 -126c0 -61 48 -88 114 -113c103 -38 186 -89 186 -197c0 -130 -103 -226 -265 -226c-90 0 -185 36 -231 110l82 55c26 -46 84 -82 153 -82c81 0 158 45 158 132c0 73 -64 103 -138 130
c-83 31 -159 76 -159 182c0 132 111 217 261 217c82 0 160 -33 198 -88z" />
    <glyph glyph-name="T" unicode="T" horiz-adv-x="535" 
d="M370 622l-110 -622h-98l110 622h-224l15 86h544l-15 -86h-222z" />
    <glyph glyph-name="U" unicode="U" horiz-adv-x="712" 
d="M317 -18c-167 0 -249 98 -249 218c0 21 2 41 6 62l78 446h98l-78 -440c-3 -17 -5 -36 -5 -53c0 -79 41 -148 153 -148c139 0 188 100 206 201l77 440h98l-78 -446c-26 -143 -110 -280 -306 -280z" />
    <glyph glyph-name="V" unicode="V" horiz-adv-x="628" 
d="M180 708l80 -581h3l343 581h107l-431 -708h-93l-113 708h104z" />
    <glyph glyph-name="W" unicode="W" horiz-adv-x="982" 
d="M187 708l46 -566h2l275 566h108l57 -566h2l267 566h104l-344 -708h-102l-61 572h-2l-283 -572h-103l-69 708h103z" />
    <glyph glyph-name="X" unicode="X" horiz-adv-x="622" 
d="M215 708l117 -267l226 267h121l-302 -342l173 -366h-113l-132 297l-252 -297h-127l334 375l-156 333h111z" />
    <glyph glyph-name="Y" unicode="Y" horiz-adv-x="560" 
d="M322 306l-54 -306h-98l54 306l-178 402h111l130 -322l259 322h120z" />
    <glyph glyph-name="Z" unicode="Z" horiz-adv-x="580" 
d="M617 708l-16 -86l-490 -535h403l-15 -87h-532l15 86l493 536h-367l15 86h494z" />
    <glyph glyph-name="bracketleft" unicode="[" horiz-adv-x="315" 
d="M311 732l-12 -66h-93l-133 -756h93l-12 -66h-177l157 888h177z" />
    <glyph glyph-name="backslash" unicode="\" horiz-adv-x="380" 
d="M311 -33l-307 749l70 26l308 -751z" />
    <glyph glyph-name="bracketright" unicode="]" horiz-adv-x="315" 
d="M-3 -156l12 66h93l134 756h-93l11 66h177l-157 -888h-177z" />
    <glyph glyph-name="asciicircum" unicode="^" horiz-adv-x="666" 
d="M74 309l226 399h66l226 -399h-91l-169 300l-167 -300h-91z" />
    <glyph glyph-name="underscore" unicode="_" horiz-adv-x="500" 
d="M-76 -125l9 50h500l-9 -50h-500z" />
    <glyph glyph-name="grave" unicode="`" 
d="M156 564l-137 144h110l100 -144h-73z" />
    <glyph glyph-name="a" unicode="a" horiz-adv-x="537" 
d="M370 296c3 19 4 28 4 37c0 56 -36 79 -100 79c-50 0 -105 -23 -142 -52l-38 62c50 40 123 65 193 65c90 0 176 -38 176 -140c0 -12 -2 -35 -4 -48l-35 -192c-6 -37 -11 -81 -11 -107h-85c0 20 2 44 6 66h-2c-45 -53 -96 -76 -168 -76c-65 0 -147 29 -147 125
c0 154 188 181 353 181zM360 228h-15c-104 0 -236 -14 -236 -100c0 -52 44 -67 87 -67c84 0 144 60 157 132z" />
    <glyph glyph-name="b" unicode="b" horiz-adv-x="633" 
d="M135 80h-2l-14 -80h-89l133 756h93l-65 -358h2c34 51 99 89 172 89c125 0 207 -83 207 -205c0 -162 -113 -294 -269 -294c-69 0 -138 33 -168 92zM477 273c0 77 -47 137 -132 137c-106 0 -188 -95 -188 -208c0 -80 53 -138 136 -138c111 0 184 93 184 209z" />
    <glyph glyph-name="c" unicode="c" horiz-adv-x="496" 
d="M491 407l-72 -54c-16 32 -57 57 -104 57c-109 0 -188 -95 -188 -207c0 -76 46 -138 136 -138c59 0 99 24 130 57l56 -52c-50 -50 -111 -83 -192 -83c-136 0 -224 83 -224 205c0 158 113 295 287 295c70 0 139 -25 171 -80z" />
    <glyph glyph-name="d" unicode="d" horiz-adv-x="628" 
d="M30 193c0 162 114 294 270 294c77 0 136 -34 165 -91h2l63 360h93l-134 -756h-90l13 76h-2c-34 -52 -100 -88 -173 -88c-125 0 -207 83 -207 205zM126 202c0 -77 47 -137 132 -137c105 0 188 95 188 208c0 80 -54 138 -136 138c-111 0 -184 -93 -184 -209z" />
    <glyph glyph-name="e" unicode="e" horiz-adv-x="565" 
d="M494 209h-372c-1 -6 -1 -11 -1 -16c0 -75 60 -129 138 -129c67 0 116 31 149 72l55 -52c-56 -64 -130 -97 -213 -97c-126 0 -220 77 -220 210c0 158 119 290 277 290c120 0 197 -70 197 -188c0 -19 -3 -60 -10 -90zM132 277h283c1 9 2 21 2 30c0 61 -42 107 -117 107
c-90 0 -152 -69 -168 -137z" />
    <glyph glyph-name="f" unicode="f" horiz-adv-x="309" 
d="M333 474l-14 -75h-111l-70 -399h-91l70 399h-95l14 75h93l18 100c18 99 70 194 196 194c21 0 40 -2 57 -7l-20 -80c-13 4 -27 7 -44 7c-65 0 -88 -56 -98 -115l-18 -99h113z" />
    <glyph glyph-name="g" unicode="g" horiz-adv-x="630" 
d="M-11 -150l62 67c35 -46 97 -76 163 -76c125 0 172 77 192 175l12 63h-2c-38 -52 -100 -84 -171 -84c-126 0 -206 86 -206 206c0 158 113 286 269 286c77 0 138 -34 163 -90h3l13 77h90l-79 -451c-24 -136 -85 -263 -285 -263c-85 0 -175 33 -224 90zM134 208
c0 -76 48 -137 134 -137c107 0 186 94 186 203c0 78 -53 137 -136 137c-110 0 -184 -86 -184 -203z" />
    <glyph glyph-name="h" unicode="h" horiz-adv-x="581" 
d="M347 487c103 0 158 -62 158 -146c0 -16 -1 -31 -4 -48l-52 -293h-93l46 262c4 18 6 36 6 53c0 54 -23 93 -92 93c-75 0 -134 -62 -151 -157l-44 -251h-93l133 756h93l-62 -354h2c30 48 85 85 153 85z" />
    <glyph glyph-name="i" unicode="i" horiz-adv-x="259" 
d="M205 474l-84 -474h-92l83 474h93zM245 647c0 -33 -26 -61 -59 -61c-32 0 -59 21 -59 57s29 62 61 62s57 -23 57 -58z" />
    <glyph glyph-name="j" unicode="j" horiz-adv-x="259" 
d="M-118 -234l19 79c11 -3 26 -5 37 -5c57 0 70 44 81 101l94 533h93l-95 -536c-16 -94 -50 -178 -174 -178c-17 0 -41 3 -55 6zM245 647c0 -33 -26 -61 -59 -61c-32 0 -59 21 -59 57s29 62 61 62s57 -23 57 -58z" />
    <glyph glyph-name="k" unicode="k" horiz-adv-x="504" 
d="M255 756l-86 -489h3l228 207h123l-256 -220l195 -254h-117l-177 246h-3l-43 -246h-93l133 756h93z" />
    <glyph glyph-name="l" unicode="l" horiz-adv-x="260" 
d="M256 756l-134 -756h-93l133 756h94z" />
    <glyph glyph-name="m" unicode="m" horiz-adv-x="884" 
d="M648 487c106 0 161 -62 161 -146c0 -16 -2 -31 -5 -48l-52 -293h-92l46 262c3 18 5 36 5 53c0 54 -23 94 -91 94c-87 0 -129 -79 -142 -153l-45 -256h-93l50 281c3 16 5 31 5 44c0 50 -24 84 -83 84c-69 0 -130 -63 -147 -157l-44 -252h-93l65 371c5 25 12 71 15 103h88
l-10 -77h2c33 51 85 90 155 90c65 0 122 -30 137 -97c39 61 96 97 168 97z" />
    <glyph glyph-name="n" unicode="n" horiz-adv-x="581" 
d="M108 474h88c-2 -19 -6 -56 -10 -77h2c35 54 91 90 158 90c104 0 159 -62 159 -146c0 -16 -1 -31 -4 -48l-52 -293h-93l46 262c4 18 6 36 6 53c0 54 -23 93 -92 93c-74 0 -134 -62 -151 -156l-44 -252h-93l65 371c5 25 12 71 15 103z" />
    <glyph glyph-name="o" unicode="o" horiz-adv-x="600" 
d="M255 -13c-130 0 -225 85 -225 207c0 157 115 293 285 293c131 0 224 -83 224 -205c0 -160 -114 -295 -284 -295zM445 273c0 78 -52 137 -136 137c-109 0 -185 -97 -185 -208c0 -79 51 -137 136 -137c109 0 185 96 185 208z" />
    <glyph glyph-name="p" unicode="p" horiz-adv-x="632" 
d="M191 398c34 51 100 88 173 88c125 0 207 -83 207 -205c0 -162 -114 -294 -270 -294c-77 0 -136 34 -165 90h-2l-55 -317h-93l126 714h90l-13 -76h2zM475 272c0 77 -47 137 -132 137c-105 0 -188 -95 -188 -208c0 -80 54 -138 137 -138c110 0 183 93 183 209z" />
    <glyph glyph-name="q" unicode="q" horiz-adv-x="626" 
d="M30 193c0 162 114 294 270 294c69 0 136 -34 167 -93h2l14 80h90l-126 -714h-93l58 316h-2c-34 -52 -100 -88 -173 -88c-125 0 -207 83 -207 205zM126 202c0 -77 47 -137 132 -137c105 0 188 95 188 208c0 80 -54 138 -136 138c-111 0 -184 -93 -184 -209z" />
    <glyph glyph-name="r" unicode="r" horiz-adv-x="343" 
d="M92 371c5 25 12 71 15 103h88l-10 -80h2c33 55 84 93 148 93c13 0 26 -1 37 -4l-16 -87c-12 3 -27 5 -41 5c-91 0 -138 -73 -152 -152l-44 -249h-92z" />
    <glyph glyph-name="s" unicode="s" horiz-adv-x="444" 
d="M419 407l-72 -47c-18 31 -50 53 -100 53c-44 0 -98 -17 -98 -66c0 -40 31 -52 85 -67c90 -26 141 -64 141 -141c0 -104 -98 -154 -195 -154c-90 0 -158 36 -194 93l75 49c21 -39 66 -65 119 -65c56 0 104 23 104 70c0 41 -33 58 -98 79c-74 23 -127 52 -127 128
c0 94 93 148 195 148c73 0 136 -29 165 -80z" />
    <glyph glyph-name="t" unicode="t" horiz-adv-x="324" 
d="M329 474l-14 -76h-117l-45 -249c-2 -11 -3 -22 -3 -30c0 -40 23 -51 57 -51c18 0 39 5 51 11l-7 -74c-19 -8 -48 -13 -75 -13c-73 0 -120 32 -120 102c0 14 1 31 4 47l46 257h-90l14 76h89l23 136h92l-24 -136h119z" />
    <glyph glyph-name="u" unicode="u" horiz-adv-x="581" 
d="M440 0h-88l10 77h-2c-34 -54 -91 -90 -158 -90c-103 0 -159 62 -159 147c0 15 2 31 5 47l52 293h92l-46 -261c-3 -19 -5 -37 -5 -54c0 -54 23 -93 91 -93c74 0 135 62 151 156l45 252h92l-65 -371c-5 -25 -12 -71 -15 -103z" />
    <glyph glyph-name="v" unicode="v" horiz-adv-x="490" 
d="M511 474l-284 -474h-99l-96 474h96l66 -374h2l216 374h99z" />
    <glyph glyph-name="w" unicode="w" horiz-adv-x="759" 
d="M40 474h97l33 -362h2l185 362h93l47 -362h3l180 362h98l-250 -474h-96l-48 359h-2l-187 -359h-96z" />
    <glyph glyph-name="x" unicode="x" horiz-adv-x="489" 
d="M421 0h-106l-94 185l-170 -185h-117l244 251l-123 223h101l84 -167l152 167h113l-221 -230z" />
    <glyph glyph-name="y" unicode="y" horiz-adv-x="495" 
d="M139 474l68 -373h2l210 373h100l-347 -586c-47 -79 -89 -128 -170 -128c-20 0 -39 2 -59 7l13 82c14 -5 30 -8 44 -8c43 0 67 28 97 79l47 80l-104 474h99z" />
    <glyph glyph-name="z" unicode="z" horiz-adv-x="461" 
d="M450 474l-13 -76l-328 -320h279l-13 -78h-396l13 76l327 322h-254l14 76h371z" />
    <glyph glyph-name="braceleft" unicode="{" horiz-adv-x="315" 
d="M-2 251l14 74c40 0 78 27 89 90l34 188c16 92 78 129 140 129h68l-12 -69h-51c-44 0 -58 -38 -64 -72l-32 -183c-15 -87 -86 -115 -114 -119v-2c23 -3 74 -21 74 -90c0 -10 -1 -20 -3 -32l-31 -180c-2 -10 -3 -21 -3 -30c0 -23 10 -42 41 -42h51l-12 -69h-68
c-55 0 -99 29 -99 99c0 10 1 19 3 30l33 184c2 10 3 20 3 28c0 47 -27 66 -61 66z" />
    <glyph glyph-name="bar" unicode="|" horiz-adv-x="222" 
d="M70 750h82v-1000h-82v1000z" />
    <glyph glyph-name="braceright" unicode="}" horiz-adv-x="315" 
d="M319 325l-14 -74c-40 0 -78 -27 -89 -90l-34 -188c-16 -92 -78 -129 -140 -129h-68l12 69h51c44 0 58 38 64 72l32 183c15 87 86 115 114 119v2c-23 3 -74 21 -74 90c0 10 1 20 3 32l31 180c2 10 3 21 3 30c0 23 -10 42 -41 42h-51l12 69h68c55 0 99 -29 99 -99
c0 -10 -1 -19 -3 -30l-33 -184c-2 -10 -3 -20 -3 -28c0 -47 27 -66 61 -66z" />
    <glyph glyph-name="asciitilde" unicode="~" horiz-adv-x="666" 
d="M340 346c52 -33 70 -39 99 -39c33 0 63 24 87 68l59 -55c-47 -78 -99 -97 -144 -97c-39 0 -69 9 -116 38c-51 32 -69 38 -98 38c-33 0 -63 -24 -87 -68l-59 55c47 78 99 98 144 98c40 0 70 -9 115 -38z" />
    <glyph glyph-name="uni00A0" unicode="&#xa0;" 
 />
    <glyph glyph-name="Agrave" unicode="&#xc0;" horiz-adv-x="681" 
d="M155 174l-108 -174h-115l459 708h89l144 -708h-103l-34 174h-332zM413 597l-207 -336h267zM406 764l-137 144h110l100 -144h-73z" />
    <glyph glyph-name="Aacute" unicode="&#xc1;" horiz-adv-x="681" 
d="M155 174l-108 -174h-115l459 708h89l144 -708h-103l-34 174h-332zM413 597l-207 -336h267zM632 908l-162 -144h-74l125 144h111z" />
    <glyph glyph-name="Acircumflex" unicode="&#xc2;" horiz-adv-x="681" 
d="M155 174l-108 -174h-115l459 708h89l144 -708h-103l-34 174h-332zM413 597l-207 -336h267zM523 908l86 -144h-86l-59 99l-94 -99h-91l138 144h106z" />
    <glyph glyph-name="Atilde" unicode="&#xc3;" horiz-adv-x="681" 
d="M155 174l-108 -174h-115l459 708h89l144 -708h-103l-34 174h-332zM413 597l-207 -336h267zM326 772h-55c20 58 55 115 123 115c26 0 50 -9 72 -21c23 -11 44 -21 63 -21c28 0 45 24 55 47h55c-21 -58 -55 -115 -123 -115c-24 0 -47 10 -69 20c-23 12 -45 22 -65 22
c-29 0 -45 -24 -56 -47z" />
    <glyph glyph-name="Adieresis" unicode="&#xc4;" horiz-adv-x="681" 
d="M155 174l-108 -174h-115l459 708h89l144 -708h-103l-34 174h-332zM413 597l-207 -336h267zM616 847c0 -33 -25 -60 -59 -60c-32 0 -58 21 -58 57s28 61 61 61c32 0 56 -22 56 -58zM418 847c0 -33 -25 -60 -58 -60s-59 21 -59 57s29 61 61 61s56 -22 56 -58z" />
    <glyph glyph-name="Amacron" unicode="&#x100;" horiz-adv-x="681" 
d="M155 174l-108 -174h-115l459 708h89l144 -708h-103l-34 174h-332zM413 597l-207 -336h267zM606 863l-12 -66h-294l11 66h295z" />
    <glyph glyph-name="Abreve" unicode="&#x102;" horiz-adv-x="681" 
d="M155 174l-108 -174h-115l459 708h89l144 -708h-103l-34 174h-332zM413 597l-207 -336h267zM563 908h55c-19 -88 -87 -138 -175 -138s-142 44 -142 138h56c0 -54 40 -72 90 -72c56 0 101 18 116 72z" />
    <glyph glyph-name="Aring" unicode="&#xc5;" horiz-adv-x="681" 
d="M155 174l-108 -174h-115l459 708h89l144 -708h-103l-34 174h-332zM413 597l-207 -336h267zM445 753c-51 0 -87 36 -87 83c0 63 46 115 111 115c52 0 87 -34 87 -82c0 -65 -46 -116 -111 -116zM515 863c0 28 -19 51 -49 51c-39 0 -66 -32 -66 -73c0 -28 18 -50 48 -50
c39 0 67 32 67 72z" />
    <glyph glyph-name="Aogonek" unicode="&#x104;" horiz-adv-x="681" 
d="M571 -147l14 -44c-30 -22 -64 -37 -99 -37c-47 0 -83 24 -83 75c0 64 66 119 117 155l-33 172h-332l-108 -174h-115l459 708h89l144 -708h-52c-51 -42 -98 -90 -98 -133c0 -27 18 -35 41 -35c19 0 40 8 56 21zM413 597l-207 -336h267z" />
    <glyph glyph-name="AE" unicode="&#xc6;" horiz-adv-x="1006" 
d="M919 0h-449l34 193h-273l-153 -193h-115l569 708h485l-15 -86h-327l-38 -214h312l-15 -83h-311l-43 -238h354zM293 275h225l62 347h-12z" />
    <glyph glyph-name="Cacute" unicode="&#x106;" horiz-adv-x="700" 
d="M586 166l66 -55c-56 -71 -149 -129 -282 -129c-189 0 -317 123 -317 304c0 245 185 440 420 440c104 0 198 -44 239 -110l-81 -59c-21 40 -76 85 -161 85c-185 0 -315 -170 -315 -344c0 -127 80 -231 224 -231c78 0 151 31 207 99zM649 908l-162 -144h-74l125 144h111z
" />
    <glyph glyph-name="Ccircumflex" unicode="&#x108;" horiz-adv-x="700" 
d="M586 166l66 -55c-56 -71 -149 -129 -282 -129c-189 0 -317 123 -317 304c0 245 185 440 420 440c104 0 198 -44 239 -110l-81 -59c-21 40 -76 85 -161 85c-185 0 -315 -170 -315 -344c0 -127 80 -231 224 -231c78 0 151 31 207 99zM577 908l86 -144h-86l-59 99l-94 -99
h-91l138 144h106z" />
    <glyph glyph-name="Ccaron" unicode="&#x10c;" horiz-adv-x="700" 
d="M586 166l66 -55c-56 -71 -149 -129 -282 -129c-189 0 -317 123 -317 304c0 245 185 440 420 440c104 0 198 -44 239 -110l-81 -59c-21 40 -76 85 -161 85c-185 0 -315 -170 -315 -344c0 -127 80 -231 224 -231c78 0 151 31 207 99zM680 908l-137 -144h-106l-86 144h87
l58 -99l94 99h90z" />
    <glyph glyph-name="Cdotaccent" unicode="&#x10a;" horiz-adv-x="700" 
d="M586 166l66 -55c-56 -71 -149 -129 -282 -129c-189 0 -317 123 -317 304c0 245 185 440 420 440c104 0 198 -44 239 -110l-81 -59c-21 40 -76 85 -161 85c-185 0 -315 -170 -315 -344c0 -127 80 -231 224 -231c78 0 151 31 207 99zM561 847c0 -33 -26 -61 -59 -61
c-32 0 -59 21 -59 57s29 62 61 62s57 -23 57 -58z" />
    <glyph glyph-name="Ccedilla" unicode="&#xc7;" horiz-adv-x="700" 
d="M586 166l66 -55c-54 -68 -142 -124 -266 -128l-44 -53c10 3 18 3 26 3c35 0 82 -17 82 -71c0 -73 -77 -97 -132 -97c-34 0 -78 9 -104 23l24 42c22 -11 50 -17 76 -17s65 8 65 43c0 28 -23 37 -48 37c-13 0 -29 -3 -42 -7l-17 20l65 78c-171 13 -284 131 -284 302
c0 245 185 440 420 440c104 0 198 -44 239 -110l-81 -59c-21 40 -76 85 -161 85c-185 0 -315 -170 -315 -344c0 -127 80 -231 224 -231c78 0 151 31 207 99z" />
    <glyph glyph-name="Dcaron" unicode="&#x10e;" horiz-adv-x="757" 
d="M32 0l125 708h229c159 0 330 -84 330 -296c0 -249 -184 -412 -432 -412h-252zM239 624l-95 -538h145c213 0 324 154 324 314c0 122 -77 224 -251 224h-123zM603 908l-137 -144h-106l-86 144h87l58 -99l94 99h90z" />
    <glyph glyph-name="Dcroat" unicode="&#x110;" horiz-adv-x="757" 
d="M104 405l53 303h229c159 0 330 -84 330 -296c0 -249 -184 -412 -432 -412h-252l59 336h-66l13 69h66zM188 336l-44 -250h145c213 0 324 154 324 314c0 122 -77 224 -251 224h-123l-39 -219h230l-14 -69h-228z" />
    <glyph glyph-name="Eth" unicode="&#xd0;" horiz-adv-x="757" 
d="M104 405l53 303h229c159 0 330 -84 330 -296c0 -249 -184 -412 -432 -412h-252l59 336h-66l13 69h66zM188 336l-44 -250h145c213 0 324 154 324 314c0 122 -77 224 -251 224h-123l-39 -219h230l-14 -69h-228z" />
    <glyph glyph-name="Egrave" unicode="&#xc8;" horiz-adv-x="582" 
d="M186 325l-42 -238h367l-15 -87h-464l125 708h436l-15 -86h-340l-37 -214h324l-15 -83h-324zM380 764l-137 144h110l100 -144h-73z" />
    <glyph glyph-name="Eacute" unicode="&#xc9;" horiz-adv-x="582" 
d="M186 325l-42 -238h367l-15 -87h-464l125 708h436l-15 -86h-340l-37 -214h324l-15 -83h-324zM547 908l-162 -144h-74l125 144h111z" />
    <glyph glyph-name="Ecircumflex" unicode="&#xca;" horiz-adv-x="582" 
d="M186 325l-42 -238h367l-15 -87h-464l125 708h436l-15 -86h-340l-37 -214h324l-15 -83h-324zM460 908l86 -144h-86l-59 99l-94 -99h-91l138 144h106z" />
    <glyph glyph-name="Ecaron" unicode="&#x11a;" horiz-adv-x="582" 
d="M186 325l-42 -238h367l-15 -87h-464l125 708h436l-15 -86h-340l-37 -214h324l-15 -83h-324zM574 908l-137 -144h-106l-86 144h87l58 -99l94 99h90z" />
    <glyph glyph-name="Edieresis" unicode="&#xcb;" horiz-adv-x="582" 
d="M186 325l-42 -238h367l-15 -87h-464l125 708h436l-15 -86h-340l-37 -214h324l-15 -83h-324zM552 847c0 -33 -25 -60 -59 -60c-32 0 -58 21 -58 57s28 61 61 61c32 0 56 -22 56 -58zM354 847c0 -33 -25 -60 -58 -60s-59 21 -59 57s29 61 61 61s56 -22 56 -58z" />
    <glyph glyph-name="Emacron" unicode="&#x112;" horiz-adv-x="582" 
d="M186 325l-42 -238h367l-15 -87h-464l125 708h436l-15 -86h-340l-37 -214h324l-15 -83h-324zM545 863l-12 -66h-294l11 66h295z" />
    <glyph glyph-name="Ebreve" unicode="&#x114;" horiz-adv-x="582" 
d="M186 325l-42 -238h367l-15 -87h-464l125 708h436l-15 -86h-340l-37 -214h324l-15 -83h-324zM507 908h55c-19 -88 -87 -138 -175 -138s-142 44 -142 138h56c0 -54 40 -72 90 -72c56 0 101 18 116 72z" />
    <glyph glyph-name="Edotaccent" unicode="&#x116;" horiz-adv-x="582" 
d="M186 325l-42 -238h367l-15 -87h-464l125 708h436l-15 -86h-340l-37 -214h324l-15 -83h-324zM452 847c0 -33 -26 -61 -59 -61c-32 0 -59 21 -59 57s29 62 61 62s57 -23 57 -58z" />
    <glyph glyph-name="Eogonek" unicode="&#x118;" horiz-adv-x="582" 
d="M476 -147l14 -44c-30 -22 -64 -37 -99 -37c-47 0 -83 24 -83 75c0 62 64 117 114 153h-390l125 708h436l-15 -86h-340l-37 -214h324l-15 -83h-324l-42 -238h367l-15 -87h-19c-51 -42 -98 -90 -98 -133c0 -27 18 -35 41 -35c19 0 40 8 56 21z" />
    <glyph glyph-name="Gcircumflex" unicode="&#x11c;" horiz-adv-x="755" 
d="M387 67c66 1 121 14 164 38l35 198h-160l16 84h254l-60 -343c-77 -41 -168 -62 -261 -62c-193 0 -322 123 -322 304c0 245 185 440 420 440c104 0 198 -39 244 -110l-81 -59c-26 44 -81 85 -166 85c-185 0 -315 -170 -315 -344c0 -131 84 -231 232 -231zM568 908l86 -144
h-86l-59 99l-94 -99h-91l138 144h106z" />
    <glyph glyph-name="Gbreve" unicode="&#x11e;" horiz-adv-x="755" 
d="M387 67c66 1 121 14 164 38l35 198h-160l16 84h254l-60 -343c-77 -41 -168 -62 -261 -62c-193 0 -322 123 -322 304c0 245 185 440 420 440c104 0 198 -39 244 -110l-81 -59c-26 44 -81 85 -166 85c-185 0 -315 -170 -315 -344c0 -131 84 -231 232 -231zM605 908h55
c-19 -88 -87 -138 -175 -138s-142 44 -142 138h56c0 -54 40 -72 90 -72c56 0 101 18 116 72z" />
    <glyph glyph-name="Gdotaccent" unicode="&#x120;" horiz-adv-x="755" 
d="M387 67c66 1 121 14 164 38l35 198h-160l16 84h254l-60 -343c-77 -41 -168 -62 -261 -62c-193 0 -322 123 -322 304c0 245 185 440 420 440c104 0 198 -39 244 -110l-81 -59c-26 44 -81 85 -166 85c-185 0 -315 -170 -315 -344c0 -131 84 -231 232 -231zM560 847
c0 -33 -26 -61 -59 -61c-32 0 -59 21 -59 57s29 62 61 62s57 -23 57 -58z" />
    <glyph glyph-name="Gcommaaccent" unicode="&#x122;" horiz-adv-x="755" 
d="M387 67c66 1 121 14 164 38l35 198h-160l16 84h254l-60 -343c-77 -41 -168 -62 -261 -62c-193 0 -322 123 -322 304c0 245 185 440 420 440c104 0 198 -39 244 -110l-81 -59c-26 44 -81 85 -166 85c-185 0 -315 -170 -315 -344c0 -131 84 -231 232 -231zM414 -45
l-120 -190h-77l104 190h93z" />
    <glyph glyph-name="Hcircumflex" unicode="&#x124;" horiz-adv-x="719" 
d="M32 0l125 708h98l-53 -297h350l53 297h98l-125 -708h-98l57 325h-350l-57 -325h-98zM516 908l86 -144h-86l-59 99l-94 -99h-91l138 144h106z" />
    <glyph glyph-name="Hbar" unicode="&#x126;" horiz-adv-x="719" 
d="M32 0l125 708h98l-26 -145h350l26 145h98l-125 -708h-98l57 325h-350l-57 -325h-98zM202 411h350l16 89h-350z" />
    <glyph glyph-name="Igrave" unicode="&#xcc;" horiz-adv-x="271" 
d="M255 708l-125 -708h-98l125 708h98zM182 764l-137 144h110l100 -144h-73z" />
    <glyph glyph-name="Iacute" unicode="&#xcd;" horiz-adv-x="271" 
d="M255 708l-125 -708h-98l125 708h98zM400 908l-162 -144h-74l125 144h111z" />
    <glyph glyph-name="Icircumflex" unicode="&#xce;" horiz-adv-x="271" 
d="M255 708l-125 -708h-98l125 708h98zM291 908l86 -144h-86l-59 99l-94 -99h-91l138 144h106z" />
    <glyph glyph-name="Itilde" unicode="&#x128;" horiz-adv-x="271" 
d="M255 708l-125 -708h-98l125 708h98zM94 772h-55c20 58 55 115 123 115c26 0 50 -9 72 -21c23 -11 44 -21 63 -21c28 0 45 24 55 47h55c-21 -58 -55 -115 -123 -115c-24 0 -47 10 -69 20c-23 12 -45 22 -65 22c-29 0 -45 -24 -56 -47z" />
    <glyph glyph-name="Idieresis" unicode="&#xcf;" horiz-adv-x="271" 
d="M255 708l-125 -708h-98l125 708h98zM382 847c0 -33 -25 -60 -59 -60c-32 0 -58 21 -58 57s28 61 61 61c32 0 56 -22 56 -58zM184 847c0 -33 -25 -60 -58 -60s-59 21 -59 57s29 61 61 61s56 -22 56 -58z" />
    <glyph glyph-name="Imacron" unicode="&#x12a;" horiz-adv-x="271" 
d="M255 708l-125 -708h-98l125 708h98zM378 863l-12 -66h-294l11 66h295z" />
    <glyph glyph-name="Idotaccent" unicode="&#x130;" horiz-adv-x="271" 
d="M255 708l-125 -708h-98l125 708h98zM284 847c0 -33 -26 -61 -59 -61c-32 0 -59 21 -59 57s29 62 61 62s57 -23 57 -58z" />
    <glyph glyph-name="Ibreve" unicode="&#x12c;" horiz-adv-x="271" 
d="M255 708l-125 -708h-98l125 708h98zM343 908h55c-19 -88 -87 -138 -175 -138s-142 44 -142 138h56c0 -54 40 -72 90 -72c56 0 101 18 116 72z" />
    <glyph glyph-name="Iogonek" unicode="&#x12e;" horiz-adv-x="271" 
d="M125 -147l14 -44c-30 -22 -64 -37 -99 -37c-47 0 -83 24 -83 75c0 62 64 117 114 153h-39l125 708h98l-125 -708h-4c-51 -42 -98 -90 -98 -133c0 -27 18 -35 41 -35c19 0 40 8 56 21z" />
    <glyph glyph-name="Jcircumflex" unicode="&#x134;" horiz-adv-x="491" 
d="M-17 129l89 26c7 -48 40 -87 94 -87c90 0 116 70 130 153l86 487h98l-87 -492c-17 -100 -57 -234 -224 -234c-109 0 -175 63 -186 147zM513 908l86 -144h-86l-59 99l-94 -99h-91l138 144h106z" />
    <glyph glyph-name="Kcommaaccent" unicode="&#x136;" horiz-adv-x="621" 
d="M254 708l-56 -316h2l339 316h136l-377 -331l285 -377h-127l-261 366h-2l-64 -366h-97l125 708h97zM325 -45l-120 -190h-77l104 190h93z" />
    <glyph glyph-name="Lacute" unicode="&#x139;" horiz-adv-x="511" 
d="M255 708l-111 -621h317l-14 -87h-415l125 708h98zM413 908l-162 -144h-74l125 144h111z" />
    <glyph glyph-name="Lcaron" unicode="&#x13d;" horiz-adv-x="511" 
d="M255 708l-111 -621h317l-14 -87h-415l125 708h98zM484 708l-120 -190h-77l104 190h93z" />
    <glyph glyph-name="Lcommaaccent" unicode="&#x13b;" horiz-adv-x="511" 
d="M255 708l-111 -621h317l-14 -87h-415l125 708h98zM288 -45l-120 -190h-77l104 190h93z" />
    <glyph glyph-name="Lslash" unicode="&#x141;" horiz-adv-x="511" 
d="M255 708l-57 -324l244 184l-16 -89l-244 -184l-37 -208h317l-15 -87h-415l40 222l-89 -66l16 90l88 65l70 397h98z" />
    <glyph glyph-name="Ldot" unicode="&#x13f;" horiz-adv-x="511" 
d="M255 708l-111 -621h317l-14 -87h-415l125 708h98zM415 427c0 -33 -26 -61 -59 -61c-32 0 -59 21 -59 57s29 62 61 62s57 -23 57 -58z" />
    <glyph glyph-name="Nacute" unicode="&#x143;" horiz-adv-x="768" 
d="M282 708l259 -570h2l100 570h98l-125 -708h-122l-260 582h-2l-103 -582h-97l125 708h125zM621 908l-162 -144h-74l125 144h111z" />
    <glyph glyph-name="Ncaron" unicode="&#x147;" horiz-adv-x="768" 
d="M282 708l259 -570h2l100 570h98l-125 -708h-122l-260 582h-2l-103 -582h-97l125 708h125zM644 908l-137 -144h-106l-86 144h87l58 -99l94 99h90z" />
    <glyph glyph-name="Ntilde" unicode="&#xd1;" horiz-adv-x="768" 
d="M282 708l259 -570h2l100 570h98l-125 -708h-122l-260 582h-2l-103 -582h-97l125 708h125zM339 772h-55c20 58 55 115 123 115c26 0 50 -9 72 -21c23 -11 44 -21 63 -21c28 0 45 24 55 47h55c-21 -58 -55 -115 -123 -115c-24 0 -47 10 -69 20c-23 12 -45 22 -65 22
c-29 0 -45 -24 -56 -47z" />
    <glyph glyph-name="Ncommaaccent" unicode="&#x145;" horiz-adv-x="768" 
d="M282 708l259 -570h2l100 570h98l-125 -708h-122l-260 582h-2l-103 -582h-97l125 708h125zM362 -45l-120 -190h-77l104 190h93z" />
    <glyph glyph-name="Eng" unicode="&#x14a;" horiz-adv-x="768" 
d="M282 708l263 -545h2l96 545h98l-136 -770c-16 -94 -50 -178 -174 -178c-17 0 -41 3 -55 6l19 79c11 -3 26 -5 37 -5c57 0 71 44 81 101l8 49l-287 592h-2l-103 -582h-97l125 708h125z" />
    <glyph glyph-name="Ograve" unicode="&#xd2;" horiz-adv-x="831" 
d="M381 -18c-197 0 -328 119 -328 306c0 242 178 438 412 438c193 0 325 -119 325 -305c0 -242 -173 -439 -409 -439zM688 412c0 127 -81 230 -228 230c-185 0 -305 -171 -305 -345c0 -126 80 -230 228 -230c187 0 305 169 305 345zM464 764l-137 144h110l100 -144h-73z" />
    <glyph glyph-name="Oacute" unicode="&#xd3;" horiz-adv-x="831" 
d="M381 -18c-197 0 -328 119 -328 306c0 242 178 438 412 438c193 0 325 -119 325 -305c0 -242 -173 -439 -409 -439zM688 412c0 127 -81 230 -228 230c-185 0 -305 -171 -305 -345c0 -126 80 -230 228 -230c187 0 305 169 305 345zM655 908l-162 -144h-74l125 144h111z" />
    <glyph glyph-name="Ocircumflex" unicode="&#xd4;" horiz-adv-x="831" 
d="M381 -18c-197 0 -328 119 -328 306c0 242 178 438 412 438c193 0 325 -119 325 -305c0 -242 -173 -439 -409 -439zM688 412c0 127 -81 230 -228 230c-185 0 -305 -171 -305 -345c0 -126 80 -230 228 -230c187 0 305 169 305 345zM577 908l86 -144h-86l-59 99l-94 -99h-91
l138 144h106z" />
    <glyph glyph-name="Otilde" unicode="&#xd5;" horiz-adv-x="831" 
d="M381 -18c-197 0 -328 119 -328 306c0 242 178 438 412 438c193 0 325 -119 325 -305c0 -242 -173 -439 -409 -439zM688 412c0 127 -81 230 -228 230c-185 0 -305 -171 -305 -345c0 -126 80 -230 228 -230c187 0 305 169 305 345zM370 772h-55c20 58 55 115 123 115
c26 0 50 -9 72 -21c23 -11 44 -21 63 -21c28 0 45 24 55 47h55c-21 -58 -55 -115 -123 -115c-24 0 -47 10 -69 20c-23 12 -45 22 -65 22c-29 0 -45 -24 -56 -47z" />
    <glyph glyph-name="Odieresis" unicode="&#xd6;" horiz-adv-x="831" 
d="M381 -18c-197 0 -328 119 -328 306c0 242 178 438 412 438c193 0 325 -119 325 -305c0 -242 -173 -439 -409 -439zM688 412c0 127 -81 230 -228 230c-185 0 -305 -171 -305 -345c0 -126 80 -230 228 -230c187 0 305 169 305 345zM661 847c0 -33 -25 -60 -59 -60
c-32 0 -58 21 -58 57s28 61 61 61c32 0 56 -22 56 -58zM463 847c0 -33 -25 -60 -58 -60s-59 21 -59 57s29 61 61 61s56 -22 56 -58z" />
    <glyph glyph-name="Omacron" unicode="&#x14c;" horiz-adv-x="831" 
d="M381 -18c-197 0 -328 119 -328 306c0 242 178 438 412 438c193 0 325 -119 325 -305c0 -242 -173 -439 -409 -439zM688 412c0 127 -81 230 -228 230c-185 0 -305 -171 -305 -345c0 -126 80 -230 228 -230c187 0 305 169 305 345zM655 863l-12 -66h-294l11 66h295z" />
    <glyph glyph-name="Obreve" unicode="&#x14e;" horiz-adv-x="831" 
d="M381 -18c-197 0 -328 119 -328 306c0 242 178 438 412 438c193 0 325 -119 325 -305c0 -242 -173 -439 -409 -439zM688 412c0 127 -81 230 -228 230c-185 0 -305 -171 -305 -345c0 -126 80 -230 228 -230c187 0 305 169 305 345zM607 908h55c-19 -88 -87 -138 -175 -138
s-142 44 -142 138h56c0 -54 40 -72 90 -72c56 0 101 18 116 72z" />
    <glyph glyph-name="Ohungarumlaut" unicode="&#x150;" horiz-adv-x="831" 
d="M381 -18c-197 0 -328 119 -328 306c0 242 178 438 412 438c193 0 325 -119 325 -305c0 -242 -173 -439 -409 -439zM688 412c0 127 -81 230 -228 230c-185 0 -305 -171 -305 -345c0 -126 80 -230 228 -230c187 0 305 169 305 345zM775 908l-163 -144h-76l126 144h113z
M594 908l-162 -144h-76l125 144h113z" />
    <glyph glyph-name="Oslash" unicode="&#xd8;" horiz-adv-x="831" 
d="M686 656l86 81l36 -39l-84 -80c42 -50 66 -117 66 -197c0 -242 -173 -439 -409 -439c-98 0 -181 30 -239 84l-94 -89l-39 38l97 92c-34 49 -53 110 -53 181c0 242 178 438 412 438c88 0 164 -25 221 -70zM650 548l-436 -414c38 -41 95 -67 169 -67c187 0 305 169 305 345
c0 51 -13 98 -38 136zM615 588c-37 34 -90 54 -155 54c-185 0 -305 -171 -305 -345c0 -43 9 -84 28 -118z" />
    <glyph glyph-name="OE" unicode="&#x152;" horiz-adv-x="988" 
d="M999 708l-15 -85h-327l-38 -215h312l-15 -82h-311l-43 -239h355l-15 -87h-519c-159 0 -330 84 -330 296c0 249 184 412 432 412h514zM562 624h-82c-213 0 -325 -154 -325 -314c0 -123 77 -225 251 -225h61z" />
    <glyph glyph-name="Racute" unicode="&#x154;" horiz-adv-x="612" 
d="M184 316l-55 -316h-97l125 708h201c140 0 232 -62 232 -176c0 -122 -83 -187 -197 -206l151 -326h-110l-141 316h-109zM239 625l-41 -228h109c101 0 183 29 183 124c0 74 -57 104 -147 104h-104zM530 908l-162 -144h-74l125 144h111z" />
    <glyph glyph-name="Rcaron" unicode="&#x158;" horiz-adv-x="612" 
d="M184 316l-55 -316h-97l125 708h201c140 0 232 -62 232 -176c0 -122 -83 -187 -197 -206l151 -326h-110l-141 316h-109zM239 625l-41 -228h109c101 0 183 29 183 124c0 74 -57 104 -147 104h-104zM554 908l-137 -144h-106l-86 144h87l58 -99l94 99h90z" />
    <glyph glyph-name="Rcommaaccent" unicode="&#x156;" horiz-adv-x="612" 
d="M184 316l-55 -316h-97l125 708h201c140 0 232 -62 232 -176c0 -122 -83 -187 -197 -206l151 -326h-110l-141 316h-109zM239 625l-41 -228h109c101 0 183 29 183 124c0 74 -57 104 -147 104h-104zM306 -45l-120 -190h-77l104 190h93z" />
    <glyph glyph-name="Sacute" unicode="&#x15a;" horiz-adv-x="569" 
d="M557 638l-76 -58c-26 39 -74 64 -131 64c-66 0 -152 -37 -152 -126c0 -61 48 -88 114 -113c103 -38 186 -89 186 -197c0 -130 -103 -226 -265 -226c-90 0 -185 36 -231 110l82 55c26 -46 84 -82 153 -82c81 0 158 45 158 132c0 73 -64 103 -138 130
c-83 31 -159 76 -159 182c0 132 111 217 261 217c82 0 160 -33 198 -88zM525 908l-162 -144h-74l125 144h111z" />
    <glyph glyph-name="Scircumflex" unicode="&#x15c;" horiz-adv-x="569" 
d="M557 638l-76 -58c-26 39 -74 64 -131 64c-66 0 -152 -37 -152 -126c0 -61 48 -88 114 -113c103 -38 186 -89 186 -197c0 -130 -103 -226 -265 -226c-90 0 -185 36 -231 110l82 55c26 -46 84 -82 153 -82c81 0 158 45 158 132c0 73 -64 103 -138 130
c-83 31 -159 76 -159 182c0 132 111 217 261 217c82 0 160 -33 198 -88zM456 908l86 -144h-86l-59 99l-94 -99h-91l138 144h106z" />
    <glyph glyph-name="Scaron" unicode="&#x160;" horiz-adv-x="569" 
d="M557 638l-76 -58c-26 39 -74 64 -131 64c-66 0 -152 -37 -152 -126c0 -61 48 -88 114 -113c103 -38 186 -89 186 -197c0 -130 -103 -226 -265 -226c-90 0 -185 36 -231 110l82 55c26 -46 84 -82 153 -82c81 0 158 45 158 132c0 73 -64 103 -138 130
c-83 31 -159 76 -159 182c0 132 111 217 261 217c82 0 160 -33 198 -88zM549 908l-137 -144h-106l-86 144h87l58 -99l94 99h90z" />
    <glyph glyph-name="Scedilla" unicode="&#x15e;" horiz-adv-x="569" 
d="M557 638l-76 -58c-26 39 -74 64 -131 64c-66 0 -152 -37 -152 -126c0 -61 48 -88 114 -113c103 -38 186 -89 186 -197c0 -123 -92 -215 -238 -225l-44 -53c10 3 18 3 26 3c35 0 82 -17 82 -71c0 -73 -77 -97 -132 -97c-34 0 -78 9 -104 23l24 42c22 -11 50 -17 76 -17
s65 8 65 43c0 28 -23 37 -48 37c-13 0 -29 -3 -42 -7l-17 20l64 77c-83 5 -166 41 -208 109l82 55c26 -46 84 -82 153 -82c81 0 158 45 158 132c0 73 -64 103 -138 130c-83 31 -159 76 -159 182c0 132 111 217 261 217c82 0 160 -33 198 -88z" />
    <glyph glyph-name="Scommaaccent" unicode="&#x218;" horiz-adv-x="569" 
d="M557 638l-76 -58c-26 39 -74 64 -131 64c-66 0 -152 -37 -152 -126c0 -61 48 -88 114 -113c103 -38 186 -89 186 -197c0 -130 -103 -226 -265 -226c-90 0 -185 36 -231 110l82 55c26 -46 84 -82 153 -82c81 0 158 45 158 132c0 73 -64 103 -138 130
c-83 31 -159 76 -159 182c0 132 111 217 261 217c82 0 160 -33 198 -88zM274 -45l-120 -190h-77l104 190h93z" />
    <glyph glyph-name="Tcaron" unicode="&#x164;" horiz-adv-x="535" 
d="M370 622l-110 -622h-98l110 622h-224l15 86h544l-15 -86h-222zM533 908l-137 -144h-106l-86 144h87l58 -99l94 99h90z" />
    <glyph glyph-name="uni0162" unicode="&#x162;" horiz-adv-x="535" 
d="M370 622l-110 -622h-98l110 622h-224l15 86h544l-15 -86h-222zM262 -45l-120 -190h-77l104 190h93z" />
    <glyph glyph-name="uni021A" unicode="&#x21a;" horiz-adv-x="535" 
d="M370 622l-110 -622h-98l110 622h-224l15 86h544l-15 -86h-222zM262 -45l-120 -190h-77l104 190h93z" />
    <glyph glyph-name="Tbar" unicode="&#x166;" horiz-adv-x="545" 
d="M95 525h164l18 97h-224l15 86h544l-15 -86h-222l-18 -97h163l-11 -63h-163l-81 -462h-98l81 462h-164z" />
    <glyph glyph-name="Thorn" unicode="&#xde;" horiz-adv-x="595" 
d="M159 165l-29 -165h-97l125 708h97l-26 -146h105c146 0 229 -67 229 -178c0 -146 -116 -219 -283 -219h-121zM215 479l-42 -232h112c113 0 180 42 180 126c0 79 -56 106 -144 106h-106z" />
    <glyph glyph-name="Ugrave" unicode="&#xd9;" horiz-adv-x="712" 
d="M317 -18c-167 0 -249 98 -249 218c0 21 2 41 6 62l78 446h98l-78 -440c-3 -17 -5 -36 -5 -53c0 -79 41 -148 153 -148c139 0 188 100 206 201l77 440h98l-78 -446c-26 -143 -110 -280 -306 -280zM402 764l-137 144h110l100 -144h-73z" />
    <glyph glyph-name="Uacute" unicode="&#xda;" horiz-adv-x="712" 
d="M317 -18c-167 0 -249 98 -249 218c0 21 2 41 6 62l78 446h98l-78 -440c-3 -17 -5 -36 -5 -53c0 -79 41 -148 153 -148c139 0 188 100 206 201l77 440h98l-78 -446c-26 -143 -110 -280 -306 -280zM605 908l-162 -144h-74l125 144h111z" />
    <glyph glyph-name="Ucircumflex" unicode="&#xdb;" horiz-adv-x="712" 
d="M317 -18c-167 0 -249 98 -249 218c0 21 2 41 6 62l78 446h98l-78 -440c-3 -17 -5 -36 -5 -53c0 -79 41 -148 153 -148c139 0 188 100 206 201l77 440h98l-78 -446c-26 -143 -110 -280 -306 -280zM515 908l86 -144h-86l-59 99l-94 -99h-91l138 144h106z" />
    <glyph glyph-name="Utilde" unicode="&#x168;" horiz-adv-x="712" 
d="M317 -18c-167 0 -249 98 -249 218c0 21 2 41 6 62l78 446h98l-78 -440c-3 -17 -5 -36 -5 -53c0 -79 41 -148 153 -148c139 0 188 100 206 201l77 440h98l-78 -446c-26 -143 -110 -280 -306 -280zM315 772h-55c20 58 55 115 123 115c26 0 50 -9 72 -21
c23 -11 44 -21 63 -21c28 0 45 24 55 47h55c-21 -58 -55 -115 -123 -115c-24 0 -47 10 -69 20c-23 12 -45 22 -65 22c-29 0 -45 -24 -56 -47z" />
    <glyph glyph-name="Udieresis" unicode="&#xdc;" horiz-adv-x="712" 
d="M317 -18c-167 0 -249 98 -249 218c0 21 2 41 6 62l78 446h98l-78 -440c-3 -17 -5 -36 -5 -53c0 -79 41 -148 153 -148c139 0 188 100 206 201l77 440h98l-78 -446c-26 -143 -110 -280 -306 -280zM604 847c0 -33 -25 -60 -59 -60c-32 0 -58 21 -58 57s28 61 61 61
c32 0 56 -22 56 -58zM406 847c0 -33 -25 -60 -58 -60s-59 21 -59 57s29 61 61 61s56 -22 56 -58z" />
    <glyph glyph-name="Umacron" unicode="&#x16a;" horiz-adv-x="712" 
d="M317 -18c-167 0 -249 98 -249 218c0 21 2 41 6 62l78 446h98l-78 -440c-3 -17 -5 -36 -5 -53c0 -79 41 -148 153 -148c139 0 188 100 206 201l77 440h98l-78 -446c-26 -143 -110 -280 -306 -280zM596 863l-12 -66h-294l11 66h295z" />
    <glyph glyph-name="Ubreve" unicode="&#x16c;" horiz-adv-x="712" 
d="M317 -18c-167 0 -249 98 -249 218c0 21 2 41 6 62l78 446h98l-78 -440c-3 -17 -5 -36 -5 -53c0 -79 41 -148 153 -148c139 0 188 100 206 201l77 440h98l-78 -446c-26 -143 -110 -280 -306 -280zM553 908h55c-19 -88 -87 -138 -175 -138s-142 44 -142 138h56
c0 -54 40 -72 90 -72c56 0 101 18 116 72z" />
    <glyph glyph-name="Uring" unicode="&#x16e;" horiz-adv-x="712" 
d="M317 -18c-167 0 -249 98 -249 218c0 21 2 41 6 62l78 446h98l-78 -440c-3 -17 -5 -36 -5 -53c0 -79 41 -148 153 -148c139 0 188 100 206 201l77 440h98l-78 -446c-26 -143 -110 -280 -306 -280zM435 753c-51 0 -87 36 -87 83c0 63 46 115 111 115c52 0 87 -34 87 -82
c0 -65 -46 -116 -111 -116zM505 863c0 28 -19 51 -49 51c-39 0 -66 -32 -66 -73c0 -28 18 -50 48 -50c39 0 67 32 67 72z" />
    <glyph glyph-name="Uhungarumlaut" unicode="&#x170;" horiz-adv-x="712" 
d="M317 -18c-167 0 -249 98 -249 218c0 21 2 41 6 62l78 446h98l-78 -440c-3 -17 -5 -36 -5 -53c0 -79 41 -148 153 -148c139 0 188 100 206 201l77 440h98l-78 -446c-26 -143 -110 -280 -306 -280zM715 908l-163 -144h-76l126 144h113zM534 908l-162 -144h-76l125 144h113z
" />
    <glyph glyph-name="Uogonek" unicode="&#x172;" horiz-adv-x="712" 
d="M378 -147l14 -44c-30 -22 -64 -37 -99 -37c-47 0 -83 24 -83 75c0 53 46 100 90 135c-156 6 -232 102 -232 218c0 21 2 41 6 62l78 446h98l-78 -440c-3 -17 -5 -36 -5 -53c0 -79 41 -148 153 -148c139 0 188 100 206 201l77 440h98l-78 -446c-24 -132 -97 -258 -262 -277
c-43 -38 -80 -80 -80 -118c0 -27 18 -35 41 -35c19 0 40 8 56 21z" />
    <glyph glyph-name="Wcircumflex" unicode="&#x174;" horiz-adv-x="982" 
d="M187 708l46 -566h2l275 566h108l57 -566h2l267 566h104l-344 -708h-102l-61 572h-2l-283 -572h-103l-69 708h103zM651 908l86 -144h-86l-59 99l-94 -99h-91l138 144h106z" />
    <glyph glyph-name="Wacute" unicode="&#x1e82;" horiz-adv-x="982" 
d="M187 708l46 -566h2l275 566h108l57 -566h2l267 566h104l-344 -708h-102l-61 572h-2l-283 -572h-103l-69 708h103zM766 908l-162 -144h-74l125 144h111z" />
    <glyph glyph-name="Wdieresis" unicode="&#x1e84;" horiz-adv-x="982" 
d="M187 708l46 -566h2l275 566h108l57 -566h2l267 566h104l-344 -708h-102l-61 572h-2l-283 -572h-103l-69 708h103zM746 847c0 -33 -25 -60 -59 -60c-32 0 -58 21 -58 57s28 61 61 61c32 0 56 -22 56 -58zM548 847c0 -33 -25 -60 -58 -60s-59 21 -59 57s29 61 61 61
s56 -22 56 -58z" />
    <glyph glyph-name="Wgrave" unicode="&#x1e80;" horiz-adv-x="982" 
d="M187 708l46 -566h2l275 566h108l57 -566h2l267 566h104l-344 -708h-102l-61 572h-2l-283 -572h-103l-69 708h103zM544 764l-137 144h110l100 -144h-73z" />
    <glyph glyph-name="Yacute" unicode="&#xdd;" horiz-adv-x="560" 
d="M322 306l-54 -306h-98l54 306l-178 402h111l130 -322l259 322h120zM549 908l-162 -144h-74l125 144h111z" />
    <glyph glyph-name="Ycircumflex" unicode="&#x176;" horiz-adv-x="560" 
d="M322 306l-54 -306h-98l54 306l-178 402h111l130 -322l259 322h120zM437 908l86 -144h-86l-59 99l-94 -99h-91l138 144h106z" />
    <glyph glyph-name="Ydieresis" unicode="&#x178;" horiz-adv-x="560" 
d="M322 306l-54 -306h-98l54 306l-178 402h111l130 -322l259 322h120zM524 847c0 -33 -25 -60 -59 -60c-32 0 -58 21 -58 57s28 61 61 61c32 0 56 -22 56 -58zM326 847c0 -33 -25 -60 -58 -60s-59 21 -59 57s29 61 61 61s56 -22 56 -58z" />
    <glyph glyph-name="Ygrave" unicode="&#x1ef2;" horiz-adv-x="560" 
d="M322 306l-54 -306h-98l54 306l-178 402h111l130 -322l259 322h120zM334 764l-137 144h110l100 -144h-73z" />
    <glyph glyph-name="Zacute" unicode="&#x179;" horiz-adv-x="580" 
d="M617 708l-16 -86l-490 -535h403l-15 -87h-532l15 86l493 536h-367l15 86h494zM539 908l-162 -144h-74l125 144h111z" />
    <glyph glyph-name="Zcaron" unicode="&#x17d;" horiz-adv-x="580" 
d="M617 708l-16 -86l-490 -535h403l-15 -87h-532l15 86l493 536h-367l15 86h494zM563 908l-137 -144h-106l-86 144h87l58 -99l94 99h90z" />
    <glyph glyph-name="Zdotaccent" unicode="&#x17b;" horiz-adv-x="580" 
d="M617 708l-16 -86l-490 -535h403l-15 -87h-532l15 86l493 536h-367l15 86h494zM449 847c0 -33 -26 -61 -59 -61c-32 0 -59 21 -59 57s29 62 61 62s57 -23 57 -58z" />
    <glyph glyph-name="agrave" unicode="&#xe0;" horiz-adv-x="537" 
d="M370 296c3 19 4 28 4 37c0 56 -36 79 -100 79c-50 0 -105 -23 -142 -52l-38 62c50 40 123 65 193 65c90 0 176 -38 176 -140c0 -12 -2 -35 -4 -48l-35 -192c-6 -37 -11 -81 -11 -107h-85c0 20 2 44 6 66h-2c-45 -53 -96 -76 -168 -76c-65 0 -147 29 -147 125
c0 154 188 181 353 181zM360 228h-15c-104 0 -236 -14 -236 -100c0 -52 44 -67 87 -67c84 0 144 60 157 132zM280 564l-137 144h110l100 -144h-73z" />
    <glyph glyph-name="aacute" unicode="&#xe1;" horiz-adv-x="537" 
d="M370 296c3 19 4 28 4 37c0 56 -36 79 -100 79c-50 0 -105 -23 -142 -52l-38 62c50 40 123 65 193 65c90 0 176 -38 176 -140c0 -12 -2 -35 -4 -48l-35 -192c-6 -37 -11 -81 -11 -107h-85c0 20 2 44 6 66h-2c-45 -53 -96 -76 -168 -76c-65 0 -147 29 -147 125
c0 154 188 181 353 181zM360 228h-15c-104 0 -236 -14 -236 -100c0 -52 44 -67 87 -67c84 0 144 60 157 132zM486 708l-162 -144h-74l125 144h111z" />
    <glyph glyph-name="acircumflex" unicode="&#xe2;" horiz-adv-x="537" 
d="M370 296c3 19 4 28 4 37c0 56 -36 79 -100 79c-50 0 -105 -23 -142 -52l-38 62c50 40 123 65 193 65c90 0 176 -38 176 -140c0 -12 -2 -35 -4 -48l-35 -192c-6 -37 -11 -81 -11 -107h-85c0 20 2 44 6 66h-2c-45 -53 -96 -76 -168 -76c-65 0 -147 29 -147 125
c0 154 188 181 353 181zM360 228h-15c-104 0 -236 -14 -236 -100c0 -52 44 -67 87 -67c84 0 144 60 157 132zM391 708l86 -144h-86l-59 99l-94 -99h-91l138 144h106z" />
    <glyph glyph-name="atilde" unicode="&#xe3;" horiz-adv-x="537" 
d="M370 296c3 19 4 28 4 37c0 56 -36 79 -100 79c-50 0 -105 -23 -142 -52l-38 62c50 40 123 65 193 65c90 0 176 -38 176 -140c0 -12 -2 -35 -4 -48l-35 -192c-6 -37 -11 -81 -11 -107h-85c0 20 2 44 6 66h-2c-45 -53 -96 -76 -168 -76c-65 0 -147 29 -147 125
c0 154 188 181 353 181zM360 228h-15c-104 0 -236 -14 -236 -100c0 -52 44 -67 87 -67c84 0 144 60 157 132zM187 572h-55c20 58 55 115 123 115c26 0 50 -9 72 -21c23 -11 44 -21 63 -21c28 0 45 24 55 47h55c-21 -58 -55 -115 -123 -115c-24 0 -47 10 -69 20
c-23 12 -45 22 -65 22c-29 0 -45 -24 -56 -47z" />
    <glyph glyph-name="adieresis" unicode="&#xe4;" horiz-adv-x="537" 
d="M370 296c3 19 4 28 4 37c0 56 -36 79 -100 79c-50 0 -105 -23 -142 -52l-38 62c50 40 123 65 193 65c90 0 176 -38 176 -140c0 -12 -2 -35 -4 -48l-35 -192c-6 -37 -11 -81 -11 -107h-85c0 20 2 44 6 66h-2c-45 -53 -96 -76 -168 -76c-65 0 -147 29 -147 125
c0 154 188 181 353 181zM360 228h-15c-104 0 -236 -14 -236 -100c0 -52 44 -67 87 -67c84 0 144 60 157 132zM278 647c0 -33 -25 -60 -58 -60s-59 21 -59 57s29 61 61 61s56 -22 56 -58zM476 647c0 -33 -25 -60 -59 -60c-32 0 -58 21 -58 57s28 61 61 61c32 0 56 -22 56 -58
z" />
    <glyph glyph-name="amacron" unicode="&#x101;" horiz-adv-x="537" 
d="M370 296c3 19 4 28 4 37c0 56 -36 79 -100 79c-50 0 -105 -23 -142 -52l-38 62c50 40 123 65 193 65c90 0 176 -38 176 -140c0 -12 -2 -35 -4 -48l-35 -192c-6 -37 -11 -81 -11 -107h-85c0 20 2 44 6 66h-2c-45 -53 -96 -76 -168 -76c-65 0 -147 29 -147 125
c0 154 188 181 353 181zM360 228h-15c-104 0 -236 -14 -236 -100c0 -52 44 -67 87 -67c84 0 144 60 157 132zM469 663l-12 -66h-294l11 66h295z" />
    <glyph glyph-name="abreve" unicode="&#x103;" horiz-adv-x="537" 
d="M370 296c3 19 4 28 4 37c0 56 -36 79 -100 79c-50 0 -105 -23 -142 -52l-38 62c50 40 123 65 193 65c90 0 176 -38 176 -140c0 -12 -2 -35 -4 -48l-35 -192c-6 -37 -11 -81 -11 -107h-85c0 20 2 44 6 66h-2c-45 -53 -96 -76 -168 -76c-65 0 -147 29 -147 125
c0 154 188 181 353 181zM360 228h-15c-104 0 -236 -14 -236 -100c0 -52 44 -67 87 -67c84 0 144 60 157 132zM423 708h55c-19 -88 -87 -138 -175 -138s-142 44 -142 138h56c0 -54 40 -72 90 -72c56 0 101 18 116 72z" />
    <glyph glyph-name="aring" unicode="&#xe5;" horiz-adv-x="537" 
d="M370 296c3 19 4 28 4 37c0 56 -36 79 -100 79c-50 0 -105 -23 -142 -52l-38 62c50 40 123 65 193 65c90 0 176 -38 176 -140c0 -12 -2 -35 -4 -48l-35 -192c-6 -37 -11 -81 -11 -107h-85c0 20 2 44 6 66h-2c-45 -53 -96 -76 -168 -76c-65 0 -147 29 -147 125
c0 154 188 181 353 181zM360 228h-15c-104 0 -236 -14 -236 -100c0 -52 44 -67 87 -67c84 0 144 60 157 132zM308 553c-51 0 -87 36 -87 83c0 63 46 115 111 115c52 0 87 -34 87 -82c0 -65 -46 -116 -111 -116zM378 663c0 28 -19 51 -49 51c-39 0 -66 -32 -66 -73
c0 -28 18 -50 48 -50c39 0 67 32 67 72z" />
    <glyph glyph-name="aogonek" unicode="&#x105;" horiz-adv-x="537" 
d="M378 -147l14 -44c-30 -22 -64 -37 -99 -37c-47 0 -83 24 -83 75c0 64 67 120 118 155c0 20 2 43 6 64h-2c-45 -53 -96 -76 -168 -76c-65 0 -147 29 -147 125c0 154 188 181 353 181c3 19 4 28 4 37c0 56 -36 79 -100 79c-50 0 -105 -23 -142 -52l-38 62
c50 40 123 65 193 65c90 0 176 -38 176 -140c0 -12 -2 -35 -4 -48l-35 -192c-6 -37 -11 -81 -11 -107h-34c-51 -42 -98 -90 -98 -133c0 -27 18 -35 41 -35c19 0 40 8 56 21zM360 228h-15c-104 0 -236 -14 -236 -100c0 -52 44 -67 87 -67c84 0 144 60 157 132z" />
    <glyph glyph-name="ae" unicode="&#xe6;" horiz-adv-x="885" 
d="M446 400c36 48 104 87 180 87c121 0 198 -70 198 -188c0 -19 -3 -60 -11 -90h-366c-1 -6 -2 -11 -2 -16c0 -75 56 -129 134 -129c67 0 115 31 149 72l55 -52c-57 -64 -130 -97 -214 -97s-155 42 -182 108c-33 -57 -97 -105 -205 -105c-73 0 -165 28 -165 126
c0 147 184 161 354 161c4 19 8 46 8 55c0 59 -40 80 -99 80c-51 0 -106 -23 -143 -52l-38 62c50 40 124 65 193 65c80 0 135 -29 154 -87zM360 209h-24c-126 0 -226 -14 -226 -81c0 -52 43 -67 88 -67c89 0 146 53 159 130zM457 277h278c1 9 2 21 2 30
c0 61 -42 107 -118 107c-87 0 -147 -69 -162 -137z" />
    <glyph glyph-name="cacute" unicode="&#x107;" horiz-adv-x="496" 
d="M491 407l-72 -54c-16 32 -57 57 -104 57c-109 0 -188 -95 -188 -207c0 -76 46 -138 136 -138c59 0 99 24 130 57l56 -52c-50 -50 -111 -83 -192 -83c-136 0 -224 83 -224 205c0 158 113 295 287 295c70 0 139 -25 171 -80zM501 708l-162 -144h-74l125 144h111z" />
    <glyph glyph-name="ccircumflex" unicode="&#x109;" horiz-adv-x="496" 
d="M491 407l-72 -54c-16 32 -57 57 -104 57c-109 0 -188 -95 -188 -207c0 -76 46 -138 136 -138c59 0 99 24 130 57l56 -52c-50 -50 -111 -83 -192 -83c-136 0 -224 83 -224 205c0 158 113 295 287 295c70 0 139 -25 171 -80zM427 708l86 -144h-86l-59 99l-94 -99h-91
l138 144h106z" />
    <glyph glyph-name="ccaron" unicode="&#x10d;" horiz-adv-x="496" 
d="M491 407l-72 -54c-16 32 -57 57 -104 57c-109 0 -188 -95 -188 -207c0 -76 46 -138 136 -138c59 0 99 24 130 57l56 -52c-50 -50 -111 -83 -192 -83c-136 0 -224 83 -224 205c0 158 113 295 287 295c70 0 139 -25 171 -80zM528 708l-137 -144h-106l-86 144h87l58 -99
l94 99h90z" />
    <glyph glyph-name="cdotaccent" unicode="&#x10b;" horiz-adv-x="496" 
d="M491 407l-72 -54c-16 32 -57 57 -104 57c-109 0 -188 -95 -188 -207c0 -76 46 -138 136 -138c59 0 99 24 130 57l56 -52c-50 -50 -111 -83 -192 -83c-136 0 -224 83 -224 205c0 158 113 295 287 295c70 0 139 -25 171 -80zM412 647c0 -33 -26 -61 -59 -61
c-32 0 -59 21 -59 57s29 62 61 62s57 -23 57 -58z" />
    <glyph glyph-name="ccedilla" unicode="&#xe7;" horiz-adv-x="496" 
d="M491 407l-72 -54c-16 32 -57 57 -104 57c-109 0 -188 -95 -188 -207c0 -76 46 -138 136 -138c59 0 99 24 130 57l56 -52c-49 -49 -108 -81 -185 -83l-48 -57c10 3 18 3 26 3c35 0 82 -17 82 -71c0 -73 -77 -97 -132 -97c-34 0 -78 9 -104 23l24 42c22 -11 50 -17 76 -17
s65 8 65 43c0 28 -23 37 -48 37c-13 0 -29 -3 -42 -7l-17 20l70 84c-113 14 -183 92 -183 202c0 158 113 295 287 295c70 0 139 -25 171 -80z" />
    <glyph glyph-name="dcaron" unicode="&#x10f;" horiz-adv-x="702" 
d="M30 193c0 162 114 294 270 294c77 0 136 -34 165 -91h2l63 360h93l-134 -756h-90l13 76h-2c-34 -52 -100 -88 -173 -88c-125 0 -207 83 -207 205zM126 202c0 -77 47 -137 132 -137c105 0 188 95 188 208c0 80 -54 138 -136 138c-111 0 -184 -93 -184 -209zM823 708
l-120 -190h-77l104 190h93z" />
    <glyph glyph-name="dcroat" unicode="&#x111;" horiz-adv-x="628" 
d="M345 633h163l22 123h93l-22 -123h57l-11 -63h-57l-101 -570h-90l13 76h-2c-34 -52 -100 -88 -173 -88c-125 0 -207 83 -207 205c0 162 114 294 270 294c77 0 136 -34 165 -91h2l30 174h-163zM126 202c0 -77 47 -137 132 -137c105 0 188 95 188 208c0 80 -54 138 -136 138
c-111 0 -184 -93 -184 -209z" />
    <glyph glyph-name="eth" unicode="&#xf0;" horiz-adv-x="600" 
d="M315 487c55 0 98 -15 129 -46l3 2c-22 62 -60 129 -110 178l-119 -54l-40 47l120 53c-22 25 -52 50 -77 70l79 45c31 -26 61 -56 80 -78l117 53l43 -45l-119 -54c76 -88 126 -206 126 -340c0 -160 -81 -331 -288 -331c-130 0 -224 85 -224 207c0 153 111 293 280 293z
M449 273c0 78 -51 137 -136 137c-108 0 -184 -97 -184 -208c0 -79 50 -137 135 -137c110 0 185 96 185 208z" />
    <glyph glyph-name="egrave" unicode="&#xe8;" horiz-adv-x="565" 
d="M494 209h-372c-1 -6 -1 -11 -1 -16c0 -75 60 -129 138 -129c67 0 116 31 149 72l55 -52c-56 -64 -130 -97 -213 -97c-126 0 -220 77 -220 210c0 158 119 290 277 290c120 0 197 -70 197 -188c0 -19 -3 -60 -10 -90zM132 277h283c1 9 2 21 2 30c0 61 -42 107 -117 107
c-90 0 -152 -69 -168 -137zM303 564l-137 144h110l100 -144h-73z" />
    <glyph glyph-name="eacute" unicode="&#xe9;" horiz-adv-x="565" 
d="M494 209h-372c-1 -6 -1 -11 -1 -16c0 -75 60 -129 138 -129c67 0 116 31 149 72l55 -52c-56 -64 -130 -97 -213 -97c-126 0 -220 77 -220 210c0 158 119 290 277 290c120 0 197 -70 197 -188c0 -19 -3 -60 -10 -90zM132 277h283c1 9 2 21 2 30c0 61 -42 107 -117 107
c-90 0 -152 -69 -168 -137zM492 708l-162 -144h-74l125 144h111z" />
    <glyph glyph-name="ecircumflex" unicode="&#xea;" horiz-adv-x="565" 
d="M494 209h-372c-1 -6 -1 -11 -1 -16c0 -75 60 -129 138 -129c67 0 116 31 149 72l55 -52c-56 -64 -130 -97 -213 -97c-126 0 -220 77 -220 210c0 158 119 290 277 290c120 0 197 -70 197 -188c0 -19 -3 -60 -10 -90zM132 277h283c1 9 2 21 2 30c0 61 -42 107 -117 107
c-90 0 -152 -69 -168 -137zM413 708l86 -144h-86l-59 99l-94 -99h-91l138 144h106z" />
    <glyph glyph-name="ecaron" unicode="&#x11b;" horiz-adv-x="565" 
d="M494 209h-372c-1 -6 -1 -11 -1 -16c0 -75 60 -129 138 -129c67 0 116 31 149 72l55 -52c-56 -64 -130 -97 -213 -97c-126 0 -220 77 -220 210c0 158 119 290 277 290c120 0 197 -70 197 -188c0 -19 -3 -60 -10 -90zM132 277h283c1 9 2 21 2 30c0 61 -42 107 -117 107
c-90 0 -152 -69 -168 -137zM515 708l-137 -144h-106l-86 144h87l58 -99l94 99h90z" />
    <glyph glyph-name="edieresis" unicode="&#xeb;" horiz-adv-x="565" 
d="M494 209h-372c-1 -6 -1 -11 -1 -16c0 -75 60 -129 138 -129c67 0 116 31 149 72l55 -52c-56 -64 -130 -97 -213 -97c-126 0 -220 77 -220 210c0 158 119 290 277 290c120 0 197 -70 197 -188c0 -19 -3 -60 -10 -90zM132 277h283c1 9 2 21 2 30c0 61 -42 107 -117 107
c-90 0 -152 -69 -168 -137zM302 647c0 -33 -25 -60 -58 -60s-59 21 -59 57s29 61 61 61s56 -22 56 -58zM500 647c0 -33 -25 -60 -59 -60c-32 0 -58 21 -58 57s28 61 61 61c32 0 56 -22 56 -58z" />
    <glyph glyph-name="emacron" unicode="&#x113;" horiz-adv-x="565" 
d="M494 209h-372c-1 -6 -1 -11 -1 -16c0 -75 60 -129 138 -129c67 0 116 31 149 72l55 -52c-56 -64 -130 -97 -213 -97c-126 0 -220 77 -220 210c0 158 119 290 277 290c120 0 197 -70 197 -188c0 -19 -3 -60 -10 -90zM132 277h283c1 9 2 21 2 30c0 61 -42 107 -117 107
c-90 0 -152 -69 -168 -137zM497 663l-12 -66h-294l11 66h295z" />
    <glyph glyph-name="ebreve" unicode="&#x115;" horiz-adv-x="565" 
d="M494 209h-372c-1 -6 -1 -11 -1 -16c0 -75 60 -129 138 -129c67 0 116 31 149 72l55 -52c-56 -64 -130 -97 -213 -97c-126 0 -220 77 -220 210c0 158 119 290 277 290c120 0 197 -70 197 -188c0 -19 -3 -60 -10 -90zM132 277h283c1 9 2 21 2 30c0 61 -42 107 -117 107
c-90 0 -152 -69 -168 -137zM454 708h55c-19 -88 -87 -138 -175 -138s-142 44 -142 138h56c0 -54 40 -72 90 -72c56 0 101 18 116 72z" />
    <glyph glyph-name="edotaccent" unicode="&#x117;" horiz-adv-x="565" 
d="M494 209h-372c-1 -6 -1 -11 -1 -16c0 -75 60 -129 138 -129c67 0 116 31 149 72l55 -52c-56 -64 -130 -97 -213 -97c-126 0 -220 77 -220 210c0 158 119 290 277 290c120 0 197 -70 197 -188c0 -19 -3 -60 -10 -90zM132 277h283c1 9 2 21 2 30c0 61 -42 107 -117 107
c-90 0 -152 -69 -168 -137zM403 647c0 -33 -26 -61 -59 -61c-32 0 -59 21 -59 57s29 62 61 62s57 -23 57 -58z" />
    <glyph glyph-name="eogonek" unicode="&#x119;" horiz-adv-x="565" 
d="M300 -147l14 -44c-30 -22 -64 -37 -99 -37c-47 0 -83 24 -83 75c0 56 51 105 98 141c-116 8 -200 83 -200 209c0 158 119 290 277 290c120 0 197 -70 197 -188c0 -19 -3 -60 -10 -90h-372c-1 -6 -1 -11 -1 -16c0 -75 60 -129 138 -129c67 0 116 31 149 72l55 -52
c-47 -54 -107 -85 -174 -94c-46 -40 -86 -83 -86 -123c0 -27 18 -35 41 -35c19 0 40 8 56 21zM132 277h283c1 9 2 21 2 30c0 61 -42 107 -117 107c-90 0 -152 -69 -168 -137z" />
    <glyph glyph-name="gcircumflex" unicode="&#x11d;" horiz-adv-x="630" 
d="M-11 -150l62 67c35 -46 97 -76 163 -76c125 0 172 77 192 175l12 63h-2c-38 -52 -100 -84 -171 -84c-126 0 -206 86 -206 206c0 158 113 286 269 286c77 0 138 -34 163 -90h3l13 77h90l-79 -451c-24 -136 -85 -263 -285 -263c-85 0 -175 33 -224 90zM134 208
c0 -76 48 -137 134 -137c107 0 186 94 186 203c0 78 -53 137 -136 137c-110 0 -184 -86 -184 -203zM441 708l86 -144h-86l-59 99l-94 -99h-91l138 144h106z" />
    <glyph glyph-name="gbreve" unicode="&#x11f;" horiz-adv-x="630" 
d="M-11 -150l62 67c35 -46 97 -76 163 -76c125 0 172 77 192 175l12 63h-2c-38 -52 -100 -84 -171 -84c-126 0 -206 86 -206 206c0 158 113 286 269 286c77 0 138 -34 163 -90h3l13 77h90l-79 -451c-24 -136 -85 -263 -285 -263c-85 0 -175 33 -224 90zM134 208
c0 -76 48 -137 134 -137c107 0 186 94 186 203c0 78 -53 137 -136 137c-110 0 -184 -86 -184 -203zM480 708h55c-19 -88 -87 -138 -175 -138s-142 44 -142 138h56c0 -54 40 -72 90 -72c56 0 101 18 116 72z" />
    <glyph glyph-name="gdotaccent" unicode="&#x121;" horiz-adv-x="630" 
d="M-11 -150l62 67c35 -46 97 -76 163 -76c125 0 172 77 192 175l12 63h-2c-38 -52 -100 -84 -171 -84c-126 0 -206 86 -206 206c0 158 113 286 269 286c77 0 138 -34 163 -90h3l13 77h90l-79 -451c-24 -136 -85 -263 -285 -263c-85 0 -175 33 -224 90zM134 208
c0 -76 48 -137 134 -137c107 0 186 94 186 203c0 78 -53 137 -136 137c-110 0 -184 -86 -184 -203zM428 647c0 -33 -26 -61 -59 -61c-32 0 -59 21 -59 57s29 62 61 62s57 -23 57 -58z" />
    <glyph glyph-name="gcommaaccent" unicode="&#x123;" horiz-adv-x="630" 
d="M-11 -150l62 67c35 -46 97 -76 163 -76c125 0 172 77 192 175l12 63h-2c-38 -52 -100 -84 -171 -84c-126 0 -206 86 -206 206c0 158 113 286 269 286c77 0 138 -34 163 -90h3l13 77h90l-79 -451c-24 -136 -85 -263 -285 -263c-85 0 -175 33 -224 90zM134 208
c0 -76 48 -137 134 -137c107 0 186 94 186 203c0 78 -53 137 -136 137c-110 0 -184 -86 -184 -203zM294 564l120 195h77l-104 -195h-93z" />
    <glyph glyph-name="hcircumflex" unicode="&#x125;" horiz-adv-x="581" 
d="M347 487c103 0 158 -62 158 -146c0 -16 -1 -31 -4 -48l-52 -293h-93l46 262c4 18 6 36 6 53c0 54 -23 93 -92 93c-75 0 -134 -62 -151 -157l-44 -251h-93l133 756h93l-62 -354h2c30 48 85 85 153 85zM465 940l86 -144h-86l-59 99l-94 -99h-91l138 144h106z" />
    <glyph glyph-name="hbar" unicode="&#x127;" horiz-adv-x="581" 
d="M78 633h61l22 123h93l-22 -123h158l-11 -63h-158l-29 -168h2c30 48 85 85 153 85c103 0 158 -62 158 -146c0 -16 -1 -31 -4 -48l-52 -293h-93l46 262c4 18 6 36 6 53c0 54 -23 93 -92 93c-75 0 -134 -62 -151 -157l-44 -251h-93l100 570h-61z" />
    <glyph glyph-name="dotlessi" unicode="&#x131;" horiz-adv-x="259" 
d="M205 474l-84 -474h-92l83 474h93z" />
    <glyph glyph-name="igrave" unicode="&#xec;" horiz-adv-x="259" 
d="M205 474l-84 -474h-92l83 474h93zM138 564l-137 144h110l100 -144h-73z" />
    <glyph glyph-name="iacute" unicode="&#xed;" horiz-adv-x="259" 
d="M205 474l-84 -474h-92l83 474h93zM351 707l-162 -144h-74l125 144h111z" />
    <glyph glyph-name="icircumflex" unicode="&#xee;" horiz-adv-x="259" 
d="M205 474l-84 -474h-92l83 474h93zM251 708l86 -144h-86l-59 99l-94 -99h-91l138 144h106z" />
    <glyph glyph-name="itilde" unicode="&#x129;" horiz-adv-x="259" 
d="M205 474l-84 -474h-92l83 474h93zM49 572h-55c20 58 55 115 123 115c26 0 50 -9 72 -21c23 -11 44 -21 63 -21c28 0 45 24 55 47h55c-21 -58 -55 -115 -123 -115c-24 0 -47 10 -69 20c-23 12 -45 22 -65 22c-29 0 -45 -24 -56 -47z" />
    <glyph glyph-name="idieresis" unicode="&#xef;" horiz-adv-x="259" 
d="M205 474l-84 -474h-92l83 474h93zM148 647c0 -33 -25 -60 -58 -60s-59 21 -59 57s29 61 61 61s56 -22 56 -58zM346 647c0 -33 -25 -60 -59 -60c-32 0 -58 21 -58 57s28 61 61 61c32 0 56 -22 56 -58z" />
    <glyph glyph-name="imacron" unicode="&#x12b;" horiz-adv-x="259" 
d="M205 474l-84 -474h-92l83 474h93zM334 663l-12 -66h-294l11 66h295z" />
    <glyph glyph-name="ibreve" unicode="&#x12d;" horiz-adv-x="259" 
d="M205 474l-84 -474h-92l83 474h93zM302 708h55c-19 -88 -87 -138 -175 -138s-142 44 -142 138h56c0 -54 40 -72 90 -72c56 0 101 18 116 72z" />
    <glyph glyph-name="iogonek" unicode="&#x12f;" horiz-adv-x="259" 
d="M115 -147l14 -44c-30 -22 -64 -37 -99 -37c-47 0 -83 24 -83 75c0 62 64 117 114 153h-32l83 474h93l-84 -474h-5c-51 -42 -98 -90 -98 -133c0 -27 18 -35 41 -35c19 0 40 8 56 21zM245 647c0 -33 -26 -61 -59 -61c-32 0 -59 21 -59 57s29 62 61 62s57 -23 57 -58z" />
    <glyph glyph-name="dotlessj" unicode="&#x237;" horiz-adv-x="259" 
d="M-118 -234l19 79c11 -3 26 -5 37 -5c57 0 70 44 81 101l94 533h93l-95 -536c-16 -94 -50 -178 -174 -178c-17 0 -41 3 -55 6z" />
    <glyph glyph-name="jcircumflex" unicode="&#x135;" horiz-adv-x="259" 
d="M-118 -234l19 79c11 -3 26 -5 37 -5c57 0 70 44 81 101l94 533h93l-95 -536c-16 -94 -50 -178 -174 -178c-17 0 -41 3 -55 6zM250 708l86 -144h-86l-59 99l-94 -99h-91l138 144h106z" />
    <glyph glyph-name="kcommaaccent" unicode="&#x137;" horiz-adv-x="504" 
d="M255 756l-86 -489h3l228 207h123l-256 -220l195 -254h-117l-177 246h-3l-43 -246h-93l133 756h93zM276 -45l-120 -190h-77l104 190h93z" />
    <glyph glyph-name="kgreenlandic" unicode="&#x138;" horiz-adv-x="504" 
d="M205 474l-36 -207h3l228 207h123l-256 -220l195 -254h-117l-177 246h-3l-43 -246h-93l83 474h93z" />
    <glyph glyph-name="lacute" unicode="&#x13a;" horiz-adv-x="260" 
d="M256 756l-134 -756h-93l133 756h94zM400 936l-162 -144h-74l125 144h111z" />
    <glyph glyph-name="lcaron" unicode="&#x13e;" horiz-adv-x="327" 
d="M256 756l-134 -756h-93l133 756h94zM448 708l-120 -190h-77l104 190h93z" />
    <glyph glyph-name="lcommaaccent" unicode="&#x13c;" horiz-adv-x="260" 
d="M256 756l-134 -756h-93l133 756h94zM130 -45l-120 -190h-77l104 190h93z" />
    <glyph glyph-name="lslash" unicode="&#x142;" horiz-adv-x="260" 
d="M255 756l-49 -277l89 77l-16 -90l-89 -75l-69 -391h-92l56 315l-89 -76l16 90l89 76l61 351h93z" />
    <glyph glyph-name="ldot" unicode="&#x140;" horiz-adv-x="352" 
d="M256 756l-134 -756h-93l133 756h94zM372 457c0 -33 -26 -61 -59 -61c-32 0 -59 21 -59 57s29 62 61 62s57 -23 57 -58z" />
    <glyph glyph-name="nacute" unicode="&#x144;" horiz-adv-x="581" 
d="M108 474h88c-2 -19 -6 -56 -10 -77h2c35 54 91 90 158 90c104 0 159 -62 159 -146c0 -16 -1 -31 -4 -48l-52 -293h-93l46 262c4 18 6 36 6 53c0 54 -23 93 -92 93c-74 0 -134 -62 -151 -156l-44 -252h-93l65 371c5 25 12 71 15 103zM498 708l-162 -144h-74l125 144h111z
" />
    <glyph glyph-name="ncaron" unicode="&#x148;" horiz-adv-x="581" 
d="M108 474h88c-2 -19 -6 -56 -10 -77h2c35 54 91 90 158 90c104 0 159 -62 159 -146c0 -16 -1 -31 -4 -48l-52 -293h-93l46 262c4 18 6 36 6 53c0 54 -23 93 -92 93c-74 0 -134 -62 -151 -156l-44 -252h-93l65 371c5 25 12 71 15 103zM520 708l-137 -144h-106l-86 144h87
l58 -99l94 99h90z" />
    <glyph glyph-name="ntilde" unicode="&#xf1;" horiz-adv-x="581" 
d="M108 474h88c-2 -19 -6 -56 -10 -77h2c35 54 91 90 158 90c104 0 159 -62 159 -146c0 -16 -1 -31 -4 -48l-52 -293h-93l46 262c4 18 6 36 6 53c0 54 -23 93 -92 93c-74 0 -134 -62 -151 -156l-44 -252h-93l65 371c5 25 12 71 15 103zM215 572h-55c20 58 55 115 123 115
c26 0 50 -9 72 -21c23 -11 44 -21 63 -21c28 0 45 24 55 47h55c-21 -58 -55 -115 -123 -115c-24 0 -47 10 -69 20c-23 12 -45 22 -65 22c-29 0 -45 -24 -56 -47z" />
    <glyph glyph-name="ncommaaccent" unicode="&#x146;" horiz-adv-x="581" 
d="M108 474h88c-2 -19 -6 -56 -10 -77h2c35 54 91 90 158 90c104 0 159 -62 159 -146c0 -16 -1 -31 -4 -48l-52 -293h-93l46 262c4 18 6 36 6 53c0 54 -23 93 -92 93c-74 0 -134 -62 -151 -156l-44 -252h-93l65 371c5 25 12 71 15 103zM285 -45l-120 -190h-77l104 190h93z
" />
    <glyph glyph-name="eng" unicode="&#x14b;" horiz-adv-x="581" 
d="M209 -234l19 79c11 -3 26 -5 37 -5c57 0 71 44 81 101l56 321c3 18 6 36 6 53c0 54 -23 93 -92 93c-74 0 -134 -62 -151 -156l-44 -252h-93l65 371c5 25 12 71 15 103h88c-2 -19 -6 -56 -10 -77h2c35 54 91 90 158 90c104 0 159 -62 159 -146c0 -16 -1 -31 -4 -48
l-63 -355c-16 -94 -50 -178 -174 -178c-17 0 -41 3 -55 6z" />
    <glyph glyph-name="ograve" unicode="&#xf2;" horiz-adv-x="600" 
d="M255 -13c-130 0 -225 85 -225 207c0 157 115 293 285 293c131 0 224 -83 224 -205c0 -160 -114 -295 -284 -295zM445 273c0 78 -52 137 -136 137c-109 0 -185 -97 -185 -208c0 -79 51 -137 136 -137c109 0 185 96 185 208zM313 564l-137 144h110l100 -144h-73z" />
    <glyph glyph-name="oacute" unicode="&#xf3;" horiz-adv-x="600" 
d="M255 -13c-130 0 -225 85 -225 207c0 157 115 293 285 293c131 0 224 -83 224 -205c0 -160 -114 -295 -284 -295zM445 273c0 78 -52 137 -136 137c-109 0 -185 -97 -185 -208c0 -79 51 -137 136 -137c109 0 185 96 185 208zM511 708l-162 -144h-74l125 144h111z" />
    <glyph glyph-name="ocircumflex" unicode="&#xf4;" horiz-adv-x="600" 
d="M255 -13c-130 0 -225 85 -225 207c0 157 115 293 285 293c131 0 224 -83 224 -205c0 -160 -114 -295 -284 -295zM445 273c0 78 -52 137 -136 137c-109 0 -185 -97 -185 -208c0 -79 51 -137 136 -137c109 0 185 96 185 208zM429 708l86 -144h-86l-59 99l-94 -99h-91
l138 144h106z" />
    <glyph glyph-name="otilde" unicode="&#xf5;" horiz-adv-x="600" 
d="M255 -13c-130 0 -225 85 -225 207c0 157 115 293 285 293c131 0 224 -83 224 -205c0 -160 -114 -295 -284 -295zM445 273c0 78 -52 137 -136 137c-109 0 -185 -97 -185 -208c0 -79 51 -137 136 -137c109 0 185 96 185 208zM220 572h-55c20 58 55 115 123 115
c26 0 50 -9 72 -21c23 -11 44 -21 63 -21c28 0 45 24 55 47h55c-21 -58 -55 -115 -123 -115c-24 0 -47 10 -69 20c-23 12 -45 22 -65 22c-29 0 -45 -24 -56 -47z" />
    <glyph glyph-name="odieresis" unicode="&#xf6;" horiz-adv-x="600" 
d="M255 -13c-130 0 -225 85 -225 207c0 157 115 293 285 293c131 0 224 -83 224 -205c0 -160 -114 -295 -284 -295zM445 273c0 78 -52 137 -136 137c-109 0 -185 -97 -185 -208c0 -79 51 -137 136 -137c109 0 185 96 185 208zM312 647c0 -33 -25 -60 -58 -60s-59 21 -59 57
s29 61 61 61s56 -22 56 -58zM510 647c0 -33 -25 -60 -59 -60c-32 0 -58 21 -58 57s28 61 61 61c32 0 56 -22 56 -58z" />
    <glyph glyph-name="omacron" unicode="&#x14d;" horiz-adv-x="600" 
d="M255 -13c-130 0 -225 85 -225 207c0 157 115 293 285 293c131 0 224 -83 224 -205c0 -160 -114 -295 -284 -295zM445 273c0 78 -52 137 -136 137c-109 0 -185 -97 -185 -208c0 -79 51 -137 136 -137c109 0 185 96 185 208zM501 663l-12 -66h-294l11 66h295z" />
    <glyph glyph-name="obreve" unicode="&#x14f;" horiz-adv-x="600" 
d="M255 -13c-130 0 -225 85 -225 207c0 157 115 293 285 293c131 0 224 -83 224 -205c0 -160 -114 -295 -284 -295zM445 273c0 78 -52 137 -136 137c-109 0 -185 -97 -185 -208c0 -79 51 -137 136 -137c109 0 185 96 185 208zM454 708h55c-19 -88 -87 -138 -175 -138
s-142 44 -142 138h56c0 -54 40 -72 90 -72c56 0 101 18 116 72z" />
    <glyph glyph-name="ohungarumlaut" unicode="&#x151;" horiz-adv-x="600" 
d="M255 -13c-130 0 -225 85 -225 207c0 157 115 293 285 293c131 0 224 -83 224 -205c0 -160 -114 -295 -284 -295zM445 273c0 78 -52 137 -136 137c-109 0 -185 -97 -185 -208c0 -79 51 -137 136 -137c109 0 185 96 185 208zM621 708l-163 -144h-76l126 144h113zM440 708
l-162 -144h-76l125 144h113z" />
    <glyph glyph-name="oslash" unicode="&#xf8;" horiz-adv-x="600" 
d="M497 408c27 -34 42 -76 42 -126c0 -160 -114 -295 -284 -295c-59 0 -111 18 -150 48l-60 -58l-39 38l62 59c-24 32 -38 73 -38 120c0 157 115 293 285 293c56 0 105 -15 143 -42l57 54l36 -39zM428 343l-259 -248c23 -19 53 -30 91 -30c109 0 185 96 185 208
c0 26 -6 50 -17 70zM394 384c-22 16 -51 26 -85 26c-109 0 -185 -97 -185 -208c0 -23 4 -45 13 -63z" />
    <glyph glyph-name="oe" unicode="&#x153;" horiz-adv-x="971" 
d="M910 299c0 -18 -3 -59 -11 -89h-371c-2 -7 -2 -12 -2 -17c0 -75 60 -130 138 -130c67 0 116 32 150 73l55 -51c-57 -65 -130 -98 -214 -98c-94 0 -158 42 -190 106c-42 -62 -112 -106 -212 -106c-130 0 -223 84 -223 206c0 159 119 294 286 294c91 0 157 -41 188 -108
c44 66 123 108 208 108c121 0 198 -70 198 -188zM445 273c0 78 -51 138 -136 138c-107 0 -185 -97 -185 -209c0 -79 50 -138 135 -138c108 0 186 96 186 209zM823 307c-1 61 -43 108 -117 108c-91 0 -153 -70 -169 -139h284c1 10 2 21 2 31z" />
    <glyph glyph-name="racute" unicode="&#x155;" horiz-adv-x="343" 
d="M92 371c5 25 12 71 15 103h88l-10 -80h2c33 55 84 93 148 93c13 0 26 -1 37 -4l-16 -87c-12 3 -27 5 -41 5c-91 0 -138 -73 -152 -152l-44 -249h-92zM386 708l-162 -144h-74l125 144h111z" />
    <glyph glyph-name="rcaron" unicode="&#x159;" horiz-adv-x="343" 
d="M92 371c5 25 12 71 15 103h88l-10 -80h2c33 55 84 93 148 93c13 0 26 -1 37 -4l-16 -87c-12 3 -27 5 -41 5c-91 0 -138 -73 -152 -152l-44 -249h-92zM438 708l-137 -144h-106l-86 144h87l58 -99l94 99h90z" />
    <glyph glyph-name="rcommaaccent" unicode="&#x157;" horiz-adv-x="343" 
d="M92 371c5 25 12 71 15 103h88l-10 -80h2c33 55 84 93 148 93c13 0 26 -1 37 -4l-16 -87c-12 3 -27 5 -41 5c-91 0 -138 -73 -152 -152l-44 -249h-92zM125 -46l-120 -190h-77l104 190h93z" />
    <glyph glyph-name="sacute" unicode="&#x15b;" horiz-adv-x="444" 
d="M419 407l-72 -47c-18 31 -50 53 -100 53c-44 0 -98 -17 -98 -66c0 -40 31 -52 85 -67c90 -26 141 -64 141 -141c0 -104 -98 -154 -195 -154c-90 0 -158 36 -194 93l75 49c21 -39 66 -65 119 -65c56 0 104 23 104 70c0 41 -33 58 -98 79c-74 23 -127 52 -127 128
c0 94 93 148 195 148c73 0 136 -29 165 -80zM437 708l-162 -144h-74l125 144h111z" />
    <glyph glyph-name="scircumflex" unicode="&#x15d;" horiz-adv-x="444" 
d="M419 407l-72 -47c-18 31 -50 53 -100 53c-44 0 -98 -17 -98 -66c0 -40 31 -52 85 -67c90 -26 141 -64 141 -141c0 -104 -98 -154 -195 -154c-90 0 -158 36 -194 93l75 49c21 -39 66 -65 119 -65c56 0 104 23 104 70c0 41 -33 58 -98 79c-74 23 -127 52 -127 128
c0 94 93 148 195 148c73 0 136 -29 165 -80zM357 708l86 -144h-86l-59 99l-94 -99h-91l138 144h106z" />
    <glyph glyph-name="scaron" unicode="&#x161;" horiz-adv-x="444" 
d="M419 407l-72 -47c-18 31 -50 53 -100 53c-44 0 -98 -17 -98 -66c0 -40 31 -52 85 -67c90 -26 141 -64 141 -141c0 -104 -98 -154 -195 -154c-90 0 -158 36 -194 93l75 49c21 -39 66 -65 119 -65c56 0 104 23 104 70c0 41 -33 58 -98 79c-74 23 -127 52 -127 128
c0 94 93 148 195 148c73 0 136 -29 165 -80zM456 708l-137 -144h-106l-86 144h87l58 -99l94 99h90z" />
    <glyph glyph-name="scedilla" unicode="&#x15f;" horiz-adv-x="444" 
d="M419 407l-72 -47c-18 31 -50 53 -100 53c-44 0 -98 -17 -98 -66c0 -40 31 -52 85 -67c90 -26 141 -64 141 -141c0 -95 -81 -144 -169 -152l-47 -57c10 3 18 3 26 3c35 0 82 -17 82 -71c0 -73 -77 -97 -132 -97c-34 0 -78 9 -104 23l24 42c22 -11 50 -17 76 -17
s65 8 65 43c0 28 -23 37 -48 37c-13 0 -29 -3 -42 -7l-17 20l67 80c-78 6 -138 40 -170 92l75 49c21 -39 66 -65 119 -65c56 0 104 23 104 70c0 41 -33 58 -98 79c-74 23 -127 52 -127 128c0 94 93 148 195 148c73 0 136 -29 165 -80z" />
    <glyph glyph-name="scommaaccent" unicode="&#x219;" horiz-adv-x="444" 
d="M419 407l-72 -47c-18 31 -50 53 -100 53c-44 0 -98 -17 -98 -66c0 -40 31 -52 85 -67c90 -26 141 -64 141 -141c0 -104 -98 -154 -195 -154c-90 0 -158 36 -194 93l75 49c21 -39 66 -65 119 -65c56 0 104 23 104 70c0 41 -33 58 -98 79c-74 23 -127 52 -127 128
c0 94 93 148 195 148c73 0 136 -29 165 -80zM215 -45l-120 -190h-77l104 190h93z" />
    <glyph glyph-name="germandbls" unicode="&#xdf;" horiz-adv-x="610" 
d="M210 522l-93 -522h-92l93 526c21 120 83 242 247 242c112 0 193 -67 193 -170c0 -90 -60 -150 -140 -170v-2c82 -19 135 -90 135 -177c0 -156 -116 -261 -280 -261c-22 0 -55 3 -77 8l14 78c14 -4 43 -7 60 -7c98 0 187 55 187 180c0 81 -64 135 -150 135h-11l15 81h11
c72 0 142 40 142 125c0 58 -39 98 -103 98c-106 0 -139 -93 -151 -164z" />
    <glyph glyph-name="tcaron" unicode="&#x165;" horiz-adv-x="334" 
d="M329 474l-14 -76h-117l-45 -249c-2 -11 -3 -22 -3 -30c0 -40 23 -51 57 -51c18 0 39 5 51 11l-7 -74c-19 -8 -48 -13 -75 -13c-73 0 -120 32 -120 102c0 14 1 31 4 47l46 257h-90l14 76h89l23 136h92l-24 -136h119zM449 731l-120 -190h-77l104 190h93z" />
    <glyph glyph-name="uni0163" unicode="&#x163;" horiz-adv-x="324" 
d="M329 474l-14 -76h-117l-45 -249c-2 -11 -3 -22 -3 -30c0 -40 23 -51 57 -51c18 0 39 5 51 11l-7 -74c-19 -8 -48 -13 -75 -13c-73 0 -120 32 -120 102c0 14 1 31 4 47l46 257h-90l14 76h89l23 136h92l-24 -136h119zM188 -45l-120 -190h-77l104 190h93z" />
    <glyph glyph-name="uni021B" unicode="&#x21b;" horiz-adv-x="324" 
d="M329 474l-14 -76h-117l-45 -249c-2 -11 -3 -22 -3 -30c0 -40 23 -51 57 -51c18 0 39 5 51 11l-7 -74c-19 -8 -48 -13 -75 -13c-73 0 -120 32 -120 102c0 14 1 31 4 47l46 257h-90l14 76h89l23 136h92l-24 -136h119zM188 -45l-120 -190h-77l104 190h93z" />
    <glyph glyph-name="tbar" unicode="&#x167;" horiz-adv-x="324" 
d="M17 304h72l17 94h-90l14 76h89l23 136h92l-24 -136h119l-14 -76h-117l-17 -94h103l-11 -63h-104l-16 -92c-2 -11 -3 -22 -3 -30c0 -40 23 -51 57 -51c18 0 39 5 51 11l-7 -74c-19 -8 -48 -13 -75 -13c-73 0 -120 32 -120 102c0 14 1 31 4 47l18 100h-72z" />
    <glyph glyph-name="thorn" unicode="&#xfe;" horiz-adv-x="633" 
d="M192 398c33 51 99 88 172 88c125 0 207 -83 207 -205c0 -162 -114 -294 -270 -294c-77 0 -136 34 -165 90h-2l-55 -317h-93l175 996h93l-64 -358h2zM475 272c0 77 -47 137 -132 137c-105 0 -188 -95 -188 -208c0 -80 54 -138 137 -138c110 0 183 93 183 209z" />
    <glyph glyph-name="ugrave" unicode="&#xf9;" horiz-adv-x="581" 
d="M440 0h-88l10 77h-2c-34 -54 -91 -90 -158 -90c-103 0 -159 62 -159 147c0 15 2 31 5 47l52 293h92l-46 -261c-3 -19 -5 -37 -5 -54c0 -54 23 -93 91 -93c74 0 135 62 151 156l45 252h92l-65 -371c-5 -25 -12 -71 -15 -103zM299 564l-137 144h110l100 -144h-73z" />
    <glyph glyph-name="uacute" unicode="&#xfa;" horiz-adv-x="581" 
d="M440 0h-88l10 77h-2c-34 -54 -91 -90 -158 -90c-103 0 -159 62 -159 147c0 15 2 31 5 47l52 293h92l-46 -261c-3 -19 -5 -37 -5 -54c0 -54 23 -93 91 -93c74 0 135 62 151 156l45 252h92l-65 -371c-5 -25 -12 -71 -15 -103zM506 708l-162 -144h-74l125 144h111z" />
    <glyph glyph-name="ucircumflex" unicode="&#xfb;" horiz-adv-x="581" 
d="M440 0h-88l10 77h-2c-34 -54 -91 -90 -158 -90c-103 0 -159 62 -159 147c0 15 2 31 5 47l52 293h92l-46 -261c-3 -19 -5 -37 -5 -54c0 -54 23 -93 91 -93c74 0 135 62 151 156l45 252h92l-65 -371c-5 -25 -12 -71 -15 -103zM404 708l86 -144h-86l-59 99l-94 -99h-91
l138 144h106z" />
    <glyph glyph-name="utilde" unicode="&#x169;" horiz-adv-x="581" 
d="M440 0h-88l10 77h-2c-34 -54 -91 -90 -158 -90c-103 0 -159 62 -159 147c0 15 2 31 5 47l52 293h92l-46 -261c-3 -19 -5 -37 -5 -54c0 -54 23 -93 91 -93c74 0 135 62 151 156l45 252h92l-65 -371c-5 -25 -12 -71 -15 -103zM204 572h-55c20 58 55 115 123 115
c26 0 50 -9 72 -21c23 -11 44 -21 63 -21c28 0 45 24 55 47h55c-21 -58 -55 -115 -123 -115c-24 0 -47 10 -69 20c-23 12 -45 22 -65 22c-29 0 -45 -24 -56 -47z" />
    <glyph glyph-name="udieresis" unicode="&#xfc;" horiz-adv-x="581" 
d="M440 0h-88l10 77h-2c-34 -54 -91 -90 -158 -90c-103 0 -159 62 -159 147c0 15 2 31 5 47l52 293h92l-46 -261c-3 -19 -5 -37 -5 -54c0 -54 23 -93 91 -93c74 0 135 62 151 156l45 252h92l-65 -371c-5 -25 -12 -71 -15 -103zM495 647c0 -33 -25 -60 -59 -60
c-32 0 -58 21 -58 57s28 61 61 61c32 0 56 -22 56 -58zM297 647c0 -33 -25 -60 -58 -60s-59 21 -59 57s29 61 61 61s56 -22 56 -58z" />
    <glyph glyph-name="umacron" unicode="&#x16b;" horiz-adv-x="581" 
d="M440 0h-88l10 77h-2c-34 -54 -91 -90 -158 -90c-103 0 -159 62 -159 147c0 15 2 31 5 47l52 293h92l-46 -261c-3 -19 -5 -37 -5 -54c0 -54 23 -93 91 -93c74 0 135 62 151 156l45 252h92l-65 -371c-5 -25 -12 -71 -15 -103zM487 663l-12 -66h-294l11 66h295z" />
    <glyph glyph-name="ubreve" unicode="&#x16d;" horiz-adv-x="581" 
d="M440 0h-88l10 77h-2c-34 -54 -91 -90 -158 -90c-103 0 -159 62 -159 147c0 15 2 31 5 47l52 293h92l-46 -261c-3 -19 -5 -37 -5 -54c0 -54 23 -93 91 -93c74 0 135 62 151 156l45 252h92l-65 -371c-5 -25 -12 -71 -15 -103zM441 708h55c-19 -88 -87 -138 -175 -138
s-142 44 -142 138h56c0 -54 40 -72 90 -72c56 0 101 18 116 72z" />
    <glyph glyph-name="uring" unicode="&#x16f;" horiz-adv-x="581" 
d="M440 0h-88l10 77h-2c-34 -54 -91 -90 -158 -90c-103 0 -159 62 -159 147c0 15 2 31 5 47l52 293h92l-46 -261c-3 -19 -5 -37 -5 -54c0 -54 23 -93 91 -93c74 0 135 62 151 156l45 252h92l-65 -371c-5 -25 -12 -71 -15 -103zM322 553c-51 0 -87 36 -87 83
c0 63 46 115 111 115c52 0 87 -34 87 -82c0 -65 -46 -116 -111 -116zM392 663c0 28 -19 51 -49 51c-39 0 -66 -32 -66 -73c0 -28 18 -50 48 -50c39 0 67 32 67 72z" />
    <glyph glyph-name="uhungarumlaut" unicode="&#x171;" horiz-adv-x="581" 
d="M440 0h-88l10 77h-2c-34 -54 -91 -90 -158 -90c-103 0 -159 62 -159 147c0 15 2 31 5 47l52 293h92l-46 -261c-3 -19 -5 -37 -5 -54c0 -54 23 -93 91 -93c74 0 135 62 151 156l45 252h92l-65 -371c-5 -25 -12 -71 -15 -103zM428 708l-162 -144h-76l125 144h113zM609 708
l-163 -144h-76l126 144h113z" />
    <glyph glyph-name="uogonek" unicode="&#x173;" horiz-adv-x="581" 
d="M403 -147l14 -44c-30 -22 -64 -37 -99 -37c-47 0 -83 24 -83 75c0 63 66 119 117 155c2 19 7 54 10 75h-2c-34 -54 -91 -90 -158 -90c-103 0 -159 62 -159 147c0 15 2 31 5 47l52 293h92l-46 -261c-3 -19 -5 -37 -5 -54c0 -54 23 -93 91 -93c74 0 135 62 151 156l45 252
h92l-65 -371c-5 -25 -12 -71 -15 -103h-36c-51 -42 -98 -90 -98 -133c0 -27 18 -35 41 -35c19 0 40 8 56 21z" />
    <glyph glyph-name="wcircumflex" unicode="&#x175;" horiz-adv-x="759" 
d="M40 474h97l33 -362h2l185 362h93l47 -362h3l180 362h98l-250 -474h-96l-48 359h-2l-187 -359h-96zM498 708l86 -144h-86l-59 99l-94 -99h-91l138 144h106z" />
    <glyph glyph-name="wacute" unicode="&#x1e83;" horiz-adv-x="759" 
d="M40 474h97l33 -362h2l185 362h93l47 -362h3l180 362h98l-250 -474h-96l-48 359h-2l-187 -359h-96zM617 708l-162 -144h-74l125 144h111z" />
    <glyph glyph-name="wdieresis" unicode="&#x1e85;" horiz-adv-x="759" 
d="M40 474h97l33 -362h2l185 362h93l47 -362h3l180 362h98l-250 -474h-96l-48 359h-2l-187 -359h-96zM393 647c0 -33 -25 -60 -58 -60s-59 21 -59 57s29 61 61 61s56 -22 56 -58zM591 647c0 -33 -25 -60 -59 -60c-32 0 -58 21 -58 57s28 61 61 61c32 0 56 -22 56 -58z" />
    <glyph glyph-name="wgrave" unicode="&#x1e81;" horiz-adv-x="759" 
d="M40 474h97l33 -362h2l185 362h93l47 -362h3l180 362h98l-250 -474h-96l-48 359h-2l-187 -359h-96zM383 564l-137 144h110l100 -144h-73z" />
    <glyph glyph-name="yacute" unicode="&#xfd;" horiz-adv-x="495" 
d="M139 474l68 -373h2l210 373h100l-347 -586c-47 -79 -89 -128 -170 -128c-20 0 -39 2 -59 7l13 82c14 -5 30 -8 44 -8c43 0 67 28 97 79l47 80l-104 474h99zM470 708l-162 -144h-74l125 144h111z" />
    <glyph glyph-name="ycircumflex" unicode="&#x177;" horiz-adv-x="495" 
d="M139 474l68 -373h2l210 373h100l-347 -586c-47 -79 -89 -128 -170 -128c-20 0 -39 2 -59 7l13 82c14 -5 30 -8 44 -8c43 0 67 28 97 79l47 80l-104 474h99zM372 708l86 -144h-86l-59 99l-94 -99h-91l138 144h106z" />
    <glyph glyph-name="ydieresis" unicode="&#xff;" horiz-adv-x="495" 
d="M139 474l68 -373h2l210 373h100l-347 -586c-47 -79 -89 -128 -170 -128c-20 0 -39 2 -59 7l13 82c14 -5 30 -8 44 -8c43 0 67 28 97 79l47 80l-104 474h99zM263 647c0 -33 -25 -60 -58 -60s-59 21 -59 57s29 61 61 61s56 -22 56 -58zM461 647c0 -33 -25 -60 -59 -60
c-32 0 -58 21 -58 57s28 61 61 61c32 0 56 -22 56 -58z" />
    <glyph glyph-name="ygrave" unicode="&#x1ef3;" horiz-adv-x="495" 
d="M139 474l68 -373h2l210 373h100l-347 -586c-47 -79 -89 -128 -170 -128c-20 0 -39 2 -59 7l13 82c14 -5 30 -8 44 -8c43 0 67 28 97 79l47 80l-104 474h99zM268 564l-137 144h110l100 -144h-73z" />
    <glyph glyph-name="zacute" unicode="&#x17a;" horiz-adv-x="461" 
d="M450 474l-13 -76l-328 -320h279l-13 -78h-396l13 76l327 322h-254l14 76h371zM439 708l-162 -144h-74l125 144h111z" />
    <glyph glyph-name="zcaron" unicode="&#x17e;" horiz-adv-x="461" 
d="M450 474l-13 -76l-328 -320h279l-13 -78h-396l13 76l327 322h-254l14 76h371zM463 708l-137 -144h-106l-86 144h87l58 -99l94 99h90z" />
    <glyph glyph-name="zdotaccent" unicode="&#x17c;" horiz-adv-x="461" 
d="M450 474l-13 -76l-328 -320h279l-13 -78h-396l13 76l327 322h-254l14 76h371zM347 647c0 -33 -26 -61 -59 -61c-32 0 -59 21 -59 57s29 62 61 62s57 -23 57 -58z" />
    <glyph glyph-name="IJ" unicode="&#x132;" horiz-adv-x="759" 
d="M255 708l-125 -708h-98l125 708h98zM251 129l89 26c7 -48 40 -87 94 -87c90 0 116 70 130 153l86 487h98l-87 -492c-17 -100 -57 -234 -224 -234c-109 0 -175 63 -186 147z" />
    <glyph glyph-name="ij" unicode="&#x133;" horiz-adv-x="516" 
d="M205 474l-84 -474h-92l83 474h93zM245 647c0 -33 -26 -61 -59 -61c-32 0 -59 21 -59 57s29 62 61 62s57 -23 57 -58zM139 -234l19 79c11 -3 26 -5 37 -5c57 0 70 44 81 101l94 533h93l-95 -536c-16 -94 -50 -178 -174 -178c-17 0 -41 3 -55 6zM502 647
c0 -33 -26 -61 -59 -61c-32 0 -59 21 -59 57s29 62 61 62s57 -23 57 -58z" />
    <glyph glyph-name="f_i" unicode="&#xf001;" horiz-adv-x="573" 
d="M333 474l-14 -75h-111l-70 -399h-91l70 399h-95l14 75h93l18 100c18 99 70 194 196 194c21 0 40 -2 57 -7l-20 -80c-13 4 -27 7 -44 7c-65 0 -88 -56 -98 -115l-18 -99h113zM519 474l-84 -474h-92l83 474h93zM559 647c0 -33 -26 -61 -59 -61c-32 0 -59 21 -59 57
s29 62 61 62s57 -23 57 -58z" />
    <glyph glyph-name="f_l" unicode="&#xf002;" horiz-adv-x="572" 
d="M333 474l-14 -75h-111l-70 -399h-91l70 399h-95l14 75h93l18 100c18 99 70 194 196 194c21 0 40 -2 57 -7l-20 -80c-13 4 -27 7 -44 7c-65 0 -88 -56 -98 -115l-18 -99h113zM568 756l-134 -756h-93l133 756h94z" />
    <glyph glyph-name="grave.cap" 
d="M156 764l-137 144h110l100 -144h-73z" />
    <glyph glyph-name="acute" unicode="&#xb4;" 
d="M352 708l-162 -144h-74l125 144h111z" />
    <glyph glyph-name="acute.cap" 
d="M352 908l-162 -144h-74l125 144h111z" />
    <glyph glyph-name="circumflex" unicode="&#x2c6;" 
d="M249 708l86 -144h-86l-59 99l-94 -99h-91l138 144h106z" />
    <glyph glyph-name="circumflex.cap" 
d="M249 908l86 -144h-86l-59 99l-94 -99h-91l138 144h106z" />
    <glyph glyph-name="caron" unicode="&#x2c7;" 
d="M360 708l-137 -144h-106l-86 144h87l58 -99l94 99h90z" />
    <glyph glyph-name="caron.cap" 
d="M360 908l-137 -144h-106l-86 144h87l58 -99l94 99h90z" />
    <glyph glyph-name="caron.alt" 
d="M252 708l-120 -190h-77l104 190h93z" />
    <glyph glyph-name="tilde" unicode="&#x2dc;" 
d="M54 572h-55c20 58 55 115 123 115c26 0 50 -9 72 -21c23 -11 44 -21 63 -21c28 0 45 24 55 47h55c-21 -58 -55 -115 -123 -115c-24 0 -47 10 -69 20c-23 12 -45 22 -65 22c-29 0 -45 -24 -56 -47z" />
    <glyph glyph-name="tilde.cap" 
d="M54 772h-55c20 58 55 115 123 115c26 0 50 -9 72 -21c23 -11 44 -21 63 -21c28 0 45 24 55 47h55c-21 -58 -55 -115 -123 -115c-24 0 -47 10 -69 20c-23 12 -45 22 -65 22c-29 0 -45 -24 -56 -47z" />
    <glyph glyph-name="dieresis" unicode="&#xa8;" 
d="M143 647c0 -33 -25 -60 -58 -60s-59 21 -59 57s29 61 61 61s56 -22 56 -58zM341 647c0 -33 -25 -60 -59 -60c-32 0 -58 21 -58 57s28 61 61 61c32 0 56 -22 56 -58z" />
    <glyph glyph-name="dieresis.cap" 
d="M341 847c0 -33 -25 -60 -59 -60c-32 0 -58 21 -58 57s28 61 61 61c32 0 56 -22 56 -58zM143 847c0 -33 -25 -60 -58 -60s-59 21 -59 57s29 61 61 61s56 -22 56 -58z" />
    <glyph glyph-name="macron" unicode="&#xaf;" 
d="M335 663l-12 -66h-294l11 66h295z" />
    <glyph glyph-name="macron.cap" 
d="M335 863l-12 -66h-294l11 66h295z" />
    <glyph glyph-name="uni02C9" unicode="&#x2c9;" 
d="M335 863l-12 -66h-294l11 66h295z" />
    <glyph glyph-name="breve" unicode="&#x2d8;" 
d="M299 708h55c-19 -88 -87 -138 -175 -138s-142 44 -142 138h56c0 -54 40 -72 90 -72c56 0 101 18 116 72z" />
    <glyph glyph-name="breve.cap" 
d="M299 908h55c-19 -88 -87 -138 -175 -138s-142 44 -142 138h56c0 -54 40 -72 90 -72c56 0 101 18 116 72z" />
    <glyph glyph-name="ring" unicode="&#x2da;" 
d="M175 553c-51 0 -87 36 -87 83c0 63 46 115 111 115c52 0 87 -34 87 -82c0 -65 -46 -116 -111 -116zM245 663c0 28 -19 51 -49 51c-39 0 -66 -32 -66 -73c0 -28 18 -50 48 -50c39 0 67 32 67 72z" />
    <glyph glyph-name="ring.cap" 
d="M175 753c-51 0 -87 36 -87 83c0 63 46 115 111 115c52 0 87 -34 87 -82c0 -65 -46 -116 -111 -116zM245 863c0 28 -19 51 -49 51c-39 0 -66 -32 -66 -73c0 -28 18 -50 48 -50c39 0 67 32 67 72z" />
    <glyph glyph-name="hungarumlaut" unicode="&#x2dd;" 
d="M463 708l-163 -144h-76l126 144h113zM282 708l-162 -144h-76l125 144h113z" />
    <glyph glyph-name="hungarumlaut.cap" 
d="M463 908l-163 -144h-76l126 144h113zM282 908l-162 -144h-76l125 144h113z" />
    <glyph glyph-name="dotaccent" unicode="&#x2d9;" 
d="M245 647c0 -33 -26 -61 -59 -61c-32 0 -59 21 -59 57s29 62 61 62s57 -23 57 -58z" />
    <glyph glyph-name="dotaccent.cap" 
d="M245 847c0 -33 -26 -61 -59 -61c-32 0 -59 21 -59 57s29 62 61 62s57 -23 57 -58z" />
    <glyph glyph-name="cedilla" unicode="&#xb8;" 
d="M113 0l-59 -70c10 3 18 3 26 3c35 0 82 -17 82 -71c0 -73 -77 -97 -132 -97c-34 0 -78 9 -104 23l24 42c22 -11 50 -17 76 -17s65 8 65 43c0 28 -23 37 -48 37c-13 0 -29 -3 -42 -7l-17 20l79 94h50z" />
    <glyph glyph-name="ogonek" unicode="&#x2db;" 
d="M105 -147l14 -44c-30 -22 -64 -37 -99 -37c-47 0 -83 24 -83 75c0 64 68 120 119 156h54c-52 -43 -102 -92 -102 -136c0 -27 18 -35 41 -35c19 0 40 8 56 21z" />
    <glyph glyph-name="commaaccent" 
d="M200 -45l-120 -190h-77l104 190h93z" />
    <glyph glyph-name="commaaccent.alt" 
d="M100 564l120 195h77l-104 -195h-93z" />
    <glyph glyph-name="ellipsis" unicode="&#x2026;" horiz-adv-x="1000" 
d="M188 61c0 -35 -29 -66 -64 -66s-64 23 -64 62c0 38 31 66 66 66s62 -24 62 -62zM522 61c0 -35 -29 -66 -64 -66s-64 23 -64 62c0 38 31 66 66 66s62 -24 62 -62zM856 61c0 -35 -29 -66 -64 -66s-64 23 -64 62c0 38 31 66 66 66s62 -24 62 -62z" />
    <glyph glyph-name="uni00AD" unicode="&#xad;" horiz-adv-x="320" 
d="M272 284l-14 -79h-232l14 79h232z" />
    <glyph glyph-name="exclamdown" unicode="&#xa1;" horiz-adv-x="287" 
d="M2 -221l88 501h95l-88 -501h-95zM94 426c0 36 28 66 64 66c35 0 63 -23 63 -62c0 -38 -31 -66 -65 -66c-35 0 -62 24 -62 62z" />
    <glyph glyph-name="questiondown" unicode="&#xbf;" horiz-adv-x="500" 
d="M198 255l4 32h92l-8 -49c-11 -70 -46 -108 -99 -149l-42 -33c-40 -31 -73 -61 -73 -117c0 -57 36 -90 96 -90c72 0 119 51 132 111l89 -15c-24 -105 -112 -180 -229 -180c-101 0 -186 48 -186 168c0 81 48 134 126 188c62 44 88 68 98 134zM198 427c0 35 28 66 64 66
c34 0 63 -23 63 -63c0 -38 -31 -66 -66 -66c-34 0 -61 24 -61 63z" />
    <glyph glyph-name="quoteleft" unicode="&#x2018;" horiz-adv-x="245" 
d="M69 459l127 249h78l-113 -249h-92z" />
    <glyph glyph-name="quoteright" unicode="&#x2019;" horiz-adv-x="245" 
d="M274 708l-127 -249h-78l113 249h92z" />
    <glyph glyph-name="quotedblleft" unicode="&#x201c;" horiz-adv-x="424" 
d="M453 708l-112 -249h-93l127 249h78zM273 708l-112 -249h-92l127 249h77z" />
    <glyph glyph-name="quotedblright" unicode="&#x201d;" horiz-adv-x="424" 
d="M453 708l-127 -249h-78l113 249h92zM274 708l-127 -249h-78l113 249h92z" />
    <glyph glyph-name="quotesinglbase" unicode="&#x201a;" horiz-adv-x="245" 
d="M170 116l-128 -249h-77l112 249h93z" />
    <glyph glyph-name="quotedblbase" unicode="&#x201e;" horiz-adv-x="424" 
d="M349 116l-127 -249h-78l112 249h93zM170 116l-128 -249h-77l112 249h93z" />
    <glyph glyph-name="guilsinglleft" unicode="&#x2039;" horiz-adv-x="306" 
d="M124 242l85 -173l-67 -43l-109 218l184 216l54 -43z" />
    <glyph glyph-name="guilsinglright" unicode="&#x203a;" horiz-adv-x="306" 
d="M162 248l-85 173l66 39l110 -218l-185 -217l-54 46z" />
    <glyph glyph-name="guillemotleft" unicode="&#xab;" horiz-adv-x="507" 
d="M124 238l85 -173l-66 -40l-110 219l184 216l55 -45zM324 238l85 -173l-65 -40l-110 219l184 216l54 -45z" />
    <glyph glyph-name="guillemotright" unicode="&#xbb;" horiz-adv-x="507" 
d="M364 248l-85 173l65 39l110 -218l-184 -217l-54 46zM163 248l-85 173l66 39l110 -218l-185 -217l-54 46z" />
    <glyph glyph-name="endash" unicode="&#x2013;" horiz-adv-x="400" 
d="M377 282l-14 -75h-340l14 75h340z" />
    <glyph glyph-name="emdash" unicode="&#x2014;" horiz-adv-x="600" 
d="M577 282l-14 -75h-540l14 75h540z" />
    <glyph glyph-name="bullet" unicode="&#x2022;" horiz-adv-x="500" 
d="M73 354c0 98 79 177 177 177s177 -79 177 -177s-79 -177 -177 -177s-177 79 -177 177z" />
    <glyph glyph-name="periodcentered" unicode="&#xb7;" horiz-adv-x="260" 
d="M197 306c0 -35 -28 -66 -64 -66c-35 0 -63 23 -63 62c0 38 31 66 66 66c34 0 61 -24 61 -62z" />
    <glyph glyph-name="uni2219" unicode="&#x2219;" horiz-adv-x="260" 
d="M197 306c0 -35 -28 -66 -64 -66c-35 0 -63 23 -63 62c0 38 31 66 66 66c34 0 61 -24 61 -62z" />
    <glyph glyph-name="dagger" unicode="&#x2020;" horiz-adv-x="574" 
d="M402 708l-36 -203h202l-14 -78h-202l-97 -553h-89l97 553h-201l14 78h201l36 203h89z" />
    <glyph glyph-name="daggerdbl" unicode="&#x2021;" horiz-adv-x="574" 
d="M402 708l-33 -188h194l-14 -78h-194l-53 -301h194l-13 -78h-194l-34 -189h-89l33 189h-193l13 78h194l53 301h-194l14 78h193l34 188h89z" />
    <glyph glyph-name="section" unicode="&#xa7;" horiz-adv-x="583" 
d="M551 643l-73 -55c-25 39 -66 57 -111 57c-66 0 -115 -35 -115 -93c0 -49 32 -69 106 -100c90 -38 143 -78 143 -159s-49 -127 -113 -151c28 -25 46 -59 46 -96c0 -123 -102 -187 -216 -187c-82 0 -174 41 -206 107l79 50c22 -50 80 -76 126 -76c62 0 118 26 118 91
c0 52 -33 76 -117 109c-88 35 -137 74 -137 153c0 73 50 130 123 151c-28 18 -49 54 -49 97c0 113 98 182 215 182c81 0 149 -30 181 -80zM411 277c0 49 -35 74 -74 92l-72 34c-46 -7 -93 -42 -93 -95c0 -49 32 -69 79 -90l79 -34c44 11 81 44 81 93z" />
    <glyph glyph-name="paragraph" unicode="&#xb6;" horiz-adv-x="600" 
d="M594 708l-147 -834h-78l136 771h-116l-136 -771h-78l80 453c-113 0 -182 64 -182 152c0 107 76 229 268 229h253z" />
    <glyph glyph-name="brokenbar" unicode="&#xa6;" horiz-adv-x="222" 
d="M70 675h82v-350h-82v350zM70 175h82v-350h-82v350z" />
    <glyph glyph-name="copyright" unicode="&#xa9;" horiz-adv-x="800" 
d="M20 353c0 210 171 377 381 377c209 0 379 -167 379 -377c0 -209 -170 -375 -379 -375c-210 0 -381 166 -381 375zM80 353c0 -176 144 -319 321 -319c176 0 319 143 319 319c0 177 -143 321 -319 321c-177 0 -321 -144 -321 -321zM573 519l-58 -46c-23 31 -63 44 -98 44
c-89 0 -149 -68 -149 -157c0 -94 57 -159 146 -159c46 0 83 20 105 50l61 -43c-38 -48 -94 -76 -167 -76c-134 0 -230 93 -230 228c0 138 101 225 234 225c56 0 122 -21 156 -66z" />
    <glyph glyph-name="registered" unicode="&#xae;" horiz-adv-x="600" 
d="M304 511h47c18 0 37 13 37 33c0 21 -22 30 -37 30h-47v-63zM467 368h-72l-55 99h-36v-99h-61v256h110c47 0 97 -19 97 -80c0 -34 -22 -58 -51 -68zM112 493c0 126 102 227 228 227s228 -101 228 -227s-102 -225 -228 -225s-228 99 -228 225zM148 493
c0 -105 86 -192 192 -192s192 87 192 192c0 106 -86 192 -192 192s-192 -86 -192 -192z" />
    <glyph glyph-name="trademark" unicode="&#x2122;" horiz-adv-x="1000" 
d="M465 708v-72h-127v-340h-81v340h-129v72h337zM1009 708v-412h-82v307h-2l-119 -307h-55l-120 307h-2v-307h-81v412h118l113 -292l113 292h117z" />
    <glyph glyph-name="currency" unicode="&#xa4;" horiz-adv-x="890" 
d="M661 465c31 -41 48 -94 48 -156c0 -63 -18 -118 -51 -161l93 -93c-18 -19 -37 -38 -56 -56c-32 30 -64 62 -96 94c-41 -30 -94 -47 -153 -47c-57 0 -108 16 -154 49l-98 -96c-19 18 -37 37 -56 56l95 96c-31 41 -49 95 -49 158c0 60 17 112 46 154c-31 30 -61 61 -92 92
l57 56l93 -92c43 32 97 50 158 50c60 0 114 -17 157 -49c30 31 61 61 91 91l57 -56zM446 478c-99 0 -163 -77 -163 -169c0 -94 64 -171 163 -171s164 77 164 171c0 92 -65 169 -164 169z" />
    <glyph glyph-name="Euro" unicode="&#x20ac;" horiz-adv-x="595" 
d="M574 614c-30 20 -74 29 -119 29c-102 0 -184 -71 -226 -165h288l-35 -71h-279c-10 -29 -19 -80 -19 -107h253l-34 -71h-220c3 -96 75 -165 188 -165c48 0 88 12 132 38l21 -75c-44 -28 -98 -45 -166 -45c-175 0 -263 117 -268 247h-83l36 71h47c1 22 8 66 20 107h-70
l37 71h55c54 139 176 248 333 248c59 0 115 -13 148 -33z" />
    <glyph glyph-name="cent" unicode="&#xa2;" horiz-adv-x="595" 
d="M246 -9c-108 17 -176 94 -176 201c0 150 103 281 263 294l11 63h51l-11 -64c60 -5 116 -30 145 -78l-72 -54c-14 28 -48 51 -86 56l-61 -344c54 2 91 26 121 57l55 -52c-49 -49 -110 -82 -190 -83l-11 -65h-51zM260 69l60 339c-93 -13 -156 -105 -156 -205
c0 -64 30 -121 96 -134z" />
    <glyph glyph-name="sterling" unicode="&#xa3;" horiz-adv-x="595" 
d="M441 397l-13 -71h-166l-43 -244h264l-15 -82h-459l15 82h100l42 244h-97l13 71h95l16 88c18 100 76 241 247 241c65 0 120 -21 155 -58l-58 -66c-21 27 -57 45 -101 45c-108 0 -137 -104 -149 -168l-14 -82h168z" />
    <glyph glyph-name="florin" unicode="&#x192;" horiz-adv-x="595" 
d="M471 423l-13 -72h-128l-119 -321c-36 -99 -94 -169 -200 -169c-32 0 -63 8 -87 24l50 69c13 -8 31 -13 48 -13c57 0 81 50 102 105l111 305h-111l13 72h125l47 127c33 91 88 170 196 170c38 0 71 -11 100 -30l-52 -70c-15 10 -34 17 -53 17c-63 0 -89 -65 -105 -109
l-39 -105h115z" />
    <glyph glyph-name="yen" unicode="&#xa5;" horiz-adv-x="595" 
d="M66 228h171l16 92h-170l11 65h150l-150 323h104l120 -294l217 294h109l-258 -323h142l-11 -65h-172l-17 -92h172l-11 -65h-171l-29 -163h-91l29 163h-171z" />
    <glyph glyph-name="ordfeminine" unicode="&#xaa;" horiz-adv-x="380" 
d="M353 637c0 -10 -2 -22 -3 -31l-20 -110c-4 -22 -5 -49 -5 -65h-56c0 11 1 24 4 39h-2c-21 -28 -52 -46 -94 -46c-49 0 -95 26 -95 78c0 87 92 108 207 108c0 5 2 12 2 17c0 31 -20 42 -54 42c-27 0 -59 -13 -81 -31l-27 43c36 28 81 41 117 41c65 0 107 -32 107 -85z
M283 564h-8c-56 0 -129 -7 -129 -53c0 -29 25 -37 48 -37c46 0 76 32 85 72z" />
    <glyph glyph-name="ordmasculine" unicode="&#xba;" horiz-adv-x="380" 
d="M390 599c0 -102 -75 -174 -170 -174c-82 0 -135 53 -135 122c0 100 74 174 170 174c78 0 135 -49 135 -122zM321 592c0 41 -26 72 -71 72c-56 0 -96 -51 -96 -109c0 -41 26 -72 70 -72c57 0 97 51 97 109z" />
    <glyph glyph-name="fraction" unicode="&#x2044;" horiz-adv-x="100" 
d="M359 707l-563 -739l-54 33l564 739z" />
    <glyph glyph-name="uni2215" unicode="&#x2215;" horiz-adv-x="100" 
d="M359 707l-563 -739l-54 33l564 739z" />
    <glyph glyph-name="onequarter" unicode="&#xbc;" horiz-adv-x="870" 
d="M739 707l-563 -739l-54 33l564 739zM317 708l-75 -426h-76l59 333l-80 -59l-36 51l142 101h66zM781 156l-12 -62h-62l-16 -94h-70l17 94h-190l10 60l222 272h85l-47 -270h63zM681 330h-4l-142 -174h114z" />
    <glyph glyph-name="onehalf" unicode="&#xbd;" horiz-adv-x="870" 
d="M739 707l-563 -739l-54 33l564 739zM317 708l-75 -426h-76l59 333l-80 -59l-36 51l142 101h66zM581 67h190l-13 -67h-280l12 69l186 156c44 37 61 64 61 93c0 34 -23 52 -61 52s-62 -24 -75 -64l-67 19c25 70 81 108 146 108c80 0 129 -44 129 -111
c0 -64 -33 -96 -98 -149z" />
    <glyph glyph-name="threequarters" unicode="&#xbe;" horiz-adv-x="870" 
d="M739 707l-563 -739l-54 33l564 739zM363 612c0 -58 -39 -93 -84 -104c40 -11 67 -47 67 -87c0 -92 -68 -141 -153 -141c-72 0 -121 37 -141 95l70 22c10 -36 37 -52 71 -52c51 0 80 28 80 69c0 47 -40 65 -87 65h-22l10 58h22c65 0 95 26 95 72c0 32 -22 49 -54 49
c-35 0 -55 -14 -74 -48l-56 34c31 52 79 77 136 77c73 0 120 -48 120 -109zM781 156l-12 -62h-62l-16 -94h-70l17 94h-190l10 60l222 272h85l-47 -270h63zM681 330h-4l-142 -174h114z" />
    <glyph glyph-name="perthousand" unicode="&#x2030;" horiz-adv-x="1041" 
d="M362 590c0 -104 -75 -186 -179 -186c-82 0 -142 55 -142 133c0 103 76 184 181 184c83 0 140 -53 140 -131zM282 578c0 38 -26 69 -68 69c-53 0 -92 -44 -92 -101c0 -38 26 -68 67 -68c55 0 93 44 93 100zM658 176c0 -104 -75 -186 -179 -186c-82 0 -142 55 -142 133
c0 103 76 184 181 184c83 0 140 -53 140 -131zM578 164c0 38 -26 69 -68 69c-53 0 -92 -44 -92 -101c0 -38 26 -68 67 -68c55 0 93 44 93 100zM1012 176c0 -104 -75 -186 -179 -186c-82 0 -142 55 -142 133c0 103 76 184 181 184c83 0 140 -53 140 -131zM932 164
c0 38 -26 69 -68 69c-53 0 -92 -44 -92 -101c0 -38 26 -68 67 -68c55 0 93 44 93 100zM629 699l-524 -739l-57 39l526 739z" />
    <glyph glyph-name="minus" unicode="&#x2212;" horiz-adv-x="666" 
d="M596 344v-82h-526v82h526z" />
    <glyph glyph-name="plusminus" unicode="&#xb1;" horiz-adv-x="666" 
d="M70 338v81h223v150h81v-150h222v-81h-222v-147h-81v147h-223zM70 40v81h526v-81h-526z" />
    <glyph glyph-name="multiply" unicode="&#xd7;" horiz-adv-x="666" 
d="M162 531l171 -171l170 171l57 -56l-170 -171l172 -173l-59 -58l-171 170l-170 -170l-58 58l172 170l-171 174z" />
    <glyph glyph-name="divide" unicode="&#xf7;" horiz-adv-x="666" 
d="M596 344v-82h-526v82h526zM398 132c0 -35 -28 -65 -65 -65s-65 30 -65 65c0 34 28 65 65 65s65 -31 65 -65zM398 469c0 -35 -28 -65 -65 -65s-65 30 -65 65c0 34 28 65 65 65s65 -31 65 -65z" />
    <glyph glyph-name="notequal" unicode="&#x2260;" horiz-adv-x="666" 
d="M552 108h-286l-77 -149l-73 38l58 111h-134v84h177l63 123h-240v84h284l77 149l74 -37l-59 -112h136v-84h-179l-64 -123h243v-84z" />
    <glyph glyph-name="approxequal" unicode="&#x2248;" horiz-adv-x="666" 
d="M599 440c-8 -79 -46 -155 -137 -155c-41 0 -92 18 -140 36c-48 17 -93 35 -125 35c-41 0 -65 -38 -71 -74h-59c9 77 47 156 136 156c43 0 90 -17 136 -35c47 -17 93 -35 132 -35c42 0 63 34 70 72h58zM599 240c-8 -79 -46 -155 -137 -155c-41 0 -92 18 -140 36
c-48 17 -93 35 -125 35c-41 0 -65 -38 -71 -74h-59c9 77 47 156 136 156c43 0 90 -17 136 -35c47 -17 93 -35 132 -35c42 0 63 34 70 72h58z" />
    <glyph glyph-name="lessequal" unicode="&#x2264;" horiz-adv-x="666" 
d="M589 130l-512 179v86l512 183v-89l-397 -137l397 -134v-88zM589 8h-512v84h512v-84z" />
    <glyph glyph-name="greaterequal" unicode="&#x2265;" horiz-adv-x="666" 
d="M589 309l-512 -179v88l397 134l-397 137v89l512 -183v-86zM589 8h-512v84h512v-84z" />
    <glyph glyph-name="logicalnot" unicode="&#xac;" horiz-adv-x="666" 
d="M596 426v-287h-81v206h-445v81h526z" />
    <glyph glyph-name="Delta" unicode="&#x2206;" horiz-adv-x="685" 
d="M-41 0l16 69l419 639h89l135 -639l-16 -69h-643zM416 597l-317 -510h413z" />
    <glyph glyph-name="Omega" unicode="&#x2126;" horiz-adv-x="766" 
d="M656 0h-274l30 172c111 29 190 106 208 234c14 103 -26 232 -194 232c-160 0 -243 -120 -258 -232c-19 -133 41 -212 146 -234l-30 -172h-274l15 82h195l5 25c-132 47 -179 168 -161 297c29 201 196 321 374 321c190 0 311 -131 284 -320c-19 -141 -103 -253 -243 -298
l-4 -25h196z" />
    <glyph glyph-name="mu" unicode="&#xb5;" horiz-adv-x="600" 
d="M521 71l-7 -71c-24 -8 -37 -8 -57 -8c-58 0 -86 36 -81 86h-2c-33 -54 -94 -91 -156 -91c-46 0 -79 19 -89 43h-2l-48 -270h-93l126 714h94l-47 -262c-14 -78 -2 -146 84 -146c76 0 137 60 153 154l45 254h94l-66 -372c-3 -18 1 -34 26 -34c10 0 17 1 26 3z" />
    <glyph glyph-name="degree" unicode="&#xb0;" horiz-adv-x="400" 
d="M395 565c0 -87 -68 -154 -155 -154s-155 67 -155 154s68 155 155 155s155 -68 155 -155zM331 565c0 51 -41 92 -91 92s-91 -41 -91 -92c0 -50 41 -91 91 -91s91 41 91 91z" />
    <glyph glyph-name="afii61289" unicode="&#x2113;" horiz-adv-x="500" 
d="M473 612c0 -117 -107 -235 -248 -340c-31 -132 -33 -152 -33 -166c0 -40 26 -53 51 -53c28 0 55 11 99 41h2l23 -53c-52 -38 -97 -55 -149 -55c-71 0 -116 38 -116 104c0 14 3 31 22 121l-67 -54h-2l-25 51l110 83l54 254c25 116 91 176 173 176c62 0 106 -47 106 -109z
M397 608c0 29 -16 52 -39 52c-29 0 -55 -24 -70 -95l-46 -211c68 61 155 166 155 254z" />
    <glyph glyph-name="estimated" unicode="&#x212e;" horiz-adv-x="500" 
d="M561 259h-404v-181c39 -39 87 -59 145 -59c83 0 143 36 193 120l35 -21c-61 -95 -123 -135 -228 -135c-157 0 -258 122 -258 276c0 155 101 276 258 276c154 0 258 -114 259 -276zM157 295h291v145c-42 40 -91 60 -147 60c-57 0 -105 -21 -144 -60v-145z" />
    <glyph glyph-name="infinity" unicode="&#x221e;" horiz-adv-x="778" 
d="M681 260c0 49 -29 89 -82 89c-54 0 -107 -54 -143 -90c39 -38 88 -84 146 -84c50 0 79 37 79 85zM361 259c-37 35 -93 89 -147 89c-49 0 -78 -42 -78 -88c0 -50 31 -85 82 -85c52 0 109 49 143 84zM754 263c0 -97 -60 -174 -161 -174c-80 0 -135 51 -185 107
c-52 -56 -101 -106 -183 -106c-101 0 -164 74 -164 172c0 95 60 171 160 171c83 0 137 -55 187 -114c49 58 103 115 186 115c99 0 160 -76 160 -171z" />
    <glyph glyph-name="partialdiff" unicode="&#x2202;" horiz-adv-x="523" 
d="M481 360c0 -157 -38 -372 -238 -372c-129 0 -208 102 -208 225c0 121 78 216 203 216c61 0 115 -27 156 -70c0 13 1 27 1 41c0 104 -37 251 -167 251c-46 0 -81 -19 -116 -47l-47 55c49 39 96 62 159 62c199 0 257 -196 257 -361zM391 271c-30 55 -82 90 -142 90
c-87 0 -131 -72 -131 -152c0 -76 41 -155 127 -155c106 0 144 131 146 217z" />
    <glyph glyph-name="integral" unicode="&#x222b;" horiz-adv-x="574" 
d="M442 723c0 -25 -19 -42 -44 -42c-48 0 -40 55 -63 55c-25 0 -26 -50 -26 -86c0 -34 2 -67 2 -86v-568c-1 -94 -17 -209 -132 -209c-34 0 -83 14 -83 60c0 23 19 41 42 41c47 0 39 -54 61 -54c25 0 25 65 25 89c0 26 -2 51 -2 65c0 4 1 8 1 12v499c0 22 -1 48 -1 75
c0 98 13 212 132 212c31 0 88 -18 88 -63z" />
    <glyph glyph-name="radical" unicode="&#x221a;" horiz-adv-x="515" 
d="M526 786l-211 -1000h-86l-158 328l-48 -23l-33 70l124 58l144 -302l178 869h90z" />
    <glyph glyph-name="summation" unicode="&#x2211;" horiz-adv-x="626" 
d="M601 -214h-576v72l316 433l-303 422v73h551v-83h-432l292 -412l-311 -423h463v-82z" />
    <glyph glyph-name="product" unicode="&#x220f;" horiz-adv-x="726" 
d="M660 -214h-90v917h-413v-917h-91v1000h594v-1000z" />
    <glyph glyph-name="lozenge" unicode="&#x25ca;" horiz-adv-x="593" 
d="M511 356l-174 -391h-82l-173 391l173 391h82zM424 356l-128 305l-127 -305l127 -305z" />
    <glyph glyph-name="uniF8FF" unicode="&#xf8ff;" horiz-adv-x="512" 
d="M278 117h-56v67h56v-67zM271 234h-46l-2 17c0 37 4 64 13 81s24 37 46 59c43 41 50 58 50 83c0 48 -35 85 -76 85s-74 -27 -82 -95l-50 8c9 95 63 137 135 137c71 0 124 -52 124 -131c0 -43 -12 -73 -63 -120c-25 -22 -39 -39 -43 -52s-6 -37 -6 -72zM50 50h412v617h-412
v-617zM0 718h512v-718h-512v718z" />
    <glyph glyph-name="uni03A9" unicode="&#x3a9;" horiz-adv-x="766" 
d="M656 0h-274l30 172c111 29 190 106 208 234c14 103 -26 232 -194 232c-160 0 -243 -120 -258 -232c-19 -133 41 -212 146 -234l-30 -172h-274l15 82h195l5 25c-132 47 -179 168 -161 297c29 201 196 321 374 321c190 0 311 -131 284 -320c-19 -141 -103 -253 -243 -298
l-4 -25h196z" />
    <glyph glyph-name="uni03BC" unicode="&#x3bc;" horiz-adv-x="600" 
d="M521 71l-7 -71c-24 -8 -37 -8 -57 -8c-58 0 -86 36 -81 86h-2c-33 -54 -94 -91 -156 -91c-46 0 -79 19 -89 43h-2l-48 -270h-93l126 714h94l-47 -262c-14 -78 -2 -146 84 -146c76 0 137 60 153 154l45 254h94l-66 -372c-3 -18 1 -34 26 -34c10 0 17 1 26 3z" />
    <glyph glyph-name="pi" unicode="&#x3c0;" horiz-adv-x="673" 
d="M401 175l39 218h-161l-134 -393h-90l136 393h-117l14 81h570l-14 -81h-115l-42 -232c-2 -11 -5 -27 -5 -44c0 -30 16 -49 55 -49c12 0 21 1 29 3l-7 -73c-9 -3 -30 -6 -51 -6c-74 0 -117 37 -117 100c0 20 0 29 10 83z" />
    <glyph glyph-name="uni0394" unicode="&#x394;" horiz-adv-x="685" 
d="M-41 0l16 69l419 639h89l135 -639l-16 -69h-643zM416 597l-317 -510h413z" />
    <glyph glyph-name="zero.denominator" horiz-adv-x="385" 
d="M208 433c87 0 121 -67 121 -146c0 -119 -51 -294 -188 -294c-88 0 -123 65 -123 145c0 121 53 295 190 295zM202 368c-65 0 -108 -111 -108 -223c0 -51 14 -86 52 -86c63 0 107 110 107 222c0 54 -13 87 -51 87z" />
    <glyph glyph-name="one.denominator" horiz-adv-x="385" 
d="M260 426l-75 -426h-76l59 333l-80 -59l-36 51l142 101h66z" />
    <glyph glyph-name="two.denominator" horiz-adv-x="385" 
d="M103 67h190l-13 -67h-280l12 69l186 156c44 37 61 64 61 93c0 34 -23 52 -61 52s-62 -24 -75 -64l-67 19c25 70 81 108 146 108c80 0 129 -44 129 -111c0 -64 -33 -96 -98 -149z" />
    <glyph glyph-name="three.denominator" horiz-adv-x="385" 
d="M147 250c64 0 94 25 94 71c0 32 -23 49 -54 49c-35 0 -55 -14 -74 -48l-56 34c31 53 79 77 136 77c74 0 120 -48 120 -110c0 -57 -39 -93 -83 -103c40 -12 66 -47 66 -87c0 -92 -68 -140 -153 -140c-72 0 -121 37 -141 95l71 22c10 -36 36 -52 71 -52c50 0 78 27 78 68
c0 47 -39 65 -86 65h-22l11 59h22z" />
    <glyph glyph-name="four.denominator" horiz-adv-x="385" 
d="M325 156l-12 -62h-62l-16 -94h-70l17 94h-190l10 60l222 272h85l-47 -270h63zM225 330h-4l-142 -174h114z" />
    <glyph glyph-name="five.denominator" horiz-adv-x="385" 
d="M303 152c0 -97 -69 -159 -160 -159c-71 0 -120 37 -138 90l65 27c10 -32 38 -52 72 -52c55 0 87 38 87 88c0 45 -30 71 -75 71c-31 0 -68 -12 -101 -31l47 240h224l-12 -65h-158l-18 -88c12 4 26 5 38 5c68 0 129 -42 129 -126z" />
    <glyph glyph-name="six.denominator" horiz-adv-x="385" 
d="M313 149c0 -86 -64 -156 -162 -156c-80 0 -137 54 -137 129c0 41 20 82 60 132l141 172h89l-139 -161l1 -1c8 3 18 5 27 5c73 0 120 -52 120 -120zM240 144c0 41 -27 65 -64 65c-56 0 -89 -38 -89 -87c0 -37 28 -65 67 -65c53 0 86 37 86 87z" />
    <glyph glyph-name="seven.denominator" horiz-adv-x="385" 
d="M104 0h-86l241 361h-191l11 65h273l-11 -61z" />
    <glyph glyph-name="eight.denominator" horiz-adv-x="385" 
d="M323 328c0 -53 -34 -89 -76 -105v-2c36 -16 57 -48 57 -86c0 -87 -72 -142 -158 -142c-69 0 -131 35 -131 116c0 58 38 103 94 120v2c-31 17 -45 48 -45 75c0 78 65 127 139 127c65 0 120 -35 120 -105zM184 255c40 0 69 30 69 65c0 32 -22 50 -54 50
c-39 0 -66 -29 -66 -64c0 -28 20 -51 51 -51zM150 57c53 0 83 34 83 78c0 35 -27 58 -63 58c-49 0 -83 -34 -83 -77c0 -39 29 -59 63 -59z" />
    <glyph glyph-name="nine.denominator" horiz-adv-x="385" 
d="M138 0h-88l138 161l-1 1c-7 -3 -20 -5 -28 -5c-73 0 -119 52 -119 121c0 86 64 155 162 155c80 0 137 -53 137 -128c0 -41 -19 -83 -60 -133zM266 306c0 37 -28 63 -66 63c-54 0 -87 -37 -87 -86c0 -41 27 -66 65 -66c55 0 88 39 88 89z" />
    <glyph glyph-name="zero.inferior" unicode="&#x2080;" horiz-adv-x="385" 
d="M183 293c87 0 121 -67 121 -146c0 -119 -51 -294 -188 -294c-88 0 -123 65 -123 145c0 121 53 295 190 295zM177 228c-65 0 -108 -111 -108 -223c0 -51 14 -86 52 -86c63 0 107 110 107 222c0 54 -13 87 -51 87z" />
    <glyph glyph-name="one.inferior" unicode="&#x2081;" horiz-adv-x="385" 
d="M235 286l-75 -426h-76l59 333l-80 -59l-36 51l142 101h66z" />
    <glyph glyph-name="two.inferior" unicode="&#x2082;" horiz-adv-x="385" 
d="M78 -73h190l-13 -67h-280l12 69l186 156c44 37 61 64 61 93c0 34 -23 52 -61 52s-62 -24 -75 -64l-67 19c25 70 81 108 146 108c80 0 129 -44 129 -111c0 -64 -33 -96 -98 -149z" />
    <glyph glyph-name="three.inferior" unicode="&#x2083;" horiz-adv-x="385" 
d="M122 110c64 0 94 25 94 71c0 32 -23 49 -54 49c-35 0 -55 -14 -74 -48l-56 34c31 53 79 77 136 77c74 0 120 -48 120 -110c0 -57 -39 -93 -83 -103c40 -12 66 -47 66 -87c0 -92 -68 -140 -153 -140c-72 0 -121 37 -141 95l71 22c10 -36 36 -52 71 -52c50 0 78 27 78 68
c0 47 -39 65 -86 65h-22l11 59h22z" />
    <glyph glyph-name="four.inferior" unicode="&#x2084;" horiz-adv-x="385" 
d="M300 16l-12 -62h-62l-16 -94h-70l17 94h-190l10 60l222 272h85l-47 -270h63zM200 190h-4l-142 -174h114z" />
    <glyph glyph-name="five.inferior" unicode="&#x2085;" horiz-adv-x="385" 
d="M278 12c0 -97 -69 -159 -160 -159c-71 0 -120 37 -138 90l65 27c10 -32 38 -52 72 -52c55 0 87 38 87 88c0 45 -30 71 -75 71c-31 0 -68 -12 -101 -31l47 240h224l-12 -65h-158l-18 -88c12 4 26 5 38 5c68 0 129 -42 129 -126z" />
    <glyph glyph-name="six.inferior" unicode="&#x2086;" horiz-adv-x="385" 
d="M288 9c0 -86 -64 -156 -162 -156c-80 0 -137 54 -137 129c0 41 20 82 60 132l141 172h89l-139 -161l1 -1c8 3 18 5 27 5c73 0 120 -52 120 -120zM215 4c0 41 -27 65 -64 65c-56 0 -89 -38 -89 -87c0 -37 28 -65 67 -65c53 0 86 37 86 87z" />
    <glyph glyph-name="seven.inferior" unicode="&#x2087;" horiz-adv-x="385" 
d="M79 -140h-86l241 361h-191l11 65h273l-11 -61z" />
    <glyph glyph-name="eight.inferior" unicode="&#x2088;" horiz-adv-x="385" 
d="M298 188c0 -53 -34 -89 -76 -105v-2c36 -16 57 -48 57 -86c0 -87 -72 -142 -158 -142c-69 0 -131 35 -131 116c0 58 38 103 94 120v2c-31 17 -45 48 -45 75c0 78 65 127 139 127c65 0 120 -35 120 -105zM159 115c40 0 69 30 69 65c0 32 -22 50 -54 50
c-39 0 -66 -29 -66 -64c0 -28 20 -51 51 -51zM125 -83c53 0 83 34 83 78c0 35 -27 58 -63 58c-49 0 -83 -34 -83 -77c0 -39 29 -59 63 -59z" />
    <glyph glyph-name="nine.inferior" unicode="&#x2089;" horiz-adv-x="385" 
d="M113 -140h-88l138 161l-1 1c-7 -3 -20 -5 -28 -5c-73 0 -119 52 -119 121c0 86 64 155 162 155c80 0 137 -53 137 -128c0 -41 -19 -83 -60 -133zM241 166c0 37 -28 63 -66 63c-54 0 -87 -37 -87 -86c0 -41 27 -66 65 -66c55 0 88 39 88 89z" />
    <glyph glyph-name="zero.numerator" horiz-adv-x="385" 
d="M258 715c87 0 121 -67 121 -146c0 -119 -51 -294 -188 -294c-88 0 -123 65 -123 145c0 121 53 295 190 295zM252 650c-65 0 -108 -111 -108 -223c0 -51 14 -86 52 -86c63 0 107 110 107 222c0 54 -13 87 -51 87z" />
    <glyph glyph-name="one.numerator" horiz-adv-x="385" 
d="M310 708l-75 -426h-76l59 333l-80 -59l-36 51l142 101h66z" />
    <glyph glyph-name="two.numerator" horiz-adv-x="385" 
d="M153 349h190l-13 -67h-280l12 69l186 156c44 37 61 64 61 93c0 34 -23 52 -61 52s-62 -24 -75 -64l-67 19c25 70 81 108 146 108c80 0 129 -44 129 -111c0 -64 -33 -96 -98 -149z" />
    <glyph glyph-name="three.numerator" horiz-adv-x="385" 
d="M197 532c64 0 94 25 94 71c0 32 -23 49 -54 49c-35 0 -55 -14 -74 -48l-56 34c31 53 79 77 136 77c74 0 120 -48 120 -110c0 -57 -39 -93 -83 -103c40 -12 66 -47 66 -87c0 -92 -68 -140 -153 -140c-72 0 -121 37 -141 95l71 22c10 -36 36 -52 71 -52c50 0 78 27 78 68
c0 47 -39 65 -86 65h-22l11 59h22z" />
    <glyph glyph-name="four.numerator" horiz-adv-x="385" 
d="M375 438l-12 -62h-62l-16 -94h-70l17 94h-190l10 60l222 272h85l-47 -270h63zM275 612h-4l-142 -174h114z" />
    <glyph glyph-name="five.numerator" horiz-adv-x="385" 
d="M353 434c0 -97 -69 -159 -160 -159c-71 0 -120 37 -138 90l65 27c10 -32 38 -52 72 -52c55 0 87 38 87 88c0 45 -30 71 -75 71c-31 0 -68 -12 -101 -31l47 240h224l-12 -65h-158l-18 -88c12 4 26 5 38 5c68 0 129 -42 129 -126z" />
    <glyph glyph-name="six.numerator" horiz-adv-x="385" 
d="M363 431c0 -86 -64 -156 -162 -156c-80 0 -137 54 -137 129c0 41 20 82 60 132l141 172h89l-139 -161l1 -1c8 3 18 5 27 5c73 0 120 -52 120 -120zM290 426c0 41 -27 65 -64 65c-56 0 -89 -38 -89 -87c0 -37 28 -65 67 -65c53 0 86 37 86 87z" />
    <glyph glyph-name="seven.numerator" horiz-adv-x="385" 
d="M154 282h-86l241 361h-191l11 65h273l-11 -61z" />
    <glyph glyph-name="eight.numerator" horiz-adv-x="385" 
d="M373 610c0 -53 -34 -89 -76 -105v-2c36 -16 57 -48 57 -86c0 -87 -72 -142 -158 -142c-69 0 -131 35 -131 116c0 58 38 103 94 120v2c-31 17 -45 48 -45 75c0 78 65 127 139 127c65 0 120 -35 120 -105zM234 537c40 0 69 30 69 65c0 32 -22 50 -54 50
c-39 0 -66 -29 -66 -64c0 -28 20 -51 51 -51zM200 339c53 0 83 34 83 78c0 35 -27 58 -63 58c-49 0 -83 -34 -83 -77c0 -39 29 -59 63 -59z" />
    <glyph glyph-name="nine.numerator" horiz-adv-x="385" 
d="M188 282h-88l138 161l-1 1c-7 -3 -20 -5 -28 -5c-73 0 -119 52 -119 121c0 86 64 155 162 155c80 0 137 -53 137 -128c0 -41 -19 -83 -60 -133zM316 588c0 37 -28 63 -66 63c-54 0 -87 -37 -87 -86c0 -41 27 -66 65 -66c55 0 88 39 88 89z" />
    <glyph glyph-name="zero.superior" unicode="&#x2070;" horiz-adv-x="385" 
d="M287 883c87 0 121 -67 121 -146c0 -119 -51 -294 -188 -294c-88 0 -123 65 -123 145c0 121 53 295 190 295zM281 818c-65 0 -108 -111 -108 -223c0 -51 14 -86 52 -86c63 0 107 110 107 222c0 54 -13 87 -51 87z" />
    <glyph glyph-name="onesuperior" unicode="&#xb9;" horiz-adv-x="385" 
d="M339 876l-75 -426h-76l59 333l-80 -59l-36 51l142 101h66z" />
    <glyph glyph-name="twosuperior" unicode="&#xb2;" horiz-adv-x="385" 
d="M182 517h190l-13 -67h-280l12 69l186 156c44 37 61 64 61 93c0 34 -23 52 -61 52s-62 -24 -75 -64l-67 19c25 70 81 108 146 108c80 0 129 -44 129 -111c0 -64 -33 -96 -98 -149z" />
    <glyph glyph-name="threesuperior" unicode="&#xb3;" horiz-adv-x="385" 
d="M226 700c64 0 94 25 94 71c0 32 -23 49 -54 49c-35 0 -55 -14 -74 -48l-56 34c31 53 79 77 136 77c74 0 120 -48 120 -110c0 -57 -39 -93 -83 -103c40 -12 66 -47 66 -87c0 -92 -68 -140 -153 -140c-72 0 -121 37 -141 95l71 22c10 -36 36 -52 71 -52c50 0 78 27 78 68
c0 47 -39 65 -86 65h-22l11 59h22z" />
    <glyph glyph-name="four.superior" unicode="&#x2074;" horiz-adv-x="385" 
d="M404 606l-12 -62h-62l-16 -94h-70l17 94h-190l10 60l222 272h85l-47 -270h63zM304 780h-4l-142 -174h114z" />
    <glyph glyph-name="five.superior" unicode="&#x2075;" horiz-adv-x="385" 
d="M382 602c0 -97 -69 -159 -160 -159c-71 0 -120 37 -138 90l65 27c10 -32 38 -52 72 -52c55 0 87 38 87 88c0 45 -30 71 -75 71c-31 0 -68 -12 -101 -31l47 240h224l-12 -65h-158l-18 -88c12 4 26 5 38 5c68 0 129 -42 129 -126z" />
    <glyph glyph-name="six.superior" unicode="&#x2076;" horiz-adv-x="385" 
d="M392 599c0 -86 -64 -156 -162 -156c-80 0 -137 54 -137 129c0 41 20 82 60 132l141 172h89l-139 -161l1 -1c8 3 18 5 27 5c73 0 120 -52 120 -120zM319 594c0 41 -27 65 -64 65c-56 0 -89 -38 -89 -87c0 -37 28 -65 67 -65c53 0 86 37 86 87z" />
    <glyph glyph-name="seven.superior" unicode="&#x2077;" horiz-adv-x="385" 
d="M183 450h-86l241 361h-191l11 65h273l-11 -61z" />
    <glyph glyph-name="eight.superior" unicode="&#x2078;" horiz-adv-x="385" 
d="M402 778c0 -53 -34 -89 -76 -105v-2c36 -16 57 -48 57 -86c0 -87 -72 -142 -158 -142c-69 0 -131 35 -131 116c0 58 38 103 94 120v2c-31 17 -45 48 -45 75c0 78 65 127 139 127c65 0 120 -35 120 -105zM263 705c40 0 69 30 69 65c0 32 -22 50 -54 50
c-39 0 -66 -29 -66 -64c0 -28 20 -51 51 -51zM229 507c53 0 83 34 83 78c0 35 -27 58 -63 58c-49 0 -83 -34 -83 -77c0 -39 29 -59 63 -59z" />
    <glyph glyph-name="nine.superior" unicode="&#x2079;" horiz-adv-x="385" 
d="M217 450h-88l138 161l-1 1c-7 -3 -20 -5 -28 -5c-73 0 -119 52 -119 121c0 86 64 155 162 155c80 0 137 -53 137 -128c0 -41 -19 -83 -60 -133zM345 756c0 37 -28 63 -66 63c-54 0 -87 -37 -87 -86c0 -41 27 -66 65 -66c55 0 88 39 88 89z" />
    <glyph glyph-name="interrobang" unicode="&#x203d;" horiz-adv-x="500" 
d="M279 200h-89l56 323h89l-29 -139h1c82 70 112 105 112 167c0 54 -38 91 -101 91c-82 0 -126 -54 -140 -114l-84 15c24 105 113 180 227 180c103 0 188 -51 188 -168c0 -86 -49 -138 -125 -195c-64 -47 -91 -78 -98 -118zM285 60c0 -35 -29 -65 -64 -65s-63 23 -63 62
c0 38 31 66 65 66c35 0 62 -24 62 -63z" />
    <glyph glyph-name="afii61248" unicode="&#x2105;" horiz-adv-x="885" 
d="M753 699l-563 -739l-60 42l564 739zM622 -12c-94 0 -162 61 -162 149c0 110 81 205 202 205c94 0 161 -59 161 -147c0 -112 -81 -207 -201 -207zM735 189c0 46 -29 79 -77 79c-66 0 -110 -58 -110 -126c0 -46 28 -79 77 -79c65 0 110 58 110 126zM410 657l-66 -49
c-16 26 -38 39 -71 39c-66 0 -109 -57 -109 -125c0 -45 24 -80 76 -80c35 0 62 18 86 43l55 -51c-40 -40 -87 -67 -145 -67c-98 0 -161 60 -161 148c0 110 80 206 203 206c51 0 105 -18 132 -64z" />
    <glyph glyph-name="published" unicode="&#x2117;" horiz-adv-x="800" 
d="M20 353c0 210 171 377 381 377c209 0 379 -167 379 -377c0 -209 -170 -375 -379 -375c-210 0 -381 166 -381 375zM80 353c0 -176 144 -319 321 -319c176 0 319 143 319 319c0 177 -143 321 -319 321c-177 0 -321 -144 -321 -321zM272 129v438h163c104 0 167 -51 167 -140
s-69 -141 -168 -141h-81v-157h-81zM353 354h81c58 0 87 26 87 73c0 48 -30 72 -86 72h-82v-145z" />
    <glyph glyph-name="uni0406" unicode="&#x406;" horiz-adv-x="271" 
d="M255 708l-125 -708h-98l125 708h98z" />
    <glyph glyph-name="uni0456" unicode="&#x456;" horiz-adv-x="259" 
d="M205 474l-84 -474h-92l83 474h93zM245 647c0 -33 -26 -61 -59 -61c-32 0 -59 21 -59 57s29 62 61 62s57 -23 57 -58z" />
    <glyph glyph-name="uni0408" unicode="&#x408;" horiz-adv-x="491" 
d="M-17 129l89 26c7 -48 40 -87 94 -87c90 0 116 70 130 153l86 487h98l-87 -492c-17 -100 -57 -234 -224 -234c-109 0 -175 63 -186 147z" />
    <glyph glyph-name="uni0458" unicode="&#x458;" horiz-adv-x="259" 
d="M-118 -234l19 79c11 -3 26 -5 37 -5c57 0 70 44 81 101l94 533h93l-95 -536c-16 -94 -50 -178 -174 -178c-17 0 -41 3 -55 6zM245 647c0 -33 -26 -61 -59 -61c-32 0 -59 21 -59 57s29 62 61 62s57 -23 57 -58z" />
    <glyph glyph-name="uni0410" unicode="&#x410;" horiz-adv-x="681" 
d="M155 174l-108 -174h-115l459 708h89l144 -708h-103l-34 174h-332zM413 597l-207 -336h267z" />
    <glyph glyph-name="uni0411" unicode="&#x411;" horiz-adv-x="630" 
d="M32 0l125 708h431l-15 -86h-333l-38 -212h117c152 0 238 -69 238 -184c0 -153 -119 -226 -292 -226h-233zM144 83h130c114 0 184 44 184 134c0 83 -57 110 -146 110h-125z" />
    <glyph glyph-name="uni0412" unicode="&#x412;" horiz-adv-x="633" 
d="M32 0l125 708h226c98 0 206 -40 206 -155c0 -94 -63 -158 -156 -181v-2c77 -12 132 -68 132 -151c0 -144 -125 -219 -302 -219h-231zM239 626l-39 -218h137c66 0 152 31 152 124c0 67 -57 94 -131 94h-119zM186 326l-43 -243h129c102 0 194 37 194 141
c0 63 -51 102 -140 102h-140z" />
    <glyph glyph-name="uni0413" unicode="&#x413;" horiz-adv-x="490" 
d="M32 0l125 708h403l-15 -86h-306l-110 -622h-97z" />
    <glyph glyph-name="uni0414" unicode="&#x414;" horiz-adv-x="758" 
d="M-61 -168l44 254h55c92 81 157 211 196 433l34 189h451l-110 -622h80l-45 -254h-90l30 168h-527l-30 -168h-88zM157 86h355l95 536h-260l-19 -109c-40 -229 -112 -360 -171 -427z" />
    <glyph glyph-name="uni0415" unicode="&#x415;" horiz-adv-x="582" 
d="M186 325l-42 -238h367l-15 -87h-464l125 708h436l-15 -86h-340l-37 -214h324l-15 -83h-324z" />
    <glyph glyph-name="uni0416" unicode="&#x416;" horiz-adv-x="931" 
d="M-90 0l420 385l-230 323h122l210 -312h2l55 312h96l-55 -312h1l325 312h134l-363 -331l269 -377h-123l-248 365h-1l-64 -365h-96l64 365h-2l-382 -365h-134z" />
    <glyph glyph-name="uni0417" unicode="&#x417;" horiz-adv-x="568" 
d="M230 -18c-111 0 -196 37 -243 107l78 58c26 -46 82 -82 160 -82c86 0 173 50 173 148c0 81 -75 113 -160 113h-43l14 83h43c86 0 172 39 172 133c0 60 -50 102 -117 102c-65 0 -125 -28 -162 -69l-56 61c47 48 125 90 223 90c130 0 208 -65 208 -174
c0 -87 -64 -163 -145 -183v-2c69 -17 123 -73 123 -152c0 -157 -129 -233 -268 -233z" />
    <glyph glyph-name="uni0418" unicode="&#x418;" horiz-adv-x="734" 
d="M32 0l125 708h97l-98 -555h2l454 555h106l-125 -708h-97l99 558h-3l-452 -558h-108z" />
    <glyph glyph-name="uni0419" unicode="&#x419;" horiz-adv-x="734" 
d="M32 0l125 708h97l-98 -555h2l454 555h106l-125 -708h-97l99 558h-3l-452 -558h-108zM444 770c-86 0 -140 48 -142 132l58 11c2 -49 34 -79 84 -79c49 0 93 30 110 79l56 -11c-18 -84 -83 -132 -166 -132z" />
    <glyph glyph-name="uni041A" unicode="&#x41a;" horiz-adv-x="621" 
d="M254 708l-56 -316h2l339 316h136l-377 -331l285 -377h-127l-261 366h-2l-64 -366h-97l125 708h97z" />
    <glyph glyph-name="uni041B" unicode="&#x41b;" horiz-adv-x="751" 
d="M37 -7c-20 0 -51 2 -71 7l20 87c14 -5 24 -7 41 -7c108 0 175 112 232 448l31 180h445l-124 -708h-97l109 622h-253l-22 -123c-63 -366 -141 -506 -311 -506z" />
    <glyph glyph-name="uni041C" unicode="&#x41c;" horiz-adv-x="903" 
d="M308 708l115 -546h1l310 546h152l-124 -708h-97l105 591h-3l-341 -591h-62l-131 591h-2l-105 -591h-94l125 708h151z" />
    <glyph glyph-name="uni041D" unicode="&#x41d;" horiz-adv-x="719" 
d="M32 0l125 708h98l-53 -297h350l53 297h98l-125 -708h-98l57 325h-350l-57 -325h-98z" />
    <glyph glyph-name="uni041E" unicode="&#x41e;" horiz-adv-x="831" 
d="M381 -18c-197 0 -328 119 -328 306c0 242 178 438 412 438c193 0 325 -119 325 -305c0 -242 -173 -439 -409 -439zM688 412c0 127 -81 230 -228 230c-185 0 -305 -171 -305 -345c0 -126 80 -230 228 -230c187 0 305 169 305 345z" />
    <glyph glyph-name="uni041F" unicode="&#x41f;" horiz-adv-x="716" 
d="M32 0l125 708h543l-125 -708h-98l111 622h-349l-110 -622h-97z" />
    <glyph glyph-name="uni0420" unicode="&#x420;" horiz-adv-x="595" 
d="M32 0l125 708h202c146 0 229 -67 229 -178c0 -150 -116 -219 -283 -219h-121l-55 -311h-97zM240 625l-42 -232h112c109 0 180 38 180 126c0 81 -58 106 -144 106h-106z" />
    <glyph glyph-name="uni0421" unicode="&#x421;" horiz-adv-x="700" 
d="M586 166l66 -55c-56 -71 -149 -129 -282 -129c-189 0 -317 123 -317 304c0 245 185 440 420 440c104 0 198 -44 239 -110l-81 -59c-21 40 -76 85 -161 85c-185 0 -315 -170 -315 -344c0 -127 80 -231 224 -231c78 0 151 31 207 99z" />
    <glyph glyph-name="uni0422" unicode="&#x422;" horiz-adv-x="535" 
d="M370 622l-110 -622h-98l110 622h-224l15 86h544l-15 -86h-222z" />
    <glyph glyph-name="uni0423" unicode="&#x423;" horiz-adv-x="624" 
d="M69 -9c-27 0 -51 4 -66 7l16 87c13 -5 37 -8 55 -8c51 0 79 30 120 84l48 62l-172 485h105l135 -394l285 394h112l-421 -574c-64 -87 -117 -143 -217 -143z" />
    <glyph glyph-name="uni0424" unicode="&#x424;" horiz-adv-x="835" 
d="M308 -18l15 88c-176 18 -276 114 -276 267c0 178 126 318 381 325l11 64h96l-12 -66c176 -18 277 -115 277 -266c0 -181 -127 -320 -381 -327l-15 -85h-96zM338 154l75 424c-182 -9 -264 -113 -264 -240c0 -96 70 -170 189 -184zM434 151c180 8 264 113 264 243
c0 94 -72 168 -190 181z" />
    <glyph glyph-name="uni0425" unicode="&#x425;" horiz-adv-x="622" 
d="M215 708l117 -267l226 267h121l-302 -342l173 -366h-113l-132 297l-252 -297h-127l334 375l-156 333h111z" />
    <glyph glyph-name="uni0426" unicode="&#x426;" horiz-adv-x="738" 
d="M533 -168l30 168h-531l125 708h97l-110 -622h348l110 622h97l-110 -622h78l-45 -254h-89z" />
    <glyph glyph-name="uni0427" unicode="&#x427;" horiz-adv-x="638" 
d="M400 0l51 286c-37 -10 -99 -22 -159 -22c-135 0 -199 49 -199 148c0 16 2 33 6 53l42 243h97l-41 -233c-2 -13 -4 -26 -4 -37c0 -58 33 -90 118 -90c61 0 123 8 155 21l59 339h97l-125 -708h-97z" />
    <glyph glyph-name="uni0428" unicode="&#x428;" horiz-adv-x="1048" 
d="M32 0l125 708h97l-109 -622h292l109 622h97l-109 -622h292l109 622h97l-125 -708h-875z" />
    <glyph glyph-name="uni0429" unicode="&#x429;" horiz-adv-x="1071" 
d="M867 -168l29 168h-864l125 708h97l-110 -622h292l110 622h97l-110 -622h292l110 622h97l-110 -622h79l-45 -254h-89z" />
    <glyph glyph-name="uni042A" unicode="&#x42a;" horiz-adv-x="680" 
d="M116 0l110 622h-175l14 86h273l-52 -294h101c152 0 240 -71 240 -186c0 -154 -120 -228 -295 -228h-216zM227 83h113c116 0 187 44 187 136c0 84 -58 112 -149 112h-107z" />
    <glyph glyph-name="uni042B" unicode="&#x42b;" horiz-adv-x="844" 
d="M32 0l125 708h97l-51 -294h100c153 0 240 -71 240 -186c0 -154 -120 -228 -294 -228h-217zM144 83h112c117 0 187 44 187 136c0 84 -57 112 -148 112h-108zM605 0l124 708h99l-125 -708h-98z" />
    <glyph glyph-name="uni042C" unicode="&#x42c;" horiz-adv-x="597" 
d="M32 0l125 708h97l-51 -294h100c153 0 240 -71 240 -186c0 -154 -120 -228 -294 -228h-217zM144 83h112c117 0 187 44 187 136c0 84 -57 112 -148 112h-108z" />
    <glyph glyph-name="uni042D" unicode="&#x42d;" horiz-adv-x="705" 
d="M266 -19c-122 0 -224 44 -265 111l79 60c24 -40 87 -85 186 -85c145 0 264 124 287 258h-326l15 83h321c-3 135 -79 234 -228 234c-79 0 -154 -32 -210 -98l-63 55c56 69 149 127 278 127c197 0 324 -119 324 -319c0 -232 -172 -426 -398 -426z" />
    <glyph glyph-name="uni042E" unicode="&#x42e;" horiz-adv-x="1058" 
d="M623 -18c-184 0 -298 120 -298 293c0 16 0 35 2 51h-140l-58 -326h-97l125 708h97l-52 -298h141c47 177 188 316 376 316c182 0 298 -120 298 -293c0 -234 -156 -451 -394 -451zM629 67c171 0 286 175 286 357c0 120 -69 218 -202 218c-172 0 -287 -179 -287 -357
c0 -120 69 -218 203 -218z" />
    <glyph glyph-name="uni042F" unicode="&#x42f;" horiz-adv-x="604" 
d="M-25 0l245 308c-89 25 -138 85 -138 172c0 154 121 228 295 228h211l-125 -708h-98l52 294h-98l-224 -294h-120zM332 375h99l43 249h-103c-117 0 -188 -44 -188 -136c0 -86 58 -113 149 -113z" />
    <glyph glyph-name="uni0430" unicode="&#x430;" horiz-adv-x="537" 
d="M370 296c3 19 4 28 4 37c0 56 -36 79 -100 79c-50 0 -105 -23 -142 -52l-38 62c50 40 123 65 193 65c90 0 176 -38 176 -140c0 -12 -2 -35 -4 -48l-35 -192c-6 -37 -11 -81 -11 -107h-85c0 20 2 44 6 66h-2c-45 -53 -96 -76 -168 -76c-65 0 -147 29 -147 125
c0 154 188 181 353 181zM360 228h-15c-104 0 -236 -14 -236 -100c0 -52 44 -67 87 -67c84 0 144 60 157 132z" />
    <glyph glyph-name="uni0431" unicode="&#x431;" horiz-adv-x="608" 
d="M262 -13c-82 0 -138 26 -174 69c-35 42 -52 101 -52 168c0 95 25 230 72 324c44 88 112 143 228 157l134 15c48 6 72 17 86 46l64 -20c-26 -65 -63 -93 -131 -101l-134 -17c-120 -15 -195 -76 -225 -255h3c50 77 122 111 206 111c126 0 207 -84 207 -212
c0 -160 -122 -285 -284 -285zM266 64c110 0 186 101 186 210c0 76 -50 135 -136 135c-107 0 -185 -99 -185 -207c0 -77 49 -138 135 -138z" />
    <glyph glyph-name="uni0432" unicode="&#x432;" horiz-adv-x="551" 
d="M28 0l82 474h233c66 0 139 -27 139 -103c0 -65 -42 -107 -104 -122v-1c51 -8 88 -46 88 -101c0 -96 -85 -147 -203 -147h-235zM132 72h126c58 0 114 22 114 81c0 35 -28 57 -80 57h-135zM169 279h130c38 0 89 18 89 71c0 38 -34 54 -76 54h-121z" />
    <glyph glyph-name="uni0433" unicode="&#x433;" horiz-adv-x="415" 
d="M28 0l83 474h303l-13 -76h-211l-70 -398h-92z" />
    <glyph glyph-name="uni0434" unicode="&#x434;" horiz-adv-x="616" 
d="M-55 -144l38 221h50c46 49 97 136 121 272l22 125h359l-70 -397h73l-38 -221h-82l26 144h-393l-25 -144h-81zM135 77h239l57 321h-180l-13 -74c-22 -119 -59 -195 -103 -247z" />
    <glyph glyph-name="uni0435" unicode="&#x435;" horiz-adv-x="565" 
d="M494 209h-372c-1 -6 -1 -11 -1 -16c0 -75 60 -129 138 -129c67 0 116 31 149 72l55 -52c-56 -64 -130 -97 -213 -97c-126 0 -220 77 -220 210c0 158 119 290 277 290c120 0 197 -70 197 -188c0 -19 -3 -60 -10 -90zM132 277h283c1 9 2 21 2 30c0 61 -42 107 -117 107
c-90 0 -152 -69 -168 -137z" />
    <glyph glyph-name="uni0436" unicode="&#x436;" horiz-adv-x="746" 
d="M-59 0l271 252l-176 222h112l164 -217h3l38 217h92l-38 -217h3l223 217h122l-249 -229l194 -245h-113l-181 236h-3l-41 -236h-92l41 236h-3l-244 -236h-123z" />
    <glyph glyph-name="uni0437" unicode="&#x437;" horiz-adv-x="462" 
d="M174 -15c-79 0 -149 25 -190 81l61 59c23 -35 67 -65 129 -65c54 0 111 20 111 82c0 52 -53 67 -113 67h-33l13 69h32c62 0 118 21 118 82c0 38 -38 52 -85 52c-45 0 -94 -22 -126 -58l-47 52c41 52 114 80 188 80c100 0 162 -45 162 -119c0 -60 -46 -105 -108 -118
l-1 -2c56 -11 94 -46 94 -109c0 -95 -93 -153 -205 -153z" />
    <glyph glyph-name="uni0438" unicode="&#x438;" horiz-adv-x="601" 
d="M28 0l83 474h92l-61 -347h1l296 347h101l-83 -474h-90l61 348h-2l-295 -348h-103z" />
    <glyph glyph-name="uni0439" unicode="&#x439;" horiz-adv-x="601" 
d="M337 570c-83 0 -138 47 -140 129l57 11c2 -49 35 -77 84 -77s91 28 107 77l54 -11c-17 -82 -77 -129 -162 -129zM28 0l83 474h92l-61 -347h1l296 347h101l-83 -474h-90l61 348h-2l-295 -348h-103z" />
    <glyph glyph-name="uni043A" unicode="&#x43a;" horiz-adv-x="519" 
d="M28 0l83 474h92l-38 -215h3l237 215h123l-261 -229l205 -245h-115l-193 236h-3l-41 -236h-92z" />
    <glyph glyph-name="uni043B" unicode="&#x43b;" horiz-adv-x="588" 
d="M10 -6c-15 0 -44 3 -56 6l16 78c8 -3 19 -5 31 -5c63 0 110 56 142 236l29 165h355l-84 -474h-92l71 398h-173l-21 -115c-35 -199 -95 -289 -218 -289z" />
    <glyph glyph-name="uni043C" unicode="&#x43c;" horiz-adv-x="740" 
d="M28 0l83 474h126l95 -346h1l215 346h131l-84 -474h-90l65 369h-2l-231 -369h-53l-101 369h-1l-65 -369h-89z" />
    <glyph glyph-name="uni043D" unicode="&#x43d;" horiz-adv-x="589" 
d="M28 0l83 474h93l-34 -190h233l33 190h92l-83 -474h-92l37 209h-232l-38 -209h-92z" />
    <glyph glyph-name="uni043E" unicode="&#x43e;" horiz-adv-x="600" 
d="M255 -13c-130 0 -225 85 -225 207c0 157 115 293 285 293c131 0 224 -83 224 -205c0 -160 -114 -295 -284 -295zM445 273c0 78 -52 137 -136 137c-109 0 -185 -97 -185 -208c0 -79 51 -137 136 -137c109 0 185 96 185 208z" />
    <glyph glyph-name="uni043F" unicode="&#x43f;" horiz-adv-x="584" 
d="M28 0l83 474h412l-83 -474h-92l70 398h-228l-70 -398h-92z" />
    <glyph glyph-name="uni0440" unicode="&#x440;" horiz-adv-x="632" 
d="M191 398c34 51 100 88 173 88c125 0 207 -83 207 -205c0 -162 -114 -294 -270 -294c-77 0 -136 34 -165 90h-2l-55 -317h-93l126 714h90l-13 -76h2zM475 272c0 77 -47 137 -132 137c-105 0 -188 -95 -188 -208c0 -80 54 -138 137 -138c110 0 183 93 183 209z" />
    <glyph glyph-name="uni0441" unicode="&#x441;" horiz-adv-x="496" 
d="M491 407l-72 -54c-16 32 -57 57 -104 57c-109 0 -188 -95 -188 -207c0 -76 46 -138 136 -138c59 0 99 24 130 57l56 -52c-50 -50 -111 -83 -192 -83c-136 0 -224 83 -224 205c0 158 113 295 287 295c70 0 139 -25 171 -80z" />
    <glyph glyph-name="uni0442" unicode="&#x442;" horiz-adv-x="453" 
d="M119 0l70 398h-159l13 76h409l-13 -76h-158l-70 -398h-92z" />
    <glyph glyph-name="uni0443" unicode="&#x443;" horiz-adv-x="495" 
d="M139 474l68 -373h2l210 373h100l-347 -586c-47 -79 -89 -128 -170 -128c-20 0 -39 2 -59 7l13 82c14 -5 30 -8 44 -8c43 0 67 28 97 79l47 80l-104 474h99z" />
    <glyph glyph-name="uni0444" unicode="&#x444;" horiz-adv-x="743" 
d="M227 -240l39 223c-144 14 -236 102 -236 225c0 171 137 276 325 279l47 269h92l-48 -270c145 -13 237 -101 237 -225c0 -171 -136 -276 -325 -279l-39 -222h-92zM280 61l61 347c-128 -3 -216 -79 -216 -195c0 -83 60 -144 155 -152zM373 60c127 3 216 81 216 196
c0 84 -61 144 -156 152z" />
    <glyph glyph-name="uni0445" unicode="&#x445;" horiz-adv-x="489" 
d="M421 0h-106l-94 185l-170 -185h-117l244 251l-123 223h101l84 -167l152 167h113l-221 -230z" />
    <glyph glyph-name="uni0446" unicode="&#x446;" horiz-adv-x="603" 
d="M405 -144l26 144h-403l83 474h92l-70 -397h227l70 397h92l-70 -397h73l-39 -221h-81z" />
    <glyph glyph-name="uni0447" unicode="&#x447;" horiz-adv-x="538" 
d="M302 0l33 185c-32 -8 -85 -16 -134 -16c-97 0 -138 46 -138 118c0 14 1 27 4 41l25 146h91l-24 -134c-2 -12 -3 -22 -3 -31c0 -52 32 -64 84 -64c45 0 89 10 108 15l37 214h92l-83 -474h-92z" />
    <glyph glyph-name="uni0448" unicode="&#x448;" horiz-adv-x="850" 
d="M28 0l83 474h93l-71 -397h201l70 397h92l-70 -397h201l69 397h93l-84 -474h-677z" />
    <glyph glyph-name="uni0449" unicode="&#x449;" horiz-adv-x="870" 
d="M672 -144l25 144h-669l83 474h93l-70 -397h200l70 397h92l-70 -397h201l69 397h93l-70 -397h73l-39 -221h-81z" />
    <glyph glyph-name="uni044A" unicode="&#x44a;" horiz-adv-x="594" 
d="M101 0l69 398h-140l13 76h233l-31 -172h107c111 0 176 -51 176 -136c0 -112 -88 -166 -216 -166h-211zM205 73h110c74 0 119 28 119 87c0 53 -37 71 -94 71h-107z" />
    <glyph glyph-name="uni044B" unicode="&#x44b;" horiz-adv-x="736" 
d="M28 0l83 474h92l-30 -172h99c112 0 176 -51 176 -136c0 -112 -88 -166 -215 -166h-205zM133 73h103c74 0 118 28 118 87c0 53 -36 71 -93 71h-101zM500 0l84 474h91l-83 -474h-92z" />
    <glyph glyph-name="uni044C" unicode="&#x44c;" horiz-adv-x="521" 
d="M28 0l83 474h92l-30 -172h106c112 0 176 -51 176 -136c0 -112 -88 -166 -215 -166h-212zM133 73h110c74 0 118 28 118 87c0 53 -36 71 -93 71h-108z" />
    <glyph glyph-name="uni044D" unicode="&#x44d;" horiz-adv-x="497" 
d="M157 -15c-87 0 -146 27 -181 75l60 56c18 -25 59 -55 120 -55c84 0 157 60 178 147h-207l12 73h203c-3 75 -55 130 -140 130c-55 0 -101 -24 -132 -57l-49 57c47 46 113 75 190 75c139 0 225 -83 225 -209c0 -163 -110 -292 -279 -292z" />
    <glyph glyph-name="uni044E" unicode="&#x44e;" horiz-adv-x="798" 
d="M470 -13c-129 0 -219 83 -216 222h-97l-37 -209h-92l84 474h92l-34 -190h96c30 116 139 202 251 202c141 0 220 -90 220 -209c0 -156 -115 -290 -267 -290zM644 270c0 80 -49 140 -128 140c-91 0 -169 -95 -169 -205c0 -79 50 -140 126 -140c95 0 171 97 171 205z" />
    <glyph glyph-name="uni044F" unicode="&#x44f;" horiz-adv-x="547" 
d="M-5 0l158 188c-58 19 -91 63 -91 122c0 110 87 164 212 164h212l-83 -474h-92l31 176h-93l-137 -176h-117zM245 249h110l27 152h-112c-73 0 -117 -25 -117 -83c0 -52 36 -69 92 -69z" />
    <glyph glyph-name="uni0490" unicode="&#x490;" horiz-adv-x="490" 
d="M32 0l125 708h317l25 140h86l-41 -226h-305l-110 -622h-97z" />
    <glyph glyph-name="uni0491" unicode="&#x491;" horiz-adv-x="415" 
d="M28 0l84 474h225l21 121h77l-35 -197h-210l-70 -398h-92z" />
    <glyph glyph-name="uni0403" unicode="&#x403;" horiz-adv-x="490" 
d="M524 908l-162 -144h-74l125 144h111zM32 0l125 708h403l-15 -86h-306l-110 -622h-97z" />
    <glyph glyph-name="uni0453" unicode="&#x453;" horiz-adv-x="415" 
d="M439 708l-162 -144h-74l125 144h111zM28 0l83 474h303l-13 -76h-211l-70 -398h-92z" />
    <glyph glyph-name="uni0405" unicode="&#x405;" horiz-adv-x="569" 
d="M557 638l-76 -58c-26 39 -74 64 -131 64c-66 0 -152 -37 -152 -126c0 -61 48 -88 114 -113c103 -38 186 -89 186 -197c0 -130 -103 -226 -265 -226c-90 0 -185 36 -231 110l82 55c26 -46 84 -82 153 -82c81 0 158 45 158 132c0 73 -64 103 -138 130
c-83 31 -159 76 -159 182c0 132 111 217 261 217c82 0 160 -33 198 -88z" />
    <glyph glyph-name="uni0455" unicode="&#x455;" horiz-adv-x="444" 
d="M419 407l-72 -47c-18 31 -50 53 -100 53c-44 0 -98 -17 -98 -66c0 -40 31 -52 85 -67c90 -26 141 -64 141 -141c0 -104 -98 -154 -195 -154c-90 0 -158 36 -194 93l75 49c21 -39 66 -65 119 -65c56 0 104 23 104 70c0 41 -33 58 -98 79c-74 23 -127 52 -127 128
c0 94 93 148 195 148c73 0 136 -29 165 -80z" />
    <glyph glyph-name="uni040C" unicode="&#x40c;" horiz-adv-x="615" 
d="M577 908l-162 -144h-74l125 144h111zM254 708l-56 -316h2l339 316h136l-377 -331l285 -377h-127l-261 366h-2l-64 -366h-97l125 708h97z" />
    <glyph glyph-name="uni045C" unicode="&#x45c;" horiz-adv-x="510" 
d="M500 708l-162 -144h-74l125 144h111zM28 0l83 474h92l-38 -215h3l237 215h123l-261 -229l205 -245h-115l-193 236h-3l-41 -236h-92z" />
    <glyph glyph-name="uni0407" unicode="&#x407;" horiz-adv-x="275" 
d="M255 708l-125 -708h-98l125 708h98zM381 847c0 -33 -25 -60 -59 -60c-32 0 -58 21 -58 57s28 61 61 61c32 0 56 -22 56 -58zM183 847c0 -33 -25 -60 -58 -60s-59 21 -59 57s29 61 61 61s56 -22 56 -58z" />
    <glyph glyph-name="uni0457" unicode="&#x457;" horiz-adv-x="258" 
d="M144 647c0 -33 -25 -60 -58 -60s-59 21 -59 57s29 61 61 61s56 -22 56 -58zM342 647c0 -33 -25 -60 -59 -60c-32 0 -58 21 -58 57s28 61 61 61c32 0 56 -22 56 -58zM205 474l-84 -474h-92l83 474h93z" />
    <glyph glyph-name="uni040E" unicode="&#x40e;" horiz-adv-x="624" 
d="M74 -9c-27 0 -51 4 -66 7l16 87c13 -5 37 -8 55 -8c51 0 79 30 120 84l48 62l-172 485h105l135 -394l285 394h112l-421 -574c-64 -87 -117 -143 -217 -143zM400 770c-86 0 -140 48 -142 132l58 11c2 -49 34 -79 84 -79c49 0 93 30 110 79l56 -11
c-18 -84 -83 -132 -166 -132z" />
    <glyph glyph-name="uni045E" unicode="&#x45e;" horiz-adv-x="494" 
d="M297 570c-83 0 -138 47 -140 129l57 11c2 -49 35 -77 84 -77s91 28 107 77l54 -11c-17 -82 -77 -129 -162 -129zM139 474l68 -373h2l210 373h100l-347 -586c-47 -79 -89 -128 -170 -128c-20 0 -39 2 -59 7l13 82c14 -5 30 -8 44 -8c43 0 67 28 97 79l47 80l-104 474h99z
" />
    <glyph glyph-name="uni040F" unicode="&#x40f;" horiz-adv-x="716" 
d="M229 -168l30 168h-227l125 708h98l-110 -622h348l109 622h98l-125 -708h-227l-30 -168h-89z" />
    <glyph glyph-name="uni045F" unicode="&#x45f;" horiz-adv-x="584" 
d="M169 -144l26 144h-167l83 474h92l-69 -397h227l70 397h92l-83 -474h-164l-25 -144h-82z" />
    <glyph glyph-name="uni0409" unicode="&#x409;" horiz-adv-x="1078" 
d="M37 -7c-20 0 -51 2 -71 7l20 87c14 -5 24 -7 41 -7c108 0 175 112 232 448l31 180h445l-51 -294h101c153 0 240 -71 240 -186c0 -154 -120 -228 -294 -228h-217l109 622h-253l-22 -123c-63 -366 -141 -506 -311 -506zM626 83h112c117 0 187 44 187 136
c0 84 -57 112 -148 112h-108z" />
    <glyph glyph-name="uni0459" unicode="&#x459;" horiz-adv-x="844" 
d="M10 -6c-15 0 -44 3 -56 6l16 78c8 -3 19 -5 31 -5c63 0 110 56 142 236l29 165h355l-31 -172h106c112 0 176 -51 176 -136c0 -112 -88 -166 -215 -166h-212l71 398h-173l-21 -115c-35 -199 -95 -289 -218 -289zM456 73h110c74 0 118 28 118 87c0 53 -36 71 -93 71h-107z
" />
    <glyph glyph-name="uni040A" unicode="&#x40a;" horiz-adv-x="1045" 
d="M32 0l125 708h97l-52 -294h351l52 294h97l-52 -294h101c153 0 240 -71 240 -186c0 -154 -120 -228 -294 -228h-217l58 331h-351l-58 -331h-97zM592 83h112c117 0 187 44 187 136c0 84 -57 112 -148 112h-108z" />
    <glyph glyph-name="uni045A" unicode="&#x45a;" horiz-adv-x="846" 
d="M28 0l83 474h93l-32 -182h232l32 182h92l-31 -182h113c107 0 170 -50 170 -131c0 -109 -86 -161 -209 -161h-218l38 217h-232l-39 -217h-92zM459 73h116c69 0 111 27 111 81c0 50 -34 67 -88 67h-113z" />
    <glyph glyph-name="uni0404" unicode="&#x404;" horiz-adv-x="705" 
d="M371 -18c-191 0 -318 124 -318 308c0 243 175 436 409 436c111 0 210 -43 252 -110l-78 -57c-24 40 -86 83 -176 83c-145 0 -251 -106 -289 -234h324l-15 -83h-324c-13 -142 73 -258 226 -258c78 0 154 32 210 98l64 -57c-56 -68 -151 -126 -285 -126z" />
    <glyph glyph-name="uni0454" unicode="&#x454;" horiz-adv-x="497" 
d="M257 -15c-139 0 -224 83 -224 210c0 162 109 291 279 291c87 0 146 -27 181 -74l-61 -57c-17 25 -58 56 -120 56c-78 0 -147 -53 -173 -130h211l-12 -73h-213c-3 -84 50 -148 141 -148c56 0 101 24 132 57l50 -57c-47 -45 -114 -75 -191 -75z" />
    <glyph glyph-name="uni2116" unicode="&#x2116;" horiz-adv-x="1039" 
d="M32 0l125 708h117l213 -556h3l99 556h95l-125 -708h-118l-212 557h-4l-98 -557h-95zM715 297l12 65h285l-11 -65h-286zM888 419c-80 0 -136 51 -136 123c0 97 72 174 171 174c80 0 137 -48 137 -122c0 -98 -71 -175 -172 -175zM892 475c60 0 102 52 102 113
c0 41 -28 74 -74 74c-59 0 -101 -53 -101 -113c0 -43 28 -74 73 -74z" />
    <glyph glyph-name="uni040B" unicode="&#x40b;" horiz-adv-x="796" 
d="M164 0l110 622h-223l15 86h544l-15 -86h-223l-40 -228c36 10 105 22 166 22c135 0 198 -53 198 -152c0 -17 -2 -35 -6 -53l-37 -211h-98l37 205c2 12 3 23 3 33c0 60 -36 94 -123 94c-61 0 -123 -8 -155 -21l-55 -311h-98z" />
    <glyph glyph-name="uni0402" unicode="&#x402;" horiz-adv-x="775" 
d="M443 -10c-34 0 -61 3 -79 6l14 84c15 -3 39 -5 54 -5c110 0 190 48 190 144c0 76 -50 115 -154 115c-60 0 -119 -11 -151 -24l-55 -310h-98l110 622h-224l16 86h544l-16 -86h-223l-40 -227c37 10 108 21 163 21c146 0 227 -80 227 -190c0 -166 -121 -236 -278 -236z" />
    <glyph glyph-name="uni045B" unicode="&#x45b;" horiz-adv-x="581" 
d="M28 0l100 567h-78l11 65h78l22 124h93l-22 -124h154l-11 -65h-155l-29 -166h2c31 48 86 85 153 85c103 0 159 -61 159 -146c0 -15 -2 -31 -5 -47l-52 -293h-92l46 261c4 19 6 37 6 54c0 54 -23 93 -93 93c-74 0 -134 -62 -151 -158l-44 -250h-92z" />
    <glyph glyph-name="uni0452" unicode="&#x452;" horiz-adv-x="581" 
d="M247 -240c-20 0 -42 2 -61 8l20 80c13 -5 28 -7 45 -7c63 0 85 49 96 111l55 309c4 19 6 37 6 54c0 54 -23 93 -93 93c-74 0 -134 -62 -151 -158l-44 -250h-92l100 567h-78l11 65h78l22 124h93l-22 -124h154l-11 -65h-155l-29 -166h2c31 48 86 85 153 85
c103 0 159 -61 159 -146c0 -15 -2 -31 -5 -47l-61 -346c-18 -100 -70 -187 -192 -187z" />
    <glyph glyph-name="uni0401" unicode="&#x401;" horiz-adv-x="582" 
d="M186 325l-42 -238h367l-15 -87h-464l125 708h436l-15 -86h-340l-37 -214h324l-15 -83h-324zM552 847c0 -33 -25 -60 -59 -60c-32 0 -58 21 -58 57s28 61 61 61c32 0 56 -22 56 -58zM354 847c0 -33 -25 -60 -58 -60s-59 21 -59 57s29 61 61 61s56 -22 56 -58z" />
    <glyph glyph-name="uni0451" unicode="&#x451;" horiz-adv-x="565" 
d="M303 647c0 -33 -25 -60 -58 -60s-59 21 -59 57s29 61 61 61s56 -22 56 -58zM501 647c0 -33 -25 -60 -59 -60c-32 0 -58 21 -58 57s28 61 61 61c32 0 56 -22 56 -58zM494 209h-372c-1 -6 -1 -11 -1 -16c0 -75 60 -129 138 -129c67 0 116 31 149 72l55 -52
c-56 -64 -130 -97 -213 -97c-126 0 -220 77 -220 210c0 158 119 290 277 290c120 0 197 -70 197 -188c0 -19 -3 -60 -10 -90zM132 277h283c1 9 2 21 2 30c0 61 -42 107 -117 107c-90 0 -152 -69 -168 -137z" />
    <glyph glyph-name="uni0400" unicode="&#x400;" horiz-adv-x="582" 
d="M186 325l-42 -238h367l-15 -87h-464l125 708h436l-15 -86h-340l-37 -214h324l-15 -83h-324zM380 764l-137 144h110l100 -144h-73z" />
    <glyph glyph-name="uni0450" unicode="&#x450;" horiz-adv-x="565" 
d="M296 564l-137 144h110l100 -144h-73zM494 209h-372c-1 -6 -1 -11 -1 -16c0 -75 60 -129 138 -129c67 0 116 31 149 72l55 -52c-56 -64 -130 -97 -213 -97c-126 0 -220 77 -220 210c0 158 119 290 277 290c120 0 197 -70 197 -188c0 -19 -3 -60 -10 -90zM132 277h283
c1 9 2 21 2 30c0 61 -42 107 -117 107c-90 0 -152 -69 -168 -137z" />
    <glyph glyph-name="uni040D" unicode="&#x40d;" horiz-adv-x="734" 
d="M32 0l125 708h97l-98 -555h2l454 555h106l-125 -708h-97l99 558h-3l-452 -558h-108zM428 764l-137 144h110l100 -144h-73z" />
    <glyph glyph-name="uni045D" unicode="&#x45d;" horiz-adv-x="601" 
d="M322 564l-137 144h110l100 -144h-73zM28 0l83 474h92l-61 -347h1l296 347h101l-83 -474h-90l61 348h-2l-295 -348h-103z" />
    <glyph glyph-name="uni2010" unicode="&#x2010;" horiz-adv-x="320" 
d="M272 284l-14 -79h-232l14 79h232z" />
    <glyph glyph-name="cyrbreve" 
d="M181 570c-83 0 -138 47 -140 129l57 11c2 -49 35 -77 84 -77s91 28 107 77l54 -11c-17 -82 -77 -129 -162 -129z" />
    <glyph glyph-name="cyrbreve.cap" 
d="M188 770c-86 0 -140 48 -142 132l58 11c2 -49 34 -79 84 -79c49 0 93 30 110 79l56 -11c-18 -84 -83 -132 -166 -132z" />
    <glyph glyph-name="exclam.sc" horiz-adv-x="300" 
d="M236 536l-64 -363h-93l64 363h93zM174 60c0 -35 -28 -65 -63 -65s-63 22 -63 61c0 38 31 65 65 65c35 0 61 -23 61 -61z" />
    <glyph glyph-name="dollar.sc" horiz-adv-x="495" 
d="M225 -2l-10 -56h-45l11 56c-57 2 -119 34 -148 78l72 52c19 -32 50 -51 88 -54l30 163c-76 26 -123 64 -123 141c0 87 69 153 175 158l9 53h45l-9 -54c54 -4 96 -27 122 -60l-68 -55c-16 23 -40 38 -67 40l-28 -153c77 -33 126 -70 126 -146c0 -79 -49 -158 -180 -163z
M265 222l-27 -148c43 3 76 35 76 80c0 30 -14 52 -49 68zM237 321l26 139c-42 -3 -74 -35 -74 -76c0 -30 13 -50 48 -63z" />
    <glyph glyph-name="percent.sc" horiz-adv-x="700" 
d="M335 436c0 -90 -67 -160 -157 -160c-69 0 -124 47 -124 113c0 89 67 158 159 158c69 0 122 -44 122 -111zM251 424c0 28 -17 47 -48 47c-40 0 -65 -30 -65 -73c0 -28 16 -47 47 -47c42 0 66 31 66 73zM639 148c0 -90 -67 -160 -157 -160c-69 0 -124 47 -124 113
c0 89 67 158 159 158c69 0 122 -44 122 -111zM555 136c0 28 -17 47 -48 47c-40 0 -65 -30 -65 -73c0 -28 16 -47 47 -47c42 0 66 31 66 73zM584 521l-423 -556l-58 40l426 558z" />
    <glyph glyph-name="ampersand.sc" horiz-adv-x="600" 
d="M421 428c0 -64 -46 -115 -131 -152l75 -93l66 101h102l-115 -159l100 -125h-115l-45 57c-41 -44 -96 -71 -167 -71c-92 0 -164 51 -164 144c0 91 67 142 142 171c-24 33 -35 68 -35 103c0 85 60 146 150 146c85 0 137 -47 137 -122zM309 119l-97 123
c-55 -22 -92 -49 -92 -107c0 -51 39 -70 82 -70c41 0 74 16 107 54zM335 423c0 29 -17 54 -53 54s-63 -27 -63 -67c0 -26 11 -56 29 -79c60 24 87 58 87 92z" />
    <glyph glyph-name="parenleft.sc" horiz-adv-x="253" 
d="M151 -34l-70 -36c-41 71 -66 162 -66 253c0 151 69 301 183 425l59 -44c-99 -110 -159 -251 -159 -381c0 -77 19 -155 53 -217z" />
    <glyph glyph-name="parenright.sc" horiz-adv-x="253" 
d="M93 572l70 36c41 -71 66 -162 66 -253c0 -151 -69 -301 -183 -425l-59 44c99 110 159 251 159 381c0 77 -19 155 -53 217z" />
    <glyph glyph-name="bracketleft.sc" horiz-adv-x="253" 
d="M128 -66h-152l117 668h153l-12 -65h-72l-95 -538h73z" />
    <glyph glyph-name="backslash.sc" horiz-adv-x="306" 
d="M299 -2l-70 -25l-233 564l70 26z" />
    <glyph glyph-name="bracketright.sc" horiz-adv-x="253" 
d="M115 602h152l-117 -668h-153l12 65h72l95 538h-73z" />
    <glyph glyph-name="braceleft.sc" horiz-adv-x="253" 
d="M158 -66h-59c-46 0 -83 25 -83 76c0 9 1 18 3 31l22 128c1 8 2 16 2 22c0 28 -17 41 -46 41l13 72c35 0 58 19 65 61l24 136c13 73 59 101 110 101h67l-12 -66h-48c-25 0 -34 -21 -38 -43l-23 -129c-12 -65 -51 -88 -87 -96l-1 -2c32 -13 54 -39 54 -81
c0 -9 -1 -19 -3 -32l-18 -103c-2 -9 -3 -20 -3 -26c0 -14 6 -24 24 -24h49z" />
    <glyph glyph-name="slash.sc" horiz-adv-x="306" 
d="M347 536l-332 -563l-66 26l332 565z" />
    <glyph glyph-name="braceright.sc" horiz-adv-x="253" 
d="M85 602h59c46 0 83 -25 83 -76c0 -9 -1 -18 -3 -31l-22 -128c-1 -8 -2 -16 -2 -22c0 -28 17 -41 46 -41l-13 -72c-35 0 -58 -19 -65 -61l-24 -136c-13 -73 -59 -101 -110 -101h-67l12 66h48c25 0 34 21 38 43l23 129c12 65 51 88 87 96l1 2c-32 13 -54 39 -54 81
c0 9 1 19 3 32l18 103c2 9 3 20 3 26c0 14 -6 24 -24 24h-49z" />
    <glyph glyph-name="zero.sc" horiz-adv-x="495" 
d="M281 547c112 0 158 -81 158 -187c0 -152 -71 -373 -241 -373c-114 0 -159 78 -159 184c0 155 73 376 242 376zM273 463c-77 0 -137 -145 -137 -283c0 -63 20 -107 67 -107c77 0 139 142 139 281c0 64 -22 109 -69 109z" />
    <glyph glyph-name="one.sc" horiz-adv-x="495" 
d="M266 0h-94l74 413l-99 -70l-48 67l179 126h83z" />
    <glyph glyph-name="two.sc" horiz-adv-x="495" 
d="M151 81h240l-15 -81h-361l14 80l242 206c47 40 72 76 72 116c0 39 -24 67 -68 67c-49 0 -86 -34 -103 -86l-85 24c29 90 104 143 191 143c96 0 159 -57 159 -140c0 -79 -44 -128 -114 -187z" />
    <glyph glyph-name="three.sc" horiz-adv-x="495" 
d="M184 317h35c75 0 113 36 113 91c0 36 -30 64 -70 64c-34 0 -68 -19 -93 -65l-71 43c41 68 100 100 169 100c84 0 158 -50 158 -138c0 -64 -44 -120 -111 -134v-2c57 -16 85 -65 85 -113c0 -110 -73 -177 -194 -177c-87 0 -159 51 -179 128l88 29c10 -51 50 -76 95 -76
c59 0 94 37 94 95c0 52 -41 78 -95 78h-38z" />
    <glyph glyph-name="four.sc" horiz-adv-x="495" 
d="M420 114h-74l-20 -114h-88l20 114h-234l16 87l265 335h114l-59 -342h75zM272 194l44 240h-1l-179 -240h136z" />
    <glyph glyph-name="five.sc" horiz-adv-x="495" 
d="M217 456l-25 -118c19 7 40 10 57 10c89 0 161 -58 161 -159c0 -124 -81 -203 -203 -203c-91 0 -156 48 -181 118l84 36c13 -47 59 -73 96 -73c72 0 108 48 108 114c0 56 -36 90 -97 90c-36 0 -88 -14 -128 -42l61 307h284l-16 -80h-201z" />
    <glyph glyph-name="six.sc" horiz-adv-x="495" 
d="M381 536l-175 -208l2 -2c18 9 44 11 57 11c91 0 154 -62 154 -152c0 -115 -91 -199 -207 -199c-102 0 -175 62 -175 169c0 70 36 131 90 200l142 181h112zM131 155c0 -48 36 -89 86 -89c65 0 108 46 108 111c0 51 -35 88 -83 88c-65 0 -111 -48 -111 -110z" />
    <glyph glyph-name="seven.sc" horiz-adv-x="495" 
d="M443 455l-295 -455h-111l305 454h-245l13 82h348z" />
    <glyph glyph-name="eight.sc" horiz-adv-x="495" 
d="M132 145c0 -56 40 -78 80 -78c68 0 105 42 105 98c0 49 -33 79 -80 79c-62 0 -105 -42 -105 -99zM330 280v-2c42 -15 76 -59 76 -113c0 -106 -84 -179 -200 -179c-72 0 -164 38 -164 150c0 82 60 140 125 153v2c-33 18 -61 55 -61 101c0 108 87 158 176 158
c75 0 150 -40 150 -131c0 -82 -54 -123 -102 -139zM191 390c0 -39 28 -65 68 -65c46 0 86 29 86 83c0 39 -30 64 -70 64c-52 0 -84 -36 -84 -82z" />
    <glyph glyph-name="nine.sc" horiz-adv-x="495" 
d="M88 0l177 211l-2 2c-18 -8 -43 -10 -56 -10c-90 0 -152 61 -152 149c0 113 92 198 206 198c100 0 172 -61 172 -166c0 -65 -30 -124 -84 -193l-149 -191h-112zM341 384c0 47 -36 87 -85 87c-64 0 -108 -47 -108 -111c0 -50 34 -87 82 -87c64 0 111 50 111 111z" />
    <glyph glyph-name="question.sc" horiz-adv-x="420" 
d="M134 173l4 28c6 42 32 78 76 110l37 27c36 26 48 48 48 76c0 32 -25 55 -63 55c-35 0 -69 -19 -82 -70l-87 15c18 85 89 136 169 136c79 0 156 -36 156 -131c0 -56 -26 -98 -96 -144c-52 -34 -65 -52 -69 -86l-2 -16h-91zM232 59c0 -35 -28 -65 -63 -65s-62 22 -62 61
c0 38 30 65 64 65c35 0 61 -23 61 -61z" />
    <glyph glyph-name="a.sc" horiz-adv-x="534" 
d="M483 0h-101l-23 124h-229l-77 -124h-108l347 536h82zM346 201l-38 218l-133 -218h171z" />
    <glyph glyph-name="b.sc" horiz-adv-x="512" 
d="M124 536h175c97 0 164 -40 164 -124c0 -62 -36 -111 -95 -131v-2c50 -16 77 -55 77 -111c0 -111 -97 -168 -234 -168h-181zM258 238h-91l-28 -157h78c68 0 130 22 130 91c0 42 -32 66 -89 66zM280 456h-75l-25 -141h85c43 0 99 21 99 82c0 43 -35 59 -84 59z" />
    <glyph glyph-name="c.sc" horiz-adv-x="580" 
d="M143 230c0 -89 55 -158 150 -158c58 0 104 20 149 72l64 -55c-51 -64 -121 -103 -222 -103c-146 0 -241 94 -241 234c0 185 135 330 319 330c82 0 154 -30 193 -88l-78 -59c-24 37 -61 62 -118 62c-131 0 -216 -112 -216 -235z" />
    <glyph glyph-name="d.sc" horiz-adv-x="605" 
d="M30 0l95 536h176c127 0 253 -64 253 -226c0 -186 -136 -310 -328 -310h-196zM206 456l-66 -375h87c150 0 227 103 227 219c0 86 -52 156 -171 156h-77z" />
    <glyph glyph-name="e.sc" horiz-adv-x="493" 
d="M392 0h-362l95 536h341l-13 -80h-247l-25 -141h235l-14 -77h-234l-28 -157h266z" />
    <glyph glyph-name="f.sc" horiz-adv-x="473" 
d="M447 456h-241l-26 -150h224l-13 -78h-224l-41 -228h-96l94 536h337z" />
    <glyph glyph-name="g.sc" horiz-adv-x="609" 
d="M297 72c43 0 82 8 111 23l22 128h-114l13 78h208l-46 -264c-62 -34 -132 -51 -203 -51c-149 0 -245 97 -245 234c0 185 135 330 319 330c82 0 154 -30 193 -88l-78 -59c-24 37 -61 62 -118 62c-131 0 -216 -112 -216 -235c0 -88 57 -158 154 -158z" />
    <glyph glyph-name="h.sc" horiz-adv-x="585" 
d="M450 0h-96l41 237h-226l-42 -237h-96l93 536h96l-38 -220h227l39 220h95z" />
    <glyph glyph-name="i.sc" horiz-adv-x="263" 
d="M126 0h-96l95 536h96z" />
    <glyph glyph-name="j.sc" horiz-adv-x="404" 
d="M371 536l-64 -372c-16 -91 -52 -178 -173 -178c-84 0 -137 50 -147 128l83 28c7 -45 34 -70 65 -70c51 0 67 38 77 98l63 366h96z" />
    <glyph glyph-name="k.sc" horiz-adv-x="537" 
d="M479 0h-122l-183 266h-2l-46 -266h-96l94 536h96l-41 -231h2l243 231h132l-281 -252z" />
    <glyph glyph-name="l.sc" horiz-adv-x="425" 
d="M356 0h-326l95 536h96l-81 -455h229z" />
    <glyph glyph-name="m.sc" horiz-adv-x="721" 
d="M585 0h-92l69 391h-2l-223 -391h-61l-83 391h-2l-69 -391h-92l94 536h130l80 -386h3l214 386h128z" />
    <glyph glyph-name="n.sc" horiz-adv-x="616" 
d="M479 0h-114l-169 399h-1l-70 -399h-95l94 536h114l170 -395h1l70 395h95z" />
    <glyph glyph-name="o.sc" horiz-adv-x="657" 
d="M360 550c149 0 246 -95 246 -233c0 -180 -133 -331 -316 -331c-151 0 -247 95 -247 234c0 181 137 330 317 330zM296 72c129 0 211 113 211 238c0 86 -57 155 -154 155c-126 0 -211 -114 -211 -236c0 -87 56 -157 154 -157z" />
    <glyph glyph-name="p.sc" horiz-adv-x="489" 
d="M124 536h155c119 0 180 -57 180 -143c0 -109 -72 -176 -215 -176h-80l-38 -217h-96zM205 458l-28 -163h66c83 0 121 34 121 87c0 47 -32 76 -91 76h-68z" />
    <glyph glyph-name="q.sc" horiz-adv-x="657" 
d="M597 313c0 -108 -52 -190 -119 -230v-2h118l-14 -81h-288c-150 0 -251 85 -251 229c0 179 136 321 310 321c147 0 244 -92 244 -237zM498 310c0 88 -55 155 -151 155c-119 0 -206 -111 -206 -229c0 -96 62 -155 158 -155c110 0 199 105 199 229z" />
    <glyph glyph-name="r.sc" horiz-adv-x="507" 
d="M323 239l115 -239h-105l-102 226h-66l-40 -226h-95l94 536h157c117 0 180 -48 180 -139c0 -88 -51 -141 -138 -158zM205 458l-27 -154h61c80 0 125 27 125 86c0 43 -30 68 -94 68h-65z" />
    <glyph glyph-name="s.sc" horiz-adv-x="454" 
d="M-13 73l79 54c24 -42 71 -59 111 -59c72 0 102 36 102 84c0 44 -35 66 -95 88c-91 35 -120 77 -120 142c0 104 90 168 204 168c72 0 128 -35 152 -70l-72 -57c-21 33 -55 46 -90 46c-56 0 -96 -34 -96 -80c0 -36 20 -52 72 -72c98 -35 147 -80 147 -159
c0 -112 -88 -172 -208 -172c-86 0 -153 36 -186 87z" />
    <glyph glyph-name="t.sc" horiz-adv-x="433" 
d="M452 458h-163l-81 -458h-94l80 458h-163l13 78h422z" />
    <glyph glyph-name="u.sc" horiz-adv-x="571" 
d="M539 536l-58 -330c-21 -119 -89 -220 -243 -220c-116 0 -187 67 -187 162c0 14 1 28 4 47l60 341h96l-58 -327c-3 -14 -4 -30 -4 -42c0 -55 30 -95 93 -95c87 0 132 66 146 148l55 316h96z" />
    <glyph glyph-name="v.sc" horiz-adv-x="496" 
d="M538 536l-325 -536h-89l-85 536h98l56 -411h2l242 411h101z" />
    <glyph glyph-name="w.sc" horiz-adv-x="756" 
d="M795 536l-261 -536h-98l-42 393h-1l-194 -393h-100l-52 536h99l31 -395h2l192 395h96l40 -395h2l187 395h99z" />
    <glyph glyph-name="x.sc" horiz-adv-x="516" 
d="M439 0h-108l-92 207l-176 -207h-120l254 284l-119 252h107l81 -187l157 187h115l-230 -260z" />
    <glyph glyph-name="y.sc" horiz-adv-x="465" 
d="M521 536l-261 -305l-41 -231h-95l40 232l-136 304h105l93 -228l183 228h112z" />
    <glyph glyph-name="z.sc" horiz-adv-x="491" 
d="M395 0h-410l14 82l346 376h-257l14 78h383l-14 -74l-349 -381h287z" />
    <glyph glyph-name="agrave.sc" horiz-adv-x="534" 
d="M483 0h-101l-23 124h-229l-77 -124h-108l347 536h82zM346 201l-38 218l-133 -218h171zM301 594l-137 144h110l100 -144h-73z" />
    <glyph glyph-name="aacute.sc" horiz-adv-x="534" 
d="M483 0h-101l-23 124h-229l-77 -124h-108l347 536h82zM346 201l-38 218l-133 -218h171zM535 738l-162 -144h-74l125 144h111z" />
    <glyph glyph-name="acircumflex.sc" horiz-adv-x="534" 
d="M483 0h-101l-23 124h-229l-77 -124h-108l347 536h82zM346 201l-38 218l-133 -218h171zM420 738l86 -144h-86l-59 99l-94 -99h-91l138 144h106z" />
    <glyph glyph-name="atilde.sc" horiz-adv-x="534" 
d="M483 0h-101l-23 124h-229l-77 -124h-108l347 536h82zM346 201l-38 218l-133 -218h171zM218 602h-55c20 58 55 115 123 115c26 0 50 -10 72 -21c23 -12 44 -21 63 -21c28 0 45 24 55 47h55c-21 -58 -55 -115 -123 -115c-24 0 -47 9 -69 20c-23 11 -45 22 -65 22
c-29 0 -45 -24 -56 -47z" />
    <glyph glyph-name="adieresis.sc" horiz-adv-x="534" 
d="M483 0h-101l-23 124h-229l-77 -124h-108l347 536h82zM346 201l-38 218l-133 -218h171zM308 677c0 -33 -25 -60 -58 -60s-59 21 -59 57s29 61 61 61s56 -22 56 -58zM506 677c0 -33 -25 -60 -59 -60c-32 0 -58 21 -58 57s28 61 61 61c32 0 56 -22 56 -58z" />
    <glyph glyph-name="amacron.sc" horiz-adv-x="534" 
d="M483 0h-101l-23 124h-229l-77 -124h-108l347 536h82zM346 201l-38 218l-133 -218h171zM501 693l-12 -66h-294l11 66h295z" />
    <glyph glyph-name="abreve.sc" horiz-adv-x="534" 
d="M483 0h-101l-23 124h-229l-77 -124h-108l347 536h82zM346 201l-38 218l-133 -218h171zM456 738h55c-19 -88 -87 -138 -175 -138s-142 44 -142 138h56c0 -54 40 -72 90 -72c56 0 101 18 116 72z" />
    <glyph glyph-name="aring.sc" horiz-adv-x="534" 
d="M483 0h-101l-23 124h-229l-77 -124h-108l347 536h82zM346 201l-38 218l-133 -218h171zM339 583c-51 0 -87 36 -87 83c0 63 46 115 111 115c52 0 87 -34 87 -82c0 -65 -46 -116 -111 -116zM409 693c0 28 -19 51 -49 51c-39 0 -66 -32 -66 -73c0 -28 18 -50 48 -50
c39 0 67 32 67 72z" />
    <glyph glyph-name="aogonek.sc" horiz-adv-x="534" 
d="M431 -150l14 -44c-30 -22 -64 -37 -99 -37c-47 0 -83 24 -83 75c0 64 68 120 119 156l-23 124h-229l-77 -124h-108l347 536h82l109 -536h-47c-52 -43 -102 -92 -102 -136c0 -27 18 -35 41 -35c19 0 40 8 56 21zM346 201l-38 218l-133 -218h171z" />
    <glyph glyph-name="ae.sc" horiz-adv-x="829" 
d="M728 0h-362l24 134h-207l-106 -134h-113l430 536h408l-13 -80h-247l-25 -141h235l-14 -77h-234l-28 -157h266zM436 456l-193 -245h160l44 245h-11z" />
    <glyph glyph-name="cacute.sc" horiz-adv-x="580" 
d="M143 230c0 -89 55 -158 150 -158c58 0 104 20 149 72l64 -55c-51 -64 -121 -103 -222 -103c-146 0 -241 94 -241 234c0 185 135 330 319 330c82 0 154 -30 193 -88l-78 -59c-24 37 -61 62 -118 62c-131 0 -216 -112 -216 -235zM529 738l-162 -144h-74l125 144h111z" />
    <glyph glyph-name="ccircumflex.sc" horiz-adv-x="580" 
d="M143 230c0 -89 55 -158 150 -158c58 0 104 20 149 72l64 -55c-51 -64 -121 -103 -222 -103c-146 0 -241 94 -241 234c0 185 135 330 319 330c82 0 154 -30 193 -88l-78 -59c-24 37 -61 62 -118 62c-131 0 -216 -112 -216 -235zM456 738l86 -144h-86l-59 99l-94 -99h-91
l138 144h106z" />
    <glyph glyph-name="ccaron.sc" horiz-adv-x="580" 
d="M143 230c0 -89 55 -158 150 -158c58 0 104 20 149 72l64 -55c-51 -64 -121 -103 -222 -103c-146 0 -241 94 -241 234c0 185 135 330 319 330c82 0 154 -30 193 -88l-78 -59c-24 37 -61 62 -118 62c-131 0 -216 -112 -216 -235zM561 738l-137 -144h-106l-86 144h87l58 -99
l94 99h90z" />
    <glyph glyph-name="cdotaccent.sc" horiz-adv-x="580" 
d="M143 230c0 -89 55 -158 150 -158c58 0 104 20 149 72l64 -55c-51 -64 -121 -103 -222 -103c-146 0 -241 94 -241 234c0 185 135 330 319 330c82 0 154 -30 193 -88l-78 -59c-24 37 -61 62 -118 62c-131 0 -216 -112 -216 -235zM441 677c0 -33 -26 -61 -59 -61
c-32 0 -59 21 -59 57s29 62 61 62s57 -23 57 -58z" />
    <glyph glyph-name="ccedilla.sc" horiz-adv-x="580" 
d="M143 230c0 -89 55 -158 150 -158c58 0 104 20 149 72l64 -55c-50 -63 -118 -101 -214 -103l-47 -56c10 3 18 3 26 3c35 0 82 -17 82 -71c0 -73 -77 -97 -132 -97c-34 0 -78 9 -104 23l24 42c22 -11 50 -17 76 -17s65 8 65 43c0 28 -23 37 -48 37c-13 0 -29 -3 -42 -7
l-17 20l69 83c-123 15 -201 104 -201 231c0 185 135 330 319 330c82 0 154 -30 193 -88l-78 -59c-24 37 -61 62 -118 62c-131 0 -216 -112 -216 -235z" />
    <glyph glyph-name="dcaron.sc" horiz-adv-x="605" 
d="M30 0l95 536h176c127 0 253 -64 253 -226c0 -186 -136 -310 -328 -310h-196zM206 456l-66 -375h87c150 0 227 103 227 219c0 86 -52 156 -171 156h-77zM508 738l-137 -144h-106l-86 144h87l58 -99l94 99h90z" />
    <glyph glyph-name="dcroat.sc" horiz-adv-x="605" 
d="M30 0l44 245h-67l13 67h66l39 224h176c127 0 253 -64 253 -226c0 -186 -136 -310 -328 -310h-196zM206 456l-25 -144h141l-14 -67h-139l-29 -164h87c150 0 227 103 227 219c0 86 -52 156 -171 156h-77z" />
    <glyph glyph-name="eth.sc" horiz-adv-x="605" 
d="M30 0l44 245h-67l13 67h66l39 224h176c127 0 253 -64 253 -226c0 -186 -136 -310 -328 -310h-196zM206 456l-25 -144h141l-14 -67h-139l-29 -164h87c150 0 227 103 227 219c0 86 -52 156 -171 156h-77z" />
    <glyph glyph-name="egrave.sc" horiz-adv-x="493" 
d="M392 0h-362l95 536h341l-13 -80h-247l-25 -141h235l-14 -77h-234l-28 -157h266zM277 594l-137 144h110l100 -144h-73z" />
    <glyph glyph-name="eacute.sc" horiz-adv-x="493" 
d="M392 0h-362l95 536h341l-13 -80h-247l-25 -141h235l-14 -77h-234l-28 -157h266zM484 738l-162 -144h-74l125 144h111z" />
    <glyph glyph-name="ecircumflex.sc" horiz-adv-x="493" 
d="M392 0h-362l95 536h341l-13 -80h-247l-25 -141h235l-14 -77h-234l-28 -157h266zM380 738l86 -144h-86l-59 99l-94 -99h-91l138 144h106z" />
    <glyph glyph-name="ecaron.sc" horiz-adv-x="493" 
d="M392 0h-362l95 536h341l-13 -80h-247l-25 -141h235l-14 -77h-234l-28 -157h266zM488 738l-137 -144h-106l-86 144h87l58 -99l94 99h90z" />
    <glyph glyph-name="edieresis.sc" horiz-adv-x="493" 
d="M392 0h-362l95 536h341l-13 -80h-247l-25 -141h235l-14 -77h-234l-28 -157h266zM271 677c0 -33 -25 -60 -58 -60s-59 21 -59 57s29 61 61 61s56 -22 56 -58zM469 677c0 -33 -25 -60 -59 -60c-32 0 -58 21 -58 57s28 61 61 61c32 0 56 -22 56 -58z" />
    <glyph glyph-name="emacron.sc" horiz-adv-x="493" 
d="M392 0h-362l95 536h341l-13 -80h-247l-25 -141h235l-14 -77h-234l-28 -157h266zM466 693l-12 -66h-294l11 66h295z" />
    <glyph glyph-name="ebreve.sc" horiz-adv-x="493" 
d="M392 0h-362l95 536h341l-13 -80h-247l-25 -141h235l-14 -77h-234l-28 -157h266zM417 738h55c-19 -88 -87 -138 -175 -138s-142 44 -142 138h56c0 -54 40 -72 90 -72c56 0 101 18 116 72z" />
    <glyph glyph-name="edotaccent.sc" horiz-adv-x="493" 
d="M392 0h-362l95 536h341l-13 -80h-247l-25 -141h235l-14 -77h-234l-28 -157h266zM376 677c0 -33 -26 -61 -59 -61c-32 0 -59 21 -59 57s29 62 61 62s57 -23 57 -58z" />
    <glyph glyph-name="eogonek.sc" horiz-adv-x="493" 
d="M356 -150l14 -44c-30 -22 -64 -37 -99 -37c-47 0 -83 24 -83 75c0 64 68 120 119 156h-277l95 536h341l-13 -80h-247l-25 -141h235l-14 -77h-234l-28 -157h266l-14 -81h-31c-52 -43 -102 -92 -102 -136c0 -27 18 -35 41 -35c19 0 40 8 56 21z" />
    <glyph glyph-name="gcircumflex.sc" horiz-adv-x="609" 
d="M297 72c43 0 82 8 111 23l22 128h-114l13 78h208l-46 -264c-62 -34 -132 -51 -203 -51c-149 0 -245 97 -245 234c0 185 135 330 319 330c82 0 154 -30 193 -88l-78 -59c-24 37 -61 62 -118 62c-131 0 -216 -112 -216 -235c0 -88 57 -158 154 -158zM459 738l86 -144h-86
l-59 99l-94 -99h-91l138 144h106z" />
    <glyph glyph-name="gbreve.sc" horiz-adv-x="609" 
d="M297 72c43 0 82 8 111 23l22 128h-114l13 78h208l-46 -264c-62 -34 -132 -51 -203 -51c-149 0 -245 97 -245 234c0 185 135 330 319 330c82 0 154 -30 193 -88l-78 -59c-24 37 -61 62 -118 62c-131 0 -216 -112 -216 -235c0 -88 57 -158 154 -158zM494 738h55
c-19 -88 -87 -138 -175 -138s-142 44 -142 138h56c0 -54 40 -72 90 -72c56 0 101 18 116 72z" />
    <glyph glyph-name="gdotaccent.sc" horiz-adv-x="609" 
d="M297 72c43 0 82 8 111 23l22 128h-114l13 78h208l-46 -264c-62 -34 -132 -51 -203 -51c-149 0 -245 97 -245 234c0 185 135 330 319 330c82 0 154 -30 193 -88l-78 -59c-24 37 -61 62 -118 62c-131 0 -216 -112 -216 -235c0 -88 57 -158 154 -158zM440 677
c0 -33 -26 -61 -59 -61c-32 0 -59 21 -59 57s29 62 61 62s57 -23 57 -58z" />
    <glyph glyph-name="gcommaaccent.sc" horiz-adv-x="609" 
d="M297 72c43 0 82 8 111 23l22 128h-114l13 78h208l-46 -264c-62 -34 -132 -51 -203 -51c-149 0 -245 97 -245 234c0 185 135 330 319 330c82 0 154 -30 193 -88l-78 -59c-24 37 -61 62 -118 62c-131 0 -216 -112 -216 -235c0 -88 57 -158 154 -158zM316 -45l-120 -190h-77
l104 190h93z" />
    <glyph glyph-name="kgreenlandic.sc" horiz-adv-x="537" 
d="M479 0h-122l-183 266h-2l-46 -266h-96l94 536h96l-41 -231h2l243 231h132l-281 -252z" />
    <glyph glyph-name="hcircumflex.sc" horiz-adv-x="585" 
d="M450 0h-96l41 237h-226l-42 -237h-96l93 536h96l-38 -220h227l39 220h95zM428 738l86 -144h-86l-59 99l-94 -99h-91l138 144h106z" />
    <glyph glyph-name="hbar.sc" horiz-adv-x="585" 
d="M450 0h-96l41 237h-226l-42 -237h-96l93 536h96l-17 -93h228l17 93h95zM180 310h227l14 80h-227z" />
    <glyph glyph-name="igrave.sc" horiz-adv-x="263" 
d="M126 0h-96l95 536h96zM151 594l-137 144h110l100 -144h-73z" />
    <glyph glyph-name="iacute.sc" horiz-adv-x="263" 
d="M126 0h-96l95 536h96zM368 738l-162 -144h-74l125 144h111z" />
    <glyph glyph-name="ibreve.sc" horiz-adv-x="263" 
d="M126 0h-96l95 536h96zM311 738h55c-19 -88 -87 -138 -175 -138s-142 44 -142 138h56c0 -54 40 -72 90 -72c56 0 101 18 116 72z" />
    <glyph glyph-name="icircumflex.sc" horiz-adv-x="263" 
d="M126 0h-96l95 536h96zM258 738l86 -144h-86l-59 99l-94 -99h-91l138 144h106z" />
    <glyph glyph-name="itilde.sc" horiz-adv-x="263" 
d="M126 0h-96l95 536h96zM52 602h-55c20 58 55 115 123 115c26 0 50 -10 72 -21c23 -12 44 -21 63 -21c28 0 45 24 55 47h55c-21 -58 -55 -115 -123 -115c-24 0 -47 9 -69 20c-23 11 -45 22 -65 22c-29 0 -45 -24 -56 -47z" />
    <glyph glyph-name="idieresis.sc" horiz-adv-x="263" 
d="M126 0h-96l95 536h96zM152 677c0 -33 -25 -60 -58 -60s-59 21 -59 57s29 61 61 61s56 -22 56 -58zM350 677c0 -33 -25 -60 -59 -60c-32 0 -58 21 -58 57s28 61 61 61c32 0 56 -22 56 -58z" />
    <glyph glyph-name="imacron.sc" horiz-adv-x="263" 
d="M126 0h-96l95 536h96zM341 693l-12 -66h-294l11 66h295z" />
    <glyph glyph-name="idotaccent.sc" horiz-adv-x="263" 
d="M126 0h-96l95 536h96zM255 647c0 -33 -26 -61 -59 -61c-32 0 -59 21 -59 57s29 62 61 62s57 -23 57 -58z" />
    <glyph glyph-name="iogonek.sc" horiz-adv-x="263" 
d="M121 -150l14 -44c-30 -22 -64 -37 -99 -37c-47 0 -83 24 -83 75c0 64 68 120 119 156h-42l95 536h96l-95 -536c-52 -43 -102 -92 -102 -136c0 -27 18 -35 41 -35c19 0 40 8 56 21z" />
    <glyph glyph-name="jcircumflex.sc" horiz-adv-x="404" 
d="M371 536l-64 -372c-16 -91 -52 -178 -173 -178c-84 0 -137 50 -147 128l83 28c7 -45 34 -70 65 -70c51 0 67 38 77 98l63 366h96zM413 738l86 -144h-86l-59 99l-94 -99h-91l138 144h106z" />
    <glyph glyph-name="kcommaaccent.sc" horiz-adv-x="537" 
d="M479 0h-122l-183 266h-2l-46 -266h-96l94 536h96l-41 -231h2l243 231h132l-281 -252zM283 -45l-120 -190h-77l104 190h93z" />
    <glyph glyph-name="lacute.sc" horiz-adv-x="425" 
d="M356 0h-326l95 536h96l-81 -455h229zM380 738l-162 -144h-74l125 144h111z" />
    <glyph glyph-name="lcaron.sc" horiz-adv-x="426" 
d="M356 0h-326l95 536h96l-81 -455h229zM439 536l-120 -190h-77l104 190h93z" />
    <glyph glyph-name="lcommaaccent.sc" horiz-adv-x="425" 
d="M356 0h-326l95 536h96l-81 -455h229zM244 -45l-120 -190h-77l104 190h93z" />
    <glyph glyph-name="lslash.sc" horiz-adv-x="425" 
d="M-4 246l89 65l40 225h96l-26 -146l129 92l-16 -89l-129 -92l-39 -220h229l-13 -81h-326l39 222l-89 -66z" />
    <glyph glyph-name="ldot.sc" horiz-adv-x="425" 
d="M356 0h-326l95 536h96l-81 -455h229zM370 317c0 -33 -26 -61 -59 -61c-32 0 -59 21 -59 57s29 62 61 62s57 -23 57 -58z" />
    <glyph glyph-name="nacute.sc" horiz-adv-x="616" 
d="M479 0h-114l-169 399h-1l-70 -399h-95l94 536h114l170 -395h1l70 395h95zM512 738l-162 -144h-74l125 144h111z" />
    <glyph glyph-name="ncaron.sc" horiz-adv-x="616" 
d="M479 0h-114l-169 399h-1l-70 -399h-95l94 536h114l170 -395h1l70 395h95zM541 738l-137 -144h-106l-86 144h87l58 -99l94 99h90z" />
    <glyph glyph-name="ntilde.sc" horiz-adv-x="616" 
d="M479 0h-114l-169 399h-1l-70 -399h-95l94 536h114l170 -395h1l70 395h95zM243 602h-55c20 58 55 115 123 115c26 0 50 -10 72 -21c23 -12 44 -21 63 -21c28 0 45 24 55 47h55c-21 -58 -55 -115 -123 -115c-24 0 -47 9 -69 20c-23 11 -45 22 -65 22c-29 0 -45 -24 -56 -47
z" />
    <glyph glyph-name="ncommaaccent.sc" horiz-adv-x="616" 
d="M479 0h-114l-169 399h-1l-70 -399h-95l94 536h114l170 -395h1l70 395h95zM311 -45l-120 -190h-77l104 190h93z" />
    <glyph glyph-name="ograve.sc" horiz-adv-x="657" 
d="M360 550c149 0 246 -95 246 -233c0 -180 -133 -331 -316 -331c-151 0 -247 95 -247 234c0 181 137 330 317 330zM296 72c129 0 211 113 211 238c0 86 -57 155 -154 155c-126 0 -211 -114 -211 -236c0 -87 56 -157 154 -157zM344 594l-137 144h110l100 -144h-73z" />
    <glyph glyph-name="oacute.sc" horiz-adv-x="657" 
d="M360 550c149 0 246 -95 246 -233c0 -180 -133 -331 -316 -331c-151 0 -247 95 -247 234c0 181 137 330 317 330zM296 72c129 0 211 113 211 238c0 86 -57 155 -154 155c-126 0 -211 -114 -211 -236c0 -87 56 -157 154 -157zM559 738l-162 -144h-74l125 144h111z" />
    <glyph glyph-name="ocircumflex.sc" horiz-adv-x="657" 
d="M360 550c149 0 246 -95 246 -233c0 -180 -133 -331 -316 -331c-151 0 -247 95 -247 234c0 181 137 330 317 330zM296 72c129 0 211 113 211 238c0 86 -57 155 -154 155c-126 0 -211 -114 -211 -236c0 -87 56 -157 154 -157zM467 738l86 -144h-86l-59 99l-94 -99h-91
l138 144h106z" />
    <glyph glyph-name="otilde.sc" horiz-adv-x="657" 
d="M360 550c149 0 246 -95 246 -233c0 -180 -133 -331 -316 -331c-151 0 -247 95 -247 234c0 181 137 330 317 330zM296 72c129 0 211 113 211 238c0 86 -57 155 -154 155c-126 0 -211 -114 -211 -236c0 -87 56 -157 154 -157zM259 602h-55c20 58 55 115 123 115
c26 0 50 -10 72 -21c23 -12 44 -21 63 -21c28 0 45 24 55 47h55c-21 -58 -55 -115 -123 -115c-24 0 -47 9 -69 20c-23 11 -45 22 -65 22c-29 0 -45 -24 -56 -47z" />
    <glyph glyph-name="odieresis.sc" horiz-adv-x="657" 
d="M360 550c149 0 246 -95 246 -233c0 -180 -133 -331 -316 -331c-151 0 -247 95 -247 234c0 181 137 330 317 330zM296 72c129 0 211 113 211 238c0 86 -57 155 -154 155c-126 0 -211 -114 -211 -236c0 -87 56 -157 154 -157zM354 677c0 -33 -25 -60 -58 -60s-59 21 -59 57
s29 61 61 61s56 -22 56 -58zM552 677c0 -33 -25 -60 -59 -60c-32 0 -58 21 -58 57s28 61 61 61c32 0 56 -22 56 -58z" />
    <glyph glyph-name="omacron.sc" horiz-adv-x="657" 
d="M360 550c149 0 246 -95 246 -233c0 -180 -133 -331 -316 -331c-151 0 -247 95 -247 234c0 181 137 330 317 330zM296 72c129 0 211 113 211 238c0 86 -57 155 -154 155c-126 0 -211 -114 -211 -236c0 -87 56 -157 154 -157zM542 693l-12 -66h-294l11 66h295z" />
    <glyph glyph-name="obreve.sc" horiz-adv-x="657" 
d="M360 550c149 0 246 -95 246 -233c0 -180 -133 -331 -316 -331c-151 0 -247 95 -247 234c0 181 137 330 317 330zM296 72c129 0 211 113 211 238c0 86 -57 155 -154 155c-126 0 -211 -114 -211 -236c0 -87 56 -157 154 -157zM500 738h55c-19 -88 -87 -138 -175 -138
s-142 44 -142 138h56c0 -54 40 -72 90 -72c56 0 101 18 116 72z" />
    <glyph glyph-name="ohungarumlaut.sc" horiz-adv-x="657" 
d="M360 550c149 0 246 -95 246 -233c0 -180 -133 -331 -316 -331c-151 0 -247 95 -247 234c0 181 137 330 317 330zM296 72c129 0 211 113 211 238c0 86 -57 155 -154 155c-126 0 -211 -114 -211 -236c0 -87 56 -157 154 -157zM662 738l-163 -144h-76l126 144h113zM481 738
l-162 -144h-76l125 144h113z" />
    <glyph glyph-name="oslash.sc" horiz-adv-x="657" 
d="M624 519l-62 -60c28 -38 44 -87 44 -142c0 -180 -133 -331 -316 -331c-68 0 -125 19 -167 53l-64 -62l-39 38l66 63c-28 38 -43 86 -43 142c0 181 137 330 317 330c66 0 122 -19 164 -53l64 61zM295 69c131 0 215 115 215 242c0 29 -7 57 -19 80l-300 -287
c26 -22 61 -35 104 -35zM139 229c0 -30 6 -58 19 -82l299 286c-26 22 -61 35 -104 35c-128 0 -214 -116 -214 -239z" />
    <glyph glyph-name="oe.sc" horiz-adv-x="784" 
d="M683 0h-389c-151 0 -250 80 -250 219c0 181 144 317 320 317h393l-13 -80h-247l-25 -141h235l-14 -77h-234l-28 -157h266zM300 86h36l64 364h-43c-125 0 -214 -101 -214 -223c0 -87 59 -141 157 -141z" />
    <glyph glyph-name="racute.sc" horiz-adv-x="507" 
d="M323 239l115 -239h-105l-102 226h-66l-40 -226h-95l94 536h157c117 0 180 -48 180 -139c0 -88 -51 -141 -138 -158zM205 458l-27 -154h61c80 0 125 27 125 86c0 43 -30 68 -94 68h-65zM454 738l-162 -144h-74l125 144h111z" />
    <glyph glyph-name="rcaron.sc" horiz-adv-x="507" 
d="M323 239l115 -239h-105l-102 226h-66l-40 -226h-95l94 536h157c117 0 180 -48 180 -139c0 -88 -51 -141 -138 -158zM205 458l-27 -154h61c80 0 125 27 125 86c0 43 -30 68 -94 68h-65zM480 738l-137 -144h-106l-86 144h87l58 -99l94 99h90z" />
    <glyph glyph-name="rcommaaccent.sc" horiz-adv-x="507" 
d="M323 239l115 -239h-105l-102 226h-66l-40 -226h-95l94 536h157c117 0 180 -48 180 -139c0 -88 -51 -141 -138 -158zM205 458l-27 -154h61c80 0 125 27 125 86c0 43 -30 68 -94 68h-65zM264 -45l-120 -190h-77l104 190h93z" />
    <glyph glyph-name="sacute.sc" horiz-adv-x="454" 
d="M-13 73l79 54c24 -42 71 -59 111 -59c72 0 102 36 102 84c0 44 -35 66 -95 88c-91 35 -120 77 -120 142c0 104 90 168 204 168c72 0 128 -35 152 -70l-72 -57c-21 33 -55 46 -90 46c-56 0 -96 -34 -96 -80c0 -36 20 -52 72 -72c98 -35 147 -80 147 -159
c0 -112 -88 -172 -208 -172c-86 0 -153 36 -186 87zM439 738l-162 -144h-74l125 144h111z" />
    <glyph glyph-name="scircumflex.sc" horiz-adv-x="454" 
d="M-13 73l79 54c24 -42 71 -59 111 -59c72 0 102 36 102 84c0 44 -35 66 -95 88c-91 35 -120 77 -120 142c0 104 90 168 204 168c72 0 128 -35 152 -70l-72 -57c-21 33 -55 46 -90 46c-56 0 -96 -34 -96 -80c0 -36 20 -52 72 -72c98 -35 147 -80 147 -159
c0 -112 -88 -172 -208 -172c-86 0 -153 36 -186 87zM358 738l86 -144h-86l-59 99l-94 -99h-91l138 144h106z" />
    <glyph glyph-name="scaron.sc" horiz-adv-x="454" 
d="M-13 73l79 54c24 -42 71 -59 111 -59c72 0 102 36 102 84c0 44 -35 66 -95 88c-91 35 -120 77 -120 142c0 104 90 168 204 168c72 0 128 -35 152 -70l-72 -57c-21 33 -55 46 -90 46c-56 0 -96 -34 -96 -80c0 -36 20 -52 72 -72c98 -35 147 -80 147 -159
c0 -112 -88 -172 -208 -172c-86 0 -153 36 -186 87zM463 738l-137 -144h-106l-86 144h87l58 -99l94 99h90z" />
    <glyph glyph-name="scedilla.sc" horiz-adv-x="454" 
d="M-13 73l79 54c24 -42 71 -59 111 -59c72 0 102 36 102 84c0 44 -35 66 -95 88c-91 35 -120 77 -120 142c0 104 90 168 204 168c72 0 128 -35 152 -70l-72 -57c-21 33 -55 46 -90 46c-56 0 -96 -34 -96 -80c0 -36 20 -52 72 -72c98 -35 147 -80 147 -159
c0 -102 -73 -160 -176 -170l-48 -58c10 3 18 3 26 3c35 0 82 -17 82 -71c0 -73 -77 -97 -132 -97c-34 0 -78 9 -104 23l24 42c22 -11 50 -17 76 -17s65 8 65 43c0 28 -23 37 -48 37c-13 0 -29 -3 -42 -7l-17 20l67 81c-77 5 -137 38 -167 86z" />
    <glyph glyph-name="scommaaccent.sc" horiz-adv-x="454" 
d="M-13 73l79 54c24 -42 71 -59 111 -59c72 0 102 36 102 84c0 44 -35 66 -95 88c-91 35 -120 77 -120 142c0 104 90 168 204 168c72 0 128 -35 152 -70l-72 -57c-21 33 -55 46 -90 46c-56 0 -96 -34 -96 -80c0 -36 20 -52 72 -72c98 -35 147 -80 147 -159
c0 -112 -88 -172 -208 -172c-86 0 -153 36 -186 87zM234 -45l-120 -190h-77l104 190h93z" />
    <glyph glyph-name="tcaron.sc" horiz-adv-x="433" 
d="M452 458h-163l-81 -458h-94l80 458h-163l13 78h422zM454 738l-137 -144h-106l-86 144h87l58 -99l94 99h90z" />
    <glyph glyph-name="tcommaaccent.sc" horiz-adv-x="433" 
d="M452 458h-163l-81 -458h-94l80 458h-163l13 78h422zM215 -45l-120 -190h-77l104 190h93z" />
    <glyph glyph-name="tbar.sc" horiz-adv-x="433" 
d="M367 290h-108l-51 -290h-94l50 290h-100l12 63h99l19 105h-163l13 78h422l-14 -78h-163l-19 -105h109z" />
    <glyph glyph-name="thorn.sc" horiz-adv-x="490" 
d="M149 131l-23 -131h-96l95 536h95l-17 -95h79c120 0 178 -51 178 -137c0 -113 -73 -173 -220 -173h-91zM189 361l-27 -152h82c84 0 121 30 121 85c0 41 -27 67 -97 67h-79z" />
    <glyph glyph-name="ugrave.sc" horiz-adv-x="571" 
d="M539 536l-58 -330c-21 -119 -89 -220 -243 -220c-116 0 -187 67 -187 162c0 14 1 28 4 47l60 341h96l-58 -327c-3 -14 -4 -30 -4 -42c0 -55 30 -95 93 -95c87 0 132 66 146 148l55 316h96zM306 594l-137 144h110l100 -144h-73z" />
    <glyph glyph-name="uacute.sc" horiz-adv-x="571" 
d="M539 536l-58 -330c-21 -119 -89 -220 -243 -220c-116 0 -187 67 -187 162c0 14 1 28 4 47l60 341h96l-58 -327c-3 -14 -4 -30 -4 -42c0 -55 30 -95 93 -95c87 0 132 66 146 148l55 316h96zM510 738l-162 -144h-74l125 144h111z" />
    <glyph glyph-name="ucircumflex.sc" horiz-adv-x="571" 
d="M539 536l-58 -330c-21 -119 -89 -220 -243 -220c-116 0 -187 67 -187 162c0 14 1 28 4 47l60 341h96l-58 -327c-3 -14 -4 -30 -4 -42c0 -55 30 -95 93 -95c87 0 132 66 146 148l55 316h96zM418 738l86 -144h-86l-59 99l-94 -99h-91l138 144h106z" />
    <glyph glyph-name="utilde.sc" horiz-adv-x="571" 
d="M539 536l-58 -330c-21 -119 -89 -220 -243 -220c-116 0 -187 67 -187 162c0 14 1 28 4 47l60 341h96l-58 -327c-3 -14 -4 -30 -4 -42c0 -55 30 -95 93 -95c87 0 132 66 146 148l55 316h96zM219 602h-55c20 58 55 115 123 115c26 0 50 -10 72 -21c23 -12 44 -21 63 -21
c28 0 45 24 55 47h55c-21 -58 -55 -115 -123 -115c-24 0 -47 9 -69 20c-23 11 -45 22 -65 22c-29 0 -45 -24 -56 -47z" />
    <glyph glyph-name="udieresis.sc" horiz-adv-x="571" 
d="M539 536l-58 -330c-21 -119 -89 -220 -243 -220c-116 0 -187 67 -187 162c0 14 1 28 4 47l60 341h96l-58 -327c-3 -14 -4 -30 -4 -42c0 -55 30 -95 93 -95c87 0 132 66 146 148l55 316h96zM311 677c0 -33 -25 -60 -58 -60s-59 21 -59 57s29 61 61 61s56 -22 56 -58z
M509 677c0 -33 -25 -60 -59 -60c-32 0 -58 21 -58 57s28 61 61 61c32 0 56 -22 56 -58z" />
    <glyph glyph-name="umacron.sc" horiz-adv-x="571" 
d="M539 536l-58 -330c-21 -119 -89 -220 -243 -220c-116 0 -187 67 -187 162c0 14 1 28 4 47l60 341h96l-58 -327c-3 -14 -4 -30 -4 -42c0 -55 30 -95 93 -95c87 0 132 66 146 148l55 316h96zM498 693l-12 -66h-294l11 66h295z" />
    <glyph glyph-name="ubreve.sc" horiz-adv-x="571" 
d="M539 536l-58 -330c-21 -119 -89 -220 -243 -220c-116 0 -187 67 -187 162c0 14 1 28 4 47l60 341h96l-58 -327c-3 -14 -4 -30 -4 -42c0 -55 30 -95 93 -95c87 0 132 66 146 148l55 316h96zM453 738h55c-19 -88 -87 -138 -175 -138s-142 44 -142 138h56
c0 -54 40 -72 90 -72c56 0 101 18 116 72z" />
    <glyph glyph-name="uring.sc" horiz-adv-x="571" 
d="M539 536l-58 -330c-21 -119 -89 -220 -243 -220c-116 0 -187 67 -187 162c0 14 1 28 4 47l60 341h96l-58 -327c-3 -14 -4 -30 -4 -42c0 -55 30 -95 93 -95c87 0 132 66 146 148l55 316h96zM338 583c-51 0 -87 36 -87 83c0 63 46 115 111 115c52 0 87 -34 87 -82
c0 -65 -46 -116 -111 -116zM408 693c0 28 -19 51 -49 51c-39 0 -66 -32 -66 -73c0 -28 18 -50 48 -50c39 0 67 32 67 72z" />
    <glyph glyph-name="uhungarumlaut.sc" horiz-adv-x="571" 
d="M539 536l-58 -330c-21 -119 -89 -220 -243 -220c-116 0 -187 67 -187 162c0 14 1 28 4 47l60 341h96l-58 -327c-3 -14 -4 -30 -4 -42c0 -55 30 -95 93 -95c87 0 132 66 146 148l55 316h96zM612 738l-163 -144h-76l126 144h113zM431 738l-162 -144h-76l125 144h113z" />
    <glyph glyph-name="uogonek.sc" horiz-adv-x="571" 
d="M292 -150l14 -44c-30 -22 -64 -37 -99 -37c-47 0 -83 24 -83 75c0 57 52 107 100 143c-108 5 -173 70 -173 161c0 14 1 28 4 47l60 341h96l-58 -327c-3 -14 -4 -30 -4 -42c0 -55 30 -95 93 -95c87 0 132 66 146 148l55 316h96l-58 -330c-19 -106 -75 -198 -197 -216
c-47 -41 -89 -85 -89 -126c0 -27 18 -35 41 -35c19 0 40 8 56 21z" />
    <glyph glyph-name="wacute.sc" horiz-adv-x="756" 
d="M795 536l-261 -536h-98l-42 393h-1l-194 -393h-100l-52 536h99l31 -395h2l192 395h96l40 -395h2l187 395h99zM626 738l-162 -144h-74l125 144h111z" />
    <glyph glyph-name="wcircumflex.sc" horiz-adv-x="756" 
d="M795 536l-261 -536h-98l-42 393h-1l-194 -393h-100l-52 536h99l31 -395h2l192 395h96l40 -395h2l187 395h99zM509 738l86 -144h-86l-59 99l-94 -99h-91l138 144h106z" />
    <glyph glyph-name="wdieresis.sc" horiz-adv-x="756" 
d="M795 536l-261 -536h-98l-42 393h-1l-194 -393h-100l-52 536h99l31 -395h2l192 395h96l40 -395h2l187 395h99zM403 677c0 -33 -25 -60 -58 -60s-59 21 -59 57s29 61 61 61s56 -22 56 -58zM601 677c0 -33 -25 -60 -59 -60c-32 0 -58 21 -58 57s28 61 61 61
c32 0 56 -22 56 -58z" />
    <glyph glyph-name="wgrave.sc" horiz-adv-x="756" 
d="M795 536l-261 -536h-98l-42 393h-1l-194 -393h-100l-52 536h99l31 -395h2l192 395h96l40 -395h2l187 395h99zM395 594l-137 144h110l100 -144h-73z" />
    <glyph glyph-name="yacute.sc" horiz-adv-x="465" 
d="M521 536l-261 -305l-41 -231h-95l40 232l-136 304h105l93 -228l183 228h112zM455 738l-162 -144h-74l125 144h111z" />
    <glyph glyph-name="ycircumflex.sc" horiz-adv-x="465" 
d="M521 536l-261 -305l-41 -231h-95l40 232l-136 304h105l93 -228l183 228h112zM368 738l86 -144h-86l-59 99l-94 -99h-91l138 144h106z" />
    <glyph glyph-name="ydieresis.sc" horiz-adv-x="465" 
d="M521 536l-261 -305l-41 -231h-95l40 232l-136 304h105l93 -228l183 228h112zM252 677c0 -33 -25 -60 -58 -60s-59 21 -59 57s29 61 61 61s56 -22 56 -58zM450 677c0 -33 -25 -60 -59 -60c-32 0 -58 21 -58 57s28 61 61 61c32 0 56 -22 56 -58z" />
    <glyph glyph-name="ygrave.sc" horiz-adv-x="465" 
d="M521 536l-261 -305l-41 -231h-95l40 232l-136 304h105l93 -228l183 228h112zM264 594l-137 144h110l100 -144h-73z" />
    <glyph glyph-name="zacute.sc" horiz-adv-x="491" 
d="M395 0h-410l14 82l346 376h-257l14 78h383l-14 -74l-349 -381h287zM444 738l-162 -144h-74l125 144h111z" />
    <glyph glyph-name="zcaron.sc" horiz-adv-x="491" 
d="M395 0h-410l14 82l346 376h-257l14 78h383l-14 -74l-349 -381h287zM489 738l-137 -144h-106l-86 144h87l58 -99l94 99h90z" />
    <glyph glyph-name="zdotaccent.sc" horiz-adv-x="491" 
d="M395 0h-410l14 82l346 376h-257l14 78h383l-14 -74l-349 -381h287zM366 677c0 -33 -26 -61 -59 -61c-32 0 -59 21 -59 57s29 62 61 62s57 -23 57 -58z" />
    <glyph glyph-name="ij.sc" horiz-adv-x="656" 
d="M126 0h-96l95 536h96zM623 536l-64 -372c-16 -91 -52 -178 -173 -178c-84 0 -137 50 -147 128l83 28c7 -45 34 -70 65 -70c51 0 67 38 77 98l63 366h96z" />
    <glyph glyph-name="germandbls.sc" horiz-adv-x="908" 
d="M-13 73l79 54c24 -42 71 -59 111 -59c72 0 102 36 102 84c0 44 -35 66 -95 88c-91 35 -120 77 -120 142c0 104 90 168 204 168c72 0 128 -35 152 -70l-72 -57c-21 33 -55 46 -90 46c-56 0 -96 -34 -96 -80c0 -36 20 -52 72 -72c98 -35 147 -80 147 -159
c0 -112 -88 -172 -208 -172c-86 0 -153 36 -186 87zM441 73l79 54c24 -42 71 -59 111 -59c72 0 102 36 102 84c0 44 -35 66 -95 88c-91 35 -120 77 -120 142c0 104 90 168 204 168c72 0 128 -35 152 -70l-72 -57c-21 33 -55 46 -90 46c-56 0 -96 -34 -96 -80
c0 -36 20 -52 72 -72c98 -35 147 -80 147 -159c0 -112 -88 -172 -208 -172c-86 0 -153 36 -186 87z" />
    <glyph glyph-name="eng.sc" horiz-adv-x="616" 
d="M239 -234l19 79c11 -3 26 -5 37 -5c57 0 71 44 81 101l8 49l-188 409h-1l-70 -399h-95l94 536h114l172 -381h1l68 381h95l-106 -598c-16 -94 -50 -178 -174 -178c-17 0 -41 3 -55 6z" />
    <glyph glyph-name="grave.sc" 
d="M156 594l-137 144h110l100 -144h-73z" />
    <glyph glyph-name="acute.sc" 
d="M352 738l-162 -144h-74l125 144h111z" />
    <glyph glyph-name="circumflex.sc" 
d="M249 738l86 -144h-86l-59 99l-94 -99h-91l138 144h106z" />
    <glyph glyph-name="caron.sc" 
d="M360 738l-137 -144h-106l-86 144h87l58 -99l94 99h90z" />
    <glyph glyph-name="tilde.sc" 
d="M54 602h-55c20 58 55 115 123 115c26 0 50 -10 72 -21c23 -12 44 -21 63 -21c28 0 45 24 55 47h55c-21 -58 -55 -115 -123 -115c-24 0 -47 9 -69 20c-23 11 -45 22 -65 22c-29 0 -45 -24 -56 -47z" />
    <glyph glyph-name="dieresis.sc" 
d="M143 677c0 -33 -25 -60 -58 -60s-59 21 -59 57s29 61 61 61s56 -22 56 -58zM341 677c0 -33 -25 -60 -59 -60c-32 0 -58 21 -58 57s28 61 61 61c32 0 56 -22 56 -58z" />
    <glyph glyph-name="macron.sc" 
d="M335 693l-12 -66h-294l11 66h295z" />
    <glyph glyph-name="breve.sc" 
d="M299 738h55c-19 -88 -87 -138 -175 -138s-142 44 -142 138h56c0 -54 40 -72 90 -72c56 0 101 18 116 72z" />
    <glyph glyph-name="ring.sc" 
d="M175 583c-51 0 -87 36 -87 83c0 63 46 115 111 115c52 0 87 -34 87 -82c0 -65 -46 -116 -111 -116zM245 693c0 28 -19 51 -49 51c-39 0 -66 -32 -66 -73c0 -28 18 -50 48 -50c39 0 67 32 67 72z" />
    <glyph glyph-name="hungarumlaut.sc" 
d="M463 738l-163 -144h-76l126 144h113zM282 738l-162 -144h-76l125 144h113z" />
    <glyph glyph-name="dotaccent.sc" 
d="M245 677c0 -33 -26 -61 -59 -61c-32 0 -59 21 -59 57s29 62 61 62s57 -23 57 -58z" />
    <glyph glyph-name="exclamdown.sc" horiz-adv-x="300" 
d="M48 0l64 363h93l-64 -363h-93zM110 476c0 35 28 65 63 65s63 -22 63 -61c0 -38 -31 -65 -65 -65c-35 0 -61 23 -61 61z" />
    <glyph glyph-name="questiondown.sc" horiz-adv-x="420" 
d="M291 363l-4 -28c-6 -42 -30 -77 -74 -110l-36 -27c-35 -27 -48 -48 -48 -76s22 -53 60 -53c35 0 69 17 82 68l87 -15c-18 -85 -90 -136 -173 -136c-84 0 -152 36 -152 131c0 56 25 98 95 144c52 34 66 51 70 85l2 17h91zM193 477c0 35 28 65 63 65s62 -22 62 -61
c0 -38 -30 -65 -64 -65c-35 0 -61 23 -61 61z" />
    <glyph glyph-name="Euro.sc" horiz-adv-x="495" 
d="M452 445c-23 15 -59 23 -93 23c-66 0 -125 -36 -151 -103h205l-29 -66h-199c-6 -22 -10 -52 -10 -64h183l-31 -67h-151c7 -68 50 -105 123 -105c29 0 66 9 99 28l21 -73c-35 -22 -88 -32 -132 -32c-121 0 -198 78 -202 182h-66l31 67h35c1 14 4 37 11 64h-55l32 66h42
c48 126 139 185 253 185c45 0 95 -13 120 -27z" />
    <glyph glyph-name="cent.sc" horiz-adv-x="495" 
d="M216 -9c-108 17 -176 94 -176 201c0 150 103 281 263 294l11 63h51l-11 -64c60 -5 116 -30 145 -78l-72 -54c-14 28 -48 51 -86 56l-61 -344c54 2 91 26 121 57l55 -52c-49 -49 -110 -82 -190 -83l-11 -65h-51zM230 69l60 339c-93 -13 -156 -105 -156 -205
c0 -64 30 -121 96 -134z" />
    <glyph glyph-name="sterling.sc" horiz-adv-x="495" 
d="M355 307l-14 -70h-117l-27 -157h191l-14 -80h-350l14 80h65l28 157h-64l13 70h62l13 71c18 101 81 172 192 172c48 0 94 -14 127 -47l-56 -64c-22 24 -49 33 -75 33c-50 0 -85 -36 -100 -121l-8 -44h120z" />
    <glyph glyph-name="florin.sc" horiz-adv-x="495" 
d="M409 340l-12 -70h-108l-72 -208c-36 -103 -72 -148 -161 -148c-29 0 -62 9 -86 25l41 67c13 -8 31 -14 45 -14c39 0 51 25 73 86l68 192h-96l12 70h106l33 91c27 74 72 119 149 119c36 0 65 -10 91 -31l-50 -67c-15 13 -30 17 -46 17c-24 0 -46 -22 -59 -58l-25 -71h97z
" />
    <glyph glyph-name="yen.sc" horiz-adv-x="495" 
d="M58 168h124l11 60h-124l10 64h104l-114 244h97l90 -217l160 217h102l-195 -244h92l-10 -64h-123l-11 -60h123l-10 -64h-124l-18 -104h-89l19 104h-124z" />
    <glyph glyph-name="perthousand.sc" horiz-adv-x="1020" 
d="M335 436c0 -90 -67 -160 -157 -160c-69 0 -124 47 -124 113c0 89 67 158 159 158c69 0 122 -44 122 -111zM251 424c0 28 -17 47 -48 47c-40 0 -65 -30 -65 -73c0 -28 16 -47 47 -47c42 0 66 31 66 73zM639 148c0 -90 -67 -160 -157 -160c-69 0 -124 47 -124 113
c0 89 67 158 159 158c69 0 122 -44 122 -111zM555 136c0 28 -17 47 -48 47c-40 0 -65 -30 -65 -73c0 -28 16 -47 47 -47c42 0 66 31 66 73zM948 148c0 -90 -67 -160 -157 -160c-69 0 -124 47 -124 113c0 89 67 158 159 158c69 0 122 -44 122 -111zM864 136
c0 28 -17 47 -48 47c-40 0 -65 -30 -65 -73c0 -28 16 -47 47 -47c42 0 66 31 66 73zM584 521l-423 -556l-58 40l426 558z" />
    <glyph glyph-name="zero.onum" horiz-adv-x="680" 
d="M368 550c149 0 246 -95 246 -233c0 -180 -133 -331 -316 -331c-151 0 -247 95 -247 234c0 181 137 330 317 330zM304 72c129 0 211 113 211 238c0 86 -57 155 -154 155c-126 0 -211 -114 -211 -236c0 -87 56 -157 154 -157z" />
    <glyph glyph-name="one.onum" horiz-adv-x="390" 
d="M209 0h-94l74 413l-99 -70l-48 67l179 126h83z" />
    <glyph glyph-name="two.onum" horiz-adv-x="530" 
d="M424 81l-15 -81h-411l15 81l65 37c177 101 289 165 289 256c0 75 -56 95 -99 95c-52 0 -98 -28 -130 -79l-65 49c46 71 122 111 200 111c101 0 187 -58 187 -167c0 -129 -137 -206 -262 -274l-46 -25v-3h272z" />
    <glyph glyph-name="three.onum" horiz-adv-x="540" 
d="M475 449c-54 -46 -176 -130 -255 -179l-1 -4c9 2 18 3 33 3c72 0 187 -45 187 -181c0 -160 -140 -258 -326 -258c-37 0 -73 2 -102 9l15 84c25 -7 59 -10 89 -10c127 0 226 60 226 168c0 79 -57 122 -150 122c-35 0 -73 -7 -101 -15l-7 71c86 55 220 149 275 192l1 4
h-263l14 81h380z" />
    <glyph glyph-name="four.onum" horiz-adv-x="570" 
d="M469 550l-359 -469h204l43 244h91l-43 -244h113l-14 -81h-110l-30 -170h-91l30 170h-308l15 86l352 464h107z" />
    <glyph glyph-name="five.onum" horiz-adv-x="540" 
d="M191 214c-39 0 -88 -8 -124 -18l91 340h353l-16 -86h-271l-47 -165c18 3 29 4 51 4c117 0 208 -65 208 -189c0 -146 -95 -271 -310 -271c-36 0 -81 3 -110 9l16 84c25 -7 55 -11 89 -11c115 0 217 43 217 182c0 87 -64 121 -147 121z" />
    <glyph glyph-name="six.onum" horiz-adv-x="595" 
d="M325 434c126 0 204 -84 204 -193c0 -146 -104 -259 -267 -259c-129 0 -221 79 -221 213c0 194 203 384 388 520l76 -53c-109 -70 -220 -163 -284 -253l3 -2c29 18 71 27 101 27zM433 233c0 75 -52 128 -124 128c-103 0 -174 -74 -174 -171c0 -75 56 -129 130 -129
c103 0 168 73 168 172z" />
    <glyph glyph-name="seven.onum" horiz-adv-x="520" 
d="M500 448c-143 -211 -303 -465 -398 -631l-97 26c105 170 292 458 394 607h-335l15 86h436z" />
    <glyph glyph-name="eight.onum" horiz-adv-x="595" 
d="M549 556c0 -101 -69 -161 -143 -185l1 -2c62 -19 109 -76 109 -149c0 -151 -119 -238 -259 -238c-105 0 -212 56 -212 189c0 111 81 188 173 207v3c-52 23 -88 72 -88 133c0 131 104 212 226 212c104 0 193 -56 193 -170zM458 542c0 67 -44 104 -109 104
c-77 0 -130 -60 -130 -131c0 -56 40 -101 104 -101c78 0 135 62 135 128zM423 218c0 68 -49 116 -120 116c-95 0 -165 -66 -165 -154c0 -76 54 -118 123 -118c103 0 162 68 162 156z" />
    <glyph glyph-name="nine.onum" horiz-adv-x="595" 
d="M253 98c-126 0 -204 84 -204 193c0 146 104 259 267 259c129 0 221 -79 221 -213c0 -194 -203 -385 -388 -521l-76 54c109 70 220 163 284 253l-3 2c-29 -18 -71 -27 -101 -27zM145 299c0 -75 52 -128 124 -128c103 0 174 74 174 171c0 75 -56 129 -130 129
c-103 0 -168 -73 -168 -172z" />
    <glyph glyph-name="napostrophe.sc" horiz-adv-x="678" 
d="M541 0h-114l-169 399h-1l-70 -399h-95l94 536h114l170 -395h1l70 395h95zM155 536l-120 -190h-77l104 190h93z" />
    <glyph glyph-name="ordfeminine.sc" horiz-adv-x="380" 
d="M339 430h-70l-10 61h-110l-38 -61h-76l189 289h57zM251 541l-16 95l-57 -95h73z" />
    <glyph glyph-name="fl.sc" horiz-adv-x="898" 
d="M447 456h-241l-26 -150h224l-13 -78h-224l-41 -228h-96l94 536h337zM829 0h-326l95 536h96l-81 -455h229z" />
    <glyph glyph-name="fi.sc" horiz-adv-x="736" 
d="M447 456h-241l-26 -150h224l-13 -78h-224l-41 -228h-96l94 536h337zM599 0h-96l95 536h96z" />
    </font>
</defs>
</svg>
