<?xml version="1.0" standalone="no"?>
<!DOCTYPE svg PUBLIC "-//W3C//DTD SVG 1.1//EN" "http://www.w3.org/Graphics/SVG/1.1/DTD/svg11.dtd" >
<svg xmlns="http://www.w3.org/2000/svg" xmlns:xlink="http://www.w3.org/1999/xlink" version="1.1">
<metadata>
Created by FontForge 20161116 at Tue Apr 24 10:21:19 2012
 By Jimmy Warting
Copyright (c) 2003 - 2012 Linotype GmbH, www.linotype.com. All rights reserved. This font software may not be reproduced, modified, disclosed or transferred without the express written approval of Linotype GmbH. Avenir is a trademark of Linotype GmbH registered in the U.S. Patent and Trademark Office and may be registered in certain other jurisdictions. This typeface is original artwork of Adrian Frutiger and Akira Kobayashi. The design may be protected in certain jurisdictions.
</metadata>
<defs>
<font id="AvenirNextCyr-UltraLight" horiz-adv-x="350" >
  <font-face 
    font-family="Avenir Next Cyr Ultra Light"
    font-weight="275"
    font-stretch="normal"
    units-per-em="1000"
    panose-1="2 11 2 3 2 2 2 2 2 4"
    ascent="756"
    descent="-244"
    x-height="460"
    cap-height="708"
    bbox="-194 -250 1056 945"
    underline-thickness="50"
    underline-position="-100"
    stemh="20"
    stemv="22"
    unicode-range="U+000D-FB04"
  />
<missing-glyph horiz-adv-x="512" 
d="M278 117h-56v67h56v-67zM271 234h-46l-2 17c0 37 4 64 13 81s24 37 46 59c43 41 50 58 50 83c0 48 -35 85 -76 85s-74 -27 -82 -95l-50 8c9 95 63 137 135 137c71 0 124 -52 124 -131c0 -43 -12 -73 -63 -120c-25 -22 -39 -39 -43 -52s-6 -37 -6 -72zM50 50h412v617h-412
v-617zM0 718h512v-718h-512v718z" />
    <glyph glyph-name="napostrophe" unicode="&#x22;n" horiz-adv-x="572" 
d="M128 339c28 86 103 135 182 135c128 0 166 -100 166 -196v-278h-22v276c0 76 -28 179 -144 179c-101 0 -183 -84 -183 -225v-230h-22v344c0 29 -2 90 -5 116h22c2 -26 4 -87 4 -121h2zM133 708l-58 -185h-17l51 185h24z" />
    <glyph glyph-name="fi" unicode="fi" horiz-adv-x="494" 
d="M381 633c-12 0 -23 10 -23 26c0 14 11 25 23 25s23 -11 23 -25c0 -16 -12 -26 -23 -26zM392 0h-22v460h22v-460zM286 762l-4 -17c-13 3 -26 5 -41 5c-73 0 -98 -63 -98 -124v-166h125v-19h-125v-441h-22v441h-97v19h96v165c0 113 65 143 120 143c19 0 33 -2 46 -6z" />
    <glyph glyph-name="fl" unicode="fl" horiz-adv-x="494" 
d="M392 0h-22v756h22v-756zM286 762l-4 -17c-13 3 -26 5 -41 5c-73 0 -98 -63 -98 -124v-166h125v-19h-125v-441h-22v441h-97v19h96v165c0 113 65 143 120 143c19 0 33 -2 46 -6z" />
    <glyph glyph-name="f_f_l" unicode="ffl" horiz-adv-x="740" 
d="M638 0h-22v756h22v-756zM532 762l-4 -17c-13 3 -26 5 -41 5c-73 0 -98 -63 -98 -124v-166h125v-19h-125v-441h-22v441h-224v-441h-22v441h-97v19h96v165c0 113 65 143 120 143c19 0 33 -2 46 -6l-4 -17c-13 3 -26 5 -41 5c-73 0 -98 -63 -98 -124v-166h223v165
c0 113 65 143 120 143c19 0 33 -2 46 -6z" />
    <glyph glyph-name="f_f_i" unicode="ffi" horiz-adv-x="740" 
d="M627 633c-12 0 -23 10 -23 26c0 14 11 25 23 25s23 -11 23 -25c0 -16 -12 -26 -23 -26zM638 0h-22v460h22v-460zM532 762l-4 -17c-13 3 -26 5 -41 5c-73 0 -98 -63 -98 -124v-166h125v-19h-125v-441h-22v441h-224v-441h-22v441h-97v19h96v165c0 113 65 143 120 143
c19 0 33 -2 46 -6l-4 -17c-13 3 -26 5 -41 5c-73 0 -98 -63 -98 -124v-166h223v165c0 113 65 143 120 143c19 0 33 -2 46 -6z" />
    <glyph glyph-name="f_f" unicode="ff" horiz-adv-x="528" 
d="M532 762l-4 -17c-13 3 -26 5 -41 5c-73 0 -98 -63 -98 -124v-166h125v-19h-125v-441h-22v441h-224v-441h-22v441h-97v19h96v165c0 113 65 143 120 143c19 0 33 -2 46 -6l-4 -17c-13 3 -26 5 -41 5c-73 0 -98 -63 -98 -124v-166h223v165c0 113 65 143 120 143
c19 0 33 -2 46 -6z" />
    <glyph glyph-name=".notdef" horiz-adv-x="512" 
d="M278 117h-56v67h56v-67zM271 234h-46l-2 17c0 37 4 64 13 81s24 37 46 59c43 41 50 58 50 83c0 48 -35 85 -76 85s-74 -27 -82 -95l-50 8c9 95 63 137 135 137c71 0 124 -52 124 -131c0 -43 -12 -73 -63 -120c-25 -22 -39 -39 -43 -52s-6 -37 -6 -72zM50 50h412v617h-412
v-617zM0 718h512v-718h-512v718z" />
    <glyph glyph-name=".null" horiz-adv-x="500" 
 />
    <glyph glyph-name=".null" horiz-adv-x="500" 
 />
    <glyph glyph-name="CR" unicode="&#xd;" horiz-adv-x="0" 
 />
    <glyph glyph-name="space" unicode=" " horiz-adv-x="250" 
 />
    <glyph glyph-name="exclam" unicode="!" horiz-adv-x="276" 
d="M138 45c11 0 23 -10 23 -26c0 -14 -11 -25 -23 -25s-23 11 -23 25c0 16 11 26 23 26zM149 708v-513h-22v513h22z" />
    <glyph glyph-name="quotedbl" unicode="&#x22;" horiz-adv-x="404" 
d="M141 480h-22v228h22v-228zM285 480h-22v228h22v-228z" />
    <glyph glyph-name="numbersign" unicode="#" horiz-adv-x="550" 
d="M492 453h-114l-26 -196h112v-17h-114l-30 -240h-19l30 240h-172l-30 -240h-19l30 240h-111v17h113l27 196h-111v17h113l30 238h19l-31 -238h172l31 238h19l-31 -238h112v-17zM359 453h-171l-26 -196h171z" />
    <glyph glyph-name="dollar" unicode="$" horiz-adv-x="560" 
d="M277 -13v-71h-22v71c-83 3 -152 35 -200 89l17 15c48 -53 117 -83 183 -85v343c-110 35 -187 77 -187 191c0 105 79 169 187 180v72h22v-71c77 0 147 -24 191 -78l-17 -15c-37 46 -100 74 -174 74v-338c114 -37 204 -75 204 -191c0 -115 -89 -181 -204 -186zM277 6
c99 4 182 63 182 168c0 103 -91 140 -182 169v-337zM255 371v329c-85 -9 -165 -63 -165 -161c0 -103 81 -141 165 -168z" />
    <glyph glyph-name="percent" unicode="%" horiz-adv-x="820" 
d="M366 556c0 -90 -71 -158 -157 -158s-156 68 -156 158c0 89 70 159 156 159s157 -70 157 -159zM344 556c0 78 -61 140 -135 140s-134 -62 -134 -140c0 -79 60 -139 134 -139s135 60 135 139zM767 150c0 -90 -71 -158 -157 -158s-156 68 -156 158c0 89 70 159 156 159
s157 -70 157 -159zM745 150c0 78 -61 140 -135 140s-134 -62 -134 -140c0 -79 60 -139 134 -139s135 60 135 139zM635 725l-440 -752l-16 11l440 752z" />
    <glyph glyph-name="ampersand" unicode="&#x26;" horiz-adv-x="704" 
d="M646 0h-29l-116 124c-59 -93 -134 -142 -226 -142c-112 0 -200 75 -200 197c0 104 71 159 173 214c-72 80 -94 124 -94 181c0 91 67 152 155 152c84 0 148 -62 148 -140c0 -95 -74 -142 -176 -198l215 -231l115 212h25l-124 -225zM435 582c0 76 -58 126 -128 126
c-72 0 -131 -55 -131 -133c0 -64 35 -110 92 -174c96 51 167 97 167 181zM486 140l-224 238c-87 -43 -165 -102 -165 -199c0 -109 83 -178 183 -178c85 0 159 55 206 139z" />
    <glyph glyph-name="quotesingle" unicode="'" horiz-adv-x="260" 
d="M141 480h-22v228h22v-228z" />
    <glyph glyph-name="parenleft" unicode="(" horiz-adv-x="300" 
d="M74 288c0 159 48 325 129 444l20 -10c-79 -110 -127 -289 -127 -434s48 -324 127 -434l-20 -10c-81 119 -129 285 -129 444z" />
    <glyph glyph-name="parenright" unicode=")" horiz-adv-x="300" 
d="M224 288c0 -159 -48 -325 -129 -444l-20 10c79 110 127 289 127 434s-48 324 -127 434l20 10c81 -119 129 -285 129 -444z" />
    <glyph glyph-name="asterisk" unicode="*" horiz-adv-x="444" 
d="M231 537l163 52l6 -17l-165 -50l102 -142l-14 -10l-101 143l-101 -143l-14 10l102 142l-165 50l6 17l163 -52v171h18v-171z" />
    <glyph glyph-name="plus" unicode="+" horiz-adv-x="666" 
d="M345 295v-230h-21v230h-224v19h224v230h21v-230h221v-19h-221z" />
    <glyph glyph-name="comma" unicode="," horiz-adv-x="240" 
d="M152 90l-64 -228h-17l57 228h24z" />
    <glyph glyph-name="hyphen" unicode="-" horiz-adv-x="300" 
d="M240 244h-180v20h180v-20z" />
    <glyph glyph-name="period" unicode="." horiz-adv-x="240" 
d="M120 -6c-12 0 -23 10 -23 26c0 14 11 25 23 25s23 -11 23 -25c0 -16 -12 -26 -23 -26z" />
    <glyph glyph-name="slash" unicode="/" horiz-adv-x="370" 
d="M349 722l-307 -737l-19 7l307 737z" />
    <glyph glyph-name="zero" unicode="0" horiz-adv-x="560" 
d="M280 -12c-182 0 -220 203 -220 366s38 366 220 366s220 -203 220 -366s-38 -366 -220 -366zM280 700c-181 0 -198 -240 -198 -346s17 -346 198 -346s198 240 198 346s-17 346 -198 346z" />
    <glyph glyph-name="one" unicode="1" horiz-adv-x="560" 
d="M312 0h-22v682l-134 -114l-13 17l147 123h22v-708z" />
    <glyph glyph-name="two" unicode="2" horiz-adv-x="560" 
d="M460 0h-397v26l247 290c74 86 122 153 122 225c0 99 -69 160 -160 160c-77 0 -140 -42 -164 -121l-21 7c25 85 97 133 185 133c108 0 182 -75 182 -172c0 -88 -47 -149 -136 -254l-232 -273h374v-21z" />
    <glyph glyph-name="three" unicode="3" horiz-adv-x="560" 
d="M465 186c0 -103 -61 -198 -203 -198c-90 0 -165 45 -199 113l21 9c29 -61 99 -100 178 -102c118 -3 181 80 181 179c0 123 -117 175 -203 175h-22v20h22c85 0 178 49 178 165c0 93 -67 154 -156 154c-58 0 -116 -27 -147 -73l-18 12c35 49 93 80 165 80
c101 0 177 -67 177 -173c0 -80 -44 -156 -149 -173v-2c121 -19 175 -100 175 -186z" />
    <glyph glyph-name="four" unicode="4" horiz-adv-x="560" 
d="M514 184h-118v-184h-22v184h-331v27l319 497h34v-504h118v-20zM374 204v480h-3l-308 -480h311z" />
    <glyph glyph-name="five" unicode="5" horiz-adv-x="560" 
d="M476 215c0 -149 -108 -227 -215 -227c-91 0 -152 39 -192 94l18 14c37 -54 93 -88 174 -88c93 0 193 69 193 207c0 116 -75 204 -205 204c-46 0 -92 -15 -131 -36l5 325h323v-20h-301l-6 -275c37 19 83 25 119 25c135 0 218 -95 218 -223z" />
    <glyph glyph-name="six" unicode="6" horiz-adv-x="560" 
d="M70 201c0 52 16 109 60 185l187 322h26l-213 -360l2 -1c34 42 94 70 156 70c114 0 202 -92 202 -216c0 -123 -88 -213 -211 -213s-209 88 -209 213zM92 201c0 -112 78 -194 188 -194s188 82 188 194s-77 197 -183 197c-104 0 -193 -85 -193 -197z" />
    <glyph glyph-name="seven" unicode="7" horiz-adv-x="560" 
d="M459 708v-27l-295 -681h-24l300 688h-364v20h383z" />
    <glyph glyph-name="eight" unicode="8" horiz-adv-x="560" 
d="M489 188c0 -122 -89 -200 -209 -200s-209 78 -209 200c0 82 47 163 149 191v2c-84 32 -122 101 -122 166c0 103 78 173 182 173s182 -70 182 -173c0 -65 -39 -136 -122 -166v-2c105 -32 149 -109 149 -191zM441 547c0 92 -71 154 -161 154s-161 -62 -161 -154
c0 -84 67 -159 161 -159s161 75 161 159zM467 188c0 107 -84 183 -187 183s-187 -76 -187 -183c0 -102 74 -181 187 -181s187 79 187 181z" />
    <glyph glyph-name="nine" unicode="9" horiz-adv-x="560" 
d="M490 509c0 -52 -17 -105 -60 -181l-188 -328h-26l214 366l-2 1c-34 -42 -94 -70 -156 -70c-114 0 -202 88 -202 212c0 123 88 211 211 211s209 -86 209 -211zM468 509c0 112 -78 192 -188 192s-188 -80 -188 -192s77 -193 183 -193c104 0 193 81 193 193z" />
    <glyph glyph-name="colon" unicode=":" horiz-adv-x="280" 
d="M140 409c-12 0 -23 10 -23 26c0 14 11 25 23 25s23 -11 23 -25c0 -16 -12 -26 -23 -26zM140 -6c-12 0 -23 10 -23 26c0 14 11 25 23 25s23 -11 23 -25c0 -16 -12 -26 -23 -26z" />
    <glyph glyph-name="semicolon" unicode=";" horiz-adv-x="280" 
d="M140 409c-12 0 -23 10 -23 26c0 14 11 25 23 25s23 -11 23 -25c0 -16 -12 -26 -23 -26zM162 90l-64 -228h-17l57 228h24z" />
    <glyph glyph-name="less" unicode="&#x3c;" horiz-adv-x="666" 
d="M566 67l-466 224v24l466 224v-20l-454 -216l454 -216v-20z" />
    <glyph glyph-name="equal" unicode="=" horiz-adv-x="666" 
d="M566 380h-466v19h466v-19zM566 209h-466v19h466v-19z" />
    <glyph glyph-name="greater" unicode="&#x3e;" horiz-adv-x="666" 
d="M100 67v20l454 216l-454 216v20l466 -224v-24z" />
    <glyph glyph-name="question" unicode="?" horiz-adv-x="472" 
d="M241 45c11 0 23 -10 23 -26c0 -14 -11 -25 -23 -25s-23 11 -23 25c0 16 11 26 23 26zM250 244v-44h-22v53c0 44 11 91 69 137l34 30c39 37 70 68 70 136c0 97 -72 149 -161 149c-91 0 -152 -60 -166 -144l-21 4c18 104 92 161 189 161c100 0 181 -59 181 -169
c0 -84 -43 -122 -90 -162c-69 -57 -83 -86 -83 -151z" />
    <glyph glyph-name="at" unicode="@" horiz-adv-x="800" 
d="M760 415c0 -145 -70 -255 -195 -255c-50 0 -89 27 -81 89h-2c-22 -40 -67 -89 -135 -89c-80 0 -114 63 -114 127c0 118 78 266 199 266c61 0 98 -36 104 -91h4l20 73h21l-68 -237c-5 -19 -10 -44 -10 -60c0 -42 28 -58 62 -58c122 0 174 116 174 235
c0 168 -139 293 -323 293c-202 0 -347 -168 -347 -353c0 -195 143 -355 352 -355c114 0 217 56 282 133l15 -13c-72 -85 -176 -140 -297 -140c-225 0 -374 168 -374 375c0 208 162 373 369 373c200 0 344 -134 344 -313zM523 432c0 54 -28 101 -91 101
c-112 0 -177 -143 -177 -247c0 -59 31 -106 97 -106c113 0 171 181 171 252z" />
    <glyph glyph-name="A" unicode="A" horiz-adv-x="666" 
d="M648 0h-24l-84 203h-411l-87 -203h-24l307 708h28zM533 222l-195 472l-201 -472h396z" />
    <glyph glyph-name="B" unicode="B" horiz-adv-x="612" 
d="M551 189c0 -151 -128 -189 -228 -189h-217v708h193c108 0 219 -37 219 -167c0 -101 -71 -149 -144 -165v-2c72 -7 177 -59 177 -185zM496 538c0 115 -97 150 -203 150h-165v-305h170c97 0 198 46 198 155zM529 186c0 129 -115 177 -205 177h-196v-343h185
c124 0 216 49 216 166z" />
    <glyph glyph-name="C" unicode="C" horiz-adv-x="724" 
d="M686 87c-59 -72 -159 -107 -253 -107c-212 0 -361 157 -361 374s150 374 361 374c88 0 177 -30 235 -91l-14 -16c-56 60 -146 87 -221 87c-202 0 -339 -157 -339 -354c0 -196 134 -354 339 -354c87 0 182 35 237 102z" />
    <glyph glyph-name="D" unicode="D" horiz-adv-x="770" 
d="M698 354c0 -245 -171 -354 -391 -354h-201v708h201c220 0 391 -108 391 -354zM302 688h-173v-668h173c209 0 373 100 373 334c0 235 -164 334 -373 334z" />
    <glyph glyph-name="E" unicode="E" horiz-adv-x="590" 
d="M534 0h-428v708h412v-20h-391v-311h368v-20h-368v-337h407v-20z" />
    <glyph glyph-name="F" unicode="F" horiz-adv-x="560" 
d="M510 688h-382v-311h355v-20h-355v-357h-22v708h404v-20z" />
    <glyph glyph-name="G" unicode="G" horiz-adv-x="795" 
d="M699 41c-55 -31 -143 -61 -254 -61c-225 0 -373 164 -373 376c0 214 151 372 369 372c96 0 177 -31 238 -82l-16 -16c-54 51 -146 78 -223 78c-209 0 -346 -157 -346 -352s131 -356 353 -356c96 0 169 22 231 53v278h-184v19h205v-309z" />
    <glyph glyph-name="H" unicode="H" horiz-adv-x="732" 
d="M626 0h-22v356h-476v-356h-22v708h22v-332h476v332h22v-708z" />
    <glyph glyph-name="I" unicode="I" horiz-adv-x="234" 
d="M128 0h-22v708h22v-708z" />
    <glyph glyph-name="J" unicode="J" horiz-adv-x="480" 
d="M378 193c0 -130 -62 -211 -181 -211c-83 0 -145 50 -168 111l19 9c26 -60 81 -100 149 -100c114 0 159 82 159 194v512h22v-515z" />
    <glyph glyph-name="K" unicode="K" horiz-adv-x="565" 
d="M128 383h1l356 325h32l-360 -325l378 -383h-31l-375 381h-1v-381h-22v708h22v-325z" />
    <glyph glyph-name="L" unicode="L" horiz-adv-x="498" 
d="M480 0h-374v708h22v-688h352v-20z" />
    <glyph glyph-name="M" unicode="M" horiz-adv-x="906" 
d="M800 0h-22v683h-4l-313 -683h-18l-312 683h-3v-683h-22v708h39l308 -676l308 676h39v-708z" />
    <glyph glyph-name="N" unicode="N" horiz-adv-x="777" 
d="M671 0h-32l-508 680h-3v-680h-22v708h31l509 -679h3v679h22v-708z" />
    <glyph glyph-name="O" unicode="O" horiz-adv-x="872" 
d="M800 354c0 -218 -155 -374 -364 -374s-364 156 -364 374s154 374 364 374s364 -156 364 -374zM778 354c0 197 -141 354 -342 354s-342 -157 -342 -354c0 -196 138 -354 342 -354c205 0 342 158 342 354z" />
    <glyph glyph-name="P" unicode="P" horiz-adv-x="572" 
d="M517 532c0 -120 -94 -184 -206 -184h-183v-348h-22v708h192c102 0 219 -40 219 -176zM495 532c0 119 -101 157 -188 157h-179v-322h184c89 0 183 47 183 165z" />
    <glyph glyph-name="Q" unicode="Q" horiz-adv-x="883" 
d="M800 361c0 -158 -109 -310 -250 -339v-2h288v-20h-404c-198 0 -362 143 -362 361c0 213 154 367 364 367s364 -157 364 -367zM778 361c0 190 -141 347 -342 347s-342 -154 -342 -347c0 -189 142 -341 343 -341c208 0 341 166 341 341z" />
    <glyph glyph-name="R" unicode="R" horiz-adv-x="594" 
d="M533 0h-25l-214 357h-166v-357h-22v708h196c105 0 222 -32 222 -175c0 -132 -113 -174 -206 -175zM502 533c0 124 -104 156 -212 156h-162v-313h173c130 0 201 57 201 157z" />
    <glyph glyph-name="S" unicode="S" horiz-adv-x="570" 
d="M498 170c0 -121 -99 -190 -215 -190c-88 0 -163 34 -211 87l17 15c51 -54 121 -82 193 -82c104 0 194 62 194 170c0 109 -98 145 -192 175c-117 37 -199 78 -199 198c0 118 100 185 218 185c72 0 141 -28 182 -79l-17 -15c-37 47 -98 74 -166 74
c-95 0 -195 -54 -195 -165c0 -110 88 -146 176 -175c120 -39 215 -77 215 -198z" />
    <glyph glyph-name="T" unicode="T" horiz-adv-x="540" 
d="M522 688h-241v-688h-22v688h-241v20h504v-20z" />
    <glyph glyph-name="U" unicode="U" horiz-adv-x="732" 
d="M636 268c0 -160 -70 -288 -270 -288s-270 128 -270 288v440h22v-436c0 -111 33 -272 248 -272c210 0 248 156 248 272v436h22v-440z" />
    <glyph glyph-name="V" unicode="V" horiz-adv-x="606" 
d="M588 708l-270 -708h-34l-266 708h24l258 -688h2l262 688h24z" />
    <glyph glyph-name="W" unicode="W" horiz-adv-x="956" 
d="M928 708l-212 -708h-34l-205 687h-2l-201 -687h-34l-212 708h23l204 -688h3l201 688h34l205 -688h3l204 688h23z" />
    <glyph glyph-name="X" unicode="X" horiz-adv-x="590" 
d="M558 0h-27l-236 354l-237 -354h-26l250 371l-226 337h26l213 -320l213 320h25l-225 -337z" />
    <glyph glyph-name="Y" unicode="Y" horiz-adv-x="538" 
d="M523 708l-243 -398v-310h-22v310l-243 398h26l229 -376l228 376h25z" />
    <glyph glyph-name="Z" unicode="Z" horiz-adv-x="594" 
d="M552 0h-498v27l466 661h-453v20h473v-29l-465 -659h477v-20z" />
    <glyph glyph-name="bracketleft" unicode="[" horiz-adv-x="300" 
d="M220 -156h-140v888h140v-19h-118v-850h118v-19z" />
    <glyph glyph-name="backslash" unicode="\" horiz-adv-x="370" 
d="M23 722l19 7l307 -737l-19 -7z" />
    <glyph glyph-name="bracketright" unicode="]" horiz-adv-x="300" 
d="M80 -156v19h118v850h-118v19h140v-888h-140z" />
    <glyph glyph-name="asciicircum" unicode="^" horiz-adv-x="666" 
d="M97 242l224 466h24l224 -466h-20l-216 454l-216 -454h-20z" />
    <glyph glyph-name="underscore" unicode="_" horiz-adv-x="500" 
d="M500 -114h-500v20h500v-20z" />
    <glyph glyph-name="grave" unicode="`" horiz-adv-x="240" 
d="M20 708h27l103 -144h-19z" />
    <glyph glyph-name="a" unicode="a" horiz-adv-x="512" 
d="M418 104c0 -35 4 -79 8 -104h-21c-4 26 -8 83 -8 110h-3c-26 -84 -100 -124 -174 -124c-75 0 -154 41 -154 132c0 132 154 152 250 152h80v37c0 102 -60 148 -148 148c-54 0 -103 -22 -140 -55l-12 17c42 37 100 57 152 57c105 0 170 -53 170 -168v-202zM396 207v44h-71
c-102 0 -237 -16 -237 -133c0 -84 75 -113 132 -113c137 0 176 112 176 202z" />
    <glyph glyph-name="b" unicode="b" horiz-adv-x="626" 
d="M127 335c40 91 120 139 207 139c137 0 230 -103 230 -245c0 -139 -96 -243 -230 -243c-87 0 -172 48 -207 138h-3v-124h-22v756h22v-421h3zM542 229c0 121 -81 226 -208 226c-122 0 -211 -102 -211 -225c0 -122 89 -225 211 -225c127 0 208 103 208 224z" />
    <glyph glyph-name="c" unicode="c" horiz-adv-x="480" 
d="M447 413l-17 -15c-35 36 -84 57 -134 57c-130 0 -212 -105 -212 -226s82 -224 212 -224c51 0 102 18 138 52l15 -14c-40 -40 -98 -57 -153 -57c-135 0 -234 101 -234 243s99 245 234 245c58 0 114 -23 151 -61z" />
    <glyph glyph-name="d" unicode="d" horiz-adv-x="626" 
d="M502 335v421h22v-756h-22v124h-3c-40 -90 -120 -138 -207 -138c-134 0 -230 104 -230 243s96 245 230 245c87 0 167 -48 207 -139h3zM84 229c0 -121 81 -224 208 -224c122 0 211 103 211 225c0 123 -89 225 -211 225c-127 0 -208 -105 -208 -226z" />
    <glyph glyph-name="e" unicode="e" horiz-adv-x="556" 
d="M494 235h-410c0 -111 66 -229 207 -229c71 0 128 30 169 84l16 -14c-45 -58 -106 -90 -185 -90c-136 0 -229 104 -229 249c0 140 96 239 219 239c144 0 213 -111 213 -220v-19zM473 254c-3 120 -79 201 -193 201c-139 0 -195 -132 -195 -201h388z" />
    <glyph glyph-name="f" unicode="f" horiz-adv-x="282" 
d="M286 762l-4 -17c-13 3 -26 5 -41 5c-73 0 -98 -63 -98 -124v-166h125v-19h-125v-441h-22v441h-97v19h96v165c0 113 65 143 120 143c19 0 33 -2 46 -6z" />
    <glyph glyph-name="g" unicode="g" horiz-adv-x="626" 
d="M502 28v96h-3c-35 -90 -120 -138 -207 -138c-134 0 -230 104 -230 243s96 245 230 245c87 0 167 -48 207 -139h3v125h22v-434c0 -146 -57 -276 -227 -276c-86 0 -155 32 -203 86l15 15c50 -57 118 -82 188 -82c161 0 205 126 205 259zM84 229c0 -121 81 -225 208 -225
c122 0 211 104 211 226c0 123 -89 225 -211 225c-127 0 -208 -105 -208 -226z" />
    <glyph glyph-name="h" unicode="h" horiz-adv-x="569" 
d="M124 339h2c27 86 102 135 181 135c128 0 166 -100 166 -196v-278h-22v276c0 76 -28 179 -144 179c-101 0 -183 -84 -183 -225v-230h-22v756h22v-417z" />
    <glyph glyph-name="i" unicode="i" horiz-adv-x="226" 
d="M113 633c-12 0 -23 10 -23 26c0 14 11 25 23 25s23 -11 23 -25c0 -16 -12 -26 -23 -26zM124 0h-22v460h22v-460z" />
    <glyph glyph-name="j" unicode="j" horiz-adv-x="226" 
d="M124 -97c0 -94 -21 -144 -112 -144c-9 0 -21 1 -29 3l4 19c9 -2 17 -3 25 -3c85 0 90 64 90 123v559h22v-557zM113 633c-12 0 -23 10 -23 26c0 14 11 25 23 25s23 -11 23 -25c0 -16 -12 -26 -23 -26z" />
    <glyph glyph-name="k" unicode="k" horiz-adv-x="445" 
d="M124 248h1l238 212h31l-243 -213l271 -247h-33l-264 243h-1v-243h-22v756h22v-508z" />
    <glyph glyph-name="l" unicode="l" horiz-adv-x="226" 
d="M124 0h-22v756h22v-756z" />
    <glyph glyph-name="m" unicode="m" horiz-adv-x="889" 
d="M452 333h2c26 90 96 141 177 141c124 0 162 -100 162 -196v-278h-22v276c0 76 -30 179 -140 179c-95 0 -174 -84 -174 -225v-230h-22v276c0 76 -25 179 -135 179c-95 0 -173 -84 -173 -225v-230h-22v344c0 29 -2 90 -5 116h22c2 -26 4 -87 4 -121h2c27 86 98 135 172 135
c96 0 138 -62 152 -141z" />
    <glyph glyph-name="n" unicode="n" horiz-adv-x="572" 
d="M128 339c28 86 103 135 182 135c128 0 166 -100 166 -196v-278h-22v276c0 76 -28 179 -144 179c-101 0 -183 -84 -183 -225v-230h-22v344c0 29 -2 90 -5 116h22c2 -26 4 -87 4 -121h2z" />
    <glyph glyph-name="o" unicode="o" horiz-adv-x="605" 
d="M543 231c0 -143 -99 -245 -241 -245c-141 0 -240 102 -240 245s99 243 240 243c142 0 241 -100 241 -243zM521 231c0 124 -84 224 -219 224s-218 -100 -218 -224s83 -226 218 -226s219 102 219 226z" />
    <glyph glyph-name="p" unicode="p" horiz-adv-x="626" 
d="M124 335h3c40 91 120 139 207 139c137 0 230 -103 230 -245c0 -139 -96 -243 -230 -243c-87 0 -172 48 -207 138h-3v-364h-22v700h22v-125zM542 229c0 121 -81 226 -208 226c-122 0 -211 -102 -211 -225c0 -122 89 -225 211 -225c127 0 208 103 208 224z" />
    <glyph glyph-name="q" unicode="q" horiz-adv-x="626" 
d="M502 335v125h22v-700h-22v364h-3c-35 -90 -120 -138 -207 -138c-134 0 -230 104 -230 243c0 142 93 245 230 245c87 0 167 -48 207 -139h3zM84 229c0 -121 81 -224 208 -224c122 0 211 103 211 225c0 123 -89 225 -211 225c-127 0 -208 -105 -208 -226z" />
    <glyph glyph-name="r" unicode="r" horiz-adv-x="317" 
d="M128 339c26 95 91 135 159 135c6 0 12 0 18 -1v-19c-5 1 -10 1 -13 1c-116 0 -165 -116 -165 -217v-238h-22v344c0 29 -2 90 -5 116h22c2 -26 4 -87 4 -121h2z" />
    <glyph glyph-name="s" unicode="s" horiz-adv-x="415" 
d="M361 120c0 -82 -68 -132 -150 -132c-68 0 -125 27 -161 77l18 12c33 -46 81 -70 144 -70c59 0 127 38 127 111c0 85 -87 100 -149 117c-67 18 -121 41 -121 121c0 79 71 118 141 118c62 0 110 -23 141 -67l-19 -11c-30 40 -68 59 -122 59c-50 0 -119 -25 -119 -98
c0 -79 53 -90 130 -110c73 -19 140 -45 140 -127z" />
    <glyph glyph-name="t" unicode="t" horiz-adv-x="304" 
d="M280 -1c-16 -6 -39 -11 -59 -11c-72 0 -101 46 -101 107v346h-100v19h99v135h23v-135h135v-19h-135v-346c0 -62 34 -88 84 -88c17 0 36 3 51 9z" />
    <glyph glyph-name="u" unicode="u" horiz-adv-x="572" 
d="M442 121c-28 -86 -103 -135 -182 -135c-128 0 -166 100 -166 196v278h22v-276c0 -76 28 -179 144 -179c101 0 183 84 183 225v230h22v-344c0 -29 2 -90 5 -116h-22c-2 26 -4 87 -4 121h-2z" />
    <glyph glyph-name="v" unicode="v" horiz-adv-x="434" 
d="M410 460l-176 -460h-29l-181 460h24l171 -438h2l165 438h24z" />
    <glyph glyph-name="w" unicode="w" horiz-adv-x="698" 
d="M664 460l-135 -460h-30l-150 436h-2l-149 -436h-30l-134 460h23l126 -438h2l148 438h31l149 -438h2l126 438h23z" />
    <glyph glyph-name="x" unicode="x" horiz-adv-x="452" 
d="M395 0l-171 228l-168 -228h-28l182 243l-159 217h28l146 -202l145 202h29l-160 -217l185 -243h-29z" />
    <glyph glyph-name="y" unicode="y" horiz-adv-x="428" 
d="M404 460l-228 -612c-21 -57 -55 -90 -111 -90c-12 0 -31 3 -41 7l6 19c8 -3 24 -6 37 -6c56 0 80 47 95 89l44 120l-182 473h24l169 -448l163 448h24z" />
    <glyph glyph-name="z" unicode="z" horiz-adv-x="438" 
d="M387 0h-338v21l304 420h-288v19h310v-22l-301 -419h313v-19z" />
    <glyph glyph-name="braceleft" unicode="{" horiz-adv-x="300" 
d="M0 279v18c44 0 77 22 77 115v195c0 94 45 125 106 125h47v-19h-47c-58 0 -84 -39 -84 -106v-196c0 -84 -28 -115 -67 -122v-2c39 -7 67 -38 67 -122v-196c0 -67 26 -106 84 -106h47v-19h-47c-61 0 -106 31 -106 125v195c0 93 -33 115 -77 115z" />
    <glyph glyph-name="bar" unicode="|" horiz-adv-x="222" 
d="M100 750h22v-1000h-22v1000z" />
    <glyph glyph-name="braceright" unicode="}" horiz-adv-x="300" 
d="M300 279c-44 0 -77 -22 -77 -115v-195c0 -94 -45 -125 -106 -125h-47v19h47c58 0 84 39 84 106v196c0 84 28 115 67 122v2c-39 7 -67 38 -67 122v196c0 67 -26 106 -84 106h-47v19h47c61 0 106 -31 106 -125v-195c0 -93 33 -115 77 -115v-18z" />
    <glyph glyph-name="asciitilde" unicode="~" horiz-adv-x="666" 
d="M93 264c43 73 86 93 132 93c37 0 64 -10 100 -35c59 -41 91 -50 119 -50c53 0 88 40 116 85l15 -16c-40 -62 -86 -90 -131 -90s-68 13 -101 35c-59 39 -79 50 -116 50c-54 0 -88 -33 -117 -86z" />
    <glyph glyph-name="uni00A0" unicode="&#xa0;" horiz-adv-x="250" 
 />
    <glyph glyph-name="Agrave" unicode="&#xc0;" horiz-adv-x="666" 
d="M648 0h-24l-84 203h-411l-87 -203h-24l307 708h28zM533 222l-195 472l-201 -472h396zM221 908h27l103 -144h-19z" />
    <glyph glyph-name="Aacute" unicode="&#xc1;" horiz-adv-x="666" 
d="M648 0h-24l-84 203h-411l-87 -203h-24l307 708h28zM533 222l-195 472l-201 -472h396zM455 908l-111 -144h-19l103 144h27z" />
    <glyph glyph-name="Acircumflex" unicode="&#xc2;" horiz-adv-x="666" 
d="M648 0h-24l-84 203h-411l-87 -203h-24l307 708h28zM533 222l-195 472l-201 -472h396zM324 908h28l103 -144h-23l-94 132l-94 -132h-23z" />
    <glyph glyph-name="Atilde" unicode="&#xc3;" horiz-adv-x="666" 
d="M648 0h-24l-84 203h-411l-87 -203h-24l307 708h28zM533 222l-195 472l-201 -472h396zM342 838c36 -22 44 -24 59 -24c23 0 35 15 40 48h16c-5 -48 -29 -67 -56 -67c-21 0 -34 5 -64 24c-34 22 -44 24 -59 24c-23 0 -35 -18 -40 -51h-16c5 48 29 70 56 70
c21 0 35 -6 64 -24z" />
    <glyph glyph-name="Adieresis" unicode="&#xc4;" horiz-adv-x="666" 
d="M648 0h-24l-84 203h-411l-87 -203h-24l307 708h28zM533 222l-195 472l-201 -472h396zM261 833c-12 0 -23 10 -23 26c0 14 11 25 23 25s23 -11 23 -25c0 -16 -12 -26 -23 -26zM415 833c-12 0 -23 10 -23 26c0 14 11 25 23 25s23 -11 23 -25c0 -16 -12 -26 -23 -26z" />
    <glyph glyph-name="Amacron" unicode="&#x100;" horiz-adv-x="666" 
d="M648 0h-24l-84 203h-411l-87 -203h-24l307 708h28zM533 222l-195 472l-201 -472h396zM454 821h-232v20h232v-20z" />
    <glyph glyph-name="Abreve" unicode="&#x102;" horiz-adv-x="666" 
d="M648 0h-24l-84 203h-411l-87 -203h-24l307 708h28zM533 222l-195 472l-201 -472h396zM464 898c-13 -81 -61 -126 -127 -126c-65 0 -114 45 -124 126h19c13 -69 53 -106 105 -106c59 0 93 32 109 106h18z" />
    <glyph glyph-name="Aring" unicode="&#xc5;" horiz-adv-x="666" 
d="M648 0h-24l-84 203h-411l-87 -203h-24l307 708h28zM533 222l-195 472l-201 -472h396zM434 850c0 -54 -44 -95 -96 -95s-96 41 -96 95s44 95 96 95s96 -41 96 -95zM415 850c0 43 -34 78 -77 78s-77 -35 -77 -78s34 -78 77 -78s77 35 77 78z" />
    <glyph glyph-name="Aogonek" unicode="&#x104;" horiz-adv-x="666" 
d="M689 -176l10 -16c-21 -19 -51 -31 -82 -31c-47 0 -84 29 -84 80c0 52 44 97 92 143h-1l-84 203h-411l-87 -203h-24l307 708h28l295 -708c-61 -61 -93 -96 -93 -141c0 -40 26 -64 65 -64c27 0 53 12 69 29zM533 222l-195 472l-201 -472h396z" />
    <glyph glyph-name="AE" unicode="&#xc6;" horiz-adv-x="968" 
d="M912 0h-421v206h-324l-135 -206h-26l460 708h429v-20h-382v-311h358v-20h-358v-337h399v-20zM491 226v462h-13l-298 -462h311z" />
    <glyph glyph-name="Cacute" unicode="&#x106;" horiz-adv-x="724" 
d="M686 87c-59 -72 -159 -107 -253 -107c-212 0 -361 157 -361 374s150 374 361 374c88 0 177 -30 235 -91l-14 -16c-56 60 -146 87 -221 87c-202 0 -339 -157 -339 -354c0 -196 134 -354 339 -354c87 0 182 35 237 102zM522 908l-111 -144h-19l103 144h27z" />
    <glyph glyph-name="Ccircumflex" unicode="&#x108;" horiz-adv-x="724" 
d="M686 87c-59 -72 -159 -107 -253 -107c-212 0 -361 157 -361 374s150 374 361 374c88 0 177 -30 235 -91l-14 -16c-56 60 -146 87 -221 87c-202 0 -339 -157 -339 -354c0 -196 134 -354 339 -354c87 0 182 35 237 102zM419 908h28l103 -144h-23l-94 132l-94 -132h-23z" />
    <glyph glyph-name="Ccaron" unicode="&#x10c;" horiz-adv-x="724" 
d="M686 87c-59 -72 -159 -107 -253 -107c-212 0 -361 157 -361 374s150 374 361 374c88 0 177 -30 235 -91l-14 -16c-56 60 -146 87 -221 87c-202 0 -339 -157 -339 -354c0 -196 134 -354 339 -354c87 0 182 35 237 102zM447 764h-28l-103 144h23l94 -132l94 132h23z" />
    <glyph glyph-name="Cdotaccent" unicode="&#x10a;" horiz-adv-x="724" 
d="M686 87c-59 -72 -159 -107 -253 -107c-212 0 -361 157 -361 374s150 374 361 374c88 0 177 -30 235 -91l-14 -16c-56 60 -146 87 -221 87c-202 0 -339 -157 -339 -354c0 -196 134 -354 339 -354c87 0 182 35 237 102zM432 833c-12 0 -23 10 -23 26c0 14 11 25 23 25
s23 -11 23 -25c0 -16 -12 -26 -23 -26z" />
    <glyph glyph-name="Ccedilla" unicode="&#xc7;" horiz-adv-x="724" 
d="M535 -146c0 -64 -69 -80 -112 -80c-25 0 -61 7 -90 20l5 17c25 -13 62 -18 86 -18c39 0 90 11 90 61c0 42 -40 51 -72 51c-18 0 -53 -6 -69 -15l-10 9l55 82c-204 7 -346 161 -346 373c0 217 150 374 361 374c88 0 177 -30 235 -91l-14 -16c-56 60 -146 87 -221 87
c-202 0 -339 -157 -339 -354c0 -196 134 -354 339 -354c87 0 182 35 237 102l16 -15c-58 -71 -155 -105 -247 -107l-45 -66c19 6 35 8 54 8c40 0 87 -16 87 -68z" />
    <glyph glyph-name="Dcaron" unicode="&#x10e;" horiz-adv-x="770" 
d="M698 354c0 -245 -171 -354 -391 -354h-201v708h201c220 0 391 -108 391 -354zM302 688h-173v-668h173c209 0 373 100 373 334c0 235 -164 334 -373 334zM369 764h-28l-103 144h23l94 -132l94 132h23z" />
    <glyph glyph-name="Dcroat" unicode="&#x110;" horiz-adv-x="770" 
d="M106 358h-80v20h80v330h201c220 0 391 -108 391 -354c0 -245 -171 -354 -391 -354h-201v358zM129 378h268v-20h-268v-338h173c209 0 373 100 373 334c0 235 -164 334 -373 334h-173v-310z" />
    <glyph glyph-name="Eth" unicode="&#xd0;" horiz-adv-x="770" 
d="M106 358h-80v20h80v330h201c220 0 391 -108 391 -354c0 -245 -171 -354 -391 -354h-201v358zM129 378h268v-20h-268v-338h173c209 0 373 100 373 334c0 235 -164 334 -373 334h-173v-310z" />
    <glyph glyph-name="Egrave" unicode="&#xc8;" horiz-adv-x="590" 
d="M534 0h-428v708h412v-20h-391v-311h368v-20h-368v-337h407v-20zM206 908h27l103 -144h-19z" />
    <glyph glyph-name="Eacute" unicode="&#xc9;" horiz-adv-x="590" 
d="M534 0h-428v708h412v-20h-391v-311h368v-20h-368v-337h407v-20zM417 908l-111 -144h-19l103 144h27z" />
    <glyph glyph-name="Ecircumflex" unicode="&#xca;" horiz-adv-x="590" 
d="M534 0h-428v708h412v-20h-391v-311h368v-20h-368v-337h407v-20zM301 908h28l103 -144h-23l-94 132l-94 -132h-23z" />
    <glyph glyph-name="Ecaron" unicode="&#x11a;" horiz-adv-x="590" 
d="M534 0h-428v708h412v-20h-391v-311h368v-20h-368v-337h407v-20zM329 764h-28l-103 144h23l94 -132l94 132h23z" />
    <glyph glyph-name="Edieresis" unicode="&#xcb;" horiz-adv-x="590" 
d="M534 0h-428v708h412v-20h-391v-311h368v-20h-368v-337h407v-20zM238 833c-12 0 -23 10 -23 26c0 14 11 25 23 25s23 -11 23 -25c0 -16 -12 -26 -23 -26zM392 833c-12 0 -23 10 -23 26c0 14 11 25 23 25s23 -11 23 -25c0 -16 -12 -26 -23 -26z" />
    <glyph glyph-name="Emacron" unicode="&#x112;" horiz-adv-x="590" 
d="M534 0h-428v708h412v-20h-391v-311h368v-20h-368v-337h407v-20zM431 821h-232v20h232v-20z" />
    <glyph glyph-name="Ebreve" unicode="&#x114;" horiz-adv-x="590" 
d="M534 0h-428v708h412v-20h-391v-311h368v-20h-368v-337h407v-20zM441 898c-13 -81 -61 -126 -127 -126c-65 0 -114 45 -124 126h19c13 -69 53 -106 105 -106c59 0 93 32 109 106h18z" />
    <glyph glyph-name="Edotaccent" unicode="&#x116;" horiz-adv-x="590" 
d="M534 0h-428v708h412v-20h-391v-311h368v-20h-368v-337h407v-20zM315 833c-12 0 -23 10 -23 26c0 14 11 25 23 25s23 -11 23 -25c0 -16 -12 -26 -23 -26z" />
    <glyph glyph-name="Eogonek" unicode="&#x118;" horiz-adv-x="590" 
d="M561 -176l10 -16c-21 -19 -51 -31 -82 -31c-47 0 -84 29 -84 80c0 52 44 97 92 143h-391v708h412v-20h-391v-311h368v-20h-368v-337h407v-20h-14c-61 -61 -93 -96 -93 -141c0 -40 26 -64 65 -64c27 0 53 12 69 29z" />
    <glyph glyph-name="Gcircumflex" unicode="&#x11c;" horiz-adv-x="795" 
d="M699 41c-55 -31 -143 -61 -254 -61c-225 0 -373 164 -373 376c0 214 151 372 369 372c96 0 177 -31 238 -82l-16 -16c-54 51 -146 78 -223 78c-209 0 -346 -157 -346 -352s131 -356 353 -356c96 0 169 22 231 53v278h-184v19h205v-309zM421 908h28l103 -144h-23l-94 132
l-94 -132h-23z" />
    <glyph glyph-name="Gbreve" unicode="&#x11e;" horiz-adv-x="795" 
d="M699 41c-55 -31 -143 -61 -254 -61c-225 0 -373 164 -373 376c0 214 151 372 369 372c96 0 177 -31 238 -82l-16 -16c-54 51 -146 78 -223 78c-209 0 -346 -157 -346 -352s131 -356 353 -356c96 0 169 22 231 53v278h-184v19h205v-309zM563 898
c-13 -81 -61 -126 -127 -126c-65 0 -114 45 -124 126h19c13 -69 53 -106 105 -106c59 0 93 32 109 106h18z" />
    <glyph glyph-name="Gdotaccent" unicode="&#x120;" horiz-adv-x="795" 
d="M699 41c-55 -31 -143 -61 -254 -61c-225 0 -373 164 -373 376c0 214 151 372 369 372c96 0 177 -31 238 -82l-16 -16c-54 51 -146 78 -223 78c-209 0 -346 -157 -346 -352s131 -356 353 -356c96 0 169 22 231 53v278h-184v19h205v-309zM434 833c-12 0 -23 10 -23 26
c0 14 11 25 23 25s23 -11 23 -25c0 -16 -12 -26 -23 -26z" />
    <glyph glyph-name="Gcommaaccent" unicode="&#x122;" horiz-adv-x="795" 
d="M699 41c-55 -31 -143 -61 -254 -61c-225 0 -373 164 -373 376c0 214 151 372 369 372c96 0 177 -31 238 -82l-16 -16c-54 51 -146 78 -223 78c-209 0 -346 -157 -346 -352s131 -356 353 -356c96 0 169 22 231 53v278h-184v19h205v-309zM461 -45l-58 -185h-17l51 185h24z
" />
    <glyph glyph-name="Hcircumflex" unicode="&#x124;" horiz-adv-x="732" 
d="M626 0h-22v356h-476v-356h-22v708h22v-332h476v332h22v-708zM353 908h28l103 -144h-23l-94 132l-94 -132h-23z" />
    <glyph glyph-name="Hbar" unicode="&#x126;" horiz-adv-x="732" 
d="M626 0h-22v356h-476v-356h-22v708h22v-190h476v190h22v-708zM128 376h476v124h-476v-124z" />
    <glyph glyph-name="Igrave" unicode="&#xcc;" horiz-adv-x="234" 
d="M128 0h-22v708h22v-708zM-1 908h27l103 -144h-19z" />
    <glyph glyph-name="Iacute" unicode="&#xcd;" horiz-adv-x="234" 
d="M128 0h-22v708h22v-708zM234 908l-111 -144h-19l103 144h27z" />
    <glyph glyph-name="Icircumflex" unicode="&#xce;" horiz-adv-x="234" 
d="M128 0h-22v708h22v-708zM102 908h28l103 -144h-23l-94 132l-94 -132h-23z" />
    <glyph glyph-name="Itilde" unicode="&#x128;" horiz-adv-x="234" 
d="M128 0h-22v708h22v-708zM121 838c36 -22 44 -24 59 -24c23 0 35 15 40 48h16c-5 -48 -29 -67 -56 -67c-21 0 -34 5 -64 24c-34 22 -44 24 -59 24c-23 0 -35 -18 -40 -51h-16c5 48 29 70 56 70c21 0 35 -6 64 -24z" />
    <glyph glyph-name="Idieresis" unicode="&#xcf;" horiz-adv-x="234" 
d="M128 0h-22v708h22v-708zM40 833c-12 0 -23 10 -23 26c0 14 11 25 23 25s23 -11 23 -25c0 -16 -12 -26 -23 -26zM194 833c-12 0 -23 10 -23 26c0 14 11 25 23 25s23 -11 23 -25c0 -16 -12 -26 -23 -26z" />
    <glyph glyph-name="Imacron" unicode="&#x12a;" horiz-adv-x="234" 
d="M128 0h-22v708h22v-708zM234 821h-232v20h232v-20z" />
    <glyph glyph-name="Idotaccent" unicode="&#x130;" horiz-adv-x="234" 
d="M128 0h-22v708h22v-708zM117 833c-12 0 -23 10 -23 26c0 14 11 25 23 25s23 -11 23 -25c0 -16 -12 -26 -23 -26z" />
    <glyph glyph-name="Ibreve" unicode="&#x12c;" horiz-adv-x="234" 
d="M128 0h-22v708h22v-708zM243 898c-13 -81 -61 -126 -127 -126c-65 0 -114 45 -124 126h19c13 -69 53 -106 105 -106c59 0 93 32 109 106h18z" />
    <glyph glyph-name="Iogonek" unicode="&#x12e;" horiz-adv-x="234" 
d="M169 -176l10 -16c-21 -19 -51 -31 -82 -31c-47 0 -84 29 -84 80c0 52 44 97 92 143h1v708h22v-708c-61 -61 -93 -96 -93 -141c0 -40 26 -64 65 -64c27 0 53 12 69 29z" />
    <glyph glyph-name="Jcircumflex" unicode="&#x134;" horiz-adv-x="480" 
d="M378 193c0 -130 -62 -211 -181 -211c-83 0 -145 50 -168 111l19 9c26 -60 81 -100 149 -100c114 0 159 82 159 194v512h22v-515zM351 908h28l103 -144h-23l-94 132l-94 -132h-23z" />
    <glyph glyph-name="Kcommaaccent" unicode="&#x136;" horiz-adv-x="565" 
d="M128 383h1l356 325h32l-360 -325l378 -383h-31l-375 381h-1v-381h-22v708h22v-325zM323 -45l-58 -185h-17l51 185h24z" />
    <glyph glyph-name="Lacute" unicode="&#x139;" horiz-adv-x="498" 
d="M480 0h-374v708h22v-688h352v-20zM236 908l-111 -144h-19l103 144h27z" />
    <glyph glyph-name="Lcaron" unicode="&#x13d;" horiz-adv-x="498" 
d="M480 0h-374v708h22v-688h352v-20zM284 708l-58 -185h-17l51 185h24z" />
    <glyph glyph-name="Lcommaaccent" unicode="&#x13b;" horiz-adv-x="498" 
d="M480 0h-374v708h22v-688h352v-20zM308 -45l-58 -185h-17l51 185h24z" />
    <glyph glyph-name="Lslash" unicode="&#x141;" horiz-adv-x="498" 
d="M106 258l-65 -60v27l65 60v423h22v-406l207 186v-24l-207 -189v-255h352v-20h-374v258z" />
    <glyph glyph-name="Ldot" unicode="&#x13f;" horiz-adv-x="498" 
d="M480 0h-374v708h22v-688h352v-20zM281 413c-12 0 -23 10 -23 26c0 14 11 25 23 25s23 -11 23 -25c0 -16 -12 -26 -23 -26z" />
    <glyph glyph-name="Nacute" unicode="&#x143;" horiz-adv-x="777" 
d="M671 0h-32l-508 680h-3v-680h-22v708h31l509 -679h3v679h22v-708zM497 908l-111 -144h-19l103 144h27z" />
    <glyph glyph-name="Ncaron" unicode="&#x147;" horiz-adv-x="777" 
d="M671 0h-32l-508 680h-3v-680h-22v708h31l509 -679h3v679h22v-708zM402 764h-28l-103 144h23l94 -132l94 132h23z" />
    <glyph glyph-name="Ntilde" unicode="&#xd1;" horiz-adv-x="777" 
d="M671 0h-32l-508 680h-3v-680h-22v708h31l509 -679h3v679h22v-708zM395 838c36 -22 44 -24 59 -24c23 0 35 15 40 48h16c-5 -48 -29 -67 -56 -67c-21 0 -34 5 -64 24c-34 22 -44 24 -59 24c-23 0 -35 -18 -40 -51h-16c5 48 29 70 56 70c21 0 35 -6 64 -24z" />
    <glyph glyph-name="Ncommaaccent" unicode="&#x145;" horiz-adv-x="777" 
d="M671 0h-32l-508 680h-3v-680h-22v708h31l509 -679h3v679h22v-708zM402 -45l-58 -185h-17l51 185h24z" />
    <glyph glyph-name="Eng" unicode="&#x14a;" horiz-adv-x="777" 
d="M671 -97c0 -94 -21 -144 -112 -144c-9 0 -21 1 -29 3l4 19c9 -2 17 -3 25 -3c85 0 90 64 90 123v89l-518 690h-3v-680h-22v708h31l510 -677h2v677h22v-805z" />
    <glyph glyph-name="Ograve" unicode="&#xd2;" horiz-adv-x="872" 
d="M800 354c0 -218 -155 -374 -364 -374s-364 156 -364 374s154 374 364 374s364 -156 364 -374zM778 354c0 197 -141 354 -342 354s-342 -157 -342 -354c0 -196 138 -354 342 -354c205 0 342 158 342 354zM342 908h27l103 -144h-19z" />
    <glyph glyph-name="Oacute" unicode="&#xd3;" horiz-adv-x="872" 
d="M800 354c0 -218 -155 -374 -364 -374s-364 156 -364 374s154 374 364 374s364 -156 364 -374zM778 354c0 197 -141 354 -342 354s-342 -157 -342 -354c0 -196 138 -354 342 -354c205 0 342 158 342 354zM540 908l-111 -144h-19l103 144h27z" />
    <glyph glyph-name="Ocircumflex" unicode="&#xd4;" horiz-adv-x="872" 
d="M800 354c0 -218 -155 -374 -364 -374s-364 156 -364 374s154 374 364 374s364 -156 364 -374zM778 354c0 197 -141 354 -342 354s-342 -157 -342 -354c0 -196 138 -354 342 -354c205 0 342 158 342 354zM424 908h28l103 -144h-23l-94 132l-94 -132h-23z" />
    <glyph glyph-name="Otilde" unicode="&#xd5;" horiz-adv-x="872" 
d="M800 354c0 -218 -155 -374 -364 -374s-364 156 -364 374s154 374 364 374s364 -156 364 -374zM778 354c0 197 -141 354 -342 354s-342 -157 -342 -354c0 -196 138 -354 342 -354c205 0 342 158 342 354zM441 838c36 -22 44 -24 59 -24c23 0 35 15 40 48h16
c-5 -48 -29 -67 -56 -67c-21 0 -34 5 -64 24c-34 22 -44 24 -59 24c-23 0 -35 -18 -40 -51h-16c5 48 29 70 56 70c21 0 35 -6 64 -24z" />
    <glyph glyph-name="Odieresis" unicode="&#xd6;" horiz-adv-x="872" 
d="M800 354c0 -218 -155 -374 -364 -374s-364 156 -364 374s154 374 364 374s364 -156 364 -374zM778 354c0 197 -141 354 -342 354s-342 -157 -342 -354c0 -196 138 -354 342 -354c205 0 342 158 342 354zM361 833c-12 0 -23 10 -23 26c0 14 11 25 23 25s23 -11 23 -25
c0 -16 -12 -26 -23 -26zM515 833c-12 0 -23 10 -23 26c0 14 11 25 23 25s23 -11 23 -25c0 -16 -12 -26 -23 -26z" />
    <glyph glyph-name="Omacron" unicode="&#x14c;" horiz-adv-x="872" 
d="M800 354c0 -218 -155 -374 -364 -374s-364 156 -364 374s154 374 364 374s364 -156 364 -374zM778 354c0 197 -141 354 -342 354s-342 -157 -342 -354c0 -196 138 -354 342 -354c205 0 342 158 342 354zM554 821h-232v20h232v-20z" />
    <glyph glyph-name="Obreve" unicode="&#x14e;" horiz-adv-x="872" 
d="M800 354c0 -218 -155 -374 -364 -374s-364 156 -364 374s154 374 364 374s364 -156 364 -374zM778 354c0 197 -141 354 -342 354s-342 -157 -342 -354c0 -196 138 -354 342 -354c205 0 342 158 342 354zM561 898c-13 -81 -61 -126 -127 -126c-65 0 -114 45 -124 126h19
c13 -69 53 -106 105 -106c59 0 93 32 109 106h18z" />
    <glyph glyph-name="Ohungarumlaut" unicode="&#x150;" horiz-adv-x="872" 
d="M800 354c0 -218 -155 -374 -364 -374s-364 156 -364 374s154 374 364 374s364 -156 364 -374zM778 354c0 197 -141 354 -342 354s-342 -157 -342 -354c0 -196 138 -354 342 -354c205 0 342 158 342 354zM495 908l-111 -145h-19l103 145h27zM612 908l-111 -145h-19
l103 145h27z" />
    <glyph glyph-name="Oslash" unicode="&#xd8;" horiz-adv-x="872" 
d="M640 632c-56 47 -131 76 -217 76c-201 0 -342 -157 -342 -354c0 -100 36 -191 100 -256zM670 636c73 -66 117 -164 117 -282c0 -218 -155 -374 -364 -374c-94 0 -179 32 -242 88l-68 -79l-14 14l68 78c-67 65 -108 161 -108 273c0 218 154 374 364 374
c89 0 169 -29 232 -79l67 78l15 -13zM655 619l-460 -535c58 -52 135 -84 228 -84c205 0 342 158 342 354c0 105 -40 199 -110 265z" />
    <glyph glyph-name="OE" unicode="&#x152;" horiz-adv-x="978" 
d="M532 688h-64c-209 0 -373 -100 -373 -334c0 -235 164 -334 373 -334h64v668zM922 0h-459c-220 0 -391 108 -391 354c0 245 171 354 391 354h443v-20h-353v-311h331v-20h-331v-337h369v-20z" />
    <glyph glyph-name="Racute" unicode="&#x154;" horiz-adv-x="594" 
d="M533 0h-25l-214 357h-166v-357h-22v708h196c105 0 222 -32 222 -175c0 -132 -113 -174 -206 -175zM502 533c0 124 -104 156 -212 156h-162v-313h173c130 0 201 57 201 157zM369 908l-111 -144h-19l103 144h27z" />
    <glyph glyph-name="Rcaron" unicode="&#x158;" horiz-adv-x="594" 
d="M533 0h-25l-214 357h-166v-357h-22v708h196c105 0 222 -32 222 -175c0 -132 -113 -174 -206 -175zM502 533c0 124 -104 156 -212 156h-162v-313h173c130 0 201 57 201 157zM283 764h-28l-103 144h23l94 -132l94 132h23z" />
    <glyph glyph-name="Rcommaaccent" unicode="&#x156;" horiz-adv-x="594" 
d="M533 0h-25l-214 357h-166v-357h-22v708h196c105 0 222 -32 222 -175c0 -132 -113 -174 -206 -175zM502 533c0 124 -104 156 -212 156h-162v-313h173c130 0 201 57 201 157zM322 -45l-58 -185h-17l51 185h24z" />
    <glyph glyph-name="Sacute" unicode="&#x15a;" horiz-adv-x="570" 
d="M498 170c0 -121 -99 -190 -215 -190c-88 0 -163 34 -211 87l17 15c51 -54 121 -82 193 -82c104 0 194 62 194 170c0 109 -98 145 -192 175c-117 37 -199 78 -199 198c0 118 100 185 218 185c72 0 141 -28 182 -79l-17 -15c-37 47 -98 74 -166 74
c-95 0 -195 -54 -195 -165c0 -110 88 -146 176 -175c120 -39 215 -77 215 -198zM393 908l-111 -144h-19l103 144h27z" />
    <glyph glyph-name="Scircumflex" unicode="&#x15c;" horiz-adv-x="570" 
d="M498 170c0 -121 -99 -190 -215 -190c-88 0 -163 34 -211 87l17 15c51 -54 121 -82 193 -82c104 0 194 62 194 170c0 109 -98 145 -192 175c-117 37 -199 78 -199 198c0 118 100 185 218 185c72 0 141 -28 182 -79l-17 -15c-37 47 -98 74 -166 74
c-95 0 -195 -54 -195 -165c0 -110 88 -146 176 -175c120 -39 215 -77 215 -198zM288 908h28l103 -144h-23l-94 132l-94 -132h-23z" />
    <glyph glyph-name="Scaron" unicode="&#x160;" horiz-adv-x="570" 
d="M498 170c0 -121 -99 -190 -215 -190c-88 0 -163 34 -211 87l17 15c51 -54 121 -82 193 -82c104 0 194 62 194 170c0 109 -98 145 -192 175c-117 37 -199 78 -199 198c0 118 100 185 218 185c72 0 141 -28 182 -79l-17 -15c-37 47 -98 74 -166 74
c-95 0 -195 -54 -195 -165c0 -110 88 -146 176 -175c120 -39 215 -77 215 -198zM313 764h-28l-103 144h23l94 -132l94 132h23z" />
    <glyph glyph-name="Scedilla" unicode="&#x15e;" horiz-adv-x="570" 
d="M384 -146c0 -64 -69 -80 -112 -80c-25 0 -61 7 -90 20l5 17c25 -13 62 -18 86 -18c39 0 90 11 90 61c0 42 -40 51 -72 51c-18 0 -53 -6 -69 -15l-10 9l55 82c-81 4 -150 36 -195 86l17 15c51 -54 121 -82 193 -82c104 0 194 62 194 170c0 109 -98 145 -192 175
c-117 37 -199 78 -199 198c0 118 100 185 218 185c72 0 141 -28 182 -79l-17 -15c-37 47 -98 74 -166 74c-95 0 -195 -54 -195 -165c0 -110 88 -146 176 -175c120 -39 215 -77 215 -198c0 -119 -96 -188 -210 -190l-45 -66c19 6 35 8 54 8c40 0 87 -16 87 -68z" />
    <glyph glyph-name="Scommaaccent" unicode="&#x218;" horiz-adv-x="570" 
d="M498 170c0 -121 -99 -190 -215 -190c-88 0 -163 34 -211 87l17 15c51 -54 121 -82 193 -82c104 0 194 62 194 170c0 109 -98 145 -192 175c-117 37 -199 78 -199 198c0 118 100 185 218 185c72 0 141 -28 182 -79l-17 -15c-37 47 -98 74 -166 74
c-95 0 -195 -54 -195 -165c0 -110 88 -146 176 -175c120 -39 215 -77 215 -198zM314 -45l-58 -185h-17l51 185h24z" />
    <glyph glyph-name="Tcaron" unicode="&#x164;" horiz-adv-x="540" 
d="M522 688h-241v-688h-22v688h-241v20h504v-20zM284 764h-28l-103 144h23l94 -132l94 132h23z" />
    <glyph glyph-name="uni0162" unicode="&#x162;" horiz-adv-x="540" 
d="M522 688h-241v-688h-22v688h-241v20h504v-20zM296 -45l-58 -185h-17l51 185h24z" />
    <glyph glyph-name="uni021A" unicode="&#x21a;" horiz-adv-x="540" 
d="M522 688h-241v-688h-22v688h-241v20h504v-20zM296 -45l-58 -185h-17l51 185h24z" />
    <glyph glyph-name="Tbar" unicode="&#x166;" horiz-adv-x="540" 
d="M480 527h-199v-527h-22v527h-199v18h199v143h-241v20h504v-20h-241v-143h199v-18z" />
    <glyph glyph-name="Thorn" unicode="&#xde;" horiz-adv-x="572" 
d="M517 374c0 -120 -94 -184 -206 -184h-183v-190h-22v708h22v-158h170c102 0 219 -40 219 -176zM495 374c0 119 -101 157 -188 157h-179v-322h184c89 0 183 47 183 165z" />
    <glyph glyph-name="Ugrave" unicode="&#xd9;" horiz-adv-x="732" 
d="M636 268c0 -160 -70 -288 -270 -288s-270 128 -270 288v440h22v-436c0 -111 33 -272 248 -272c210 0 248 156 248 272v436h22v-440zM271 908h27l103 -144h-19z" />
    <glyph glyph-name="Uacute" unicode="&#xda;" horiz-adv-x="732" 
d="M636 268c0 -160 -70 -288 -270 -288s-270 128 -270 288v440h22v-436c0 -111 33 -272 248 -272c210 0 248 156 248 272v436h22v-440zM453 908l-111 -144h-19l103 144h27z" />
    <glyph glyph-name="Ucircumflex" unicode="&#xdb;" horiz-adv-x="732" 
d="M636 268c0 -160 -70 -288 -270 -288s-270 128 -270 288v440h22v-436c0 -111 33 -272 248 -272c210 0 248 156 248 272v436h22v-440zM352 908h28l103 -144h-23l-94 132l-94 -132h-23z" />
    <glyph glyph-name="Utilde" unicode="&#x168;" horiz-adv-x="732" 
d="M636 268c0 -160 -70 -288 -270 -288s-270 128 -270 288v440h22v-436c0 -111 33 -272 248 -272c210 0 248 156 248 272v436h22v-440zM370 838c36 -22 44 -24 59 -24c23 0 35 15 40 48h16c-5 -48 -29 -67 -56 -67c-21 0 -34 5 -64 24c-34 22 -44 24 -59 24
c-23 0 -35 -18 -40 -51h-16c5 48 29 70 56 70c21 0 35 -6 64 -24z" />
    <glyph glyph-name="Udieresis" unicode="&#xdc;" horiz-adv-x="732" 
d="M636 268c0 -160 -70 -288 -270 -288s-270 128 -270 288v440h22v-436c0 -111 33 -272 248 -272c210 0 248 156 248 272v436h22v-440zM289 833c-12 0 -23 10 -23 26c0 14 11 25 23 25s23 -11 23 -25c0 -16 -12 -26 -23 -26zM443 833c-12 0 -23 10 -23 26c0 14 11 25 23 25
s23 -11 23 -25c0 -16 -12 -26 -23 -26z" />
    <glyph glyph-name="Umacron" unicode="&#x16a;" horiz-adv-x="732" 
d="M636 268c0 -160 -70 -288 -270 -288s-270 128 -270 288v440h22v-436c0 -111 33 -272 248 -272c210 0 248 156 248 272v436h22v-440zM483 821h-232v20h232v-20z" />
    <glyph glyph-name="Ubreve" unicode="&#x16c;" horiz-adv-x="732" 
d="M636 268c0 -160 -70 -288 -270 -288s-270 128 -270 288v440h22v-436c0 -111 33 -272 248 -272c210 0 248 156 248 272v436h22v-440zM493 898c-13 -81 -61 -126 -127 -126c-65 0 -114 45 -124 126h19c13 -69 53 -106 105 -106c59 0 93 32 109 106h18z" />
    <glyph glyph-name="Uring" unicode="&#x16e;" horiz-adv-x="732" 
d="M636 268c0 -160 -70 -288 -270 -288s-270 128 -270 288v440h22v-436c0 -111 33 -272 248 -272c210 0 248 156 248 272v436h22v-440zM464 850c0 -54 -44 -95 -96 -95s-96 41 -96 95s44 95 96 95s96 -41 96 -95zM445 850c0 43 -34 78 -77 78s-77 -35 -77 -78s34 -78 77 -78
s77 35 77 78z" />
    <glyph glyph-name="Uhungarumlaut" unicode="&#x170;" horiz-adv-x="732" 
d="M636 268c0 -160 -70 -288 -270 -288s-270 128 -270 288v440h22v-436c0 -111 33 -272 248 -272c210 0 248 156 248 272v436h22v-440zM424 908l-111 -145h-19l103 145h27zM541 908l-111 -145h-19l103 145h27z" />
    <glyph glyph-name="Uogonek" unicode="&#x172;" horiz-adv-x="732" 
d="M469 -176l10 -16c-21 -19 -51 -31 -82 -31c-47 0 -84 29 -84 80c0 45 33 85 72 124c-6 -1 -13 -1 -19 -1c-200 0 -270 128 -270 288v440h22v-436c0 -111 33 -272 248 -272c210 0 248 156 248 272v436h22v-440c0 -147 -59 -268 -225 -285c-50 -50 -76 -83 -76 -124
c0 -40 26 -64 65 -64c27 0 53 12 69 29z" />
    <glyph glyph-name="Wcircumflex" unicode="&#x174;" horiz-adv-x="956" 
d="M928 708l-212 -708h-34l-205 687h-2l-201 -687h-34l-212 708h23l204 -688h3l201 688h34l205 -688h3l204 688h23zM462 908h28l103 -144h-23l-94 132l-94 -132h-23z" />
    <glyph glyph-name="Wacute" unicode="&#x1e82;" horiz-adv-x="956" 
d="M928 708l-212 -708h-34l-205 687h-2l-201 -687h-34l-212 708h23l204 -688h3l201 688h34l205 -688h3l204 688h23zM597 908l-111 -144h-19l103 144h27z" />
    <glyph glyph-name="Wdieresis" unicode="&#x1e84;" horiz-adv-x="956" 
d="M928 708l-212 -708h-34l-205 687h-2l-201 -687h-34l-212 708h23l204 -688h3l201 688h34l205 -688h3l204 688h23zM399 833c-12 0 -23 10 -23 26c0 14 11 25 23 25s23 -11 23 -25c0 -16 -12 -26 -23 -26zM553 833c-12 0 -23 10 -23 26c0 14 11 25 23 25s23 -11 23 -25
c0 -16 -12 -26 -23 -26z" />
    <glyph glyph-name="Wgrave" unicode="&#x1e80;" horiz-adv-x="956" 
d="M928 708l-212 -708h-34l-205 687h-2l-201 -687h-34l-212 708h23l204 -688h3l201 688h34l205 -688h3l204 688h23zM355 908h27l103 -144h-19z" />
    <glyph glyph-name="Yacute" unicode="&#xdd;" horiz-adv-x="538" 
d="M523 708l-243 -398v-310h-22v310l-243 398h26l229 -376l228 376h25zM383 908l-111 -144h-19l103 144h27z" />
    <glyph glyph-name="Ycircumflex" unicode="&#x176;" horiz-adv-x="538" 
d="M523 708l-243 -398v-310h-22v310l-243 398h26l229 -376l228 376h25zM256 908h28l103 -144h-23l-94 132l-94 -132h-23z" />
    <glyph glyph-name="Ydieresis" unicode="&#x178;" horiz-adv-x="538" 
d="M523 708l-243 -398v-310h-22v310l-243 398h26l229 -376l228 376h25zM193 833c-12 0 -23 10 -23 26c0 14 11 25 23 25s23 -11 23 -25c0 -16 -12 -26 -23 -26zM347 833c-12 0 -23 10 -23 26c0 14 11 25 23 25s23 -11 23 -25c0 -16 -12 -26 -23 -26z" />
    <glyph glyph-name="Ygrave" unicode="&#x1ef2;" horiz-adv-x="538" 
d="M523 708l-243 -398v-310h-22v310l-243 398h26l229 -376l228 376h25zM161 908h27l103 -144h-19z" />
    <glyph glyph-name="Zacute" unicode="&#x179;" horiz-adv-x="594" 
d="M552 0h-498v27l466 661h-453v20h473v-29l-465 -659h477v-20zM409 908l-111 -144h-19l103 144h27z" />
    <glyph glyph-name="Zcaron" unicode="&#x17d;" horiz-adv-x="594" 
d="M552 0h-498v27l466 661h-453v20h473v-29l-465 -659h477v-20zM317 764h-28l-103 144h23l94 -132l94 132h23z" />
    <glyph glyph-name="Zdotaccent" unicode="&#x17b;" horiz-adv-x="594" 
d="M552 0h-498v27l466 661h-453v20h473v-29l-465 -659h477v-20zM305 833c-12 0 -23 10 -23 26c0 14 11 25 23 25s23 -11 23 -25c0 -16 -12 -26 -23 -26z" />
    <glyph glyph-name="agrave" unicode="&#xe0;" horiz-adv-x="512" 
d="M418 104c0 -35 4 -79 8 -104h-21c-4 26 -8 83 -8 110h-3c-26 -84 -100 -124 -174 -124c-75 0 -154 41 -154 132c0 132 154 152 250 152h80v37c0 102 -60 148 -148 148c-54 0 -103 -22 -140 -55l-12 17c42 37 100 57 152 57c105 0 170 -53 170 -168v-202zM396 207v44h-71
c-102 0 -237 -16 -237 -133c0 -84 75 -113 132 -113c137 0 176 112 176 202zM164 708h27l103 -144h-19z" />
    <glyph glyph-name="aacute" unicode="&#xe1;" horiz-adv-x="512" 
d="M418 104c0 -35 4 -79 8 -104h-21c-4 26 -8 83 -8 110h-3c-26 -84 -100 -124 -174 -124c-75 0 -154 41 -154 132c0 132 154 152 250 152h80v37c0 102 -60 148 -148 148c-54 0 -103 -22 -140 -55l-12 17c42 37 100 57 152 57c105 0 170 -53 170 -168v-202zM396 207v44h-71
c-102 0 -237 -16 -237 -133c0 -84 75 -113 132 -113c137 0 176 112 176 202zM363 708l-111 -144h-19l103 144h27z" />
    <glyph glyph-name="acircumflex" unicode="&#xe2;" horiz-adv-x="512" 
d="M418 104c0 -35 4 -79 8 -104h-21c-4 26 -8 83 -8 110h-3c-26 -84 -100 -124 -174 -124c-75 0 -154 41 -154 132c0 132 154 152 250 152h80v37c0 102 -60 148 -148 148c-54 0 -103 -22 -140 -55l-12 17c42 37 100 57 152 57c105 0 170 -53 170 -168v-202zM396 207v44h-71
c-102 0 -237 -16 -237 -133c0 -84 75 -113 132 -113c137 0 176 112 176 202zM234 708h28l103 -144h-23l-94 132l-94 -132h-23z" />
    <glyph glyph-name="atilde" unicode="&#xe3;" horiz-adv-x="512" 
d="M418 104c0 -35 4 -79 8 -104h-21c-4 26 -8 83 -8 110h-3c-26 -84 -100 -124 -174 -124c-75 0 -154 41 -154 132c0 132 154 152 250 152h80v37c0 102 -60 148 -148 148c-54 0 -103 -22 -140 -55l-12 17c42 37 100 57 152 57c105 0 170 -53 170 -168v-202zM396 207v44h-71
c-102 0 -237 -16 -237 -133c0 -84 75 -113 132 -113c137 0 176 112 176 202zM253 638c36 -22 44 -24 59 -24c23 0 35 15 40 48h16c-5 -48 -29 -67 -56 -67c-21 0 -34 5 -64 24c-34 22 -44 24 -59 24c-23 0 -35 -18 -40 -51h-16c5 48 29 70 56 70c21 0 35 -6 64 -24z" />
    <glyph glyph-name="adieresis" unicode="&#xe4;" horiz-adv-x="512" 
d="M418 104c0 -35 4 -79 8 -104h-21c-4 26 -8 83 -8 110h-3c-26 -84 -100 -124 -174 -124c-75 0 -154 41 -154 132c0 132 154 152 250 152h80v37c0 102 -60 148 -148 148c-54 0 -103 -22 -140 -55l-12 17c42 37 100 57 152 57c105 0 170 -53 170 -168v-202zM396 207v44h-71
c-102 0 -237 -16 -237 -133c0 -84 75 -113 132 -113c137 0 176 112 176 202zM174 633c-12 0 -23 10 -23 26c0 14 11 25 23 25s23 -11 23 -25c0 -16 -12 -26 -23 -26zM328 633c-12 0 -23 10 -23 26c0 14 11 25 23 25s23 -11 23 -25c0 -16 -12 -26 -23 -26z" />
    <glyph glyph-name="amacron" unicode="&#x101;" horiz-adv-x="512" 
d="M418 104c0 -35 4 -79 8 -104h-21c-4 26 -8 83 -8 110h-3c-26 -84 -100 -124 -174 -124c-75 0 -154 41 -154 132c0 132 154 152 250 152h80v37c0 102 -60 148 -148 148c-54 0 -103 -22 -140 -55l-12 17c42 37 100 57 152 57c105 0 170 -53 170 -168v-202zM396 207v44h-71
c-102 0 -237 -16 -237 -133c0 -84 75 -113 132 -113c137 0 176 112 176 202zM378 621h-232v20h232v-20z" />
    <glyph glyph-name="abreve" unicode="&#x103;" horiz-adv-x="512" 
d="M418 104c0 -35 4 -79 8 -104h-21c-4 26 -8 83 -8 110h-3c-26 -84 -100 -124 -174 -124c-75 0 -154 41 -154 132c0 132 154 152 250 152h80v37c0 102 -60 148 -148 148c-54 0 -103 -22 -140 -55l-12 17c42 37 100 57 152 57c105 0 170 -53 170 -168v-202zM396 207v44h-71
c-102 0 -237 -16 -237 -133c0 -84 75 -113 132 -113c137 0 176 112 176 202zM388 698c-13 -81 -61 -126 -127 -126c-65 0 -114 45 -124 126h19c13 -69 53 -106 105 -106c59 0 93 32 109 106h18z" />
    <glyph glyph-name="aring" unicode="&#xe5;" horiz-adv-x="512" 
d="M418 104c0 -35 4 -79 8 -104h-21c-4 26 -8 83 -8 110h-3c-26 -84 -100 -124 -174 -124c-75 0 -154 41 -154 132c0 132 154 152 250 152h80v37c0 102 -60 148 -148 148c-54 0 -103 -22 -140 -55l-12 17c42 37 100 57 152 57c105 0 170 -53 170 -168v-202zM396 207v44h-71
c-102 0 -237 -16 -237 -133c0 -84 75 -113 132 -113c137 0 176 112 176 202zM347 650c0 -54 -44 -95 -96 -95s-96 41 -96 95s44 95 96 95s96 -41 96 -95zM328 650c0 43 -34 78 -77 78s-77 -35 -77 -78s34 -78 77 -78s77 35 77 78z" />
    <glyph glyph-name="aogonek" unicode="&#x105;" horiz-adv-x="512" 
d="M468 -176l10 -16c-21 -19 -51 -31 -82 -31c-47 0 -84 29 -84 80c0 52 44 97 92 143h1c-4 26 -8 83 -8 110h-3c-26 -84 -100 -124 -174 -124c-75 0 -154 41 -154 132c0 132 154 152 250 152h80v37c0 102 -60 148 -148 148c-54 0 -103 -22 -140 -55l-12 17
c42 37 100 57 152 57c105 0 170 -53 170 -168v-202c0 -35 4 -79 8 -104h1c-61 -61 -93 -96 -93 -141c0 -40 26 -64 65 -64c27 0 53 12 69 29zM396 207v44h-71c-102 0 -237 -16 -237 -133c0 -84 75 -113 132 -113c137 0 176 112 176 202z" />
    <glyph glyph-name="ae" unicode="&#xe6;" horiz-adv-x="879" 
d="M429 255h367c-4 119 -75 200 -183 200c-132 0 -184 -136 -184 -200zM426 338c32 81 103 136 188 136c136 0 203 -111 203 -220v-19h-389c0 -107 58 -228 196 -228c65 0 122 29 161 83l15 -13c-43 -58 -102 -90 -177 -90c-97 0 -174 61 -203 156
c-10 -83 -72 -157 -196 -157c-77 0 -158 35 -158 126c0 122 150 143 257 143h84v47c0 99 -56 153 -154 153c-55 0 -106 -22 -144 -55l-12 17c43 37 103 57 156 57c112 0 166 -60 173 -136zM407 191v44h-75c-115 0 -243 -17 -243 -123c0 -84 77 -107 135 -107
c141 0 183 96 183 186z" />
    <glyph glyph-name="cacute" unicode="&#x107;" horiz-adv-x="480" 
d="M447 413l-17 -15c-35 36 -84 57 -134 57c-130 0 -212 -105 -212 -226s82 -224 212 -224c51 0 102 18 138 52l15 -14c-40 -40 -98 -57 -153 -57c-135 0 -234 101 -234 243s99 245 234 245c58 0 114 -23 151 -61zM396 708l-111 -144h-19l103 144h27z" />
    <glyph glyph-name="ccircumflex" unicode="&#x109;" horiz-adv-x="480" 
d="M447 413l-17 -15c-35 36 -84 57 -134 57c-130 0 -212 -105 -212 -226s82 -224 212 -224c51 0 102 18 138 52l15 -14c-40 -40 -98 -57 -153 -57c-135 0 -234 101 -234 243s99 245 234 245c58 0 114 -23 151 -61zM282 708h28l103 -144h-23l-94 132l-94 -132h-23z" />
    <glyph glyph-name="ccaron" unicode="&#x10d;" horiz-adv-x="480" 
d="M447 413l-17 -15c-35 36 -84 57 -134 57c-130 0 -212 -105 -212 -226s82 -224 212 -224c51 0 102 18 138 52l15 -14c-40 -40 -98 -57 -153 -57c-135 0 -234 101 -234 243s99 245 234 245c58 0 114 -23 151 -61zM306 564h-28l-103 144h23l94 -132l94 132h23z" />
    <glyph glyph-name="cdotaccent" unicode="&#x10b;" horiz-adv-x="480" 
d="M447 413l-17 -15c-35 36 -84 57 -134 57c-130 0 -212 -105 -212 -226s82 -224 212 -224c51 0 102 18 138 52l15 -14c-40 -40 -98 -57 -153 -57c-135 0 -234 101 -234 243s99 245 234 245c58 0 114 -23 151 -61zM293 633c-12 0 -23 10 -23 26c0 14 11 25 23 25
s23 -11 23 -25c0 -16 -12 -26 -23 -26z" />
    <glyph glyph-name="ccedilla" unicode="&#xe7;" horiz-adv-x="480" 
d="M399 -146c0 -64 -69 -80 -112 -80c-25 0 -61 7 -90 20l5 17c25 -13 62 -18 86 -18c39 0 90 11 90 61c0 42 -40 51 -72 51c-18 0 -53 -6 -69 -15l-10 9l59 87c-130 5 -224 104 -224 243c0 142 99 245 234 245c58 0 114 -23 151 -61l-17 -15c-35 36 -84 57 -134 57
c-130 0 -212 -105 -212 -226s82 -224 212 -224c51 0 102 18 138 52l15 -14c-38 -38 -91 -55 -142 -57l-49 -72c19 6 35 8 54 8c40 0 87 -16 87 -68z" />
    <glyph glyph-name="dcaron" unicode="&#x10f;" horiz-adv-x="653" 
d="M502 335v421h22v-756h-22v124h-3c-40 -90 -120 -138 -207 -138c-134 0 -230 104 -230 243s96 245 230 245c87 0 167 -48 207 -139h3zM84 229c0 -121 81 -224 208 -224c122 0 211 103 211 225c0 123 -89 225 -211 225c-127 0 -208 -105 -208 -226zM661 708l-58 -185h-17
l51 185h24z" />
    <glyph glyph-name="dcroat" unicode="&#x111;" horiz-adv-x="626" 
d="M594 570h-70v-570h-22v124h-3c-40 -90 -120 -138 -207 -138c-134 0 -230 104 -230 243s96 245 230 245c87 0 167 -48 207 -139h3v235h-213v18h213v168h22v-168h70v-18zM84 229c0 -121 81 -224 208 -224c122 0 211 103 211 225c0 123 -89 225 -211 225
c-127 0 -208 -105 -208 -226z" />
    <glyph glyph-name="eth" unicode="&#xf0;" horiz-adv-x="605" 
d="M482 397l6 2c-40 96 -115 204 -171 257l-112 -61l-12 14l110 62c-38 36 -70 63 -97 80l17 12c33 -21 66 -50 98 -82l105 59l16 -13l-105 -59c60 -61 206 -244 206 -432c0 -147 -99 -250 -241 -250c-141 0 -240 102 -240 245s99 243 240 243c69 0 132 -24 180 -77z
M521 231c0 124 -84 224 -219 224s-218 -100 -218 -224s83 -226 218 -226s219 102 219 226z" />
    <glyph glyph-name="egrave" unicode="&#xe8;" horiz-adv-x="556" 
d="M494 235h-410c0 -111 66 -229 207 -229c71 0 128 30 169 84l16 -14c-45 -58 -106 -90 -185 -90c-136 0 -229 104 -229 249c0 140 96 239 219 239c144 0 213 -111 213 -220v-19zM473 254c-3 120 -79 201 -193 201c-139 0 -195 -132 -195 -201h388zM185 708h27l103 -144
h-19z" />
    <glyph glyph-name="eacute" unicode="&#xe9;" horiz-adv-x="556" 
d="M494 235h-410c0 -111 66 -229 207 -229c71 0 128 30 169 84l16 -14c-45 -58 -106 -90 -185 -90c-136 0 -229 104 -229 249c0 140 96 239 219 239c144 0 213 -111 213 -220v-19zM473 254c-3 120 -79 201 -193 201c-139 0 -195 -132 -195 -201h388zM387 708l-111 -144h-19
l103 144h27z" />
    <glyph glyph-name="ecircumflex" unicode="&#xea;" horiz-adv-x="556" 
d="M494 235h-410c0 -111 66 -229 207 -229c71 0 128 30 169 84l16 -14c-45 -58 -106 -90 -185 -90c-136 0 -229 104 -229 249c0 140 96 239 219 239c144 0 213 -111 213 -220v-19zM473 254c-3 120 -79 201 -193 201c-139 0 -195 -132 -195 -201h388zM272 708h28l103 -144
h-23l-94 132l-94 -132h-23z" />
    <glyph glyph-name="ecaron" unicode="&#x11b;" horiz-adv-x="556" 
d="M494 235h-410c0 -111 66 -229 207 -229c71 0 128 30 169 84l16 -14c-45 -58 -106 -90 -185 -90c-136 0 -229 104 -229 249c0 140 96 239 219 239c144 0 213 -111 213 -220v-19zM473 254c-3 120 -79 201 -193 201c-139 0 -195 -132 -195 -201h388zM299 564h-28l-103 144
h23l94 -132l94 132h23z" />
    <glyph glyph-name="edieresis" unicode="&#xeb;" horiz-adv-x="556" 
d="M494 235h-410c0 -111 66 -229 207 -229c71 0 128 30 169 84l16 -14c-45 -58 -106 -90 -185 -90c-136 0 -229 104 -229 249c0 140 96 239 219 239c144 0 213 -111 213 -220v-19zM473 254c-3 120 -79 201 -193 201c-139 0 -195 -132 -195 -201h388zM206 633
c-12 0 -23 10 -23 26c0 14 11 25 23 25s23 -11 23 -25c0 -16 -12 -26 -23 -26zM360 633c-12 0 -23 10 -23 26c0 14 11 25 23 25s23 -11 23 -25c0 -16 -12 -26 -23 -26z" />
    <glyph glyph-name="emacron" unicode="&#x113;" horiz-adv-x="556" 
d="M494 235h-410c0 -111 66 -229 207 -229c71 0 128 30 169 84l16 -14c-45 -58 -106 -90 -185 -90c-136 0 -229 104 -229 249c0 140 96 239 219 239c144 0 213 -111 213 -220v-19zM473 254c-3 120 -79 201 -193 201c-139 0 -195 -132 -195 -201h388zM402 621h-232v20h232
v-20z" />
    <glyph glyph-name="ebreve" unicode="&#x115;" horiz-adv-x="556" 
d="M494 235h-410c0 -111 66 -229 207 -229c71 0 128 30 169 84l16 -14c-45 -58 -106 -90 -185 -90c-136 0 -229 104 -229 249c0 140 96 239 219 239c144 0 213 -111 213 -220v-19zM473 254c-3 120 -79 201 -193 201c-139 0 -195 -132 -195 -201h388zM414 698
c-13 -81 -61 -126 -127 -126c-65 0 -114 45 -124 126h19c13 -69 53 -106 105 -106c59 0 93 32 109 106h18z" />
    <glyph glyph-name="edotaccent" unicode="&#x117;" horiz-adv-x="556" 
d="M494 235h-410c0 -111 66 -229 207 -229c71 0 128 30 169 84l16 -14c-45 -58 -106 -90 -185 -90c-136 0 -229 104 -229 249c0 140 96 239 219 239c144 0 213 -111 213 -220v-19zM473 254c-3 120 -79 201 -193 201c-139 0 -195 -132 -195 -201h388zM286 633
c-12 0 -23 10 -23 26c0 14 11 25 23 25s23 -11 23 -25c0 -16 -12 -26 -23 -26z" />
    <glyph glyph-name="eogonek" unicode="&#x119;" horiz-adv-x="556" 
d="M392 -176l10 -16c-21 -19 -51 -31 -82 -31c-47 0 -84 29 -84 80c0 47 36 89 78 130c-7 0 -15 -1 -23 -1c-136 0 -229 104 -229 249c0 140 96 239 219 239c144 0 213 -111 213 -220v-19h-410c0 -111 66 -229 207 -229c71 0 128 30 169 84l16 -14c-35 -45 -79 -74 -134 -85
c-55 -55 -84 -89 -84 -132c0 -40 26 -64 65 -64c27 0 53 12 69 29zM473 254c-3 120 -79 201 -193 201c-139 0 -195 -132 -195 -201h388z" />
    <glyph glyph-name="gcircumflex" unicode="&#x11d;" horiz-adv-x="626" 
d="M502 28v96h-3c-35 -90 -120 -138 -207 -138c-134 0 -230 104 -230 243s96 245 230 245c87 0 167 -48 207 -139h3v125h22v-434c0 -146 -57 -276 -227 -276c-86 0 -155 32 -203 86l15 15c50 -57 118 -82 188 -82c161 0 205 126 205 259zM84 229c0 -121 81 -225 208 -225
c122 0 211 104 211 226c0 123 -89 225 -211 225c-127 0 -208 -105 -208 -226zM293 708h28l103 -144h-23l-94 132l-94 -132h-23z" />
    <glyph glyph-name="gbreve" unicode="&#x11f;" horiz-adv-x="626" 
d="M502 28v96h-3c-35 -90 -120 -138 -207 -138c-134 0 -230 104 -230 243s96 245 230 245c87 0 167 -48 207 -139h3v125h22v-434c0 -146 -57 -276 -227 -276c-86 0 -155 32 -203 86l15 15c50 -57 118 -82 188 -82c161 0 205 126 205 259zM84 229c0 -121 81 -225 208 -225
c122 0 211 104 211 226c0 123 -89 225 -211 225c-127 0 -208 -105 -208 -226zM431 698c-13 -81 -61 -126 -127 -126c-65 0 -114 45 -124 126h19c13 -69 53 -106 105 -106c59 0 93 32 109 106h18z" />
    <glyph glyph-name="gdotaccent" unicode="&#x121;" horiz-adv-x="626" 
d="M502 28v96h-3c-35 -90 -120 -138 -207 -138c-134 0 -230 104 -230 243s96 245 230 245c87 0 167 -48 207 -139h3v125h22v-434c0 -146 -57 -276 -227 -276c-86 0 -155 32 -203 86l15 15c50 -57 118 -82 188 -82c161 0 205 126 205 259zM84 229c0 -121 81 -225 208 -225
c122 0 211 104 211 226c0 123 -89 225 -211 225c-127 0 -208 -105 -208 -226zM304 633c-12 0 -23 10 -23 26c0 14 11 25 23 25s23 -11 23 -25c0 -16 -12 -26 -23 -26z" />
    <glyph glyph-name="gcommaaccent" unicode="&#x123;" horiz-adv-x="626" 
d="M502 28v96h-3c-35 -90 -120 -138 -207 -138c-134 0 -230 104 -230 243s96 245 230 245c87 0 167 -48 207 -139h3v125h22v-434c0 -146 -57 -276 -227 -276c-86 0 -155 32 -203 86l15 15c50 -57 118 -82 188 -82c161 0 205 126 205 259zM84 229c0 -121 81 -225 208 -225
c122 0 211 104 211 226c0 123 -89 225 -211 225c-127 0 -208 -105 -208 -226zM277 564l58 185h17l-51 -185h-24z" />
    <glyph glyph-name="hcircumflex" unicode="&#x125;" horiz-adv-x="569" 
d="M124 339h2c27 86 102 135 181 135c128 0 166 -100 166 -196v-278h-22v276c0 76 -28 179 -144 179c-101 0 -183 -84 -183 -225v-230h-22v756h22v-417zM270 940h28l103 -144h-23l-94 132l-94 -132h-23z" />
    <glyph glyph-name="hbar" unicode="&#x127;" horiz-adv-x="569" 
d="M124 339h2c27 86 102 135 181 135c128 0 166 -100 166 -196v-278h-22v276c0 76 -28 179 -144 179c-101 0 -183 -84 -183 -225v-230h-22v570h-72v18h72v168h22v-168h211v-18h-211v-231z" />
    <glyph glyph-name="dotlessi" unicode="&#x131;" horiz-adv-x="226" 
d="M124 0h-22v460h22v-460z" />
    <glyph glyph-name="igrave" unicode="&#xec;" horiz-adv-x="226" 
d="M124 0h-22v460h22v-460zM-5 708h27l103 -144h-19z" />
    <glyph glyph-name="iacute" unicode="&#xed;" horiz-adv-x="226" 
d="M124 0h-22v460h22v-460zM231 708l-111 -144h-19l103 144h27z" />
    <glyph glyph-name="icircumflex" unicode="&#xee;" horiz-adv-x="226" 
d="M124 0h-22v460h22v-460zM100 708h28l103 -144h-23l-94 132l-94 -132h-23z" />
    <glyph glyph-name="itilde" unicode="&#x129;" horiz-adv-x="226" 
d="M124 0h-22v460h22v-460zM117 638c36 -22 44 -24 59 -24c23 0 35 15 40 48h16c-5 -48 -29 -67 -56 -67c-21 0 -34 5 -64 24c-34 22 -44 24 -59 24c-23 0 -35 -18 -40 -51h-16c5 48 29 70 56 70c21 0 35 -6 64 -24z" />
    <glyph glyph-name="idieresis" unicode="&#xef;" horiz-adv-x="226" 
d="M124 0h-22v460h22v-460zM37 633c-12 0 -23 10 -23 26c0 14 11 25 23 25s23 -11 23 -25c0 -16 -12 -26 -23 -26zM191 633c-12 0 -23 10 -23 26c0 14 11 25 23 25s23 -11 23 -25c0 -16 -12 -26 -23 -26z" />
    <glyph glyph-name="imacron" unicode="&#x12b;" horiz-adv-x="226" 
d="M124 0h-22v460h22v-460zM230 621h-232v20h232v-20z" />
    <glyph glyph-name="ibreve" unicode="&#x12d;" horiz-adv-x="226" 
d="M124 0h-22v460h22v-460zM239 698c-13 -81 -61 -126 -127 -126c-65 0 -114 45 -124 126h19c13 -69 53 -106 105 -106c59 0 93 32 109 106h18z" />
    <glyph glyph-name="iogonek" unicode="&#x12f;" horiz-adv-x="226" 
d="M166 -176l10 -16c-21 -19 -51 -31 -82 -31c-47 0 -84 29 -84 80c0 52 44 98 92 144v459h22v-460c-62 -60 -92 -96 -92 -141c0 -40 26 -64 65 -64c27 0 53 12 69 29zM113 633c-12 0 -23 10 -23 26c0 14 11 25 23 25s23 -11 23 -25c0 -16 -12 -26 -23 -26z" />
    <glyph glyph-name="dotlessj" unicode="&#x237;" horiz-adv-x="226" 
d="M124 -97c0 -94 -21 -144 -112 -144c-9 0 -21 1 -29 3l4 19c9 -2 17 -3 25 -3c85 0 90 64 90 123v559h22v-557z" />
    <glyph glyph-name="jcircumflex" unicode="&#x135;" horiz-adv-x="226" 
d="M124 -97c0 -94 -21 -144 -112 -144c-9 0 -21 1 -29 3l4 19c9 -2 17 -3 25 -3c85 0 90 64 90 123v559h22v-557zM97 708h28l103 -144h-23l-94 132l-94 -132h-23z" />
    <glyph glyph-name="kcommaaccent" unicode="&#x137;" horiz-adv-x="445" 
d="M124 248h1l238 212h31l-243 -213l271 -247h-33l-264 243h-1v-243h-22v756h22v-508zM266 -45l-58 -185h-17l51 185h24z" />
    <glyph glyph-name="kgreenlandic" unicode="&#x138;" horiz-adv-x="445" 
d="M124 248h1l238 212h31l-243 -213l271 -247h-33l-264 243h-1v-243h-22v460h22v-212z" />
    <glyph glyph-name="lacute" unicode="&#x13a;" horiz-adv-x="226" 
d="M124 0h-22v756h22v-756zM232 936l-111 -144h-19l103 144h27z" />
    <glyph glyph-name="lcaron" unicode="&#x13e;" horiz-adv-x="246" 
d="M124 0h-22v756h22v-756zM254 708l-58 -185h-17l51 185h24z" />
    <glyph glyph-name="lcommaaccent" unicode="&#x13c;" horiz-adv-x="226" 
d="M124 0h-22v756h22v-756zM140 -46l-58 -185h-17l51 185h24z" />
    <glyph glyph-name="lslash" unicode="&#x142;" horiz-adv-x="226" 
d="M106 362l-65 -60v27l65 60v367h22v-350l73 63v-24l-73 -66v-379h-22v362z" />
    <glyph glyph-name="ldot" unicode="&#x140;" horiz-adv-x="243" 
d="M124 0h-22v756h22v-756zM210 443c-12 0 -23 10 -23 26c0 14 11 25 23 25s23 -11 23 -25c0 -16 -12 -26 -23 -26z" />
    <glyph glyph-name="nacute" unicode="&#x144;" horiz-adv-x="572" 
d="M128 339c28 86 103 135 182 135c128 0 166 -100 166 -196v-278h-22v276c0 76 -28 179 -144 179c-101 0 -183 -84 -183 -225v-230h-22v344c0 29 -2 90 -5 116h22c2 -26 4 -87 4 -121h2zM395 708l-111 -144h-19l103 144h27z" />
    <glyph glyph-name="ncaron" unicode="&#x148;" horiz-adv-x="572" 
d="M128 339c28 86 103 135 182 135c128 0 166 -100 166 -196v-278h-22v276c0 76 -28 179 -144 179c-101 0 -183 -84 -183 -225v-230h-22v344c0 29 -2 90 -5 116h22c2 -26 4 -87 4 -121h2zM307 564h-28l-103 144h23l94 -132l94 132h23z" />
    <glyph glyph-name="ntilde" unicode="&#xf1;" horiz-adv-x="572" 
d="M128 339c28 86 103 135 182 135c128 0 166 -100 166 -196v-278h-22v276c0 76 -28 179 -144 179c-101 0 -183 -84 -183 -225v-230h-22v344c0 29 -2 90 -5 116h22c2 -26 4 -87 4 -121h2zM293 638c36 -22 44 -24 59 -24c23 0 35 15 40 48h16c-5 -48 -29 -67 -56 -67
c-21 0 -34 5 -64 24c-34 22 -44 24 -59 24c-23 0 -35 -18 -40 -51h-16c5 48 29 70 56 70c21 0 35 -6 64 -24z" />
    <glyph glyph-name="ncommaaccent" unicode="&#x146;" horiz-adv-x="572" 
d="M128 339c28 86 103 135 182 135c128 0 166 -100 166 -196v-278h-22v276c0 76 -28 179 -144 179c-101 0 -183 -84 -183 -225v-230h-22v344c0 29 -2 90 -5 116h22c2 -26 4 -87 4 -121h2zM315 -45l-58 -185h-17l51 185h24z" />
    <glyph glyph-name="eng" unicode="&#x14b;" horiz-adv-x="572" 
d="M476 -97c0 -94 -21 -144 -112 -144c-9 0 -21 1 -29 3l4 19c9 -2 17 -3 25 -3c85 0 90 64 90 123v375c0 76 -28 179 -144 179c-101 0 -183 -84 -183 -225v-230h-22v344c0 29 -2 90 -5 116h22c2 -26 4 -87 4 -121h2c28 86 103 135 182 135c128 0 166 -100 166 -196v-375z
" />
    <glyph glyph-name="ograve" unicode="&#xf2;" horiz-adv-x="605" 
d="M543 231c0 -143 -99 -245 -241 -245c-141 0 -240 102 -240 245s99 243 240 243c142 0 241 -100 241 -243zM521 231c0 124 -84 224 -219 224s-218 -100 -218 -224s83 -226 218 -226s219 102 219 226zM212 708h27l103 -144h-19z" />
    <glyph glyph-name="oacute" unicode="&#xf3;" horiz-adv-x="605" 
d="M543 231c0 -143 -99 -245 -241 -245c-141 0 -240 102 -240 245s99 243 240 243c142 0 241 -100 241 -243zM521 231c0 124 -84 224 -219 224s-218 -100 -218 -224s83 -226 218 -226s219 102 219 226zM397 708l-111 -144h-19l103 144h27z" />
    <glyph glyph-name="ocircumflex" unicode="&#xf4;" horiz-adv-x="605" 
d="M543 231c0 -143 -99 -245 -241 -245c-141 0 -240 102 -240 245s99 243 240 243c142 0 241 -100 241 -243zM521 231c0 124 -84 224 -219 224s-218 -100 -218 -224s83 -226 218 -226s219 102 219 226zM290 708h28l103 -144h-23l-94 132l-94 -132h-23z" />
    <glyph glyph-name="otilde" unicode="&#xf5;" horiz-adv-x="605" 
d="M543 231c0 -143 -99 -245 -241 -245c-141 0 -240 102 -240 245s99 243 240 243c142 0 241 -100 241 -243zM521 231c0 124 -84 224 -219 224s-218 -100 -218 -224s83 -226 218 -226s219 102 219 226zM307 638c36 -22 44 -24 59 -24c23 0 35 15 40 48h16
c-5 -48 -29 -67 -56 -67c-21 0 -34 5 -64 24c-34 22 -44 24 -59 24c-23 0 -35 -18 -40 -51h-16c5 48 29 70 56 70c21 0 35 -6 64 -24z" />
    <glyph glyph-name="odieresis" unicode="&#xf6;" horiz-adv-x="605" 
d="M543 231c0 -143 -99 -245 -241 -245c-141 0 -240 102 -240 245s99 243 240 243c142 0 241 -100 241 -243zM521 231c0 124 -84 224 -219 224s-218 -100 -218 -224s83 -226 218 -226s219 102 219 226zM227 633c-12 0 -23 10 -23 26c0 14 11 25 23 25s23 -11 23 -25
c0 -16 -12 -26 -23 -26zM381 633c-12 0 -23 10 -23 26c0 14 11 25 23 25s23 -11 23 -25c0 -16 -12 -26 -23 -26z" />
    <glyph glyph-name="omacron" unicode="&#x14d;" horiz-adv-x="605" 
d="M543 231c0 -143 -99 -245 -241 -245c-141 0 -240 102 -240 245s99 243 240 243c142 0 241 -100 241 -243zM521 231c0 124 -84 224 -219 224s-218 -100 -218 -224s83 -226 218 -226s219 102 219 226zM417 621h-232v20h232v-20z" />
    <glyph glyph-name="obreve" unicode="&#x14f;" horiz-adv-x="605" 
d="M543 231c0 -143 -99 -245 -241 -245c-141 0 -240 102 -240 245s99 243 240 243c142 0 241 -100 241 -243zM521 231c0 124 -84 224 -219 224s-218 -100 -218 -224s83 -226 218 -226s219 102 219 226zM428 698c-13 -81 -61 -126 -127 -126c-65 0 -114 45 -124 126h19
c13 -69 53 -106 105 -106c59 0 93 32 109 106h18z" />
    <glyph glyph-name="ohungarumlaut" unicode="&#x151;" horiz-adv-x="605" 
d="M543 231c0 -143 -99 -245 -241 -245c-141 0 -240 102 -240 245s99 243 240 243c142 0 241 -100 241 -243zM521 231c0 124 -84 224 -219 224s-218 -100 -218 -224s83 -226 218 -226s219 102 219 226zM359 708l-111 -145h-19l103 145h27zM476 708l-111 -145h-19l103 145h27
z" />
    <glyph glyph-name="oslash" unicode="&#xf8;" horiz-adv-x="605" 
d="M479 402c40 -41 64 -100 64 -171c0 -143 -99 -245 -241 -245c-69 0 -129 25 -171 68l-66 -66l-14 13l67 67c-35 41 -56 98 -56 163c0 143 99 243 240 243c65 0 121 -21 164 -58l59 59l14 -14zM464 387l-318 -318c36 -40 90 -64 156 -64c135 0 219 102 219 226
c0 60 -20 115 -57 156zM451 401c-37 33 -87 54 -149 54c-135 0 -218 -100 -218 -224c0 -56 17 -108 49 -148z" />
    <glyph glyph-name="oe" unicode="&#x153;" horiz-adv-x="1012" 
d="M530 316c29 95 109 158 207 158c144 0 213 -111 213 -220v-19h-409c0 -111 65 -229 206 -229c71 0 128 30 169 84l16 -14c-45 -58 -106 -90 -185 -90c-106 0 -187 64 -216 162c-30 -98 -116 -162 -229 -162c-141 0 -240 102 -240 245s99 243 240 243
c111 0 197 -62 228 -158zM929 254c-3 120 -79 201 -193 201c-139 0 -194 -132 -194 -201h387zM520 231c0 124 -83 224 -218 224s-218 -100 -218 -224s83 -226 218 -226s218 102 218 226z" />
    <glyph glyph-name="racute" unicode="&#x155;" horiz-adv-x="317" 
d="M128 339c26 95 91 135 159 135c6 0 12 0 18 -1v-19c-5 1 -10 1 -13 1c-116 0 -165 -116 -165 -217v-238h-22v344c0 29 -2 90 -5 116h22c2 -26 4 -87 4 -121h2zM255 708l-111 -144h-19l103 144h27z" />
    <glyph glyph-name="rcaron" unicode="&#x159;" horiz-adv-x="317" 
d="M128 339c26 95 91 135 159 135c6 0 12 0 18 -1v-19c-5 1 -10 1 -13 1c-116 0 -165 -116 -165 -217v-238h-22v344c0 29 -2 90 -5 116h22c2 -26 4 -87 4 -121h2zM208 564h-28l-103 144h23l94 -132l94 132h23z" />
    <glyph glyph-name="rcommaaccent" unicode="&#x157;" horiz-adv-x="317" 
d="M128 339c26 95 91 135 159 135c6 0 12 0 18 -1v-19c-5 1 -10 1 -13 1c-116 0 -165 -116 -165 -217v-238h-22v344c0 29 -2 90 -5 116h22c2 -26 4 -87 4 -121h2zM143 -46l-58 -185h-17l51 185h24z" />
    <glyph glyph-name="sacute" unicode="&#x15b;" horiz-adv-x="415" 
d="M361 120c0 -82 -68 -132 -150 -132c-68 0 -125 27 -161 77l18 12c33 -46 81 -70 144 -70c59 0 127 38 127 111c0 85 -87 100 -149 117c-67 18 -121 41 -121 121c0 79 71 118 141 118c62 0 110 -23 141 -67l-19 -11c-30 40 -68 59 -122 59c-50 0 -119 -25 -119 -98
c0 -79 53 -90 130 -110c73 -19 140 -45 140 -127zM308 708l-111 -144h-19l103 144h27z" />
    <glyph glyph-name="scircumflex" unicode="&#x15d;" horiz-adv-x="415" 
d="M361 120c0 -82 -68 -132 -150 -132c-68 0 -125 27 -161 77l18 12c33 -46 81 -70 144 -70c59 0 127 38 127 111c0 85 -87 100 -149 117c-67 18 -121 41 -121 121c0 79 71 118 141 118c62 0 110 -23 141 -67l-19 -11c-30 40 -68 59 -122 59c-50 0 -119 -25 -119 -98
c0 -79 53 -90 130 -110c73 -19 140 -45 140 -127zM200 708h28l103 -144h-23l-94 132l-94 -132h-23z" />
    <glyph glyph-name="scaron" unicode="&#x161;" horiz-adv-x="415" 
d="M361 120c0 -82 -68 -132 -150 -132c-68 0 -125 27 -161 77l18 12c33 -46 81 -70 144 -70c59 0 127 38 127 111c0 85 -87 100 -149 117c-67 18 -121 41 -121 121c0 79 71 118 141 118c62 0 110 -23 141 -67l-19 -11c-30 40 -68 59 -122 59c-50 0 -119 -25 -119 -98
c0 -79 53 -90 130 -110c73 -19 140 -45 140 -127zM228 564h-28l-103 144h23l94 -132l94 132h23z" />
    <glyph glyph-name="scedilla" unicode="&#x15f;" horiz-adv-x="415" 
d="M310 -146c0 -64 -69 -80 -112 -80c-25 0 -61 7 -90 20l5 17c25 -13 62 -18 86 -18c39 0 90 11 90 61c0 42 -40 51 -72 51c-18 0 -53 -6 -69 -15l-10 9l60 89c-62 3 -114 30 -148 77l18 12c33 -46 81 -70 144 -70c59 0 127 38 127 111c0 85 -87 100 -149 117
c-67 18 -121 41 -121 121c0 79 71 118 141 118c62 0 110 -23 141 -67l-19 -11c-30 40 -68 59 -122 59c-50 0 -119 -25 -119 -98c0 -79 53 -90 130 -110c73 -19 140 -45 140 -127c0 -79 -64 -128 -142 -132l-50 -74c19 6 35 8 54 8c40 0 87 -16 87 -68z" />
    <glyph glyph-name="scommaaccent" unicode="&#x219;" horiz-adv-x="415" 
d="M361 120c0 -82 -68 -132 -150 -132c-68 0 -125 27 -161 77l18 12c33 -46 81 -70 144 -70c59 0 127 38 127 111c0 85 -87 100 -149 117c-67 18 -121 41 -121 121c0 79 71 118 141 118c62 0 110 -23 141 -67l-19 -11c-30 40 -68 59 -122 59c-50 0 -119 -25 -119 -98
c0 -79 53 -90 130 -110c73 -19 140 -45 140 -127zM234 -45l-58 -185h-17l51 185h24z" />
    <glyph glyph-name="germandbls" unicode="&#xdf;" horiz-adv-x="589" 
d="M527 208c0 -130 -86 -218 -222 -218c-14 0 -32 1 -48 3v21c20 -3 35 -4 47 -4c123 0 201 79 201 199c0 143 -95 207 -209 207h-16v21h16c92 0 165 57 165 159c0 96 -68 152 -160 152c-134 0 -177 -105 -177 -213v-535h-22v538c0 132 67 230 198 230
c107 0 183 -67 183 -173c0 -96 -61 -151 -136 -166v-2c97 -14 180 -76 180 -219z" />
    <glyph glyph-name="tcaron" unicode="&#x165;" horiz-adv-x="314" 
d="M280 -1c-16 -6 -39 -11 -59 -11c-72 0 -101 46 -101 107v346h-100v19h99v135h23v-135h135v-19h-135v-346c0 -62 34 -88 84 -88c17 0 36 3 51 9zM305 731l-58 -185h-17l51 185h24z" />
    <glyph glyph-name="uni0163" unicode="&#x163;" horiz-adv-x="304" 
d="M280 -1c-16 -6 -39 -11 -59 -11c-72 0 -101 46 -101 107v346h-100v19h99v135h23v-135h135v-19h-135v-346c0 -62 34 -88 84 -88c17 0 36 3 51 9zM214 -45l-58 -185h-17l51 185h24z" />
    <glyph glyph-name="uni021B" unicode="&#x21b;" horiz-adv-x="304" 
d="M280 -1c-16 -6 -39 -11 -59 -11c-72 0 -101 46 -101 107v346h-100v19h99v135h23v-135h135v-19h-135v-346c0 -62 34 -88 84 -88c17 0 36 3 51 9zM214 -45l-58 -185h-17l51 185h24z" />
    <glyph glyph-name="tbar" unicode="&#x167;" horiz-adv-x="304" 
d="M262 259h-120v-164c0 -62 34 -88 84 -88c17 0 36 3 51 9l3 -17c-16 -6 -39 -11 -59 -11c-72 0 -101 46 -101 107v164h-92v18h92v164h-100v19h99v135h23v-135h135v-19h-135v-164h120v-18z" />
    <glyph glyph-name="thorn" unicode="&#xfe;" horiz-adv-x="626" 
d="M124 335h3c40 91 120 139 207 139c137 0 230 -103 230 -245c0 -139 -96 -243 -230 -243c-87 0 -172 48 -207 138h-3v-364h-22v996h22v-421zM542 229c0 121 -81 226 -208 226c-122 0 -211 -102 -211 -225c0 -122 89 -225 211 -225c127 0 208 103 208 224z" />
    <glyph glyph-name="ugrave" unicode="&#xf9;" horiz-adv-x="572" 
d="M442 121c-28 -86 -103 -135 -182 -135c-128 0 -166 100 -166 196v278h22v-276c0 -76 28 -179 144 -179c101 0 183 84 183 225v230h22v-344c0 -29 2 -90 5 -116h-22c-2 26 -4 87 -4 121h-2zM175 708h27l103 -144h-19z" />
    <glyph glyph-name="uacute" unicode="&#xfa;" horiz-adv-x="572" 
d="M442 121c-28 -86 -103 -135 -182 -135c-128 0 -166 100 -166 196v278h22v-276c0 -76 28 -179 144 -179c101 0 183 84 183 225v230h22v-344c0 -29 2 -90 5 -116h-22c-2 26 -4 87 -4 121h-2zM373 708l-111 -144h-19l103 144h27z" />
    <glyph glyph-name="ucircumflex" unicode="&#xfb;" horiz-adv-x="572" 
d="M442 121c-28 -86 -103 -135 -182 -135c-128 0 -166 100 -166 196v278h22v-276c0 -76 28 -179 144 -179c101 0 183 84 183 225v230h22v-344c0 -29 2 -90 5 -116h-22c-2 26 -4 87 -4 121h-2zM264 708h28l103 -144h-23l-94 132l-94 -132h-23z" />
    <glyph glyph-name="utilde" unicode="&#x169;" horiz-adv-x="572" 
d="M442 121c-28 -86 -103 -135 -182 -135c-128 0 -166 100 -166 196v278h22v-276c0 -76 28 -179 144 -179c101 0 183 84 183 225v230h22v-344c0 -29 2 -90 5 -116h-22c-2 26 -4 87 -4 121h-2zM285 638c36 -22 44 -24 59 -24c23 0 35 15 40 48h16c-5 -48 -29 -67 -56 -67
c-21 0 -34 5 -64 24c-34 22 -44 24 -59 24c-23 0 -35 -18 -40 -51h-16c5 48 29 70 56 70c21 0 35 -6 64 -24z" />
    <glyph glyph-name="udieresis" unicode="&#xfc;" horiz-adv-x="572" 
d="M442 121c-28 -86 -103 -135 -182 -135c-128 0 -166 100 -166 196v278h22v-276c0 -76 28 -179 144 -179c101 0 183 84 183 225v230h22v-344c0 -29 2 -90 5 -116h-22c-2 26 -4 87 -4 121h-2zM201 633c-12 0 -23 10 -23 26c0 14 11 25 23 25s23 -11 23 -25
c0 -16 -12 -26 -23 -26zM355 633c-12 0 -23 10 -23 26c0 14 11 25 23 25s23 -11 23 -25c0 -16 -12 -26 -23 -26z" />
    <glyph glyph-name="umacron" unicode="&#x16b;" horiz-adv-x="572" 
d="M442 121c-28 -86 -103 -135 -182 -135c-128 0 -166 100 -166 196v278h22v-276c0 -76 28 -179 144 -179c101 0 183 84 183 225v230h22v-344c0 -29 2 -90 5 -116h-22c-2 26 -4 87 -4 121h-2zM397 621h-232v20h232v-20z" />
    <glyph glyph-name="ubreve" unicode="&#x16d;" horiz-adv-x="572" 
d="M442 121c-28 -86 -103 -135 -182 -135c-128 0 -166 100 -166 196v278h22v-276c0 -76 28 -179 144 -179c101 0 183 84 183 225v230h22v-344c0 -29 2 -90 5 -116h-22c-2 26 -4 87 -4 121h-2zM406 698c-13 -81 -61 -126 -127 -126c-65 0 -114 45 -124 126h19
c13 -69 53 -106 105 -106c59 0 93 32 109 106h18z" />
    <glyph glyph-name="uring" unicode="&#x16f;" horiz-adv-x="572" 
d="M442 121c-28 -86 -103 -135 -182 -135c-128 0 -166 100 -166 196v278h22v-276c0 -76 28 -179 144 -179c101 0 183 84 183 225v230h22v-344c0 -29 2 -90 5 -116h-22c-2 26 -4 87 -4 121h-2zM377 650c0 -54 -44 -95 -96 -95s-96 41 -96 95s44 95 96 95s96 -41 96 -95z
M358 650c0 43 -34 78 -77 78s-77 -35 -77 -78s34 -78 77 -78s77 35 77 78z" />
    <glyph glyph-name="uhungarumlaut" unicode="&#x171;" horiz-adv-x="572" 
d="M442 121c-28 -86 -103 -135 -182 -135c-128 0 -166 100 -166 196v278h22v-276c0 -76 28 -179 144 -179c101 0 183 84 183 225v230h22v-344c0 -29 2 -90 5 -116h-22c-2 26 -4 87 -4 121h-2zM338 708l-111 -145h-19l103 145h27zM455 708l-111 -145h-19l103 145h27z" />
    <glyph glyph-name="uogonek" unicode="&#x173;" horiz-adv-x="572" 
d="M511 -176l10 -16c-21 -19 -51 -31 -82 -31c-47 0 -84 29 -84 80c0 52 44 97 92 143h1c-2 26 -4 87 -4 121h-2c-28 -86 -103 -135 -182 -135c-128 0 -166 100 -166 196v278h22v-276c0 -76 28 -179 144 -179c101 0 183 84 183 225v230h22v-344c0 -29 2 -90 5 -116
c-61 -61 -93 -96 -93 -141c0 -40 26 -64 65 -64c27 0 53 12 69 29z" />
    <glyph glyph-name="wcircumflex" unicode="&#x175;" horiz-adv-x="698" 
d="M664 460l-135 -460h-30l-150 436h-2l-149 -436h-30l-134 460h23l126 -438h2l148 438h31l149 -438h2l126 438h23zM334 708h28l103 -144h-23l-94 132l-94 -132h-23z" />
    <glyph glyph-name="wacute" unicode="&#x1e83;" horiz-adv-x="698" 
d="M664 460l-135 -460h-30l-150 436h-2l-149 -436h-30l-134 460h23l126 -438h2l148 438h31l149 -438h2l126 438h23zM471 708l-111 -144h-19l103 144h27z" />
    <glyph glyph-name="wdieresis" unicode="&#x1e85;" horiz-adv-x="698" 
d="M664 460l-135 -460h-30l-150 436h-2l-149 -436h-30l-134 460h23l126 -438h2l148 438h31l149 -438h2l126 438h23zM271 633c-12 0 -23 10 -23 26c0 14 11 25 23 25s23 -11 23 -25c0 -16 -12 -26 -23 -26zM425 633c-12 0 -23 10 -23 26c0 14 11 25 23 25s23 -11 23 -25
c0 -16 -12 -26 -23 -26z" />
    <glyph glyph-name="wgrave" unicode="&#x1e81;" horiz-adv-x="698" 
d="M664 460l-135 -460h-30l-150 436h-2l-149 -436h-30l-134 460h23l126 -438h2l148 438h31l149 -438h2l126 438h23zM226 708h27l103 -144h-19z" />
    <glyph glyph-name="yacute" unicode="&#xfd;" horiz-adv-x="428" 
d="M404 460l-228 -612c-21 -57 -55 -90 -111 -90c-12 0 -31 3 -41 7l6 19c8 -3 24 -6 37 -6c56 0 80 47 95 89l44 120l-182 473h24l169 -448l163 448h24zM324 708l-111 -144h-19l103 144h27z" />
    <glyph glyph-name="ycircumflex" unicode="&#x177;" horiz-adv-x="428" 
d="M404 460l-228 -612c-21 -57 -55 -90 -111 -90c-12 0 -31 3 -41 7l6 19c8 -3 24 -6 37 -6c56 0 80 47 95 89l44 120l-182 473h24l169 -448l163 448h24zM204 708h28l103 -144h-23l-94 132l-94 -132h-23z" />
    <glyph glyph-name="ydieresis" unicode="&#xff;" horiz-adv-x="428" 
d="M404 460l-228 -612c-21 -57 -55 -90 -111 -90c-12 0 -31 3 -41 7l6 19c8 -3 24 -6 37 -6c56 0 80 47 95 89l44 120l-182 473h24l169 -448l163 448h24zM140 633c-12 0 -23 10 -23 26c0 14 11 25 23 25s23 -11 23 -25c0 -16 -12 -26 -23 -26zM294 633c-12 0 -23 10 -23 26
c0 14 11 25 23 25s23 -11 23 -25c0 -16 -12 -26 -23 -26z" />
    <glyph glyph-name="ygrave" unicode="&#x1ef3;" horiz-adv-x="428" 
d="M404 460l-228 -612c-21 -57 -55 -90 -111 -90c-12 0 -31 3 -41 7l6 19c8 -3 24 -6 37 -6c56 0 80 47 95 89l44 120l-182 473h24l169 -448l163 448h24zM109 708h27l103 -144h-19z" />
    <glyph glyph-name="zacute" unicode="&#x17a;" horiz-adv-x="438" 
d="M387 0h-338v21l304 420h-288v19h310v-22l-301 -419h313v-19zM327 708l-111 -144h-19l103 144h27z" />
    <glyph glyph-name="zcaron" unicode="&#x17e;" horiz-adv-x="438" 
d="M387 0h-338v21l304 420h-288v19h310v-22l-301 -419h313v-19zM237 564h-28l-103 144h23l94 -132l94 132h23z" />
    <glyph glyph-name="zdotaccent" unicode="&#x17c;" horiz-adv-x="438" 
d="M387 0h-338v21l304 420h-288v19h310v-22l-301 -419h313v-19zM223 633c-12 0 -23 10 -23 26c0 14 11 25 23 25s23 -11 23 -25c0 -16 -12 -26 -23 -26z" />
    <glyph glyph-name="IJ" unicode="&#x132;" horiz-adv-x="707" 
d="M128 0h-22v708h22v-708zM605 193c0 -130 -62 -211 -181 -211c-83 0 -145 50 -168 111l19 9c26 -60 81 -100 149 -100c114 0 159 82 159 194v512h22v-515z" />
    <glyph glyph-name="ij" unicode="&#x133;" horiz-adv-x="455" 
d="M113 633c-12 0 -23 10 -23 26c0 14 11 25 23 25s23 -11 23 -25c0 -16 -12 -26 -23 -26zM124 0h-22v460h22v-460zM353 -97c0 -94 -21 -144 -112 -144c-9 0 -21 1 -29 3l4 19c9 -2 17 -3 25 -3c85 0 90 64 90 123v559h22v-557zM342 633c-12 0 -23 10 -23 26
c0 14 11 25 23 25s23 -11 23 -25c0 -16 -12 -26 -23 -26z" />
    <glyph glyph-name="f_i" unicode="&#xf001;" horiz-adv-x="494" 
d="M286 762l-4 -17c-13 3 -26 5 -41 5c-73 0 -98 -63 -98 -124v-166h125v-19h-125v-441h-22v441h-97v19h96v165c0 113 65 143 120 143c19 0 33 -2 46 -6zM381 633c-12 0 -23 10 -23 26c0 14 11 25 23 25s23 -11 23 -25c0 -16 -12 -26 -23 -26zM392 0h-22v460h22v-460z" />
    <glyph glyph-name="f_l" unicode="&#xf002;" horiz-adv-x="494" 
d="M286 762l-4 -17c-13 3 -26 5 -41 5c-73 0 -98 -63 -98 -124v-166h125v-19h-125v-441h-22v441h-97v19h96v165c0 113 65 143 120 143c19 0 33 -2 46 -6zM392 0h-22v756h22v-756z" />
    <glyph glyph-name="grave.cap" horiz-adv-x="240" 
d="M20 908h27l103 -144h-19z" />
    <glyph glyph-name="acute" unicode="&#xb4;" horiz-adv-x="240" 
d="M220 708l-111 -144h-19l103 144h27z" />
    <glyph glyph-name="acute.cap" horiz-adv-x="240" 
d="M220 908l-111 -144h-19l103 144h27z" />
    <glyph glyph-name="circumflex" unicode="&#x2c6;" horiz-adv-x="240" 
d="M106 708h28l103 -144h-23l-94 132l-94 -132h-23z" />
    <glyph glyph-name="circumflex.cap" horiz-adv-x="240" 
d="M106 908h28l103 -144h-23l-94 132l-94 -132h-23z" />
    <glyph glyph-name="caron" unicode="&#x2c7;" horiz-adv-x="240" 
d="M134 564h-28l-103 144h23l94 -132l94 132h23z" />
    <glyph glyph-name="caron.cap" horiz-adv-x="240" 
d="M134 764h-28l-103 144h23l94 -132l94 132h23z" />
    <glyph glyph-name="caron.alt" horiz-adv-x="240" 
d="M180 708l-58 -185h-17l51 185h24z" />
    <glyph glyph-name="tilde" unicode="&#x2dc;" horiz-adv-x="240" 
d="M123 638c36 -22 44 -24 59 -24c23 0 35 15 40 48h16c-5 -48 -29 -67 -56 -67c-21 0 -34 5 -64 24c-34 22 -44 24 -59 24c-23 0 -35 -18 -40 -51h-16c5 48 29 70 56 70c21 0 35 -6 64 -24z" />
    <glyph glyph-name="tilde.cap" horiz-adv-x="240" 
d="M123 838c36 -22 44 -24 59 -24c23 0 35 15 40 48h16c-5 -48 -29 -67 -56 -67c-21 0 -34 5 -64 24c-34 22 -44 24 -59 24c-23 0 -35 -18 -40 -51h-16c5 48 29 70 56 70c21 0 35 -6 64 -24z" />
    <glyph glyph-name="dieresis" unicode="&#xa8;" horiz-adv-x="240" 
d="M43 633c-12 0 -23 10 -23 26c0 14 11 25 23 25s23 -11 23 -25c0 -16 -12 -26 -23 -26zM197 633c-12 0 -23 10 -23 26c0 14 11 25 23 25s23 -11 23 -25c0 -16 -12 -26 -23 -26z" />
    <glyph glyph-name="dieresis.cap" horiz-adv-x="240" 
d="M43 833c-12 0 -23 10 -23 26c0 14 11 25 23 25s23 -11 23 -25c0 -16 -12 -26 -23 -26zM197 833c-12 0 -23 10 -23 26c0 14 11 25 23 25s23 -11 23 -25c0 -16 -12 -26 -23 -26z" />
    <glyph glyph-name="macron" unicode="&#xaf;" horiz-adv-x="240" 
d="M236 621h-232v20h232v-20z" />
    <glyph glyph-name="macron.cap" horiz-adv-x="240" 
d="M236 821h-232v20h232v-20z" />
    <glyph glyph-name="uni02C9" unicode="&#x2c9;" horiz-adv-x="240" 
d="M236 821h-232v20h232v-20z" />
    <glyph glyph-name="breve" unicode="&#x2d8;" horiz-adv-x="240" 
d="M245 698c-13 -81 -61 -126 -127 -126c-65 0 -114 45 -124 126h19c13 -69 53 -106 105 -106c59 0 93 32 109 106h18z" />
    <glyph glyph-name="breve.cap" horiz-adv-x="240" 
d="M245 898c-13 -81 -61 -126 -127 -126c-65 0 -114 45 -124 126h19c13 -69 53 -106 105 -106c59 0 93 32 109 106h18z" />
    <glyph glyph-name="ring" unicode="&#x2da;" horiz-adv-x="240" 
d="M216 650c0 -54 -44 -95 -96 -95s-96 41 -96 95s44 95 96 95s96 -41 96 -95zM197 650c0 43 -34 78 -77 78s-77 -35 -77 -78s34 -78 77 -78s77 35 77 78z" />
    <glyph glyph-name="ring.cap" horiz-adv-x="240" 
d="M216 850c0 -54 -44 -95 -96 -95s-96 41 -96 95s44 95 96 95s96 -41 96 -95zM197 850c0 43 -34 78 -77 78s-77 -35 -77 -78s34 -78 77 -78s77 35 77 78z" />
    <glyph glyph-name="hungarumlaut" unicode="&#x2dd;" horiz-adv-x="240" 
d="M171 708l-111 -145h-19l103 145h27zM288 708l-111 -145h-19l103 145h27z" />
    <glyph glyph-name="hungarumlaut.cap" horiz-adv-x="240" 
d="M171 908l-111 -145h-19l103 145h27zM288 908l-111 -145h-19l103 145h27z" />
    <glyph glyph-name="dotaccent" unicode="&#x2d9;" horiz-adv-x="240" 
d="M120 633c-12 0 -23 10 -23 26c0 14 11 25 23 25s23 -11 23 -25c0 -16 -12 -26 -23 -26z" />
    <glyph glyph-name="dotaccent.cap" horiz-adv-x="240" 
d="M120 833c-12 0 -23 10 -23 26c0 14 11 25 23 25s23 -11 23 -25c0 -16 -12 -26 -23 -26z" />
    <glyph glyph-name="cedilla" unicode="&#xb8;" horiz-adv-x="240" 
d="M219 -146c0 -64 -69 -80 -112 -80c-25 0 -61 7 -90 20l5 17c25 -13 62 -18 86 -18c39 0 90 11 90 61c0 42 -40 51 -72 51c-18 0 -53 -6 -69 -15l-10 9l69 101h21l-59 -86c19 6 35 8 54 8c40 0 87 -16 87 -68z" />
    <glyph glyph-name="ogonek" unicode="&#x2db;" horiz-adv-x="240" 
d="M196 -176l10 -16c-21 -19 -51 -31 -82 -31c-47 0 -84 29 -84 80c0 52 44 97 92 143h23c-61 -61 -93 -96 -93 -141c0 -40 26 -64 65 -64c27 0 53 12 69 29z" />
    <glyph glyph-name="commaaccent" horiz-adv-x="240" 
d="M150 -45l-58 -185h-17l51 185h24z" />
    <glyph glyph-name="commaaccent.alt" horiz-adv-x="240" 
d="M84 564l58 185h17l-51 -185h-24z" />
    <glyph glyph-name="ellipsis" unicode="&#x2026;" horiz-adv-x="1000" 
d="M165 -6c-12 0 -23 10 -23 26c0 14 11 25 23 25s23 -11 23 -25c0 -16 -12 -26 -23 -26zM835 -6c-12 0 -23 10 -23 26c0 14 11 25 23 25s23 -11 23 -25c0 -16 -12 -26 -23 -26zM500 -6c-12 0 -23 10 -23 26c0 14 11 25 23 25s23 -11 23 -25c0 -16 -12 -26 -23 -26z" />
    <glyph glyph-name="uni00AD" unicode="&#xad;" horiz-adv-x="300" 
d="M240 244h-180v20h180v-20z" />
    <glyph glyph-name="exclamdown" unicode="&#xa1;" horiz-adv-x="276" 
d="M138 441c-12 0 -23 10 -23 26c0 14 11 25 23 25s23 -11 23 -25c0 -16 -12 -26 -23 -26zM149 -222h-22v513h22v-513z" />
    <glyph glyph-name="questiondown" unicode="&#xbf;" horiz-adv-x="472" 
d="M230 441c-11 0 -23 10 -23 26c0 14 11 25 23 25s23 -11 23 -25c0 -16 -11 -26 -23 -26zM221 242v44h22v-53c0 -44 -11 -91 -69 -137l-34 -30c-39 -37 -70 -68 -70 -136c0 -97 72 -149 161 -149c91 0 152 60 166 144l21 -4c-18 -104 -92 -161 -189 -161
c-100 0 -181 59 -181 169c0 84 43 122 90 162c69 57 83 86 83 151z" />
    <glyph glyph-name="quoteleft" unicode="&#x2018;" horiz-adv-x="220" 
d="M70 480l63 228h17l-56 -228h-24z" />
    <glyph glyph-name="quoteright" unicode="&#x2019;" horiz-adv-x="220" 
d="M150 708l-63 -228h-17l56 228h24z" />
    <glyph glyph-name="quotedblleft" unicode="&#x201c;" 
d="M200 480l63 228h17l-56 -228h-24zM70 480l65 228h17l-58 -228h-24z" />
    <glyph glyph-name="quotedblright" unicode="&#x201d;" 
d="M150 708l-63 -228h-17l56 228h24zM280 708l-65 -228h-17l58 228h24z" />
    <glyph glyph-name="quotesinglbase" unicode="&#x201a;" horiz-adv-x="220" 
d="M150 90l-63 -228h-17l56 228h24z" />
    <glyph glyph-name="quotedblbase" unicode="&#x201e;" 
d="M150 90l-63 -228h-17l56 228h24zM280 90l-65 -228h-17l58 228h24z" />
    <glyph glyph-name="guilsinglleft" unicode="&#x2039;" horiz-adv-x="315" 
d="M221 52l-16 -12l-123 197l122 196l16 -11l-113 -185z" />
    <glyph glyph-name="guilsinglright" unicode="&#x203a;" horiz-adv-x="315" 
d="M233 237l-122 -196l-16 11l113 185l-114 185l16 12z" />
    <glyph glyph-name="guillemotleft" unicode="&#xab;" horiz-adv-x="481" 
d="M387 52l-16 -12l-123 197l122 196l16 -11l-113 -185zM221 52l-16 -12l-123 197l122 196l16 -11l-113 -185z" />
    <glyph glyph-name="guillemotright" unicode="&#xbb;" horiz-adv-x="481" 
d="M399 237l-122 -196l-16 11l113 185l-114 185l16 12zM233 237l-122 -196l-16 11l113 185l-114 185l16 12z" />
    <glyph glyph-name="endash" unicode="&#x2013;" horiz-adv-x="400" 
d="M370 244h-340v20h340v-20z" />
    <glyph glyph-name="emdash" unicode="&#x2014;" horiz-adv-x="600" 
d="M570 244h-540v20h540v-20z" />
    <glyph glyph-name="bullet" unicode="&#x2022;" horiz-adv-x="500" 
d="M73 354c0 98 79 177 177 177s177 -79 177 -177s-79 -177 -177 -177s-177 79 -177 177z" />
    <glyph glyph-name="periodcentered" unicode="&#xb7;" horiz-adv-x="240" 
d="M120 229c-12 0 -23 10 -23 26c0 14 11 25 23 25s23 -11 23 -25c0 -16 -12 -26 -23 -26z" />
    <glyph glyph-name="uni2219" unicode="&#x2219;" horiz-adv-x="240" 
d="M120 229c-12 0 -23 10 -23 26c0 14 11 25 23 25s23 -11 23 -25c0 -16 -12 -26 -23 -26z" />
    <glyph glyph-name="dagger" unicode="&#x2020;" horiz-adv-x="520" 
d="M466 481h-194v-607h-22v607h-196v20h196v207h22v-207h194v-20z" />
    <glyph glyph-name="daggerdbl" unicode="&#x2021;" horiz-adv-x="520" 
d="M250 481h-196v20h196v207h22v-207h194v-20h-194v-380h194v-20h-194v-207h-22v207h-196v20h196v380z" />
    <glyph glyph-name="section" unicode="&#xa7;" horiz-adv-x="560" 
d="M317 147c68 -28 109 -66 109 -132c0 -96 -79 -149 -174 -149c-69 0 -126 26 -166 68l17 17c36 -42 89 -65 151 -65c81 0 150 43 150 127c0 73 -63 104 -135 133l-37 15c-89 36 -134 65 -134 148s72 127 131 138c-66 30 -104 57 -104 134c0 93 77 147 172 147
c62 0 116 -19 148 -63l-17 -15c-25 39 -77 59 -134 59c-73 0 -148 -43 -148 -131c0 -80 63 -103 130 -130l32 -13c93 -38 145 -74 145 -148c0 -86 -67 -130 -136 -140zM292 159c70 5 139 44 139 126c0 73 -63 106 -136 134l-41 16c-62 -9 -134 -46 -134 -129
c0 -78 65 -106 128 -130z" />
    <glyph glyph-name="paragraph" unicode="&#xb6;" horiz-adv-x="600" 
d="M489 -126h-22v817h-155v-817h-22v467c-132 0 -214 81 -214 178c0 124 82 189 222 189h191v-834z" />
    <glyph glyph-name="brokenbar" unicode="&#xa6;" horiz-adv-x="222" 
d="M120 344h-17v331h17v-331zM120 -175h-17v331h17v-331z" />
    <glyph glyph-name="copyright" unicode="&#xa9;" horiz-adv-x="800" 
d="M20 353c0 210 171 377 381 377c209 0 379 -167 379 -377c0 -209 -170 -375 -379 -375c-210 0 -381 166 -381 375zM42 353c0 -196 162 -353 359 -353c196 0 357 157 357 353c0 197 -161 355 -357 355c-197 0 -359 -158 -359 -355zM555 520l-17 -15c-31 33 -76 53 -121 53
c-118 0 -194 -96 -194 -207s76 -205 194 -205c46 0 93 17 125 48l15 -14c-37 -37 -90 -54 -140 -54c-125 0 -216 94 -216 225s91 226 216 226c53 0 104 -22 138 -57z" />
    <glyph glyph-name="registered" unicode="&#xae;" horiz-adv-x="600" 
d="M400 371h-26l-74 110h-55v-110h-21v251h84c51 0 82 -24 82 -70c0 -44 -34 -66 -67 -68zM369 553c0 40 -31 50 -61 50h-63v-105h48c46 0 76 13 76 55zM72 494c0 126 103 226 229 226c125 0 227 -100 227 -226s-102 -225 -227 -225c-126 0 -229 99 -229 225zM93 494
c0 -112 94 -206 208 -206c113 0 206 94 206 206c0 113 -93 206 -206 206c-114 0 -208 -93 -208 -206z" />
    <glyph glyph-name="trademark" unicode="&#x2122;" horiz-adv-x="1000" 
d="M891 296h-22v391h-2l-169 -391h-13l-166 391h-2v-391h-22v412h37l160 -377l161 377h38v-412zM389 689h-134v-393h-22v393h-133v19h289v-19z" />
    <glyph glyph-name="currency" unicode="&#xa4;" horiz-adv-x="800" 
d="M565 124c-42 -37 -98 -59 -164 -59s-122 22 -164 61l-97 -96l-15 16l96 96c-38 42 -60 100 -60 168c0 65 21 121 56 163l-92 91l16 16l91 -91c42 40 100 64 169 64c68 0 126 -23 168 -63l90 90l16 -16l-90 -90c36 -42 57 -98 57 -164c0 -68 -23 -127 -61 -170l94 -94
l-15 -16zM620 310c0 124 -84 224 -219 224s-218 -100 -218 -224s83 -226 218 -226s219 102 219 226z" />
    <glyph glyph-name="Euro" unicode="&#x20ac;" horiz-adv-x="560" 
d="M508 675c-38 22 -80 33 -136 33c-130 0 -230 -94 -262 -264h342l-7 -19h-338c-3 -20 -5 -52 -5 -77c0 -18 1 -47 3 -64h297l-6 -19h-289c23 -163 129 -265 261 -265c59 0 110 15 150 46l11 -19c-42 -31 -98 -47 -167 -47c-154 0 -253 126 -276 285h-65l8 19h55
c-2 17 -3 45 -3 64c0 23 1 56 4 77h-62l6 19h59c36 188 147 284 286 284c53 0 106 -13 143 -33z" />
    <glyph glyph-name="cent" unicode="&#xa2;" horiz-adv-x="560" 
d="M323 454v-448c49 1 98 19 133 52l15 -14c-39 -39 -95 -56 -148 -57v-59h-22v59c-126 7 -217 106 -217 242c0 135 90 236 217 244v67h22v-67c56 -1 110 -24 146 -61l-17 -15c-34 35 -81 56 -129 57zM301 454c-120 -8 -195 -109 -195 -225c0 -115 75 -215 195 -223v448z
" />
    <glyph glyph-name="sterling" unicode="&#xa3;" horiz-adv-x="560" 
d="M207 379h170v-19h-170v-340h256v-20h-387v20h109v340h-98v19h98v136c0 130 62 211 181 211c48 0 89 -17 119 -43l-14 -16c-28 24 -64 39 -105 39c-114 0 -159 -82 -159 -194v-133z" />
    <glyph glyph-name="florin" unicode="&#x192;" horiz-adv-x="560" 
d="M484 701l-12 -18c-13 10 -35 18 -54 18c-70 0 -95 -58 -105 -112l-33 -181h118v-19h-121l-74 -409c-13 -74 -42 -124 -119 -124c-21 0 -42 3 -58 13l10 19c16 -8 32 -12 48 -12c70 0 90 55 103 129l68 384h-111v19h114l31 173c13 71 42 139 128 139c28 0 52 -7 67 -19z
" />
    <glyph glyph-name="yen" unicode="&#xa5;" horiz-adv-x="560" 
d="M269 354h-190v19h182l-235 335h26l229 -331l228 331h25l-233 -335h180v-19h-190v-131h190v-19h-190v-204h-22v204h-190v19h190v131z" />
    <glyph glyph-name="ordfeminine" unicode="&#xaa;" 
d="M266 604v11c0 58 -32 87 -89 87c-40 0 -76 -15 -100 -39l-11 17c23 23 63 40 111 40c65 0 109 -34 109 -102v-124c0 -21 2 -47 5 -63h-20c-3 14 -5 31 -5 64h-1c-24 -49 -73 -71 -118 -71c-43 0 -98 23 -98 85c0 87 108 95 217 95zM266 586h-15c-98 0 -182 -9 -182 -77
c0 -50 44 -66 84 -66c72 0 113 54 113 116v27z" />
    <glyph glyph-name="ordmasculine" unicode="&#xba;" 
d="M317 573c0 -87 -58 -149 -142 -149s-142 62 -142 149s58 148 142 148s142 -61 142 -148zM53 573c0 -73 46 -132 122 -132c77 0 122 59 122 132c0 72 -45 130 -122 130c-76 0 -122 -58 -122 -130z" />
    <glyph glyph-name="fraction" unicode="&#x2044;" horiz-adv-x="100" 
d="M262 725l-440 -752l-16 11l440 752z" />
    <glyph glyph-name="uni2215" unicode="&#x2215;" horiz-adv-x="100" 
d="M262 725l-440 -752l-16 11l440 752z" />
    <glyph glyph-name="onequarter" unicode="&#xbc;" horiz-adv-x="800" 
d="M612 725l-440 -752l-16 11l440 752zM190 288h-21v398l-96 -64l-12 16l109 70h20v-420zM651 107h-194v22l183 291h31v-295h67v-18h-67v-107h-20v107zM476 125h175v272h-3z" />
    <glyph glyph-name="onehalf" unicode="&#xbd;" horiz-adv-x="800" 
d="M612 725l-440 -752l-16 11l440 752zM190 288h-21v398l-96 -64l-12 16l109 70h20v-420zM500 18h227v-18h-249v20l154 169c61 67 74 97 74 132c0 60 -41 92 -96 92c-47 0 -84 -22 -99 -75l-19 6c16 62 65 87 118 87c77 0 116 -49 116 -105c0 -52 -16 -78 -85 -153z" />
    <glyph glyph-name="threequarters" unicode="&#xbe;" horiz-adv-x="800" 
d="M612 725l-440 -752l-16 11l440 752zM285 398c0 -77 -53 -120 -125 -120c-60 0 -101 29 -121 70l18 7c22 -43 66 -59 103 -59c63 0 105 37 105 103c0 67 -61 102 -121 102h-17v18h16c72 0 107 46 107 95c0 59 -42 89 -90 89c-36 0 -69 -18 -85 -43l-15 11
c23 31 55 49 100 49c71 0 110 -43 110 -106c0 -58 -38 -96 -93 -103v-2c67 -7 108 -50 108 -111zM651 107h-194v22l183 291h31v-295h67v-18h-67v-107h-20v107zM476 125h175v272h-3z" />
    <glyph glyph-name="perthousand" unicode="&#x2030;" horiz-adv-x="1000" 
d="M334 570c0 -83 -66 -146 -146 -146s-145 63 -145 146s65 148 145 148s146 -65 146 -148zM312 570c0 73 -55 128 -124 128c-68 0 -122 -55 -122 -128s54 -127 122 -127c69 0 124 54 124 127zM623 141c0 -83 -66 -146 -146 -146s-145 63 -145 146s65 148 145 148
s146 -65 146 -148zM601 141c0 73 -55 128 -124 128c-68 0 -122 -55 -122 -128s54 -127 122 -127c69 0 124 54 124 127zM965 141c0 -83 -66 -146 -146 -146s-145 63 -145 146s65 148 145 148s146 -65 146 -148zM943 141c0 73 -55 128 -124 128c-68 0 -122 -55 -122 -128
s54 -127 122 -127c69 0 124 54 124 127zM560 721l-452 -745l-16 11l452 745z" />
    <glyph glyph-name="minus" unicode="&#x2212;" horiz-adv-x="666" 
d="M566 297h-466v19h466v-19z" />
    <glyph glyph-name="plusminus" unicode="&#xb1;" horiz-adv-x="666" 
d="M573 342h-231v-192h-22v192h-226v20h225v196h22v-196h232v-20zM569 48h-471v20h471v-20z" />
    <glyph glyph-name="multiply" unicode="&#xd7;" horiz-adv-x="666" 
d="M347 308l180 -180l-14 -13l-179 179l-179 -179l-14 13l180 180l-180 180l13 13l180 -180l180 180l13 -13z" />
    <glyph glyph-name="divide" unicode="&#xf7;" horiz-adv-x="666" 
d="M369 470c0 -21 -17 -38 -36 -38s-35 17 -35 38s16 38 35 38s36 -17 36 -38zM573 293h-479v20h479v-20zM369 136c0 -21 -17 -38 -36 -38s-35 17 -35 38c0 22 15 38 35 38c19 0 36 -17 36 -38z" />
    <glyph glyph-name="notequal" unicode="&#x2260;" horiz-adv-x="666" 
d="M352 380h-252v19h261l73 147l18 -8l-69 -139h183v-19h-192l-75 -152h267v-19h-277l-85 -172l-17 9l81 163h-168v19h177z" />
    <glyph glyph-name="approxequal" unicode="&#x2248;" horiz-adv-x="666" 
d="M437 328c73 1 94 43 102 89h18c-6 -55 -37 -109 -121 -110c-87 0 -200 69 -272 69c-77 0 -98 -42 -106 -88h-18c6 55 37 109 118 109c87 0 202 -69 279 -69zM437 140c73 1 94 43 102 89h18c-6 -55 -37 -109 -121 -110c-87 0 -200 69 -272 69c-77 0 -98 -42 -106 -88h-18
c6 55 37 109 118 109c87 0 202 -69 279 -69z" />
    <glyph glyph-name="lessequal" unicode="&#x2264;" horiz-adv-x="666" 
d="M566 0h-466v20h466v-20zM566 67l-466 224v24l466 224v-20l-454 -216l454 -216v-20z" />
    <glyph glyph-name="greaterequal" unicode="&#x2265;" horiz-adv-x="666" 
d="M100 0v20h466v-20h-466zM100 67v20l454 216l-454 216v20l466 -224v-24z" />
    <glyph glyph-name="logicalnot" unicode="&#xac;" horiz-adv-x="666" 
d="M573 134h-22v246h-457v19h479v-265z" />
    <glyph glyph-name="Delta" unicode="&#x2206;" horiz-adv-x="670" 
d="M648 0h-626v18l305 690h28l293 -690v-18zM623 20l-283 674l-293 -674h576z" />
    <glyph glyph-name="Omega" unicode="&#x2126;" horiz-adv-x="777" 
d="M389 707c-163 0 -294 -106 -294 -301c0 -141 87 -253 216 -285v-121h-231v20h211v85c-108 32 -219 128 -219 302c0 208 143 321 317 321c173 0 316 -113 316 -322c0 -152 -92 -264 -219 -301v-85h211v-20h-231v121c129 32 216 144 216 285c0 195 -130 301 -293 301z" />
    <glyph glyph-name="mu" unicode="&#xb5;" horiz-adv-x="591" 
d="M102 460h22v-276c0 -76 28 -179 144 -179c101 0 183 85 183 225v230h22v-382c0 -60 16 -71 50 -71c11 0 17 1 25 3l3 -17c-7 -3 -15 -5 -29 -5c-69 0 -71 48 -71 93v40h-1c-30 -86 -102 -135 -182 -135c-69 0 -119 31 -142 82h-2v-308h-22v700z" />
    <glyph glyph-name="degree" unicode="&#xb0;" horiz-adv-x="400" 
d="M345 571c0 -80 -65 -145 -145 -145s-145 65 -145 145s65 145 145 145s145 -65 145 -145zM325 571c0 69 -56 125 -125 125s-125 -56 -125 -125s56 -125 125 -125s125 56 125 125z" />
    <glyph glyph-name="afii61289" unicode="&#x2113;" horiz-adv-x="500" 
d="M286 -14c-51 0 -101 27 -101 115v164l-61 -71h-2l-10 10l73 83v274c0 111 44 160 94 160c46 0 81 -40 81 -113c0 -95 -59 -210 -157 -327v-177c0 -82 48 -101 85 -101c29 0 61 12 88 40h2l9 -11c-30 -31 -66 -46 -101 -46zM343 605c0 61 -30 99 -64 99
c-38 0 -76 -40 -76 -143v-258c86 104 140 216 140 302z" />
    <glyph glyph-name="estimated" unicode="&#x212e;" horiz-adv-x="500" 
d="M561 259h-404v-181c39 -39 87 -59 145 -59c83 0 143 36 193 120l35 -21c-61 -95 -123 -135 -228 -135c-157 0 -258 122 -258 276c0 155 101 276 258 276c154 0 258 -114 259 -276zM157 295h291v145c-42 40 -91 60 -147 60c-57 0 -105 -21 -144 -60v-145z" />
    <glyph glyph-name="infinity" unicode="&#x221e;" horiz-adv-x="722" 
d="M370 234c-46 -53 -117 -120 -178 -120c-69 0 -119 54 -119 134c0 79 50 133 119 133c61 0 132 -67 178 -121c46 54 117 121 178 121c69 0 119 -54 119 -133c0 -80 -50 -134 -119 -134c-61 0 -132 67 -178 120zM382 246c77 -82 120 -114 166 -114c64 0 99 55 99 114
c0 62 -35 117 -99 117c-46 0 -90 -34 -166 -117zM358 246c-76 83 -120 117 -166 117c-64 0 -99 -55 -99 -117c0 -59 35 -114 99 -114c46 0 89 32 166 114z" />
    <glyph glyph-name="partialdiff" unicode="&#x2202;" horiz-adv-x="475" 
d="M401 298c1 29 2 53 2 82c0 207 -82 325 -200 325c-45 0 -76 -13 -110 -40l-11 16c37 31 74 44 119 44c159 0 222 -151 222 -359c0 -148 -26 -232 -57 -288c-40 -71 -89 -95 -148 -95c-103 0 -178 97 -178 220c0 140 81 210 176 210c78 0 148 -46 185 -115zM397 276
c-41 68 -104 116 -178 116c-104 0 -155 -94 -155 -188c0 -88 52 -199 155 -199c134 0 172 172 178 271z" />
    <glyph glyph-name="integral" unicode="&#x222b;" horiz-adv-x="535" 
d="M258 71c0 -108 -2 -148 -6 -173c-10 -64 -41 -102 -89 -102c-25 0 -45 10 -45 30c0 13 11 20 20 20s17 -9 22 -20c4 -9 11 -11 20 -11c33 0 56 58 56 175v509c0 108 2 148 6 173c10 64 41 102 89 102c25 0 45 -10 45 -30c0 -13 -11 -20 -20 -20s-17 9 -22 20
c-4 9 -11 11 -20 11c-33 0 -56 -58 -56 -172v-512z" />
    <glyph glyph-name="radical" unicode="&#x221a;" horiz-adv-x="475" 
d="M261 -215h-31l-168 368l-62 -30l-8 20l81 37l170 -373l205 979h22z" />
    <glyph glyph-name="summation" unicode="&#x2211;" horiz-adv-x="593" 
d="M548 -214h-503v22l339 481l-325 475v22h478v-20h-452l330 -477l-342 -483h475v-20z" />
    <glyph glyph-name="product" unicode="&#x220f;" horiz-adv-x="704" 
d="M612 -214h-22v980h-476v-980h-22v1000h520v-1000z" />
    <glyph glyph-name="lozenge" unicode="&#x25ca;" horiz-adv-x="593" 
d="M470 356l-163 -391h-24l-161 391l161 391h24zM446 356l-151 377l-151 -377l151 -377z" />
    <glyph glyph-name="uniF8FF" unicode="&#xf8ff;" horiz-adv-x="512" 
d="M278 117h-56v67h56v-67zM271 234h-46l-2 17c0 37 4 64 13 81s24 37 46 59c43 41 50 58 50 83c0 48 -35 85 -76 85s-74 -27 -82 -95l-50 8c9 95 63 137 135 137c71 0 124 -52 124 -131c0 -43 -12 -73 -63 -120c-25 -22 -39 -39 -43 -52s-6 -37 -6 -72zM50 50h412v617h-412
v-617zM0 718h512v-718h-512v718z" />
    <glyph glyph-name="uni03A9" unicode="&#x3a9;" horiz-adv-x="777" 
d="M389 707c-163 0 -294 -106 -294 -301c0 -141 87 -253 216 -285v-121h-231v20h211v85c-108 32 -219 128 -219 302c0 208 143 321 317 321c173 0 316 -113 316 -322c0 -152 -92 -264 -219 -301v-85h211v-20h-231v121c129 32 216 144 216 285c0 195 -130 301 -293 301z" />
    <glyph glyph-name="uni03BC" unicode="&#x3bc;" horiz-adv-x="591" 
d="M102 460h22v-276c0 -76 28 -179 144 -179c101 0 183 85 183 225v230h22v-382c0 -60 16 -71 50 -71c11 0 17 1 25 3l3 -17c-7 -3 -15 -5 -29 -5c-69 0 -71 48 -71 93v40h-1c-30 -86 -102 -135 -182 -135c-69 0 -119 31 -142 82h-2v-308h-22v700z" />
    <glyph glyph-name="pi" unicode="&#x3c0;" horiz-adv-x="619" 
d="M438 440v-347c0 -51 9 -86 62 -86c22 0 39 6 47 9l3 -17c-9 -4 -29 -11 -53 -11c-69 0 -80 49 -80 103v349h-232l-70 -440h-22l71 440h-134v20h539v-20h-131z" />
    <glyph glyph-name="uni0394" unicode="&#x394;" horiz-adv-x="670" 
d="M648 0h-626v18l305 690h28l293 -690v-18zM623 20l-283 674l-293 -674h576z" />
    <glyph glyph-name="zero.denominator" 
d="M175 -11c-111 0 -132 124 -132 221c0 96 21 221 132 221s132 -123 132 -221c0 -97 -21 -221 -132 -221zM175 413c-102 0 -111 -142 -111 -203s9 -203 111 -203c101 0 111 142 111 203c0 63 -10 203 -111 203z" />
    <glyph glyph-name="one.denominator" 
d="M196 0h-21v398l-96 -64l-12 16l109 70h20v-420z" />
    <glyph glyph-name="two.denominator" 
d="M71 18h227v-18h-249v20l154 169c61 67 74 97 74 132c0 60 -41 92 -96 92c-47 0 -84 -22 -99 -75l-19 6c16 62 65 87 118 87c77 0 116 -49 116 -105c0 -52 -16 -78 -85 -153z" />
    <glyph glyph-name="three.denominator" 
d="M285 109c0 -77 -53 -120 -125 -120c-60 0 -101 29 -121 70l18 7c22 -43 66 -59 103 -59c63 0 105 37 105 103c0 67 -61 102 -121 102h-17v18h16c72 0 107 46 107 95c0 59 -42 89 -90 89c-36 0 -69 -18 -85 -43l-15 11c23 31 55 49 100 49c71 0 110 -43 110 -106
c0 -58 -38 -96 -93 -103v-2c67 -7 108 -50 108 -111z" />
    <glyph glyph-name="four.denominator" 
d="M227 107h-194v22l183 291h31v-295h67v-18h-67v-107h-20v107zM52 125h175v272h-3z" />
    <glyph glyph-name="five.denominator" 
d="M301 126c0 -89 -64 -137 -132 -137c-55 0 -93 23 -117 61l17 10c22 -32 54 -53 100 -53c57 0 112 40 112 119c0 67 -43 118 -118 118c-26 0 -56 -10 -82 -24l4 200h197v-18h-177l-3 -155c21 9 41 14 65 14c83 0 134 -58 134 -135z" />
    <glyph glyph-name="six.denominator" 
d="M47 118c0 31 11 67 37 112l110 190h24l-116 -196l1 -1c22 17 47 27 77 27c69 0 123 -54 123 -132c0 -75 -54 -129 -129 -129s-127 53 -127 129zM68 118c0 -65 44 -111 107 -111c62 0 107 46 107 111c0 67 -44 114 -104 114s-110 -48 -110 -114z" />
    <glyph glyph-name="seven.denominator" 
d="M294 420v-19l-173 -401h-22l174 402h-210v18h231z" />
    <glyph glyph-name="eight.denominator" 
d="M304 111c0 -74 -55 -122 -128 -122s-129 48 -129 122c0 48 30 96 85 114v1c-47 19 -69 60 -69 99c0 63 49 106 113 106s112 -43 112 -106c0 -41 -24 -80 -69 -99v-1c56 -18 85 -66 85 -114zM284 111c0 61 -50 106 -108 106c-59 0 -109 -45 -109 -106
c0 -59 45 -104 109 -104s108 45 108 104zM268 325c0 52 -41 88 -92 88s-93 -36 -93 -88c0 -50 40 -92 93 -92s92 43 92 92z" />
    <glyph glyph-name="nine.denominator" 
d="M303 301c0 -30 -11 -64 -37 -109l-111 -192h-24l117 198l-1 1c-23 -19 -49 -27 -77 -27c-69 0 -123 54 -123 129s54 130 128 130c75 0 128 -54 128 -130zM282 301c0 65 -45 112 -107 112c-63 0 -107 -47 -107 -112c0 -64 44 -111 104 -111c59 0 110 48 110 111z" />
    <glyph glyph-name="zero.inferior" unicode="&#x2080;" 
d="M175 -148c-111 0 -132 124 -132 221c0 96 21 221 132 221s132 -123 132 -221c0 -97 -21 -221 -132 -221zM175 276c-102 0 -111 -142 -111 -203s9 -203 111 -203c101 0 111 142 111 203c0 63 -10 203 -111 203z" />
    <glyph glyph-name="one.inferior" unicode="&#x2081;" 
d="M196 -137h-21v398l-96 -64l-12 16l109 70h20v-420z" />
    <glyph glyph-name="two.inferior" unicode="&#x2082;" 
d="M71 -119h227v-18h-249v20l154 169c61 67 74 97 74 132c0 60 -41 92 -96 92c-47 0 -84 -22 -99 -75l-19 6c16 62 65 87 118 87c77 0 116 -49 116 -105c0 -52 -16 -78 -85 -153z" />
    <glyph glyph-name="three.inferior" unicode="&#x2083;" 
d="M285 -28c0 -77 -53 -120 -125 -120c-60 0 -101 29 -121 70l18 7c22 -43 66 -59 103 -59c63 0 105 37 105 103c0 67 -61 102 -121 102h-17v18h16c72 0 107 46 107 95c0 59 -42 89 -90 89c-36 0 -69 -18 -85 -43l-15 11c23 31 55 49 100 49c71 0 110 -43 110 -106
c0 -58 -38 -96 -93 -103v-2c67 -7 108 -50 108 -111z" />
    <glyph glyph-name="four.inferior" unicode="&#x2084;" 
d="M227 -30h-194v22l183 291h31v-295h67v-18h-67v-107h-20v107zM52 -12h175v272h-3z" />
    <glyph glyph-name="five.inferior" unicode="&#x2085;" 
d="M301 -11c0 -89 -64 -137 -132 -137c-55 0 -93 23 -117 61l17 10c22 -32 54 -53 100 -53c57 0 112 40 112 119c0 67 -43 118 -118 118c-26 0 -56 -10 -82 -24l4 200h197v-18h-177l-3 -155c21 9 41 14 65 14c83 0 134 -58 134 -135z" />
    <glyph glyph-name="six.inferior" unicode="&#x2086;" 
d="M47 -19c0 31 11 67 37 112l110 190h24l-116 -196l1 -1c22 17 47 27 77 27c69 0 123 -54 123 -132c0 -75 -54 -129 -129 -129s-127 53 -127 129zM68 -19c0 -65 44 -111 107 -111c62 0 107 46 107 111c0 67 -44 114 -104 114s-110 -48 -110 -114z" />
    <glyph glyph-name="seven.inferior" unicode="&#x2087;" 
d="M294 283v-19l-173 -401h-22l174 402h-210v18h231z" />
    <glyph glyph-name="eight.inferior" unicode="&#x2088;" 
d="M304 -26c0 -74 -55 -122 -128 -122s-129 48 -129 122c0 48 30 96 85 114v1c-47 19 -69 60 -69 99c0 63 49 106 113 106s112 -43 112 -106c0 -41 -24 -80 -69 -99v-1c56 -18 85 -66 85 -114zM284 -26c0 61 -50 106 -108 106c-59 0 -109 -45 -109 -106
c0 -59 45 -104 109 -104s108 45 108 104zM268 188c0 52 -41 88 -92 88s-93 -36 -93 -88c0 -50 40 -92 93 -92s92 43 92 92z" />
    <glyph glyph-name="nine.inferior" unicode="&#x2089;" 
d="M303 164c0 -30 -11 -64 -37 -109l-111 -192h-24l117 198l-1 1c-23 -19 -49 -27 -77 -27c-69 0 -123 54 -123 129s54 130 128 130c75 0 128 -54 128 -130zM282 164c0 65 -45 112 -107 112c-63 0 -107 -47 -107 -112c0 -64 44 -111 104 -111c59 0 110 48 110 111z" />
    <glyph glyph-name="zero.numerator" 
d="M175 277c-111 0 -132 124 -132 221c0 96 21 221 132 221s132 -123 132 -221c0 -97 -21 -221 -132 -221zM175 701c-102 0 -111 -142 -111 -203s9 -203 111 -203c101 0 111 142 111 203c0 63 -10 203 -111 203z" />
    <glyph glyph-name="one.numerator" 
d="M196 288h-21v398l-96 -64l-12 16l109 70h20v-420z" />
    <glyph glyph-name="two.numerator" 
d="M71 306h227v-18h-249v20l154 169c61 67 74 97 74 132c0 60 -41 92 -96 92c-47 0 -84 -22 -99 -75l-19 6c16 62 65 87 118 87c77 0 116 -49 116 -105c0 -52 -16 -78 -85 -153z" />
    <glyph glyph-name="three.numerator" 
d="M285 397c0 -77 -53 -120 -125 -120c-60 0 -101 29 -121 70l18 7c22 -43 66 -59 103 -59c63 0 105 37 105 103c0 67 -61 102 -121 102h-17v18h16c72 0 107 46 107 95c0 59 -42 89 -90 89c-36 0 -69 -18 -85 -43l-15 11c23 31 55 49 100 49c71 0 110 -43 110 -106
c0 -58 -38 -96 -93 -103v-2c67 -7 108 -50 108 -111z" />
    <glyph glyph-name="four.numerator" 
d="M227 395h-194v22l183 291h31v-295h67v-18h-67v-107h-20v107zM52 413h175v272h-3z" />
    <glyph glyph-name="five.numerator" 
d="M301 414c0 -89 -64 -137 -132 -137c-55 0 -93 23 -117 61l17 10c22 -32 54 -53 100 -53c57 0 112 40 112 119c0 67 -43 118 -118 118c-26 0 -56 -10 -82 -24l4 200h197v-18h-177l-3 -155c21 9 41 14 65 14c83 0 134 -58 134 -135z" />
    <glyph glyph-name="six.numerator" 
d="M47 406c0 31 11 67 37 112l110 190h24l-116 -196l1 -1c22 17 47 27 77 27c69 0 123 -54 123 -132c0 -75 -54 -129 -129 -129s-127 53 -127 129zM68 406c0 -65 44 -111 107 -111c62 0 107 46 107 111c0 67 -44 114 -104 114s-110 -48 -110 -114z" />
    <glyph glyph-name="seven.numerator" 
d="M294 708v-19l-173 -401h-22l174 402h-210v18h231z" />
    <glyph glyph-name="eight.numerator" 
d="M304 399c0 -74 -55 -122 -128 -122s-129 48 -129 122c0 48 30 96 85 114v1c-47 19 -69 60 -69 99c0 63 49 106 113 106s112 -43 112 -106c0 -41 -24 -80 -69 -99v-1c56 -18 85 -66 85 -114zM284 399c0 61 -50 106 -108 106c-59 0 -109 -45 -109 -106
c0 -59 45 -104 109 -104s108 45 108 104zM268 613c0 52 -41 88 -92 88s-93 -36 -93 -88c0 -50 40 -92 93 -92s92 43 92 92z" />
    <glyph glyph-name="nine.numerator" 
d="M303 589c0 -30 -11 -64 -37 -109l-111 -192h-24l117 198l-1 1c-23 -19 -49 -27 -77 -27c-69 0 -123 54 -123 129s54 130 128 130c75 0 128 -54 128 -130zM282 589c0 65 -45 112 -107 112c-63 0 -107 -47 -107 -112c0 -64 44 -111 104 -111c59 0 110 48 110 111z" />
    <glyph glyph-name="zero.superior" unicode="&#x2070;" 
d="M175 442c-111 0 -132 124 -132 221c0 96 21 221 132 221s132 -123 132 -221c0 -97 -21 -221 -132 -221zM175 866c-102 0 -111 -142 -111 -203s9 -203 111 -203c101 0 111 142 111 203c0 63 -10 203 -111 203z" />
    <glyph glyph-name="onesuperior" unicode="&#xb9;" 
d="M196 453h-21v398l-96 -64l-12 16l109 70h20v-420z" />
    <glyph glyph-name="twosuperior" unicode="&#xb2;" 
d="M71 471h227v-18h-249v20l154 169c61 67 74 97 74 132c0 60 -41 92 -96 92c-47 0 -84 -22 -99 -75l-19 6c16 62 65 87 118 87c77 0 116 -49 116 -105c0 -52 -16 -78 -85 -153z" />
    <glyph glyph-name="threesuperior" unicode="&#xb3;" 
d="M285 562c0 -77 -53 -120 -125 -120c-60 0 -101 29 -121 70l18 7c22 -43 66 -59 103 -59c63 0 105 37 105 103c0 67 -61 102 -121 102h-17v18h16c72 0 107 46 107 95c0 59 -42 89 -90 89c-36 0 -69 -18 -85 -43l-15 11c23 31 55 49 100 49c71 0 110 -43 110 -106
c0 -58 -38 -96 -93 -103v-2c67 -7 108 -50 108 -111z" />
    <glyph glyph-name="four.superior" unicode="&#x2074;" 
d="M227 560h-194v22l183 291h31v-295h67v-18h-67v-107h-20v107zM52 578h175v272h-3z" />
    <glyph glyph-name="five.superior" unicode="&#x2075;" 
d="M301 579c0 -89 -64 -137 -132 -137c-55 0 -93 23 -117 61l17 10c22 -32 54 -53 100 -53c57 0 112 40 112 119c0 67 -43 118 -118 118c-26 0 -56 -10 -82 -24l4 200h197v-18h-177l-3 -155c21 9 41 14 65 14c83 0 134 -58 134 -135z" />
    <glyph glyph-name="six.superior" unicode="&#x2076;" 
d="M47 571c0 31 11 67 37 112l110 190h24l-116 -196l1 -1c22 17 47 27 77 27c69 0 123 -54 123 -132c0 -75 -54 -129 -129 -129s-127 53 -127 129zM68 571c0 -65 44 -111 107 -111c62 0 107 46 107 111c0 67 -44 114 -104 114s-110 -48 -110 -114z" />
    <glyph glyph-name="seven.superior" unicode="&#x2077;" 
d="M294 873v-19l-173 -401h-22l174 402h-210v18h231z" />
    <glyph glyph-name="eight.superior" unicode="&#x2078;" 
d="M304 564c0 -74 -55 -122 -128 -122s-129 48 -129 122c0 48 30 96 85 114v1c-47 19 -69 60 -69 99c0 63 49 106 113 106s112 -43 112 -106c0 -41 -24 -80 -69 -99v-1c56 -18 85 -66 85 -114zM284 564c0 61 -50 106 -108 106c-59 0 -109 -45 -109 -106
c0 -59 45 -104 109 -104s108 45 108 104zM268 778c0 52 -41 88 -92 88s-93 -36 -93 -88c0 -50 40 -92 93 -92s92 43 92 92z" />
    <glyph glyph-name="nine.superior" unicode="&#x2079;" 
d="M303 754c0 -30 -11 -64 -37 -109l-111 -192h-24l117 198l-1 1c-23 -19 -49 -27 -77 -27c-69 0 -123 54 -123 129s54 130 128 130c75 0 128 -54 128 -130zM282 754c0 65 -45 112 -107 112c-63 0 -107 -47 -107 -112c0 -64 44 -111 104 -111c59 0 110 48 110 111z" />
    <glyph glyph-name="interrobang" unicode="&#x203d;" horiz-adv-x="472" 
d="M241 45c11 0 23 -10 23 -26c0 -14 -11 -25 -23 -25s-23 11 -23 25c0 16 11 26 23 26zM250 558l-1 -224h1c10 20 24 35 47 56l34 30c40 36 70 70 70 136c0 97 -72 149 -161 149c-91 0 -152 -60 -166 -144l-21 4c18 104 92 161 189 161c100 0 181 -59 181 -169
c0 -84 -43 -122 -90 -162c-66 -54 -82 -83 -83 -142v-53h-22v358h22z" />
    <glyph glyph-name="afii61248" unicode="&#x2105;" horiz-adv-x="790" 
d="M620 725l-440 -752l-16 11l440 752zM744 147c0 -93 -62 -159 -152 -159s-152 66 -152 159s62 158 152 158s152 -65 152 -158zM460 147c0 -79 50 -141 132 -141c83 0 132 62 132 141c0 78 -49 140 -132 140c-82 0 -132 -62 -132 -140zM300 679l-15 -13
c-23 23 -52 37 -87 37c-81 0 -132 -65 -132 -141s51 -140 132 -140c35 0 67 12 91 34l13 -13c-27 -27 -65 -39 -104 -39c-88 0 -152 66 -152 158s64 159 152 159c41 0 77 -16 102 -42z" />
    <glyph glyph-name="published" unicode="&#x2117;" horiz-adv-x="800" 
d="M20 353c0 210 171 377 381 377c209 0 379 -167 379 -377c0 -209 -170 -375 -379 -375c-210 0 -381 166 -381 375zM42 353c0 -196 162 -353 359 -353c196 0 357 157 357 353c0 197 -161 355 -357 355c-197 0 -359 -158 -359 -355zM298 127v441h145c74 0 148 -34 148 -127
c0 -83 -60 -134 -141 -134h-130v-180h-22zM320 326h131c64 0 118 39 118 115s-61 108 -121 108h-128v-223z" />
    <glyph glyph-name="uni0406" unicode="&#x406;" horiz-adv-x="234" 
d="M106 0v708h22v-708h-22z" />
    <glyph glyph-name="uni0456" unicode="&#x456;" horiz-adv-x="226" 
d="M102 0v460h22v-460h-22zM113 633c-12 0 -23 10 -23 26c0 14 11 25 23 25s23 -11 23 -25c0 -16 -12 -26 -23 -26z" />
    <glyph glyph-name="uni0408" unicode="&#x408;" horiz-adv-x="480" 
d="M197 -18c-83 0 -145 50 -168 111l19 9c26 -60 81 -100 149 -100c114 0 159 82 159 194v512h22v-515c0 -130 -62 -211 -181 -211z" />
    <glyph glyph-name="uni0458" unicode="&#x458;" horiz-adv-x="226" 
d="M12 -241c-9 0 -21 1 -29 3l4 19c9 -2 17 -3 25 -3c85 0 90 64 90 123v559h22v-557c0 -94 -21 -144 -112 -144zM113 633c-12 0 -23 10 -23 26c0 14 11 25 23 25s23 -11 23 -25c0 -16 -12 -26 -23 -26z" />
    <glyph glyph-name="uni0410" unicode="&#x410;" horiz-adv-x="666" 
d="M18 0l307 708h28l295 -708h-24l-84 203h-411l-87 -203h-24zM137 222h396l-195 472z" />
    <glyph glyph-name="uni0411" unicode="&#x411;" horiz-adv-x="603" 
d="M106 0v708h386v-20h-364v-305h197c105 0 217 -56 217 -196c0 -144 -124 -187 -232 -187h-204zM128 20h182c98 0 210 38 210 167c0 126 -101 176 -195 176h-197v-343z" />
    <glyph glyph-name="uni0412" unicode="&#x412;" horiz-adv-x="612" 
d="M106 0v708h193c108 0 219 -37 219 -167c0 -101 -71 -149 -144 -165v-2c72 -7 177 -59 177 -185c0 -151 -128 -189 -228 -189h-217zM128 20h185c124 0 216 49 216 166c0 129 -115 177 -205 177h-196v-343zM128 383h170c97 0 198 46 198 155c0 115 -97 150 -203 150h-165
v-305z" />
    <glyph glyph-name="uni0413" unicode="&#x413;" horiz-adv-x="490" 
d="M106 0v708h366v-20h-344v-688h-22z" />
    <glyph glyph-name="uni0414" unicode="&#x414;" horiz-adv-x="729" 
d="M18 -186v206h54c90 87 138 238 138 487v201h405v-688h82v-206h-22v186h-635v-186h-22zM101 20h492v668h-361v-181c0 -242 -45 -395 -131 -487z" />
    <glyph glyph-name="uni0415" unicode="&#x415;" horiz-adv-x="590" 
d="M106 0v708h412v-20h-391v-311h368v-20h-368v-337h407v-20h-428z" />
    <glyph glyph-name="uni0416" unicode="&#x416;" horiz-adv-x="876" 
d="M30 0l368 383l-350 325h32l346 -325h1v325h22v-325h1l346 325h32l-350 -325l368 -383h-31l-365 381h-1v-381h-22v381h-1l-365 -381h-31z" />
    <glyph glyph-name="uni0417" unicode="&#x417;" horiz-adv-x="557" 
d="M260 -20c-90 0 -162 34 -210 87l17 15c51 -54 121 -82 193 -82c116 0 205 77 205 194c0 105 -89 169 -207 169h-60v20h51c104 0 192 56 192 162c0 102 -73 163 -178 163c-68 0 -130 -28 -167 -75l-16 15c41 51 110 80 182 80c123 0 201 -69 201 -183
c0 -93 -66 -155 -142 -170v-1c93 -11 166 -80 166 -180c0 -129 -94 -214 -227 -214z" />
    <glyph glyph-name="uni0418" unicode="&#x418;" horiz-adv-x="747" 
d="M106 0v708h22v-680h3l478 680h32v-708h-22v679h-3l-479 -679h-31z" />
    <glyph glyph-name="uni0419" unicode="&#x419;" horiz-adv-x="747" 
d="M106 0v708h22v-680h3l478 680h32v-708h-22v679h-3l-479 -679h-31zM374 772c-73 0 -116 55 -125 119l17 3c15 -70 55 -102 108 -102s93 32 108 102l17 -3c-9 -64 -52 -119 -125 -119z" />
    <glyph glyph-name="uni041A" unicode="&#x41a;" horiz-adv-x="565" 
d="M106 0v708h22v-325h1l356 325h32l-360 -325l378 -383h-31l-375 381h-1v-381h-22z" />
    <glyph glyph-name="uni041B" unicode="&#x41b;" horiz-adv-x="743" 
d="M53 -7c-9 0 -26 1 -43 5l5 20c15 -3 30 -5 38 -5c152 0 189 200 189 533v162h395v-708h-22v688h-351v-142c0 -347 -41 -553 -211 -553z" />
    <glyph glyph-name="uni041C" unicode="&#x41c;" horiz-adv-x="906" 
d="M106 0v708h39l308 -676l308 676h39v-708h-22v683h-4l-313 -683h-18l-312 683h-3v-683h-22z" />
    <glyph glyph-name="uni041D" unicode="&#x41d;" horiz-adv-x="732" 
d="M106 0v708h22v-332h476v332h22v-708h-22v356h-476v-356h-22z" />
    <glyph glyph-name="uni041E" unicode="&#x41e;" horiz-adv-x="872" 
d="M436 -20c-209 0 -364 156 -364 374s154 374 364 374s364 -156 364 -374s-155 -374 -364 -374zM436 0c205 0 342 158 342 354c0 197 -141 354 -342 354s-342 -157 -342 -354c0 -196 138 -354 342 -354z" />
    <glyph glyph-name="uni041F" unicode="&#x41f;" horiz-adv-x="722" 
d="M106 0v708h510v-708h-22v688h-466v-688h-22z" />
    <glyph glyph-name="uni0420" unicode="&#x420;" horiz-adv-x="572" 
d="M106 0v708h192c102 0 219 -40 219 -176c0 -120 -94 -185 -206 -185h-183v-347h-22zM128 367h184c89 0 183 47 183 165c0 119 -101 156 -188 156h-179v-321z" />
    <glyph glyph-name="uni0421" unicode="&#x421;" horiz-adv-x="724" 
d="M433 -20c-212 0 -361 157 -361 374s150 374 361 374c88 0 177 -30 235 -91l-14 -16c-56 60 -146 87 -221 87c-202 0 -339 -157 -339 -354c0 -196 134 -354 339 -354c87 0 182 35 237 102l16 -15c-59 -72 -159 -107 -253 -107z" />
    <glyph glyph-name="uni0422" unicode="&#x422;" horiz-adv-x="540" 
d="M259 0v688h-241v20h504v-20h-241v-688h-22z" />
    <glyph glyph-name="uni0423" unicode="&#x423;" horiz-adv-x="605" 
d="M116 -6c-12 0 -34 3 -44 7l6 19c8 -3 25 -6 38 -6c49 0 83 27 112 79l67 123l-279 492h25l266 -469l257 469h25l-342 -625c-33 -60 -71 -89 -131 -89z" />
    <glyph glyph-name="uni0424" unicode="&#x424;" horiz-adv-x="784" 
d="M381 -20v87c-173 3 -318 99 -318 298c0 198 135 294 318 298v65h22v-65c183 -4 318 -100 318 -298c0 -199 -145 -295 -318 -298v-87h-22zM381 87v556c-170 -3 -296 -93 -296 -278c0 -186 135 -275 296 -278zM403 87c161 3 296 92 296 278c0 185 -126 275 -296 278v-556z
" />
    <glyph glyph-name="uni0425" unicode="&#x425;" horiz-adv-x="590" 
d="M32 0l250 371l-226 337h26l213 -320l213 320h25l-225 -337l250 -371h-27l-236 354l-237 -354h-26z" />
    <glyph glyph-name="uni0426" unicode="&#x426;" horiz-adv-x="730" 
d="M676 -186v186h-570v708h22v-688h466v688h22v-688h82v-206h-22z" />
    <glyph glyph-name="uni0427" unicode="&#x427;" horiz-adv-x="610" 
d="M482 0v318c-40 -11 -112 -23 -195 -23c-141 0 -198 74 -198 166v247h22v-247c0 -81 51 -146 176 -146c86 0 158 13 195 24v369h22v-708h-22z" />
    <glyph glyph-name="uni0428" unicode="&#x428;" horiz-adv-x="1080" 
d="M106 0v708h22v-688h401v688h22v-688h401v688h22v-708h-868z" />
    <glyph glyph-name="uni0429" unicode="&#x429;" horiz-adv-x="1088" 
d="M1034 -186v186h-928v708h22v-688h401v688h22v-688h401v688h22v-688h82v-206h-22z" />
    <glyph glyph-name="uni042A" unicode="&#x42a;" horiz-adv-x="700" 
d="M219 0v688h-201v20h223v-325h187c105 0 217 -56 217 -196c0 -144 -124 -187 -232 -187h-194zM241 20h172c98 0 210 38 210 167c0 126 -101 176 -195 176h-187v-343z" />
    <glyph glyph-name="uni042B" unicode="&#x42b;" horiz-adv-x="780" 
d="M106 0v708h22v-325h187c105 0 217 -56 217 -196c0 -144 -124 -187 -232 -187h-194zM128 20h172c98 0 210 38 210 167c0 126 -101 176 -195 176h-187v-343zM652 0v708h22v-708h-22z" />
    <glyph glyph-name="uni042C" unicode="&#x42c;" horiz-adv-x="587" 
d="M106 0v708h22v-325h187c105 0 217 -56 217 -196c0 -144 -124 -187 -232 -187h-194zM128 20h172c98 0 210 38 210 167c0 126 -101 176 -195 176h-187v-343z" />
    <glyph glyph-name="uni042D" unicode="&#x42d;" horiz-adv-x="724" 
d="M291 -20c-94 0 -194 35 -253 107l16 15c55 -67 150 -102 237 -102c205 0 339 158 339 354v3h-403v20h402c-11 186 -144 331 -338 331c-75 0 -165 -27 -221 -87l-14 16c58 61 147 91 235 91c211 0 361 -157 361 -374s-149 -374 -361 -374z" />
    <glyph glyph-name="uni042E" unicode="&#x42e;" horiz-adv-x="1046" 
d="M639 -18c-202 0 -333 160 -335 374h-176v-356h-22v708h22v-332h176c6 191 135 350 335 350c204 0 335 -167 335 -364c0 -217 -132 -380 -335 -380zM639 2c200 0 313 172 313 360c0 169 -116 344 -313 344s-313 -175 -313 -344c0 -188 113 -360 313 -360z" />
    <glyph glyph-name="uni042F" unicode="&#x42f;" horiz-adv-x="596" 
d="M61 0l201 325c-99 7 -198 64 -198 196c0 144 124 187 232 187h194v-708h-22v325h-183l-199 -325h-25zM281 345h187v343h-172c-98 0 -210 -38 -210 -167c0 -126 101 -176 195 -176z" />
    <glyph glyph-name="uni0430" unicode="&#x430;" horiz-adv-x="512" 
d="M220 -14c-75 0 -154 41 -154 132c0 132 154 152 250 152h80v37c0 102 -60 148 -148 148c-54 0 -103 -22 -140 -55l-12 17c42 37 100 57 152 57c105 0 170 -53 170 -168v-202c0 -35 4 -79 8 -104h-21c-4 26 -8 83 -8 110h-3c-26 -84 -100 -124 -174 -124zM220 5
c137 0 176 112 176 202v44h-71c-102 0 -237 -16 -237 -133c0 -84 75 -113 132 -113z" />
    <glyph glyph-name="uni0431" unicode="&#x431;" horiz-adv-x="605" 
d="M305 -14c-53 0 -99 15 -136 40c-59 40 -94 109 -94 204c0 227 5 446 190 469l171 21c31 4 70 12 80 44l16 -5c-10 -32 -35 -50 -93 -57l-168 -21c-144 -18 -171 -164 -173 -345h3c46 90 125 133 215 133c144 0 227 -111 227 -243c0 -140 -99 -240 -238 -240zM305 6
c126 0 216 92 216 219s-79 224 -205 224c-125 0 -219 -99 -219 -226s84 -217 208 -217z" />
    <glyph glyph-name="uni0432" unicode="&#x432;" horiz-adv-x="514" 
d="M105 0v460h183c71 0 143 -24 143 -109c0 -65 -46 -96 -94 -107v-1c47 -5 115 -38 115 -120c0 -98 -83 -123 -148 -123h-199zM127 20h170c76 0 133 30 133 103c0 80 -72 109 -127 109h-176v-212zM127 252h160c60 0 122 29 122 96c0 70 -60 92 -125 92h-157v-188z" />
    <glyph glyph-name="uni0433" unicode="&#x433;" horiz-adv-x="415" 
d="M105 0v460h286v-20h-264v-440h-22z" />
    <glyph glyph-name="uni0434" unicode="&#x434;" horiz-adv-x="590" 
d="M28 -156v176h58c44 55 83 168 83 310v130h305v-440h78v-176h-22v156h-480v-156h-22zM112 20h340v420h-261v-110c0 -137 -36 -249 -79 -310z" />
    <glyph glyph-name="uni0435" unicode="&#x435;" horiz-adv-x="556" 
d="M291 -14c-136 0 -229 104 -229 249c0 140 96 239 219 239c144 0 213 -111 213 -220v-19h-410c0 -111 66 -229 207 -229c71 0 128 30 169 84l16 -14c-45 -58 -106 -90 -185 -90zM85 254h388c-3 120 -79 201 -193 201c-139 0 -195 -132 -195 -201z" />
    <glyph glyph-name="uni0436" unicode="&#x436;" horiz-adv-x="694" 
d="M23 0l286 243l-258 217h31l253 -216h1v216h22v-216h1l253 216h31l-258 -217l286 -243h-33l-279 239h-1v-239h-22v239h-1l-279 -239h-33z" />
    <glyph glyph-name="uni0437" unicode="&#x437;" horiz-adv-x="455" 
d="M213 -14c-72 0 -129 25 -165 75l18 12c33 -46 83 -68 146 -68c87 0 149 48 149 121c0 68 -53 106 -137 106h-56v20h49c80 0 134 51 134 107c0 62 -47 96 -127 96c-54 0 -102 -19 -132 -59l-17 11c31 44 87 67 149 67c93 0 149 -40 149 -115c0 -60 -45 -102 -101 -115v-1
c65 -6 111 -52 111 -117c0 -85 -71 -140 -170 -140z" />
    <glyph glyph-name="uni0438" unicode="&#x438;" horiz-adv-x="586" 
d="M105 0v460h22v-426h2l327 426h25v-460h-22v428h-2l-329 -428h-23z" />
    <glyph glyph-name="uni0439" unicode="&#x439;" horiz-adv-x="586" 
d="M299 572c-73 0 -116 55 -125 119l17 3c15 -70 55 -102 108 -102s93 32 108 102l17 -3c-9 -64 -52 -119 -125 -119zM105 0v460h22v-426h2l327 426h25v-460h-22v428h-2l-329 -428h-23z" />
    <glyph glyph-name="uni043A" unicode="&#x43a;" horiz-adv-x="463" 
d="M105 0v460h22v-216h1l253 216h31l-258 -217l286 -243h-33l-279 239h-1v-239h-22z" />
    <glyph glyph-name="uni043B" unicode="&#x43b;" horiz-adv-x="580" 
d="M52 -5c-11 0 -26 3 -33 5l6 19c6 -2 18 -4 27 -4c104 0 128 130 128 276v169h295v-460h-22v440h-251v-149c0 -157 -28 -296 -150 -296z" />
    <glyph glyph-name="uni043C" unicode="&#x43c;" horiz-adv-x="715" 
d="M105 0v460h39l213 -428h1l215 428h37v-460h-22v440h-2l-220 -440h-17l-219 439h-3v-439h-22z" />
    <glyph glyph-name="uni043D" unicode="&#x43d;" horiz-adv-x="580" 
d="M105 0v460h22v-211h326v211h22v-460h-22v229h-326v-229h-22z" />
    <glyph glyph-name="uni043E" unicode="&#x43e;" horiz-adv-x="605" 
d="M302 -14c-141 0 -240 102 -240 245s99 243 240 243c142 0 241 -100 241 -243s-99 -245 -241 -245zM302 5c135 0 219 102 219 226s-84 224 -219 224s-218 -100 -218 -224s83 -226 218 -226z" />
    <glyph glyph-name="uni043F" unicode="&#x43f;" horiz-adv-x="574" 
d="M105 0v460h364v-460h-22v440h-320v-440h-22z" />
    <glyph glyph-name="uni0440" unicode="&#x440;" horiz-adv-x="626" 
d="M102 -240v700h22v-125h3c40 91 120 139 207 139c137 0 230 -103 230 -245c0 -139 -96 -243 -230 -243c-87 0 -172 48 -207 138h-3v-364h-22zM334 5c127 0 208 103 208 224s-81 226 -208 226c-122 0 -211 -102 -211 -225c0 -122 89 -225 211 -225z" />
    <glyph glyph-name="uni0441" unicode="&#x441;" horiz-adv-x="480" 
d="M296 -14c-135 0 -234 101 -234 243s99 245 234 245c58 0 114 -23 151 -61l-17 -15c-35 36 -84 57 -134 57c-130 0 -212 -105 -212 -226s82 -224 212 -224c51 0 102 18 138 52l15 -14c-40 -40 -98 -57 -153 -57z" />
    <glyph glyph-name="uni0442" unicode="&#x442;" horiz-adv-x="428" 
d="M203 0v440h-179v20h380v-20h-179v-440h-22z" />
    <glyph glyph-name="uni0443" unicode="&#x443;" horiz-adv-x="428" 
d="M65 -242c-12 0 -31 3 -41 7l6 19c8 -3 24 -6 37 -6c56 0 80 47 95 89l44 120l-182 473h24l169 -444l163 444h24l-228 -612c-21 -57 -55 -90 -111 -90z" />
    <glyph glyph-name="uni0444" unicode="&#x444;" horiz-adv-x="676" 
d="M327 -240v230c-168 5 -267 88 -267 242c0 149 99 235 267 241v299h22v-299c168 -6 267 -92 267 -241c0 -154 -99 -237 -267 -242v-230h-22zM327 10v443c-152 -1 -245 -80 -245 -221c0 -146 93 -222 245 -222zM349 10c152 0 245 76 245 222c0 141 -93 220 -245 221v-443z
" />
    <glyph glyph-name="uni0445" unicode="&#x445;" horiz-adv-x="452" 
d="M28 0l182 243l-159 217h28l146 -202l145 202h29l-160 -217l185 -243h-29l-171 228l-168 -228h-28z" />
    <glyph glyph-name="uni0446" unicode="&#x446;" horiz-adv-x="585" 
d="M525 -156v156h-420v460h22v-440h320v440h22v-440h78v-176h-22z" />
    <glyph glyph-name="uni0447" unicode="&#x447;" horiz-adv-x="520" 
d="M393 0v210c-28 -7 -92 -21 -158 -21c-90 0 -150 25 -150 132v139h22v-139c0 -91 51 -112 128 -112c69 0 135 16 158 22v229h22v-460h-22z" />
    <glyph glyph-name="uni0448" unicode="&#x448;" horiz-adv-x="856" 
d="M105 0v460h22v-440h290v440h22v-440h290v440h22v-460h-646z" />
    <glyph glyph-name="uni0449" unicode="&#x449;" horiz-adv-x="867" 
d="M807 -156v156h-702v460h22v-440h290v440h22v-440h290v440h22v-440h78v-176h-22z" />
    <glyph glyph-name="uni044A" unicode="&#x44a;" horiz-adv-x="556" 
d="M175 0v440h-151v20h173v-198h153c120 0 161 -60 161 -136c0 -77 -43 -126 -161 -126h-175zM197 20h154c101 0 138 41 138 106s-35 116 -138 116h-154v-222z" />
    <glyph glyph-name="uni044B" unicode="&#x44b;" horiz-adv-x="660" 
d="M105 0v460h22v-198h153c120 0 161 -60 161 -136c0 -77 -43 -126 -161 -126h-175zM127 20h154c101 0 138 41 138 106s-35 116 -138 116h-154v-222zM533 0v460h22v-460h-22z" />
    <glyph glyph-name="uni044C" unicode="&#x44c;" horiz-adv-x="486" 
d="M105 0v460h22v-198h153c120 0 161 -60 161 -136c0 -77 -43 -126 -161 -126h-175zM127 20h154c101 0 138 41 138 106s-35 116 -138 116h-154v-222z" />
    <glyph glyph-name="uni044D" unicode="&#x44d;" horiz-adv-x="480" 
d="M184 -14c-55 0 -113 17 -153 57l15 14c36 -34 87 -52 138 -52c130 0 212 103 212 224h-243v20h242c-8 112 -88 206 -211 206c-50 0 -99 -21 -134 -57l-17 15c37 38 93 61 151 61c135 0 234 -103 234 -245s-99 -243 -234 -243z" />
    <glyph glyph-name="uni044E" unicode="&#x44e;" horiz-adv-x="776" 
d="M483 -20c-143 0 -230 112 -230 246v3h-126v-229h-22v460h22v-211h127c9 125 94 225 229 225c143 0 231 -112 231 -248c0 -135 -90 -246 -231 -246zM483 0c128 0 209 102 209 226c0 125 -80 228 -209 228s-208 -103 -208 -228c0 -123 79 -226 208 -226z" />
    <glyph glyph-name="uni044F" unicode="&#x44f;" horiz-adv-x="522" 
d="M71 0l131 196c-76 13 -124 59 -124 132c0 82 58 132 168 132h172v-460h-22v196h-169l-130 -196h-26zM234 216h162v224h-150c-94 0 -146 -42 -146 -112c0 -62 48 -112 134 -112z" />
    <glyph glyph-name="uni0490" unicode="&#x490;" horiz-adv-x="490" 
d="M106 0v708h344v150h22v-170h-344v-688h-22z" />
    <glyph glyph-name="uni0491" unicode="&#x491;" horiz-adv-x="415" 
d="M105 0v460h264v126h22v-146h-264v-440h-22z" />
    <glyph glyph-name="uni0403" unicode="&#x403;" horiz-adv-x="490" 
d="M379 908l-111 -144h-19l103 144h27zM106 0v708h366v-20h-344v-688h-22z" />
    <glyph glyph-name="uni0453" unicode="&#x453;" horiz-adv-x="415" 
d="M320 708l-111 -144h-19l103 144h27zM105 0v460h286v-20h-264v-440h-22z" />
    <glyph glyph-name="uni0405" unicode="&#x405;" horiz-adv-x="570" 
d="M283 -20c-88 0 -163 34 -211 87l17 15c51 -54 121 -82 193 -82c104 0 194 62 194 170c0 109 -98 145 -192 175c-117 37 -199 78 -199 198c0 118 100 185 218 185c72 0 141 -28 182 -79l-17 -15c-37 47 -98 74 -166 74c-95 0 -195 -54 -195 -165c0 -110 88 -146 176 -175
c120 -39 215 -77 215 -198s-99 -190 -215 -190z" />
    <glyph glyph-name="uni0455" unicode="&#x455;" horiz-adv-x="415" 
d="M211 -12c-68 0 -125 27 -161 77l18 12c33 -46 81 -70 144 -70c59 0 127 38 127 111c0 85 -87 100 -149 117c-67 18 -121 41 -121 121c0 79 71 118 141 118c62 0 110 -23 141 -67l-19 -11c-30 40 -68 59 -122 59c-50 0 -119 -25 -119 -98c0 -79 53 -90 130 -110
c73 -19 140 -45 140 -127s-68 -132 -150 -132z" />
    <glyph glyph-name="uni040C" unicode="&#x40c;" horiz-adv-x="565" 
d="M396 908l-111 -144h-19l103 144h27zM106 0v708h22v-325h1l356 325h32l-360 -325l378 -383h-31l-375 381h-1v-381h-22z" />
    <glyph glyph-name="uni045C" unicode="&#x45c;" horiz-adv-x="463" 
d="M353 708l-111 -144h-19l103 144h27zM105 0v460h22v-216h1l253 216h31l-258 -217l286 -243h-33l-279 239h-1v-239h-22z" />
    <glyph glyph-name="uni0407" unicode="&#x407;" horiz-adv-x="234" 
d="M106 0v708h22v-708h-22zM40 833c-12 0 -23 10 -23 26c0 14 11 25 23 25s23 -11 23 -25c0 -16 -12 -26 -23 -26zM194 833c-12 0 -23 10 -23 26c0 14 11 25 23 25s23 -11 23 -25c0 -16 -12 -26 -23 -26z" />
    <glyph glyph-name="uni0457" unicode="&#x457;" horiz-adv-x="226" 
d="M36 633c-12 0 -23 10 -23 26c0 14 11 25 23 25s23 -11 23 -25c0 -16 -12 -26 -23 -26zM190 633c-12 0 -23 10 -23 26c0 14 11 25 23 25s23 -11 23 -25c0 -16 -12 -26 -23 -26zM124 0h-22v460h22v-460z" />
    <glyph glyph-name="uni040E" unicode="&#x40e;" horiz-adv-x="605" 
d="M116 -6c-12 0 -34 3 -44 7l6 19c8 -3 25 -6 38 -6c49 0 83 27 112 79l67 123l-279 492h25l266 -469l257 469h25l-342 -625c-33 -60 -71 -89 -131 -89zM307 772c-73 0 -116 55 -125 119l17 3c15 -70 55 -102 108 -102s93 32 108 102l17 -3c-9 -64 -52 -119 -125 -119z" />
    <glyph glyph-name="uni045E" unicode="&#x45e;" horiz-adv-x="428" 
d="M217 572c-73 0 -116 55 -125 119l17 3c15 -70 55 -102 108 -102s93 32 108 102l17 -3c-9 -64 -52 -119 -125 -119zM65 -242c-12 0 -31 3 -41 7l6 19c8 -3 24 -6 37 -6c56 0 80 47 95 89l44 120l-182 473h24l169 -444l163 444h24l-228 -612c-21 -57 -55 -90 -111 -90z" />
    <glyph glyph-name="uni040F" unicode="&#x40f;" horiz-adv-x="722" 
d="M350 -186v186h-244v708h22v-688h466v688h22v-708h-244v-186h-22z" />
    <glyph glyph-name="uni045F" unicode="&#x45f;" horiz-adv-x="574" 
d="M275 -156v156h-170v460h22v-440h320v440h22v-460h-172v-156h-22z" />
    <glyph glyph-name="uni0409" unicode="&#x409;" horiz-adv-x="1096" 
d="M53 -7c-9 0 -26 1 -43 5l5 20c15 -3 30 -5 38 -5c152 0 189 200 189 533v162h395v-325h187c105 0 217 -56 217 -196c0 -144 -124 -187 -232 -187h-194v688h-351v-142c0 -347 -41 -553 -211 -553zM637 20h172c98 0 210 38 210 167c0 126 -101 176 -195 176h-187v-343z" />
    <glyph glyph-name="uni0459" unicode="&#x459;" horiz-adv-x="834" 
d="M52 -5c-11 0 -26 3 -33 5l6 19c6 -2 18 -4 27 -4c104 0 128 130 128 276v169h295v-198h153c120 0 161 -60 161 -136c0 -77 -43 -126 -161 -126h-175v440h-251v-149c0 -157 -28 -296 -150 -296zM475 20h154c101 0 138 41 138 106s-35 116 -138 116h-154v-222z" />
    <glyph glyph-name="uni040A" unicode="&#x40a;" horiz-adv-x="1085" 
d="M106 0v708h22v-325h476v325h22v-325h187c105 0 217 -56 217 -196c0 -144 -124 -187 -232 -187h-194v363h-476v-363h-22zM626 20h172c98 0 210 38 210 167c0 126 -101 176 -195 176h-187v-343z" />
    <glyph glyph-name="uni045A" unicode="&#x45a;" horiz-adv-x="834" 
d="M105 0v460h22v-204h326v204h22v-204h153c120 0 161 -57 161 -133c0 -77 -43 -123 -161 -123h-175v236h-326v-236h-22zM475 20h154c101 0 138 38 138 103s-35 113 -138 113h-154v-216z" />
    <glyph glyph-name="uni0404" unicode="&#x404;" horiz-adv-x="724" 
d="M433 -20c-212 0 -361 157 -361 374s150 374 361 374c88 0 177 -30 235 -91l-14 -16c-56 60 -146 87 -221 87c-194 0 -327 -145 -338 -331h402v-20h-403v-3c0 -196 134 -354 339 -354c87 0 182 35 237 102l16 -15c-59 -72 -159 -107 -253 -107z" />
    <glyph glyph-name="uni0454" unicode="&#x454;" horiz-adv-x="480" 
d="M296 -14c-135 0 -234 101 -234 243s99 245 234 245c58 0 114 -23 151 -61l-17 -15c-35 36 -84 57 -134 57c-123 0 -203 -94 -211 -206h242v-20h-243c0 -121 82 -224 212 -224c51 0 102 18 138 52l15 -14c-40 -40 -98 -57 -153 -57z" />
    <glyph glyph-name="uni2116" unicode="&#x2116;" horiz-adv-x="1026" 
d="M848 418c-84 0 -142 62 -142 149s58 148 142 148s142 -61 142 -148s-58 -149 -142 -149zM848 435c77 0 122 59 122 132c0 72 -45 130 -122 130c-76 0 -122 -58 -122 -130c0 -73 46 -132 122 -132zM106 0v708h35l425 -687v687h22v-708h-35l-425 687v-687h-22zM716 333v20
h264v-20h-264z" />
    <glyph glyph-name="uni040B" unicode="&#x40b;" horiz-adv-x="770" 
d="M259 0v688h-241v20h504v-20h-241v-299c39 11 111 24 183 24c153 0 210 -74 210 -166v-247h-22v247c0 81 -51 146 -188 146c-74 0 -146 -13 -183 -24v-369h-22z" />
    <glyph glyph-name="uni0402" unicode="&#x402;" horiz-adv-x="772" 
d="M463 -9c-29 0 -53 3 -72 7l6 21c13 -3 43 -8 66 -8c144 0 232 66 232 191c0 127 -89 191 -235 191c-58 0 -146 -16 -179 -26v-367h-22v688h-241v20h504v-20h-241v-300c35 10 120 25 179 25c159 0 257 -71 257 -211c0 -138 -96 -211 -254 -211z" />
    <glyph glyph-name="uni045B" unicode="&#x45b;" horiz-adv-x="569" 
d="M102 0v580h-90v20h90v156h22v-156h171v-20h-171v-241h2c27 86 102 135 181 135c128 0 166 -100 166 -196v-278h-22v276c0 76 -28 179 -144 179c-101 0 -183 -84 -183 -225v-230h-22z" />
    <glyph glyph-name="uni0452" unicode="&#x452;" horiz-adv-x="569" 
d="M354 -242c-19 0 -33 2 -46 6l4 17c13 -3 26 -5 41 -5c73 0 98 63 98 124v376c0 76 -28 179 -144 179c-101 0 -183 -84 -183 -225v-230h-22v580h-90v20h90v156h22v-156h171v-20h-171v-241h2c27 86 102 135 181 135c128 0 166 -100 166 -196v-377
c0 -113 -64 -143 -119 -143z" />
    <glyph glyph-name="uni0401" unicode="&#x401;" horiz-adv-x="590" 
d="M106 0v708h412v-20h-391v-311h368v-20h-368v-337h407v-20h-428zM238 833c-12 0 -23 10 -23 26c0 14 11 25 23 25s23 -11 23 -25c0 -16 -12 -26 -23 -26zM392 833c-12 0 -23 10 -23 26c0 14 11 25 23 25s23 -11 23 -25c0 -16 -12 -26 -23 -26z" />
    <glyph glyph-name="uni0451" unicode="&#x451;" horiz-adv-x="556" 
d="M206 633c-12 0 -23 10 -23 26c0 14 11 25 23 25s23 -11 23 -25c0 -16 -12 -26 -23 -26zM360 633c-12 0 -23 10 -23 26c0 14 11 25 23 25s23 -11 23 -25c0 -16 -12 -26 -23 -26zM291 -14c-136 0 -229 104 -229 249c0 140 96 239 219 239c144 0 213 -111 213 -220v-19h-410
c0 -111 66 -229 207 -229c71 0 128 30 169 84l16 -14c-45 -58 -106 -90 -185 -90zM85 254h388c-3 120 -79 201 -193 201c-139 0 -195 -132 -195 -201z" />
    <glyph glyph-name="uni0400" unicode="&#x400;" horiz-adv-x="590" 
d="M106 0v708h412v-20h-391v-311h368v-20h-368v-337h407v-20h-428zM206 908h27l103 -144h-19z" />
    <glyph glyph-name="uni0450" unicode="&#x450;" horiz-adv-x="556" 
d="M183 708h27l103 -144h-19zM291 -14c-136 0 -229 104 -229 249c0 140 96 239 219 239c144 0 213 -111 213 -220v-19h-410c0 -111 66 -229 207 -229c71 0 128 30 169 84l16 -14c-45 -58 -106 -90 -185 -90zM85 254h388c-3 120 -79 201 -193 201c-139 0 -195 -132 -195 -201
z" />
    <glyph glyph-name="uni040D" unicode="&#x40d;" horiz-adv-x="747" 
d="M106 0v708h22v-680h3l478 680h32v-708h-22v679h-3l-479 -679h-31zM265 908h27l103 -144h-19z" />
    <glyph glyph-name="uni045D" unicode="&#x45d;" horiz-adv-x="586" 
d="M193 708h27l103 -144h-19zM105 0v460h22v-426h2l327 426h25v-460h-22v428h-2l-329 -428h-23z" />
    <glyph glyph-name="uni2010" unicode="&#x2010;" horiz-adv-x="300" 
d="M240 244h-180v20h180v-20z" />
    <glyph glyph-name="cyrbreve" horiz-adv-x="240" 
d="M120 572c-73 0 -116 55 -125 119l17 3c15 -70 55 -102 108 -102s93 32 108 102l17 -3c-9 -64 -52 -119 -125 -119z" />
    <glyph glyph-name="cyrbreve.cap" horiz-adv-x="240" 
d="M120 772c-73 0 -116 55 -125 119l17 3c15 -70 55 -102 108 -102s93 32 108 102l17 -3c-9 -64 -52 -119 -125 -119z" />
    <glyph glyph-name="exclam.sc" horiz-adv-x="250" 
d="M114 520h22v-384h-22v384zM125 45c12 0 23 -10 23 -26c0 -14 -10 -25 -23 -25s-23 11 -23 25c0 16 10 26 23 26z" />
    <glyph glyph-name="dollar.sc" horiz-adv-x="464" 
d="M241 0v-51h-21v51c-52 2 -103 22 -139 63l15 14c33 -39 79 -57 124 -58v235c-75 24 -129 57 -129 139c0 74 61 120 129 127v52h21v-52c59 0 107 -24 131 -55l-15 -14c-24 32 -68 50 -116 50v-230c80 -26 141 -58 141 -140c0 -81 -61 -127 -141 -131zM241 19
c66 3 120 41 120 113s-57 96 -120 117v-230zM220 277v224c-50 -5 -108 -42 -108 -109c0 -68 50 -97 108 -115z" />
    <glyph glyph-name="percent.sc" horiz-adv-x="691" 
d="M311 415c0 -68 -53 -119 -118 -119c-64 0 -117 51 -117 119c0 66 53 119 117 119c65 0 118 -53 118 -119zM289 415c0 56 -42 99 -96 99c-53 0 -95 -43 -95 -99c0 -58 42 -99 95 -99c54 0 96 41 96 99zM615 105c0 -68 -53 -119 -118 -119c-64 0 -117 51 -117 119
c0 66 53 119 117 119c65 0 118 -53 118 -119zM593 105c0 56 -42 99 -96 99c-53 0 -95 -43 -95 -99c0 -58 42 -99 95 -99c54 0 96 41 96 99zM517 537l-330 -564l-18 10l330 565z" />
    <glyph glyph-name="ampersand.sc" horiz-adv-x="595" 
d="M517 0h-29l-80 86c-43 -68 -96 -100 -165 -100c-83 0 -148 53 -148 144c0 76 51 124 123 158c-53 58 -66 91 -66 133c0 64 48 113 116 113s112 -46 112 -102c0 -63 -42 -104 -129 -150l153 -162l80 150h24l-89 -164zM358 429c0 52 -39 86 -92 86c-51 0 -92 -38 -92 -93
c0 -44 20 -78 64 -126c82 41 120 84 120 133zM393 102l-162 172c-62 -29 -114 -73 -114 -144c0 -79 57 -125 129 -125c62 0 111 35 147 97z" />
    <glyph glyph-name="parenleft.sc" horiz-adv-x="225" 
d="M54 259c0 116 35 238 95 327l20 -10c-58 -81 -93 -212 -93 -317s35 -235 93 -316l-20 -10c-60 88 -95 210 -95 326z" />
    <glyph glyph-name="parenright.sc" horiz-adv-x="225" 
d="M171 259c0 -116 -35 -238 -95 -326l-20 10c58 81 93 211 93 316s-35 236 -93 317l20 10c60 -89 95 -211 95 -327z" />
    <glyph glyph-name="bracketleft.sc" horiz-adv-x="225" 
d="M166 -66h-108v651h108v-19h-86v-613h86v-19z" />
    <glyph glyph-name="backslash.sc" horiz-adv-x="276" 
d="M16 529l19 7l225 -540l-19 -7z" />
    <glyph glyph-name="bracketright.sc" horiz-adv-x="225" 
d="M167 -66h-108v19h86v613h-86v19h108v-651z" />
    <glyph glyph-name="braceleft.sc" horiz-adv-x="225" 
d="M3 250v18c34 0 56 16 56 81v142c0 70 34 94 80 94h37v-19h-37c-40 0 -58 -28 -58 -75v-142c0 -58 -19 -84 -50 -89v-2c31 -5 50 -31 50 -89v-142c0 -47 18 -74 58 -74h37v-19h-37c-46 0 -80 23 -80 93v142c0 65 -22 81 -56 81z" />
    <glyph glyph-name="slash.sc" horiz-adv-x="276" 
d="M260 529l-225 -540l-19 7l225 540z" />
    <glyph glyph-name="braceright.sc" horiz-adv-x="225" 
d="M222 269v-18c-34 0 -56 -16 -56 -81v-142c0 -70 -34 -94 -80 -94h-37v19h37c40 0 58 28 58 75v142c0 58 19 84 50 89v2c-31 5 -50 31 -50 89v142c0 47 -18 74 -58 74h-37v19h37c46 0 80 -23 80 -93v-142c0 -65 22 -81 56 -81z" />
    <glyph glyph-name="zero.sc" horiz-adv-x="464" 
d="M232 -14c-134 0 -167 150 -167 271c0 123 33 277 167 277s167 -154 167 -277c0 -121 -33 -271 -167 -271zM232 514c-125 0 -145 -176 -145 -257c0 -80 20 -251 145 -251c126 0 145 171 145 251c0 81 -19 257 -145 257z" />
    <glyph glyph-name="one.sc" horiz-adv-x="464" 
d="M265 0h-22v492l-110 -93l-13 17l124 104h21v-520z" />
    <glyph glyph-name="two.sc" horiz-adv-x="464" 
d="M395 0h-299v25l185 213c53 62 87 110 87 162c0 71 -50 114 -115 114c-56 0 -101 -33 -119 -92l-21 8c18 65 72 104 140 104c82 0 137 -52 137 -132c0 -61 -33 -107 -97 -182l-173 -200h275v-20z" />
    <glyph glyph-name="three.sc" horiz-adv-x="464" 
d="M184 281h19c65 0 135 38 135 120c0 66 -52 113 -118 113c-46 0 -85 -21 -111 -58l-19 12c29 40 74 66 130 66c80 0 140 -50 140 -133c0 -58 -34 -115 -109 -128v-2c88 -12 127 -72 127 -135c0 -80 -50 -150 -158 -150c-56 0 -127 20 -162 96l22 10c28 -64 87 -86 140 -86
c90 0 136 59 136 129c0 88 -82 126 -153 126h-19v20z" />
    <glyph glyph-name="four.sc" horiz-adv-x="464" 
d="M404 134h-85v-134h-22v134h-247v23l239 363h30v-366h85v-20zM297 154v339h-2l-222 -339h224z" />
    <glyph glyph-name="five.sc" horiz-adv-x="464" 
d="M381 158c0 -109 -79 -172 -172 -172c-71 0 -120 28 -151 73l20 13c27 -42 72 -66 131 -66c78 0 150 55 150 151c0 83 -55 144 -156 144c-36 0 -75 -12 -107 -30l6 249h256v-20h-235l-6 -199c29 14 62 20 91 20c101 0 173 -60 173 -163z" />
    <glyph glyph-name="six.sc" horiz-adv-x="464" 
d="M69 147c0 44 20 93 53 145l143 228h26l-161 -251l2 -2c33 28 67 40 109 40c88 0 157 -66 157 -160c0 -90 -66 -161 -164 -161c-97 0 -165 67 -165 161zM91 147c0 -80 59 -141 143 -141s142 61 142 141c0 78 -54 140 -138 140c-79 0 -147 -57 -147 -140z" />
    <glyph glyph-name="seven.sc" horiz-adv-x="464" 
d="M381 520v-25l-216 -495h-24l219 500h-264v20h285z" />
    <glyph glyph-name="eight.sc" horiz-adv-x="464" 
d="M392 135c0 -90 -70 -149 -160 -149c-89 0 -160 59 -160 149c0 61 35 121 110 142v2c-64 22 -89 74 -89 122c0 77 58 133 139 133s140 -56 140 -133c0 -48 -25 -100 -88 -122v-2c76 -23 108 -81 108 -142zM350 401c0 64 -47 113 -118 113s-117 -49 -117 -113
c0 -59 43 -114 117 -114c69 0 118 49 118 114zM370 136c0 76 -62 131 -138 131c-75 0 -138 -55 -138 -131c0 -72 56 -130 138 -130c83 0 138 58 138 130z" />
    <glyph glyph-name="nine.sc" horiz-adv-x="464" 
d="M398 373c0 -44 -20 -93 -53 -145l-143 -228h-26l162 254l-2 2c-33 -28 -66 -40 -108 -40c-86 0 -155 66 -155 159c0 89 66 159 162 159c95 0 163 -67 163 -161zM376 375c0 79 -58 139 -141 139s-140 -60 -140 -139c0 -77 53 -139 136 -139c78 0 145 57 145 139z" />
    <glyph glyph-name="question.sc" horiz-adv-x="352" 
d="M178 45c12 0 23 -10 23 -26c0 -14 -10 -25 -23 -25s-23 11 -23 25c0 16 10 26 23 26zM189 182v-34h-22v40c0 38 11 66 51 101l25 22c33 29 50 54 50 99c0 69 -50 103 -113 103c-65 0 -108 -40 -119 -102l-21 4c14 77 68 119 141 119c74 0 134 -41 134 -123
c0 -59 -32 -94 -68 -123c-50 -41 -58 -60 -58 -106z" />
    <glyph glyph-name="a.sc" horiz-adv-x="513" 
d="M489 0h-24l-59 145h-296l-63 -145h-23l225 520h22zM397 165l-137 332l-142 -332h279z" />
    <glyph glyph-name="b.sc" horiz-adv-x="488" 
d="M428 138c0 -106 -90 -138 -171 -138h-155v520h143c75 0 159 -32 159 -126c0 -75 -51 -109 -101 -120v-2c54 -5 125 -45 125 -134zM382 393c0 80 -67 107 -143 107h-115v-219h125c67 0 133 33 133 112zM406 137c0 90 -76 124 -145 124h-137v-241h126c89 0 156 34 156 117z
" />
    <glyph glyph-name="c.sc" horiz-adv-x="554" 
d="M497 77l15 -16c-44 -46 -109 -75 -187 -75c-155 0 -265 116 -265 274s111 274 265 274c66 0 132 -22 177 -66l-16 -15c-39 40 -104 60 -161 60c-145 0 -243 -113 -243 -253c0 -139 96 -254 243 -254c69 0 131 27 172 71z" />
    <glyph glyph-name="d.sc" horiz-adv-x="594" 
d="M534 258c0 -178 -127 -258 -283 -258h-149v520h149c154 0 283 -81 283 -262zM246 500h-122v-480h122c153 0 266 79 266 238c0 160 -113 242 -266 242z" />
    <glyph glyph-name="e.sc" horiz-adv-x="477" 
d="M417 0h-315v520h304v-20h-282v-220h265v-20h-265v-240h293v-20z" />
    <glyph glyph-name="f.sc" horiz-adv-x="449" 
d="M399 500h-275v-224h256v-20h-256v-256h-22v520h297v-20z" />
    <glyph glyph-name="g.sc" horiz-adv-x="611" 
d="M519 32c-43 -24 -108 -46 -187 -46c-163 0 -272 120 -272 275c0 156 111 273 270 273c72 0 133 -23 176 -62l-16 -16c-39 38 -103 57 -161 57c-149 0 -247 -113 -247 -252c0 -138 94 -255 251 -255c68 0 121 16 164 39v194h-132v20h154v-227z" />
    <glyph glyph-name="h.sc" horiz-adv-x="584" 
d="M482 0h-22v257h-336v-257h-22v520h22v-243h336v243h22v-520z" />
    <glyph glyph-name="i.sc" horiz-adv-x="226" 
d="M124 0h-22v520h22v-520z" />
    <glyph glyph-name="j.sc" horiz-adv-x="374" 
d="M280 520v-380c0 -90 -44 -154 -133 -154c-70 0 -109 43 -125 88l19 9c18 -45 53 -76 105 -76c81 0 112 61 112 140v373h22z" />
    <glyph glyph-name="k.sc" horiz-adv-x="454" 
d="M124 282h2l261 238h31l-265 -239l277 -281h-31l-273 278h-2v-278h-22v520h22v-238z" />
    <glyph glyph-name="l.sc" horiz-adv-x="390" 
d="M378 0h-276v520h22v-500h254v-20z" />
    <glyph glyph-name="m.sc" horiz-adv-x="710" 
d="M608 0h-22v493h-3l-219 -493h-18l-220 493h-2v-493h-22v520h37l216 -488l216 488h37v-520z" />
    <glyph glyph-name="n.sc" horiz-adv-x="610" 
d="M508 0h-30l-352 490h-2v-490h-22v520h30l352 -490h2v490h22v-520z" />
    <glyph glyph-name="o.sc" horiz-adv-x="659" 
d="M599 261c0 -161 -110 -275 -270 -275c-158 0 -269 114 -269 275s111 273 269 273c160 0 270 -112 270 -273zM577 261c0 140 -95 253 -248 253s-247 -113 -247 -253s94 -255 247 -255s248 115 248 255z" />
    <glyph glyph-name="p.sc" horiz-adv-x="455" 
d="M411 379c0 -93 -71 -144 -157 -144h-130v-235h-22v520h149c83 0 160 -38 160 -141zM389 379c0 87 -66 121 -138 121h-127v-245h130c72 0 135 38 135 124z" />
    <glyph glyph-name="q.sc" horiz-adv-x="659" 
d="M590 267c0 -119 -76 -219 -170 -245v-2h199v-20h-295c-145 0 -264 108 -264 267c0 154 112 267 265 267c152 0 265 -114 265 -267zM568 267c0 134 -100 246 -243 246s-243 -110 -243 -246c0 -135 100 -247 243 -247c148 0 243 121 243 247z" />
    <glyph glyph-name="r.sc" horiz-adv-x="478" 
d="M418 0h-25l-151 257h-118v-257h-22v520h140c83 0 168 -31 168 -133c0 -91 -74 -124 -145 -129zM388 387c0 86 -71 113 -150 113h-114v-223h120c93 0 144 39 144 110z" />
    <glyph glyph-name="s.sc" horiz-adv-x="416" 
d="M362 126c0 -91 -74 -140 -158 -140c-64 0 -119 24 -154 65l17 15c34 -39 84 -59 136 -59c72 0 137 42 137 118c0 79 -68 103 -136 125c-83 26 -145 56 -145 144c0 89 75 140 160 140c55 0 105 -22 134 -59l-17 -15c-26 34 -69 53 -118 53c-68 0 -137 -40 -137 -118
s63 -103 125 -123c89 -29 156 -58 156 -146z" />
    <glyph glyph-name="t.sc" horiz-adv-x="403" 
d="M388 500h-175v-500h-22v500h-176v20h373v-20z" />
    <glyph glyph-name="u.sc" horiz-adv-x="580" 
d="M486 520v-324c0 -112 -52 -210 -196 -210s-196 98 -196 210v324h22v-322c0 -100 46 -191 174 -191s174 91 174 191v322h22z" />
    <glyph glyph-name="v.sc" horiz-adv-x="467" 
d="M447 520l-200 -520h-32l-195 520h24l187 -500h2l190 500h24z" />
    <glyph glyph-name="w.sc" horiz-adv-x="743" 
d="M709 520l-156 -520h-33l-149 499h-2l-147 -499h-33l-155 520h23l148 -500h2l146 500h34l149 -500h2l148 500h23z" />
    <glyph glyph-name="x.sc" horiz-adv-x="438" 
d="M414 0h-25l-170 254l-170 -254h-25l182 271l-166 249h25l154 -232l154 232h25l-166 -249z" />
    <glyph glyph-name="y.sc" horiz-adv-x="408" 
d="M394 520l-179 -294v-226h-22v226l-179 294h25l166 -274l164 274h25z" />
    <glyph glyph-name="z.sc" horiz-adv-x="450" 
d="M408 0h-366v23l338 477h-325v20h348v-24l-337 -476h342v-20z" />
    <glyph glyph-name="agrave.sc" horiz-adv-x="513" 
d="M489 0h-24l-59 145h-296l-63 -145h-23l225 520h22zM397 165l-137 332l-142 -332h279zM139 708h27l103 -144h-19z" />
    <glyph glyph-name="aacute.sc" horiz-adv-x="513" 
d="M489 0h-24l-59 145h-296l-63 -145h-23l225 520h22zM397 165l-137 332l-142 -332h279zM381 708l-111 -144h-19l103 144h27z" />
    <glyph glyph-name="acircumflex.sc" horiz-adv-x="513" 
d="M489 0h-24l-59 145h-296l-63 -145h-23l225 520h22zM397 165l-137 332l-142 -332h279zM246 708h28l103 -144h-23l-94 132l-94 -132h-23z" />
    <glyph glyph-name="atilde.sc" horiz-adv-x="513" 
d="M489 0h-24l-59 145h-296l-63 -145h-23l225 520h22zM397 165l-137 332l-142 -332h279zM263 638c36 -22 44 -24 59 -24c23 0 35 15 40 48h16c-5 -48 -29 -67 -56 -67c-21 0 -34 5 -64 24c-34 22 -44 24 -59 24c-23 0 -35 -18 -40 -51h-16c5 48 29 70 56 70
c21 0 35 -6 64 -24z" />
    <glyph glyph-name="adieresis.sc" horiz-adv-x="513" 
d="M489 0h-24l-59 145h-296l-63 -145h-23l225 520h22zM397 165l-137 332l-142 -332h279zM183 633c-12 0 -23 10 -23 26c0 14 11 25 23 25s23 -11 23 -25c0 -16 -12 -26 -23 -26zM337 633c-12 0 -23 10 -23 26c0 14 11 25 23 25s23 -11 23 -25c0 -16 -12 -26 -23 -26z" />
    <glyph glyph-name="amacron.sc" horiz-adv-x="513" 
d="M489 0h-24l-59 145h-296l-63 -145h-23l225 520h22zM397 165l-137 332l-142 -332h279zM376 621h-232v20h232v-20z" />
    <glyph glyph-name="abreve.sc" horiz-adv-x="513" 
d="M489 0h-24l-59 145h-296l-63 -145h-23l225 520h22zM397 165l-137 332l-142 -332h279zM386 698c-13 -81 -61 -126 -127 -126c-65 0 -114 45 -124 126h19c13 -69 53 -106 105 -106c59 0 93 32 109 106h18z" />
    <glyph glyph-name="aring.sc" horiz-adv-x="513" 
d="M489 0h-24l-59 145h-296l-63 -145h-23l225 520h22zM397 165l-137 332l-142 -332h279zM355 650c0 -54 -44 -95 -96 -95s-96 41 -96 95s44 95 96 95s96 -41 96 -95zM336 650c0 43 -34 78 -77 78s-77 -35 -77 -78s34 -78 77 -78s77 35 77 78z" />
    <glyph glyph-name="aogonek.sc" horiz-adv-x="513" 
d="M489 0c-61 -61 -93 -96 -93 -141c0 -40 26 -64 65 -64c27 0 53 12 69 29l10 -16c-21 -19 -51 -31 -82 -31c-47 0 -84 29 -84 80c0 52 43 97 91 143l-59 145h-296l-63 -145h-23l225 520h22zM397 165l-137 332l-142 -332h279z" />
    <glyph glyph-name="ae.sc" horiz-adv-x="740" 
d="M680 0h-315v155h-232l-101 -155h-26l338 520h325v-20h-282v-220h265v-20h-265v-240h293v-20zM355 500l-209 -325h219v325h-10z" />
    <glyph glyph-name="cacute.sc" horiz-adv-x="554" 
d="M497 77l15 -16c-44 -46 -109 -75 -187 -75c-155 0 -265 116 -265 274s111 274 265 274c66 0 132 -22 177 -66l-16 -15c-39 40 -104 60 -161 60c-145 0 -243 -113 -243 -253c0 -139 96 -254 243 -254c69 0 131 27 172 71zM404 708l-111 -144h-19l103 144h27z" />
    <glyph glyph-name="ccircumflex.sc" horiz-adv-x="554" 
d="M497 77l15 -16c-44 -46 -109 -75 -187 -75c-155 0 -265 116 -265 274s111 274 265 274c66 0 132 -22 177 -66l-16 -15c-39 40 -104 60 -161 60c-145 0 -243 -113 -243 -253c0 -139 96 -254 243 -254c69 0 131 27 172 71zM313 708h28l103 -144h-23l-94 132l-94 -132h-23z
" />
    <glyph glyph-name="ccaron.sc" horiz-adv-x="554" 
d="M497 77l15 -16c-44 -46 -109 -75 -187 -75c-155 0 -265 116 -265 274s111 274 265 274c66 0 132 -22 177 -66l-16 -15c-39 40 -104 60 -161 60c-145 0 -243 -113 -243 -253c0 -139 96 -254 243 -254c69 0 131 27 172 71zM337 564h-28l-103 144h23l94 -132l94 132h23z" />
    <glyph glyph-name="cdotaccent.sc" horiz-adv-x="554" 
d="M497 77l15 -16c-44 -46 -109 -75 -187 -75c-155 0 -265 116 -265 274s111 274 265 274c66 0 132 -22 177 -66l-16 -15c-39 40 -104 60 -161 60c-145 0 -243 -113 -243 -253c0 -139 96 -254 243 -254c69 0 131 27 172 71zM324 633c-12 0 -23 10 -23 26c0 14 11 25 23 25
s23 -11 23 -25c0 -16 -12 -26 -23 -26z" />
    <glyph glyph-name="ccedilla.sc" horiz-adv-x="554" 
d="M421 -146c0 -64 -69 -80 -112 -80c-25 0 -61 7 -90 20l5 17c25 -13 62 -18 86 -18c39 0 90 11 90 61c0 42 -40 51 -72 51c-18 0 -53 -6 -69 -15l-10 9l59 88c-146 8 -248 120 -248 273c0 158 111 274 265 274c66 0 132 -22 177 -66l-16 -15c-39 40 -104 60 -161 60
c-145 0 -243 -113 -243 -253c0 -139 96 -254 243 -254c69 0 131 27 172 71l15 -16c-43 -45 -107 -74 -183 -75l-49 -72c19 6 35 8 54 8c40 0 87 -16 87 -68z" />
    <glyph glyph-name="dcaron.sc" horiz-adv-x="594" 
d="M534 258c0 -178 -127 -258 -283 -258h-149v520h149c154 0 283 -81 283 -262zM246 500h-122v-480h122c153 0 266 79 266 238c0 160 -113 242 -266 242zM299 564h-28l-103 144h23l94 -132l94 132h23z" />
    <glyph glyph-name="dcroat.sc" horiz-adv-x="594" 
d="M534 258c0 -178 -127 -258 -283 -258h-149v263h-80v20h80v237h149c154 0 283 -81 283 -262zM246 500h-122v-217h175v-20h-175v-243h122c153 0 266 79 266 238c0 160 -113 242 -266 242z" />
    <glyph glyph-name="eth.sc" horiz-adv-x="594" 
d="M534 258c0 -178 -127 -258 -283 -258h-149v263h-80v20h80v237h149c154 0 283 -81 283 -262zM246 500h-122v-217h175v-20h-175v-243h122c153 0 266 79 266 238c0 160 -113 242 -266 242z" />
    <glyph glyph-name="egrave.sc" horiz-adv-x="477" 
d="M417 0h-315v520h304v-20h-282v-220h265v-20h-265v-240h293v-20zM142 708h27l103 -144h-19z" />
    <glyph glyph-name="eacute.sc" horiz-adv-x="477" 
d="M417 0h-315v520h304v-20h-282v-220h265v-20h-265v-240h293v-20zM361 708l-111 -144h-19l103 144h27z" />
    <glyph glyph-name="ecircumflex.sc" horiz-adv-x="477" 
d="M417 0h-315v520h304v-20h-282v-220h265v-20h-265v-240h293v-20zM241 708h28l103 -144h-23l-94 132l-94 -132h-23z" />
    <glyph glyph-name="ecaron.sc" horiz-adv-x="477" 
d="M417 0h-315v520h304v-20h-282v-220h265v-20h-265v-240h293v-20zM269 564h-28l-103 144h23l94 -132l94 132h23z" />
    <glyph glyph-name="edieresis.sc" horiz-adv-x="477" 
d="M417 0h-315v520h304v-20h-282v-220h265v-20h-265v-240h293v-20zM178 633c-12 0 -23 10 -23 26c0 14 11 25 23 25s23 -11 23 -25c0 -16 -12 -26 -23 -26zM332 633c-12 0 -23 10 -23 26c0 14 11 25 23 25s23 -11 23 -25c0 -16 -12 -26 -23 -26z" />
    <glyph glyph-name="emacron.sc" horiz-adv-x="477" 
d="M417 0h-315v520h304v-20h-282v-220h265v-20h-265v-240h293v-20zM369 621h-232v20h232v-20z" />
    <glyph glyph-name="ebreve.sc" horiz-adv-x="477" 
d="M417 0h-315v520h304v-20h-282v-220h265v-20h-265v-240h293v-20zM380 698c-13 -81 -61 -126 -127 -126c-65 0 -114 45 -124 126h19c13 -69 53 -106 105 -106c59 0 93 32 109 106h18z" />
    <glyph glyph-name="edotaccent.sc" horiz-adv-x="477" 
d="M417 0h-315v520h304v-20h-282v-220h265v-20h-265v-240h293v-20zM255 633c-12 0 -23 10 -23 26c0 14 11 25 23 25s23 -11 23 -25c0 -16 -12 -26 -23 -26z" />
    <glyph glyph-name="eogonek.sc" horiz-adv-x="477" 
d="M440 -176l10 -16c-21 -19 -51 -31 -82 -31c-47 0 -84 29 -84 80c0 52 44 97 92 143h-274v520h304v-20h-282v-220h265v-20h-265v-240h293v-20h-18c-61 -61 -93 -96 -93 -141c0 -40 26 -64 65 -64c27 0 53 12 69 29z" />
    <glyph glyph-name="gcircumflex.sc" horiz-adv-x="611" 
d="M519 32c-43 -24 -108 -46 -187 -46c-163 0 -272 120 -272 275c0 156 111 273 270 273c72 0 133 -23 176 -62l-16 -16c-39 38 -103 57 -161 57c-149 0 -247 -113 -247 -252c0 -138 94 -255 251 -255c68 0 121 16 164 39v194h-132v20h154v-227zM318 708h28l103 -144h-23
l-94 132l-94 -132h-23z" />
    <glyph glyph-name="gbreve.sc" horiz-adv-x="611" 
d="M519 32c-43 -24 -108 -46 -187 -46c-163 0 -272 120 -272 275c0 156 111 273 270 273c72 0 133 -23 176 -62l-16 -16c-39 38 -103 57 -161 57c-149 0 -247 -113 -247 -252c0 -138 94 -255 251 -255c68 0 121 16 164 39v194h-132v20h154v-227zM456 698
c-13 -81 -61 -126 -127 -126c-65 0 -114 45 -124 126h19c13 -69 53 -106 105 -106c59 0 93 32 109 106h18z" />
    <glyph glyph-name="gdotaccent.sc" horiz-adv-x="611" 
d="M519 32c-43 -24 -108 -46 -187 -46c-163 0 -272 120 -272 275c0 156 111 273 270 273c72 0 133 -23 176 -62l-16 -16c-39 38 -103 57 -161 57c-149 0 -247 -113 -247 -252c0 -138 94 -255 251 -255c68 0 121 16 164 39v194h-132v20h154v-227zM329 633
c-12 0 -23 10 -23 26c0 14 11 25 23 25s23 -11 23 -25c0 -16 -12 -26 -23 -26z" />
    <glyph glyph-name="gcommaaccent.sc" horiz-adv-x="611" 
d="M519 32c-43 -24 -108 -46 -187 -46c-163 0 -272 120 -272 275c0 156 111 273 270 273c72 0 133 -23 176 -62l-16 -16c-39 38 -103 57 -161 57c-149 0 -247 -113 -247 -252c0 -138 94 -255 251 -255c68 0 121 16 164 39v194h-132v20h154v-227zM347 -45l-58 -185h-17
l51 185h24z" />
    <glyph glyph-name="kgreenlandic.sc" horiz-adv-x="454" 
d="M124 282h2l261 238h31l-265 -239l277 -281h-31l-273 278h-2v-278h-22v520h22v-238z" />
    <glyph glyph-name="hcircumflex.sc" horiz-adv-x="584" 
d="M482 0h-22v257h-336v-257h-22v520h22v-243h336v243h22v-520zM277 708h28l103 -144h-23l-94 132l-94 -132h-23z" />
    <glyph glyph-name="hbar.sc" horiz-adv-x="584" 
d="M482 0h-22v257h-336v-257h-22v520h22v-134h336v134h22v-520zM124 277h336v91h-336v-91z" />
    <glyph glyph-name="igrave.sc" horiz-adv-x="226" 
d="M124 0h-22v520h22v-520zM-6 708h27l103 -144h-19z" />
    <glyph glyph-name="iacute.sc" horiz-adv-x="226" 
d="M124 0h-22v520h22v-520zM233 708l-111 -144h-19l103 144h27z" />
    <glyph glyph-name="ibreve.sc" horiz-adv-x="226" 
d="M124 0h-22v520h22v-520zM239 698c-13 -81 -61 -126 -127 -126c-65 0 -114 45 -124 126h19c13 -69 53 -106 105 -106c59 0 93 32 109 106h18z" />
    <glyph glyph-name="icircumflex.sc" horiz-adv-x="226" 
d="M124 0h-22v520h22v-520zM98 708h28l103 -144h-23l-94 132l-94 -132h-23z" />
    <glyph glyph-name="itilde.sc" horiz-adv-x="226" 
d="M124 0h-22v520h22v-520zM116 638c36 -22 44 -24 59 -24c23 0 35 15 40 48h16c-5 -48 -29 -67 -56 -67c-21 0 -34 5 -64 24c-34 22 -44 24 -59 24c-23 0 -35 -18 -40 -51h-16c5 48 29 70 56 70c21 0 35 -6 64 -24z" />
    <glyph glyph-name="idieresis.sc" horiz-adv-x="226" 
d="M124 0h-22v520h22v-520zM35 633c-12 0 -23 10 -23 26c0 14 11 25 23 25s23 -11 23 -25c0 -16 -12 -26 -23 -26zM189 633c-12 0 -23 10 -23 26c0 14 11 25 23 25s23 -11 23 -25c0 -16 -12 -26 -23 -26z" />
    <glyph glyph-name="imacron.sc" horiz-adv-x="226" 
d="M124 0h-22v520h22v-520zM229 621h-232v20h232v-20z" />
    <glyph glyph-name="idotaccent.sc" horiz-adv-x="226" 
d="M124 0h-22v520h22v-520zM113 633c-12 0 -23 10 -23 26c0 14 11 25 23 25s23 -11 23 -25c0 -16 -12 -26 -23 -26z" />
    <glyph glyph-name="iogonek.sc" horiz-adv-x="226" 
d="M166 -176l10 -16c-21 -19 -51 -31 -82 -31c-47 0 -84 29 -84 80c0 52 44 97 92 143v520h22v-520c-60 -60 -92 -96 -92 -141c0 -40 26 -64 65 -64c27 0 53 12 69 29z" />
    <glyph glyph-name="jcircumflex.sc" horiz-adv-x="374" 
d="M280 520v-380c0 -90 -44 -154 -133 -154c-70 0 -109 43 -125 88l19 9c18 -45 53 -76 105 -76c81 0 112 61 112 140v373h22zM254 708h28l103 -144h-23l-94 132l-94 -132h-23z" />
    <glyph glyph-name="kcommaaccent.sc" horiz-adv-x="454" 
d="M124 282h2l261 238h31l-265 -239l277 -281h-31l-273 278h-2v-278h-22v520h22v-238zM269 -45l-58 -185h-17l51 185h24z" />
    <glyph glyph-name="lacute.sc" horiz-adv-x="390" 
d="M378 0h-276v520h22v-500h254v-20zM235 708l-111 -144h-19l103 144h27z" />
    <glyph glyph-name="lcaron.sc" horiz-adv-x="390" 
d="M378 0h-276v520h22v-500h254v-20zM285 520l-58 -185h-17l51 185h24z" />
    <glyph glyph-name="lcommaaccent.sc" horiz-adv-x="390" 
d="M378 0h-276v520h22v-500h254v-20zM267 -45l-58 -185h-17l51 185h24z" />
    <glyph glyph-name="lslash.sc" horiz-adv-x="390" 
d="M378 0h-276v255l-65 -57v27l65 56v239h22v-220l121 105v-24l-121 -107v-254h254v-20z" />
    <glyph glyph-name="ldot.sc" horiz-adv-x="390" 
d="M378 0h-276v520h22v-500h254v-20zM248 273c-12 0 -23 10 -23 26c0 14 11 25 23 25s23 -11 23 -25c0 -16 -12 -26 -23 -26z" />
    <glyph glyph-name="nacute.sc" horiz-adv-x="610" 
d="M508 0h-30l-352 490h-2v-490h-22v520h30l352 -490h2v490h22v-520zM394 708l-111 -144h-19l103 144h27z" />
    <glyph glyph-name="ncaron.sc" horiz-adv-x="610" 
d="M508 0h-30l-352 490h-2v-490h-22v520h30l352 -490h2v490h22v-520zM321 564h-28l-103 144h23l94 -132l94 132h23z" />
    <glyph glyph-name="ntilde.sc" horiz-adv-x="610" 
d="M508 0h-30l-352 490h-2v-490h-22v520h30l352 -490h2v490h22v-520zM309 638c36 -22 44 -24 59 -24c23 0 35 15 40 48h16c-5 -48 -29 -67 -56 -67c-21 0 -34 5 -64 24c-34 22 -44 24 -59 24c-23 0 -35 -18 -40 -51h-16c5 48 29 70 56 70c21 0 35 -6 64 -24z" />
    <glyph glyph-name="ncommaaccent.sc" horiz-adv-x="610" 
d="M508 0h-30l-352 490h-2v-490h-22v520h30l352 -490h2v490h22v-520zM328 -45l-58 -185h-17l51 185h24z" />
    <glyph glyph-name="ograve.sc" horiz-adv-x="659" 
d="M599 261c0 -161 -110 -275 -270 -275c-158 0 -269 114 -269 275s111 273 269 273c160 0 270 -112 270 -273zM577 261c0 140 -95 253 -248 253s-247 -113 -247 -253s94 -255 247 -255s248 115 248 255zM230 708h27l103 -144h-19z" />
    <glyph glyph-name="oacute.sc" horiz-adv-x="659" 
d="M599 261c0 -161 -110 -275 -270 -275c-158 0 -269 114 -269 275s111 273 269 273c160 0 270 -112 270 -273zM577 261c0 140 -95 253 -248 253s-247 -113 -247 -253s94 -255 247 -255s248 115 248 255zM432 708l-111 -144h-19l103 144h27z" />
    <glyph glyph-name="ocircumflex.sc" horiz-adv-x="659" 
d="M599 261c0 -161 -110 -275 -270 -275c-158 0 -269 114 -269 275s111 273 269 273c160 0 270 -112 270 -273zM577 261c0 140 -95 253 -248 253s-247 -113 -247 -253s94 -255 247 -255s248 115 248 255zM315 708h28l103 -144h-23l-94 132l-94 -132h-23z" />
    <glyph glyph-name="otilde.sc" horiz-adv-x="659" 
d="M599 261c0 -161 -110 -275 -270 -275c-158 0 -269 114 -269 275s111 273 269 273c160 0 270 -112 270 -273zM577 261c0 140 -95 253 -248 253s-247 -113 -247 -253s94 -255 247 -255s248 115 248 255zM332 638c36 -22 44 -24 59 -24c23 0 35 15 40 48h16
c-5 -48 -29 -67 -56 -67c-21 0 -34 5 -64 24c-34 22 -44 24 -59 24c-23 0 -35 -18 -40 -51h-16c5 48 29 70 56 70c21 0 35 -6 64 -24z" />
    <glyph glyph-name="odieresis.sc" horiz-adv-x="659" 
d="M599 261c0 -161 -110 -275 -270 -275c-158 0 -269 114 -269 275s111 273 269 273c160 0 270 -112 270 -273zM577 261c0 140 -95 253 -248 253s-247 -113 -247 -253s94 -255 247 -255s248 115 248 255zM252 633c-12 0 -23 10 -23 26c0 14 11 25 23 25s23 -11 23 -25
c0 -16 -12 -26 -23 -26zM406 633c-12 0 -23 10 -23 26c0 14 11 25 23 25s23 -11 23 -25c0 -16 -12 -26 -23 -26z" />
    <glyph glyph-name="omacron.sc" horiz-adv-x="659" 
d="M599 261c0 -161 -110 -275 -270 -275c-158 0 -269 114 -269 275s111 273 269 273c160 0 270 -112 270 -273zM577 261c0 140 -95 253 -248 253s-247 -113 -247 -253s94 -255 247 -255s248 115 248 255zM445 621h-232v20h232v-20z" />
    <glyph glyph-name="obreve.sc" horiz-adv-x="659" 
d="M599 261c0 -161 -110 -275 -270 -275c-158 0 -269 114 -269 275s111 273 269 273c160 0 270 -112 270 -273zM577 261c0 140 -95 253 -248 253s-247 -113 -247 -253s94 -255 247 -255s248 115 248 255zM455 698c-13 -81 -61 -126 -127 -126c-65 0 -114 45 -124 126h19
c13 -69 53 -106 105 -106c59 0 93 32 109 106h18z" />
    <glyph glyph-name="ohungarumlaut.sc" horiz-adv-x="659" 
d="M599 261c0 -161 -110 -275 -270 -275c-158 0 -269 114 -269 275s111 273 269 273c160 0 270 -112 270 -273zM577 261c0 140 -95 253 -248 253s-247 -113 -247 -253s94 -255 247 -255s248 115 248 255zM401 708l-111 -145h-19l103 145h27zM518 708l-111 -145h-19l103 145
h27z" />
    <glyph glyph-name="oslash.sc" horiz-adv-x="659" 
d="M76 -8l-14 13l65 67c-42 48 -67 113 -67 189c0 161 111 273 269 273c74 0 138 -25 184 -67l63 65l14 -14l-63 -64c46 -48 72 -115 72 -193c0 -161 -110 -275 -270 -275c-76 0 -142 26 -189 72zM577 261c0 69 -23 131 -65 177l-357 -365c42 -42 102 -67 174 -67
c153 0 248 115 248 255zM82 261c0 -67 21 -128 60 -174l356 365c-42 38 -100 62 -169 62c-153 0 -247 -113 -247 -253z" />
    <glyph glyph-name="oe.sc" horiz-adv-x="779" 
d="M719 0h-381c-156 0 -276 100 -276 259s124 261 276 261h370v-20h-282v-220h265v-20h-265v-240h293v-20zM340 21h64v478h-64c-145 0 -256 -100 -256 -240c0 -139 109 -238 256 -238z" />
    <glyph glyph-name="racute.sc" horiz-adv-x="478" 
d="M418 0h-25l-151 257h-118v-257h-22v520h140c83 0 168 -31 168 -133c0 -91 -74 -124 -145 -129zM388 387c0 86 -71 113 -150 113h-114v-223h120c93 0 144 39 144 110zM328 708l-111 -144h-19l103 144h27z" />
    <glyph glyph-name="rcaron.sc" horiz-adv-x="478" 
d="M418 0h-25l-151 257h-118v-257h-22v520h140c83 0 168 -31 168 -133c0 -91 -74 -124 -145 -129zM388 387c0 86 -71 113 -150 113h-114v-223h120c93 0 144 39 144 110zM250 564h-28l-103 144h23l94 -132l94 132h23z" />
    <glyph glyph-name="rcommaaccent.sc" horiz-adv-x="478" 
d="M418 0h-25l-151 257h-118v-257h-22v520h140c83 0 168 -31 168 -133c0 -91 -74 -124 -145 -129zM388 387c0 86 -71 113 -150 113h-114v-223h120c93 0 144 39 144 110zM267 -45l-58 -185h-17l51 185h24z" />
    <glyph glyph-name="sacute.sc" horiz-adv-x="416" 
d="M362 126c0 -91 -74 -140 -158 -140c-64 0 -119 24 -154 65l17 15c34 -39 84 -59 136 -59c72 0 137 42 137 118c0 79 -68 103 -136 125c-83 26 -145 56 -145 144c0 89 75 140 160 140c55 0 105 -22 134 -59l-17 -15c-26 34 -69 53 -118 53c-68 0 -137 -40 -137 -118
s63 -103 125 -123c89 -29 156 -58 156 -146zM300 708l-111 -144h-19l103 144h27z" />
    <glyph glyph-name="scircumflex.sc" horiz-adv-x="416" 
d="M362 126c0 -91 -74 -140 -158 -140c-64 0 -119 24 -154 65l17 15c34 -39 84 -59 136 -59c72 0 137 42 137 118c0 79 -68 103 -136 125c-83 26 -145 56 -145 144c0 89 75 140 160 140c55 0 105 -22 134 -59l-17 -15c-26 34 -69 53 -118 53c-68 0 -137 -40 -137 -118
s63 -103 125 -123c89 -29 156 -58 156 -146zM204 708h28l103 -144h-23l-94 132l-94 -132h-23z" />
    <glyph glyph-name="scaron.sc" horiz-adv-x="416" 
d="M362 126c0 -91 -74 -140 -158 -140c-64 0 -119 24 -154 65l17 15c34 -39 84 -59 136 -59c72 0 137 42 137 118c0 79 -68 103 -136 125c-83 26 -145 56 -145 144c0 89 75 140 160 140c55 0 105 -22 134 -59l-17 -15c-26 34 -69 53 -118 53c-68 0 -137 -40 -137 -118
s63 -103 125 -123c89 -29 156 -58 156 -146zM232 564h-28l-103 144h23l94 -132l94 132h23z" />
    <glyph glyph-name="scedilla.sc" horiz-adv-x="416" 
d="M302 -146c0 -64 -69 -80 -112 -80c-25 0 -61 7 -90 20l5 17c25 -13 62 -18 86 -18c39 0 90 11 90 61c0 42 -40 51 -72 51c-18 0 -53 -6 -69 -15l-10 9l59 88c-58 3 -107 26 -139 64l17 15c34 -39 84 -59 136 -59c72 0 137 42 137 118c0 79 -68 103 -136 125
c-83 26 -145 56 -145 144c0 89 75 140 160 140c55 0 105 -22 134 -59l-17 -15c-26 34 -69 53 -118 53c-68 0 -137 -40 -137 -118s63 -103 125 -123c89 -29 156 -58 156 -146c0 -89 -70 -137 -152 -140l-49 -72c19 6 35 8 54 8c40 0 87 -16 87 -68z" />
    <glyph glyph-name="scommaaccent.sc" horiz-adv-x="416" 
d="M362 126c0 -91 -74 -140 -158 -140c-64 0 -119 24 -154 65l17 15c34 -39 84 -59 136 -59c72 0 137 42 137 118c0 79 -68 103 -136 125c-83 26 -145 56 -145 144c0 89 75 140 160 140c55 0 105 -22 134 -59l-17 -15c-26 34 -69 53 -118 53c-68 0 -137 -40 -137 -118
s63 -103 125 -123c89 -29 156 -58 156 -146zM224 -45l-58 -185h-17l51 185h24z" />
    <glyph glyph-name="tcaron.sc" horiz-adv-x="403" 
d="M388 500h-175v-500h-22v500h-176v20h373v-20zM216 564h-28l-103 144h23l94 -132l94 132h23z" />
    <glyph glyph-name="tcommaaccent.sc" horiz-adv-x="403" 
d="M388 500h-175v-500h-22v500h-176v20h373v-20zM219 -45l-58 -185h-17l51 185h24z" />
    <glyph glyph-name="tbar.sc" horiz-adv-x="403" 
d="M338 342h-125v-342h-22v342h-126v18h126v140h-176v20h373v-20h-175v-140h125v-18z" />
    <glyph glyph-name="thorn.sc" horiz-adv-x="454" 
d="M124 0h-22v520h22v-100h122c83 0 164 -30 164 -132s-81 -131 -164 -131h-122v-157zM124 177h114c79 0 150 25 150 111s-71 112 -150 112h-114v-223z" />
    <glyph glyph-name="ugrave.sc" horiz-adv-x="580" 
d="M486 520v-324c0 -112 -52 -210 -196 -210s-196 98 -196 210v324h22v-322c0 -100 46 -191 174 -191s174 91 174 191v322h22zM174 708h27l103 -144h-19z" />
    <glyph glyph-name="uacute.sc" horiz-adv-x="580" 
d="M486 520v-324c0 -112 -52 -210 -196 -210s-196 98 -196 210v324h22v-322c0 -100 46 -191 174 -191s174 91 174 191v322h22zM403 708l-111 -144h-19l103 144h27z" />
    <glyph glyph-name="ucircumflex.sc" horiz-adv-x="580" 
d="M486 520v-324c0 -112 -52 -210 -196 -210s-196 98 -196 210v324h22v-322c0 -100 46 -191 174 -191s174 91 174 191v322h22zM275 708h28l103 -144h-23l-94 132l-94 -132h-23z" />
    <glyph glyph-name="utilde.sc" horiz-adv-x="580" 
d="M486 520v-324c0 -112 -52 -210 -196 -210s-196 98 -196 210v324h22v-322c0 -100 46 -191 174 -191s174 91 174 191v322h22zM294 638c36 -22 44 -24 59 -24c23 0 35 15 40 48h16c-5 -48 -29 -67 -56 -67c-21 0 -34 5 -64 24c-34 22 -44 24 -59 24c-23 0 -35 -18 -40 -51
h-16c5 48 29 70 56 70c21 0 35 -6 64 -24z" />
    <glyph glyph-name="udieresis.sc" horiz-adv-x="580" 
d="M486 520v-324c0 -112 -52 -210 -196 -210s-196 98 -196 210v324h22v-322c0 -100 46 -191 174 -191s174 91 174 191v322h22zM214 633c-12 0 -23 10 -23 26c0 14 11 25 23 25s23 -11 23 -25c0 -16 -12 -26 -23 -26zM368 633c-12 0 -23 10 -23 26c0 14 11 25 23 25
s23 -11 23 -25c0 -16 -12 -26 -23 -26z" />
    <glyph glyph-name="umacron.sc" horiz-adv-x="580" 
d="M486 520v-324c0 -112 -52 -210 -196 -210s-196 98 -196 210v324h22v-322c0 -100 46 -191 174 -191s174 91 174 191v322h22zM407 621h-232v20h232v-20z" />
    <glyph glyph-name="ubreve.sc" horiz-adv-x="580" 
d="M486 520v-324c0 -112 -52 -210 -196 -210s-196 98 -196 210v324h22v-322c0 -100 46 -191 174 -191s174 91 174 191v322h22zM417 698c-13 -81 -61 -126 -127 -126c-65 0 -114 45 -124 126h19c13 -69 53 -106 105 -106c59 0 93 32 109 106h18z" />
    <glyph glyph-name="uring.sc" horiz-adv-x="580" 
d="M486 520v-324c0 -112 -52 -210 -196 -210s-196 98 -196 210v324h22v-322c0 -100 46 -191 174 -191s174 91 174 191v322h22zM386 650c0 -54 -44 -95 -96 -95s-96 41 -96 95s44 95 96 95s96 -41 96 -95zM367 650c0 43 -34 78 -77 78s-77 -35 -77 -78s34 -78 77 -78
s77 35 77 78z" />
    <glyph glyph-name="uhungarumlaut.sc" horiz-adv-x="580" 
d="M486 520v-324c0 -112 -52 -210 -196 -210s-196 98 -196 210v324h22v-322c0 -100 46 -191 174 -191s174 91 174 191v322h22zM344 708l-111 -145h-19l103 145h27zM461 708l-111 -145h-19l103 145h27z" />
    <glyph glyph-name="uogonek.sc" horiz-adv-x="580" 
d="M486 520v-324c0 -106 -46 -198 -171 -209c-53 -53 -80 -86 -80 -128c0 -40 26 -64 65 -64c27 0 53 12 69 29l10 -16c-21 -19 -51 -31 -82 -31c-47 0 -84 29 -84 80c0 47 35 88 77 129c-144 0 -196 98 -196 210v324h22v-322c0 -100 46 -191 174 -191s174 91 174 191v322
h22z" />
    <glyph glyph-name="wacute.sc" horiz-adv-x="743" 
d="M709 520l-156 -520h-33l-149 499h-2l-147 -499h-33l-155 520h23l148 -500h2l146 500h34l149 -500h2l148 500h23zM491 708l-111 -144h-19l103 144h27z" />
    <glyph glyph-name="wcircumflex.sc" horiz-adv-x="743" 
d="M709 520l-156 -520h-33l-149 499h-2l-147 -499h-33l-155 520h23l148 -500h2l146 500h34l149 -500h2l148 500h23zM357 708h28l103 -144h-23l-94 132l-94 -132h-23z" />
    <glyph glyph-name="wdieresis.sc" horiz-adv-x="743" 
d="M709 520l-156 -520h-33l-149 499h-2l-147 -499h-33l-155 520h23l148 -500h2l146 500h34l149 -500h2l148 500h23zM293 633c-12 0 -23 10 -23 26c0 14 11 25 23 25s23 -11 23 -25c0 -16 -12 -26 -23 -26zM447 633c-12 0 -23 10 -23 26c0 14 11 25 23 25s23 -11 23 -25
c0 -16 -12 -26 -23 -26z" />
    <glyph glyph-name="wgrave.sc" horiz-adv-x="743" 
d="M709 520l-156 -520h-33l-149 499h-2l-147 -499h-33l-155 520h23l148 -500h2l146 500h34l149 -500h2l148 500h23zM249 708h27l103 -144h-19z" />
    <glyph glyph-name="yacute.sc" horiz-adv-x="408" 
d="M394 520l-179 -294v-226h-22v226l-179 294h25l166 -274l164 274h25zM304 708l-111 -144h-19l103 144h27z" />
    <glyph glyph-name="ycircumflex.sc" horiz-adv-x="408" 
d="M394 520l-179 -294v-226h-22v226l-179 294h25l166 -274l164 274h25zM191 708h28l103 -144h-23l-94 132l-94 -132h-23z" />
    <glyph glyph-name="ydieresis.sc" horiz-adv-x="408" 
d="M394 520l-179 -294v-226h-22v226l-179 294h25l166 -274l164 274h25zM128 633c-12 0 -23 10 -23 26c0 14 11 25 23 25s23 -11 23 -25c0 -16 -12 -26 -23 -26zM282 633c-12 0 -23 10 -23 26c0 14 11 25 23 25s23 -11 23 -25c0 -16 -12 -26 -23 -26z" />
    <glyph glyph-name="ygrave.sc" horiz-adv-x="408" 
d="M394 520l-179 -294v-226h-22v226l-179 294h25l166 -274l164 274h25zM106 708h27l103 -144h-19z" />
    <glyph glyph-name="zacute.sc" horiz-adv-x="450" 
d="M408 0h-366v23l338 477h-325v20h348v-24l-337 -476h342v-20zM305 708l-111 -144h-19l103 144h27z" />
    <glyph glyph-name="zcaron.sc" horiz-adv-x="450" 
d="M408 0h-366v23l338 477h-325v20h348v-24l-337 -476h342v-20zM246 564h-28l-103 144h23l94 -132l94 132h23z" />
    <glyph glyph-name="zdotaccent.sc" horiz-adv-x="450" 
d="M408 0h-366v23l338 477h-325v20h348v-24l-337 -476h342v-20zM227 633c-12 0 -23 10 -23 26c0 14 11 25 23 25s23 -11 23 -25c0 -16 -12 -26 -23 -26z" />
    <glyph glyph-name="ij.sc" horiz-adv-x="601" 
d="M124 0h-22v520h22v-520zM507 520v-380c0 -90 -44 -154 -133 -154c-70 0 -109 43 -125 88l19 9c18 -45 53 -76 105 -76c81 0 112 61 112 140v373h22z" />
    <glyph glyph-name="germandbls.sc" horiz-adv-x="873" 
d="M377 126c0 -91 -74 -140 -158 -140c-64 0 -119 24 -154 65l17 15c34 -39 84 -59 136 -59c72 0 137 42 137 118c0 79 -68 103 -136 125c-83 26 -145 56 -145 144c0 89 75 140 160 140c55 0 105 -22 134 -59l-17 -15c-26 34 -69 53 -118 53c-68 0 -137 -40 -137 -118
s63 -103 125 -123c89 -29 156 -58 156 -146zM819 126c0 -91 -74 -140 -158 -140c-64 0 -119 24 -154 65l17 15c34 -39 84 -59 136 -59c72 0 137 42 137 118c0 79 -68 103 -136 125c-83 26 -145 56 -145 144c0 89 75 140 160 140c55 0 105 -22 134 -59l-17 -15
c-26 34 -69 53 -118 53c-68 0 -137 -40 -137 -118s63 -103 125 -123c89 -29 156 -58 156 -146z" />
    <glyph glyph-name="eng.sc" horiz-adv-x="610" 
d="M508 -97c0 -94 -21 -144 -112 -144c-9 0 -21 1 -29 3l4 19c9 -2 17 -3 25 -3c85 0 90 64 90 123v91l-360 498h-2v-490h-22v520h30l352 -487h2v487h22v-617z" />
    <glyph glyph-name="grave.sc" horiz-adv-x="240" 
d="M20 708h27l103 -144h-19z" />
    <glyph glyph-name="acute.sc" horiz-adv-x="240" 
d="M220 708l-111 -144h-19l103 144h27z" />
    <glyph glyph-name="circumflex.sc" horiz-adv-x="240" 
d="M106 708h28l103 -144h-23l-94 132l-94 -132h-23z" />
    <glyph glyph-name="caron.sc" horiz-adv-x="240" 
d="M134 564h-28l-103 144h23l94 -132l94 132h23z" />
    <glyph glyph-name="tilde.sc" horiz-adv-x="240" 
d="M123 638c36 -22 44 -24 59 -24c23 0 35 15 40 48h16c-5 -48 -29 -67 -56 -67c-21 0 -34 5 -64 24c-34 22 -44 24 -59 24c-23 0 -35 -18 -40 -51h-16c5 48 29 70 56 70c21 0 35 -6 64 -24z" />
    <glyph glyph-name="dieresis.sc" horiz-adv-x="240" 
d="M43 633c-12 0 -23 10 -23 26c0 14 11 25 23 25s23 -11 23 -25c0 -16 -12 -26 -23 -26zM197 633c-12 0 -23 10 -23 26c0 14 11 25 23 25s23 -11 23 -25c0 -16 -12 -26 -23 -26z" />
    <glyph glyph-name="macron.sc" horiz-adv-x="240" 
d="M236 621h-232v20h232v-20z" />
    <glyph glyph-name="breve.sc" horiz-adv-x="240" 
d="M245 698c-13 -81 -61 -126 -127 -126c-65 0 -114 45 -124 126h19c13 -69 53 -106 105 -106c59 0 93 32 109 106h18z" />
    <glyph glyph-name="ring.sc" horiz-adv-x="240" 
d="M216 650c0 -54 -44 -95 -96 -95s-96 41 -96 95s44 95 96 95s96 -41 96 -95zM197 650c0 43 -34 78 -77 78s-77 -35 -77 -78s34 -78 77 -78s77 35 77 78z" />
    <glyph glyph-name="hungarumlaut.sc" horiz-adv-x="240" 
d="M171 708l-111 -145h-19l103 145h27zM288 708l-111 -145h-19l103 145h27z" />
    <glyph glyph-name="dotaccent.sc" horiz-adv-x="240" 
d="M120 633c-12 0 -23 10 -23 26c0 14 11 25 23 25s23 -11 23 -25c0 -16 -12 -26 -23 -26z" />
    <glyph glyph-name="exclamdown.sc" horiz-adv-x="250" 
d="M114 0v384h22v-384h-22zM125 475c-13 0 -23 10 -23 26c0 14 10 25 23 25s23 -11 23 -25c0 -16 -11 -26 -23 -26z" />
    <glyph glyph-name="questiondown.sc" horiz-adv-x="290" 
d="M86 242c40 43 49 68 49 117v37h22v-44c0 -34 -10 -72 -43 -110c-37 -43 -60 -63 -60 -125c0 -70 32 -109 82 -109c53 0 83 41 92 104l22 -4c-11 -77 -52 -122 -116 -122c-66 0 -103 49 -103 130c0 66 27 95 55 126zM142 554c11 0 21 -10 21 -22c0 -14 -10 -23 -21 -23
c-10 0 -21 9 -21 23c0 12 10 22 21 22z" />
    <glyph glyph-name="Euro.sc" horiz-adv-x="464" 
d="M391 490c-29 16 -60 24 -99 24c-90 0 -171 -64 -194 -183h249l-7 -19h-245c-3 -18 -4 -43 -4 -55c0 -13 0 -29 3 -48h219l-6 -19h-210c17 -113 90 -184 192 -184c44 0 78 10 110 31l11 -18c-31 -20 -74 -33 -123 -33c-115 0 -195 84 -213 204h-49l6 19h40
c-2 18 -2 32 -2 46c0 17 2 41 4 57h-49l6 19h46c27 137 113 203 217 203c40 0 79 -10 107 -25z" />
    <glyph glyph-name="cent.sc" horiz-adv-x="464" 
d="M293 454v-448c49 1 98 19 133 52l15 -14c-39 -39 -95 -56 -148 -57v-59h-22v59c-126 7 -217 106 -217 242c0 135 90 236 217 244v67h22v-67c56 -1 110 -24 146 -61l-17 -15c-34 35 -81 56 -129 57zM271 454c-120 -8 -195 -109 -195 -225c0 -115 75 -215 195 -223v448z
" />
    <glyph glyph-name="sterling.sc" horiz-adv-x="464" 
d="M175 280h124v-19h-124v-241h181v-20h-283v20h80v241h-72v19h72v102c0 91 44 152 132 152c34 0 65 -12 87 -31l-14 -16c-21 18 -45 27 -73 27c-75 0 -110 -54 -110 -136v-98z" />
    <glyph glyph-name="florin.sc" horiz-adv-x="464" 
d="M419 512l-12 -18c-13 10 -38 18 -57 18c-62 0 -86 -50 -95 -103l-24 -135h97v-19h-100l-43 -235c-11 -60 -35 -106 -99 -106c-19 0 -48 6 -64 15l10 19c16 -8 38 -14 54 -14c55 0 71 43 83 111l37 210h-88v19h91l23 129c13 72 41 128 117 128c28 0 54 -8 70 -19z" />
    <glyph glyph-name="yen.sc" horiz-adv-x="464" 
d="M221 255h-136v19h128l-173 246h26l167 -242l167 242h24l-171 -246h127v-19h-137v-91h137v-19h-137v-145h-22v145h-136v19h136v91z" />
    <glyph glyph-name="perthousand.sc" horiz-adv-x="965" 
d="M311 415c0 -68 -53 -119 -118 -119c-64 0 -117 51 -117 119c0 66 53 119 117 119c65 0 118 -53 118 -119zM289 415c0 56 -42 99 -96 99c-53 0 -95 -43 -95 -99c0 -58 42 -99 95 -99c54 0 96 41 96 99zM615 105c0 -68 -53 -119 -118 -119c-64 0 -117 51 -117 119
c0 66 53 119 117 119c65 0 118 -53 118 -119zM593 105c0 56 -42 99 -96 99c-53 0 -95 -43 -95 -99c0 -58 42 -99 95 -99c54 0 96 41 96 99zM903 105c0 -68 -53 -119 -118 -119c-64 0 -117 51 -117 119c0 66 53 119 117 119c65 0 118 -53 118 -119zM881 105
c0 56 -42 99 -96 99c-53 0 -95 -43 -95 -99c0 -58 42 -99 95 -99c54 0 96 41 96 99zM517 537l-330 -564l-18 10l330 565z" />
    <glyph glyph-name="zero.onum" horiz-adv-x="673" 
d="M606 261c0 -161 -110 -275 -270 -275c-158 0 -269 114 -269 275s111 273 269 273c160 0 270 -112 270 -273zM584 261c0 140 -95 253 -248 253s-247 -113 -247 -253s94 -255 247 -255s248 115 248 255z" />
    <glyph glyph-name="one.onum" 
d="M200 0h-22v492l-110 -93l-13 17l124 104h21v-520z" />
    <glyph glyph-name="two.onum" horiz-adv-x="520" 
d="M442 0h-376v25l136 99c135 96 203 158 203 253c0 88 -68 137 -149 137c-68 0 -128 -35 -155 -106l-20 6c30 79 92 120 175 120c96 0 171 -56 171 -157c0 -98 -65 -162 -215 -270l-116 -84v-3h346v-20z" />
    <glyph glyph-name="three.onum" horiz-adv-x="520" 
d="M423 489c-67 -60 -181 -157 -271 -231l1 -3c22 6 43 8 63 8c106 0 219 -64 219 -203c0 -164 -127 -230 -258 -230c-31 0 -69 3 -99 10l4 22c30 -8 67 -12 95 -12c119 0 236 56 236 209c0 127 -104 184 -199 184c-31 0 -69 -5 -104 -17l-7 17c89 70 236 195 300 254v3
h-327v20h347v-31z" />
    <glyph glyph-name="four.onum" horiz-adv-x="550" 
d="M374 534l-298 -502h295v293h22v-293h122v-20h-122v-182h-22v182h-320v21l299 501h24z" />
    <glyph glyph-name="five.onum" horiz-adv-x="520" 
d="M219 231c-43 0 -89 -12 -120 -27l33 316h298v-20h-280l-27 -267c24 10 65 18 96 18c114 0 217 -60 217 -196c0 -157 -116 -225 -245 -225c-35 0 -77 4 -108 11l4 22c30 -8 66 -13 104 -13c128 0 223 70 223 205c0 125 -96 176 -195 176z" />
    <glyph glyph-name="six.onum" horiz-adv-x="560" 
d="M92 201c0 -112 78 -194 188 -194s188 82 188 194s-72 197 -183 197c-104 0 -193 -81 -193 -197zM396 697c-114 -100 -234 -246 -281 -365l2 -1c42 56 103 87 170 87c122 0 203 -93 203 -217c0 -123 -88 -213 -211 -213s-209 88 -209 213c0 195 195 400 309 509z" />
    <glyph glyph-name="seven.onum" horiz-adv-x="510" 
d="M450 500c-107 -223 -236 -507 -308 -684l-21 7c71 171 226 508 308 677h-369v20h390v-20z" />
    <glyph glyph-name="eight.onum" horiz-adv-x="560" 
d="M489 188c0 -122 -89 -200 -209 -200s-209 78 -209 200c0 82 47 163 149 191v2c-84 32 -122 101 -122 166c0 103 78 173 182 173s182 -70 182 -173c0 -65 -39 -136 -122 -166v-2c105 -32 149 -109 149 -191zM441 547c0 92 -71 154 -161 154s-161 -62 -161 -154
c0 -84 67 -159 161 -159s161 75 161 159zM467 188c0 107 -84 183 -187 183s-187 -76 -187 -183c0 -102 74 -181 187 -181s187 79 187 181z" />
    <glyph glyph-name="nine.onum" horiz-adv-x="560" 
d="M468 321c0 112 -78 194 -188 194s-188 -82 -188 -194s72 -197 183 -197c104 0 193 81 193 197zM164 -171c114 96 234 242 281 361l-2 1c-42 -56 -103 -87 -170 -87c-122 0 -203 93 -203 217c0 123 88 213 211 213s209 -88 209 -213c0 -195 -195 -400 -309 -505z" />
    <glyph glyph-name="napostrophe.sc" horiz-adv-x="620" 
d="M518 0h-30l-352 490h-2v-490h-22v520h30l352 -490h2v490h22v-520zM53 520l-58 -185h-17l51 185h24z" />
    <glyph glyph-name="ordfeminine.sc" 
d="M323 431h-21l-34 76h-184l-36 -76h-20l136 291h27zM262 523l-84 186l-88 -186h172z" />
    <glyph glyph-name="fi.sc" horiz-adv-x="675" 
d="M399 500h-275v-224h256v-20h-256v-256h-22v520h297v-20zM573 0h-22v520h22v-520z" />
    <glyph glyph-name="fl.sc" horiz-adv-x="839" 
d="M399 500h-275v-224h256v-20h-256v-256h-22v520h297v-20zM827 0h-276v520h22v-500h254v-20z" />
    </font>
</defs>
</svg>
